<svg width="148" height="148" viewBox="0 0 148 148" fill="none" xmlns="http://www.w3.org/2000/svg">
<circle cx="73.9999" cy="74.0007" r="61.6667" fill="#FFB6CE"/>
<path d="M72.4352 109.511C67.8782 109.511 63.6698 108.356 59.9132 106.071C46.7086 98.0407 43.831 78.4359 53.5049 62.37C60.1931 51.2596 71.2959 44.3594 82.4724 44.3594C87.0294 44.3594 91.2378 45.5143 94.9944 47.7996C108.199 55.8301 111.077 75.4349 101.403 91.5008C94.7145 102.611 83.6166 109.516 72.4352 109.516V109.511Z" fill="#EF6A9D"/>
<path d="M82.4725 42.8809V45.8423C86.7546 45.8423 90.7076 46.9282 94.2285 49.0654C106.741 56.6714 109.392 75.3631 100.141 90.7331C96.9342 96.0637 92.5835 100.496 87.5599 103.551C82.7377 106.483 77.508 108.033 72.4353 108.033C68.1533 108.033 64.1953 106.947 60.6794 104.81C54.7081 101.177 50.7747 94.9087 49.6011 87.1546C48.398 79.1982 50.2345 70.6741 54.767 63.1422C57.9736 57.8115 62.3244 53.3792 67.3479 50.324C72.1701 47.3921 77.3999 45.8423 82.4725 45.8423V42.8809ZM82.4725 42.8809C71.2322 42.8809 59.3928 49.7366 52.243 61.6121C42.137 78.4035 45.2257 98.882 59.1522 107.347C63.228 109.825 67.7801 110.999 72.4353 110.999C83.6756 110.999 95.5151 104.144 102.665 92.2681C112.771 75.4766 109.682 54.9982 95.7557 46.5333C91.6799 44.0556 87.1278 42.8809 82.4725 42.8809Z" fill="#971A4A"/>
<path d="M62.7739 103.639C58.2169 103.639 54.0085 102.484 50.2519 100.199C37.0473 92.1687 34.1746 72.5639 43.8436 56.498C50.5318 45.3876 61.6346 38.4824 72.8111 38.4824C77.3681 38.4824 81.5765 39.6374 85.3331 41.9226C98.5377 49.9531 101.415 69.558 91.7414 85.6239C85.0532 96.7343 73.9553 103.639 62.7739 103.639Z" fill="#FF8FB4"/>
<path d="M72.8106 37.0039V39.9654C77.0927 39.9654 81.0457 41.0512 84.5666 43.1884C90.5379 46.8211 94.4712 53.0896 95.6449 60.8436C96.848 68.8001 95.0114 77.3241 90.4789 84.8561C87.2723 90.1867 82.9215 94.6191 77.898 97.6743C73.0758 100.606 67.846 102.156 62.7734 102.156C58.4914 102.156 54.5334 101.07 51.0175 98.9329C38.5053 91.3269 35.8536 72.6352 45.1051 57.2652C48.3117 51.9346 52.6625 47.5023 57.686 44.447C62.5082 41.5152 67.738 39.9654 72.8106 39.9654V37.0039ZM72.8106 37.0039C61.5703 37.0039 49.7309 43.8597 42.586 55.7351C32.4751 72.5266 35.5688 93.0001 49.4903 101.47C53.5661 103.948 58.1182 105.122 62.7734 105.122C74.0137 105.122 85.8532 98.2666 93.003 86.3911C103.109 69.5997 100.02 49.1212 86.0938 40.6564C82.018 38.1786 77.4659 37.0039 72.8106 37.0039Z" fill="#971A4A"/>
<path d="M49.6404 99.2189L48.6238 100.908L60.7078 108.255L61.7244 106.566L49.6404 99.2189Z" fill="#971A4A"/>
<path d="M85.9612 40.6555L84.4363 43.1895L96.5203 50.5366L98.0453 48.0027L85.9612 40.6555Z" fill="#971A4A"/>
<path d="M96.024 52.1672L94.499 54.7012L103.894 60.4134L105.419 57.8794L96.024 52.1672Z" fill="#971A4A"/>
<path d="M97.9871 62.0383L96.4622 64.5723L105.857 70.2845L107.382 67.7505L97.9871 62.0383Z" fill="#971A4A"/>
<path d="M97.9813 72.8958L96.4563 75.4297L105.851 81.1419L107.376 78.608L97.9813 72.8958Z" fill="#971A4A"/>
<path d="M92.5855 84.7376L91.0605 87.2715L100.455 92.9837L101.98 90.4497L92.5855 84.7376Z" fill="#971A4A"/>
<path d="M83.7452 94.1165L82.2202 96.6504L91.6152 102.363L93.1401 99.8287L83.7452 94.1165Z" fill="#971A4A"/>
<path d="M74.9107 99.5442L73.3857 102.078L82.7807 107.79L84.3056 105.256L74.9107 99.5442Z" fill="#971A4A"/>
<path d="M66.0701 102.507L64.5452 105.041L73.9401 110.753L75.4651 108.219L66.0701 102.507Z" fill="#971A4A"/>
<path d="M62.273 61.9805L61.4038 66.2993H56.7093L54.2688 78.5202H48.8229L51.2635 66.2993H46.5935L47.4627 61.9805H62.2779H62.273Z" fill="#971A4A"/>
<path d="M69.0128 61.9805L65.7276 78.5202H60.2817L63.5669 61.9805H69.0128Z" fill="#971A4A"/>
<path d="M88.0753 61.9805L80.7978 68.8461L84.9521 78.5202H78.6371L76.3832 72.9773L74.2225 75.0306L73.5203 78.5251H68.0745L71.3596 61.9854H76.8055L75.6073 68.0021L81.5933 61.9854H88.0753V61.9805Z" fill="#971A4A"/>
</svg>
