<svg width="148" height="148" viewBox="0 0 148 148" fill="none" xmlns="http://www.w3.org/2000/svg">
<circle cx="73.9999" cy="74.0007" r="61.6667" fill="#FF6100"/>
<path d="M54.8845 78.1133L54.9585 78.1536L54.8845 78.1133Z" fill="#C0C0C0"/>
<path d="M54.8845 78.1133L54.9585 78.1536L54.8845 78.1133Z" fill="url(#paint0_linear_2396_50528)"/>
<path d="M80.4294 37.0059L49.4684 62.0428C48.7089 62.657 48.4051 63.6807 48.7089 64.6053L52.2951 75.6213C52.4008 75.9515 52.5593 76.2619 52.7508 76.5459C52.8895 76.744 53.048 76.9289 53.2263 77.094C53.4574 77.312 53.7216 77.5035 54.0056 77.6554L54.8774 78.1111C54.2764 77.7941 53.9858 77.1733 54.032 76.5723C54.065 76.1628 54.2566 75.7599 54.6132 75.4694L60.9269 70.3642L62.1223 69.4L62.9412 68.7396L84.96 50.9343L80.4294 37.0059Z" fill="white"/>
<path d="M60.9319 70.3627L62.1273 69.3984L60.9319 70.3627Z" fill="#AEAEAE"/>
<path d="M60.9319 70.3627L62.1273 69.3984L60.9319 70.3627Z" fill="url(#paint1_linear_2396_50528)"/>
<path opacity="0.4" d="M63.8031 70.2768L62.1256 69.3984L60.9302 70.3627L54.6165 75.4678C54.2532 75.7584 54.0683 76.1613 54.0353 76.5707C53.9891 77.1717 54.2796 77.7991 54.8806 78.1095L54.9467 78.1491L67.0986 84.5157L76.4833 76.9274L63.7965 70.2768H63.8031Z" fill="white"/>
<path d="M99.2714 82.0405L97.2967 70.3839C97.2241 69.9414 97.0656 69.5121 96.841 69.1291C96.7023 68.8913 96.5504 68.6668 96.3523 68.4687C96.3127 68.429 96.2665 68.396 96.2268 68.363C96.0947 68.2441 95.9561 68.1318 95.8108 68.0394C95.7051 67.9667 95.5928 67.8941 95.4739 67.8346L95.2956 67.7422C95.3881 67.8082 95.4673 67.8941 95.5334 67.9799C95.8966 68.4555 95.8702 69.1753 95.3749 69.598L94.873 70.0273L94.6418 70.2188L94.3776 70.4367L87.4167 76.1627L86.8949 76.592L85.8713 77.4307L61.9307 97.1115L66.5735 111L98.5185 84.6228C99.2714 84.002 99.5686 82.9783 99.2582 82.0537L99.2714 82.0405Z" fill="white"/>
<path opacity="0.4" d="M95.5433 67.9798V68.0128C95.5433 68.0128 95.5433 67.993 95.5433 67.9798C95.4773 67.894 95.398 67.8081 95.3056 67.7421L95.1405 67.6562L94.8631 67.5175L94.6649 67.4184C94.6649 67.4184 94.6253 67.392 94.6055 67.3854L94.3611 67.2665L93.9054 67.042L86.1256 63.1719L76.8003 70.8395L85.3529 75.1257L85.8812 75.3898L86.8256 75.8654L87.4266 76.1625L94.0177 70.747L94.3876 70.4432L94.6517 70.2253L94.8829 70.0338L95.3848 69.6045C95.8801 69.1818 95.9066 68.4619 95.5433 67.9864V67.9798Z" fill="white"/>
<defs>
<linearGradient id="paint0_linear_2396_50528" x1="54.0167" y1="78.1335" x2="55.1603" y2="78.1335" gradientUnits="userSpaceOnUse">
<stop offset="0.31" stop-color="white"/>
<stop offset="0.73" stop-color="#E4E4E4"/>
</linearGradient>
<linearGradient id="paint1_linear_2396_50528" x1="48.5884" y1="69.8806" x2="84.965" y2="69.8806" gradientUnits="userSpaceOnUse">
<stop offset="0.31" stop-color="white"/>
<stop offset="0.73" stop-color="#E4E4E4"/>
</linearGradient>
</defs>
</svg>
