<svg width="12" height="12" viewBox="0 0 12 12" fill="none" xmlns="http://www.w3.org/2000/svg">
    <defs>
        <linearGradient id="paint0_linear_5346_52532" x1="7.781" y1="2.04491" x2="8.34079" y2="4.02534" gradientUnits="userSpaceOnUse">
            <stop stop-color="#191921"/>
            <stop offset="1" stop-color="#32333C"/>
        </linearGradient>
        <linearGradient id="paint1_linear_5346_52532" x1="7.781" y1="2.04491" x2="8.34079" y2="4.02534" gradientUnits="userSpaceOnUse">
            <stop stop-color="#191921"/>
            <stop offset="1" stop-color="#32333C"/>
        </linearGradient>
        <linearGradient id="paint2_linear_5346_52532" x1="5.83077" y1="2.24383" x2="7.56433" y2="8.37676" gradientUnits="userSpaceOnUse">
            <stop stop-color="#191921"/>
            <stop offset="1" stop-color="#32333C"/>
        </linearGradient>
        <linearGradient id="paint3_linear_5346_52532" x1="5.83077" y1="2.24383" x2="7.56433" y2="8.37676" gradientUnits="userSpaceOnUse">
            <stop stop-color="#191921"/>
            <stop offset="1" stop-color="#32333C"/>
        </linearGradient>
        <linearGradient id="paint4_linear_5346_52532" x1="3.37965" y1="6.06336" x2="4.2374" y2="9.09788" gradientUnits="userSpaceOnUse">
            <stop stop-color="#191921"/>
            <stop offset="1" stop-color="#32333C"/>
        </linearGradient>
        <linearGradient id="paint5_linear_5346_52532" x1="3.37965" y1="6.06336" x2="4.2374" y2="9.09788" gradientUnits="userSpaceOnUse">
            <stop stop-color="#191921"/>
            <stop offset="1" stop-color="#32333C"/>
        </linearGradient>
        <linearGradient id="paint6_linear_5346_52532" x1="6.15596" y1="1.79737" x2="5.48949" y2="9.72956" gradientUnits="userSpaceOnUse">
            <stop stop-color="#191921"/>
            <stop offset="1" stop-color="#32333C"/>
        </linearGradient>
    </defs>
<circle cx="6" cy="6" r="6" fill="#0EE6F3"/>
<path d="M8.50563 2.97204C8.57923 3.23243 8.43023 3.48047 8.20479 3.54419C7.97936 3.60791 7.72255 3.47458 7.64895 3.21419C7.57535 2.9538 7.72435 2.70576 7.94979 2.64204C8.17522 2.57832 8.43202 2.71165 8.50563 2.97204Z" fill="url(#paint0_linear_5346_52532)" stroke="url(#paint1_linear_5346_52532)"/>
<path d="M6.84979 6.97291C6.87907 7.00205 6.89892 7.03563 6.91036 7.07066L6.7359 6.90851L5.62053 5.87188L5.62053 5.87187C5.45213 5.71536 5.43776 5.46379 5.50868 5.35524L5.50876 5.3553L5.514 5.34692L6.15554 4.32125L6.39206 3.9431L6.04327 3.66511L5.94557 3.58723L6.14424 3.69268C6.14426 3.69269 6.14427 3.69269 6.14429 3.6927C6.21433 3.72989 6.28656 3.78106 6.34563 3.82708C6.36501 3.84218 6.38174 3.85573 6.39607 3.86751L6.82159 4.43252L6.55505 4.78656L6.00224 5.52087L5.7403 5.8688L6.049 6.17601L6.84979 6.97291ZM6.25879 3.47692C6.26437 3.40791 6.28713 3.31749 6.34483 3.23308L6.3787 3.25105C6.53765 3.33544 6.67785 3.45161 6.73268 3.49704C6.74423 3.50661 6.75199 3.51304 6.75534 3.51538L6.35676 3.81532C6.35259 3.80978 6.34417 3.79835 6.33451 3.7831L6.33414 3.78251C6.32815 3.77308 6.30282 3.73314 6.28366 3.6766C6.27464 3.65 6.25277 3.5799 6.25804 3.4877C6.25824 3.48419 6.25849 3.48061 6.25878 3.47698L6.37855 3.25134L6.25879 3.47692Z" fill="url(#paint2_linear_5346_52532)" stroke="url(#paint3_linear_5346_52532)"/>
<path d="M4.59724 6.86127C4.62783 6.89791 4.66049 6.93485 4.69537 6.97194L4.08547 7.59158L4.59724 6.86127Z" fill="url(#paint4_linear_5346_52532)" stroke="url(#paint5_linear_5346_52532)"/>
<circle cx="6" cy="6" r="6" fill="#B0A3FF"/>
<path d="M4.91808 2.24679L4.41067 3.23709L4.40218 3.23638C4.34153 3.36663 3.35075 4.57278 3.35075 4.57278L2.90677 4.95387C2.8333 5.01656 2.80342 5.12756 2.83304 5.22883C2.91847 5.52143 3.19794 6.15518 4.10706 7.01137C4.10706 7.01137 6.0533 8.82475 6.62924 9.47771C6.69264 9.54953 6.76888 9.60295 6.85293 9.63328C7.12452 9.73256 7.76104 9.94134 8.37972 9.97005C8.53094 9.97706 8.67508 9.89419 8.76328 9.75105C8.89132 9.54335 8.90494 9.26762 8.79817 9.04303C8.63619 8.70268 8.37301 8.16861 8.06184 7.61341C8.06184 7.61341 7.28859 5.17957 7.25785 4.75431C7.23591 4.45327 7.54078 3.50056 7.72 2.97137C7.77763 2.80097 7.66573 2.6168 7.50882 2.62403L6.11222 2.47867L5.83192 3.12L5.31135 2.98128L5.16628 2.29281C5.13711 2.15501 4.98018 2.12663 4.91803 2.24773L4.91808 2.24679Z" fill="url(#paint6_linear_5346_52532)"/>

</svg>
