<svg width="12" height="12" viewBox="0 0 12 12" fill="none" xmlns="http://www.w3.org/2000/svg">
    <defs>
        <linearGradient id="paint0_linear_5401_46714" x1="7.781" y1="2.2246" x2="8.34079" y2="4.20503" gradientUnits="userSpaceOnUse">
            <stop stop-color="#191921"/>
            <stop offset="1" stop-color="#32333C"/>
        </linearGradient>
        <linearGradient id="paint1_linear_5401_46714" x1="7.781" y1="2.2246" x2="8.34079" y2="4.20503" gradientUnits="userSpaceOnUse">
            <stop stop-color="#191921"/>
            <stop offset="1" stop-color="#32333C"/>
        </linearGradient>
        <linearGradient id="paint2_linear_5401_46714" x1="5.83077" y1="2.42352" x2="7.56433" y2="8.55644" gradientUnits="userSpaceOnUse">
            <stop stop-color="#191921"/>
            <stop offset="1" stop-color="#32333C"/>
        </linearGradient>
        <linearGradient id="paint3_linear_5401_46714" x1="5.83077" y1="2.42352" x2="7.56433" y2="8.55644" gradientUnits="userSpaceOnUse">
            <stop stop-color="#191921"/>
            <stop offset="1" stop-color="#32333C"/>
        </linearGradient>
        <linearGradient id="paint4_linear_5401_46714" x1="3.37965" y1="6.24305" x2="4.2374" y2="9.27757" gradientUnits="userSpaceOnUse">
            <stop stop-color="#191921"/>
            <stop offset="1" stop-color="#32333C"/>
        </linearGradient>
    </defs>
<circle cx="6" cy="6" r="6" fill="#0EE6F3"/>
<path d="M8.50563 3.15173C8.57923 3.41212 8.43023 3.66016 8.20479 3.72388C7.97936 3.7876 7.72255 3.65427 7.64895 3.39388C7.57535 3.13349 7.72435 2.88545 7.94979 2.82173C8.17522 2.758 8.43202 2.89133 8.50563 3.15173Z" fill="url(#paint0_linear_5401_46714)" stroke="url(#paint1_linear_5401_46714)"/>
<path d="M7.42962 4.58841L6.75639 3.69451C6.77101 3.71396 6.59169 3.54382 6.3787 3.43074L5.6426 3.04005C5.52898 2.97974 5.39876 2.96199 5.27471 2.98985L3.39453 3.5L3.55445 4.057L5.10077 3.80898C5.1586 3.79971 5.21771 3.81873 5.26051 3.86028L5.73163 4.23579L5.09009 5.26146C4.86032 5.61316 4.97015 6.1297 5.28014 6.41781L6.39551 7.45444L4.86395 8.68974L5.30234 9.19582L7.11679 7.92298C7.48615 7.66386 7.52747 7.12162 7.20249 6.7982L6.40169 6.00128L6.95451 5.26698L7.26611 5.68745C7.41036 5.88211 7.65922 5.96226 7.88389 5.88641L9.40504 5.37311L9.26054 4.86189L8.09209 5.03427C7.89355 5.06357 7.69368 4.9801 7.42958 4.58829L7.42962 4.58841Z" fill="url(#paint2_linear_5401_46714)"/>
<path fill-rule="evenodd" clip-rule="evenodd" d="M7.42954 4.5883C7.46756 4.64471 7.50438 4.69483 7.53993 4.73904C7.55644 4.75957 7.57271 4.77886 7.58875 4.79694C7.62297 4.83553 7.65615 4.86868 7.68847 4.89695C7.69537 4.90299 7.70223 4.9088 7.70905 4.9144C7.82128 5.00646 7.92345 5.04 8.02348 5.03961C8.02586 5.0396 8.02824 5.03957 8.03062 5.03952C8.05117 5.03911 8.07164 5.03729 8.09209 5.03427L9.26054 4.86189L9.40504 5.37311L8.20199 5.77907L7.88389 5.88641C7.83397 5.90326 7.78286 5.91241 7.73197 5.91432C7.72752 5.91449 7.72307 5.9146 7.71862 5.91465C7.54507 5.91684 7.37551 5.83508 7.26611 5.68745L6.95451 5.26698L6.40169 6.00128L7.20249 6.7982C7.21666 6.8123 7.23014 6.82682 7.24292 6.84171C7.27156 6.87509 7.29672 6.91034 7.31843 6.94701C7.50924 7.26923 7.43395 7.70048 7.11679 7.92298L5.30234 9.19582L4.86395 8.68974L6.39551 7.45444L5.28014 6.41781C4.97015 6.1297 4.86032 5.61316 5.09009 5.26146L5.73163 4.23579L5.26051 3.86028C5.24891 3.84902 5.23612 3.83942 5.22248 3.83158C5.22247 3.83158 5.22249 3.83159 5.22248 3.83158C5.18578 3.81051 5.14293 3.80223 5.10077 3.80898L3.55445 4.057L3.39453 3.5L5.27471 2.98985C5.39876 2.96199 5.52898 2.97974 5.6426 3.04005L6.22095 3.34701L6.36303 3.46026L6.70492 3.73277L6.75518 3.69495C6.7553 3.69503 6.75508 3.69488 6.75518 3.69495C6.7571 3.69627 6.75777 3.69634 6.75639 3.69451L7.42954 4.5883Z" fill="url(#paint3_linear_5401_46714)"/>
<path fill-rule="evenodd" clip-rule="evenodd" d="M4.86153 6.56006C4.6754 6.27724 4.6662 6.07129 4.6662 6.07129L2.43569 9.25426L2.94476 9.64295L5.42387 7.12428C5.35935 7.07807 5.30032 7.03185 5.24631 6.98598C5.24271 6.98292 5.23913 6.97986 5.23557 6.9768C5.07902 6.84231 4.96545 6.71102 4.88309 6.592" fill="url(#paint4_linear_5401_46714)"/>

</svg>
