<svg width="22" height="22" viewBox="0 0 22 22" fill="none" xmlns="http://www.w3.org/2000/svg">
<g id="ic-luck-circle-18">
<path id="vector" fill-rule="evenodd" clip-rule="evenodd" d="M10.9999 19.5564C15.725 19.5564 19.5554 15.726 19.5554 11.0009C19.5554 6.27577 15.725 2.44531 10.9999 2.44531C6.27479 2.44531 2.44434 6.27577 2.44434 11.0009C2.44434 15.726 6.27479 19.5564 10.9999 19.5564ZM15.8601 10.6653L15.4704 11.0009L15.8601 11.3365C16.5095 11.8993 16.5095 12.7977 15.8601 13.3606C15.2106 13.9235 14.1606 13.9235 13.5112 13.3606L12.3963 12.3972L13.3596 13.5122C13.9225 14.1616 13.9225 15.2116 13.3596 15.8611C12.7968 16.5105 11.8983 16.5105 11.3355 15.8611L10.9999 15.4714L10.6644 15.8611C10.1015 16.5105 9.20307 16.5105 8.6402 15.8611C8.07733 15.2116 8.07733 14.1616 8.6402 13.5122L9.60357 12.3972L8.48866 13.3606C7.8392 13.9235 6.78923 13.9235 6.13977 13.3606C5.4903 12.7977 5.4903 11.8993 6.13977 11.3365L6.52945 11.0009L6.13977 10.6653C5.4903 10.1025 5.4903 9.20405 6.13977 8.64118C6.78923 8.07831 7.8392 8.07831 8.48866 8.64118L9.60357 9.60455L8.6402 8.48964C8.07733 7.84017 8.08816 6.79021 8.6402 6.14074C9.19225 5.49128 10.1015 5.49128 10.6644 6.14074L10.9999 6.53042L11.3355 6.14074C11.8983 5.49128 12.7968 5.49128 13.3596 6.14074C13.9225 6.79021 13.9225 7.84017 13.3596 8.48964L12.3963 9.60455L13.5112 8.64118C14.1606 8.07831 15.2106 8.07831 15.8601 8.64118C16.5095 9.20405 16.5095 10.1025 15.8601 10.6653Z" fill="#FF74B7"/>
</g>
</svg>
