<svg width="14" height="14" viewBox="0 0 14 14" fill="none" xmlns="http://www.w3.org/2000/svg">
<defs>
<linearGradient id="paint0_linear_2159_14239" x1="9.07653" y1="2.39094" x2="9.72962" y2="4.70144" gradientUnits="userSpaceOnUse">
<stop stop-color="#191921"/>
<stop offset="1" stop-color="#32333C"/>
</linearGradient>
<linearGradient id="paint1_linear_2159_14239" x1="9.07653" y1="2.39094" x2="9.72962" y2="4.70144" gradientUnits="userSpaceOnUse">
<stop stop-color="#191921"/>
<stop offset="1" stop-color="#32333C"/>
</linearGradient>
<linearGradient id="paint2_linear_2159_14239" x1="6.802" y1="2.62106" x2="8.82448" y2="9.77614" gradientUnits="userSpaceOnUse">
<stop stop-color="#191921"/>
<stop offset="1" stop-color="#32333C"/>
</linearGradient>
<linearGradient id="paint3_linear_2159_14239" x1="3.94204" y1="7.07652" x2="4.94274" y2="10.6168" gradientUnits="userSpaceOnUse">
<stop stop-color="#191921"/>
<stop offset="1" stop-color="#32333C"/>
</linearGradient>
</defs>
<path d="M10.0021 3.44992C10.1 3.79612 9.90277 4.1329 9.59362 4.22029C9.28447 4.30767 8.94014 4.12396 8.84228 3.77776C8.74442 3.43156 8.94163 3.09478 9.25078 3.0074C9.55993 2.92001 9.90426 3.10372 10.0021 3.44992Z" fill="url(#paint0_linear_2159_14239)" stroke="url(#paint1_linear_2159_14239)"/>
<path d="M8.66732 5.14677L7.88189 4.10389C7.89895 4.12657 7.68974 3.92808 7.44124 3.79615L6.58246 3.34034C6.44991 3.26998 6.29798 3.24928 6.15325 3.28177L3.95972 3.87695L4.14629 4.52679L5.95033 4.23743C6.0178 4.22662 6.08676 4.2488 6.13669 4.29728L6.68633 4.73537L5.93787 5.93199C5.6698 6.34231 5.79793 6.94494 6.15959 7.28106L7.46085 8.49047L5.67404 9.93164L6.1855 10.5221L8.30235 9.03709C8.73328 8.7348 8.78148 8.10217 8.40234 7.72485L7.46807 6.79512L8.11302 5.93843L8.47656 6.42897C8.64485 6.65609 8.93519 6.74959 9.1973 6.6611L10.972 6.06225L10.8034 5.46582L9.4402 5.66694C9.20857 5.70112 8.97538 5.60374 8.66728 5.14663L8.66732 5.14677Z" fill="url(#paint2_linear_2159_14239)"/>
<path d="M5.44301 6.87614C5.44301 6.87614 5.4705 7.49123 6.32695 8.10463L3.43465 11.0431L2.84074 10.5896L5.44301 6.87614Z" fill="url(#paint3_linear_2159_14239)"/>
</svg>
