<svg width="38" height="16" viewBox="0 0 38 16" fill="none" xmlns="http://www.w3.org/2000/svg">
<path d="M0.5 4.5C0.5 2.29086 2.29086 0.5 4.5 0.5H33.5C35.7091 0.5 37.5 2.29086 37.5 4.5V11.5C37.5 13.7091 35.7091 15.5 33.5 15.5H4.5C2.29086 15.5 0.5 13.7091 0.5 11.5V4.5Z" fill="#0EE6F3"/>
<path d="M9.48332 11.5V4.5H10.8233L14.9533 9.54H14.3033V4.5H15.9033V11.5H14.5733L10.4333 6.46H11.0833V11.5H9.48332ZM19.0595 7.65H22.4195V8.95H19.0595V7.65ZM19.1795 11.5H17.5595V4.5H22.8495V5.8H19.1795V11.5ZM25.445 11.5V5.82H23.205V4.5H29.305V5.82H27.065V11.5H25.445Z" fill="black"/>
</svg>
