<svg width="317" height="128" viewBox="0 0 317 128" fill="none" xmlns="http://www.w3.org/2000/svg">
<path d="M103.67 0L72.053 0L72.053 68.7735H71.0546L26.9575 0L0 0L4.52787e-07 128H31.6168L31.6168 58.8729H32.4488L77.2115 128H103.67L103.67 0Z" fill="#2E3038"/>
<path d="M119.977 128L151.594 128L151.594 77.6133H198.687L198.687 50.3867L151.594 50.3867L151.594 27.2265L204.012 27.2265L204.012 0L119.977 0L119.977 128Z" fill="#2E3038"/>
<path d="M213.164 27.2265L249.44 27.2265L249.44 128H280.724L280.724 27.2265L317 27.2265L317 0L213.164 0L213.164 27.2265Z" fill="#2E3038"/>
</svg>
