<svg width="22" height="22" viewBox="0 0 22 22" fill="none" xmlns="http://www.w3.org/2000/svg">
<g id="ic-durability-circle-18">
<path id="vector" fill-rule="evenodd" clip-rule="evenodd" d="M8.00005 14.2218C11.4365 14.2218 14.2223 11.436 14.2223 7.99957C14.2223 4.56313 11.4365 1.77734 8.00005 1.77734C4.56362 1.77734 1.77783 4.56313 1.77783 7.99957C1.77783 11.436 4.56362 14.2218 8.00005 14.2218ZM6.35186 5.13382L6.87807 4.10684L6.87801 4.10782C6.94247 3.98223 7.1052 4.01166 7.13545 4.15457L7.2859 4.86853L7.82575 5.01239L8.11643 4.34731L9.56475 4.49806C9.72748 4.49055 9.84352 4.68155 9.78375 4.85826C9.5979 5.40705 9.28174 6.39505 9.30449 6.70723C9.33637 7.14824 10.1383 9.67223 10.1383 9.67223C10.461 10.248 10.7339 10.8018 10.9019 11.1548C11.0126 11.3877 10.9985 11.6736 10.8657 11.889C10.7742 12.0375 10.6247 12.1234 10.4679 12.1162C9.82631 12.0864 9.16623 11.8699 8.88457 11.7669C8.79741 11.7354 8.71835 11.68 8.6526 11.6056C8.05533 10.9284 6.037 9.04789 6.037 9.04789C5.09422 8.15998 4.80439 7.50277 4.7158 7.19933C4.68508 7.09431 4.71607 6.9792 4.79226 6.91419L5.25268 6.51898C5.25268 6.51898 6.28016 5.26816 6.34305 5.13308L6.35186 5.13382Z" fill="#B85DFF"/>
</g>
</svg>
