<svg width="22" height="22" viewBox="0 0 22 22" fill="none" xmlns="http://www.w3.org/2000/svg">
<g id="ic-stamina-circle-18">
<path id="vector" fill-rule="evenodd" clip-rule="evenodd" d="M8.50005 14.2218C11.9365 14.2218 14.7223 11.436 14.7223 7.99957C14.7223 4.56313 11.9365 1.77734 8.50005 1.77734C5.06362 1.77734 2.27783 4.56313 2.27783 7.99957C2.27783 11.436 5.06362 14.2218 8.50005 14.2218ZM11.5963 4.72001C11.7472 5.25393 11.4473 5.80612 10.9264 5.95336C10.4055 6.1006 9.86087 5.78713 9.70995 5.25321C9.55903 4.71929 9.85896 4.1671 10.3799 4.01986C10.9008 3.87262 11.4454 4.18609 11.5963 4.72001ZM9.98225 6.34937L9.28409 5.42237C9.28794 5.42748 9.27884 5.41994 9.2595 5.40392C9.20264 5.3568 9.05725 5.23634 8.89241 5.14883L8.12904 4.74366C8.01122 4.68112 7.87617 4.66271 7.74753 4.6916L5.79772 5.22065L5.96355 5.79828L7.56715 5.54107C7.62713 5.53146 7.68842 5.55118 7.7328 5.59427L8.22137 5.98369L7.55607 7.04735C7.31779 7.41207 7.43169 7.94775 7.75316 8.24652L8.90984 9.32155L7.32156 10.6026L7.77619 11.1274L9.65784 9.80744C10.0409 9.53873 10.0837 8.9764 9.74671 8.641L8.91625 7.81457L9.48954 7.05307L9.81269 7.48911C9.96228 7.69099 10.2204 7.7741 10.4533 7.69544L12.0308 7.16313L11.881 6.63298L10.6693 6.81175C10.4634 6.84213 10.2561 6.75557 9.98221 6.34925L9.98225 6.34937ZM7.90287 8.97972C7.14158 8.43448 7.11714 7.88773 7.11714 7.88773L4.80402 11.1886L5.33194 11.5917L7.90287 8.97972Z" fill="#0EE6F3"/>
</g>
</svg>
