<svg width="14" height="14" viewBox="0 0 14 14" fill="none" xmlns="http://www.w3.org/2000/svg">
<defs>
<linearGradient id="paint0_linear_2159_14247" x1="7.18196" y1="2.09759" x2="6.4044" y2="11.3518" gradientUnits="userSpaceOnUse">
<stop stop-color="#191921"/>
<stop offset="1" stop-color="#32333C"/>
</linearGradient>
</defs>
<path d="M5.73776 2.6219L5.14579 3.77726L5.13587 3.77642C5.06512 3.92839 3.90921 5.33556 3.90921 5.33556L3.39123 5.78017C3.30551 5.85331 3.27066 5.9828 3.30521 6.10095C3.40488 6.44232 3.73093 7.18169 4.79157 8.18059C4.79157 8.18059 7.06218 10.2962 7.73411 11.058C7.80808 11.1418 7.89702 11.2041 7.99508 11.2395C8.31194 11.3553 9.05454 11.5989 9.77634 11.6324C9.95277 11.6406 10.1209 11.5439 10.2238 11.3769C10.3732 11.1346 10.3891 10.8129 10.2645 10.5509C10.0756 10.1538 9.76851 9.5307 9.40548 8.88297C9.40548 8.88297 8.50336 6.04348 8.46749 5.54735C8.44189 5.19613 8.79758 4.08464 9.00666 3.46725C9.0739 3.26845 8.94335 3.05358 8.76029 3.06202L7.13092 2.89243L6.80391 3.64065L6.19658 3.47881L6.02733 2.6756C5.99329 2.51483 5.81022 2.48171 5.7377 2.623L5.73776 2.6219Z" fill="url(#paint0_linear_2159_14247)"/>
</svg>
