<svg width="22" height="22" viewBox="0 0 22 22" fill="none" xmlns="http://www.w3.org/2000/svg">
<g id="ic-durability-circle-18">
<path id="vector" fill-rule="evenodd" clip-rule="evenodd" d="M10.9999 19.5564C15.725 19.5564 19.5554 15.726 19.5554 11.0009C19.5554 6.27577 15.725 2.44531 10.9999 2.44531C6.27479 2.44531 2.44434 6.27577 2.44434 11.0009C2.44434 15.726 6.27479 19.5564 10.9999 19.5564ZM8.73363 7.06047L9.45716 5.64837L9.45708 5.64971C9.54571 5.47703 9.76947 5.5175 9.81107 5.71399L10.0179 6.6957L10.7602 6.89351L11.1599 5.97902L13.1514 6.1863C13.3751 6.17598 13.5347 6.43859 13.4525 6.68157C13.1969 7.43616 12.7622 8.79465 12.7935 9.22391C12.8373 9.8303 13.9399 13.3008 13.9399 13.3008C14.3836 14.0925 14.7589 14.854 14.9899 15.3393C15.1421 15.6595 15.1227 16.0527 14.9401 16.3489C14.8144 16.553 14.6088 16.6712 14.3932 16.6612C13.511 16.6202 12.6034 16.3225 12.2161 16.181C12.0963 16.1377 11.9875 16.0615 11.8971 15.9591C11.0759 15.0281 8.3007 12.4423 8.3007 12.4423C7.00436 11.2214 6.60585 10.3178 6.48404 9.90054C6.44181 9.75613 6.48441 9.59786 6.58918 9.50847L7.22225 8.96506C7.22225 8.96506 8.63504 7.24518 8.72152 7.05945L8.73363 7.06047Z" fill="#B85DFF"/>
</g>
</svg>
