<svg width="46" height="119" viewBox="0 0 46 119" fill="none" xmlns="http://www.w3.org/2000/svg">
<path d="M46 38.9171L46 27.0483L21.2845 27.0483L21.2845 26.6735L46 10.1197L46 0L3.8147e-06 -2.01072e-06L3.2959e-06 11.8688L24.8425 11.8688L24.8425 12.1811L2.54773e-06 28.9848L2.11358e-06 38.9171L46 38.9171Z" fill="#202026"/>
<path d="M1.84599e-06 45.0388L1.32719e-06 56.9076L18.1077 56.9076L18.1077 74.5858L27.8923 74.5858L27.8923 56.9076L36.2155 56.9076L36.2155 76.5848L46 76.5848L46 45.0388L1.84599e-06 45.0388Z" fill="#202026"/>
<path d="M36.2155 80.0205L36.2155 93.6383L-2.78364e-07 93.6383L-7.91703e-07 105.382L36.2155 105.382L36.2155 119L46 119L46 80.0205L36.2155 80.0205Z" fill="#202026"/>
</svg>
