<svg width="14" height="12" viewBox="0 0 14 12" fill="none" xmlns="http://www.w3.org/2000/svg">
<path d="M12.3857 0.015625L13.8582 1.08541L13.2958 2.81637H11.4757L10.9133 1.08541L12.3857 0.015625Z" fill="#8A8A8A"/>
<path d="M9.08016 4.26064L10.3002 4.22736L10.7088 5.37737L9.74139 6.12141L8.73481 5.43123L9.08016 4.26064Z" fill="#8A8A8A"/>
<path d="M11.425 7.53845L12.2958 7.51469L12.5876 8.33559L11.897 8.8667L11.1785 8.37404L11.425 7.53845Z" fill="#8A8A8A"/>
<path d="M3.69042 0.325201L2.89669 1.72598L2.88356 1.72507C2.78859 1.90924 1.24569 3.61967 1.24569 3.61967L0.555835 4.16163C0.441674 4.25079 0.394434 4.40748 0.439239 4.54977C0.568462 4.9609 0.994329 5.85028 2.39121 7.04562C2.39121 7.04562 5.38185 9.57704 6.26573 10.49C6.36304 10.5904 6.48035 10.6648 6.60996 10.7065C7.02878 10.8432 8.01055 11.1298 8.96649 11.163C9.20015 11.1711 9.42371 11.0527 9.5614 10.8501C9.7613 10.556 9.78499 10.1675 9.62213 9.85244C9.37504 9.37495 8.9734 8.62578 8.4978 7.84741C8.4978 7.84741 7.32605 4.42836 7.28262 3.82974C7.2516 3.40598 7.73194 2.06053 8.01401 1.31306C8.10472 1.07238 7.93354 0.814281 7.69095 0.826307L5.53381 0.637868L5.09444 1.54446L4.2912 1.35514L4.07358 0.387128C4.02982 0.193375 3.78756 0.15523 3.69033 0.326533L3.69042 0.325201Z" fill="#8A8A8A"/>
</svg>
