<svg width="16" height="16" viewBox="0 0 16 16" fill="none" xmlns="http://www.w3.org/2000/svg">
    <defs>
        <linearGradient id="paint0_linear_5419_46744" x1="10.374" y1="2.72916" x2="11.1204" y2="5.36972" gradientUnits="userSpaceOnUse">
            <stop stop-color="#191921"/>
            <stop offset="1" stop-color="#32333C"/>
        </linearGradient>
        <linearGradient id="paint1_linear_5419_46744" x1="10.374" y1="2.72916" x2="11.1204" y2="5.36972" gradientUnits="userSpaceOnUse">
            <stop stop-color="#191921"/>
            <stop offset="1" stop-color="#32333C"/>
        </linearGradient>
        <linearGradient id="paint2_linear_5419_46744" x1="7.77371" y1="2.99242" x2="10.0851" y2="11.1697" gradientUnits="userSpaceOnUse">
            <stop stop-color="#191921"/>
            <stop offset="1" stop-color="#32333C"/>
        </linearGradient>
        <linearGradient id="paint3_linear_5419_46744" x1="7.77371" y1="2.99242" x2="10.0851" y2="11.1697" gradientUnits="userSpaceOnUse">
            <stop stop-color="#191921"/>
            <stop offset="1" stop-color="#32333C"/>
        </linearGradient>
        <linearGradient id="paint4_linear_5419_46744" x1="4.50686" y1="8.08578" x2="5.65052" y2="12.1318" gradientUnits="userSpaceOnUse">
            <stop stop-color="#191921"/>
            <stop offset="1" stop-color="#32333C"/>
        </linearGradient>
        <linearGradient id="paint5_linear_5419_46744" x1="4.50686" y1="8.08578" x2="5.65052" y2="12.1318" gradientUnits="userSpaceOnUse">
            <stop stop-color="#191921"/>
            <stop offset="1" stop-color="#32333C"/>
        </linearGradient>
        <linearGradient id="paint6_linear_5419_46744" x1="8.20795" y1="2.39585" x2="7.31932" y2="12.9721" gradientUnits="userSpaceOnUse">
            <stop stop-color="#191921"/>
            <stop offset="1" stop-color="#32333C"/>
        </linearGradient>
    </defs>
<circle cx="8" cy="8" r="8" fill="#0EE6F3"/>
<path d="M11.5006 3.91999C11.6227 4.352 11.3773 4.77753 10.9844 4.88857C10.5915 4.99962 10.1597 4.76553 10.0376 4.33353C9.91545 3.90152 10.1609 3.47599 10.5537 3.36494C10.9466 3.25389 11.3785 3.48798 11.5006 3.91999Z" fill="url(#paint0_linear_5419_46744)" stroke="url(#paint1_linear_5419_46744)"/>
<path d="M9.20126 9.91571L8.0866 10.6977L8.84059 10.0895L9.28994 9.72709L8.86708 9.33408L7.37993 7.9519L7.37992 7.9519C7.10819 7.69935 7.05722 7.2756 7.20472 7.04982L7.2048 7.04988L7.21004 7.0415L8.06543 5.67393L8.30195 5.29579L7.95317 5.01779L7.33906 4.52832C7.18062 4.38658 6.96741 4.31619 6.75153 4.34179L7.14939 4.23384C7.1948 4.22543 7.24359 4.23232 7.28839 4.2561L7.2884 4.25611L8.26982 4.77701C8.26984 4.77702 8.26985 4.77703 8.26987 4.77704C8.37541 4.83308 8.48033 4.90784 8.56261 4.97194C8.59744 4.99907 8.62614 5.02264 8.64871 5.04131L9.49911 6.17046C9.69135 6.45354 9.89125 6.67337 10.1183 6.81277C10.3608 6.96165 10.6054 7.00118 10.8394 6.97117L10.3513 7.13586L10.3513 7.13588C10.2634 7.16556 10.1562 7.13707 10.0892 7.04666L10.0892 7.04663L9.67374 6.486L9.27518 5.9482L8.87257 6.48298L8.13548 7.46205L7.87354 7.80999L8.18225 8.11719L9.24997 9.17973C9.24997 9.17973 9.24998 9.17974 9.24998 9.17974C9.46978 9.3985 9.43088 9.75463 9.20126 9.91571C9.20126 9.91571 9.20126 9.91571 9.20126 9.91571ZM8.5098 4.66043C8.51401 4.5869 8.53797 4.48556 8.60552 4.39319C8.77412 4.49589 8.91506 4.61267 8.97626 4.66337C8.99172 4.67618 9.00209 4.68477 9.00653 4.68786L8.60824 4.98758C8.60415 4.98214 8.59578 4.9708 8.58617 4.95561L8.5858 4.95503C8.57985 4.94565 8.55455 4.90577 8.53541 4.84928C8.5264 4.82271 8.50453 4.75263 8.5098 4.66043Z" fill="url(#paint2_linear_5419_46744)" stroke="url(#paint3_linear_5419_46744)"/>
<path d="M6.12363 8.86877C6.22232 9.00702 6.34439 9.1513 6.49509 9.29714L4.16343 11.666L6.12363 8.86877Z" fill="url(#paint4_linear_5419_46744)" stroke="url(#paint5_linear_5419_46744)"/>
<circle cx="8" cy="8" r="8" fill="#B0A3FF"/>
<path d="M6.55744 2.99506L5.8809 4.31547L5.86957 4.31452C5.78871 4.48819 4.46766 6.09639 4.46766 6.09639L3.8757 6.60452C3.77773 6.6881 3.7379 6.83609 3.77739 6.97112C3.89129 7.36126 4.26392 8.20625 5.47608 9.34785C5.47608 9.34785 8.07106 11.7657 8.83899 12.6363C8.92352 12.7321 9.02517 12.8033 9.13724 12.8437C9.49936 12.9761 10.348 13.2545 11.173 13.2928C11.3746 13.3021 11.5668 13.1916 11.6844 13.0007C11.8551 12.7238 11.8733 12.3562 11.7309 12.0567C11.5149 11.6029 11.164 10.8908 10.7491 10.1506C10.7491 10.1506 9.71812 6.90544 9.67713 6.33843C9.64788 5.93704 10.0544 4.66677 10.2933 3.96117C10.3702 3.73397 10.221 3.48841 10.0118 3.49806L8.14962 3.30424L7.7759 4.15935L7.0818 3.97439L6.88837 3.05643C6.84948 2.87269 6.64025 2.83485 6.55737 2.99632L6.55744 2.99506Z" fill="url(#paint6_linear_5419_46744)"/>

</svg>
