<svg width="18" height="18" viewBox="0 0 18 18" fill="none" xmlns="http://www.w3.org/2000/svg">
<path fill-rule="evenodd" clip-rule="evenodd" d="M8.99989 17.5564C13.725 17.5564 17.5554 13.726 17.5554 9.00087C17.5554 4.27577 13.725 0.445312 8.99989 0.445312C4.27479 0.445312 0.444336 4.27577 0.444336 9.00087C0.444336 13.726 4.27479 17.5564 8.99989 17.5564ZM6.73363 5.06047L7.45716 3.64837L7.45708 3.64971C7.54571 3.47703 7.76947 3.5175 7.81107 3.71399L8.01793 4.6957L8.76023 4.89351L9.1599 3.97902L11.1514 4.1863C11.3751 4.17598 11.5347 4.43859 11.4525 4.68157C11.1969 5.43616 10.7622 6.79465 10.7935 7.22391C10.8373 7.8303 11.9399 11.3008 11.9399 11.3008C12.3836 12.0925 12.7589 12.854 12.9899 13.3393C13.1421 13.6595 13.1227 14.0527 12.9401 14.3489C12.8144 14.553 12.6088 14.6712 12.3932 14.6612C11.511 14.6202 10.6034 14.3225 10.2161 14.181C10.0963 14.1377 9.98755 14.0615 9.89714 13.9591C9.07589 13.0281 6.3007 10.4423 6.3007 10.4423C5.00436 9.22144 4.60585 8.31777 4.48404 7.90054C4.44181 7.75613 4.48441 7.59786 4.58918 7.50847L5.22225 6.96506C5.22225 6.96506 6.63504 5.24518 6.72152 5.05945L6.73363 5.06047Z" fill="#B85DFF"/>
</svg>
