<svg width="18" height="18" viewBox="0 0 18 18" fill="none" xmlns="http://www.w3.org/2000/svg">
<path fill-rule="evenodd" clip-rule="evenodd" d="M8.99989 17.5556C13.725 17.5556 17.5554 13.7251 17.5554 9.00001C17.5554 4.27491 13.725 0.444458 8.99989 0.444458C4.27479 0.444458 0.444336 4.27491 0.444336 9.00001C0.444336 13.7251 4.27479 17.5556 8.99989 17.5556ZM13.2572 4.49062C13.4647 5.22477 13.0523 5.98403 12.3361 6.18648C11.6199 6.38893 10.871 5.95792 10.6635 5.22377C10.456 4.48963 10.8684 3.73037 11.5846 3.52792C12.3009 3.32546 13.0497 3.75648 13.2572 4.49062ZM11.0379 6.731L10.0779 5.45637C10.0832 5.4634 10.0707 5.45303 10.0441 5.43101C9.96594 5.36622 9.76603 5.20057 9.53938 5.08025L8.48975 4.52314C8.32775 4.43715 8.14206 4.41184 7.96517 4.45156L5.28418 5.179L5.5122 5.97325L7.71715 5.61959C7.79961 5.60637 7.8839 5.63348 7.94492 5.69273L8.61671 6.22818L7.70192 7.69072C7.37428 8.19221 7.53089 8.92876 7.97291 9.33958L9.56334 10.8177L7.37946 12.5792L8.00458 13.3008L10.5918 11.4858C11.1185 11.1164 11.1774 10.3432 10.714 9.88198L9.57216 8.74565L10.3604 7.69858L10.8048 8.29814C11.0104 8.57572 11.3653 8.69 11.6857 8.58185L13.8547 7.84992L13.6487 7.12096L11.9825 7.36677C11.6994 7.40854 11.4144 7.28952 11.0379 6.73082L11.0379 6.731ZM8.17877 10.3477C7.13199 9.59802 7.09839 8.84624 7.09839 8.84624L3.91785 13.3849L4.64374 13.9392L8.17877 10.3477Z" fill="#0EE6F3"/>
</svg>
