<svg width="12" height="9" viewBox="0 0 12 9" fill="none" xmlns="http://www.w3.org/2000/svg">
<path d="M9.8418 5.45654C9.56687 5.13623 9.1877 4.9187 8.80891 4.77065C9.22012 4.76937 9.65749 4.70142 10.026 4.49339C10.1076 4.4482 10.1886 4.39309 10.2669 4.32814C10.7851 3.89849 10.9969 3.19974 10.7397 2.76732C10.5643 2.47286 10.2164 2.37833 9.84834 2.48442C10.0577 2.11179 10.1004 1.69283 9.92502 1.39837C9.66769 0.966393 9.03938 0.964679 8.52118 1.39433C8.44291 1.45927 8.37193 1.53029 8.30809 1.60596C8.03698 1.92189 7.8422 2.3458 7.70347 2.77174C7.70298 2.34255 7.65254 1.90134 7.50561 1.52712C7.46968 1.4335 7.42522 1.34101 7.37222 1.25198C7.02124 0.662534 6.4289 0.439974 6.04908 0.755303C5.79017 0.970164 5.69682 1.37928 5.77496 1.80491C5.46246 1.57375 5.10434 1.53874 4.84543 1.7536C4.46531 2.0684 4.4417 2.80181 4.79268 3.39126C4.84568 3.48028 4.90415 3.56058 4.96686 3.63238C5.19412 3.89732 5.49268 4.09176 5.8036 4.23502C5.45716 4.25679 5.10412 4.33318 4.79853 4.50544C4.7169 4.55063 4.63595 4.60574 4.55767 4.67069C4.03947 5.10034 3.82764 5.79909 4.08489 6.23151C4.26023 6.52597 4.60812 6.6205 4.9762 6.51441C4.76681 6.88704 4.72418 7.306 4.89952 7.60046C5.15685 8.03244 5.78516 8.03415 6.30336 7.6045C6.38164 7.53956 6.45261 7.46853 6.51645 7.39287C6.77771 7.08808 6.96792 6.68377 7.10602 6.27309C7.10295 6.71603 7.15198 7.17468 7.30344 7.56188C7.33936 7.65551 7.38382 7.748 7.43682 7.83702C7.78742 8.42639 8.37976 8.64895 8.75996 8.3337C9.01887 8.11884 9.11222 7.70972 9.03409 7.2841C9.34658 7.51525 9.7047 7.55027 9.96361 7.33541C10.3434 7.02008 10.367 6.28712 10.0164 5.69774C9.96337 5.60872 9.9049 5.52842 9.84219 5.45662L9.8418 5.45654Z" fill="#8A8A8A"/>
<ellipse cx="1.41169" cy="6" rx="0.705882" ry="0.75" fill="#8A8A8A"/>
<ellipse cx="2.47069" cy="2.625" rx="1.05882" ry="1.125" fill="#8A8A8A"/>
</svg>
