<svg width="18" height="18" viewBox="0 0 18 18" fill="none" xmlns="http://www.w3.org/2000/svg">
<path fill-rule="evenodd" clip-rule="evenodd" d="M8.99989 17.5556C13.725 17.5556 17.5554 13.7251 17.5554 9.00001C17.5554 4.27491 13.725 0.444458 8.99989 0.444458C4.27479 0.444458 0.444336 4.27491 0.444336 9.00001C0.444336 13.7251 4.27479 17.5556 8.99989 17.5556ZM6.73363 5.05961L7.45716 3.64751L7.45708 3.64886C7.54571 3.47617 7.76947 3.51664 7.81107 3.71314L8.01793 4.69484L8.76023 4.89265L9.1599 3.97816L11.1514 4.18544C11.3751 4.17512 11.5347 4.43773 11.4525 4.68071C11.1969 5.43531 10.7622 6.7938 10.7935 7.22306C10.8373 7.82944 11.9399 11.2999 11.9399 11.2999C12.3836 12.0916 12.7589 12.8531 12.9899 13.3385C13.1421 13.6587 13.1227 14.0519 12.9401 14.348C12.8144 14.5521 12.6088 14.6703 12.3932 14.6603C11.511 14.6194 10.6034 14.3217 10.2161 14.1801C10.0963 14.1369 9.98755 14.0607 9.89714 13.9583C9.07589 13.0272 6.3007 10.4415 6.3007 10.4415C5.00436 9.22059 4.60585 8.31691 4.48404 7.89968C4.44181 7.75528 4.48441 7.59701 4.58918 7.50762L5.22225 6.9642C5.22225 6.9642 6.63504 5.24433 6.72152 5.0586L6.73363 5.05961Z" fill="#B85DFF"/>
</svg>
