<svg width="16" height="16" viewBox="0 0 16 16" fill="none" xmlns="http://www.w3.org/2000/svg">
<circle cx="8" cy="8" r="8" fill="#FF74B7"/>
<g clip-path="url(#clip0_5297_47078)">
<path fill-rule="evenodd" clip-rule="evenodd" d="M12.2999 7.99835L12.6747 7.67562C13.2994 7.13427 13.2994 6.27018 12.6747 5.72882C12.0501 5.18747 11.0402 5.18747 10.4156 5.72882L9.34329 6.65537L10.2698 5.58307C10.8112 4.95843 10.8112 3.94859 10.2698 3.32395C9.72848 2.69931 8.8644 2.69931 8.32304 3.32395L8.00031 3.69874L7.67758 3.32395C7.13622 2.69931 6.26172 2.69931 5.73078 3.32395C5.19983 3.94859 5.18942 4.95843 5.73078 5.58307L6.65733 6.65537L5.58503 5.72882C4.96038 5.18747 3.95055 5.18747 3.3259 5.72882C2.70126 6.27018 2.70126 7.13427 3.3259 7.67562L3.70069 7.99835L3.3259 8.32109C2.70126 8.86244 2.70126 9.72653 3.3259 10.2679C3.95055 10.8092 4.96038 10.8092 5.58503 10.2679L6.65733 9.34133L5.73078 10.4136C5.18942 11.0383 5.18942 12.0481 5.73078 12.6728C6.27213 13.2974 7.13622 13.2974 7.67758 12.6728L8.00031 12.298L8.32304 12.6728C8.8644 13.2974 9.72848 13.2974 10.2698 12.6728C10.8112 12.0481 10.8112 11.0383 10.2698 10.4136L9.34329 9.34133L10.4156 10.2679C11.0402 10.8092 12.0501 10.8092 12.6747 10.2679C13.2994 9.72653 13.2994 8.86244 12.6747 8.32109L12.2999 7.99835Z" fill="#21222A"/>
</g>
<defs>
<clipPath id="clip0_5297_47078">
<rect width="10.2857" height="10.2857" fill="white" transform="translate(2.85742 2.85547)"/>
</clipPath>
</defs>
</svg>
