<svg width="16" height="12" viewBox="0 0 16 12" fill="none" xmlns="http://www.w3.org/2000/svg">
<path d="M12.5531 2.84194C13.2004 2.65896 13.5732 1.97277 13.3856 1.30927C13.1981 0.645779 12.5213 0.256238 11.874 0.439209C11.2267 0.62218 10.8539 1.30838 11.0415 1.97187C11.229 2.63537 11.9058 3.02491 12.5531 2.84194Z" fill="#A8A9AC"/>
<path d="M11.3797 3.33526L10.5121 2.18329C10.531 2.20835 10.2999 1.98909 10.0254 1.84336L9.07679 1.33987C8.93037 1.26215 8.76255 1.23928 8.60268 1.27518L6.17969 1.93262L6.38577 2.65043L8.37853 2.3308C8.45306 2.31886 8.52923 2.34336 8.58438 2.39691L9.19152 2.88083L8.36476 4.20263C8.06866 4.65586 8.21019 5.32153 8.60968 5.69281L10.0471 7.02874L8.07334 8.62067L8.6383 9.27286L10.9766 7.63254C11.4526 7.29862 11.5058 6.59982 11.087 6.18302L10.055 5.15604L10.7675 4.20973L11.169 4.7516C11.3549 5.00246 11.6756 5.10574 11.9652 5.008L13.9255 4.3465L13.7392 3.68769L12.2335 3.90985C11.9776 3.9476 11.72 3.84004 11.3797 3.3351L11.3797 3.33526Z" fill="#A8A9AC"/>
<path d="M7.81799 5.24392C7.81799 5.24392 7.84836 5.92335 8.79441 6.60092L5.59956 9.84675L4.94352 9.34584L7.81799 5.24392Z" fill="#A8A9AC"/>
<path d="M6.1232 4.75195H3.67456" stroke="#A8A9AC" stroke-linecap="round"/>
<path d="M5.30709 6.38379H2.04224" stroke="#A8A9AC" stroke-linecap="round"/>
<path d="M4.49068 8.0166H1.22583" stroke="#A8A9AC" stroke-linecap="round"/>
</svg>
