<svg width="18" height="18" viewBox="0 0 18 18" fill="none" xmlns="http://www.w3.org/2000/svg">
<path fill-rule="evenodd" clip-rule="evenodd" d="M8.99989 17.5556C13.725 17.5556 17.5554 13.7251 17.5554 9.00001C17.5554 4.27491 13.725 0.444458 8.99989 0.444458C4.27479 0.444458 0.444336 4.27491 0.444336 9.00001C0.444336 13.7251 4.27479 17.5556 8.99989 17.5556ZM13.8601 8.66449L13.4704 9.00004L13.8601 9.3356C14.5095 9.89847 14.5095 10.7969 13.8601 11.3598C13.2106 11.9226 12.1606 11.9226 11.5112 11.3598L10.3963 10.3964L11.3596 11.5113C11.9225 12.1608 11.9225 13.2107 11.3596 13.8602C10.7968 14.5097 9.89835 14.5097 9.33548 13.8602L8.99992 13.4705L8.66436 13.8602C8.1015 14.5097 7.20307 14.5097 6.6402 13.8602C6.07733 13.2107 6.07733 12.1608 6.6402 11.5113L7.60357 10.3964L6.48866 11.3598C5.8392 11.9226 4.78923 11.9226 4.13977 11.3598C3.4903 10.7969 3.4903 9.89847 4.13977 9.3356L4.52945 9.00004L4.13977 8.66449C3.4903 8.10162 3.4903 7.20319 4.13977 6.64032C4.78923 6.07746 5.8392 6.07746 6.48866 6.64032L7.60357 7.6037L6.6402 6.48878C6.07733 5.83932 6.08816 4.78935 6.6402 4.13989C7.19225 3.49043 8.1015 3.49043 8.66436 4.13989L8.99992 4.52957L9.33548 4.13989C9.89835 3.49043 10.7968 3.49043 11.3596 4.13989C11.9225 4.78935 11.9225 5.83932 11.3596 6.48878L10.3963 7.6037L11.5112 6.64032C12.1606 6.07746 13.2106 6.07746 13.8601 6.64032C14.5095 7.20319 14.5095 8.10162 13.8601 8.66449Z" fill="#FF74B7"/>
</svg>
