<svg width="18" height="18" viewBox="0 0 18 18" fill="none" xmlns="http://www.w3.org/2000/svg">
<path fill-rule="evenodd" clip-rule="evenodd" d="M8.99989 17.5564C13.725 17.5564 17.5554 13.726 17.5554 9.00087C17.5554 4.27577 13.725 0.445312 8.99989 0.445312C4.27479 0.445312 0.444336 4.27577 0.444336 9.00087C0.444336 13.726 4.27479 17.5564 8.99989 17.5564ZM13.2572 4.49148C13.4647 5.22562 13.0523 5.98488 12.3361 6.18734C11.6199 6.38979 10.871 5.95877 10.6635 5.22463C10.456 4.49049 10.8684 3.73122 11.5846 3.52877C12.3009 3.32632 13.0497 3.75734 13.2572 4.49148ZM11.0379 6.73185L10.0779 5.45722C10.0832 5.46426 10.0707 5.45389 10.0441 5.43186C9.96594 5.36707 9.76603 5.20143 9.53938 5.0811L8.48975 4.524C8.32775 4.438 8.14206 4.4127 7.96517 4.45242L5.28418 5.17986L5.5122 5.9741L7.71715 5.62044C7.79961 5.60723 7.8839 5.63434 7.94492 5.69359L8.61671 6.22904L7.70192 7.69157C7.37428 8.19307 7.53089 8.92962 7.97291 9.34043L9.56334 10.8186L7.37946 12.58L8.00458 13.3017L10.5918 11.4867C11.1185 11.1172 11.1774 10.344 10.714 9.88284L9.57216 8.7465L10.3604 7.69944L10.8048 8.299C11.0104 8.57658 11.3653 8.69085 11.6857 8.5827L13.8547 7.85077L13.6487 7.12181L11.9825 7.36762C11.6994 7.40939 11.4144 7.29037 11.0379 6.73168L11.0379 6.73185ZM8.17877 10.3486C7.13199 9.59887 7.09839 8.8471 7.09839 8.8471L3.91785 13.3858L4.64374 13.94L8.17877 10.3486Z" fill="#0EE6F3"/>
</svg>
