<svg width="18" height="18" viewBox="0 0 18 18" fill="none" xmlns="http://www.w3.org/2000/svg">
<path fill-rule="evenodd" clip-rule="evenodd" d="M8.99989 17.5564C13.725 17.5564 17.5554 13.726 17.5554 9.00087C17.5554 4.27577 13.725 0.445312 8.99989 0.445312C4.27479 0.445312 0.444336 4.27577 0.444336 9.00087C0.444336 13.726 4.27479 17.5564 8.99989 17.5564ZM13.8601 8.66534L13.4704 9.0009L13.8601 9.33645C14.5095 9.89932 14.5095 10.7977 13.8601 11.3606C13.2106 11.9235 12.1606 11.9235 11.5112 11.3606L10.3963 10.3972L11.3596 11.5122C11.9225 12.1616 11.9225 13.2116 11.3596 13.8611C10.7968 14.5105 9.89835 14.5105 9.33548 13.8611L8.99992 13.4714L8.66437 13.8611C8.1015 14.5105 7.20307 14.5105 6.6402 13.8611C6.07733 13.2116 6.07733 12.1616 6.6402 11.5122L7.60357 10.3972L6.48866 11.3606C5.8392 11.9235 4.78923 11.9235 4.13977 11.3606C3.4903 10.7977 3.4903 9.89932 4.13977 9.33645L4.52945 9.0009L4.13977 8.66534C3.4903 8.10247 3.4903 7.20405 4.13977 6.64118C4.78923 6.07831 5.8392 6.07831 6.48866 6.64118L7.60357 7.60455L6.6402 6.48964C6.07733 5.84017 6.08816 4.79021 6.6402 4.14074C7.19225 3.49128 8.1015 3.49128 8.66437 4.14074L8.99992 4.53042L9.33548 4.14074C9.89835 3.49128 10.7968 3.49128 11.3596 4.14074C11.9225 4.79021 11.9225 5.84017 11.3596 6.48964L10.3963 7.60455L11.5112 6.64118C12.1606 6.07831 13.2106 6.07831 13.8601 6.64118C14.5095 7.20405 14.5095 8.10247 13.8601 8.66534Z" fill="#FF74B7"/>
</svg>
