<svg width="37" height="90" viewBox="0 0 37 90" fill="none" xmlns="http://www.w3.org/2000/svg">
<g id="NFT">
<path d="M37 29.4331L37 20.4567L17.1202 20.4567L17.1202 20.1732L37 7.65354L37 0L0 -1.48644e-06L-3.9237e-07 8.97638L19.982 8.97638L19.982 9.2126L-9.58209e-07 21.9213L-1.28656e-06 29.4331L37 29.4331Z" fill="#2E3038"/>
<path d="M-1.48894e-06 34.063L-1.88131e-06 43.0394L14.5649 43.0394L14.5649 56.4094L22.4351 56.4094L22.4351 43.0394L29.1298 43.0394L29.1298 57.9213L37 57.9213L37 34.063L-1.48894e-06 34.063Z" fill="#2E3038"/>
<path d="M29.1298 60.5197L29.1298 70.8189L-3.09559e-06 70.8189L-3.48383e-06 79.7008L29.1298 79.7008L29.1298 90L37 90L37 60.5197L29.1298 60.5197Z" fill="#2E3038"/>
</g>
</svg>
