<svg width="23" height="23" viewBox="0 0 23 23" fill="none" xmlns="http://www.w3.org/2000/svg">
<path d="M11.5005 2C7.35797 2 4 5.44407 4 9.69282C4 10.0147 4.01923 10.3314 4.05669 10.6429C4.0901 11.0312 4.1721 11.4278 4.29358 11.8297C4.49403 12.543 4.79267 13.2137 5.17331 13.8263C7.23446 17.477 11.3881 20.9159 11.3881 20.9159V20.9128L11.5005 21L11.5714 20.9325C11.5714 20.9325 15.4568 17.7158 17.5766 14.2012C18.4716 12.9344 19 11.3759 19 9.69179C19.001 5.44407 15.643 2 11.5005 2Z" stroke="white" stroke-miterlimit="10" stroke-linejoin="round"/>
<path d="M11.5 13C13.433 13 15 11.433 15 9.5C15 7.567 13.433 6 11.5 6C9.567 6 8 7.567 8 9.5C8 11.433 9.567 13 11.5 13Z" stroke="white" stroke-miterlimit="10" stroke-linejoin="round"/>
</svg>
