<svg width="23" height="23" viewBox="0 0 23 23" fill="none" xmlns="http://www.w3.org/2000/svg">
<path d="M19.633 5.99455H15.8274L14.7632 4.48191C14.5519 4.18132 14.1925 4 13.8085 4H8.09623C7.69717 4 7.32736 4.1949 7.11981 4.51391L6.15566 5.99455H2.36698C1.61226 5.99455 1 6.59572 1 7.33846V18.6561C1 19.3979 1.61226 20 2.36698 20H19.633C20.3877 20 21 19.3988 21 18.6561V7.33749C21 6.59572 20.3877 5.99358 19.633 5.99358V5.99455Z" stroke="white" stroke-miterlimit="10"/>
<path d="M11 17C13.2091 17 15 15.2091 15 13C15 10.7909 13.2091 9 11 9C8.79086 9 7 10.7909 7 13C7 15.2091 8.79086 17 11 17Z" stroke="white" stroke-miterlimit="10"/>
<path d="M17 10C17.5523 10 18 9.55228 18 9C18 8.44772 17.5523 8 17 8C16.4477 8 16 8.44772 16 9C16 9.55228 16.4477 10 17 10Z" fill="white"/>
</svg>
