<svg width="25" height="24" viewBox="0 0 25 24" fill="none" xmlns="http://www.w3.org/2000/svg">
<path d="M12.5 22.325C12.2667 22.325 12.0333 22.2833 11.8 22.2C11.5667 22.1167 11.3583 21.9917 11.175 21.825C10.0917 20.825 6.213 15.138 6.213 15.138C5.65433 14.246 5.22933 13.3877 4.938 12.563C4.64667 11.7383 4.50067 10.9507 4.5 10.2C4.5 7.7 5.30433 5.70833 6.913 4.225C8.52167 2.74167 10.384 2 12.5 2C14.6167 2 16.4793 2.74167 18.088 4.225C19.6967 5.70833 20.5007 7.7 20.5 10.2C20.5 10.95 20.3543 11.7377 20.063 12.563C19.7717 13.3883 19.3467 14.2467 18.788 15.138C18.788 15.138 14.9083 20.825 13.825 21.825C13.6417 21.9917 13.4333 22.1167 13.2 22.2C12.9667 22.2833 12.7333 22.325 12.5 22.325ZM12.5 12C13.05 12 13.521 11.8043 13.913 11.413C14.305 11.0217 14.5007 10.5507 14.5 10C14.5 9.45 14.3043 8.97933 13.913 8.588C13.5217 8.19667 13.0507 8.00067 12.5 8C11.95 8 11.4793 8.196 11.088 8.588C10.6967 8.98 10.5007 9.45067 10.5 10C10.5 10.55 10.696 11.021 11.088 11.413C11.48 11.805 11.9507 12.0007 12.5 12Z" fill="white"/>
</svg>
