<svg width="25" height="24" viewBox="0 0 25 24" fill="none" xmlns="http://www.w3.org/2000/svg">
<path d="M5.5 12.6L8.5 10.6L13 15.6L16.5 12.6L19.5 15.1V5.5H5.5V12.6ZM4.5 3.5H20.5C20.7652 3.5 21.0196 3.60536 21.2071 3.79289C21.3946 3.98043 21.5 4.23478 21.5 4.5V20.5C21.5 20.7652 21.3946 21.0196 21.2071 21.2071C21.0196 21.3946 20.7652 21.5 20.5 21.5H4.5C4.23478 21.5 3.98043 21.3946 3.79289 21.2071C3.60536 21.0196 3.5 20.7652 3.5 20.5V4.5C3.5 4.23478 3.60536 3.98043 3.79289 3.79289C3.98043 3.60536 4.23478 3.5 4.5 3.5ZM16 10.5C15.6022 10.5 15.2206 10.342 14.9393 10.0607C14.658 9.77936 14.5 9.39782 14.5 9C14.5 8.60218 14.658 8.22064 14.9393 7.93934C15.2206 7.65804 15.6022 7.5 16 7.5C16.3978 7.5 16.7794 7.65804 17.0607 7.93934C17.342 8.22064 17.5 8.60218 17.5 9C17.5 9.39782 17.342 9.77936 17.0607 10.0607C16.7794 10.342 16.3978 10.5 16 10.5Z" fill="white"/>
</svg>
