<svg width="25" height="24" viewBox="0 0 25 24" fill="none" xmlns="http://www.w3.org/2000/svg">
<path fill-rule="evenodd" clip-rule="evenodd" d="M18.6832 15.3353L21.3733 16.7838L21.3847 16.7949C22.2133 17.2406 22.7468 18.0317 22.9057 18.9231H15.2099C14.8126 18.9231 14.4381 18.7671 14.177 18.4774L4.42676 7.88132L9.2054 3.05683C9.2054 3.05683 9.51187 2.66686 10.1135 2.45516C10.5448 2.3326 11.2599 2.39945 11.7139 2.82285C11.9296 3.0234 11.9296 3.75878 11.9296 3.75878V5.24066C11.9296 5.85348 12.429 6.35487 13.0533 6.35487H16.3563C16.9806 6.35487 17.4914 6.85626 17.4914 7.46907V9.64176H15.278C14.9602 9.64176 14.7105 9.88689 14.7105 10.1989C14.7105 10.5108 14.9602 10.756 15.278 10.756H17.4914V11.8702H15.278C14.9602 11.8702 14.7105 12.1153 14.7105 12.4273C14.7105 12.7392 14.9602 12.9844 15.278 12.9844H17.4914V13.3521C17.4914 14.1766 17.9454 14.9342 18.6832 15.3353ZM13.3261 19.2239C13.8029 19.7364 14.4839 20.0373 15.199 20.0373H22.8834C22.5883 21.3854 21.3738 22.3994 19.9095 22.3994H14.0753C13.4283 22.3994 12.804 22.1208 12.3727 21.6529L3.49643 12.0373C2.71323 11.1905 2.70188 9.90917 3.46238 9.04009C3.46238 9.04009 3.55318 8.92867 3.70074 8.7504L13.3261 19.2239Z" fill="white"/>
</svg>
