<svg width="23" height="23" viewBox="0 0 23 23" fill="none" xmlns="http://www.w3.org/2000/svg">
<path d="M17.9451 4H4.55489C3.14386 4 2 5.14386 2 6.55489V17.5145C2 18.9255 3.14386 20.0693 4.55489 20.0693H17.9451C19.3561 20.0693 20.5 18.9255 20.5 17.5145V6.55489C20.5 5.14386 19.3561 4 17.9451 4Z" stroke="white" stroke-miterlimit="10"/>
<path d="M2 15.5479L6.33197 11.9919L9.71238 14.2453L15.266 9.38574L20.5 13.7762" stroke="white" stroke-miterlimit="10"/>
<path d="M7.17635 9.40129C7.97186 9.40129 8.61674 8.7564 8.61674 7.9609C8.61674 7.16539 7.97186 6.52051 7.17635 6.52051C6.38085 6.52051 5.73596 7.16539 5.73596 7.9609C5.73596 8.7564 6.38085 9.40129 7.17635 9.40129Z" fill="white"/>
</svg>
