<svg width="23" height="23" viewBox="0 0 23 23" fill="none" xmlns="http://www.w3.org/2000/svg">
<path d="M3.61637 7.24021L2.54111 5.56129C1.93799 5.10439 1.48616 6.90486 1.38666 7.71013C1.17343 9.44439 0.911472 12.1771 1.02925 14.4507C1.11962 16.197 1.43336 17.6729 2.16543 18.2166C2.16543 18.2166 2.59594 18.4565 3.99306 18.4565H19.5198C20.9119 18.4565 22.0318 17.178 21.9993 15.625V15.5718C21.9719 14.3194 21.1931 13.2494 20.1036 12.9476C18.3512 12.4625 15.5955 11.3154 12.918 8.62067C12.918 8.62067 11.0579 6.15819 10.3644 5.17276C10.2771 5.04796 10.137 4.98393 9.99582 5.00346L8.54082 5.1999C8.3012 5.23245 8.14687 5.50052 8.22099 5.75664L8.89417 8.09431C8.97133 8.36346 8.8038 8.64238 8.55199 8.66408L5.63996 8.92021C5.23179 8.95602 4.90586 9.03959 4.47536 8.44052L3.61535 7.24129L3.61637 7.24021Z" stroke="white" stroke-linecap="round" stroke-linejoin="round"/>
<path d="M1.0293 14.4512H9.37853L10.9809 15.9197C11.3172 16.2279 11.7457 16.4118 12.2013 16.437C14.2145 16.5485 19.9947 16.8207 21.9191 16.396" stroke="white" stroke-linecap="round" stroke-linejoin="round"/>
<path d="M13.5404 9.21777L12.1118 11.079" stroke="white" stroke-linecap="round" stroke-linejoin="round"/>
<path d="M15.5834 10.8965L14.4238 12.4582" stroke="white" stroke-linecap="round" stroke-linejoin="round"/>
</svg>
