<svg width="25" height="24" viewBox="0 0 25 24" fill="none" xmlns="http://www.w3.org/2000/svg">
<path d="M12.5 16.8889C13.625 16.8889 14.5814 16.5001 15.3692 15.7227C16.157 14.9452 16.5506 14.0006 16.55 12.8889C16.55 11.7778 16.1564 10.8335 15.3692 10.056C14.582 9.27852 13.6256 8.88948 12.5 8.88889C11.375 8.88889 10.4189 9.27793 9.6317 10.056C8.8445 10.8341 8.4506 11.7784 8.45 12.8889C8.45 14 8.8439 14.9446 9.6317 15.7227C10.4195 16.5007 11.3756 16.8895 12.5 16.8889ZM12.5 15.1111C11.87 15.1111 11.3375 14.8963 10.9025 14.4667C10.4675 14.037 10.25 13.5111 10.25 12.8889C10.25 12.2667 10.4675 11.7407 10.9025 11.3111C11.3375 10.8815 11.87 10.6667 12.5 10.6667C13.13 10.6667 13.6625 10.8815 14.0975 11.3111C14.5325 11.7407 14.75 12.2667 14.75 12.8889C14.75 13.5111 14.5325 14.037 14.0975 14.4667C13.6625 14.8963 13.13 15.1111 12.5 15.1111ZM5.3 20C4.805 20 4.3814 19.8261 4.0292 19.4782C3.677 19.1304 3.5006 18.7117 3.5 18.2222V7.55556C3.5 7.06667 3.6764 6.6483 4.0292 6.30044C4.382 5.95259 4.8056 5.77837 5.3 5.77778H8.135L9.26 4.57778C9.425 4.4 9.6239 4.25926 9.8567 4.15556C10.0895 4.05185 10.3331 4 10.5875 4H14.4125C14.6675 4 14.9114 4.05185 15.1442 4.15556C15.377 4.25926 15.5756 4.4 15.74 4.57778L16.865 5.77778H19.7C20.195 5.77778 20.6189 5.952 20.9717 6.30044C21.3245 6.64889 21.5006 7.06726 21.5 7.55556V18.2222C21.5 18.7111 21.3239 19.1298 20.9717 19.4782C20.6195 19.8267 20.1956 20.0006 19.7 20H5.3Z" fill="white"/>
</svg>
