<svg width="34" height="34" viewBox="0 0 34 34" fill="none" xmlns="http://www.w3.org/2000/svg">
<path fill-rule="evenodd" clip-rule="evenodd" d="M16.9999 0.333252C7.79518 0.33325 0.333254 7.79517 0.333252 16.9999C0.333252 26.2047 7.79517 33.6666 16.9999 33.6666C26.2047 33.6666 33.6666 26.2047 33.6666 16.9999C33.6666 7.79517 26.2047 0.333252 16.9999 0.333252ZM18.9501 19.5141L18.9501 7.47611L15.0502 7.47611L15.0502 19.5141H18.9501ZM18.7243 21.4909C18.2864 21.0615 17.7117 20.8468 17.0001 20.8468C16.2749 20.8468 15.7002 21.0615 15.276 21.4909C14.8381 21.9351 14.6192 22.4903 14.6192 23.1566C14.6192 23.7933 14.8381 24.3116 15.276 24.7114C15.7139 25.126 16.2886 25.3333 17.0001 25.3333C17.7117 25.3333 18.2864 25.1186 18.7243 24.6892C19.1622 24.2598 19.3811 23.7267 19.3811 23.09C19.3811 22.4533 19.1622 21.9203 18.7243 21.4909Z" fill="#C9C5C6"/>
</svg>
