<svg width="24" height="22" viewBox="0 0 24 22" fill="none" xmlns="http://www.w3.org/2000/svg">
<path d="M0.333008 13.1667C0.333008 12.6144 0.780723 12.1667 1.33301 12.1667H5.86634C6.41863 12.1667 6.86634 12.6144 6.86634 13.1667V20.5C6.86634 21.0523 6.41863 21.5 5.86634 21.5H1.33301C0.780722 21.5 0.333008 21.0523 0.333008 20.5V13.1667ZM8.73301 1.5C8.73301 0.947715 9.18072 0.5 9.73301 0.5H14.2663C14.8186 0.5 15.2663 0.947715 15.2663 1.5V20.5C15.2663 21.0523 14.8186 21.5 14.2663 21.5H9.73301C9.18072 21.5 8.73301 21.0523 8.73301 20.5V1.5ZM17.133 7.33333C17.133 6.78105 17.5807 6.33333 18.133 6.33333H22.6663C23.2186 6.33333 23.6663 6.78105 23.6663 7.33333V20.5C23.6663 21.0523 23.2186 21.5 22.6663 21.5H18.133C17.5807 21.5 17.133 21.0523 17.133 20.5V7.33333Z" fill="#C9C5C6"/>
</svg>
