<svg width="44" height="44" viewBox="0 0 44 44" fill="none" xmlns="http://www.w3.org/2000/svg">
<circle cx="22.0001" cy="21.9993" r="18.3333" fill="#FF6100"/>
<path d="M16.3171 23.2207L16.3391 23.2327L16.3171 23.2207Z" fill="#C0C0C0"/>
<path d="M16.3171 23.2207L16.3391 23.2327L16.3171 23.2207Z" fill="url(#paint0_linear_2372_48394)"/>
<path d="M23.9116 11L14.7069 18.4434C14.4811 18.626 14.3908 18.9303 14.4811 19.2052L15.5473 22.4803C15.5787 22.5784 15.6258 22.6707 15.6828 22.7551C15.724 22.814 15.7711 22.869 15.8241 22.9181C15.8929 22.9829 15.9714 23.0398 16.0558 23.085L16.315 23.2205C16.1363 23.1262 16.0499 22.9417 16.0637 22.763C16.0735 22.6413 16.1304 22.5215 16.2365 22.4351L18.1135 20.9174L18.4689 20.6307L18.7124 20.4343L25.2585 15.1409L23.9116 11Z" fill="white"/>
<path d="M18.115 20.9175L18.4704 20.6309L18.115 20.9175Z" fill="#AEAEAE"/>
<path d="M18.115 20.9175L18.4704 20.6309L18.115 20.9175Z" fill="url(#paint1_linear_2372_48394)"/>
<path opacity="0.4" d="M18.9686 20.892L18.4699 20.6309L18.1145 20.9175L16.2374 22.4353C16.1294 22.5217 16.0745 22.6414 16.0646 22.7632C16.0509 22.9418 16.1373 23.1284 16.316 23.2206L16.3356 23.2324L19.9483 25.1252L22.7384 22.8692L18.9666 20.892H18.9686Z" fill="white"/>
<path d="M29.5132 24.3895L28.9261 20.924C28.9045 20.7925 28.8574 20.6649 28.7906 20.551C28.7494 20.4803 28.7042 20.4136 28.6453 20.3547C28.6335 20.3429 28.6198 20.3331 28.608 20.3232C28.5688 20.2879 28.5275 20.2545 28.4843 20.227C28.4529 20.2054 28.4195 20.1838 28.3842 20.1662L28.3312 20.1387C28.3587 20.1583 28.3822 20.1838 28.4019 20.2094C28.5099 20.3507 28.502 20.5647 28.3547 20.6904L28.2055 20.818L28.1368 20.875L28.0583 20.9398L25.9888 22.6421L25.8337 22.7697L25.5293 23.019L18.4119 28.8701L19.7922 32.9992L29.2893 25.1572C29.5132 24.9727 29.6015 24.6683 29.5092 24.3935L29.5132 24.3895Z" fill="white"/>
<path opacity="0.4" d="M28.4048 20.2087V20.2185C28.4048 20.2185 28.4048 20.2126 28.4048 20.2087C28.3851 20.1832 28.3616 20.1576 28.3341 20.138L28.285 20.1125L28.2025 20.0712L28.1436 20.0418C28.1436 20.0418 28.1319 20.0339 28.126 20.032L28.0533 19.9966L27.9178 19.9299L25.6049 18.7793L22.8325 21.0589L25.3752 22.3331L25.5323 22.4117L25.813 22.553L25.9917 22.6414L27.9512 21.0314L28.0612 20.941L28.1397 20.8763L28.2084 20.8193L28.3576 20.6917C28.5049 20.566 28.5128 20.352 28.4048 20.2106V20.2087Z" fill="white"/>
<defs>
<linearGradient id="paint0_linear_2372_48394" x1="16.0591" y1="23.2267" x2="16.3991" y2="23.2267" gradientUnits="userSpaceOnUse">
<stop offset="0.31" stop-color="white"/>
<stop offset="0.73" stop-color="#E4E4E4"/>
</linearGradient>
<linearGradient id="paint1_linear_2372_48394" x1="14.4453" y1="20.7742" x2="25.26" y2="20.7742" gradientUnits="userSpaceOnUse">
<stop offset="0.31" stop-color="white"/>
<stop offset="0.73" stop-color="#E4E4E4"/>
</linearGradient>
</defs>
</svg>
