<svg width="90" height="24" viewBox="0 0 90 24" fill="none" xmlns="http://www.w3.org/2000/svg">
<g filter="url(#filter0_d_709_10686)">
<path d="M0 0H87.8049V17.8182C87.8049 20.0273 86.014 21.8182 83.8049 21.8182H4C1.79086 21.8182 0 20.0273 0 17.8182V0Z" fill="#FCFF5C"/>
<path d="M0.5 0.5H87.3049V17.8182C87.3049 19.7512 85.7379 21.3182 83.8049 21.3182H4C2.067 21.3182 0.5 19.7512 0.5 17.8182V0.5Z" stroke="black"/>
</g>
<path d="M18.7444 6.80844H20.5744V12.2584H23.5444V13.8184H18.7444V6.80844Z" fill="black"/>
<path d="M29.7592 8.34844C30.6392 8.34844 31.3158 8.60844 31.7892 9.12844C32.2625 9.64844 32.4992 10.3618 32.4992 11.2684C32.4992 11.4084 32.4958 11.5151 32.4892 11.5884H28.7291C28.8158 11.8951 28.9658 12.1318 29.1792 12.2984C29.3925 12.4584 29.6525 12.5384 29.9592 12.5384C30.1925 12.5384 30.4158 12.4918 30.6292 12.3984C30.8492 12.3051 31.0491 12.1684 31.2291 11.9884L32.1591 12.9184C31.8791 13.2318 31.5392 13.4718 31.1392 13.6384C30.7458 13.7984 30.2992 13.8784 29.7992 13.8784C29.2192 13.8784 28.7125 13.7651 28.2792 13.5384C27.8458 13.3118 27.5125 12.9918 27.2792 12.5784C27.0525 12.1651 26.9391 11.6851 26.9391 11.1384C26.9391 10.5851 27.0558 10.0984 27.2892 9.67844C27.5225 9.25177 27.8525 8.9251 28.2792 8.69844C28.7058 8.4651 29.1992 8.34844 29.7592 8.34844ZM30.7691 10.6384C30.7691 10.3251 30.6758 10.0751 30.4892 9.88844C30.3091 9.6951 30.0691 9.59844 29.7691 9.59844C29.4892 9.59844 29.2525 9.69177 29.0592 9.87844C28.8725 10.0651 28.7491 10.3184 28.6891 10.6384H30.7691Z" fill="black"/>
<path d="M41.5845 8.40844V13.3384C41.5845 13.8384 41.4612 14.2751 41.2145 14.6484C40.9679 15.0284 40.6212 15.3184 40.1745 15.5184C39.7345 15.7251 39.2245 15.8284 38.6445 15.8284C38.1912 15.8284 37.7545 15.7651 37.3345 15.6384C36.9145 15.5118 36.5445 15.3418 36.2245 15.1284L36.8445 13.8984C37.0912 14.0651 37.3579 14.1951 37.6445 14.2884C37.9312 14.3818 38.2212 14.4284 38.5145 14.4284C38.9145 14.4284 39.2312 14.3351 39.4645 14.1484C39.6979 13.9618 39.8145 13.7084 39.8145 13.3884V12.8084C39.4545 13.2818 38.9412 13.5184 38.2745 13.5184C37.8279 13.5184 37.4279 13.4118 37.0745 13.1984C36.7279 12.9784 36.4545 12.6718 36.2545 12.2784C36.0612 11.8784 35.9645 11.4218 35.9645 10.9084C35.9645 10.4018 36.0579 9.9551 36.2445 9.56844C36.4379 9.18177 36.7079 8.88177 37.0545 8.66844C37.4012 8.4551 37.7945 8.34844 38.2345 8.34844C38.5679 8.34844 38.8679 8.41177 39.1345 8.53844C39.4079 8.65844 39.6345 8.8351 39.8145 9.06844V8.40844H41.5845ZM38.7245 12.2184C39.0512 12.2184 39.3145 12.1018 39.5145 11.8684C39.7145 11.6351 39.8145 11.3318 39.8145 10.9584C39.8145 10.5784 39.7145 10.2718 39.5145 10.0384C39.3145 9.8051 39.0512 9.68844 38.7245 9.68844C38.3979 9.68844 38.1312 9.80844 37.9245 10.0484C37.7245 10.2818 37.6245 10.5851 37.6245 10.9584C37.6245 11.3318 37.7245 11.6351 37.9245 11.8684C38.1312 12.1018 38.3979 12.2184 38.7245 12.2184Z" fill="black"/>
<path d="M48.2689 8.34844C49.1489 8.34844 49.8256 8.60844 50.2989 9.12844C50.7723 9.64844 51.0089 10.3618 51.0089 11.2684C51.0089 11.4084 51.0056 11.5151 50.9989 11.5884H47.2389C47.3256 11.8951 47.4756 12.1318 47.6889 12.2984C47.9022 12.4584 48.1622 12.5384 48.4689 12.5384C48.7022 12.5384 48.9256 12.4918 49.1389 12.3984C49.3589 12.3051 49.5589 12.1684 49.7389 11.9884L50.6689 12.9184C50.3889 13.2318 50.0489 13.4718 49.6489 13.6384C49.2556 13.7984 48.8089 13.8784 48.3089 13.8784C47.7289 13.8784 47.2222 13.7651 46.7889 13.5384C46.3556 13.3118 46.0222 12.9918 45.7889 12.5784C45.5622 12.1651 45.4489 11.6851 45.4489 11.1384C45.4489 10.5851 45.5656 10.0984 45.7989 9.67844C46.0322 9.25177 46.3622 8.9251 46.7889 8.69844C47.2156 8.4651 47.7089 8.34844 48.2689 8.34844ZM49.2789 10.6384C49.2789 10.3251 49.1856 10.0751 48.9989 9.88844C48.8189 9.6951 48.5789 9.59844 48.2789 9.59844C47.9989 9.59844 47.7622 9.69177 47.5689 9.87844C47.3822 10.0651 47.2589 10.3184 47.1989 10.6384H49.2789Z" fill="black"/>
<path d="M58.4843 8.33844C59.0776 8.33844 59.551 8.5251 59.9043 8.89844C60.2643 9.27177 60.4443 9.7751 60.4443 10.4084V13.8184H58.6743V10.9184C58.6743 10.6118 58.591 10.3718 58.4243 10.1984C58.2576 10.0184 58.0343 9.92844 57.7543 9.92844C57.461 9.9351 57.2176 10.0318 57.0243 10.2184C56.8376 10.4051 56.7276 10.6518 56.6943 10.9584V13.8184H54.9143V8.40844H56.6943V9.28844C56.8876 8.9751 57.1343 8.73844 57.4343 8.57844C57.741 8.41844 58.091 8.33844 58.4843 8.33844Z" fill="black"/>
<path d="M70.1126 6.39844V13.8184H68.3326V13.1184C68.1459 13.3718 67.9159 13.5651 67.6426 13.6984C67.3759 13.8251 67.0726 13.8884 66.7326 13.8884C66.2326 13.8884 65.7926 13.7718 65.4126 13.5384C65.0326 13.3051 64.7359 12.9784 64.5226 12.5584C64.3159 12.1318 64.2126 11.6418 64.2126 11.0884C64.2126 10.5418 64.3159 10.0618 64.5226 9.64844C64.7293 9.2351 65.0193 8.9151 65.3926 8.68844C65.7659 8.46177 66.1993 8.34844 66.6926 8.34844C67.0393 8.34844 67.3493 8.4151 67.6226 8.54844C67.9026 8.68177 68.1393 8.87177 68.3326 9.11844V6.39844H70.1126ZM67.1726 12.4884C67.5193 12.4884 67.7993 12.3651 68.0126 12.1184C68.2259 11.8651 68.3326 11.5384 68.3326 11.1384C68.3326 10.7318 68.2259 10.4051 68.0126 10.1584C67.7993 9.91177 67.5193 9.78844 67.1726 9.78844C66.8259 9.78844 66.5426 9.9151 66.3226 10.1684C66.1093 10.4151 66.0026 10.7384 66.0026 11.1384C66.0026 11.5384 66.1093 11.8651 66.3226 12.1184C66.5426 12.3651 66.8259 12.4884 67.1726 12.4884Z" fill="black"/>
<defs>
<filter id="filter0_d_709_10686" x="0" y="0" width="88.8049" height="23.8184" filterUnits="userSpaceOnUse" color-interpolation-filters="sRGB">
<feFlood flood-opacity="0" result="BackgroundImageFix"/>
<feColorMatrix in="SourceAlpha" type="matrix" values="0 0 0 0 0 0 0 0 0 0 0 0 0 0 0 0 0 0 127 0" result="hardAlpha"/>
<feOffset dx="1" dy="2"/>
<feComposite in2="hardAlpha" operator="out"/>
<feColorMatrix type="matrix" values="0 0 0 0 0 0 0 0 0 0 0 0 0 0 0 0 0 0 1 0"/>
<feBlend mode="normal" in2="BackgroundImageFix" result="effect1_dropShadow_709_10686"/>
<feBlend mode="normal" in="SourceGraphic" in2="effect1_dropShadow_709_10686" result="shape"/>
</filter>
</defs>
</svg>
