<svg width="25" height="25" viewBox="0 0 25 25" fill="none" xmlns="http://www.w3.org/2000/svg">
<path fill-rule="evenodd" clip-rule="evenodd" d="M19.2141 15.8908L22.3526 17.5807L22.3658 17.5937C23.3325 18.1136 23.9549 19.0366 24.1403 20.0765H15.1619C14.6984 20.0765 14.2614 19.8945 13.9568 19.5565L2.58154 7.19447L8.15663 1.56589C8.15663 1.56589 8.51417 1.11093 9.21602 0.863947C9.71924 0.720957 10.5535 0.798952 11.0832 1.29291C11.3348 1.5269 11.3348 2.38483 11.3348 2.38483V4.1137C11.3348 4.82865 11.9175 5.4136 12.6458 5.4136H16.4994C17.2277 5.4136 17.8236 5.99856 17.8236 6.71351V9.24832H15.2414C14.8706 9.24832 14.5792 9.53429 14.5792 9.89827C14.5792 10.2622 14.8706 10.5482 15.2414 10.5482H17.8236V11.8481H15.2414C14.8706 11.8481 14.5792 12.1341 14.5792 12.4981C14.5792 12.862 14.8706 13.148 15.2414 13.148H17.8236V13.577C17.8236 14.5389 18.3533 15.4228 19.2141 15.8908ZM12.9641 20.4275C13.5203 21.0254 14.3149 21.3764 15.1492 21.3764H24.1143C23.77 22.9493 22.3531 24.1322 20.6448 24.1322H13.8381C13.0833 24.1322 12.355 23.8072 11.8518 23.2613L1.49616 12.0431C0.582426 11.0552 0.569184 9.56029 1.45643 8.54636C1.45643 8.54636 1.56237 8.41637 1.73452 8.20839L12.9641 20.4275Z" fill="#C9C5C6"/>
</svg>
