<svg width="90" height="24" viewBox="0 0 90 24" fill="none" xmlns="http://www.w3.org/2000/svg">
<g filter="url(#filter0_d_709_10683)">
<path d="M0 0H87.8049V17.8182C87.8049 20.0273 86.014 21.8182 83.8049 21.8182H4C1.79086 21.8182 0 20.0273 0 17.8182V0Z" fill="#1CFFBB"/>
<path d="M0.5 0.5H87.3049V17.8182C87.3049 19.7512 85.7379 21.3182 83.8049 21.3182H4C2.067 21.3182 0.5 19.7512 0.5 17.8182V0.5Z" stroke="black"/>
</g>
<path d="M16.45 11.3076C16.45 11.7036 16.567 12.0216 16.801 12.2616C17.035 12.5016 17.332 12.6216 17.692 12.6216C18.046 12.6216 18.331 12.5046 18.547 12.2706C18.769 12.0306 18.88 11.7096 18.88 11.3076V7.59961H20.527V11.3076C20.527 11.8536 20.41 12.3336 20.176 12.7476C19.948 13.1556 19.618 13.4706 19.186 13.6926C18.76 13.9146 18.259 14.0256 17.683 14.0256C17.107 14.0256 16.6 13.9146 16.162 13.6926C15.73 13.4706 15.394 13.1556 15.154 12.7476C14.92 12.3336 14.803 11.8536 14.803 11.3076V7.59961H16.45V11.3076Z" fill="black"/>
<path d="M25.8652 8.97661C26.3992 8.97661 26.8252 9.14461 27.1432 9.48061C27.4672 9.81661 27.6292 10.2696 27.6292 10.8396V13.9086H26.0362V11.2986C26.0362 11.0226 25.9612 10.8066 25.8112 10.6506C25.6612 10.4886 25.4602 10.4076 25.2082 10.4076C24.9442 10.4136 24.7252 10.5006 24.5512 10.6686C24.3832 10.8366 24.2842 11.0586 24.2542 11.3346V13.9086H22.6522V9.03961H24.2542V9.83161C24.4282 9.54961 24.6502 9.33661 24.9202 9.19261C25.1962 9.04861 25.5112 8.97661 25.8652 8.97661Z" fill="black"/>
<path d="M32.8576 10.8126C32.6296 10.4766 32.3116 10.3086 31.9036 10.3086C31.6156 10.3086 31.3816 10.4196 31.2016 10.6416C31.0216 10.8576 30.9316 11.1396 30.9316 11.4876C30.9316 11.8416 31.0216 12.1266 31.2016 12.3426C31.3816 12.5586 31.6156 12.6666 31.9036 12.6666C32.3476 12.6666 32.6656 12.4836 32.8576 12.1176L34.0366 12.7926C33.8446 13.1646 33.5566 13.4526 33.1726 13.6566C32.7886 13.8606 32.3386 13.9626 31.8226 13.9626C31.3246 13.9626 30.8866 13.8606 30.5086 13.6566C30.1306 13.4526 29.8366 13.1646 29.6266 12.7926C29.4226 12.4206 29.3206 11.9886 29.3206 11.4966C29.3206 10.9986 29.4256 10.5606 29.6356 10.1826C29.8456 9.79861 30.1396 9.50461 30.5176 9.30061C30.9016 9.09061 31.3426 8.98561 31.8406 8.98561C32.3266 8.98561 32.7586 9.08761 33.1366 9.29161C33.5146 9.48961 33.8086 9.77161 34.0186 10.1376L32.8576 10.8126Z" fill="black"/>
<path d="M37.8975 8.98561C38.4255 8.98561 38.8905 9.09061 39.2925 9.30061C39.6945 9.50461 40.0065 9.79561 40.2285 10.1736C40.4505 10.5456 40.5615 10.9776 40.5615 11.4696C40.5615 11.9676 40.4505 12.4056 40.2285 12.7836C40.0065 13.1556 39.6945 13.4466 39.2925 13.6566C38.8905 13.8606 38.4255 13.9626 37.8975 13.9626C37.3695 13.9626 36.9045 13.8606 36.5025 13.6566C36.1005 13.4466 35.7885 13.1556 35.5665 12.7836C35.3505 12.4056 35.2425 11.9676 35.2425 11.4696C35.2425 10.9776 35.3505 10.5456 35.5665 10.1736C35.7885 9.79561 36.1005 9.50461 36.5025 9.30061C36.9045 9.09061 37.3695 8.98561 37.8975 8.98561ZM37.8975 10.2816C37.5855 10.2816 37.3335 10.3926 37.1415 10.6146C36.9495 10.8366 36.8535 11.1276 36.8535 11.4876C36.8535 11.8536 36.9495 12.1476 37.1415 12.3696C37.3335 12.5916 37.5855 12.7026 37.8975 12.7026C38.2155 12.7026 38.4705 12.5916 38.6625 12.3696C38.8545 12.1476 38.9505 11.8536 38.9505 11.4876C38.9505 11.1276 38.8515 10.8366 38.6535 10.6146C38.4615 10.3926 38.2095 10.2816 37.8975 10.2816Z" fill="black"/>
<path d="M48.8758 8.97661C49.4038 8.97661 49.8268 9.14461 50.1448 9.48061C50.4628 9.81661 50.6218 10.2696 50.6218 10.8396V13.9086H49.0198V11.2986C49.0198 11.0226 48.9478 10.8066 48.8038 10.6506C48.6598 10.4886 48.4648 10.4076 48.2188 10.4076C47.9368 10.4136 47.7118 10.5186 47.5438 10.7226C47.3818 10.9206 47.3008 11.1816 47.3008 11.5056V13.9086H45.6988V11.2986C45.6988 11.0226 45.6268 10.8066 45.4828 10.6506C45.3388 10.4886 45.1438 10.4076 44.8978 10.4076C44.6158 10.4136 44.3908 10.5186 44.2228 10.7226C44.0548 10.9206 43.9708 11.1816 43.9708 11.5056V13.9086H42.3778V9.03961H43.9708V9.84061C44.1388 9.55861 44.3548 9.34561 44.6188 9.20161C44.8888 9.05161 45.2008 8.97661 45.5548 8.97661C45.9508 8.97661 46.2898 9.07261 46.5718 9.26461C46.8538 9.45661 47.0548 9.72361 47.1748 10.0656C47.3308 9.70561 47.5528 9.43561 47.8408 9.25561C48.1348 9.06961 48.4798 8.97661 48.8758 8.97661Z" fill="black"/>
<path d="M59.2098 8.97661C59.7378 8.97661 60.1608 9.14461 60.4788 9.48061C60.7968 9.81661 60.9558 10.2696 60.9558 10.8396V13.9086H59.3538V11.2986C59.3538 11.0226 59.2818 10.8066 59.1378 10.6506C58.9938 10.4886 58.7988 10.4076 58.5528 10.4076C58.2708 10.4136 58.0458 10.5186 57.8778 10.7226C57.7158 10.9206 57.6348 11.1816 57.6348 11.5056V13.9086H56.0328V11.2986C56.0328 11.0226 55.9608 10.8066 55.8168 10.6506C55.6728 10.4886 55.4778 10.4076 55.2318 10.4076C54.9498 10.4136 54.7248 10.5186 54.5568 10.7226C54.3888 10.9206 54.3048 11.1816 54.3048 11.5056V13.9086H52.7118V9.03961H54.3048V9.84061C54.4728 9.55861 54.6888 9.34561 54.9528 9.20161C55.2228 9.05161 55.5348 8.97661 55.8888 8.97661C56.2848 8.97661 56.6238 9.07261 56.9058 9.26461C57.1878 9.45661 57.3888 9.72361 57.5088 10.0656C57.6648 9.70561 57.8868 9.43561 58.1748 9.25561C58.4688 9.06961 58.8138 8.97661 59.2098 8.97661Z" fill="black"/>
<path d="M65.3047 8.98561C65.8327 8.98561 66.2977 9.09061 66.6997 9.30061C67.1017 9.50461 67.4137 9.79561 67.6357 10.1736C67.8577 10.5456 67.9687 10.9776 67.9687 11.4696C67.9687 11.9676 67.8577 12.4056 67.6357 12.7836C67.4137 13.1556 67.1017 13.4466 66.6997 13.6566C66.2977 13.8606 65.8327 13.9626 65.3047 13.9626C64.7767 13.9626 64.3117 13.8606 63.9097 13.6566C63.5077 13.4466 63.1957 13.1556 62.9737 12.7836C62.7577 12.4056 62.6497 11.9676 62.6497 11.4696C62.6497 10.9776 62.7577 10.5456 62.9737 10.1736C63.1957 9.79561 63.5077 9.50461 63.9097 9.30061C64.3117 9.09061 64.7767 8.98561 65.3047 8.98561ZM65.3047 10.2816C64.9927 10.2816 64.7407 10.3926 64.5487 10.6146C64.3567 10.8366 64.2607 11.1276 64.2607 11.4876C64.2607 11.8536 64.3567 12.1476 64.5487 12.3696C64.7407 12.5916 64.9927 12.7026 65.3047 12.7026C65.6227 12.7026 65.8777 12.5916 66.0697 12.3696C66.2617 12.1476 66.3577 11.8536 66.3577 11.4876C66.3577 11.1276 66.2587 10.8366 66.0607 10.6146C65.8687 10.3926 65.6167 10.2816 65.3047 10.2816Z" fill="black"/>
<path d="M72.998 8.97661C73.532 8.97661 73.958 9.14461 74.276 9.48061C74.6 9.81661 74.762 10.2696 74.762 10.8396V13.9086H73.169V11.2986C73.169 11.0226 73.094 10.8066 72.944 10.6506C72.794 10.4886 72.593 10.4076 72.341 10.4076C72.077 10.4136 71.858 10.5006 71.684 10.6686C71.516 10.8366 71.417 11.0586 71.387 11.3346V13.9086H69.785V9.03961H71.387V9.83161C71.561 9.54961 71.783 9.33661 72.053 9.19261C72.329 9.04861 72.644 8.97661 72.998 8.97661Z" fill="black"/>
<defs>
<filter id="filter0_d_709_10683" x="0" y="0" width="88.8049" height="23.8184" filterUnits="userSpaceOnUse" color-interpolation-filters="sRGB">
<feFlood flood-opacity="0" result="BackgroundImageFix"/>
<feColorMatrix in="SourceAlpha" type="matrix" values="0 0 0 0 0 0 0 0 0 0 0 0 0 0 0 0 0 0 127 0" result="hardAlpha"/>
<feOffset dx="1" dy="2"/>
<feComposite in2="hardAlpha" operator="out"/>
<feColorMatrix type="matrix" values="0 0 0 0 0 0 0 0 0 0 0 0 0 0 0 0 0 0 1 0"/>
<feBlend mode="normal" in2="BackgroundImageFix" result="effect1_dropShadow_709_10683"/>
<feBlend mode="normal" in="SourceGraphic" in2="effect1_dropShadow_709_10683" result="shape"/>
</filter>
</defs>
</svg>
