<svg width="17" height="16" viewBox="0 0 17 16" fill="none" xmlns="http://www.w3.org/2000/svg">
<path d="M4.33197 1.60983L3.66712 3.96027L3.64745 3.96367C3.57386 4.26932 1.91656 7.34614 1.91656 7.34614L1.09525 8.39349C0.959145 8.56603 0.946002 8.81397 1.06332 9.00752C1.40195 9.56684 2.35012 10.724 4.83958 11.9821C4.83958 11.9821 10.1594 14.6348 11.791 15.6617C11.9706 15.7746 12.1703 15.8419 12.3764 15.8567C13.0429 15.9072 14.593 15.9757 16.0138 15.6801C16.3611 15.6078 16.6479 15.3527 16.7777 15.0045C16.9663 14.4991 16.8612 13.918 16.5076 13.5123C15.9714 12.8977 15.1095 11.9384 14.128 10.9627C14.128 10.9627 11.1688 6.34633 10.889 5.47979C10.6906 4.86646 10.9135 2.7105 11.0598 1.50728C11.1067 1.11988 10.7614 0.801215 10.4083 0.906376L7.16131 1.40618L6.84057 2.90061L5.58858 2.91114L4.91897 1.56298C4.78463 1.29322 4.41386 1.32433 4.33231 1.61182L4.33197 1.60983Z" fill="black"/>
</svg>
