<svg width="90" height="24" viewBox="0 0 90 24" fill="none" xmlns="http://www.w3.org/2000/svg">
<g filter="url(#filter0_d_709_10685)">
<path d="M0 0H87.8049V17.8182C87.8049 20.0273 86.014 21.8182 83.8049 21.8182H4C1.79086 21.8182 0 20.0273 0 17.8182V0Z" fill="#B163FF"/>
<path d="M0.5 0.5H87.3049V17.8182C87.3049 19.7512 85.7379 21.3182 83.8049 21.3182H4C2.067 21.3182 0.5 19.7512 0.5 17.8182V0.5Z" stroke="black"/>
</g>
<path d="M24.9543 6.80797H30.4843V8.26797H26.7843V9.57797H30.1243V11.028L26.7843 11.038V12.358H30.5843V13.818H24.9543V6.80797Z" fill="black"/>
<path d="M41.1224 8.34797C41.6224 8.34797 42.0624 8.46463 42.4424 8.69797C42.8224 8.92464 43.1157 9.2513 43.3224 9.67797C43.5357 10.098 43.6424 10.5846 43.6424 11.138C43.6424 11.6846 43.5391 12.1646 43.3324 12.578C43.1324 12.9913 42.8424 13.3113 42.4624 13.538C42.0891 13.7646 41.6557 13.878 41.1624 13.878C40.8224 13.878 40.5124 13.8146 40.2324 13.688C39.9591 13.5546 39.7257 13.3646 39.5324 13.118V15.758H37.7524V8.40797H39.5324V9.10797C39.9257 8.6013 40.4557 8.34797 41.1224 8.34797ZM40.6824 12.438C41.0291 12.438 41.3091 12.3146 41.5224 12.068C41.7424 11.8213 41.8524 11.498 41.8524 11.098C41.8524 10.698 41.7424 10.3746 41.5224 10.128C41.3091 9.87464 41.0291 9.74797 40.6824 9.74797C40.3424 9.74797 40.0657 9.87464 39.8524 10.128C39.6391 10.3746 39.5324 10.698 39.5324 11.098C39.5324 11.498 39.6391 11.8213 39.8524 12.068C40.0657 12.3146 40.3424 12.438 40.6824 12.438Z" fill="black"/>
<path d="M50.5579 8.40797H52.3279V13.818H50.5579V8.40797ZM51.4279 5.91797C51.7012 5.91797 51.9245 6.00797 52.0979 6.18797C52.2779 6.3613 52.3679 6.58797 52.3679 6.86797C52.3679 7.1413 52.2779 7.36797 52.0979 7.54797C51.9245 7.72797 51.7012 7.81797 51.4279 7.81797C51.1545 7.81797 50.9279 7.72797 50.7479 7.54797C50.5745 7.36797 50.4879 7.1413 50.4879 6.86797C50.4879 6.58797 50.5745 6.3613 50.7479 6.18797C50.9279 6.00797 51.1545 5.91797 51.4279 5.91797Z" fill="black"/>
<path d="M63.1826 10.378C62.9293 10.0046 62.576 9.81797 62.1226 9.81797C61.8026 9.81797 61.5426 9.9413 61.3426 10.188C61.1426 10.428 61.0426 10.7413 61.0426 11.128C61.0426 11.5213 61.1426 11.838 61.3426 12.078C61.5426 12.318 61.8026 12.438 62.1226 12.438C62.616 12.438 62.9693 12.2346 63.1826 11.828L64.4926 12.578C64.2793 12.9913 63.9593 13.3113 63.5326 13.538C63.106 13.7646 62.606 13.878 62.0326 13.878C61.4793 13.878 60.9926 13.7646 60.5726 13.538C60.1526 13.3113 59.826 12.9913 59.5926 12.578C59.366 12.1646 59.2526 11.6846 59.2526 11.138C59.2526 10.5846 59.3693 10.098 59.6026 9.67797C59.836 9.2513 60.1626 8.92464 60.5826 8.69797C61.0093 8.46463 61.4993 8.34797 62.0526 8.34797C62.5926 8.34797 63.0726 8.4613 63.4926 8.68797C63.9126 8.90797 64.2393 9.2213 64.4726 9.62797L63.1826 10.378Z" fill="black"/>
<defs>
<filter id="filter0_d_709_10685" x="0" y="0" width="88.8049" height="23.8184" filterUnits="userSpaceOnUse" color-interpolation-filters="sRGB">
<feFlood flood-opacity="0" result="BackgroundImageFix"/>
<feColorMatrix in="SourceAlpha" type="matrix" values="0 0 0 0 0 0 0 0 0 0 0 0 0 0 0 0 0 0 127 0" result="hardAlpha"/>
<feOffset dx="1" dy="2"/>
<feComposite in2="hardAlpha" operator="out"/>
<feColorMatrix type="matrix" values="0 0 0 0 0 0 0 0 0 0 0 0 0 0 0 0 0 0 1 0"/>
<feBlend mode="normal" in2="BackgroundImageFix" result="effect1_dropShadow_709_10685"/>
<feBlend mode="normal" in="SourceGraphic" in2="effect1_dropShadow_709_10685" result="shape"/>
</filter>
</defs>
</svg>
