<svg width="26" height="26" viewBox="0 0 26 26" fill="none" xmlns="http://www.w3.org/2000/svg">
<path d="M21.1335 16.7231L8.62353 17.9146C8.11406 17.9632 7.65017 17.6192 7.5486 17.1176L5.5 7H23.1845C23.8458 7 24.325 7.63038 24.148 8.26756L22.0022 15.9952C21.8914 16.3943 21.5459 16.6838 21.1335 16.7231Z" fill="#0EE6F3"/>
<path d="M0 1H4.09091L5.5 7M5.5 7L7.5486 17.1176C7.65017 17.6192 8.11406 17.9632 8.62353 17.9146L21.1335 16.7231C21.5459 16.6838 21.8914 16.3943 22.0022 15.9952L24.148 8.26756C24.325 7.63038 23.8458 7 23.1845 7H5.5Z" stroke="#0EE6F3" stroke-width="2"/>
<circle cx="8.783" cy="23.1883" r="2.31132" fill="#0EE6F3"/>
<circle cx="20.8019" cy="23.1883" r="2.31132" fill="#0EE6F3"/>
</svg>
