<svg width="16" height="16" viewBox="0 0 16 16" fill="none" xmlns="http://www.w3.org/2000/svg">
<g id="ic-copy-18">
<path id="vector" fill-rule="evenodd" clip-rule="evenodd" d="M10.6049 2.6875L10.6049 3.79102L5.93585 3.79102C5.38356 3.79102 4.93585 4.23873 4.93585 4.79102L4.93585 11.1542L3.66675 11.1542C3.11446 11.1542 2.66675 10.7065 2.66675 10.1542L2.66675 2.6875C2.66675 2.13521 3.11446 1.6875 3.66675 1.6875L9.60494 1.6875C10.1572 1.6875 10.6049 2.13522 10.6049 2.6875ZM13.007 14.3097C13.5593 14.3097 14.007 13.862 14.007 13.3097L14.007 5.84307C14.007 5.29079 13.5593 4.84307 13.007 4.84307L7.06882 4.84307C6.51654 4.84307 6.06882 5.29079 6.06882 5.84307L6.06882 13.3097C6.06882 13.862 6.51653 14.3097 7.06882 14.3097L13.007 14.3097Z" fill="#C9C5C6"/>
</g>
</svg>
