<svg width="22" height="16" viewBox="0 0 22 16" fill="none" xmlns="http://www.w3.org/2000/svg">
<path d="M13 8.5C13 7.11929 14.1193 6 15.5 6H21C21.5523 6 22 6.44772 22 7V10C22 10.5523 21.5523 11 21 11H15.5C14.1193 11 13 9.88071 13 8.5Z" fill="#D3D3D3"/>
<path fill-rule="evenodd" clip-rule="evenodd" d="M2 0C0.895431 0 0 0.89543 0 2V14.0001C0 15.1046 0.895433 16.0001 2 16.0001H18.2106C19.3152 16.0001 20.2106 15.1046 20.2106 14.0001V12.2104H15.158C13.0651 12.2104 11.3685 10.5138 11.3685 8.42092C11.3685 6.32804 13.0651 4.63143 15.158 4.63143H20.2106V2C20.2106 0.895431 19.3152 0 18.2106 0H2Z" fill="#D3D3D3"/>
<path fill-rule="evenodd" clip-rule="evenodd" d="M2 0C0.895431 0 0 0.89543 0 2V14.0001C0 15.1046 0.895433 16.0001 2 16.0001H18.2106C19.3152 16.0001 20.2106 15.1046 20.2106 14.0001V13.2104H16.158C13.5128 13.2104 11.3685 11.0661 11.3685 8.42092C11.3685 5.77576 13.5128 3.63143 16.158 3.63143H20.2106V2C20.2106 0.895431 19.3152 0 18.2106 0H2Z" fill="#D3D3D3"/>
</svg>
