<svg width="22" height="22" viewBox="0 0 22 22" fill="none" xmlns="http://www.w3.org/2000/svg">
<path d="M21.2667 20.1705C21.2667 20.4612 21.1465 20.74 20.9326 20.9456C20.7187 21.1511 20.4285 21.2666 20.126 21.2666H1.87414C1.5716 21.2666 1.28144 21.1511 1.06751 20.9456C0.853583 20.74 0.733399 20.4612 0.733399 20.1705V8.65024C0.733278 8.4832 0.772888 8.31835 0.849202 8.16827C0.925516 8.01819 1.03652 7.88686 1.17372 7.7843L10.2996 0.964223C10.4999 0.814542 10.7464 0.733276 11.0001 0.733276C11.2538 0.733276 11.5002 0.814542 11.7005 0.964223L20.8264 7.7843C20.9636 7.88686 21.0746 8.01819 21.1509 8.16827C21.2272 8.31835 21.2669 8.4832 21.2667 8.65024V20.1705ZM9.85932 14.6899V21.2666H12.1408V14.6899H9.85932Z" fill="#C9C5C6"/>
</svg>
