<svg width="22" height="17" viewBox="0 0 22 17" fill="none" xmlns="http://www.w3.org/2000/svg">
<path d="M12.4528 8.94702C12.4528 7.21749 13.8548 5.81543 15.5843 5.81543H20.9999C21.5522 5.81543 21.9999 6.26314 21.9999 6.81543V11.0786C21.9999 11.6309 21.5522 12.0786 20.9999 12.0786H15.5843C13.8548 12.0786 12.4528 10.6765 12.4528 8.94702Z" fill="#BFBFBF"/>
<path fill-rule="evenodd" clip-rule="evenodd" d="M2 0C0.895431 0 0 0.89543 0 2V15.0001C0 16.1046 0.895429 17.0001 2 17.0001H17.9245C19.0291 17.0001 19.9245 16.1046 19.9245 15.0001V12.9736H15.2339C13.0102 12.9736 11.2076 11.1709 11.2076 8.94723C11.2076 6.72355 13.0102 4.9209 15.2339 4.9209H19.9245V2C19.9245 0.895431 19.0291 0 17.9245 0H2Z" fill="#BFBFBF"/>
</svg>
