<svg width="18" height="18" viewBox="0 0 18 18" fill="none" xmlns="http://www.w3.org/2000/svg">
<circle cx="9" cy="9" r="9" fill="#3EDCFF"/>
<path d="M11.1512 12.9996L9.81921 10.5996H9.63921H7.88721V12.9996H5.99121V4.59961H9.63921C10.7352 4.59961 11.5832 4.85561 12.1832 5.36761C12.7832 5.87161 13.0832 6.58761 13.0832 7.51561C13.0832 8.16361 12.9472 8.71961 12.6752 9.18361C12.4112 9.63961 12.0232 9.98761 11.5112 10.2276L13.2992 12.9996H11.1512ZM7.88721 9.01561H9.63921C10.1672 9.01561 10.5712 8.89561 10.8512 8.65561C11.1392 8.40761 11.2832 8.04761 11.2832 7.57561C11.2832 7.11161 11.1392 6.76361 10.8512 6.53161C10.5712 6.29161 10.1672 6.17161 9.63921 6.17161H7.88721V9.01561Z" fill="black"/>
</svg>
