<svg width="20" height="26" viewBox="0 0 20 26" fill="none" xmlns="http://www.w3.org/2000/svg">
<g clip-path="url(#clip0_9719_51009)">
<path d="M17.8479 11.6071H17.1612V6.96758C17.1597 3.12574 14.0321 0 10.186 0H9.81397C5.96794 0 2.83878 3.12574 2.83878 6.96758V11.6071H2.15215C0.9634 11.6071 0 12.5694 0 13.7569V23.8502C0 25.0376 0.9634 26 2.15215 26H17.8479C19.0366 26 20 25.0376 20 23.8502V13.7569C20 12.5694 19.0366 11.6071 17.8479 11.6071ZM11.0647 19.3814V21.0704C11.0647 21.6581 10.5883 22.134 10 22.134C9.41168 22.134 8.93527 21.6581 8.93527 21.0704V19.3814C8.43466 19.0415 8.10647 18.4674 8.10647 17.8178C8.10647 16.7739 8.95493 15.9263 10 15.9263C11.0451 15.9263 11.8935 16.7739 11.8935 17.8178C11.8935 18.4674 11.5653 19.0415 11.0647 19.3814ZM14.4374 11.6071H5.5611V6.96758C5.5611 4.62591 7.46824 2.71935 9.81397 2.71935H10.186C12.5302 2.71935 14.4389 4.6244 14.4389 6.96758V11.6071H14.4374Z" fill="#BFBFBF"/>
</g>
<defs>
<clipPath id="clip0_9719_51009">
<rect width="20" height="26" fill="white"/>
</clipPath>
</defs>
</svg>
