<svg width="24" height="24" viewBox="0 0 24 24" fill="none" xmlns="http://www.w3.org/2000/svg">
<path d="M12 20C10.6424 20 9.39394 19.6909 8.25455 19.0727C7.11515 18.4545 6.18182 17.6303 5.45455 16.6V18.5455H4V14.1818H8.36364V15.6364H6.56364C7.14545 16.5091 7.91224 17.2121 8.864 17.7455C9.81576 18.2788 10.8611 18.5455 12 18.5455C12.9091 18.5455 13.7607 18.3728 14.5549 18.0276C15.3491 17.6824 16.04 17.2158 16.6276 16.6276C17.2153 16.0395 17.6819 15.3486 18.0276 14.5549C18.3733 13.7612 18.5459 12.9096 18.5455 12H20C20 13.103 19.791 14.1394 19.3731 15.1091C18.9552 16.0788 18.3823 16.9273 17.6545 17.6545C16.9273 18.3818 16.0788 18.9547 15.1091 19.3731C14.1394 19.7915 13.103 20.0005 12 20ZM4 12C4 10.897 4.20921 9.86061 4.62764 8.89091C5.04606 7.92121 5.61867 7.07273 6.34545 6.34545C7.07273 5.61818 7.92121 5.04558 8.89091 4.62764C9.86061 4.2097 10.897 4.00048 12 4C13.3576 4 14.6061 4.30909 15.7455 4.92727C16.8848 5.54545 17.8182 6.3697 18.5455 7.4V5.45455H20V9.81818H15.6364V8.36364H17.4364C16.8545 7.49091 16.088 6.78788 15.1367 6.25455C14.1855 5.72121 13.1399 5.45455 12 5.45455C11.0909 5.45455 10.2395 5.62739 9.44582 5.97309C8.65212 6.31879 7.96121 6.78521 7.37309 7.37236C6.78497 7.96048 6.3183 8.65164 5.97309 9.44582C5.62788 10.24 5.45503 11.0914 5.45455 12H4Z" fill="white"/>
</svg>
