<svg width="24" height="24" viewBox="0 0 24 24" fill="none" xmlns="http://www.w3.org/2000/svg">
<path d="M1 12C1 5.92487 5.92487 1 12 1C18.0751 1 23 5.92487 23 12C23 18.0751 18.0751 23 12 23C5.92487 23 1 18.0751 1 12Z" stroke="#363841" stroke-width="2"/>
<circle cx="12" cy="12" r="10" fill="#FFB6CE"/>
<path d="M11.7463 17.7587C11.0073 17.7587 10.3248 17.5714 9.71567 17.2009C7.57439 15.8986 7.10775 12.7195 8.67648 10.1142C9.76106 8.31249 11.5615 7.19354 13.3739 7.19354C14.1129 7.19354 14.7953 7.38083 15.4045 7.75142C17.5458 9.05366 18.0124 12.2328 16.4437 14.8381C15.3591 16.6398 13.5595 17.7595 11.7463 17.7595V17.7587Z" fill="#EF6A9D"/>
<path d="M13.3739 6.95374V7.43397C14.0683 7.43397 14.7094 7.61006 15.2803 7.95663C17.3093 9.19004 17.7393 12.2211 16.2391 14.7136C15.7191 15.578 15.0135 16.2967 14.1989 16.7922C13.4169 17.2676 12.5689 17.5189 11.7463 17.5189C11.0519 17.5189 10.4101 17.3428 9.83991 16.9963C8.8716 16.4072 8.23375 15.3907 8.04343 14.1333C7.84834 12.843 8.14616 11.4608 8.88115 10.2394C9.40114 9.37493 10.1067 8.65617 10.9213 8.16073C11.7033 7.6853 12.5514 7.43397 13.3739 7.43397V6.95374ZM13.3739 6.95374C11.5512 6.95374 9.63128 8.06548 8.47185 9.99123C6.83304 12.7142 7.33392 16.035 9.59226 17.4077C10.2532 17.8095 10.9914 18 11.7463 18C13.569 18 15.4889 16.8882 16.6484 14.9625C18.2872 12.2395 17.7863 8.9187 15.528 7.54603C14.867 7.14423 14.1288 6.95374 13.3739 6.95374Z" fill="#971A4A"/>
<path d="M10.1795 16.8066C9.44057 16.8066 8.75813 16.6193 8.14895 16.2487C6.00767 14.9465 5.54183 11.7673 7.10976 9.16201C8.19434 7.36032 9.9948 6.24057 11.8072 6.24057C12.5462 6.24057 13.2286 6.42786 13.8378 6.79844C15.9791 8.10069 16.4457 11.2798 14.877 13.8851C13.7924 15.6868 11.9927 16.8066 10.1795 16.8066Z" fill="#FF8FB4"/>
<path d="M11.8071 6.00073V6.48097C12.5015 6.48097 13.1425 6.65706 13.7135 7.00363C14.6818 7.59272 15.3197 8.60922 15.51 9.86663C15.7051 11.1569 15.4073 12.5391 14.6723 13.7605C14.1523 14.625 13.4467 15.3437 12.6321 15.8392C11.8501 16.3146 11.0021 16.5659 10.1795 16.5659C9.48509 16.5659 8.84326 16.3898 8.2731 16.0433C6.2441 14.8099 5.81409 11.7788 7.31434 9.28635C7.83434 8.42192 8.53987 7.70317 9.35449 7.20773C10.1365 6.73229 10.9845 6.48097 11.8071 6.48097V6.00073ZM11.8071 6.00073C9.98438 6.00073 8.06447 7.11248 6.90584 9.03823C5.26623 11.7612 5.76791 15.0812 8.02545 16.4547C8.68639 16.8565 9.42457 17.047 10.1795 17.047C12.0022 17.047 13.9221 15.9352 15.0816 14.0095C16.7204 11.2865 16.2195 7.9657 13.9612 6.59302C13.3002 6.19123 12.562 6.00073 11.8071 6.00073Z" fill="#971A4A"/>
<path d="M8.04981 16.0897L7.88495 16.3637L9.84452 17.5551L10.0094 17.2812L8.04981 16.0897Z" fill="#971A4A"/>
<path d="M13.9397 6.59291L13.6924 7.00381L15.652 8.19525L15.8992 7.78434L13.9397 6.59291Z" fill="#971A4A"/>
<path d="M15.5715 8.45982L15.3242 8.87073L16.8477 9.79703L17.095 9.38612L15.5715 8.45982Z" fill="#971A4A"/>
<path d="M15.8898 10.0604L15.6425 10.4713L17.1661 11.3976L17.4133 10.9867L15.8898 10.0604Z" fill="#971A4A"/>
<path d="M15.8889 11.8211L15.6416 12.2321L17.1651 13.1584L17.4124 12.7474L15.8889 11.8211Z" fill="#971A4A"/>
<path d="M15.0139 13.7413L14.7666 14.1523L16.2901 15.0786L16.5374 14.6676L15.0139 13.7413Z" fill="#971A4A"/>
<path d="M13.5803 15.2622L13.333 15.6732L14.8565 16.5995L15.1038 16.1886L13.5803 15.2622Z" fill="#971A4A"/>
<path d="M12.1477 16.1426L11.9004 16.5535L13.4239 17.4798L13.6712 17.0689L12.1477 16.1426Z" fill="#971A4A"/>
<path d="M10.7141 16.623L10.4668 17.0339L11.9903 17.9602L12.2376 17.5493L10.7141 16.623Z" fill="#971A4A"/>
<path d="M10.0983 10.0511L9.95737 10.7514H9.1961L8.80033 12.7332H7.91722L8.31299 10.7514H7.55569L7.69664 10.0511H10.0991H10.0983Z" fill="#971A4A"/>
<path d="M11.1913 10.0511L10.6585 12.7332H9.77542L10.3082 10.0511H11.1913Z" fill="#971A4A"/>
<path d="M14.2825 10.0511L13.1023 11.1644L13.776 12.7332H12.752L12.3865 11.8344L12.0361 12.1673L11.9222 12.734H11.0391L11.5718 10.0519H12.4549L12.2606 11.0276L13.2313 10.0519H14.2825V10.0511Z" fill="#971A4A"/>
</svg>
