<svg width="90" height="24" viewBox="0 0 90 24" fill="none" xmlns="http://www.w3.org/2000/svg">
<g filter="url(#filter0_d_709_10682)">
<path d="M0 0H87.8049V17.8182C87.8049 20.0273 86.014 21.8182 83.8049 21.8182H4C1.79086 21.8182 0 20.0273 0 17.8182V0Z" fill="#EEF4F4"/>
<path d="M0.5 0.5H87.3049V17.8182C87.3049 19.7512 85.7379 21.3182 83.8049 21.3182H4C2.067 21.3182 0.5 19.7512 0.5 17.8182V0.5Z" stroke="black"/>
</g>
<path d="M20.9091 9.00898C20.6691 8.72232 20.3858 8.49898 20.0591 8.33898C19.7391 8.17232 19.4158 8.08898 19.0891 8.08898C18.6958 8.08898 18.3358 8.18565 18.0091 8.37898C17.6824 8.57232 17.4258 8.83565 17.2391 9.16898C17.0524 9.50232 16.9591 9.87232 16.9591 10.279C16.9591 10.6857 17.0524 11.059 17.2391 11.399C17.4258 11.7323 17.6824 11.999 18.0091 12.199C18.3358 12.3923 18.6958 12.489 19.0891 12.489C19.4024 12.489 19.7191 12.4157 20.0391 12.269C20.3658 12.1157 20.6558 11.9123 20.9091 11.659L21.8391 12.669C21.4658 13.0557 21.0258 13.3623 20.5191 13.589C20.0191 13.8157 19.5158 13.929 19.0091 13.929C18.3224 13.929 17.6991 13.7723 17.1391 13.459C16.5791 13.139 16.1391 12.7023 15.8191 12.149C15.4991 11.5957 15.3391 10.979 15.3391 10.299C15.3391 9.62565 15.5024 9.01565 15.8291 8.46898C16.1558 7.92232 16.6024 7.49232 17.1691 7.17898C17.7424 6.86565 18.3758 6.70898 19.0691 6.70898C19.5758 6.70898 20.0758 6.81565 20.5691 7.02898C21.0624 7.23565 21.4824 7.51898 21.8291 7.87898L20.9091 9.00898Z" fill="black"/>
<path d="M27.0555 8.38898C27.6222 8.38898 28.1222 8.50232 28.5555 8.72898C28.9955 8.95565 29.3355 9.27565 29.5755 9.68898C29.8155 10.1023 29.9355 10.5823 29.9355 11.129C29.9355 11.669 29.8155 12.149 29.5755 12.569C29.3355 12.9823 28.9955 13.3057 28.5555 13.539C28.1222 13.7657 27.6222 13.879 27.0555 13.879C26.4822 13.879 25.9755 13.7657 25.5355 13.539C25.1022 13.3057 24.7655 12.9823 24.5255 12.569C24.2855 12.149 24.1655 11.669 24.1655 11.129C24.1655 10.5823 24.2855 10.1023 24.5255 9.68898C24.7655 9.27565 25.1022 8.95565 25.5355 8.72898C25.9755 8.50232 26.4822 8.38898 27.0555 8.38898ZM27.0555 9.66898C26.6555 9.66898 26.3289 9.80565 26.0755 10.079C25.8289 10.3523 25.7055 10.709 25.7055 11.149C25.7055 11.589 25.8289 11.9457 26.0755 12.219C26.3289 12.4923 26.6555 12.629 27.0555 12.629C27.4489 12.629 27.7689 12.4923 28.0155 12.219C28.2689 11.9457 28.3955 11.589 28.3955 11.149C28.3955 10.709 28.2689 10.3523 28.0155 10.079C27.7689 9.80565 27.4489 9.66898 27.0555 9.66898Z" fill="black"/>
<path d="M40.0736 8.37898C40.667 8.37898 41.137 8.56565 41.4836 8.93898C41.837 9.30565 42.0136 9.80565 42.0136 10.439V13.819H40.4836V10.889C40.4836 10.5423 40.3903 10.2723 40.2036 10.079C40.017 9.88565 39.7636 9.78898 39.4436 9.78898C39.077 9.79565 38.787 9.92565 38.5736 10.179C38.3603 10.4323 38.2536 10.759 38.2536 11.159V13.819H36.7236V10.889C36.7236 10.549 36.6303 10.2823 36.4436 10.089C36.2636 9.88898 36.0136 9.78898 35.6936 9.78898C35.327 9.79565 35.0336 9.92565 34.8136 10.179C34.6003 10.4323 34.4936 10.759 34.4936 11.159V13.819H32.9536V8.43898H34.4936V9.36898C34.867 8.72232 35.4736 8.39232 36.3136 8.37898C36.767 8.37898 37.1503 8.48898 37.4636 8.70898C37.777 8.92232 38.0003 9.22565 38.1336 9.61898C38.307 9.21232 38.557 8.90565 38.8836 8.69898C39.217 8.49232 39.6136 8.38565 40.0736 8.37898Z" fill="black"/>
<path d="M52.4643 8.37898C53.0576 8.37898 53.5276 8.56565 53.8743 8.93898C54.2276 9.30565 54.4043 9.80565 54.4043 10.439V13.819H52.8743V10.889C52.8743 10.5423 52.7809 10.2723 52.5943 10.079C52.4076 9.88565 52.1543 9.78898 51.8343 9.78898C51.4676 9.79565 51.1776 9.92565 50.9643 10.179C50.7509 10.4323 50.6443 10.759 50.6443 11.159V13.819H49.1143V10.889C49.1143 10.549 49.0209 10.2823 48.8343 10.089C48.6543 9.88898 48.4043 9.78898 48.0843 9.78898C47.7176 9.79565 47.4243 9.92565 47.2043 10.179C46.9909 10.4323 46.8843 10.759 46.8843 11.159V13.819H45.3443V8.43898H46.8843V9.36898C47.2576 8.72232 47.8643 8.39232 48.7043 8.37898C49.1576 8.37898 49.5409 8.48898 49.8543 8.70898C50.1676 8.92232 50.3909 9.22565 50.5243 9.61898C50.6976 9.21232 50.9476 8.90565 51.2743 8.69898C51.6076 8.49232 52.0043 8.38565 52.4643 8.37898Z" fill="black"/>
<path d="M60.1649 8.38898C60.7316 8.38898 61.2316 8.50232 61.6649 8.72898C62.1049 8.95565 62.4449 9.27565 62.6849 9.68898C62.9249 10.1023 63.0449 10.5823 63.0449 11.129C63.0449 11.669 62.9249 12.149 62.6849 12.569C62.4449 12.9823 62.1049 13.3057 61.6649 13.539C61.2316 13.7657 60.7316 13.879 60.1649 13.879C59.5916 13.879 59.0849 13.7657 58.6449 13.539C58.2116 13.3057 57.8749 12.9823 57.6349 12.569C57.3949 12.149 57.2749 11.669 57.2749 11.129C57.2749 10.5823 57.3949 10.1023 57.6349 9.68898C57.8749 9.27565 58.2116 8.95565 58.6449 8.72898C59.0849 8.50232 59.5916 8.38898 60.1649 8.38898ZM60.1649 9.66898C59.7649 9.66898 59.4382 9.80565 59.1849 10.079C58.9382 10.3523 58.8149 10.709 58.8149 11.149C58.8149 11.589 58.9382 11.9457 59.1849 12.219C59.4382 12.4923 59.7649 12.629 60.1649 12.629C60.5582 12.629 60.8782 12.4923 61.1249 12.219C61.3782 11.9457 61.5049 11.589 61.5049 11.149C61.5049 10.709 61.3782 10.3523 61.1249 10.079C60.8782 9.80565 60.5582 9.66898 60.1649 9.66898Z" fill="black"/>
<path d="M69.463 8.37898C70.063 8.37898 70.5397 8.56565 70.893 8.93898C71.253 9.31232 71.433 9.81232 71.433 10.439V13.819H69.893V10.889C69.893 10.549 69.7963 10.2823 69.603 10.089C69.4163 9.88898 69.1597 9.78898 68.833 9.78898C68.453 9.79565 68.153 9.92898 67.933 10.189C67.713 10.4423 67.603 10.769 67.603 11.169V13.819H66.063V8.43898H67.603V9.37898C67.9763 8.72565 68.5963 8.39232 69.463 8.37898Z" fill="black"/>
<defs>
<filter id="filter0_d_709_10682" x="0" y="0" width="88.8049" height="23.8184" filterUnits="userSpaceOnUse" color-interpolation-filters="sRGB">
<feFlood flood-opacity="0" result="BackgroundImageFix"/>
<feColorMatrix in="SourceAlpha" type="matrix" values="0 0 0 0 0 0 0 0 0 0 0 0 0 0 0 0 0 0 127 0" result="hardAlpha"/>
<feOffset dx="1" dy="2"/>
<feComposite in2="hardAlpha" operator="out"/>
<feColorMatrix type="matrix" values="0 0 0 0 0 0 0 0 0 0 0 0 0 0 0 0 0 0 1 0"/>
<feBlend mode="normal" in2="BackgroundImageFix" result="effect1_dropShadow_709_10682"/>
<feBlend mode="normal" in="SourceGraphic" in2="effect1_dropShadow_709_10682" result="shape"/>
</filter>
</defs>
</svg>
