<svg width="90" height="24" viewBox="0 0 90 24" fill="none" xmlns="http://www.w3.org/2000/svg">
<g filter="url(#filter0_d_709_10681)">
<path d="M0 0H87.8049V17.8182C87.8049 20.0273 86.014 21.8182 83.8049 21.8182H4C1.79086 21.8182 0 20.0273 0 17.8182V0Z" fill="#96A3A5"/>
<path d="M0.5 0.5H87.3049V17.8182C87.3049 19.7512 85.7379 21.3182 83.8049 21.3182H4C2.067 21.3182 0.5 19.7512 0.5 17.8182V0.5Z" stroke="black"/>
</g>
<path d="M27.3943 6.81836C28.2877 6.81836 28.9777 7.03169 29.4643 7.45836C29.951 7.87836 30.1943 8.47503 30.1943 9.24836C30.1943 10.0617 29.9476 10.695 29.4543 11.1484C28.9676 11.595 28.281 11.8184 27.3943 11.8184H26.0043V13.8184H24.4243V6.81836H27.3943ZM27.3143 10.4984C27.761 10.4984 28.101 10.3984 28.3343 10.1984C28.5743 9.99169 28.6943 9.69169 28.6943 9.29836C28.6943 8.91169 28.5743 8.62169 28.3343 8.42836C28.101 8.22836 27.761 8.12836 27.3143 8.12836H26.0043V10.4984H27.3143Z" fill="black"/>
<path d="M39.6017 8.38836C40.1683 8.38836 40.6683 8.50169 41.1017 8.72836C41.5417 8.95503 41.8817 9.27503 42.1217 9.68836C42.3617 10.1017 42.4817 10.5817 42.4817 11.1284C42.4817 11.6684 42.3617 12.1484 42.1217 12.5684C41.8817 12.9817 41.5417 13.305 41.1017 13.5384C40.6683 13.765 40.1683 13.8784 39.6017 13.8784C39.0283 13.8784 38.5217 13.765 38.0817 13.5384C37.6483 13.305 37.3117 12.9817 37.0717 12.5684C36.8317 12.1484 36.7117 11.6684 36.7117 11.1284C36.7117 10.5817 36.8317 10.1017 37.0717 9.68836C37.3117 9.27503 37.6483 8.95503 38.0817 8.72836C38.5217 8.50169 39.0283 8.38836 39.6017 8.38836ZM39.6017 9.66836C39.2017 9.66836 38.875 9.80503 38.6217 10.0784C38.375 10.3517 38.2517 10.7084 38.2517 11.1484C38.2517 11.5884 38.375 11.945 38.6217 12.2184C38.875 12.4917 39.2017 12.6284 39.6017 12.6284C39.995 12.6284 40.315 12.4917 40.5617 12.2184C40.815 11.945 40.9417 11.5884 40.9417 11.1484C40.9417 10.7084 40.815 10.3517 40.5617 10.0784C40.315 9.80503 39.995 9.66836 39.6017 9.66836Z" fill="black"/>
<path d="M51.9298 8.38836C52.4965 8.38836 52.9965 8.50169 53.4298 8.72836C53.8698 8.95503 54.2098 9.27503 54.4498 9.68836C54.6898 10.1017 54.8098 10.5817 54.8098 11.1284C54.8098 11.6684 54.6898 12.1484 54.4498 12.5684C54.2098 12.9817 53.8698 13.305 53.4298 13.5384C52.9965 13.765 52.4965 13.8784 51.9298 13.8784C51.3565 13.8784 50.8498 13.765 50.4098 13.5384C49.9765 13.305 49.6398 12.9817 49.3998 12.5684C49.1598 12.1484 49.0398 11.6684 49.0398 11.1284C49.0398 10.5817 49.1598 10.1017 49.3998 9.68836C49.6398 9.27503 49.9765 8.95503 50.4098 8.72836C50.8498 8.50169 51.3565 8.38836 51.9298 8.38836ZM51.9298 9.66836C51.5298 9.66836 51.2031 9.80503 50.9498 10.0784C50.7031 10.3517 50.5798 10.7084 50.5798 11.1484C50.5798 11.5884 50.7031 11.945 50.9498 12.2184C51.2031 12.4917 51.5298 12.6284 51.9298 12.6284C52.3231 12.6284 52.6431 12.4917 52.8898 12.2184C53.1431 11.945 53.2698 11.5884 53.2698 11.1484C53.2698 10.7084 53.1431 10.3517 52.8898 10.0784C52.6431 9.80503 52.3231 9.66836 51.9298 9.66836Z" fill="black"/>
<path d="M63.3679 9.40836C63.5546 9.07503 63.7979 8.82169 64.0979 8.64836C64.3979 8.47503 64.7479 8.38503 65.1479 8.37836V9.82836C65.0946 9.82169 65.0146 9.81836 64.9079 9.81836C64.4346 9.81836 64.0579 9.94836 63.7779 10.2084C63.5046 10.4617 63.3679 10.8017 63.3679 11.2284V13.8184H61.8279V8.43836H63.3679V9.40836Z" fill="black"/>
<defs>
<filter id="filter0_d_709_10681" x="0" y="0" width="88.8049" height="23.8184" filterUnits="userSpaceOnUse" color-interpolation-filters="sRGB">
<feFlood flood-opacity="0" result="BackgroundImageFix"/>
<feColorMatrix in="SourceAlpha" type="matrix" values="0 0 0 0 0 0 0 0 0 0 0 0 0 0 0 0 0 0 127 0" result="hardAlpha"/>
<feOffset dx="1" dy="2"/>
<feComposite in2="hardAlpha" operator="out"/>
<feColorMatrix type="matrix" values="0 0 0 0 0 0 0 0 0 0 0 0 0 0 0 0 0 0 1 0"/>
<feBlend mode="normal" in2="BackgroundImageFix" result="effect1_dropShadow_709_10681"/>
<feBlend mode="normal" in="SourceGraphic" in2="effect1_dropShadow_709_10681" result="shape"/>
</filter>
</defs>
</svg>
