<svg width="25" height="24" viewBox="0 0 25 24" fill="none" xmlns="http://www.w3.org/2000/svg">
<g clip-path="url(#clip0_3269_8088)">
<path d="M0.5 12C0.5 5.37258 5.87258 0 12.5 0C19.1274 0 24.5 5.37258 24.5 12C24.5 18.6274 19.1274 24 12.5 24C5.87258 24 0.5 18.6274 0.5 12Z" fill="#363841"/>
<path fill-rule="evenodd" clip-rule="evenodd" d="M19.7174 9.41108L12.0769 16.4452L6.62085 11.8218L8.34484 9.78734L12.0037 12.8879L17.9113 7.44922L19.7174 9.41108Z" fill="#8A8A8A"/>
</g>
<defs>
<clipPath id="clip0_3269_8088">
<path d="M0.5 12C0.5 5.37258 5.87258 0 12.5 0C19.1274 0 24.5 5.37258 24.5 12C24.5 18.6274 19.1274 24 12.5 24C5.87258 24 0.5 18.6274 0.5 12Z" fill="white"/>
</clipPath>
</defs>
</svg>
