<svg width="63" height="64" viewBox="0 0 63 64" fill="none" xmlns="http://www.w3.org/2000/svg">
<path fill-rule="evenodd" clip-rule="evenodd" d="M31.7318 0.878906C14.4819 0.878906 0.498047 14.8627 0.498047 32.1127C0.498047 49.3626 14.4819 63.3464 31.7318 63.3464C48.9817 63.3464 62.9656 49.3626 62.9656 32.1127C62.9656 14.8627 48.9817 0.878906 31.7318 0.878906ZM31.7306 17.7256C33.3652 17.7256 34.6772 19.0754 34.6307 20.7094L34.2681 33.4527C34.2291 34.826 33.1045 35.9191 31.7306 35.9191C30.3567 35.9191 29.2321 34.826 29.193 33.4527L28.8304 20.7094C28.7839 19.0754 30.0959 17.7256 31.7306 17.7256ZM31.7133 45.836C30.0051 45.836 28.573 44.3711 28.6075 42.5445C28.573 40.7722 30.0051 39.3254 31.7133 39.3254C33.3698 39.3254 34.8364 40.7722 34.8536 42.5445C34.8364 44.3711 33.3698 45.836 31.7133 45.836Z" fill="#0EE6F3"/>
</svg>
