<svg width="18" height="18" viewBox="0 0 18 18" fill="none" xmlns="http://www.w3.org/2000/svg">
<circle cx="9" cy="9" r="9" fill="#EEF4F4"/>
<path d="M11.4328 7.22875C11.1448 6.88475 10.8048 6.61675 10.4128 6.42475C10.0288 6.22475 9.64078 6.12475 9.24878 6.12475C8.77678 6.12475 8.34478 6.24075 7.95278 6.47275C7.56078 6.70475 7.25278 7.02075 7.02878 7.42075C6.80478 7.82075 6.69278 8.26475 6.69278 8.75275C6.69278 9.24075 6.80478 9.68875 7.02878 10.0968C7.25278 10.4968 7.56078 10.8168 7.95278 11.0568C8.34478 11.2888 8.77678 11.4048 9.24878 11.4048C9.62478 11.4048 10.0048 11.3168 10.3888 11.1408C10.7808 10.9568 11.1288 10.7128 11.4328 10.4088L12.5488 11.6208C12.1008 12.0848 11.5728 12.4528 10.9648 12.7248C10.3648 12.9968 9.76078 13.1328 9.15278 13.1328C8.32878 13.1328 7.58078 12.9448 6.90878 12.5688C6.23678 12.1848 5.70878 11.6608 5.32478 10.9968C4.94078 10.3328 4.74878 9.59275 4.74878 8.77675C4.74878 7.96875 4.94478 7.23675 5.33678 6.58075C5.72878 5.92475 6.26478 5.40875 6.94478 5.03275C7.63278 4.65675 8.39278 4.46875 9.22478 4.46875C9.83278 4.46875 10.4328 4.59675 11.0248 4.85275C11.6168 5.10075 12.1208 5.44075 12.5368 5.87275L11.4328 7.22875Z" fill="black"/>
</svg>
