<svg width="18" height="18" viewBox="0 0 18 18" fill="none" xmlns="http://www.w3.org/2000/svg">
<g id="ic-filter-24">
<path id="vector" fill-rule="evenodd" clip-rule="evenodd" d="M8.87197 3H15.75H16.5V4.5H15.75H8.87197C8.56309 5.37389 7.72966 6 6.75 6C5.77034 6 4.93691 5.37389 4.62803 4.5H2.25H1.5V3H2.25H4.62803C4.93691 2.12611 5.77034 1.5 6.75 1.5C7.72966 1.5 8.56309 2.12611 8.87197 3ZM2.25 13.5H1.5L1.5 15H2.25H4.62803C4.93691 15.8739 5.77034 16.5 6.75 16.5C7.72966 16.5 8.56309 15.8739 8.87197 15L15.75 15H16.5V13.5H15.75L8.87197 13.5C8.56309 12.6261 7.72966 12 6.75 12C5.77034 12 4.93691 12.6261 4.62803 13.5H2.25ZM1.5 8.25H2.25L9.12803 8.25C9.43691 7.37611 10.2703 6.75 11.25 6.75C12.2297 6.75 13.0631 7.37611 13.372 8.25L15.75 8.25H16.5V9.75H15.75L13.372 9.75C13.0631 10.6239 12.2297 11.25 11.25 11.25C10.2703 11.25 9.43691 10.6239 9.12803 9.75L2.25 9.75H1.5L1.5 8.25Z" fill="#0EE6F3"/>
</g>
</svg>
