<svg width="22" height="22" viewBox="0 0 22 22" fill="none" xmlns="http://www.w3.org/2000/svg">
<path d="M8.73911 0.889257C10.2297 0.592311 11.7689 0.591596 13.2598 0.887157C13.3591 1.50997 13.6049 2.10352 13.9789 2.62367C14.3529 3.14382 14.8455 3.57721 15.4201 3.89161C15.9942 4.2071 16.6359 4.39557 17.2972 4.443C17.9586 4.49044 18.6227 4.39562 19.2402 4.1656C20.2549 5.24483 21.0236 6.51188 21.4978 7.88705C20.9799 8.28027 20.562 8.7793 20.275 9.34706C19.988 9.91482 19.8394 10.5367 19.8402 11.1665C19.8402 12.4935 20.4878 13.6765 21.5 14.446C21.023 15.8201 20.2534 17.0861 19.2391 18.1654C18.6218 17.9355 17.9579 17.8408 17.2967 17.8882C16.6355 17.9357 15.9941 18.124 15.4201 18.4394C14.846 18.7537 14.3538 19.1868 13.98 19.7065C13.6062 20.2263 13.3604 20.8194 13.2609 21.4417C11.7704 21.7394 10.2313 21.7408 8.74021 21.4459C8.64136 20.8225 8.39578 20.2284 8.02175 19.7076C7.64771 19.1869 7.15486 18.753 6.57988 18.4383C6.00566 18.123 5.36401 17.9347 4.70264 17.8875C4.04127 17.8402 3.37719 17.9352 2.75979 18.1654C1.74493 17.0858 0.976274 15.8184 0.50221 14.4429C1.0198 14.0499 1.43757 13.5512 1.72452 12.9838C2.01147 12.4164 2.16023 11.795 2.15976 11.1655C2.1603 10.5355 2.01136 9.9135 1.72401 9.34572C1.43666 8.77795 1.01829 8.27901 0.5 7.886C0.977007 6.51197 1.7466 5.24592 2.76089 4.16665C3.37822 4.39651 4.04214 4.49124 4.70331 4.4438C5.36448 4.39637 6.00589 4.20799 6.57988 3.89266C7.15399 3.57835 7.64622 3.14525 8.02002 2.62548C8.39382 2.10572 8.6396 1.51266 8.73911 0.890306V0.889257ZM11 14.3159C11.8792 14.3159 12.7224 13.9841 13.3441 13.3934C13.9658 12.8028 14.3151 12.0018 14.3151 11.1665C14.3151 10.3313 13.9658 9.53024 13.3441 8.93963C12.7224 8.34902 11.8792 8.01722 11 8.01722C10.1208 8.01722 9.27758 8.34902 8.65588 8.93963C8.03417 9.53024 7.68491 10.3313 7.68491 11.1665C7.68491 12.0018 8.03417 12.8028 8.65588 13.3934C9.27758 13.9841 10.1208 14.3159 11 14.3159Z" fill="#C9C5C6"/>
</svg>
