<svg width="24" height="25" viewBox="0 0 24 25" fill="none" xmlns="http://www.w3.org/2000/svg">
<path fill-rule="evenodd" clip-rule="evenodd" d="M18.7136 15.8908L21.8521 17.5806L21.8653 17.5936C22.832 18.1136 23.4544 19.0365 23.6398 20.0764H14.6614C14.1979 20.0764 13.7609 19.8945 13.4563 19.5565L2.08105 7.19441L7.65614 1.56583C7.65614 1.56583 8.01368 1.11087 8.71554 0.863886C9.21875 0.720896 10.053 0.79889 10.5827 1.29285C10.8343 1.52684 10.8343 2.38477 10.8343 2.38477V4.11364C10.8343 4.82859 11.417 5.41354 12.1453 5.41354H15.9989C16.7272 5.41354 17.3231 5.9985 17.3231 6.71345V9.24825H14.7409C14.3701 9.24825 14.0787 9.53423 14.0787 9.8982C14.0787 10.2622 14.3701 10.5482 14.7409 10.5482H17.3231V11.8481H14.7409C14.3701 11.8481 14.0787 12.134 14.0787 12.498C14.0787 12.862 14.3701 13.148 14.7409 13.148H17.3231V13.5769C17.3231 14.5389 17.8528 15.4228 18.7136 15.8908ZM12.4637 20.4274C13.0198 21.0254 13.8144 21.3763 14.6487 21.3763H23.6138C23.2695 22.9492 21.8526 24.1321 20.1443 24.1321H13.3377C12.5828 24.1321 11.8545 23.8072 11.3513 23.2612L0.995669 12.043C0.0819382 11.0551 0.0686956 9.56023 0.955942 8.5463C0.955942 8.5463 1.06188 8.41631 1.23403 8.20833L12.4637 20.4274Z" fill="#0EE6F3"/>
</svg>
