<svg width="22" height="22" viewBox="0 0 22 22" fill="none" xmlns="http://www.w3.org/2000/svg">
<circle cx="11" cy="11" r="11" fill="#0EE6F3"/>
<path d="M10.7592 18.1972C9.83514 18.1972 8.98179 17.9631 8.22005 17.4999C5.5425 15.872 4.959 11.8979 6.92061 8.64117C8.2768 6.38898 10.5282 4.99023 12.7945 4.99023C13.7185 4.99023 14.5719 5.22436 15.3336 5.6876C18.0112 7.31547 18.5947 11.2896 16.6331 14.5463C15.2769 16.7985 13.0265 18.1982 10.7592 18.1982V18.1972Z" fill="#13B7AE"/>
<path d="M12.7944 4.69043V5.29075C13.6627 5.29075 14.4643 5.51086 15.1782 5.94409C17.7154 7.48591 18.2531 11.2749 16.3771 14.3906C15.7269 15.4711 14.8446 16.3696 13.826 16.9889C12.8482 17.5833 11.7877 17.8974 10.7591 17.8974C9.89083 17.8974 9.08827 17.6773 8.37532 17.2441C7.1645 16.5077 6.36691 15.237 6.12893 13.6652C5.88497 12.0523 6.25738 10.3244 7.17645 8.7976C7.82666 7.71703 8.70889 6.81856 9.72753 6.19923C10.7053 5.60491 11.7658 5.29075 12.7944 5.29075V4.69043ZM12.7944 4.69043C10.5152 4.69043 8.11443 6.08017 6.66464 8.48744C4.6154 11.8912 5.24172 16.0424 8.06564 17.7583C8.89211 18.2606 9.81516 18.4987 10.7591 18.4987C13.0384 18.4987 15.4391 17.109 16.8889 14.7017C18.9381 11.2979 18.3118 7.14673 15.4879 5.43082C14.6614 4.92856 13.7384 4.69043 12.7944 4.69043Z" fill="black"/>
<path d="M8.79943 17.0078C7.87539 17.0078 7.02204 16.7737 6.2603 16.3104C3.58275 14.6826 3.00024 10.7085 4.96086 7.45174C6.31705 5.19955 8.56842 3.7998 10.8347 3.7998C11.7588 3.7998 12.6121 4.03393 13.3739 4.49717C16.0514 6.12504 16.6349 10.0991 14.6733 13.3559C13.3171 15.6081 11.0667 17.0078 8.79943 17.0078Z" fill="#76FFFB"/>
<path d="M10.8347 3.5V4.10032C11.703 4.10032 12.5046 4.32043 13.2185 4.75366C14.4294 5.49005 15.227 6.76073 15.4649 8.33256C15.7089 9.94541 15.3365 11.6733 14.4174 13.2001C13.7672 14.2807 12.885 15.1792 11.8663 15.7985C10.8885 16.3928 9.82805 16.707 8.79945 16.707C7.93116 16.707 7.1286 16.4869 6.41565 16.0536C3.8785 14.5118 3.3408 10.7228 5.21678 7.60717C5.867 6.5266 6.74922 5.62813 7.76786 5.0088C8.74568 4.41448 9.80614 4.10032 10.8347 4.10032V3.5ZM10.8347 3.5C8.55549 3.5 6.15476 4.88974 4.70596 7.29701C2.65573 10.7008 3.28305 14.851 6.10597 16.5679C6.93244 17.0702 7.85549 17.3083 8.79945 17.3083C11.0787 17.3083 13.4794 15.9186 14.9292 13.5113C16.9785 10.1075 16.3521 5.9563 13.5282 4.24039C12.7018 3.73813 11.7787 3.5 10.8347 3.5Z" fill="black"/>
<path d="M6.13636 16.1107L5.93021 16.4531L8.38053 17.9425L8.58668 17.6L6.13636 16.1107Z" fill="black"/>
<path d="M13.5018 4.24025L13.1926 4.75391L15.6429 6.24325L15.9521 5.7296L13.5018 4.24025Z" fill="black"/>
<path d="M15.5413 6.57228L15.2321 7.08594L17.1372 8.24386L17.4464 7.7302L15.5413 6.57228Z" fill="black"/>
<path d="M15.94 8.57424L15.6307 9.08789L17.5358 10.2458L17.845 9.73216L15.94 8.57424Z" fill="black"/>
<path d="M15.9394 10.7754L15.6301 11.2891L17.5352 12.447L17.8444 11.9333L15.9394 10.7754Z" fill="black"/>
<path d="M14.8442 13.1758L14.535 13.6895L16.4401 14.8474L16.7493 14.3337L14.8442 13.1758Z" fill="black"/>
<path d="M13.052 15.0781L12.7428 15.5918L14.6478 16.7497L14.9571 16.2361L13.052 15.0781Z" fill="black"/>
<path d="M11.2602 16.1778L10.951 16.6914L12.856 17.8493L13.1652 17.3357L11.2602 16.1778Z" fill="black"/>
<path d="M9.46749 16.7783L9.15826 17.292L11.0633 18.4499L11.3725 17.9363L9.46749 16.7783Z" fill="black"/>
<path d="M8.34446 10.1504L9.15798 10.1574L8.85428 11.7232C8.63223 11.8753 8.37234 11.9973 8.07461 12.0904C7.77689 12.1834 7.50306 12.2285 7.25213 12.2265C6.88869 12.2235 6.57702 12.1314 6.31813 11.9513C6.05924 11.7712 5.87602 11.5251 5.76848 11.2129C5.65994 10.9008 5.64401 10.5526 5.71869 10.1664C5.79337 9.78016 5.94572 9.43998 6.17872 9.13282C6.41173 8.82566 6.6975 8.58553 7.03506 8.41244C7.37262 8.23935 7.7281 8.1543 8.10249 8.1573C8.37035 8.1593 8.62725 8.21533 8.87419 8.32439C9.12114 8.43345 9.32028 8.57853 9.46965 8.75962L8.79553 9.474C8.69098 9.33793 8.56153 9.22987 8.40719 9.14983C8.25285 9.06979 8.09254 9.02876 7.92824 9.02776C7.73606 9.02576 7.55285 9.07479 7.37959 9.17484C7.20533 9.27489 7.05697 9.41197 6.9335 9.58706C6.81002 9.76215 6.72738 9.95826 6.68556 10.1754C6.64373 10.3925 6.64871 10.5956 6.70348 10.7747C6.75824 10.9538 6.85483 11.0939 6.99324 11.1959C7.13165 11.298 7.29594 11.351 7.48812 11.352C7.66935 11.354 7.88941 11.292 8.1473 11.1669L8.34446 10.1514V10.1504Z" fill="black"/>
<path d="M12.8273 8.46365C13.0891 8.64175 13.2763 8.88588 13.3869 9.19404C13.4974 9.5022 13.5153 9.84739 13.4416 10.2296C13.368 10.6118 13.2146 10.963 12.9846 11.2711C12.7546 11.5803 12.4738 11.8234 12.1422 12.0005C11.8106 12.1776 11.4611 12.2647 11.0947 12.2607C10.7282 12.2567 10.4136 12.1656 10.1507 11.9855C9.88784 11.8054 9.70263 11.5583 9.5931 11.2441C9.48357 10.93 9.46664 10.5808 9.54132 10.1946C9.61501 9.81337 9.76636 9.46918 9.99637 9.16402C10.2254 8.85886 10.5052 8.61973 10.8358 8.44564C11.1664 8.27155 11.5149 8.18751 11.8823 8.19051C12.2497 8.19351 12.5644 8.28456 12.8273 8.46265V8.46365ZM11.1992 9.20805C11.027 9.3081 10.8786 9.44617 10.7551 9.62327C10.6317 9.80036 10.549 9.99546 10.5082 10.2086C10.4674 10.4217 10.4733 10.6238 10.5291 10.8019C10.5849 10.98 10.6795 11.1221 10.8109 11.2261C10.9413 11.3302 11.0967 11.3832 11.2749 11.3852C11.4531 11.3872 11.6274 11.3372 11.7967 11.2351C11.9659 11.1331 12.1103 10.994 12.2308 10.8169C12.3503 10.6398 12.432 10.4427 12.4738 10.2256C12.5156 10.0085 12.5096 9.81637 12.4588 9.63827C12.4071 9.46018 12.3164 9.31911 12.187 9.21705C12.0576 9.115 11.9032 9.06297 11.725 9.06097C11.5467 9.05897 11.3715 9.10799 11.1992 9.20805Z" fill="black"/>
</svg>
