<svg width="18" height="18" viewBox="0 0 18 18" fill="none" xmlns="http://www.w3.org/2000/svg">
<circle cx="9" cy="9" r="9" fill="#96A3A5"/>
<path d="M9.8306 4.59961C10.9026 4.59961 11.7306 4.85561 12.3146 5.36761C12.8986 5.87161 13.1906 6.58761 13.1906 7.51561C13.1906 8.49161 12.8946 9.25161 12.3026 9.79561C11.7186 10.3316 10.8946 10.5996 9.8306 10.5996H8.1626V12.9996H6.2666V4.59961H9.8306ZM9.7346 9.01561C10.2706 9.01561 10.6786 8.89561 10.9586 8.65561C11.2466 8.40761 11.3906 8.04761 11.3906 7.57561C11.3906 7.11161 11.2466 6.76361 10.9586 6.53161C10.6786 6.29161 10.2706 6.17161 9.7346 6.17161H8.1626V9.01561H9.7346Z" fill="black"/>
</svg>
