<svg width="30" height="30" viewBox="0 0 30 30" fill="none" xmlns="http://www.w3.org/2000/svg">
<g clip-path="url(#clip0_3647_18640)">
<path fill-rule="evenodd" clip-rule="evenodd" d="M11.489 2.76671C11.509 2.33675 11.8735 2 12.3188 2L12.3184 1.9996H17.2876C17.6974 1.9996 18.0509 2.29542 18.1096 2.68748C18.2364 3.53504 18.6088 4.4146 19.131 5.10047C19.5312 5.62606 20.2124 6.29409 21.1854 6.49185C21.4089 6.53703 21.6439 6.56013 21.8837 6.56013C22.7831 6.56013 23.6609 6.23736 24.2431 5.99442C24.3475 5.95086 24.4582 5.92877 24.5719 5.92877C24.8664 5.92877 25.1415 6.08155 25.2897 6.32753C26.0264 7.54931 26.908 8.98669 27.8625 10.3819C28.0445 10.6482 28.0462 10.993 27.8669 11.2607C27.6465 11.5902 27.3809 11.9204 27.0978 12.2722L27.0939 12.277C26.314 13.2457 25.4304 14.3435 25.4589 15.5544C25.4836 16.6031 26.3195 17.2549 27.2044 17.9449C27.3711 18.0747 27.5434 18.2091 27.7086 18.3454C28.0034 18.5884 28.0848 19.0043 27.9019 19.3346C27.4724 20.1108 27.0088 20.8595 26.5606 21.5835L26.5593 21.5856C26.176 22.2048 25.7796 22.8451 25.413 23.4901C25.2673 23.7468 24.9882 23.9065 24.6849 23.9065C24.5979 23.9065 24.5119 23.8933 24.4287 23.8674C23.7167 23.6443 23.0156 23.531 22.3445 23.531C21.1439 23.531 20.1212 23.9012 19.4646 24.5733C18.8524 25.2 18.5622 26.0911 18.6253 27.151C18.6385 27.3707 18.5564 27.5883 18.4002 27.7481C18.244 27.9082 18.0238 28 17.7962 28H11.9234C11.4654 28 11.0928 27.6399 11.0928 27.1972V27.0335C11.0928 26.9914 11.0962 26.949 11.1031 26.9073C11.2584 25.9643 11.0762 25.1903 10.5613 24.6074C9.95587 23.9217 8.90468 23.5284 7.67739 23.5284C6.93229 23.5284 6.16665 23.6761 5.46327 23.9557C5.36222 23.9959 5.25593 24.0163 5.14712 24.0163C4.84124 24.0163 4.56094 23.8546 4.41586 23.5945C4.06724 22.9695 3.70847 22.3407 3.36113 21.732L3.34413 21.7022L3.33874 21.6928C2.93076 20.9778 2.50896 20.2387 2.09964 19.4993C1.91473 19.166 1.99251 18.7604 2.28875 18.513L2.28925 18.5126C3.23605 17.7215 4.13013 16.9745 4.26428 15.7096C4.46135 13.8491 3.36886 12.5783 2.23298 11.4361C1.97846 11.18 1.92752 10.7995 2.10635 10.4891C2.48086 9.83957 2.85661 9.1714 3.2202 8.52486L3.22609 8.51439L3.23469 8.49899C3.60283 7.84412 3.98356 7.16698 4.36512 6.50522C4.51167 6.25094 4.78987 6.0931 5.09093 6.0931C5.18339 6.0931 5.27459 6.10789 5.36222 6.13706C6.11948 6.38993 7.01825 6.53501 7.82813 6.53501C8.58182 6.53501 9.22062 6.41364 9.67578 6.18407C10.7527 5.64085 11.4136 4.39536 11.489 2.76671ZM11.7029 15C11.7029 16.7577 13.1826 18.1876 15.0011 18.1876C16.8198 18.1876 18.2993 16.7577 18.2993 15C18.2993 13.2423 16.8198 11.8124 15.0011 11.8124C13.1824 11.8124 11.7029 13.2423 11.7029 15ZM6.42145 15C6.42145 19.6043 10.2789 23.3084 15.0012 23.3084C19.7236 23.3084 23.5808 19.6042 23.5808 15C23.5808 10.3957 19.7236 6.69159 15.0012 6.69159C10.2789 6.69159 6.42145 10.3957 6.42145 15ZM15.0012 21.9125C11.0254 21.9125 7.83165 18.802 7.83165 15C7.83165 11.198 11.0254 8.0875 15.0012 8.0875C18.977 8.0875 22.1708 11.1982 22.1708 15C22.1708 18.8018 18.977 21.9125 15.0012 21.9125Z" fill="#BFBFBF"/>
</g>
<defs>
<clipPath id="clip0_3647_18640">
<rect width="26" height="26" fill="white" transform="matrix(1 0 0 -1 2 28)"/>
</clipPath>
</defs>
</svg>
