<svg width="54" height="54" viewBox="0 0 54 54" fill="none" xmlns="http://www.w3.org/2000/svg">
<circle cx="27" cy="27" r="22.5" fill="#FFB6CE"/>
<path d="M26.4289 39.9572C24.7662 39.9572 23.2308 39.5358 21.8601 38.702C17.0422 35.772 15.9923 28.6189 19.5219 22.757C21.9622 18.7032 26.0133 16.1855 30.0912 16.1855C31.7539 16.1855 33.2894 16.607 34.66 17.4408C39.4779 20.3708 40.5278 27.5239 36.9982 33.3858C34.5579 37.4396 30.5086 39.959 26.4289 39.959V39.9572Z" fill="#EF6A9D"/>
<path d="M30.0914 15.6465V16.727C31.6537 16.727 33.096 17.1232 34.3807 17.903C38.9459 20.6782 39.9135 27.4981 36.5379 33.1061C35.3679 35.051 33.7805 36.6682 31.9476 37.783C30.1881 38.8527 28.28 39.4182 26.4291 39.4182C24.8668 39.4182 23.4227 39.022 22.1398 38.2422C19.9611 36.9167 18.5259 34.6296 18.0977 31.8004C17.6588 28.8974 18.3289 25.7873 19.9826 23.0391C21.1526 21.0942 22.74 19.477 24.5729 18.3622C26.3324 17.2925 28.2405 16.727 30.0914 16.727V15.6465ZM30.0914 15.6465C25.9902 15.6465 21.6704 18.1479 19.0617 22.4808C15.3743 28.6075 16.5013 36.0793 21.5826 39.1679C23.0697 40.0719 24.7306 40.5005 26.4291 40.5005C30.5303 40.5005 34.8501 37.9991 37.4588 33.6661C41.1462 27.5395 40.0192 20.0677 34.9379 16.9791C33.4508 16.0751 31.7899 15.6465 30.0914 15.6465Z" fill="#971A4A"/>
<path d="M22.9038 37.8145C21.2411 37.8145 19.7056 37.3931 18.3349 36.5593C13.517 33.6293 12.4689 26.4761 15.9968 20.6142C18.4371 16.5605 22.4881 14.041 26.566 14.041C28.2287 14.041 29.7642 14.4624 31.1348 15.2962C35.9527 18.2263 37.0027 25.3794 33.473 31.2413C31.0327 35.2951 26.9835 37.8145 22.9038 37.8145Z" fill="#FF8FB4"/>
<path d="M26.566 13.502V14.5825C28.1284 14.5825 29.5707 14.9787 30.8554 15.7585C33.0341 17.0839 34.4692 19.371 34.8975 22.2002C35.3364 25.1033 34.6663 28.2134 33.0126 30.9615C31.8426 32.9065 30.2552 34.5237 28.4222 35.6384C26.6628 36.7082 24.7546 37.2736 22.9038 37.2736C21.3414 37.2736 19.8973 36.8775 18.6145 36.0977C14.0492 33.3225 13.0817 26.5025 16.4573 20.8946C17.6273 18.9496 19.2147 17.3324 21.0476 16.2177C22.8071 15.148 24.7152 14.5825 26.566 14.5825V13.502ZM26.566 13.502C22.4648 13.502 18.1451 16.0034 15.5381 20.3363C11.849 26.4629 12.9778 33.933 18.0573 37.0233C19.5444 37.9274 21.2053 38.356 22.9038 38.356C27.005 38.356 31.3248 35.8545 33.9335 31.5216C37.6208 25.395 36.4939 17.9231 31.4126 14.8346C29.9255 13.9306 28.2646 13.502 26.566 13.502Z" fill="#971A4A"/>
<path d="M18.1121 36.204L17.7412 36.8203L22.1502 39.501L22.5212 38.8847L18.1121 36.204Z" fill="#971A4A"/>
<path d="M31.364 14.8333L30.8076 15.7578L35.2166 18.4385L35.7731 17.514L31.364 14.8333Z" fill="#971A4A"/>
<path d="M35.0359 19.0344L34.4795 19.959L37.9074 22.0432L38.4638 21.1186L35.0359 19.0344Z" fill="#971A4A"/>
<path d="M35.7522 22.636L35.1958 23.5605L38.6237 25.6447L39.1801 24.7202L35.7522 22.636Z" fill="#971A4A"/>
<path d="M35.7498 26.5969L35.1934 27.5215L38.6212 29.6057L39.1777 28.6811L35.7498 26.5969Z" fill="#971A4A"/>
<path d="M33.781 30.9173L33.2246 31.8418L36.6525 33.926L37.2089 33.0014L33.781 30.9173Z" fill="#971A4A"/>
<path d="M30.5554 34.3391L29.999 35.2637L33.4269 37.3478L33.9833 36.4233L30.5554 34.3391Z" fill="#971A4A"/>
<path d="M27.3323 36.3196L26.7759 37.2441L30.2038 39.3283L30.7602 38.4038L27.3323 36.3196Z" fill="#971A4A"/>
<path d="M24.1067 37.4016L23.5503 38.3262L26.9782 40.4103L27.5346 39.4858L24.1067 37.4016Z" fill="#971A4A"/>
<path d="M22.7214 22.6152L22.4043 24.191H20.6914L19.8009 28.65H17.8139L18.7044 24.191H17.0005L17.3176 22.6152H22.7232H22.7214Z" fill="#971A4A"/>
<path d="M25.1808 22.6152L23.9821 28.65H21.9951L23.1938 22.6152H25.1808Z" fill="#971A4A"/>
<path d="M32.1355 22.6152L29.4802 25.1203L30.996 28.65H28.6918L27.8694 26.6276L27.0811 27.3768L26.8249 28.6518H24.8379L26.0365 22.617H28.0235L27.5864 24.8123L29.7704 22.617H32.1355V22.6152Z" fill="#971A4A"/>
</svg>
