<svg width="8" height="8" viewBox="0 0 8 8" fill="none" xmlns="http://www.w3.org/2000/svg">
<path d="M3.34435 1.08982C3.61258 0.524748 4.38758 0.524747 4.65581 1.08982L5.11938 2.06641C5.22589 2.2908 5.43178 2.44633 5.66996 2.48231L6.70653 2.63891C7.3063 2.72953 7.54579 3.49586 7.11179 3.93571L6.36172 4.69588C6.18938 4.87054 6.11073 5.12219 6.15142 5.36882L6.32849 6.4422C6.43094 7.06327 5.80395 7.53689 5.26749 7.24366L4.34036 6.73688C4.12733 6.62044 3.87283 6.62044 3.65981 6.73688L2.73267 7.24366C2.19621 7.53689 1.56922 7.06327 1.67168 6.4422L1.84874 5.36882C1.88943 5.12219 1.81079 4.87054 1.63844 4.69588L0.888373 3.93571C0.45437 3.49586 0.693857 2.72953 1.29363 2.63891L2.33021 2.48231C2.56838 2.44633 2.77427 2.2908 2.88078 2.06641L3.34435 1.08982Z" fill="#FF2222"/>
</svg>
