<svg width="24" height="26" viewBox="0 0 24 26" fill="none" xmlns="http://www.w3.org/2000/svg">
<path d="M6.48 6.64442H22.0646C22.2373 6.64442 22.4077 6.68447 22.5628 6.76152C22.718 6.83856 22.8538 6.95058 22.9601 7.08906C23.0663 7.22753 23.1401 7.38882 23.1759 7.56067C23.2116 7.73251 23.2084 7.91039 23.1664 8.08077L21.4626 17.3252C21.401 17.5751 21.2592 17.7969 21.0596 17.9554C20.8599 18.1139 20.614 18.2 20.3607 18.2H6.25282C5.95156 18.2 5.66263 18.0782 5.44961 17.8615C5.23659 17.6448 5.11691 17.3509 5.11691 17.0444L3.07228 3.17775H0.800476V0.866638H4.20819C4.50945 0.866638 4.79837 0.988384 5.01139 1.20509C5.22442 1.4218 5.34409 2.02219 5.34409 2.02219L6.48 6.64442ZM7.16154 25.1333C6.55902 25.1333 5.98117 24.8898 5.55513 24.4564C5.12908 24.023 4.88973 23.4351 4.88973 22.8222C4.88973 22.2092 5.12908 21.6214 5.55513 21.188C5.98117 20.7546 6.55902 20.5111 7.16154 20.5111C7.76406 20.5111 8.3419 20.7546 8.76795 21.188C9.194 21.6214 9.43335 22.2092 9.43335 22.8222C9.43335 23.4351 9.194 24.023 8.76795 24.4564C8.3419 24.8898 7.76406 25.1333 7.16154 25.1333ZM18.0662 25.1333C17.4637 25.1333 16.8859 24.8898 16.4598 24.4564C16.0338 24.023 15.7944 23.4351 15.7944 22.8222C15.7944 22.2092 16.0338 21.6214 16.4598 21.188C16.8859 20.7546 17.4637 20.5111 18.0662 20.5111C18.6687 20.5111 19.2466 20.7546 19.6726 21.188C20.0987 21.6214 20.338 22.2092 20.338 22.8222C20.338 23.4351 20.0987 24.023 19.6726 24.4564C19.2466 24.8898 18.6687 25.1333 18.0662 25.1333Z" fill="#0EE6F3"/>
</svg>
