<svg width="30" height="30" viewBox="0 0 30 30" fill="none" xmlns="http://www.w3.org/2000/svg">
<path d="M17.416 15.5111C17.416 13.5844 18.9779 12.0225 20.9047 12.0225H28.001C28.5533 12.0225 29.001 12.4702 29.001 13.0225V17.9998C29.001 18.5521 28.5533 18.9998 28.001 18.9998H20.9047C18.9779 18.9998 17.416 17.4379 17.416 15.5111Z" fill="#BFBFBF"/>
<path fill-rule="evenodd" clip-rule="evenodd" d="M4.30469 4.68555C3.20012 4.68555 2.30469 5.58098 2.30469 6.68555V23.3142C2.30469 24.4188 3.20012 25.3142 4.30469 25.3142H24.4821C25.5866 25.3142 26.4821 24.4188 26.4821 23.3142V20.4283H20.7902C18.0919 20.4283 15.9045 18.2409 15.9045 15.5426C15.9045 12.8442 18.0919 10.6568 20.7902 10.6568H26.4821V6.68555C26.4821 5.58098 25.5866 4.68555 24.4821 4.68555H4.30469Z" fill="#BFBFBF"/>
</svg>
