<svg width="14" height="15" viewBox="0 0 14 15" fill="none" xmlns="http://www.w3.org/2000/svg">
<path d="M4.79999 10.8334L7.19999 8.43337L9.59999 10.8334L10.5333 9.90004L8.13332 7.50004L10.5333 5.10004L9.59999 4.16671L7.19999 6.56671L4.79999 4.16671L3.86666 5.10004L6.26666 7.50004L3.86666 9.90004L4.79999 10.8334ZM7.19999 14.1667C6.27777 14.1667 5.4111 13.9916 4.59999 13.6414C3.78888 13.2912 3.08333 12.8163 2.48333 12.2167C1.88333 11.6167 1.40844 10.9112 1.05866 10.1C0.708881 9.28893 0.53377 8.42226 0.533325 7.50004C0.533325 6.57782 0.708436 5.71115 1.05866 4.90004C1.40888 4.08893 1.88377 3.38337 2.48333 2.78337C3.08333 2.18337 3.78888 1.70849 4.59999 1.35871C5.4111 1.00893 6.27777 0.833818 7.19999 0.833374C8.12221 0.833374 8.98888 1.00849 9.79999 1.35871C10.6111 1.70893 11.3167 2.18382 11.9167 2.78337C12.5167 3.38337 12.9918 4.08893 13.342 4.90004C13.6922 5.71115 13.8671 6.57782 13.8667 7.50004C13.8667 8.42226 13.6915 9.28893 13.3413 10.1C12.9911 10.9112 12.5162 11.6167 11.9167 12.2167C11.3167 12.8167 10.6111 13.2918 9.79999 13.642C8.98888 13.9923 8.12221 14.1672 7.19999 14.1667Z" fill="#8A8A8A"/>
</svg>
