<svg width="90" height="24" viewBox="0 0 90 24" fill="none" xmlns="http://www.w3.org/2000/svg">
<g filter="url(#filter0_d_709_10684)">
<path d="M0 0H87.8049V17.8182C87.8049 20.0273 86.014 21.8182 83.8049 21.8182H4C1.79086 21.8182 0 20.0273 0 17.8182V0Z" fill="#3EDCFF"/>
<path d="M0.5 0.5H87.3049V17.8182C87.3049 19.7512 85.7379 21.3182 83.8049 21.3182H4C2.067 21.3182 0.5 19.7512 0.5 17.8182V0.5Z" stroke="black"/>
</g>
<path d="M28.0103 13.9084L26.9903 11.9684H26.9503H25.6303V13.9084H23.8003V6.89844H26.9503C27.877 6.89844 28.5936 7.1151 29.1003 7.54844C29.6136 7.9751 29.8703 8.57844 29.8703 9.35844C29.8703 9.8851 29.7636 10.3418 29.5503 10.7284C29.337 11.1084 29.027 11.4051 28.6203 11.6184L30.0803 13.9084H28.0103ZM25.6303 10.5084H26.9603C27.3336 10.5084 27.6203 10.4151 27.8203 10.2284C28.027 10.0418 28.1303 9.77177 28.1303 9.41844C28.1303 9.07844 28.027 8.81844 27.8203 8.63844C27.6203 8.45177 27.3336 8.35844 26.9603 8.35844H25.6303V10.5084Z" fill="black"/>
<path d="M39.4766 8.42844C40.2233 8.42844 40.8033 8.60177 41.2166 8.94844C41.63 9.28844 41.84 9.76844 41.8466 10.3884V13.9084H40.0966V13.2984C39.7366 13.7584 39.1933 13.9884 38.4666 13.9884C37.8933 13.9884 37.44 13.8351 37.1066 13.5284C36.78 13.2151 36.6166 12.8051 36.6166 12.2984C36.6166 11.7851 36.7933 11.3851 37.1466 11.0984C37.5066 10.8118 38.02 10.6651 38.6866 10.6584H40.0966V10.5984C40.0966 10.3384 40.0066 10.1384 39.8266 9.99844C39.6533 9.85844 39.4 9.78844 39.0666 9.78844C38.84 9.78844 38.5833 9.8251 38.2966 9.89844C38.0166 9.97177 37.7333 10.0784 37.4466 10.2184L36.9566 9.01844C37.3966 8.81844 37.8166 8.67177 38.2166 8.57844C38.6233 8.47844 39.0433 8.42844 39.4766 8.42844ZM39.0166 12.7784C39.2833 12.7784 39.5166 12.7151 39.7166 12.5884C39.9166 12.4551 40.0433 12.2851 40.0966 12.0784V11.6084H39.0366C38.5366 11.6084 38.2866 11.7951 38.2866 12.1684C38.2866 12.3551 38.35 12.5051 38.4766 12.6184C38.61 12.7251 38.79 12.7784 39.0166 12.7784Z" fill="black"/>
<path d="M50.8225 9.39844C51.0091 9.0851 51.2491 8.8451 51.5425 8.67844C51.8425 8.51177 52.1825 8.42844 52.5625 8.42844V10.0584C52.5025 10.0518 52.4125 10.0484 52.2925 10.0484C51.8725 10.0484 51.5325 10.1484 51.2725 10.3484C51.0125 10.5418 50.8625 10.8084 50.8225 11.1484V13.9084H49.0425V8.49844H50.8225V9.39844Z" fill="black"/>
<path d="M61.7194 8.43844C62.5994 8.43844 63.276 8.69844 63.7494 9.21844C64.2227 9.73844 64.4594 10.4518 64.4594 11.3584C64.4594 11.4984 64.456 11.6051 64.4494 11.6784H60.6894C60.776 11.9851 60.926 12.2218 61.1394 12.3884C61.3527 12.5484 61.6127 12.6284 61.9194 12.6284C62.1527 12.6284 62.376 12.5818 62.5894 12.4884C62.8094 12.3951 63.0094 12.2584 63.1894 12.0784L64.1194 13.0084C63.8394 13.3218 63.4994 13.5618 63.0994 13.7284C62.706 13.8884 62.2594 13.9684 61.7594 13.9684C61.1794 13.9684 60.6727 13.8551 60.2394 13.6284C59.806 13.4018 59.4727 13.0818 59.2394 12.6684C59.0127 12.2551 58.8994 11.7751 58.8994 11.2284C58.8994 10.6751 59.016 10.1884 59.2494 9.76844C59.4827 9.34177 59.8127 9.0151 60.2394 8.78844C60.666 8.5551 61.1594 8.43844 61.7194 8.43844ZM62.7294 10.7284C62.7294 10.4151 62.636 10.1651 62.4494 9.97844C62.2694 9.7851 62.0294 9.68844 61.7294 9.68844C61.4494 9.68844 61.2127 9.78177 61.0194 9.96844C60.8327 10.1551 60.7094 10.4084 60.6494 10.7284H62.7294Z" fill="black"/>
<defs>
<filter id="filter0_d_709_10684" x="0" y="0" width="88.8049" height="23.8184" filterUnits="userSpaceOnUse" color-interpolation-filters="sRGB">
<feFlood flood-opacity="0" result="BackgroundImageFix"/>
<feColorMatrix in="SourceAlpha" type="matrix" values="0 0 0 0 0 0 0 0 0 0 0 0 0 0 0 0 0 0 127 0" result="hardAlpha"/>
<feOffset dx="1" dy="2"/>
<feComposite in2="hardAlpha" operator="out"/>
<feColorMatrix type="matrix" values="0 0 0 0 0 0 0 0 0 0 0 0 0 0 0 0 0 0 1 0"/>
<feBlend mode="normal" in2="BackgroundImageFix" result="effect1_dropShadow_709_10684"/>
<feBlend mode="normal" in="SourceGraphic" in2="effect1_dropShadow_709_10684" result="shape"/>
</filter>
</defs>
</svg>
