<svg width="40" height="40" viewBox="0 0 40 40" fill="none" xmlns="http://www.w3.org/2000/svg">
<circle cx="20" cy="20" r="20" fill="#B3FBFF" fill-opacity="0.3"/>
<mask id="path-2-outside-1_3983_38576" maskUnits="userSpaceOnUse" x="7" y="10" width="26" height="24" fill="black">
<rect fill="white" x="7" y="10" width="26" height="24"/>
<path fill-rule="evenodd" clip-rule="evenodd" d="M29.9064 14.1012L20.7501 30.8227H20.7516C20.5922 31.1122 20.288 31.2395 20.0013 31.2014V16.1647C20.0803 16.1632 20.1578 16.1501 20.2339 16.1238L29.0099 13.0439C29.6519 12.8187 30.2325 13.5045 29.9064 14.1012ZM10.9913 13.0527L19.741 16.1238C19.8244 16.153 19.9121 16.1662 19.9999 16.1647V31.2015C19.782 31.1722 19.5743 31.0494 19.4515 30.8286L10.0977 14.1159C9.76283 13.5192 10.3449 12.826 10.9913 13.0527Z"/>
</mask>
<path fill-rule="evenodd" clip-rule="evenodd" d="M29.9064 14.1012L20.7501 30.8227H20.7516C20.5922 31.1122 20.288 31.2395 20.0013 31.2014V16.1647C20.0803 16.1632 20.1578 16.1501 20.2339 16.1238L29.0099 13.0439C29.6519 12.8187 30.2325 13.5045 29.9064 14.1012ZM10.9913 13.0527L19.741 16.1238C19.8244 16.153 19.9121 16.1662 19.9999 16.1647V31.2015C19.782 31.1722 19.5743 31.0494 19.4515 30.8286L10.0977 14.1159C9.76283 13.5192 10.3449 12.826 10.9913 13.0527Z" fill="#0EE6F3"/>
<path d="M20.7501 30.8227L18.9959 29.8621C18.6566 30.4817 18.6694 31.2344 19.0295 31.8422C19.3896 32.45 20.0437 32.8227 20.7501 32.8227V30.8227ZM29.9064 14.1012L31.6606 15.0618L31.6614 15.0604L29.9064 14.1012ZM20.7516 30.8227L22.5036 31.7872C22.8447 31.1676 22.8332 30.414 22.4733 29.8051C22.1135 29.1962 21.4588 28.8227 20.7516 28.8227V30.8227ZM20.0013 31.2014H18.0013C18.0013 32.2044 18.7441 33.0522 19.7383 33.1841L20.0013 31.2014ZM20.0013 16.1647L19.9643 14.165C18.8744 14.1852 18.0013 15.0746 18.0013 16.1647H20.0013ZM20.2339 16.1238L20.8881 18.0137L20.8962 18.0109L20.2339 16.1238ZM29.0099 13.0439L28.3479 11.1566L28.3477 11.1567L29.0099 13.0439ZM19.741 16.1238L19.0786 18.0109L19.0788 18.011L19.741 16.1238ZM10.9913 13.0527L11.6537 11.1656L11.6531 11.1654L10.9913 13.0527ZM19.9999 16.1647H21.9999C21.9999 15.6285 21.7846 15.1148 21.4022 14.7388C21.0199 14.3628 20.5027 14.1561 19.9665 14.165L19.9999 16.1647ZM19.9999 31.2015L19.7338 33.1837C20.3055 33.2604 20.8825 33.0866 21.3167 32.7068C21.7508 32.327 21.9999 31.7783 21.9999 31.2015H19.9999ZM19.4515 30.8286L21.1992 29.8563L21.1967 29.8518L19.4515 30.8286ZM10.0977 14.1159L11.843 13.1391L11.8418 13.137L10.0977 14.1159ZM22.5043 31.7832L31.6606 15.0618L28.1522 13.1406L18.9959 29.8621L22.5043 31.7832ZM20.7516 28.8227H20.7501V32.8227H20.7516V28.8227ZM19.7383 33.1841C20.776 33.3217 21.9153 32.8559 22.5036 31.7872L18.9995 29.8582C19.2691 29.3685 19.8 29.1572 20.2643 29.2188L19.7383 33.1841ZM18.0013 16.1647V31.2014H22.0013V16.1647H18.0013ZM19.5797 14.2338C19.7101 14.1886 19.8415 14.1673 19.9643 14.165L20.0384 18.1644C20.3191 18.1592 20.6055 18.1115 20.8881 18.0137L19.5797 14.2338ZM28.3477 11.1567L19.5716 14.2366L20.8962 18.0109L29.6722 14.931L28.3477 11.1567ZM31.6614 15.0604C32.8627 12.8626 30.7266 10.3222 28.3479 11.1566L29.672 14.9311C28.5773 15.3151 27.6024 14.1465 28.1514 13.142L31.6614 15.0604ZM20.4034 14.2367L11.6537 11.1656L10.3289 14.9398L19.0786 18.0109L20.4034 14.2367ZM19.9665 14.165C20.1003 14.1628 20.2493 14.1826 20.4032 14.2366L19.0788 18.011C19.3995 18.1235 19.724 18.1696 20.0332 18.1645L19.9665 14.165ZM21.9999 31.2015V16.1647H17.9999V31.2015H21.9999ZM17.7037 31.8008C18.1589 32.6191 18.9442 33.0777 19.7338 33.1837L20.2659 29.2193C20.6197 29.2668 20.9897 29.4797 21.1992 29.8563L17.7037 31.8008ZM8.35248 15.0927L17.7062 31.8053L21.1967 29.8518L11.843 13.1391L8.35248 15.0927ZM11.6531 11.1654C9.2701 10.3297 7.11486 12.8876 8.35367 15.0948L11.8418 13.137C12.4108 14.1508 11.4197 15.3223 10.3294 14.94L11.6531 11.1654Z" fill="black" mask="url(#path-2-outside-1_3983_38576)"/>
<path d="M19.741 16.1239L10.9913 13.0528C10.3449 12.8261 9.76283 13.5193 10.0977 14.116L19.4515 30.8287C19.5743 31.0495 19.782 31.1724 19.9999 31.2016V16.1649C19.9121 16.1663 19.8244 16.1532 19.741 16.1239Z" fill="#0EE6F3"/>
<path d="M20.7507 30.8227L29.907 14.1012C30.2331 13.5045 29.6526 12.8187 29.0105 13.0439L20.2345 16.1238C20.1584 16.1501 20.0809 16.1632 20.002 16.1647V31.2014C20.2886 31.2395 20.5928 31.1122 20.7522 30.8227H20.7507Z" fill="#04A0A9"/>
</svg>
