<svg width="44" height="44" viewBox="0 0 44 44" fill="none" xmlns="http://www.w3.org/2000/svg">
<path d="M21.9047 39.5964C19.5832 39.5964 17.4393 39.0241 15.5256 37.8917C8.79868 33.9125 7.33272 24.198 12.2609 16.237C15.6682 10.7317 21.3244 7.3125 27.0181 7.3125C29.3396 7.3125 31.4835 7.88481 33.3973 9.01719C40.1241 12.9964 41.5901 22.7109 36.6619 30.6719C33.2547 36.1772 27.601 39.5988 21.9047 39.5988V39.5964Z" fill="#EF6A9D"/>
<path d="M27.0185 6.57812V8.04557C29.1999 8.04557 31.2137 8.58364 33.0074 9.64265C39.3815 13.4116 40.7324 22.6736 36.0193 30.2897C34.3858 32.9311 32.1693 35.1274 29.6101 36.6413C27.1535 38.0941 24.4893 38.862 21.9051 38.862C19.7237 38.862 17.7074 38.324 15.9162 37.2649C12.8742 35.4649 10.8704 32.3588 10.2725 28.5165C9.65961 24.574 10.5952 20.3501 12.9042 16.6179C14.5378 13.9765 16.7542 11.7802 19.3134 10.2663C21.77 8.81354 24.4343 8.04557 27.0185 8.04557V6.57812ZM27.0185 6.57812C21.2922 6.57812 15.2608 9.97527 11.6184 15.8597C6.47002 24.1802 8.04355 34.3276 15.1382 38.5221C17.2145 39.7498 19.5336 40.3319 21.9051 40.3319C27.6314 40.3319 33.6628 36.9348 37.3052 31.0503C42.4535 22.7299 40.88 12.5824 33.7854 8.38798C31.709 7.16021 29.39 6.57812 27.0185 6.57812Z" fill="#971A4A"/>
<path d="M16.9803 36.6867C14.6588 36.6867 12.5149 36.1144 10.6012 34.982C3.87426 31.0028 2.4108 21.2883 7.33652 13.3274C10.7437 7.82199 16.3999 4.40039 22.0937 4.40039C24.4152 4.40039 26.5591 4.9727 28.4728 6.10508C35.1997 10.0843 36.6657 19.7988 31.7375 27.7597C28.3302 33.2651 22.6765 36.6867 16.9803 36.6867Z" fill="#FF8FB4"/>
<path d="M22.0939 3.66602V5.13347C24.2753 5.13347 26.2891 5.67153 28.0828 6.73054C31.1248 8.53061 33.1286 11.6367 33.7265 15.479C34.3394 19.4215 33.4037 23.6453 31.0947 27.3776C29.4612 30.019 27.2447 32.2153 24.6855 33.7292C22.2289 35.1819 19.5647 35.9499 16.9805 35.9499C14.7991 35.9499 12.7828 35.4118 10.9916 34.3528C4.61743 30.5839 3.26655 21.3219 7.97963 13.7058C9.6132 11.0644 11.8296 8.86813 14.3888 7.35421C16.8454 5.90143 19.5097 5.13347 22.0939 5.13347V3.66602ZM22.0939 3.66602C16.3676 3.66602 10.3362 7.06316 6.69629 12.9476C1.54542 21.2681 3.12145 31.413 10.2136 35.61C12.2899 36.8377 14.609 37.4198 16.9805 37.4198C22.7068 37.4198 28.7382 34.0227 32.3806 28.1382C37.5289 19.8177 35.9554 9.67033 28.8608 5.47587C26.7844 4.2481 24.4654 3.66602 22.0939 3.66602Z" fill="#971A4A"/>
<path d="M10.2894 34.495L9.77148 35.332L15.9275 38.9727L16.4454 38.1356L10.2894 34.495Z" fill="#971A4A"/>
<path d="M28.7959 5.47682L28.019 6.73242L34.1751 10.3731L34.952 9.11746L28.7959 5.47682Z" fill="#971A4A"/>
<path d="M33.918 11.1799L33.1411 12.4355L37.9272 15.266L38.7041 14.0104L33.918 11.1799Z" fill="#971A4A"/>
<path d="M34.9209 16.0706L34.144 17.3262L38.9302 20.1567L39.7071 18.9011L34.9209 16.0706Z" fill="#971A4A"/>
<path d="M34.919 21.4514L34.1421 22.707L38.9282 25.5375L39.7051 24.2819L34.919 21.4514Z" fill="#971A4A"/>
<path d="M32.1675 27.3186L31.3906 28.5742L36.1768 31.4047L36.9536 30.1491L32.1675 27.3186Z" fill="#971A4A"/>
<path d="M27.6646 31.9671L26.8877 33.2227L31.6738 36.0531L32.4507 34.7975L27.6646 31.9671Z" fill="#971A4A"/>
<path d="M23.1631 34.6565L22.3862 35.9121L27.1724 38.7426L27.9492 37.487L23.1631 34.6565Z" fill="#971A4A"/>
<path d="M18.6587 36.1253L17.8818 37.3809L22.668 40.2113L23.4448 38.9557L18.6587 36.1253Z" fill="#971A4A"/>
<path d="M16.7265 16.041L16.2837 18.181H13.8921L12.6488 24.2367H9.87451L11.1178 18.181H8.73877L9.18156 16.041H16.729H16.7265Z" fill="#971A4A"/>
<path d="M20.1588 16.041L18.4853 24.2367H15.7109L17.3845 16.041H20.1588Z" fill="#971A4A"/>
<path d="M29.8703 16.041L26.1629 19.4431L28.2793 24.2367H25.0622L23.9139 21.4901L22.8132 22.5076L22.4555 24.2392H19.6812L21.3547 16.0435H24.1291L23.5187 19.0248L26.5682 16.0435H29.8703V16.041Z" fill="#971A4A"/>
</svg>
