<svg width="24" height="22" viewBox="0 0 24 22" fill="none" xmlns="http://www.w3.org/2000/svg">
<path d="M0.333313 13.1667C0.333313 12.6144 0.781028 12.1667 1.33331 12.1667H5.86665C6.41893 12.1667 6.86665 12.6144 6.86665 13.1667V20.5C6.86665 21.0523 6.41893 21.5 5.86665 21.5H1.33331C0.781027 21.5 0.333313 21.0523 0.333313 20.5V13.1667ZM8.73331 1.5C8.73331 0.947715 9.18103 0.5 9.73331 0.5H14.2666C14.8189 0.5 15.2666 0.947715 15.2666 1.5V20.5C15.2666 21.0523 14.8189 21.5 14.2666 21.5H9.73331C9.18103 21.5 8.73331 21.0523 8.73331 20.5V1.5ZM17.1333 7.33333C17.1333 6.78105 17.581 6.33333 18.1333 6.33333H22.6666C23.2189 6.33333 23.6666 6.78105 23.6666 7.33333V20.5C23.6666 21.0523 23.2189 21.5 22.6666 21.5H18.1333C17.581 21.5 17.1333 21.0523 17.1333 20.5V7.33333Z" fill="#0EE6F3"/>
</svg>
