<svg width="20" height="20" viewBox="0 0 20 20" fill="none" xmlns="http://www.w3.org/2000/svg">
<path fill-rule="evenodd" clip-rule="evenodd" d="M10 20C15.5228 20 20 15.5228 20 10C20 4.47715 15.5228 0 10 0C4.47715 0 0 4.47715 0 10C0 15.5228 4.47715 20 10 20ZM8.82991 8.49147V15.7143H11.1698V8.49147H8.82991ZM8.96538 7.30544C9.2281 7.56308 9.57293 7.6919 9.99986 7.6919C10.435 7.6919 10.7798 7.56308 11.0343 7.30544C11.2971 7.03891 11.4284 6.70576 11.4284 6.30597C11.4284 5.92395 11.2971 5.61301 11.0343 5.37313C10.7716 5.12438 10.4268 5 9.99986 5C9.57293 5 9.2281 5.12882 8.96538 5.38646C8.70265 5.6441 8.57129 5.96393 8.57129 6.34595C8.57129 6.72797 8.70265 7.0478 8.96538 7.30544Z" fill="#605E5F"/>
</svg>
