<svg width="22" height="22" viewBox="0 0 22 22" fill="none" xmlns="http://www.w3.org/2000/svg">
<path d="M21.2666 20.1705C21.2666 20.4613 21.1464 20.7401 20.9325 20.9456C20.7186 21.1512 20.4284 21.2667 20.1259 21.2667H1.87402C1.57147 21.2667 1.28132 21.1512 1.06739 20.9456C0.853461 20.7401 0.733277 20.4613 0.733277 20.1705V8.6503C0.733156 8.48326 0.772766 8.31841 0.84908 8.16833C0.925394 8.01825 1.03639 7.88692 1.1736 7.78436L10.2995 0.964284C10.4998 0.814603 10.7462 0.733337 10.9999 0.733337C11.2536 0.733337 11.5001 0.814603 11.7004 0.964284L20.8263 7.78436C20.9635 7.88692 21.0745 8.01825 21.1508 8.16833C21.2271 8.31841 21.2667 8.48326 21.2666 8.6503V20.1705ZM9.8592 14.6899V21.2667H12.1407V14.6899H9.8592Z" fill="#0EE6F3"/>
</svg>
