<svg width="24" height="24" viewBox="0 0 24 24" fill="none" xmlns="http://www.w3.org/2000/svg">
<path d="M1 12C1 5.92487 5.92487 1 12 1C18.0751 1 23 5.92487 23 12C23 18.0751 18.0751 23 12 23C5.92487 23 1 18.0751 1 12Z" stroke="#363841" stroke-width="2"/>
<circle cx="12" cy="12" r="10" fill="#FF6100"/>
<path d="M8.90021 12.6668L8.91221 12.6733L8.90021 12.6668Z" fill="#C0C0C0"/>
<path d="M8.90021 12.6668L8.91221 12.6733L8.90021 12.6668Z" fill="url(#paint0_linear_4250_35621)"/>
<path d="M13.0426 6.00085L8.02192 10.0609C7.89876 10.1605 7.8495 10.3265 7.89876 10.4764L8.4803 12.2628C8.49743 12.3164 8.52314 12.3667 8.55419 12.4127C8.57668 12.4449 8.60239 12.4749 8.6313 12.5016C8.66879 12.537 8.71163 12.568 8.75768 12.5927L8.89905 12.6666C8.80159 12.6152 8.75447 12.5145 8.76196 12.417C8.76732 12.3506 8.79837 12.2853 8.85621 12.2382L9.88005 11.4103L10.0739 11.254L10.2067 11.1469L13.7773 8.25953L13.0426 6.00085Z" fill="white"/>
<path d="M9.88086 11.4101L10.0747 11.2538L9.88086 11.4101Z" fill="#AEAEAE"/>
<path d="M9.88086 11.4101L10.0747 11.2538L9.88086 11.4101Z" fill="url(#paint1_linear_4250_35621)"/>
<path opacity="0.4" d="M10.3465 11.3962L10.0744 11.2538L9.88058 11.4101L8.85674 12.238C8.79783 12.2851 8.76785 12.3505 8.76249 12.4169C8.755 12.5143 8.80212 12.6161 8.89958 12.6664L8.91029 12.6728L10.8809 13.7052L12.4027 12.4747L10.3454 11.3962H10.3465Z" fill="white"/>
<path d="M16.0981 13.3038L15.7779 11.4136C15.7661 11.3418 15.7404 11.2722 15.704 11.2101C15.6815 11.1715 15.6568 11.1351 15.6247 11.103C15.6183 11.0965 15.6108 11.0912 15.6044 11.0858C15.5829 11.0666 15.5604 11.0484 15.5369 11.0334C15.5198 11.0216 15.5015 11.0098 15.4823 11.0002L15.4534 10.9852C15.4683 10.9959 15.4812 11.0098 15.4919 11.0237C15.5508 11.1008 15.5465 11.2176 15.4662 11.2861L15.3848 11.3557L15.3473 11.3868L15.3045 11.4221L14.1757 12.3507L14.0911 12.4203L13.9251 12.5563L10.0428 15.7478L10.7957 18L15.976 13.7226C16.0981 13.6219 16.1463 13.4559 16.0959 13.306L16.0981 13.3038Z" fill="white"/>
<path opacity="0.4" d="M15.4935 11.0236V11.0289C15.4935 11.0289 15.4935 11.0257 15.4935 11.0236C15.4828 11.0096 15.47 10.9957 15.455 10.985L15.4282 10.9711L15.3832 10.9486L15.3511 10.9325C15.3511 10.9325 15.3446 10.9282 15.3414 10.9272L15.3018 10.9079L15.2279 10.8715L13.9663 10.2439L12.4541 11.4873L13.841 12.1824L13.9267 12.2252L14.0798 12.3023L14.1773 12.3505L15.2461 11.4723L15.3061 11.423L15.3489 11.3877L15.3864 11.3566L15.4678 11.287C15.5481 11.2185 15.5524 11.1017 15.4935 11.0246V11.0236Z" fill="white"/>
<defs>
<linearGradient id="paint0_linear_4250_35621" x1="8.75947" y1="12.6701" x2="8.94494" y2="12.6701" gradientUnits="userSpaceOnUse">
<stop offset="0.31" stop-color="white"/>
<stop offset="0.73" stop-color="#E4E4E4"/>
</linearGradient>
<linearGradient id="paint1_linear_4250_35621" x1="7.87922" y1="11.332" x2="13.7781" y2="11.332" gradientUnits="userSpaceOnUse">
<stop offset="0.31" stop-color="white"/>
<stop offset="0.73" stop-color="#E4E4E4"/>
</linearGradient>
</defs>
</svg>
