<svg width="26" height="26" viewBox="0 0 26 26" fill="none" xmlns="http://www.w3.org/2000/svg">
<path fill-rule="evenodd" clip-rule="evenodd" d="M23.8332 8.98416C23.8332 12.7498 20.7673 15.8027 16.9865 15.8027C16.2975 15.8027 14.7267 15.6445 13.9629 15.0097L13.0074 15.9608C12.4452 16.5209 12.5968 16.6856 12.8471 16.9564C12.9511 17.0702 13.0724 17.2012 13.1667 17.3887C13.1667 17.3887 13.9629 18.498 13.1667 19.6084C12.6889 20.2422 11.351 21.1294 9.8235 19.6084L9.505 19.9247C9.505 19.9247 10.4594 21.0352 9.66425 22.1456C9.1865 22.7793 7.9125 23.4131 6.79775 22.3037L5.68408 23.4131C4.91925 24.1747 3.98541 23.7305 3.61491 23.4131L2.65833 22.4619C1.76675 21.5736 2.28675 20.6116 2.65833 20.2411L10.9372 11.9969C10.9372 11.9969 10.1409 10.7294 10.1409 8.98525C10.1409 5.21958 13.2067 2.16675 16.9876 2.16675C20.7684 2.16675 23.8332 5.21958 23.8332 8.98416ZM16.9876 11.3632C17.6195 11.3643 18.226 11.1145 18.6737 10.6686C19.1215 10.2226 19.3738 9.61716 19.3752 8.98525C19.3747 8.67226 19.3125 8.36246 19.1922 8.07351C19.0719 7.78457 18.8958 7.52216 18.6741 7.30124C18.4524 7.08033 18.1894 6.90526 17.9 6.78601C17.6106 6.66676 17.3006 6.60568 16.9876 6.60625C16.6746 6.60568 16.3646 6.66676 16.0752 6.78601C15.7858 6.90526 15.5228 7.08033 15.301 7.30124C15.0793 7.52216 14.9033 7.78457 14.783 8.07351C14.6627 8.36246 14.6005 8.67226 14.5999 8.98525C14.6013 9.61716 14.8537 10.2226 15.3014 10.6686C15.7492 11.1145 16.3557 11.3643 16.9876 11.3632Z" fill="white"/>
</svg>
