<svg width="78" height="80" viewBox="0 0 78 80" fill="none" xmlns="http://www.w3.org/2000/svg">
<path d="M53.7754 31.4934C53.2524 32.11 52.2144 33.3728 52.2461 33.4914L51.2245 30.2712L48.9989 28.4852L45.9957 29.1311L44.6252 31.7218L43.2491 29.5495L41.8148 28.3456L38.3273 28.9624L36.9965 31.7013L35.1595 24.2527L32.6213 17.1507L30.2185 15.8888L27.8476 16.524L26.4375 18.9665L33.6346 46.4192L33.4176 46.7949L27.2572 43.3635L23.7484 42.7155L21.2797 44.171L20.3935 46.7908L21.5237 49.8231L41.2453 61.2155L44.5912 62.6079L48.3006 63.106L53.5469 62.0324L58.3245 59.4697L61.8856 54.9694L62.9643 49.556L62.657 46.2658L59.6976 34.0358L58.7369 32.2286L57.075 30.7681L55.326 30.7603L53.7754 31.4934Z" fill="white"/>
<path d="M38.3241 36.7075C36.3872 29.479 35.1796 24.9723 33.4513 18.522C32.9467 16.6387 31.0103 15.5191 29.1269 16.0238V16.0238C27.2436 16.5284 26.1259 18.4643 26.6305 20.3476L33.8643 47.3445" stroke="black" stroke-width="3" stroke-linecap="round" stroke-linejoin="round"/>
<path d="M45.2961 35.4488C44.8618 33.828 44.4731 32.3776 44.0778 30.902C43.5731 29.0187 41.6372 27.9009 39.7539 28.4056V28.4056C37.8705 28.9102 36.7528 30.8461 37.2575 32.7295L38.282 36.553" stroke="black" stroke-width="3" stroke-linecap="round" stroke-linejoin="round"/>
<path d="M52.9922 36.8897C52.5185 35.1216 51.9648 33.0553 51.4313 31.0641C50.9266 29.1807 48.9908 28.0631 47.1074 28.5677V28.5677C45.224 29.0723 44.1064 31.0082 44.611 32.8916L45.5247 36.3017" stroke="black" stroke-width="3" stroke-linecap="round" stroke-linejoin="round"/>
<path d="M60.5363 37.7604C60.102 36.1395 59.7134 34.6891 59.318 33.2136C58.8134 31.3302 56.8775 30.2125 54.9941 30.7171V30.7171C53.1108 31.2218 51.9931 33.1576 52.4977 35.041L52.65 35.6093" stroke="black" stroke-width="3" stroke-linecap="round" stroke-linejoin="round"/>
<path d="M33.8262 47.3707C27.9585 43.983 29.2301 44.7171 26.5617 43.1766C24.5949 42.041 22.0772 42.7134 20.9416 44.6803V44.6803C19.8035 46.6516 20.4832 49.1724 22.4581 50.3043L28.7396 53.9044L38.5823 59.5871" stroke="black" stroke-width="3" stroke-linecap="round" stroke-linejoin="round"/>
<path d="M59.9269 35.4863L60.9168 39.1806L62.4627 44.9501C64.4382 52.3228 60.3259 59.9578 53.0828 62.3652V62.3652C49.1727 63.6648 44.8935 63.2295 41.3253 61.1693L35.1363 57.5961" stroke="black" stroke-width="3"/>
</svg>
