<svg width="24" height="26" viewBox="0 0 24 26" fill="none" xmlns="http://www.w3.org/2000/svg">
<path d="M6.4803 6.64448H22.0649C22.2376 6.64448 22.408 6.68453 22.5631 6.76158C22.7183 6.83862 22.8542 6.95064 22.9604 7.08912C23.0666 7.2276 23.1404 7.38889 23.1762 7.56073C23.2119 7.73257 23.2087 7.91045 23.1667 8.08083L21.4629 17.3253C21.4013 17.5752 21.2595 17.797 21.0599 17.9555C20.8602 18.1139 20.6143 18.2 20.361 18.2H6.25312C5.95186 18.2 5.66294 18.0783 5.44992 17.8616C5.23689 17.6449 5.11722 17.3509 5.11722 17.0445L3.07259 3.17781H0.800781V0.866699H4.20849C4.50975 0.866699 4.79868 0.988445 5.0117 1.20515C5.22472 1.42186 5.3444 2.02225 5.3444 2.02225L6.4803 6.64448ZM7.16184 25.1334C6.55932 25.1334 5.98148 24.8899 5.55543 24.4565C5.12939 24.023 4.89004 23.4352 4.89004 22.8223C4.89004 22.2093 5.12939 21.6215 5.55543 21.1881C5.98148 20.7546 6.55932 20.5111 7.16184 20.5111C7.76437 20.5111 8.34221 20.7546 8.76826 21.1881C9.1943 21.6215 9.43365 22.2093 9.43365 22.8223C9.43365 23.4352 9.1943 24.023 8.76826 24.4565C8.34221 24.8899 7.76437 25.1334 7.16184 25.1334ZM18.0665 25.1334C17.464 25.1334 16.8862 24.8899 16.4601 24.4565C16.0341 24.023 15.7947 23.4352 15.7947 22.8223C15.7947 22.2093 16.0341 21.6215 16.4601 21.1881C16.8862 20.7546 17.464 20.5111 18.0665 20.5111C18.669 20.5111 19.2469 20.7546 19.6729 21.1881C20.099 21.6215 20.3383 22.2093 20.3383 22.8223C20.3383 23.4352 20.099 24.023 19.6729 24.4565C19.2469 24.8899 18.669 25.1334 18.0665 25.1334Z" fill="#C9C5C6"/>
</svg>
