<svg width="22" height="22" viewBox="0 0 22 22" fill="none" xmlns="http://www.w3.org/2000/svg">
<circle cx="11" cy="11" r="10.5" fill="#1D1D26" stroke="#0EE6F3"/>
<ellipse cx="11.4003" cy="11.4014" rx="1.79986" ry="1.79986" fill="#ADE2E6"/>
<path fill-rule="evenodd" clip-rule="evenodd" d="M10.4996 6C9.50561 6 8.69978 6.80583 8.69978 7.79986H14.0994C14.0994 6.80583 13.2935 6 12.2995 6H10.4996ZM6 8.80056C6 8.24828 6.44772 7.80056 7 7.80056H15.7992C16.3515 7.80056 16.7992 8.24827 16.7992 8.80056V14C16.7992 14.5523 16.3515 15 15.7992 15H7C6.44772 15 6 14.5523 6 14V8.80056ZM14.0994 11.3985C14.0994 12.8896 12.8906 14.0983 11.3996 14.0983C9.90852 14.0983 8.69978 12.8896 8.69978 11.3985C8.69978 9.90748 9.90852 8.69874 11.3996 8.69874C12.8906 8.69874 14.0994 9.90748 14.0994 11.3985Z" fill="#ADE2E6"/>
</svg>
