<svg width="18" height="18" viewBox="0 0 18 18" fill="none" xmlns="http://www.w3.org/2000/svg">
<path d="M18 9C18 13.9706 13.9706 18 9 18C4.02944 18 0 13.9706 0 9C0 4.02944 4.02944 0 9 0C13.9706 0 18 4.02944 18 9Z" fill="#1CFFBB"/>
<path d="M7.15845 10.35C7.15845 10.95 7.32645 11.426 7.66245 11.778C8.00645 12.122 8.46245 12.294 9.03045 12.294C9.58245 12.294 10.0225 12.122 10.3505 11.778C10.6785 11.434 10.8425 10.958 10.8425 10.35V5.41797H12.7385V10.35C12.7385 11.086 12.5865 11.726 12.2825 12.27C11.9865 12.806 11.5585 13.222 10.9985 13.518C10.4385 13.806 9.77845 13.95 9.01845 13.95C8.25845 13.95 7.59445 13.806 7.02645 13.518C6.45845 13.222 6.02245 12.806 5.71845 12.27C5.41445 11.726 5.26245 11.086 5.26245 10.35V5.41797H7.15845V10.35Z" fill="black"/>
</svg>
