<svg width="99" height="15" viewBox="0 0 99 15" fill="none" xmlns="http://www.w3.org/2000/svg">
<path d="M68.5246 5.9724L65.0264 5.87704L67.0075 0L58.7451 9.27603L61.7906 9.26851L60.1222 15L68.5246 5.9724Z" fill="#0EE6F3"/>
<path d="M0 12.4155C0 11.866 0.16772 11.2035 0.504421 10.4281L3.07823 4.4105C3.38971 3.67022 3.69867 3.06169 4.0051 2.58365C4.31154 2.10686 4.65581 1.72669 5.04043 1.44689C5.42379 1.16583 5.86516 0.972608 6.36327 0.864704C6.86139 0.756799 7.46417 0.704102 8.17162 0.704102H15.9473C16.1276 0.704102 16.2171 0.758054 16.2171 0.864704C16.2171 0.912383 16.1995 0.983901 16.1629 1.07926L14.8855 4.10561C14.7896 4.35655 14.6093 4.48202 14.3457 4.48202H8.04552C7.73277 4.48202 7.49948 4.66771 7.34311 5.0366L5.32669 9.72919C5.26616 9.88478 5.23715 9.9977 5.23715 10.0692C5.23715 10.2248 5.3456 10.3026 5.56124 10.3026H8.69244C8.82485 10.3026 8.92951 10.2725 9.0077 10.2135C9.08588 10.1545 9.15398 10.0579 9.21451 9.92744L9.59283 9.0504H8.20693C8.0266 9.0504 7.93706 8.99645 7.93706 8.88854C7.93706 8.82957 7.95472 8.75805 7.99129 8.67399L9.03544 6.22104C9.13128 5.9701 9.31161 5.84463 9.57517 5.84463H13.3016C13.9132 5.84463 14.3483 5.87725 14.6068 5.94375C14.864 6.00899 14.9939 6.17336 14.9939 6.43685C14.9939 6.57989 14.9548 6.76558 14.8766 6.99143C14.7985 7.21853 14.6875 7.5046 14.5437 7.8509L13.4643 10.4293C13.1641 11.157 12.864 11.7581 12.5639 12.2286C12.2637 12.7003 11.9245 13.073 11.5475 13.3478C11.1691 13.6225 10.7341 13.8133 10.2423 13.9212C9.75046 14.0291 9.16281 14.083 8.47806 14.083H2.35817C0.785636 14.083 0 13.5284 0 12.418V12.4155Z" fill="#5B5B5B"/>
<path d="M13.4085 13.7044L17.7465 3.51492C17.9861 2.95407 18.2258 2.49108 18.4666 2.12722C18.7062 1.76335 18.9887 1.47602 19.3128 1.26774C19.6369 1.05946 20.0202 0.912661 20.4641 0.828596C20.908 0.745785 21.454 0.703125 22.1022 0.703125H28.9598C29.6433 0.703125 30.1868 0.837379 30.5891 1.10589C30.9914 1.37439 31.1919 1.77715 31.1919 2.31417C31.1919 2.66047 31.0961 3.06072 30.9044 3.51366L26.5664 13.7031C26.4705 13.9541 26.2902 14.0795 26.0266 14.0795H22.2649C22.0253 14.0795 21.9522 13.9541 22.0493 13.7031L23.507 10.3004H19.367L17.9092 13.7031C17.8134 13.9541 17.6331 14.0795 17.3695 14.0795H13.6254C13.3858 14.0795 13.3127 13.9541 13.4098 13.7031L13.4085 13.7044ZM20.6987 7.1498H24.8387L25.8286 4.82232C25.8652 4.72696 25.8829 4.65545 25.8829 4.60777C25.8829 4.49986 25.7933 4.44591 25.613 4.44591H22.2296C21.966 4.44591 21.7857 4.57138 21.6899 4.82232L20.6999 7.1498H20.6987Z" fill="#5B5B5B"/>
<path d="M27.7353 13.704L28.9055 10.9637C28.9661 10.8319 29.0379 10.719 29.1212 10.6237C29.2044 10.5283 29.3192 10.4329 29.4629 10.3376L37.149 5.10797C37.5084 4.86958 37.8514 4.6751 38.1755 4.52579C38.4996 4.37648 38.854 4.23595 39.2373 4.10546V4.06908C38.8527 4.20082 38.4996 4.29618 38.1755 4.35515C37.8514 4.41538 37.516 4.44423 37.1679 4.44423H32.2536C32.014 4.44423 31.9409 4.31876 32.038 4.06782L33.3154 1.07661C33.4352 0.825666 33.6156 0.700195 33.8552 0.700195H45.5186C45.699 0.700195 45.7885 0.754148 45.7885 0.860798C45.7885 0.908476 45.7708 0.979995 45.7343 1.07535L44.4921 3.99505C44.3963 4.23344 44.216 4.44298 43.9524 4.6224L36.6623 9.6362C36.3142 9.8746 35.9725 10.0691 35.6358 10.2184C35.2991 10.3677 34.9397 10.5082 34.5563 10.6387L34.574 10.6751C34.9573 10.5446 35.3117 10.448 35.6358 10.389C35.9599 10.3301 36.2953 10.2999 36.6433 10.2999H41.4316C41.6712 10.2999 41.743 10.4254 41.6472 10.6764L40.3508 13.7027C40.255 13.9536 40.0747 14.0791 39.8111 14.0791H27.9496C27.71 14.0791 27.6369 13.9536 27.734 13.7027L27.7353 13.704Z" fill="#5B5B5B"/>
<path d="M41.7747 13.7044L46.1128 3.51492C46.3524 2.95407 46.592 2.49108 46.8328 2.12722C47.0724 1.76335 47.3549 1.47602 47.679 1.26774C48.0031 1.05946 48.3864 0.912661 48.8303 0.828596C49.2742 0.745785 49.8203 0.703125 50.4684 0.703125H57.326C58.0095 0.703125 58.553 0.837379 58.9553 1.10589C59.3576 1.37439 59.5581 1.77715 59.5581 2.31417C59.5581 2.66047 59.4623 3.06072 59.2706 3.51366L54.9326 13.7031C54.8367 13.9541 54.6564 14.0795 54.3928 14.0795H50.6311C50.3915 14.0795 50.3184 13.9541 50.4155 13.7031L51.8733 10.3004H47.7332L46.2754 13.7031C46.1796 13.9541 45.9993 14.0795 45.7357 14.0795H41.9916C41.752 14.0795 41.6789 13.9541 41.776 13.7031L41.7747 13.7044ZM49.0649 7.1498H53.2049L54.1948 4.82232C54.2314 4.72696 54.2491 4.65545 54.2491 4.60777C54.2491 4.49986 54.1595 4.44591 53.9792 4.44591H50.5958C50.3322 4.44591 50.1519 4.57138 50.0561 4.82232L49.0661 7.1498H49.0649Z" fill="#5B5B5B"/>
<path d="M67.9368 12.4155C67.9368 11.866 68.1045 11.2035 68.4412 10.4281L71.015 4.4105C71.3265 3.67022 71.6355 3.06169 71.9419 2.58365C72.2483 2.10686 72.5926 1.72669 72.9772 1.44689C73.3606 1.16583 73.802 0.972608 74.3001 0.864704C74.7982 0.756799 75.401 0.704102 76.1084 0.704102H83.8841C84.0644 0.704102 84.1539 0.758054 84.1539 0.864704C84.1539 0.912383 84.1363 0.983901 84.0997 1.07926L82.8223 4.10561C82.7264 4.35655 82.5461 4.48202 82.2825 4.48202H75.9823C75.6709 4.48202 75.4363 4.66771 75.2799 5.0366L73.2635 9.72919C73.203 9.88478 73.174 9.9977 73.174 10.0692C73.174 10.2248 73.2824 10.3026 73.4981 10.3026H76.6292C76.7617 10.3026 76.8663 10.2725 76.9445 10.2135C77.0227 10.1545 77.0908 10.0579 77.1513 9.92744L77.5296 9.0504H76.1437C75.9634 9.0504 75.8739 8.99645 75.8739 8.88854C75.8739 8.82957 75.8915 8.75805 75.9281 8.67399L76.9723 6.22104C77.0681 5.9701 77.2484 5.84463 77.512 5.84463H81.2371C81.8487 5.84463 82.2838 5.87725 82.5423 5.94375C82.7996 6.00899 82.9295 6.17336 82.9295 6.43685C82.9295 6.57989 82.8904 6.76558 82.8122 6.99143C82.734 7.21853 82.623 7.5046 82.4793 7.8509L81.3998 10.4293C81.0997 11.157 80.7995 11.7581 80.4994 12.2286C80.1993 12.7003 79.8601 13.073 79.483 13.3478C79.1047 13.6225 78.6696 13.8133 78.1778 13.9212C77.686 14.0291 77.0984 14.083 76.4136 14.083H70.2937C68.7212 14.083 67.9355 13.5284 67.9355 12.418L67.9368 12.4155Z" fill="#5B5B5B"/>
<path d="M81.9219 12.397C81.9219 11.86 82.0896 11.2038 82.4263 10.4271L85.0001 4.40952C85.3116 3.66925 85.6205 3.06072 85.927 2.58267C86.2334 2.10589 86.5714 1.72571 86.9434 1.44591C87.3154 1.16486 87.7442 0.971632 88.2309 0.863727C88.7177 0.755823 89.3016 0.703125 89.9863 0.703125H96.2323C97.7922 0.703125 98.5728 1.26398 98.5728 2.38694C98.5728 2.94779 98.4051 3.62282 98.0684 4.41078L95.4946 10.4283C95.1831 11.1561 94.8767 11.7571 94.5765 12.2276C94.2764 12.6994 93.941 13.072 93.569 13.3468C93.1969 13.6216 92.7682 13.8123 92.2814 13.9202C91.7959 14.0281 91.2108 14.082 90.526 14.082H84.28C82.7075 14.082 81.9219 13.5212 81.9219 12.3982V12.397ZM87.4655 10.3016H90.5613C90.8728 10.3016 91.1074 10.1109 91.2638 9.72822L93.2802 5.05444C93.3407 4.89886 93.3697 4.78594 93.3697 4.71442C93.3697 4.55883 93.2613 4.48104 93.0456 4.48104H89.9497C89.6383 4.48104 89.4037 4.67176 89.2473 5.05444L87.2309 9.72822C87.1704 9.8838 87.1414 9.99673 87.1414 10.0682C87.1414 10.2238 87.2498 10.3016 87.4655 10.3016Z" fill="#5B5B5B"/>
</svg>
