<svg width="261" height="62" viewBox="0 0 261 62" fill="none" xmlns="http://www.w3.org/2000/svg">
<path d="M216.181 6.09288L214.266 1.70605L209.443 5.06402H188.496C186.258 5.06402 184.351 5.234 182.778 5.57695C181.202 5.91693 179.809 6.53424 178.597 7.42592C177.382 8.3176 176.293 9.51943 175.326 11.0374C174.359 12.5523 173.383 14.4878 172.395 16.8378L164.26 35.9388C163.577 37.5253 163.117 38.9597 162.873 40.248L161.461 40.6208L162.992 44.2084C163.049 44.3605 163.111 44.5126 163.183 44.6528L163.21 44.7124H163.216C164.195 46.5882 166.492 47.5336 170.121 47.5336H189.466C191.626 47.5336 193.486 47.3636 195.041 47.0206C196.595 46.6807 197.971 46.0723 199.165 45.2015C200.359 44.3307 201.43 43.1467 202.379 41.6467C203.328 40.1496 204.274 38.244 205.223 35.9328L208.637 28.1314C209.091 27.0309 209.443 26.1214 209.691 25.4026C209.825 25.012 209.92 24.6601 209.98 24.3469L210.392 24.4334L210.058 23.5954C210.049 23.1123 209.899 22.7365 209.607 22.4682L208.043 18.5644C208.043 18.5644 205.608 18.4034 203.701 18.2125H210.32C211.153 18.2125 211.723 17.8159 212.027 17.0197L213.946 12.7283L216.22 7.70327C216.268 7.59889 216.304 7.49451 216.331 7.38715C216.447 6.93684 216.381 6.48056 216.184 6.09586L216.181 6.09288ZM200.132 21.7614H196.204C196.142 21.7614 196.082 21.7763 196.025 21.8001L195.133 23.2733L195.751 27.9793L196.455 33.2041L193.116 34.224L180.931 37.9398L178.576 38.6585L182.712 30.878L183.05 30.3173L183.041 30.2577L182.662 27.4246L182.342 25.0448L181.742 20.4432L181.724 20.4283L181.719 20.3627L181.73 20.3538L185.285 19.2772L187.013 18.7553L187.195 18.6986L197.452 15.5942L198.771 17.8994C198.693 18.0336 198.786 18.2066 198.947 18.2066L203.895 21.7584H200.126L200.132 21.7614ZM196.091 12.7611L194.187 16.9958L201.164 18.129L199.075 13.6557" fill="black"/>
<path d="M253.483 4.61914H233.816C231.661 4.61914 229.79 4.79211 228.259 5.13208C226.713 5.47503 225.331 6.10428 224.15 6.99894C222.971 7.8936 221.882 9.1163 220.912 10.6342C219.948 12.1462 218.963 14.0966 217.981 16.4316L209.876 35.4611C208.813 37.9214 208.276 40.0388 208.276 41.7506C208.276 45.3829 210.825 47.2229 215.85 47.2229H235.517C237.672 47.2229 239.543 47.0499 241.074 46.71C242.617 46.367 243.998 45.7497 245.183 44.8729C246.365 43.9961 247.445 42.7943 248.394 41.2943C249.337 39.8032 250.313 37.8826 251.295 35.5804L259.4 16.5509C260.46 14.0518 261 11.8778 261 10.0915C261 6.45916 258.472 4.61914 253.483 4.61914ZM233.747 17.2935H243.046C243.783 17.2935 243.87 17.6096 243.87 17.8482C243.87 18.045 243.783 18.3701 243.61 18.8174L237.555 32.9173C237.108 34.0177 236.463 34.5515 235.586 34.5515H226.286C225.549 34.5515 225.463 34.2354 225.463 33.9998C225.463 33.803 225.549 33.4749 225.722 33.0336L231.778 18.9307C232.225 17.8303 232.87 17.2935 233.747 17.2935Z" fill="black"/>
<path d="M116.965 36.2252H104.583C105.269 35.9539 105.979 35.6288 106.708 35.2501L110.172 33.41H110.211L120.859 27.878C121.617 27.4993 122.172 26.9237 122.515 26.1663L125.906 18.2396C126.061 17.8191 126.061 17.5119 125.909 17.2942C125.771 17.1004 125.521 17.002 125.163 17.002H95.7073C94.9135 17.002 94.3703 17.3837 94.0958 18.1292L90.3773 26.7657C90.2221 27.1832 90.2221 27.4933 90.3713 27.711C90.5086 27.9049 90.7593 28.0063 91.1174 28.0063H102.894C102.171 28.2926 101.443 28.6206 100.721 28.9815L92.4395 33.2967L86.3484 36.4638C85.5516 36.8813 85.0145 37.4599 84.7518 38.1756L81.4154 45.992C81.2602 46.4095 81.2602 46.7196 81.4094 46.9373C81.5467 47.1312 81.7974 47.2296 82.1555 47.2296H112.431C113.225 47.2296 113.768 46.8478 114.043 46.1023L117.702 37.4778C117.896 37.0692 117.92 36.765 117.782 36.5443C117.648 36.3326 117.382 36.2282 116.968 36.2282L116.965 36.2252Z" fill="black"/>
<path d="M45.5617 26.876L49.2801 18.2396C49.4353 17.8191 49.4353 17.5119 49.2831 17.2942C49.1458 17.1004 48.8952 17.002 48.537 17.002H34.8957C34.5406 17.002 34.2093 17.1958 34.0362 17.5059L33.1141 19.1641L30.9176 17.2435C30.7385 17.0855 30.5087 17.002 30.27 17.002H21.317C19.7115 17.002 18.273 17.16 17.0465 17.4702C15.8139 17.7833 14.6948 18.2873 13.7189 18.9672C12.7431 19.6501 11.8478 20.5717 11.0599 21.7079C10.272 22.8411 9.52298 24.2457 8.83061 25.8859L3.58417 38.28C2.88584 39.8933 2.53369 41.3636 2.53369 42.6549C2.53369 45.6878 4.569 47.2266 8.5859 47.2266H21.4871L19.995 49.666C19.2877 50.6293 18.6043 51.0796 17.8373 51.0796H8.31134C7.51751 51.0796 6.97138 51.4613 6.69981 52.2069L3.42302 59.9009C3.22904 60.3095 3.20516 60.6137 3.34244 60.8344C3.47674 61.0461 3.74234 61.1505 4.15716 61.1505H17.0017C19.1862 61.1505 21.0544 60.9656 22.5555 60.5988C24.0626 60.229 25.3966 59.5968 26.5187 58.714C27.6378 57.8343 28.6525 56.6444 29.5329 55.1771C30.4043 53.7248 31.3264 51.8639 32.2725 49.6451L41.9626 27.9973H43.9442C44.738 27.9973 45.2811 27.6156 45.5557 26.8701L45.5617 26.876ZM17.9626 34.9041L20.3143 29.4377C20.6933 28.4715 21.2394 28.0033 21.9795 28.0033H29.133L25.6532 36.2252H18.3745C17.8284 36.2252 17.7597 35.9837 17.7597 35.7749C17.7597 35.5065 17.8284 35.2143 17.9656 34.9041H17.9626Z" fill="black"/>
<path d="M80.2873 36.2432H78.4341L86.1306 18.2665C86.2858 17.849 86.2858 17.5388 86.1366 17.3211C85.9993 17.1273 85.7516 17.0259 85.3905 17.0259L74.9514 17.0139C74.3038 17.0139 73.7218 17.3986 73.4711 17.9981L72.731 19.7605L68.8395 17.2615C68.5798 17.0945 68.2814 17.008 67.974 17.008L61.2891 16.999C59.7283 16.999 58.2988 17.1452 57.0723 17.4344C55.8368 17.7267 54.7176 18.2217 53.7418 18.9017C52.7659 19.5816 51.8676 20.5031 51.0768 21.6393C50.2919 22.7666 49.5219 24.1891 48.7878 25.8681L43.9084 37.3854C42.9564 39.6131 42.47 41.4501 42.47 42.8488C42.47 44.2772 42.9654 45.3717 43.9472 46.1113C44.9171 46.8389 46.454 47.2087 48.5162 47.2117L75.7332 47.2445C76.5241 47.2445 77.0672 46.8628 77.3448 46.1173L81.0155 37.4987C81.2095 37.0901 81.2363 36.7859 81.0961 36.5653C80.9648 36.3565 80.6902 36.2491 80.2814 36.2491L80.2873 36.2432ZM57.9079 34.8952L60.2685 29.4318C60.6475 28.4686 61.1936 28.0004 61.9337 28.0004L69.0872 28.0093L65.5955 36.2253L58.3167 36.2163C58.0959 36.2163 57.9347 36.1776 57.8363 36.0971C57.7467 36.0255 57.702 35.9181 57.702 35.763C57.702 35.4917 57.7706 35.2024 57.9079 34.8952Z" fill="black"/>
<path d="M157.629 36.2432H155.776L163.472 18.2665C163.627 17.849 163.627 17.5388 163.478 17.3211C163.341 17.1273 163.093 17.0259 162.732 17.0259L152.293 17.0139C151.645 17.0139 151.063 17.3986 150.813 17.9981L150.073 19.7605L146.181 17.2615C145.921 17.0945 145.623 17.008 145.316 17.008L138.631 16.999C137.055 16.999 135.64 17.1452 134.414 17.4344C133.178 17.7267 132.059 18.2217 131.083 18.9017C130.108 19.5816 129.209 20.5031 128.418 21.6393C127.634 22.7666 126.864 24.1891 126.129 25.8681L121.25 37.3854C120.295 39.6131 119.812 41.4501 119.812 42.8488C119.812 44.2772 120.307 45.3717 121.289 46.1113C122.259 46.8389 123.796 47.2087 125.858 47.2117L153.075 47.2445H153.078C153.869 47.2445 154.412 46.8628 154.689 46.1173L158.36 37.4987C158.554 37.0901 158.581 36.7859 158.441 36.5653C158.309 36.3565 158.035 36.2491 157.626 36.2491L157.629 36.2432ZM135.25 34.8952L137.61 29.4318C137.989 28.4686 138.535 28.0004 139.275 28.0004L146.429 28.0093L142.937 36.2253L135.658 36.2163C135.438 36.2163 135.276 36.1776 135.178 36.0971C135.088 36.0255 135.044 35.9181 135.044 35.763C135.044 35.4946 135.112 35.2024 135.25 34.8952Z" fill="black"/>
<path d="M214.06 43.6475C208.837 43.6475 206.187 41.7061 206.187 37.8769C206.187 36.1234 206.733 33.9673 207.81 31.4682L215.916 12.4417C216.901 10.0918 217.897 8.12649 218.87 6.5996C219.858 5.05184 220.971 3.8023 222.18 2.88676C223.398 1.96526 224.818 1.31812 226.406 0.966221C227.961 0.620286 229.853 0.444336 232.028 0.444336H251.695C256.882 0.444336 259.511 2.38575 259.511 6.2149C259.511 8.04001 258.965 10.2528 257.887 12.7907L249.782 31.8201C248.794 34.1343 247.809 36.0727 246.857 37.5757C245.887 39.1056 244.783 40.3373 243.572 41.2349C242.354 42.1355 240.933 42.7737 239.349 43.1226C237.794 43.4686 235.902 43.6445 233.726 43.6445H214.06V43.6475ZM231.957 13.7151C231.214 13.7151 230.658 14.1893 230.265 15.1645L224.206 29.2703C223.994 29.8161 223.974 30.0457 223.974 30.1202C223.974 30.2216 223.974 30.3737 224.499 30.3737H233.798C234.541 30.3737 235.096 29.8996 235.49 28.9244L241.548 14.8186C241.76 14.2698 241.781 14.0402 241.781 13.9686C241.781 13.8672 241.781 13.7122 241.256 13.7122H231.957V13.7151Z" fill="#1CE2D9"/>
<path d="M251.692 0.894661C256.604 0.894661 259.06 2.66907 259.06 6.21789C259.06 7.9923 258.532 10.1246 257.473 12.6177L249.367 31.6471C248.385 33.9494 247.421 35.8491 246.478 37.3402C245.532 38.8313 244.476 40.0122 243.303 40.88C242.13 41.7479 240.781 42.3532 239.25 42.6932C237.719 43.0332 235.878 43.2032 233.723 43.2032H214.057C209.106 43.2032 206.632 41.4288 206.632 37.8799C206.632 36.1801 207.16 34.1045 208.219 31.6501L216.325 12.6207C217.307 10.2797 218.279 8.35315 219.243 6.84416C220.207 5.33516 221.273 4.13632 222.446 3.24762C223.615 2.3619 224.967 1.74757 226.498 1.4076C228.029 1.06763 229.871 0.897643 232.025 0.897643H251.692M224.496 30.83H233.795C234.732 30.83 235.433 30.2544 235.902 29.1003L241.957 15.0005C242.136 14.5323 242.229 14.1893 242.229 13.9746C242.229 13.5064 241.903 13.2738 241.256 13.2738H231.957C231.02 13.2738 230.315 13.8493 229.85 15.0035L223.794 29.1033C223.612 29.5715 223.523 29.9145 223.523 30.1292C223.523 30.5974 223.848 30.83 224.496 30.83ZM251.692 0H232.025C229.817 0 227.892 0.178932 226.304 0.530832C224.654 0.897643 223.174 1.57162 221.905 2.53189C220.655 3.48023 219.506 4.76854 218.488 6.36104C217.501 7.9088 216.495 9.89495 215.498 12.2718L207.396 31.2952C206.294 33.848 205.736 36.0608 205.736 37.877C205.736 43.0153 210.261 44.0949 214.057 44.0949H233.723C235.932 44.0949 237.857 43.9159 239.444 43.564C241.092 43.2002 242.569 42.5381 243.834 41.5988C245.088 40.6683 246.231 39.3979 247.23 37.8203C248.197 36.2964 249.191 34.3371 250.188 32.002L258.293 12.9726C259.394 10.3781 259.953 8.10861 259.953 6.22088C259.953 3.3848 258.52 0.0029822 251.689 0.0029822L251.692 0ZM224.624 29.4343L230.67 15.3524L230.676 15.3345C231.151 14.1625 231.715 14.1625 231.954 14.1625H241.253C241.253 14.1625 241.28 14.1625 241.292 14.1625C241.262 14.2698 241.214 14.4309 241.124 14.6605L235.078 28.7425L235.072 28.7574C234.598 29.9294 234.034 29.9294 233.795 29.9294H224.496C224.496 29.9294 224.469 29.9294 224.457 29.9294C224.487 29.822 224.535 29.661 224.624 29.4314V29.4343Z" fill="#050505"/>
<path d="M80.3618 43.6472C79.8993 43.6472 79.565 43.5041 79.371 43.2268C79.1621 42.9285 79.1532 42.517 79.3412 42.01L82.6836 34.1787C82.9671 33.4064 83.5551 32.7741 84.4175 32.3208L90.422 29.2134C90.4488 29.1895 90.4757 29.1686 90.5085 29.1537L98.79 24.8385C99.0765 24.6953 99.363 24.5582 99.6495 24.4269H89.3238C88.8612 24.4269 88.5269 24.2838 88.333 24.0065C88.1241 23.7082 88.1151 23.2967 88.3031 22.7867L92.0275 14.1354C92.3379 13.2884 92.9945 12.8262 93.9136 12.8262H123.369C123.831 12.8262 124.163 12.9693 124.36 13.2467C124.569 13.5449 124.578 13.9564 124.39 14.4664L120.993 22.405C120.62 23.2341 120.018 23.8573 119.197 24.2689L112.978 27.4837C112.954 27.5076 112.924 27.5255 112.891 27.5433L108.585 29.783C108.549 29.8009 108.507 29.8158 108.465 29.8247L105.048 31.6379C104.768 31.784 104.493 31.9212 104.219 32.0524H115.168C115.684 32.0524 116.045 32.2045 116.236 32.5087C116.433 32.8189 116.412 33.2304 116.174 33.7314L112.521 42.344C112.208 43.1939 111.551 43.6532 110.635 43.6532H80.3588L80.3618 43.6472Z" fill="#1CE2D9"/>
<path d="M123.369 13.2736C124.026 13.2736 124.225 13.6195 123.969 14.3114L120.582 22.2291C120.253 22.9568 119.725 23.5025 118.997 23.8664L112.658 27.1438H112.685L108.379 29.3834H108.34L104.842 31.2413C104.004 31.6767 103.192 32.0436 102.41 32.3328C102.252 32.3925 102.091 32.4402 101.933 32.4969H115.171C115.899 32.4969 116.099 32.8428 115.771 33.5347L112.109 42.1622C111.852 42.854 111.363 43.2 110.635 43.2H80.3589C79.7024 43.2 79.5024 42.854 79.7591 42.1622L83.0925 34.3518C83.3462 33.6599 83.8565 33.1142 84.6235 32.7146L90.7444 29.5475H90.7145L97.8978 25.8048L98.996 25.2322C99.7958 24.8326 100.599 24.4777 101.401 24.1676C101.58 24.099 101.762 24.0423 101.942 23.9767H89.3238C88.6673 23.9767 88.4673 23.6308 88.724 22.9389L92.4394 14.3114C92.6931 13.6195 93.1855 13.2736 93.9137 13.2736H123.369ZM123.369 12.3789H93.9137C92.8155 12.3789 91.9978 12.9455 91.6068 13.9774L87.9003 22.584C87.9003 22.584 87.8884 22.6138 87.8824 22.6287C87.6407 23.2848 87.6675 23.8306 87.966 24.257C88.1599 24.5373 88.5539 24.8714 89.3238 24.8714H97.7515L97.483 25.0115L90.2997 28.7542C90.2549 28.778 90.2102 28.8049 90.1714 28.8377L84.2117 31.9213C83.2507 32.4253 82.5971 33.1321 82.2629 34.0208L78.9384 41.8103C78.9384 41.8103 78.9264 41.8371 78.9205 41.852C78.6787 42.5081 78.7056 43.0539 79.004 43.4803C79.198 43.7606 79.5919 44.0946 80.3619 44.0946H110.638C111.736 44.0946 112.557 43.525 112.945 42.4932L116.592 33.8985C116.89 33.2573 116.899 32.7086 116.618 32.2642C116.427 31.963 116.022 31.6022 115.174 31.6022H106.072L108.632 30.2423C108.689 30.2274 108.743 30.2035 108.794 30.1767L113.1 27.9371C113.145 27.9132 113.186 27.8864 113.228 27.8565L119.409 24.6596C120.313 24.2093 120.985 23.5115 121.399 22.593L121.405 22.578L124.793 14.6603C124.793 14.6603 124.804 14.6305 124.81 14.6185C125.052 13.9625 125.022 13.4137 124.727 12.9903C124.533 12.7099 124.139 12.3789 123.369 12.3789Z" fill="#050505"/>
<path d="M2.36655 57.2041C1.85026 57.2041 1.48916 57.052 1.29816 56.7478C1.1012 56.4376 1.12209 56.0261 1.36083 55.5251L4.63165 47.8429C4.94501 46.993 5.59857 46.5337 6.52073 46.5337H16.0497C16.7062 46.5337 17.312 46.1282 17.9537 45.2574L19.1653 43.2772H6.79827C3.90049 43.2772 0.447632 42.4332 0.447632 38.4072C0.447632 37.0772 0.808735 35.5652 1.52199 33.916L6.76843 21.522C7.46676 19.8639 8.22776 18.4414 9.02756 17.2903C9.83631 16.1242 10.7555 15.1759 11.7612 14.4751C12.7669 13.7742 13.9189 13.2553 15.1872 12.9333C16.4406 12.6171 17.9029 12.4561 19.5324 12.4561H28.4854C28.7957 12.4561 29.0942 12.5694 29.3299 12.7722L31.2459 14.4482L31.989 13.1122C32.2158 12.7066 32.6425 12.4531 33.1081 12.4531H46.7494C47.212 12.4531 47.5432 12.5963 47.7402 12.8736C47.9491 13.1718 47.9581 13.5834 47.7701 14.0933L44.0456 22.7447C43.7323 23.5917 43.0787 24.0539 42.1595 24.0539H40.3719L30.7624 45.5258C29.8134 47.7505 28.8823 49.6263 28.0049 51.0876C27.1066 52.5846 26.0681 53.8014 24.9191 54.705C23.7642 55.6145 22.3914 56.2677 20.8425 56.6464C19.3175 57.0162 17.4225 57.2041 15.2171 57.2041H2.36655ZM20.1859 24.0539C19.9651 24.0539 19.2877 24.0539 18.7982 25.3005L16.4436 30.7758C16.3212 31.0501 16.2616 31.3006 16.2616 31.5273C16.2616 31.6138 16.2616 31.6794 16.5779 31.6794H23.6597L26.8887 24.0539H20.1859Z" fill="#1CE2D9"/>
<path d="M46.7464 12.9035C47.403 12.9035 47.6029 13.2494 47.3463 13.9413L43.6308 22.5688C43.3742 23.2607 42.8847 23.6066 42.1566 23.6066H40.0795L30.3506 45.3439C29.4016 47.5627 28.4913 49.4027 27.6169 50.858C26.7425 52.3133 25.7487 53.4794 24.6386 54.3531C23.5254 55.2269 22.2243 55.8442 20.7321 56.2111C19.237 56.5749 17.3986 56.7568 15.2111 56.7568H2.36657C1.63839 56.7568 1.43844 56.4109 1.76672 55.719L5.04649 48.0189C5.30016 47.3271 5.79257 46.9811 6.52075 46.9811H16.0497C16.8495 46.9811 17.5807 46.5249 18.3267 45.5079L19.9621 42.8299H6.79829C2.86197 42.8299 0.895297 41.3567 0.895297 38.4073C0.895297 37.1339 1.24148 35.6965 1.93384 34.0921L7.18028 21.695C7.87265 20.0578 8.60977 18.6741 9.39465 17.5438C10.1765 16.4165 11.051 15.5159 12.0179 14.8419C12.9818 14.168 14.0771 13.6759 15.2976 13.3687C16.5182 13.0586 17.9298 12.9035 19.5324 12.9035H28.4854C28.6883 12.9035 28.8823 12.9781 29.0345 13.1093L31.3682 15.1491L32.3799 13.33C32.5261 13.0645 32.8067 12.9005 33.1081 12.9005H46.7494M16.5809 32.1268H23.9582L27.5662 23.6066H20.189C19.3862 23.6066 18.7863 24.1166 18.3864 25.1365L16.0378 30.5969C15.8915 30.925 15.8199 31.2351 15.8199 31.5244C15.8199 31.924 16.0736 32.1238 16.5839 32.1238M46.7464 12.0088H33.1051C32.4784 12.0088 31.8994 12.3488 31.595 12.8975L31.1205 13.7475L29.6194 12.4353C29.3031 12.1609 28.9002 12.0088 28.4824 12.0088H19.5294C17.8612 12.0088 16.363 12.1729 15.0738 12.5009C13.7518 12.8349 12.5521 13.3777 11.5016 14.1083C10.4511 14.8419 9.49612 15.8261 8.65454 17.0368C7.83982 18.2118 7.06389 19.6642 6.35064 21.3491L1.11017 33.7431C0.376025 35.443 0 37.0146 0 38.4073C0 40.8318 1.17881 43.7246 6.79829 43.7246H18.3685L17.5836 45.0069C16.8674 45.9732 16.366 46.0865 16.0497 46.0865H6.52075C5.41953 46.0865 4.60183 46.6561 4.21387 47.6879L0.949015 55.3522C0.650583 55.9934 0.64163 56.5421 0.922156 56.9864C1.11315 57.2876 1.51902 57.6485 2.36657 57.6485H15.2111C17.4523 57.6485 19.3832 57.4546 20.941 57.0759C22.5555 56.6822 23.982 56.0023 25.1907 55.054C26.3814 54.1175 27.4558 52.8591 28.3839 51.3173C29.2732 49.8381 30.2103 47.9474 31.1683 45.6988L40.6584 24.4983H42.1566C43.2548 24.4983 44.0725 23.9317 44.4634 22.8998L48.17 14.2902C48.17 14.2902 48.1819 14.2604 48.1879 14.2455C48.4296 13.5894 48.3998 13.0437 48.1043 12.6172C47.9103 12.3369 47.5164 12.0059 46.7464 12.0059V12.0088ZM16.754 31.2321C16.7779 31.1456 16.8107 31.0562 16.8525 30.9607L19.2071 25.4884C19.2071 25.4884 19.2131 25.4705 19.219 25.4616C19.5981 24.5013 20.0129 24.5013 20.189 24.5013H26.2143L23.3643 31.2321H16.754Z" fill="#050505"/>
<path d="M46.7286 43.2564C44.5679 43.2564 43.0161 42.8746 41.9805 42.0963C40.9211 41.3 40.3839 40.1221 40.3839 38.5952C40.3839 37.1577 40.8793 35.279 41.8462 33.0155L46.7226 21.5012C47.4657 19.8013 48.2446 18.3639 49.0414 17.2187C49.8532 16.0527 50.7723 15.1073 51.781 14.4065C52.7897 13.7057 53.9447 13.1957 55.213 12.8945C56.4545 12.5993 57.887 12.4502 59.4687 12.4502L66.1834 12.4591C66.5475 12.4591 66.9026 12.5635 67.21 12.7603L70.8031 15.0686L71.406 13.6341C71.7044 12.9244 72.3938 12.4681 73.1607 12.4681L83.5999 12.48C84.0625 12.48 84.3937 12.6232 84.5907 12.9035C84.7996 13.2017 84.8085 13.6133 84.6205 14.1232L77.0971 31.6973H78.4967C79.013 31.6973 79.3711 31.8524 79.5621 32.1566C79.7591 32.4667 79.7382 32.8783 79.4994 33.3793L75.8347 41.9859C75.5213 42.8359 74.8648 43.2951 73.9486 43.2951L46.7286 43.2623V43.2564ZM60.1401 24.051C59.9193 24.051 59.2448 24.051 58.7524 25.2945L56.3888 30.7669C56.2665 31.0383 56.2068 31.2918 56.2068 31.5184C56.2068 31.5572 56.2128 31.6049 56.2277 31.6168C56.2337 31.6228 56.3023 31.6705 56.5261 31.6705L63.6079 31.6794L66.8459 24.0569L60.1431 24.048L60.1401 24.051Z" fill="#1CE2D9"/>
<path d="M59.4687 12.8976H59.5015L64.6077 12.9036H66.1864C66.4639 12.9036 66.7385 12.9871 66.9713 13.1362L71.012 15.7337L71.8208 13.8072C72.0476 13.2674 72.5758 12.9155 73.1637 12.9155H75.4199L83.6029 12.9275C84.2595 12.9275 84.4594 13.2764 84.2028 13.9653L76.4196 32.1418H78.4967C79.2249 32.1448 79.4249 32.4907 79.0966 33.1826L75.4229 41.8071C75.1662 42.499 74.6768 42.8419 73.9486 42.8419L67.8307 42.833H67.0608L60.8803 42.8241H60.358L53.3478 42.8151H51.8885L46.7286 42.8062C44.6873 42.8062 43.1952 42.4453 42.2491 41.7355C41.3031 41.0258 40.8316 39.979 40.8316 38.5923C40.8316 37.2086 41.3091 35.4073 42.2581 33.1886L47.1374 21.6713C47.8686 19.9983 48.6266 18.5966 49.4115 17.4694C50.1964 16.3421 51.0708 15.4415 52.0377 14.7705C53.0046 14.0995 54.0969 13.6164 55.3175 13.3271C56.5291 13.0408 57.9109 12.8947 59.4657 12.8947M63.9004 32.1239L67.5174 23.6097L60.1402 23.6008C59.3404 23.6008 58.7375 24.1107 58.3376 25.1277L55.98 30.5851C55.8338 30.9131 55.7621 31.2233 55.7592 31.5126C55.7592 31.9122 56.0128 32.115 56.5231 32.115L63.9004 32.1239ZM59.4657 12C57.8512 12 56.3859 12.1521 55.1116 12.4563C53.7865 12.7724 52.5809 13.3032 51.5244 14.0368C50.4739 14.7675 49.516 15.7516 48.6744 16.9594C47.8597 18.1284 47.0658 19.5927 46.3168 21.3134L41.4344 32.8396C40.4287 35.1896 39.9393 37.0714 39.9363 38.5923C39.9363 40.2653 40.5302 41.5656 41.712 42.4513C42.8281 43.2893 44.4695 43.6978 46.7286 43.7008L51.8885 43.7068H53.3478L60.358 43.7187H60.8773L67.0578 43.7277H67.8278L73.9456 43.7366C75.0468 43.7366 75.8646 43.17 76.2555 42.1381L79.9143 33.5464C80.2127 32.9052 80.2247 32.3565 79.9441 31.9122C79.7531 31.611 79.3473 31.2471 78.4997 31.2471H77.7775L85.0264 14.3142C85.0264 14.3142 85.0384 14.2873 85.0443 14.2724C85.2861 13.6164 85.2592 13.0706 84.9608 12.6442C84.7668 12.3638 84.3729 12.0298 83.6029 12.0298L75.4199 12.0209H73.1667C72.2147 12.0179 71.3642 12.5845 70.9971 13.4583L70.6002 14.4007L67.4577 12.3817C67.0787 12.1372 66.64 12.0089 66.1894 12.0089H64.6107L59.5045 12H59.4717H59.4657ZM56.6962 31.2203C56.7201 31.1338 56.7529 31.0443 56.7947 30.9489L59.1553 25.4796C59.1553 25.4796 59.1613 25.4617 59.1673 25.4527C59.5463 24.4924 59.9611 24.4924 60.1372 24.4924L66.1655 24.4984L63.3065 31.2263L56.6962 31.2173V31.2203Z" fill="#050505"/>
<path d="M124.073 43.6265C121.913 43.6265 120.361 43.2447 119.325 42.4664C118.266 41.6701 117.729 40.4922 117.729 38.9653C117.729 37.5279 118.224 35.6491 119.191 33.3856L124.067 21.8713C124.81 20.1714 125.589 18.734 126.386 17.5889C127.198 16.4228 128.117 15.4775 129.126 14.7766C130.134 14.0758 131.289 13.5659 132.558 13.2647C133.799 12.9694 135.232 12.8203 136.813 12.8203L143.528 12.8293C143.892 12.8293 144.247 12.9336 144.555 13.1305L148.148 15.4387L148.751 14.0042C149.049 13.2945 149.736 12.8382 150.505 12.8382L160.945 12.8501C161.407 12.8501 161.738 12.9933 161.935 13.2736C162.144 13.5718 162.153 13.9834 161.965 14.4933L154.442 32.0675H155.841C156.358 32.0675 156.716 32.2225 156.907 32.5267C157.104 32.8369 157.083 33.2484 156.844 33.7494L153.179 42.3561C152.866 43.206 152.21 43.6652 151.293 43.6652L124.073 43.6324V43.6265ZM137.485 24.4211C137.264 24.4211 136.59 24.4211 136.097 25.6647L133.734 31.137C133.611 31.4114 133.552 31.6619 133.552 31.8885C133.552 31.9273 133.557 31.975 133.572 31.9869C133.578 31.9929 133.647 32.0406 133.871 32.0406L140.953 32.0496L144.191 24.427L137.488 24.4181L137.485 24.4211Z" fill="#1CE2D9"/>
<path d="M136.81 13.2678H136.843L141.949 13.2737H143.528C143.806 13.2737 144.08 13.3572 144.313 13.5063L148.354 16.1038L149.162 14.1773C149.389 13.6376 149.918 13.2857 150.505 13.2857H152.762L160.945 13.2976C161.601 13.2976 161.801 13.6465 161.544 14.3354L153.761 32.5119H155.838C156.567 32.5149 156.767 32.8608 156.438 33.5527L152.765 42.1772C152.508 42.8691 152.018 43.2121 151.29 43.2121L145.172 43.2031H144.402L138.222 43.1942H137.7L130.69 43.1852H129.23L124.07 43.1763C122.029 43.1763 120.537 42.8154 119.591 42.1057C118.645 41.3959 118.173 40.3491 118.173 38.9624C118.173 37.5787 118.651 35.7774 119.6 33.5587L124.479 22.0414C125.21 20.3684 125.968 18.9668 126.753 17.8395C127.538 16.7122 128.412 15.8116 129.379 15.1406C130.346 14.4696 131.439 13.9865 132.659 13.6972C133.871 13.4109 135.253 13.2648 136.807 13.2648M141.242 32.494L144.859 23.9798L137.482 23.9709C136.682 23.9709 136.079 24.4808 135.679 25.4978L133.322 30.9552C133.175 31.2833 133.104 31.5934 133.101 31.8827C133.101 32.2823 133.355 32.4851 133.865 32.4851L141.242 32.494ZM136.807 12.3701C135.193 12.3701 133.728 12.5222 132.453 12.8264C131.128 13.1425 129.923 13.6733 128.866 14.407C127.816 15.1376 126.858 16.1217 126.016 17.3295C125.201 18.4985 124.407 19.9628 123.658 21.6835L118.776 33.2098C117.77 35.5597 117.281 37.4415 117.278 38.9624C117.278 40.6384 117.872 41.9357 119.054 42.8214C120.17 43.6594 121.811 44.068 124.07 44.0709L129.23 44.0769H130.69L137.7 44.0888H138.219L144.399 44.0978H145.169L151.287 44.1067C152.389 44.1067 153.206 43.5401 153.597 42.5083L157.256 33.9165C157.554 33.2754 157.566 32.7266 157.286 32.2823C157.095 31.9811 156.689 31.6173 155.841 31.6173H155.119L162.368 14.6843C162.368 14.6843 162.38 14.6575 162.386 14.6426C162.628 13.9865 162.601 13.4407 162.302 13.0143C162.108 12.7339 161.715 12.3999 160.945 12.3999L152.762 12.391H150.508C149.556 12.388 148.706 12.9546 148.339 13.8284L147.942 14.7708L144.799 12.7518C144.42 12.5073 143.982 12.3791 143.531 12.3791H141.952L136.846 12.3701H136.813H136.807ZM134.038 31.5904C134.062 31.5039 134.095 31.4145 134.136 31.319L136.497 25.8497C136.497 25.8497 136.503 25.8318 136.509 25.8228C136.888 24.8626 137.303 24.8626 137.479 24.8626L143.507 24.8685L140.648 31.5964L134.038 31.5874V31.5904Z" fill="#050505"/>
<path d="M48.2327 14.1621L49.3339 17.4246L47.4568 17.7795C47.4568 17.7795 47.1733 17.359 47.024 17.2964C46.8748 17.2338 47.7731 15.4445 47.7731 15.4445" fill="black"/>
<path d="M40.8315 42.8359L43.5264 45.7317L43.2936 44.0735L41.503 43.1789" fill="black"/>
<path d="M86.1723 17.3769L85.1009 14.1621L84.7756 15.1462L83.8803 16.6373L83.5819 17.8302H84.7756" fill="black"/>
<path d="M81.102 36.5623L80.0007 33.6367H80.0395L78.807 36.3207L79.4039 36.9171" fill="black"/>
<path d="M183.751 14.7915L185.497 14.2637L180.155 15.88L183.751 14.7915Z" fill="#1CE2D9"/>
<path d="M215.021 3.08277C215.068 2.97839 215.104 2.87103 215.134 2.76367L212.723 8.16146L215.024 3.08277H215.021Z" fill="#1CE2D9"/>
<path d="M181.095 26.5948L175.362 34.7362L175.353 34.9808L195.348 27.2271L191.767 22.1573L194.608 17.341C194.664 17.3172 194.727 17.3023 194.79 17.3023H203.391C205.345 17.3023 206.736 17.4096 207.563 17.6184C208.386 17.8301 208.798 18.358 208.798 19.199C208.798 19.6582 208.673 20.2517 208.425 20.9793C208.175 21.707 207.822 22.6285 207.36 23.7379L203.907 31.6258C202.949 33.9638 201.988 35.8904 201.03 37.4023C200.072 38.9173 198.989 40.1132 197.78 40.9959C196.571 41.8786 195.181 42.49 193.608 42.8359C192.035 43.1818 190.155 43.3548 187.971 43.3548H168.411C163.386 43.3548 160.876 41.5714 160.876 38.0077C160.876 36.2452 161.413 34.1189 162.488 31.6258L170.715 12.3101C171.712 9.93325 172.7 7.97991 173.679 6.44706C174.658 4.91421 175.759 3.69747 176.985 2.79684C178.212 1.89622 179.621 1.27294 181.214 0.929984C182.805 0.584048 184.733 0.414062 186.995 0.414062H213.302C214.558 0.414062 215.432 1.60098 215.137 2.76404L212.726 8.16183L210.786 12.5009C210.478 13.3061 209.902 13.7087 209.061 13.7087H197.571C197.401 13.7087 197.303 13.5179 197.404 13.3807L199.565 10.4223C199.666 10.3269 200.412 9.4054 199.505 9.1042H199.496C199.302 9.1042 199.111 9.13999 198.929 9.20858L185.688 14.2068L185.503 14.2634L180.193 16.0408V16.342L181.098 26.5948" fill="#1CE2D9"/>
<path d="M181.095 26.5948L175.362 34.7362L175.353 34.9808L195.348 27.2271L191.767 22.1573L194.608 17.341C194.664 17.3172 194.727 17.3023 194.79 17.3023H203.391C205.345 17.3023 206.736 17.4096 207.563 17.6184C208.386 17.8301 208.798 18.358 208.798 19.199C208.798 19.6582 208.673 20.2517 208.425 20.9793C208.175 21.707 207.822 22.6285 207.36 23.7379L203.907 31.6258C202.949 33.9638 201.988 35.8903 201.03 37.4023C200.072 38.9173 198.989 40.1132 197.78 40.9959C196.571 41.8786 195.181 42.49 193.608 42.8359C192.035 43.1818 190.155 43.3548 187.971 43.3548H168.411C163.386 43.3548 160.876 41.5714 160.876 38.0077C160.876 36.2452 161.413 34.1189 162.488 31.6258L170.715 12.3101C171.712 9.93325 172.7 7.97991 173.679 6.44706C174.658 4.91421 175.759 3.69747 176.985 2.79684C178.212 1.89622 179.621 1.27294 181.214 0.929984C182.805 0.584048 184.733 0.414062 186.995 0.414062H213.302C214.558 0.414062 215.432 1.60098 215.137 2.76404L212.726 8.16183L210.786 12.5009C210.478 13.3061 209.902 13.7087 209.061 13.7087H197.571C197.401 13.7087 197.303 13.5179 197.404 13.3807L199.565 10.4223C199.666 10.3269 200.412 9.4054 199.505 9.1042H199.496C199.302 9.1042 199.111 9.13999 198.929 9.20858L185.688 14.2068L185.503 14.2634L180.193 16.0408V16.342L181.098 26.5948" stroke="#050505" stroke-linecap="round" stroke-linejoin="round"/>
</svg>
