<svg width="90" height="20" viewBox="0 0 90 20" fill="none" xmlns="http://www.w3.org/2000/svg">
<g clip-path="url(#clip0_1400_7145)">
<path d="M74.203 15.1086C72.3808 15.1086 71.4568 14.4262 71.4568 13.0815C71.4568 12.4676 71.6467 11.7133 72.0221 10.8401L74.8365 4.19664C75.1795 3.37505 75.5247 2.68814 75.8633 2.155C76.2074 1.61289 76.5951 1.17627 77.0152 0.855267C77.4397 0.532016 77.9347 0.305292 78.4877 0.181828C79.0285 0.0606095 79.6865 0 80.4429 0H87.2739C89.0827 0 90 0.682418 90 2.02705C90 2.66569 89.8101 3.44015 89.4358 4.32796L86.6203 10.9726C86.2773 11.7818 85.9354 12.4586 85.6036 12.9839C85.2662 13.5204 84.8807 13.9514 84.4595 14.2657C84.0361 14.5811 83.5411 14.8044 82.9881 14.9279C82.4473 15.0491 81.7904 15.1097 81.0329 15.1097H74.2019L74.203 15.1086ZM80.4195 4.65795C80.167 4.65795 79.9782 4.8207 79.843 5.15629L77.7392 10.0825C77.6665 10.2711 77.6587 10.3496 77.6587 10.3743C77.6587 10.4046 77.6587 10.4506 77.8285 10.4506H81.0574C81.3099 10.4506 81.4987 10.2879 81.6339 9.9523L83.7377 5.0261C83.8104 4.83641 83.8182 4.75897 83.8182 4.73427C83.8182 4.70397 83.8182 4.65683 83.6472 4.65683H80.4184L80.4195 4.65795Z" fill="#8A8A8A"/>
<path d="M27.7674 15.1368C27.6032 15.1368 27.4836 15.0852 27.4132 14.9842C27.3384 14.8764 27.335 14.7294 27.4009 14.5476L28.5618 11.8134C28.6612 11.5407 28.8668 11.3184 29.1696 11.159L31.2544 10.0748C31.2633 10.067 31.2745 10.0591 31.2857 10.0535L34.1615 8.54723C34.2442 8.5057 34.328 8.4653 34.4106 8.42601H30.8801C30.7159 8.42601 30.5963 8.37438 30.5259 8.27337C30.4511 8.16562 30.4466 8.01858 30.5136 7.83675L31.8074 4.81526C31.9169 4.51446 32.1493 4.35059 32.4733 4.35059H42.7041C42.8683 4.35059 42.9879 4.40222 43.0583 4.50323C43.1331 4.61098 43.1376 4.75802 43.0705 4.93984L41.8907 7.71329C41.76 8.00623 41.5488 8.2251 41.2606 8.36989L39.102 9.49117C39.0931 9.49902 39.0819 9.50688 39.0707 9.51249L37.5747 10.2937C37.5613 10.3004 37.5468 10.306 37.5323 10.3094L36.348 10.9413C36.2675 10.984 36.1871 11.0244 36.1066 11.0625H39.8562C40.0405 11.0625 40.1679 11.1175 40.2372 11.2275C40.3076 11.3398 40.3009 11.4868 40.2159 11.6653L38.9467 14.6722C38.8361 14.9741 38.6048 15.1368 38.2797 15.1368H27.764H27.7674Z" fill="#8A8A8A"/>
<path d="M0.679296 20C0.494947 20 0.36758 19.945 0.298309 19.835C0.227922 19.7228 0.234625 19.5758 0.319537 19.3962L1.45579 16.7136C1.56529 16.4128 1.79768 16.249 2.1228 16.249H5.43213C5.57291 16.249 5.79413 16.203 6.0835 15.809L6.49242 15.1367H2.21777C1.20664 15.1367 0 14.8392 0 13.4239C0 12.9581 0.126251 12.4283 0.374283 11.8503L2.19542 7.52346C2.43899 6.94318 2.70266 6.44596 2.98086 6.04414C3.26241 5.63558 3.58306 5.30448 3.93388 5.05867C4.28359 4.81287 4.6858 4.63104 5.12712 4.5188C5.56285 4.40768 6.07232 4.35156 6.63989 4.35156H9.74924C9.85985 4.35156 9.9671 4.39197 10.0498 4.46492L10.7045 5.04071L10.9548 4.58727C11.0352 4.44135 11.1883 4.35156 11.3536 4.35156H16.0919C16.2562 4.35156 16.3757 4.40319 16.4461 4.50421C16.521 4.61196 16.5254 4.75899 16.4584 4.94082L15.1646 7.96232C15.054 8.26312 14.8227 8.42587 14.4987 8.42587H13.8853L10.5503 15.9156C10.2207 16.6923 9.89783 17.3478 9.5917 17.8596C9.27887 18.3838 8.91688 18.8092 8.5169 19.1257C8.11356 19.4444 7.63538 19.6734 7.09574 19.8059C6.56504 19.9361 5.90585 20.0011 5.13941 20.0011H0.679296V20ZM5.5204 11.0478C5.5204 11.0478 5.54274 11.0624 5.61536 11.0624H8.06664L9.1772 8.42474H6.86782C6.7371 8.42474 6.54716 8.46852 6.39745 8.85238L5.57961 10.7638C5.53827 10.8581 5.51704 10.9434 5.51704 11.022C5.51704 11.0377 5.51928 11.0467 5.5204 11.0489V11.0478Z" fill="#8A8A8A"/>
<path d="M16.0864 15.1299C15.3334 15.1299 14.7915 14.9953 14.4295 14.7225C14.0574 14.4419 13.8697 14.0278 13.8709 13.4912C13.8709 12.9873 14.0429 12.3307 14.3803 11.5383L16.0741 7.51785C16.3322 6.9241 16.6037 6.42014 16.8808 6.02057C17.1634 5.61314 17.4841 5.28091 17.8349 5.03622C18.1857 4.79042 18.5891 4.61196 19.0315 4.50645C19.4639 4.40319 19.9622 4.35156 20.5119 4.35156L22.8447 4.35493C22.9732 4.35493 23.0994 4.39197 23.2078 4.46268L24.4435 5.2607L24.6469 4.77358C24.7519 4.52104 24.9954 4.3583 25.2681 4.3583L28.8947 4.36279C29.0589 4.36279 29.1785 4.41442 29.2489 4.51543C29.3237 4.62318 29.3271 4.77022 29.26 4.95204L26.6535 11.0725H27.1216C27.3059 11.0725 27.4333 11.1286 27.5026 11.2375C27.573 11.3497 27.5663 11.4967 27.4814 11.6752L26.2088 14.6799C26.0982 14.9807 25.8669 15.1445 25.5429 15.1445L16.0897 15.1322L16.0864 15.1299ZM19.3946 11.0455C19.3946 11.0455 19.4169 11.0601 19.4896 11.0601L21.9408 11.0635L23.0548 8.42699L20.7454 8.42362C20.6147 8.42362 20.4247 8.46739 20.275 8.85013L19.4549 10.7605C19.4136 10.8547 19.3924 10.94 19.3924 11.0175C19.3924 11.0332 19.3946 11.0422 19.3957 11.0444L19.3946 11.0455Z" fill="#8A8A8A"/>
<path d="M42.9487 15.1299C42.1957 15.1299 41.6538 14.9953 41.2918 14.7225C40.9197 14.4419 40.732 14.0278 40.7332 13.4912C40.7332 12.9873 40.9052 12.3307 41.2426 11.5383L42.9364 7.51785C43.1945 6.9241 43.4649 6.42014 43.7431 6.02057C44.0257 5.61314 44.3464 5.28091 44.6972 5.03622C45.048 4.79042 45.4514 4.61196 45.8938 4.50645C46.3262 4.40319 46.8245 4.35156 47.3742 4.35156L49.707 4.35493C49.8355 4.35493 49.9618 4.39197 50.0701 4.46268L51.3058 5.2607L51.5092 4.77358C51.6142 4.52104 51.8577 4.3583 52.1304 4.3583L55.757 4.36279C55.9212 4.36279 56.0408 4.41442 56.1112 4.51543C56.186 4.62318 56.1894 4.77022 56.1223 4.95204L53.5158 11.0725H53.9839C54.1682 11.0725 54.2956 11.1286 54.3649 11.2375C54.4353 11.3497 54.4286 11.4967 54.3437 11.6752L53.0711 14.6799C52.9605 14.9807 52.7292 15.1445 52.4052 15.1445L42.9509 15.1322L42.9487 15.1299ZM46.2569 11.0455C46.2569 11.0455 46.2793 11.0601 46.3519 11.0601L48.8032 11.0635L49.9171 8.42699L47.6077 8.42362C47.477 8.42362 47.287 8.46739 47.1362 8.85013L46.3161 10.7605C46.2748 10.8547 46.2536 10.94 46.2536 11.0175C46.2536 11.0332 46.2558 11.0422 46.2569 11.0444V11.0455Z" fill="#8A8A8A"/>
<path d="M62.7533 9.19759L60.7624 12.0406L60.759 12.1259L67.7039 9.4187L66.4604 7.64868L67.4469 5.96621C67.4671 5.95835 67.4883 5.95274 67.5095 5.95274H70.4971C71.1764 5.95274 71.659 5.98978 71.9462 6.06274C72.2322 6.13681 72.3752 6.32089 72.3752 6.61495C72.3752 6.77546 72.3316 6.9831 72.2456 7.23676C72.1584 7.49155 72.0355 7.81255 71.8758 8.19978L70.677 10.9541C70.344 11.7701 70.0111 12.4424 69.6781 12.9711C69.3452 13.4997 68.9687 13.9184 68.5497 14.2259C68.1296 14.5335 67.6469 14.7478 67.1006 14.8679C66.5543 14.988 65.9018 15.0486 65.142 15.0486H58.3491C56.6039 15.0486 55.7313 14.4268 55.7313 13.1821C55.7313 12.567 55.9179 11.824 56.2911 10.9541L59.1479 4.21078C59.4943 3.38133 59.8373 2.69891 60.1769 2.16353C60.5166 1.62814 60.8998 1.20388 61.3255 0.888483C61.7511 0.574212 62.2405 0.356467 62.7935 0.23637C63.3466 0.116274 64.0158 0.0556641 64.8013 0.0556641H73.9371C74.374 0.0556641 74.6767 0.470951 74.574 0.876137L73.736 2.76064L73.0623 4.27588C72.955 4.55648 72.7562 4.6979 72.4623 4.6979H68.4715C68.4123 4.6979 68.3787 4.63056 68.4134 4.58342L69.1631 3.55081C69.1977 3.51714 69.4569 3.19613 69.1429 3.09063H69.1396C69.0726 3.09063 69.0055 3.10297 68.943 3.12654L64.3443 4.87187L64.2806 4.89095L62.4371 5.51164V5.61714L62.7511 9.19647" fill="#8A8A8A"/>
</g>
<defs>
<clipPath id="clip0_1400_7145">
<rect width="90" height="20" fill="white"/>
</clipPath>
</defs>
</svg>
