<svg width="111" height="27" viewBox="0 0 111 27" fill="none" xmlns="http://www.w3.org/2000/svg">
<path d="M91.3413 3.28516L90.5317 1.43164L88.4941 2.85045H79.6435C78.6978 2.85045 77.8921 2.92227 77.2276 3.06717C76.5618 3.21082 75.9729 3.47165 75.461 3.8484C74.9478 4.22515 74.4876 4.73295 74.079 5.37431C73.6705 6.01441 73.2581 6.83218 72.8408 7.82509L69.4035 15.8957C69.1147 16.566 68.9205 17.1721 68.8171 17.7164L68.2207 17.8739L68.8676 19.3898C68.8915 19.454 68.918 19.5183 68.9483 19.5775L68.9596 19.6027H68.9621C69.3757 20.3953 70.3466 20.7947 71.8799 20.7947H80.0533C80.9663 20.7947 81.7518 20.7229 82.4088 20.578C83.0657 20.4343 83.647 20.1773 84.1514 19.8093C84.6558 19.4414 85.1084 18.9412 85.5094 18.3074C85.9104 17.6748 86.3101 16.8697 86.7111 15.8931L88.1536 12.5969C88.3453 12.1319 88.4941 11.7476 88.5987 11.4439C88.6555 11.2789 88.6958 11.1302 88.721 10.9979L88.895 11.0344L88.7538 10.6803C88.75 10.4762 88.687 10.3175 88.5634 10.2041L87.9027 8.55466C87.9027 8.55466 86.8738 8.48661 86.068 8.40597H88.8648C89.2166 8.40597 89.4574 8.23839 89.586 7.90195L90.3968 6.08875L91.3576 3.96558C91.3778 3.92148 91.393 3.87738 91.4043 3.83202C91.4535 3.64175 91.4257 3.44897 91.3425 3.28642L91.3413 3.28516ZM84.5599 9.90542H82.9005C82.8741 9.90542 82.8488 9.91172 82.8249 9.9218L82.4479 10.5443L82.7089 12.5326L83.0065 14.7402L81.5955 15.1711L76.4471 16.7411L75.4522 17.0448L77.1998 13.7574L77.3423 13.5205L77.3385 13.4953L77.1784 12.2982L77.0435 11.2927L76.79 9.34848L76.7825 9.34218L76.7799 9.31446L76.785 9.31068L78.2868 8.85581L79.0169 8.6353L79.0938 8.61136L83.4276 7.29965L83.9849 8.27367C83.9522 8.33037 83.9912 8.40345 84.0593 8.40345L86.15 9.90416H84.5574L84.5599 9.90542ZM82.8526 6.10262L82.0481 7.89187L84.9962 8.37069L84.1136 6.48063" fill="black"/>
<path d="M107.103 2.66211H98.7931C97.8827 2.66211 97.092 2.73519 96.4452 2.87884C95.792 3.02374 95.2082 3.28961 94.7089 3.66762C94.2108 4.04564 93.7506 4.56225 93.3408 5.20361C92.9335 5.84245 92.5174 6.66652 92.1025 7.65313L88.6778 15.6935C88.2289 16.733 88.002 17.6276 88.002 18.3509C88.002 19.8856 89.0788 20.6631 91.2022 20.6631H99.5118C100.422 20.6631 101.213 20.59 101.86 20.4463C102.512 20.3014 103.095 20.0406 103.596 19.6702C104.095 19.2997 104.552 18.7919 104.953 18.1581C105.351 17.5281 105.764 16.7166 106.178 15.7439L109.603 7.70354C110.051 6.64762 110.279 5.72905 110.279 4.97429C110.279 3.43956 109.211 2.66211 107.103 2.66211V2.66211ZM98.7641 8.01729H102.693C103.005 8.01729 103.041 8.15085 103.041 8.25165C103.041 8.33482 103.005 8.47216 102.931 8.66117L100.373 14.6186C100.184 15.0836 99.9115 15.3091 99.5408 15.3091H95.6117C95.3003 15.3091 95.2637 15.1756 95.2637 15.076C95.2637 14.9929 95.3003 14.8543 95.3734 14.6678L97.9318 8.70905C98.121 8.24409 98.3933 8.01729 98.7641 8.01729V8.01729Z" fill="black"/>
<path d="M49.4194 16.0168H44.1878C44.4778 15.9021 44.7779 15.7648 45.0856 15.6047L46.5495 14.8273H46.5659L51.0649 12.4899C51.3852 12.3299 51.6197 12.0867 51.7647 11.7666L53.1972 8.41745C53.2627 8.23978 53.2627 8.11 53.1984 8.01802C53.1404 7.93611 53.0345 7.89453 52.8832 7.89453H40.4377C40.1023 7.89453 39.8728 8.05582 39.7568 8.37083L38.1857 12.0199C38.1201 12.1963 38.1201 12.3274 38.1832 12.4193C38.2412 12.5012 38.3471 12.5441 38.4984 12.5441H43.4741C43.1689 12.665 42.8613 12.8037 42.5561 12.9561L39.057 14.7794L36.4834 16.1176C36.1468 16.294 35.9198 16.5384 35.8088 16.8408L34.3991 20.1434C34.3335 20.3198 34.3335 20.4508 34.3966 20.5428C34.4546 20.6247 34.5605 20.6663 34.7118 20.6663H47.504C47.8394 20.6663 48.0689 20.505 48.1849 20.19L49.7308 16.546C49.8128 16.3734 49.8229 16.2448 49.7649 16.1516C49.7082 16.0621 49.5959 16.018 49.4207 16.018L49.4194 16.0168Z" fill="black"/>
<path d="M19.2505 12.0665L20.8216 8.41745C20.8872 8.23978 20.8872 8.11 20.8229 8.01802C20.7649 7.93611 20.659 7.89453 20.5077 7.89453H14.7439C14.5939 7.89453 14.4539 7.97643 14.3808 8.10748L13.9911 8.80806L13.0631 7.99659C12.9874 7.92981 12.8903 7.89453 12.7895 7.89453H9.00666C8.32827 7.89453 7.7205 7.96131 7.20225 8.09236C6.68149 8.22466 6.20863 8.43761 5.79631 8.7249C5.38398 9.01345 5.0057 9.4028 4.67281 9.88288C4.33992 10.3617 4.02343 10.9552 3.73089 11.6482L1.51416 16.8849C1.2191 17.5666 1.07031 18.1878 1.07031 18.7334C1.07031 20.0149 1.93027 20.6651 3.62749 20.6651H9.07853L8.44806 21.6958C8.14922 22.1028 7.86046 22.293 7.5364 22.293H3.51149C3.17608 22.293 2.94533 22.4543 2.83058 22.7693L1.44607 26.0202C1.36411 26.1929 1.35402 26.3214 1.41203 26.4146C1.46877 26.5041 1.58099 26.5482 1.75626 26.5482H7.18334C8.10635 26.5482 8.89569 26.4701 9.52995 26.3151C10.1667 26.1588 10.7304 25.8917 11.2045 25.5187C11.6773 25.147 12.106 24.6443 12.478 24.0243C12.8462 23.4107 13.2358 22.6244 13.6356 21.6869L17.7298 12.5403H18.5671C18.9025 12.5403 19.132 12.379 19.248 12.064L19.2505 12.0665ZM7.58936 15.4586L8.58298 13.1489C8.74312 12.7407 8.97387 12.5428 9.28658 12.5428H12.3091L10.8388 16.0168H7.76337C7.53262 16.0168 7.50362 15.9147 7.50362 15.8265C7.50362 15.7131 7.53262 15.5896 7.59062 15.4586H7.58936Z" fill="black"/>
<path d="M33.9239 16.0236H33.1409L36.3928 8.4281C36.4584 8.25169 36.4584 8.12065 36.3954 8.02866C36.3374 7.94676 36.2327 7.90392 36.0801 7.90392L31.6694 7.89888C31.3957 7.89888 31.1499 8.06142 31.0439 8.31469L30.7312 9.05938L29.087 8.00346C28.9773 7.9329 28.8512 7.89636 28.7213 7.89636L25.8968 7.89258C25.2373 7.89258 24.6333 7.95432 24.1151 8.07654C23.5931 8.20003 23.1202 8.4092 22.7079 8.69648C22.2955 8.98377 21.916 9.37313 21.5819 9.8532C21.2502 10.3295 20.9249 10.9305 20.6147 11.6399L18.5531 16.5062C18.1508 17.4475 17.9453 18.2237 17.9453 18.8146C17.9453 19.4182 18.1546 19.8806 18.5695 20.1931C18.9793 20.5006 19.6287 20.6568 20.5 20.6581L31.9997 20.6719C32.3339 20.6719 32.5634 20.5106 32.6806 20.1956L34.2316 16.5541C34.3135 16.3815 34.3249 16.253 34.2656 16.1597C34.2101 16.0715 34.0941 16.0261 33.9214 16.0261L33.9239 16.0236ZM24.4681 15.4541L25.4655 13.1457C25.6257 12.7387 25.8564 12.5409 26.1691 12.5409L29.1916 12.5447L27.7163 16.0161L24.6409 16.0123C24.5476 16.0123 24.4795 15.9959 24.4379 15.9619C24.4001 15.9316 24.3811 15.8863 24.3811 15.8208C24.3811 15.7061 24.4101 15.5839 24.4681 15.4541Z" fill="black"/>
<path d="M66.6017 16.0236H65.8186L69.0706 8.4281C69.1361 8.25169 69.1361 8.12065 69.0731 8.02866C69.0151 7.94676 68.9104 7.90392 68.7579 7.90392L64.3471 7.89888C64.0735 7.89888 63.8276 8.06142 63.7217 8.31469L63.409 9.05938L61.7647 8.00346C61.655 7.9329 61.5289 7.89636 61.399 7.89636L58.5745 7.89258C57.9087 7.89258 57.3111 7.95432 56.7928 8.07654C56.2708 8.20003 55.7979 8.4092 55.3856 8.69648C54.9733 8.98377 54.5937 9.37313 54.2596 9.8532C53.928 10.3295 53.6026 10.9305 53.2925 11.6399L51.2308 16.5062C50.8273 17.4475 50.623 18.2237 50.623 18.8146C50.623 19.4182 50.8324 19.8806 51.2472 20.1931C51.657 20.5006 52.3064 20.6568 53.1777 20.6581L64.6775 20.6719H64.6787C65.0129 20.6719 65.2424 20.5106 65.3596 20.1956L66.9106 16.5541C66.9925 16.3815 67.0039 16.253 66.9446 16.1597C66.8891 16.0715 66.7731 16.0261 66.6004 16.0261L66.6017 16.0236ZM57.1459 15.4541L58.1433 13.1457C58.3034 12.7387 58.5342 12.5409 58.8469 12.5409L61.8694 12.5447L60.3941 16.0161L57.3186 16.0123C57.2253 16.0123 57.1572 15.9959 57.1156 15.9619C57.0778 15.9316 57.0589 15.8863 57.0589 15.8208C57.0589 15.7074 57.0879 15.5839 57.1459 15.4541V15.4541Z" fill="black"/>
<path d="M90.4435 19.1546C88.2369 19.1546 87.1172 18.3343 87.1172 16.7164C87.1172 15.9755 87.3479 15.0645 87.8031 14.0086L91.2278 5.96954C91.644 4.97663 92.0651 4.14626 92.4762 3.50112C92.8935 2.84716 93.3639 2.3192 93.8745 1.93236C94.389 1.54301 94.9892 1.26958 95.66 1.1209C96.317 0.974733 97.1164 0.900391 98.0356 0.900391H106.345C108.537 0.900391 109.648 1.72068 109.648 3.33857C109.648 4.10972 109.417 5.04467 108.962 6.11696L105.537 14.1573C105.12 15.1351 104.703 15.9541 104.301 16.5892C103.891 17.2356 103.425 17.756 102.913 18.1352C102.398 18.5158 101.798 18.7854 101.129 18.9328C100.472 19.079 99.6723 19.1534 98.7531 19.1534H90.4435V19.1546ZM98.0054 6.50758C97.6914 6.50758 97.4569 6.70792 97.2904 7.11996L94.7307 13.08C94.6412 13.3105 94.6324 13.4076 94.6324 13.4391C94.6324 13.4819 94.6324 13.5462 94.8543 13.5462H98.7834C99.0974 13.5462 99.3319 13.3458 99.4983 12.9338L102.058 6.97379C102.148 6.74194 102.156 6.64492 102.156 6.61468C102.156 6.57184 102.156 6.50632 101.934 6.50632H98.0054V6.50758Z" fill="#1CE2D9"/>
<path d="M106.345 1.08895C108.42 1.08895 109.458 1.83867 109.458 3.33812C109.458 4.08785 109.235 4.98878 108.787 6.04217L105.363 14.0825C104.948 15.0553 104.541 15.8579 104.142 16.4879C103.742 17.1179 103.296 17.6169 102.8 17.9836C102.305 18.3503 101.735 18.6061 101.088 18.7497C100.441 18.8933 99.6632 18.9652 98.7528 18.9652H90.4432C88.3513 18.9652 87.306 18.2154 87.306 16.716C87.306 15.9978 87.5292 15.1208 87.9768 14.0838L91.4015 6.04343C91.8164 5.0543 92.2275 4.24031 92.6347 3.60273C93.042 2.96515 93.4922 2.45862 93.9877 2.08312C94.482 1.70889 95.0532 1.44932 95.7001 1.30568C96.3469 1.16203 97.1249 1.09021 98.0353 1.09021H106.345M94.854 13.7373H98.7831C99.179 13.7373 99.4753 13.4941 99.6733 13.0064L102.232 7.04895C102.307 6.85112 102.346 6.70622 102.346 6.61549C102.346 6.41767 102.209 6.31938 101.935 6.31938H98.0063C97.6104 6.31938 97.3128 6.56257 97.1161 7.05021L94.5577 13.0077C94.4808 13.2055 94.4429 13.3504 94.4429 13.4411C94.4429 13.639 94.5804 13.7373 94.854 13.7373M106.345 0.710938H98.0353C97.1022 0.710938 96.2889 0.78654 95.6181 0.935225C94.9208 1.09021 94.2954 1.37498 93.7595 1.78071C93.2312 2.18141 92.7457 2.72574 92.3157 3.39861C91.8983 4.05257 91.4734 4.89176 91.0523 5.89601L87.6288 13.9338C87.1635 15.0124 86.9277 15.9474 86.9277 16.7147C86.9277 18.8858 88.8393 19.3419 90.4432 19.3419H98.7528C99.6859 19.3419 100.499 19.2663 101.17 19.1176C101.866 18.9639 102.49 18.6842 103.025 18.2873C103.554 17.8941 104.037 17.3574 104.46 16.6908C104.868 16.0469 105.288 15.2191 105.709 14.2324L109.134 6.19212C109.599 5.09588 109.835 4.13699 109.835 3.33938C109.835 2.14108 109.23 0.712198 106.344 0.712198L106.345 0.710938ZM94.9082 13.1476L97.4629 7.19763L97.4654 7.19007C97.6659 6.69488 97.9042 6.69488 98.0051 6.69488H101.934C101.934 6.69488 101.946 6.69488 101.951 6.69488C101.938 6.74024 101.918 6.80828 101.88 6.9053L99.3253 12.8552L99.3228 12.8615C99.1223 13.3567 98.8839 13.3567 98.7831 13.3567H94.854C94.854 13.3567 94.8426 13.3567 94.8376 13.3567C94.8502 13.3114 94.8704 13.2433 94.9082 13.1463V13.1476Z" fill="#050505"/>
<path d="M33.9548 19.1534C33.7593 19.1534 33.6181 19.0929 33.5361 18.9757C33.4479 18.8497 33.4441 18.6758 33.5235 18.4616L34.9358 15.1528C35.0556 14.8264 35.304 14.5593 35.6684 14.3678L38.2054 13.0548C38.2167 13.0447 38.2281 13.0359 38.242 13.0296L41.7411 11.2063C41.8621 11.1458 41.9832 11.0879 42.1042 11.0324H37.7414C37.5459 11.0324 37.4047 10.9719 37.3227 10.8548C37.2345 10.7288 37.2307 10.5549 37.3101 10.3394L38.8838 6.68402C39.0149 6.32617 39.2923 6.13086 39.6807 6.13086H52.1261C52.3216 6.13086 52.4616 6.19134 52.5448 6.30853C52.633 6.43453 52.6368 6.60842 52.5574 6.82388L51.1224 10.1781C50.9648 10.5284 50.7101 10.7918 50.3634 10.9656L47.7356 12.324C47.7255 12.334 47.7129 12.3416 47.699 12.3492L45.8795 13.2955C45.8643 13.303 45.8467 13.3093 45.829 13.3131L44.3853 14.0792C44.2667 14.1409 44.1507 14.1989 44.0347 14.2543H48.6611C48.8792 14.2543 49.0318 14.3186 49.1125 14.4471C49.1957 14.5782 49.1869 14.7521 49.086 14.9638L47.5426 18.6028C47.4102 18.9619 47.1328 19.1559 46.7457 19.1559H33.9535L33.9548 19.1534Z" fill="#1CE2D9"/>
<path d="M52.1266 6.31942C52.404 6.31942 52.4885 6.46558 52.38 6.75791L50.9489 10.1033C50.8102 10.4108 50.587 10.6414 50.2793 10.7951L47.6011 12.1799H47.6124L45.7929 13.1262H45.7765L44.2987 13.9112C43.9444 14.0951 43.6014 14.2501 43.271 14.3723C43.2042 14.3975 43.1361 14.4177 43.0693 14.4416H48.6628C48.9705 14.4416 49.0549 14.5878 48.9162 14.8801L47.3691 18.5254C47.2606 18.8178 47.0538 18.9639 46.7462 18.9639H33.9539C33.6765 18.9639 33.5921 18.8178 33.7005 18.5254L35.109 15.2254C35.2161 14.9331 35.4318 14.7025 35.7558 14.5336L38.342 13.1955H38.3294L41.3645 11.6141L41.8285 11.3722C42.1664 11.2033 42.5056 11.0534 42.8448 10.9224C42.9205 10.8934 42.9974 10.8694 43.073 10.8417H37.7418C37.4644 10.8417 37.3799 10.6955 37.4883 10.4032L39.0582 6.75791C39.1654 6.46558 39.3735 6.31942 39.6811 6.31942H52.1266M52.1266 5.94141H39.6811C39.2171 5.94141 38.8716 6.18081 38.7064 6.61679L37.1403 10.2533C37.1403 10.2533 37.1353 10.2659 37.1328 10.2722C37.0306 10.5494 37.042 10.78 37.1681 10.9602C37.25 11.0786 37.4165 11.2197 37.7418 11.2197H41.3027L41.1892 11.2789L38.1541 12.8603C38.1352 12.8704 38.1163 12.8817 38.0999 12.8956L35.5818 14.1985C35.1758 14.4114 34.8996 14.71 34.7584 15.0855L33.3537 18.3768C33.3537 18.3768 33.3487 18.3881 33.3462 18.3944C33.244 18.6716 33.2554 18.9022 33.3815 19.0824C33.4634 19.2008 33.6299 19.342 33.9552 19.342H46.7474C47.2114 19.342 47.5582 19.1013 47.7221 18.6653L49.263 15.0339C49.3891 14.763 49.3929 14.5311 49.2743 14.3434C49.1936 14.2161 49.0221 14.0636 48.664 14.0636H44.8182L45.9001 13.4891C45.924 13.4828 45.9467 13.4727 45.9682 13.4613L47.7877 12.515C47.8066 12.505 47.8243 12.4936 47.8419 12.481L50.4533 11.1303C50.8354 10.94 51.1191 10.6451 51.2944 10.257L51.2969 10.2507L52.728 6.90534C52.728 6.90534 52.7331 6.89274 52.7356 6.8877C52.8377 6.61049 52.8251 6.37864 52.7003 6.19971C52.6183 6.08127 52.4519 5.94141 52.1266 5.94141V5.94141Z" fill="#050505"/>
<path d="M1.00024 24.8808C0.782094 24.8808 0.62952 24.8166 0.54882 24.6881C0.465598 24.557 0.474425 24.3831 0.5753 24.1714L1.95729 20.9256C2.08969 20.5665 2.36583 20.3724 2.75546 20.3724H6.78164C7.05904 20.3724 7.31501 20.201 7.58611 19.8331L8.09805 18.9964H2.87273C1.64836 18.9964 0.189453 18.6399 0.189453 16.9388C0.189453 16.3768 0.342027 15.738 0.643391 15.0412L2.86012 9.80444C3.15518 9.10386 3.47672 8.50282 3.81465 8.01644C4.15636 7.52377 4.54473 7.12307 4.96967 6.82696C5.3946 6.53085 5.88133 6.31161 6.41722 6.17552C6.94682 6.04196 7.56468 5.97392 8.25315 5.97392H12.036C12.1671 5.97392 12.2932 6.0218 12.3928 6.10748L13.2023 6.81562L13.5163 6.25113C13.6121 6.07976 13.7924 5.97266 13.9892 5.97266H19.7529C19.9483 5.97266 20.0883 6.03314 20.1715 6.15032C20.2598 6.27633 20.2636 6.45021 20.1841 6.66568L18.6105 10.3211C18.4781 10.6789 18.2019 10.8742 17.8136 10.8742H17.0583L12.9981 19.9465C12.5971 20.8865 12.2037 21.6791 11.833 22.2965C11.4534 22.929 11.0146 23.4431 10.5291 23.8249C10.0412 24.2092 9.46113 24.4852 8.8067 24.6452C8.16236 24.8015 7.36167 24.8808 6.42983 24.8808H1.00024V24.8808ZM8.5293 10.8742C8.43599 10.8742 8.14975 10.8742 7.94296 11.4009L6.94808 13.7144C6.89638 13.8303 6.87116 13.9361 6.87116 14.0319C6.87116 14.0684 6.87116 14.0961 7.00482 14.0961H9.99703L11.3614 10.8742H8.5293V10.8742Z" fill="#1CE2D9"/>
<path d="M19.7513 6.16248C20.0287 6.16248 20.1132 6.30864 20.0048 6.60097L18.4349 10.2463C18.3265 10.5386 18.1197 10.6848 17.812 10.6848H16.9344L12.8237 19.8692C12.4228 20.8067 12.0382 21.5841 11.6687 22.199C11.2993 22.8139 10.8794 23.3066 10.4103 23.6758C9.93997 24.045 9.3902 24.3058 8.75973 24.4608C8.128 24.6145 7.35127 24.6914 6.427 24.6914H0.999924C0.692255 24.6914 0.607772 24.5452 0.746475 24.2529L2.13225 20.9995C2.23943 20.7071 2.44748 20.561 2.75515 20.561H6.78132C7.11925 20.561 7.42818 20.3682 7.74342 19.9385L8.43441 18.807H2.87242C1.20924 18.807 0.378281 18.1845 0.378281 16.9384C0.378281 16.4003 0.52455 15.793 0.817088 15.1151L3.03382 9.87708C3.32635 9.18532 3.63781 8.60066 3.96943 8.1231C4.2998 7.64681 4.66925 7.26627 5.0778 6.9815C5.48508 6.69673 5.94784 6.48883 6.46357 6.35904C6.97929 6.228 7.57571 6.16248 8.25284 6.16248H12.0357C12.1214 6.16248 12.2034 6.19398 12.2677 6.24942L13.2537 7.11129L13.6812 6.34266C13.743 6.23052 13.8615 6.16122 13.9888 6.16122H19.7526M7.00577 14.2847H10.1228L11.6473 10.6848H8.53024C8.19105 10.6848 7.9376 10.9002 7.76864 11.3312L6.77628 13.6383C6.71449 13.7769 6.68423 13.908 6.68423 14.0302C6.68423 14.199 6.79141 14.2834 7.00703 14.2834M19.7513 5.78446H13.9876C13.7228 5.78446 13.4782 5.92811 13.3495 6.15996L13.1491 6.51907L12.5148 5.96465C12.3811 5.84873 12.2109 5.78446 12.0344 5.78446H8.25158C7.54671 5.78446 6.91372 5.85377 6.369 5.99237C5.8104 6.13349 5.3035 6.36282 4.85965 6.67153C4.4158 6.9815 4.0123 7.39732 3.65672 7.90889C3.31248 8.40535 2.98464 9.01899 2.68328 9.73091L0.469069 14.9676C0.158878 15.6859 0 16.3499 0 16.9384C0 17.9628 0.498071 19.185 2.87242 19.185H7.76107L7.42944 19.7268C7.12682 20.1351 6.91498 20.183 6.78132 20.183H2.75515C2.28986 20.183 1.94437 20.4236 1.78044 20.8596L0.400978 24.0979C0.274884 24.3688 0.271102 24.6007 0.38963 24.7884C0.47033 24.9157 0.641817 25.0681 0.999924 25.0681H6.427C7.37396 25.0681 8.18979 24.9862 8.848 24.8262C9.53017 24.6599 10.1329 24.3726 10.6436 23.9719C11.1467 23.5763 11.6006 23.0445 11.9928 22.3931C12.3685 21.7681 12.7645 20.9692 13.1692 20.0192L17.179 11.0615H17.812C18.276 11.0615 18.6215 10.8221 18.7867 10.3861L20.3528 6.7484C20.3528 6.7484 20.3578 6.73579 20.3604 6.72949C20.4625 6.45229 20.4499 6.2217 20.3251 6.04151C20.2431 5.92307 20.0767 5.7832 19.7513 5.7832V5.78446ZM7.0789 13.9067C7.08899 13.8702 7.10286 13.8324 7.12052 13.792L8.1154 11.4799C8.1154 11.4799 8.11792 11.4723 8.12044 11.4685C8.28058 11.0628 8.45585 11.0628 8.53024 11.0628H11.0761L9.87188 13.9067H7.0789V13.9067Z" fill="#050505"/>
<path d="M19.7452 18.985C18.8323 18.985 18.1766 18.8237 17.7391 18.4948C17.2914 18.1584 17.0645 17.6607 17.0645 17.0155C17.0645 16.4082 17.2738 15.6144 17.6823 14.658L19.7427 9.79298C20.0567 9.07475 20.3858 8.46741 20.7224 7.98356C21.0654 7.49088 21.4538 7.09145 21.88 6.79534C22.3062 6.49923 22.7942 6.28376 23.3301 6.1565C23.8546 6.03175 24.4599 5.96875 25.1281 5.96875L27.9653 5.97253C28.1191 5.97253 28.2691 6.01663 28.399 6.09979L29.9172 7.07507L30.1719 6.46899C30.298 6.1691 30.5893 5.97631 30.9133 5.97631L35.3241 5.98135C35.5195 5.98135 35.6595 6.04183 35.7427 6.16028C35.831 6.28628 35.8348 6.46017 35.7553 6.67563L32.5765 14.1011H33.1679C33.386 14.1011 33.5373 14.1666 33.618 14.2951C33.7013 14.4262 33.6924 14.6 33.5916 14.8117L32.0431 18.4482C31.9107 18.8073 31.6333 19.0014 31.2462 19.0014L19.7452 18.9875V18.985ZM25.4119 10.8703C25.3186 10.8703 25.0336 10.8703 24.8255 11.3957L23.8269 13.7079C23.7752 13.8226 23.7499 13.9297 23.7499 14.0255C23.7499 14.0418 23.7525 14.062 23.7588 14.067C23.7613 14.0696 23.7903 14.0897 23.8849 14.0897L26.8771 14.0935L28.2452 10.8728L25.4131 10.8691L25.4119 10.8703Z" fill="#1CE2D9"/>
<path d="M25.1278 6.15857H25.1417L27.2992 6.16109H27.9662C28.0835 6.16109 28.1995 6.19637 28.2978 6.25937L30.0051 7.35687L30.3469 6.54288C30.4427 6.31481 30.6659 6.16613 30.9143 6.16613H31.8675L35.325 6.17117C35.6024 6.17117 35.6869 6.31859 35.5785 6.60966L32.29 14.2896H33.1676C33.4752 14.2909 33.5597 14.437 33.421 14.7294L31.8688 18.3734C31.7604 18.6657 31.5536 18.8106 31.2459 18.8106L28.661 18.8069H28.3357L25.7243 18.8031H25.5036L22.5417 18.7993H21.9251L19.7449 18.7955C18.8824 18.7955 18.2519 18.6431 17.8522 18.3432C17.4525 18.0433 17.2533 17.601 17.2533 17.0151C17.2533 16.4304 17.455 15.6694 17.856 14.7319L19.9176 9.86561C20.2266 9.15873 20.5469 8.56651 20.8785 8.09021C21.2101 7.61392 21.5796 7.23339 21.9881 6.94988C22.3966 6.66637 22.8581 6.46224 23.3739 6.34002C23.8858 6.21905 24.4696 6.15731 25.1266 6.15731M27.0003 14.2821L28.5286 10.6846L25.4115 10.6809C25.0736 10.6809 24.8189 10.8963 24.6499 11.326L23.6538 13.6319C23.592 13.7705 23.5618 13.9015 23.5605 14.0237C23.5605 14.1926 23.6677 14.2783 23.8833 14.2783L27.0003 14.2821ZM25.1266 5.7793C24.4444 5.7793 23.8253 5.84356 23.2869 5.97208C22.727 6.10565 22.2176 6.32993 21.7712 6.63991C21.3274 6.94862 20.9226 7.36443 20.567 7.87475C20.2228 8.36868 19.8874 8.98736 19.5709 9.71441L17.508 14.5845C17.0831 15.5774 16.8763 16.3725 16.875 17.0151C16.875 17.722 17.1259 18.2714 17.6253 18.6456C18.0968 18.9997 18.7904 19.1723 19.7449 19.1735L21.9251 19.1761H22.5417L25.5036 19.1811H25.723L28.3344 19.1849H28.6597L31.2446 19.1887C31.7099 19.1887 32.0554 18.9493 32.2206 18.5133L33.7665 14.8831C33.8926 14.6122 33.8977 14.3803 33.7791 14.1926C33.6984 14.0653 33.5269 13.9116 33.1688 13.9116H32.8637L35.9265 6.75709C35.9265 6.75709 35.9316 6.74575 35.9341 6.73945C36.0362 6.46224 36.0249 6.23165 35.8988 6.05147C35.8168 5.93302 35.6504 5.7919 35.325 5.7919L31.8675 5.78812H30.9155C30.5133 5.78686 30.1539 6.02626 29.9988 6.39546L29.8311 6.79363L28.5034 5.94058C28.3432 5.83726 28.1579 5.78308 27.9675 5.78308H27.3004L25.143 5.7793H25.1291H25.1266ZM23.9564 13.9003C23.9665 13.8637 23.9804 13.8259 23.998 13.7856L24.9954 11.4747C24.9954 11.4747 24.998 11.4671 25.0005 11.4633C25.1606 11.0576 25.3359 11.0576 25.4103 11.0576L27.9574 11.0601L26.7494 13.9028L23.9564 13.899V13.9003Z" fill="#050505"/>
<path d="M52.421 19.1412C51.5081 19.1412 50.8524 18.9799 50.4148 18.6511C49.9672 18.3146 49.7402 17.8169 49.7402 17.1718C49.7402 16.5644 49.9496 15.7706 50.3581 14.8142L52.4185 9.94923C52.7324 9.231 53.0615 8.62366 53.3982 8.13981C53.7412 7.64713 54.1296 7.2477 54.5558 6.95159C54.982 6.65548 55.4699 6.44001 56.0058 6.31275C56.5304 6.188 57.1356 6.125 57.8039 6.125L60.641 6.12878C60.7949 6.12878 60.9449 6.17288 61.0748 6.25604L62.593 7.23132L62.8477 6.62524C62.9738 6.32535 63.2638 6.13256 63.5891 6.13256L67.9999 6.1376C68.1953 6.1376 68.3353 6.19808 68.4185 6.31653C68.5068 6.44253 68.5106 6.61642 68.4311 6.83188L65.2523 14.2573H65.8437C66.0618 14.2573 66.2131 14.3228 66.2938 14.4514C66.3771 14.5824 66.3682 14.7563 66.2673 14.968L64.7189 18.6045C64.5865 18.9636 64.3091 19.1576 63.922 19.1576L52.421 19.1438V19.1412ZM58.0876 11.0266C57.9943 11.0266 57.7094 11.0266 57.5013 11.552L56.5026 13.8642C56.4509 13.9801 56.4257 14.0859 56.4257 14.1817C56.4257 14.1981 56.4282 14.2182 56.4346 14.2233C56.4371 14.2258 56.4661 14.246 56.5606 14.246L59.5529 14.2497L60.921 11.0291L58.0889 11.0253L58.0876 11.0266Z" fill="#1CE2D9"/>
<path d="M57.8036 6.31482H57.8175L59.975 6.31734H60.642C60.7593 6.31734 60.8753 6.35262 60.9736 6.41562L62.6809 7.51312L63.0226 6.69913C63.1185 6.47106 63.3417 6.32238 63.5901 6.32238H64.5433L68.0008 6.32742C68.2782 6.32742 68.3627 6.47484 68.2543 6.76591L64.9657 14.4459H65.8434C66.151 14.4471 66.2355 14.5933 66.0968 14.8856L64.5446 18.5297C64.4362 18.822 64.2294 18.9669 63.9217 18.9669L61.3368 18.9631H61.0114L58.4 18.9593H58.1794L55.2174 18.9556H54.6008L52.4207 18.9518C51.5582 18.9518 50.9277 18.7993 50.528 18.4994C50.1283 18.1995 49.9291 17.7573 49.9291 17.1713C49.9291 16.5867 50.1308 15.8256 50.5318 14.8881L52.5934 10.0219C52.9024 9.31498 53.2226 8.72276 53.5543 8.24646C53.8859 7.77017 54.2553 7.38964 54.6639 7.10613C55.0724 6.82262 55.5339 6.61849 56.0497 6.49627C56.5616 6.3753 57.1454 6.31356 57.8024 6.31356M59.6761 14.4383L61.2044 10.8409L58.0873 10.8371C57.7494 10.8371 57.4947 11.0526 57.3257 11.4823L56.3296 13.7881C56.2678 13.9267 56.2375 14.0578 56.2363 14.18C56.2363 14.3488 56.3435 14.4345 56.5591 14.4345L59.6761 14.4383ZM57.8024 5.93555C57.1202 5.93555 56.5011 5.99981 55.9626 6.12833C55.4028 6.2619 54.8934 6.48618 54.447 6.79616C54.0032 7.10487 53.5984 7.52068 53.2428 8.031C52.8986 8.52493 52.5632 9.14361 52.2467 9.87066L50.1838 14.7407C49.7588 15.7336 49.552 16.5287 49.5508 17.1713C49.5508 17.8795 49.8017 18.4276 50.301 18.8018C50.7726 19.1559 51.4661 19.3285 52.4207 19.3298L54.6008 19.3323H55.2174L58.1794 19.3374H58.3988L61.0102 19.3411H61.3355L63.9204 19.3449C64.3857 19.3449 64.7312 19.1055 64.8964 18.6695L66.4423 15.0393C66.5684 14.7684 66.5734 14.5366 66.4549 14.3488C66.3742 14.2216 66.2027 14.0679 65.8446 14.0679H65.5395L68.6023 6.91334C68.6023 6.91334 68.6073 6.902 68.6099 6.8957C68.712 6.61849 68.7006 6.3879 68.5745 6.20772C68.4926 6.08927 68.3261 5.94815 68.0008 5.94815L64.5433 5.94437H63.5913C63.1891 5.94311 62.8297 6.18251 62.6746 6.55171L62.5069 6.94988L61.1791 6.09683C61.019 5.99351 60.8337 5.93933 60.6433 5.93933H59.9762L57.8187 5.93555H57.8049H57.8024ZM56.6322 14.0565C56.6423 14.02 56.6562 13.9822 56.6738 13.9419L57.6712 11.6309C57.6712 11.6309 57.6737 11.6234 57.6763 11.6196C57.8364 11.2139 58.0117 11.2139 58.0861 11.2139L60.6332 11.2164L59.4252 14.059L56.6322 14.0553V14.0565Z" fill="#050505"/>
<path d="M20.3791 6.69336L20.8444 8.07185L20.0512 8.22179C20.0512 8.22179 19.9314 8.04412 19.8684 8.01766C19.8053 7.9912 20.1849 7.23518 20.1849 7.23518" fill="black"/>
<path d="M17.252 18.8086L18.3906 20.0321L18.2922 19.3315L17.5357 18.9535" fill="black"/>
<path d="M36.4089 8.05168L35.9563 6.69336L35.8188 7.10917L35.4405 7.73919L35.3145 8.24321H35.8188" fill="black"/>
<path d="M34.2685 16.158L33.8032 14.9219H33.8196L33.2988 16.0559L33.551 16.3079" fill="black"/>
<path d="M77.6366 6.96131L78.3743 6.73828L76.1172 7.42122L77.6366 6.96131Z" fill="#1CE2D9"/>
<path d="M90.8498 2.01373C90.87 1.96963 90.8851 1.92427 90.8977 1.87891L89.8789 4.15958L90.8511 2.01373H90.8498Z" fill="#1CE2D9"/>
<path d="M76.5155 11.9486L74.0932 15.3885L74.0895 15.4919L82.5377 12.2158L81.0246 10.0737L82.225 8.03872C82.249 8.02864 82.2755 8.02234 82.302 8.02234H85.936C86.7619 8.02234 87.3495 8.0677 87.6988 8.1559C88.0468 8.24536 88.2208 8.46839 88.2208 8.82372C88.2208 9.01777 88.1678 9.26852 88.0632 9.57597C87.9573 9.88342 87.8085 10.2728 87.613 10.7415L86.1541 14.0743C85.7494 15.0622 85.3433 15.8762 84.9386 16.515C84.5338 17.1551 84.0761 17.6604 83.5654 18.0334C83.0547 18.4063 82.4671 18.6646 81.8026 18.8108C81.1381 18.957 80.3437 19.0301 79.4207 19.0301H71.1565C69.0331 19.0301 67.9727 18.2766 67.9727 16.7708C67.9727 16.0261 68.1996 15.1277 68.6536 14.0743L72.13 5.91303C72.5511 4.90877 72.9685 4.08344 73.3821 3.43578C73.7957 2.78812 74.261 2.27402 74.7792 1.89349C75.2974 1.51296 75.8926 1.24961 76.5659 1.10471C77.238 0.958541 78.0526 0.886719 79.0084 0.886719H90.1235C90.6544 0.886719 91.0239 1.38822 90.899 1.87963L89.8802 4.16031L89.0606 5.99367C88.9307 6.33388 88.6873 6.50399 88.3318 6.50399H83.4771C83.4053 6.50399 83.3637 6.42334 83.4065 6.36538L84.3195 5.11542C84.3623 5.0751 84.6776 4.68574 84.2942 4.55848H84.2904C84.2085 4.55848 84.1278 4.5736 84.0509 4.60258L78.4561 6.71441L78.3779 6.73835L76.1347 7.48934V7.6166L76.5168 11.9486" fill="#1CE2D9"/>
<path d="M76.5155 11.9486L74.0932 15.3885L74.0895 15.4919L82.5377 12.2158L81.0246 10.0737L82.225 8.03872C82.249 8.02864 82.2755 8.02234 82.302 8.02234H85.936C86.7619 8.02234 87.3495 8.0677 87.6988 8.1559C88.0468 8.24536 88.2208 8.46839 88.2208 8.82372C88.2208 9.01777 88.1678 9.26852 88.0632 9.57597C87.9573 9.88342 87.8085 10.2728 87.613 10.7415L86.1541 14.0743C85.7494 15.0622 85.3433 15.8762 84.9386 16.515C84.5338 17.1551 84.0761 17.6604 83.5654 18.0334C83.0547 18.4063 82.4671 18.6646 81.8026 18.8108C81.1381 18.957 80.3437 19.0301 79.4207 19.0301H71.1565C69.0331 19.0301 67.9727 18.2766 67.9727 16.7708C67.9727 16.0261 68.1996 15.1277 68.6536 14.0743L72.13 5.91303C72.5511 4.90877 72.9685 4.08344 73.3821 3.43578C73.7957 2.78812 74.261 2.27402 74.7792 1.89349C75.2974 1.51296 75.8926 1.24961 76.5659 1.10471C77.238 0.958541 78.0526 0.886719 79.0084 0.886719H90.1235C90.6544 0.886719 91.0239 1.38822 90.899 1.87963L89.8802 4.16031L89.0606 5.99367C88.9307 6.33388 88.6873 6.50399 88.3318 6.50399H83.4771C83.4053 6.50399 83.3637 6.42334 83.4065 6.36538L84.3195 5.11542C84.3623 5.0751 84.6776 4.68574 84.2942 4.55848H84.2904C84.2085 4.55848 84.1278 4.5736 84.0509 4.60258L78.4561 6.71441L78.3779 6.73835L76.1347 7.48934V7.6166L76.5168 11.9486" stroke="black" stroke-width="0.3" stroke-linecap="round" stroke-linejoin="round"/>
</svg>
