<svg width="54" height="55" viewBox="0 0 54 55" fill="none" xmlns="http://www.w3.org/2000/svg">
<g clip-path="url(#clip0_9825_65607)">
<path d="M9.62444 31.8877L9.55119 31.6713L9.55387 31.624L15.9144 32.2644L15.8788 32.5734L21.6958 49.7643L21.6386 50.3403L15.678 49.7779L9.62444 31.8877Z" fill="#64F6FF"/>
<path d="M36.7957 27.5277L36.5726 27.7238L28.9993 29.3215L43.7909 15.5022L51.4562 13.8177L45.5479 19.3426L40.7661 23.809L36.7957 27.5277Z" fill="#C1FCFF"/>
<path d="M49.4032 8.46347L43.7924 15.5021L23.9571 14.9677L29.463 8.447L49.4032 8.46347Z" fill="#9BFAFF"/>
<path d="M45.5928 19.3925L51.7451 37.5741L47.2895 41.7631L46.8214 41.2628L41.0044 24.0718L40.7662 23.8092L45.548 19.3427L45.5928 19.3925Z" fill="#12C2CD"/>
<path d="M43.7913 15.5022L28.9997 29.3215L28.9607 29.344L28.8153 29.3282L23.9561 14.9678L43.7913 15.5022Z" fill="#068C94"/>
<path d="M46.8201 41.2626L47.2882 41.7629L43.0752 45.7307L42.8846 45.5261L36.7944 27.5277L40.7648 23.809L41.0031 24.0716L46.8201 41.2626Z" fill="#068C94"/>
<path d="M42.8856 45.5259L43.0762 45.7305L36.6578 51.762L36.5907 51.7569L28.999 29.3213L36.5723 27.7236L36.7954 27.5275L42.8856 45.5259Z" fill="#12C2CD"/>
<path d="M28.9606 29.3441L28.9997 29.3216L36.5913 51.7572L27.396 50.8791L27.4125 50.7622L21.5927 33.5629L21.6607 32.8533L21.7278 32.8585L28.9606 29.3441Z" fill="#64F6FF"/>
<path d="M28.8136 29.3283L28.959 29.344L21.7261 32.8584L21.659 32.8533L15.9136 32.2645L9.55312 31.624L1.44245 30.8057L8.58319 27.3503L28.8136 29.3283Z" fill="#C1FCFF"/>
<path d="M23.9558 14.968L28.815 29.3285L8.58461 27.3505L23.9558 14.968Z" fill="#12C2CD"/>
<path d="M23.9552 14.9682L8.58401 27.3506L0.850161 25.2729L16.579 12.8436L23.9552 14.9682Z" fill="#9BFAFF"/>
<path d="M15.9134 32.2642L21.6588 32.853L21.5908 33.5626L27.4106 50.7619L27.3942 50.8788L21.6377 50.3401L21.6949 49.7641L15.8779 32.5732L15.9134 32.2642Z" fill="#068C94"/>
<path d="M9.54977 31.6714L9.62301 31.8878L15.6766 49.778L21.6372 50.3404L27.3937 50.8791L36.589 51.7572L36.6561 51.7623L43.0745 45.7308L47.2875 41.763L51.743 37.574L45.5908 19.3925" stroke="#0B6C72" stroke-width="1.5" stroke-linecap="round" stroke-linejoin="round"/>
<path d="M36.5981 51.7821L36.5897 51.7571L28.998 29.3215L28.959 29.344L21.7261 32.8584L21.659 32.8533L15.9136 32.2645L9.55312 31.624L1.44245 30.8057L8.58319 27.3503L28.8136 29.3283L28.959 29.344L28.9869 29.3439" stroke="#0B6C72" stroke-width="1.5" stroke-linecap="round" stroke-linejoin="round"/>
<path d="M8.58401 27.3506L0.850161 25.2729L16.579 12.8436L23.9552 14.9682L8.58401 27.3506Z" stroke="#0B6C72" stroke-width="1.5" stroke-linecap="round" stroke-linejoin="round"/>
<path d="M23.9571 14.9677L43.7924 15.5021L49.4032 8.46347L29.463 8.447L23.9571 14.9677Z" stroke="#0B6C72" stroke-width="1.5" stroke-linecap="round" stroke-linejoin="round"/>
<path d="M28.9993 29.3215L43.7909 15.5022L51.4562 13.8177L45.5479 19.3426L40.7661 23.809L36.7957 27.5277L36.5726 27.7238L28.9993 29.3215Z" stroke="#0B6C72" stroke-width="1.5" stroke-linecap="round" stroke-linejoin="round"/>
<path d="M23.9561 14.9678L28.8153 29.3282L28.8322 29.3782" stroke="#0B6C72" stroke-width="1.5" stroke-linecap="round" stroke-linejoin="round"/>
<path d="M2.01562 6.57275L34.0388 0.69721L38.093 19.6813L28.5446 28.5009L15.4908 27.1923L2.01562 6.57275Z" fill="url(#paint0_linear_9825_65607)"/>
<circle cx="32.7921" cy="17.5067" r="1.62338" transform="rotate(-18.6946 32.7921 17.5067)" fill="#C1FCFF" stroke="#0B6C72" stroke-width="1.5"/>
<path d="M21.8963 15.6596L24.7798 17.628L28.2548 17.6423L27.2792 20.9791L28.3413 24.3029L24.8555 24.405L22.024 26.4405L20.8607 23.1509L18.0482 21.0959L20.8118 18.9707L21.8963 15.6596Z" fill="#12C2CD" stroke="#0B6C72" stroke-width="1.5" stroke-linecap="round" stroke-linejoin="round"/>
<path d="M25.4616 8.78855C25.4616 8.78855 27.0721 10.8884 29.2783 12.0731C29.2783 12.0731 28.6246 14.2369 27.5089 14.8387C27.5089 14.8387 24.5887 13.9015 22.8272 11.301C22.8272 11.301 24.242 9.95262 25.4616 8.78855Z" fill="#64F6FF" stroke="#0B6C72" stroke-width="1.5" stroke-linecap="round" stroke-linejoin="round"/>
</g>
<defs>
<linearGradient id="paint0_linear_9825_65607" x1="20.7376" y1="3.58095" x2="29.1055" y2="28.3107" gradientUnits="userSpaceOnUse">
<stop stop-color="#91EFFF" stop-opacity="0"/>
<stop offset="1" stop-color="#91EFFF"/>
</linearGradient>
<clipPath id="clip0_9825_65607">
<rect width="54" height="54" fill="white" transform="translate(0 0.217529)"/>
</clipPath>
</defs>
</svg>
