<svg width="24" height="24" viewBox="0 0 24 24" fill="none" xmlns="http://www.w3.org/2000/svg">
<g id="Group 1171275222">
<circle id="Ellipse 252" cx="12" cy="12" r="12" fill="#363841"/>
<g id="Group 1171275201">
<path id="Vector" d="M6.90642 10.6289C7.38011 8.10394 9.56465 6.27018 12.1019 6.27018C14.3192 6.27018 16.3173 7.70608 17.0707 9.79999L16.0175 9.20574L15.5262 10.0958L17.809 11.3864L19.4996 9.3001L18.7211 8.65229L18.0332 9.49904C17.1438 6.94859 14.7879 5.25 12.1019 5.25C9.00529 5.25 6.39241 7.49439 5.88848 10.5855L5.86328 10.7335H6.88626L6.90642 10.6289Z" fill="#A5A5A5"/>
<path id="Vector_2" d="M17.7329 12.7109C17.2427 15.2884 14.9673 17.1602 12.3276 17.1602C10.1125 17.1602 8.12018 15.8299 7.26297 13.8174L8.1228 14.2938L8.63398 13.3852L6.25897 12.0679L4.5 14.1975L5.31002 14.8588L6.14887 13.8434C7.06899 16.4599 9.52264 18.2042 12.3276 18.2042C15.5493 18.2042 18.2677 15.9132 18.792 12.7578L18.8182 12.6068H17.7539L17.7329 12.7135V12.7109Z" fill="#A5A5A5"/>
</g>
</g>
</svg>
