<svg width="11" height="13" viewBox="0 0 11 13" fill="none" xmlns="http://www.w3.org/2000/svg">
<path d="M9.99629 2.85969C10.0144 2.8775 10.0131 2.90544 10.0345 2.92163C10.0916 3.01111 10.1409 3.10422 10.1885 3.19856C10.2251 3.27143 10.2687 3.34107 10.3023 3.41515C10.3586 3.53337 10.4063 3.65524 10.4564 3.77629C10.5036 3.89086 10.5435 4.00827 10.5903 4.12325C10.6246 4.1974 10.654 4.27368 10.6782 4.35159C10.714 4.49046 10.7485 4.62932 10.776 4.77062C10.7965 4.87629 10.8171 4.98196 10.8347 5.08844C10.8635 5.2852 10.8923 5.48196 10.9112 5.68034C10.9243 5.81394 10.9379 5.94714 10.9473 6.08074C10.9596 6.24835 10.9662 6.41678 10.9724 6.5852C10.9785 6.75362 10.9793 6.93256 10.9769 7.10625C10.9776 7.25756 10.9699 7.4088 10.9539 7.55928C10.9376 7.79813 10.902 8.03532 10.8475 8.26859C10.8125 8.42579 10.7533 8.57679 10.6721 8.71637C10.6595 8.73932 10.6407 8.75836 10.6178 8.77137C10.5948 8.78438 10.5687 8.79085 10.5422 8.79005C10.2489 8.80787 9.95521 8.83054 9.66148 8.85362C9.32873 8.88061 8.9957 8.9076 8.6624 8.93459C8.51492 8.94674 8.36703 8.95848 8.21955 8.97508C8.17354 8.98034 8.15588 8.96697 8.14355 8.93013C8.07002 8.71434 7.99977 8.49774 7.91884 8.28236C7.7956 7.95847 7.63621 7.64997 7.39013 7.39167C7.25977 7.2605 7.13922 7.12018 7.02945 6.97183C6.86715 6.73489 6.74698 6.47243 6.6741 6.19572C6.59599 5.89717 6.54418 5.59253 6.51922 5.2852C6.48593 4.96756 6.47604 4.64797 6.48965 4.32892C6.51142 3.85767 6.58249 3.39248 6.7846 2.94511C6.93085 2.62123 7.13749 2.33783 7.4534 2.12932C7.58804 2.04754 7.73404 1.98549 7.8868 1.94512C8.52396 1.74795 9.06704 1.8686 9.52386 2.27953C9.60027 2.34836 9.66764 2.42446 9.7383 2.49815C9.81589 2.58349 9.88559 2.67549 9.94658 2.77305C9.96548 2.79856 9.99588 2.82244 9.99629 2.85969Z" fill="#7A787E"/>
<path d="M10.856 10.738C10.8347 11.1372 10.7488 11.5247 10.5274 11.8842C10.3964 12.1053 10.2062 12.2867 9.97774 12.4085C9.81533 12.4978 9.63409 12.5487 9.44831 12.5572C9.26253 12.5657 9.07728 12.5316 8.90718 12.4575C8.63479 12.3429 8.40777 12.1439 8.26057 11.8907C8.05147 11.5478 7.97834 11.17 7.97711 10.7737C7.97711 10.366 8.05927 9.96719 8.18252 9.57165C8.18396 9.56207 8.18733 9.55288 8.19244 9.54462C8.19754 9.53635 8.20428 9.52917 8.21224 9.52351C8.2202 9.51785 8.22924 9.51382 8.23881 9.51166C8.24838 9.50949 8.25829 9.50924 8.26796 9.51092C8.95196 9.51375 9.63718 9.47327 10.322 9.45059C10.43 9.44735 10.5381 9.44573 10.6461 9.4433C10.6704 9.45869 10.7053 9.42711 10.7283 9.45302C10.7513 9.47893 10.7377 9.50403 10.7451 9.52832C10.7747 9.64067 10.7968 9.75482 10.8113 9.87003C10.836 10.031 10.8519 10.1932 10.8589 10.3559C10.8618 10.4826 10.8548 10.6105 10.856 10.738Z" fill="#7A787E"/>
<path d="M0.421714 5.34826C0.449101 5.02195 0.492371 4.69806 0.551527 4.3766C0.603837 4.09644 0.664911 3.81857 0.734748 3.543C0.79185 3.32195 0.85265 3.1017 0.922487 2.8847C0.977946 2.71264 1.04162 2.54381 1.10324 2.37417C1.17472 2.1766 1.28523 1.99968 1.3908 1.81912C1.51651 1.6009 1.64345 1.38389 1.79093 1.17863C1.85748 1.08268 1.92732 0.988344 2.00126 0.895226C2.05713 0.82721 2.11588 0.760411 2.17668 0.695634C2.26063 0.605213 2.35008 0.519898 2.44452 0.440166C2.52044 0.37513 2.60103 0.315595 2.68567 0.262027C3.04512 0.0312582 3.44278 -0.0618561 3.89632 0.0425973C4.17877 0.105307 4.44398 0.227846 4.67356 0.401706C4.85766 0.547902 5.00488 0.734147 5.10367 0.945833C5.29018 1.31749 5.35385 1.70616 5.36618 2.1009C5.37412 2.52443 5.33165 2.94743 5.23965 3.36122C5.16649 3.72355 5.06429 4.07959 4.93401 4.42599C4.75946 4.90045 4.44627 5.31336 4.03393 5.61264C3.82275 5.77035 3.63999 5.96196 3.49331 6.17944C3.29982 6.45595 3.15892 6.76041 3.00035 7.05555C2.99732 7.06536 2.99219 7.07442 2.9853 7.08211C2.97842 7.08981 2.96994 7.09595 2.96043 7.10013C2.95093 7.10432 2.94063 7.10644 2.93022 7.10637C2.91981 7.10629 2.90955 7.104 2.90011 7.09968C2.64459 7.0345 2.38824 6.97336 2.1319 6.91304C1.87556 6.85272 1.61469 6.79482 1.35589 6.73571C1.29557 6.72868 1.23593 6.71676 1.1776 6.70008C1.00506 6.65676 0.830466 6.62437 0.657516 6.58186C0.639001 6.57524 0.620062 6.56984 0.600825 6.56567C0.555636 6.57094 0.547832 6.53531 0.535097 6.5094C0.479755 6.38891 0.443855 6.26064 0.428697 6.12923C0.404609 5.92773 0.397191 5.72463 0.406514 5.52195C0.404352 5.46366 0.409457 5.40533 0.421714 5.34826Z" fill="#7A787E"/>
<path d="M0.0117336 8.55395C0.0268722 8.38152 0.0551607 8.21045 0.0963596 8.04221C0.153316 7.80881 0.224375 7.57898 0.309157 7.35395C0.324768 7.30941 0.345718 7.28958 0.400355 7.30496C0.454992 7.32034 0.505931 7.32641 0.558925 7.33654C0.723248 7.36973 0.890448 7.39808 1.056 7.42965C1.17924 7.45314 1.30495 7.47905 1.42942 7.50213C1.5806 7.52966 1.73137 7.55881 1.88131 7.58715L2.2457 7.65314C2.41002 7.68269 2.57024 7.71103 2.73333 7.73168C2.80891 7.74139 2.81549 7.74544 2.82904 7.81265C2.85492 7.95678 2.86355 8.10132 2.88039 8.24545C2.89436 8.35759 2.88943 8.46933 2.89272 8.58107C2.89578 8.68431 2.88891 8.78761 2.87218 8.88957C2.84518 9.14669 2.77955 9.39843 2.67745 9.63654C2.51642 9.99605 2.2802 10.2969 1.89692 10.4709C1.52268 10.6414 1.1357 10.6414 0.749129 10.4248C0.505017 10.283 0.311537 10.0702 0.195363 9.81548C0.0939742 9.60445 0.0316491 9.37727 0.0113224 9.14463C0.00106342 9.01142 -0.00222699 8.87777 0.00146344 8.74423C0.00187425 8.68067 0.00926876 8.61751 0.0117336 8.55395Z" fill="#7A787E"/>
</svg>
