<svg width="30" height="42" viewBox="0 0 30 42" fill="none" xmlns="http://www.w3.org/2000/svg">
<g id="Group 1171277204">
<path id="Vector 4362 (Stroke)" fill-rule="evenodd" clip-rule="evenodd" d="M15.4291 4C12.2375 4 9.65026 6.6735 9.65026 9.97143V15.3333H5.7793V9.97143C5.7793 4.46436 10.0996 0 15.4291 0C20.7585 0 25.0788 4.46437 25.0788 9.97143V15.3333H21.2079V9.97143C21.2079 6.6735 18.6206 4 15.4291 4Z" fill="#5C5F6E"/>
<path id="Rectangle 40985" d="M0 18.4443C0 16.2352 1.73309 14.4443 3.87097 14.4443H26.129C28.2669 14.4443 30 16.2352 30 18.4443V37.9999C30 40.209 28.2669 41.9999 26.129 41.9999H3.87097C1.73309 41.9999 0 40.209 0 37.9999V18.4443Z" fill="url(#paint0_linear_9032_73381)"/>
<g id="Group 1171277142">
<path id="Ellipse 1800" d="M19.713 23.3334C19.713 25.788 17.7943 27.7778 15.4273 27.7778C13.0604 27.7778 11.1416 25.788 11.1416 23.3334C11.1416 20.8788 13.0604 18.8889 15.4273 18.8889C17.7943 18.8889 19.713 20.8788 19.713 23.3334Z" fill="#0C6F75"/>
<path id="Rectangle 40986" d="M13.7129 23.3271C13.7129 22.3488 14.4804 21.5557 15.4272 21.5557C16.374 21.5557 17.1415 22.3488 17.1415 23.3271V32.2287C17.1415 33.207 16.374 34.0001 15.4272 34.0001C14.4804 34.0001 13.7129 33.207 13.7129 32.2287V23.3271Z" fill="#0C6F75"/>
</g>
</g>
<defs>
<linearGradient id="paint0_linear_9032_73381" x1="6.43226" y1="19.5299" x2="22.3184" y2="38.1045" gradientUnits="userSpaceOnUse">
<stop stop-color="#0EE6F3"/>
<stop offset="1" stop-color="#0EF3D8"/>
</linearGradient>
</defs>
</svg>
