<svg width="21" height="21" viewBox="0 0 21 21" fill="none" xmlns="http://www.w3.org/2000/svg">
<path fill-rule="evenodd" clip-rule="evenodd" d="M21 10.5C21 16.299 16.299 21 10.5 21C4.70101 21 0 16.299 0 10.5C0 4.70101 4.70101 0 10.5 0C16.299 0 21 4.70101 21 10.5ZM10.5 13.44C7.07719 13.44 5.22828 15.0543 4.49077 16.2272C4.28204 16.5592 4.37201 16.9832 4.63425 17.2747C5.42164 18.1501 6.64471 19.32 10.5 19.32C13.6784 19.32 15.6351 18.0776 16.4769 17.1954C16.699 16.9628 16.7393 16.6174 16.5773 16.3395C15.8896 15.1603 14.0335 13.44 10.5 13.44ZM10.5 11.76C12.5876 11.76 14.28 10.0676 14.28 7.98C14.28 5.89236 12.5876 4.2 10.5 4.2C8.41236 4.2 6.72 5.89236 6.72 7.98C6.72 10.0676 8.41236 11.76 10.5 11.76Z" fill="#A4A4A4"/>
</svg>
