<svg width="22" height="22" viewBox="0 0 22 22" fill="none" xmlns="http://www.w3.org/2000/svg">
<circle cx="11" cy="11" r="11" fill="#FFB6CE"/>
<path d="M10.7572 18.1991C9.83335 18.1991 8.98021 17.965 8.21865 17.5017C5.54176 15.8737 4.9584 11.8994 6.91953 8.6424C8.2754 6.39005 10.5262 4.99121 12.792 4.99121C13.7158 4.99121 14.5689 5.22535 15.3305 5.68863C18.0074 7.31661 18.5907 11.291 16.6296 14.5479C15.2737 16.8003 13.0239 18.2001 10.7572 18.2001V18.1991Z" fill="#EF6A9D"/>
<path d="M12.7919 4.69141V5.29177C13.66 5.29177 14.4614 5.5119 15.1752 5.94516C17.7117 7.48708 18.2493 11.2764 16.3737 14.3922C15.7237 15.4729 14.8417 16.3714 13.8233 16.9908C12.8457 17.5851 11.7855 17.8993 10.7572 17.8993C9.88908 17.8993 9.08671 17.6792 8.37393 17.2459C7.16341 16.5095 6.36602 15.2387 6.12809 13.6668C5.8842 12.0538 6.25651 10.3258 7.17536 8.79887C7.82541 7.71822 8.70743 6.81968 9.72582 6.20031C10.7034 5.60596 11.7636 5.29177 12.7919 5.29177V4.69141ZM12.7919 4.69141C10.5133 4.69141 8.11311 6.08124 6.66367 8.48868C4.61494 11.8927 5.24111 16.0442 8.06433 17.7602C8.8906 18.2625 9.81342 18.5007 10.7572 18.5007C13.0358 18.5007 15.436 17.1109 16.8854 14.7034C18.9342 11.2994 18.308 7.14788 15.4848 5.43185C14.6585 4.92955 13.7357 4.69141 12.7919 4.69141Z" fill="#971A4A"/>
<path d="M8.79806 17.0087C7.87424 17.0087 7.0211 16.7746 6.25954 16.3113C3.58265 14.6833 3.00029 10.7089 4.96042 7.452C6.31629 5.19964 8.56711 3.7998 10.8329 3.7998C11.7567 3.7998 12.6098 4.03395 13.3714 4.49722C16.0483 6.1252 16.6316 10.0996 14.6705 13.3565C13.3146 15.6089 11.0648 17.0087 8.79806 17.0087Z" fill="#FF8FB4"/>
<path d="M10.8328 3.5V4.10036C11.7008 4.10036 12.5022 4.32049 13.216 4.75375C14.4265 5.49019 15.2239 6.76096 15.4618 8.3329C15.7057 9.94587 15.3334 11.6739 14.4146 13.2008C13.7645 14.2815 12.8825 15.18 11.8641 15.7994C10.8865 16.3937 9.82632 16.7079 8.79797 16.7079C7.9299 16.7079 7.12753 16.4878 6.41475 16.0545C3.87823 14.5126 3.34066 10.7233 5.21617 7.60746C5.86623 6.52682 6.74824 5.62828 7.76664 5.00891C8.74422 4.41455 9.80442 4.10036 10.8328 4.10036V3.5ZM10.8328 3.5C8.55408 3.5 6.15393 4.88983 4.70548 7.29728C2.65576 10.7013 3.28292 14.8518 6.10515 16.5688C6.93142 17.0711 7.85424 17.3093 8.79797 17.3093C11.0767 17.3093 13.4768 15.9195 14.9262 13.512C16.975 10.108 16.3488 5.95647 13.5256 4.24044C12.6993 3.73814 11.7765 3.5 10.8328 3.5Z" fill="#971A4A"/>
<path d="M6.1356 16.1126L5.9295 16.4551L8.37923 17.9445L8.58533 17.6021L6.1356 16.1126Z" fill="#971A4A"/>
<path d="M13.4992 4.24022L13.19 4.75391L15.6397 6.24336L15.9489 5.72967L13.4992 4.24022Z" fill="#971A4A"/>
<path d="M15.5382 6.5742L15.2291 7.08789L17.1337 8.24589L17.4428 7.7322L15.5382 6.5742Z" fill="#971A4A"/>
<path d="M15.9367 8.57518L15.6276 9.08887L17.5321 10.2469L17.8413 9.73318L15.9367 8.57518Z" fill="#971A4A"/>
<path d="M15.9361 10.7763L15.627 11.29L17.5315 12.448L17.8407 11.9344L15.9361 10.7763Z" fill="#971A4A"/>
<path d="M14.8413 13.1767L14.5321 13.6904L16.4367 14.8484L16.7458 14.3347L14.8413 13.1767Z" fill="#971A4A"/>
<path d="M13.0494 15.0781L12.7403 15.5918L14.6449 16.7498L14.954 16.2361L13.0494 15.0781Z" fill="#971A4A"/>
<path d="M11.2581 16.1787L10.949 16.6924L12.8536 17.8504L13.1627 17.3367L11.2581 16.1787Z" fill="#971A4A"/>
<path d="M9.46595 16.7793L9.1568 17.293L11.0614 18.451L11.3705 17.9373L9.46595 16.7793Z" fill="#971A4A"/>
<path d="M8.6965 8.56348L8.5203 9.439H7.56861L7.07384 11.9165H5.96984L6.4646 9.439H5.51788L5.69409 8.56348H8.6975H8.6965Z" fill="#971A4A"/>
<path d="M10.0623 8.56348L9.39633 11.9165H8.29233L8.95832 8.56348H10.0623Z" fill="#971A4A"/>
<path d="M13.9269 8.56348L12.4515 9.95531L13.2937 11.9165H12.0135L11.5566 10.7928L11.1186 11.2091L10.9762 11.9175H9.87219L10.5382 8.56448H11.6422L11.3993 9.78421L12.6128 8.56448H13.9269V8.56348Z" fill="#971A4A"/>
</svg>
