<svg width="22" height="22" viewBox="0 0 22 22" fill="none" xmlns="http://www.w3.org/2000/svg">
<circle cx="11" cy="11" r="11" fill="#FF6100"/>
<g clip-path="url(#clip0_542_3924)">
<path d="M7.23877 12.334L7.25182 12.3415L7.23877 12.334Z" fill="#C0C0C0"/>
<path d="M7.23877 12.334L7.25182 12.3415L7.23877 12.334Z" fill="url(#paint0_linear_542_3924)"/>
<path d="M12.2679 4L6.17279 9.07594C6.02339 9.2007 5.96392 9.40762 6.02339 9.59587L6.7298 11.8302C6.75083 11.8974 6.78129 11.9602 6.81973 12.0169C6.84729 12.0573 6.87848 12.0939 6.91329 12.1275C6.95898 12.1716 7.01048 12.2104 7.06705 12.241L7.23894 12.3337C7.11999 12.2694 7.06342 12.1432 7.07285 12.0214C7.07938 11.9377 7.11637 11.8563 7.18744 11.7973L8.42983 10.7627L8.66481 10.567L8.82655 10.4325L13.1608 6.82296L12.2679 4Z" fill="white"/>
<path d="M8.42896 10.7631L8.66394 10.5674L8.42896 10.7631Z" fill="#AEAEAE"/>
<path d="M8.42896 10.7631L8.66394 10.5674L8.42896 10.7631Z" fill="url(#paint1_linear_542_3924)"/>
<path opacity="0.4" d="M8.9939 10.7452L8.6639 10.5674L8.42891 10.7631L7.18653 11.7977C7.11545 11.8567 7.07846 11.9381 7.07193 12.0218C7.06251 12.1443 7.11908 12.2706 7.23802 12.3341L7.2518 12.3415L9.64374 13.6331L11.491 12.0943L8.99317 10.7459L8.9939 10.7452Z" fill="white"/>
<path d="M15.9761 13.1306L15.5873 10.7671C15.5728 10.6774 15.5417 10.5908 15.4981 10.5123C15.4713 10.4645 15.4401 10.4182 15.4017 10.3794C15.3937 10.3711 15.385 10.3652 15.377 10.3577C15.3509 10.3338 15.3241 10.3114 15.2943 10.2912C15.2733 10.2763 15.2515 10.2613 15.2283 10.2494L15.1935 10.2314C15.2124 10.2449 15.2269 10.2621 15.2407 10.28C15.3125 10.3764 15.3067 10.522 15.2102 10.6079L15.1116 10.6946H15.1108L15.0659 10.7327L15.0144 10.776L13.6436 11.9361L13.5406 12.0235L13.339 12.1938L8.62622 16.1836L9.54078 18.9999L15.8296 13.652C15.9783 13.5258 16.0363 13.3188 15.9754 13.1306H15.9761Z" fill="white"/>
<path opacity="0.4" d="M15.2413 10.2801V10.2838C15.2413 10.2838 15.2428 10.286 15.2428 10.2868C15.2428 10.2845 15.242 10.2823 15.2413 10.2801C15.2283 10.2621 15.213 10.2457 15.1942 10.2315L15.1615 10.2143L15.1064 10.1859L15.0673 10.1658C15.0636 10.1635 15.06 10.1605 15.0557 10.159L15.0078 10.1344L14.9186 10.0888L13.3875 9.30371L11.5519 10.8575L13.236 11.7263L13.3404 11.7801L13.5261 11.8757L13.6443 11.9362L14.9418 10.8373L15.015 10.7753L15.0665 10.732L15.1115 10.6939H15.1122L15.2109 10.6072C15.308 10.5213 15.3131 10.3757 15.2413 10.2793V10.2801Z" fill="white"/>
<path d="M13.6436 11.9365L15.0143 10.7764L14.9418 10.8384L13.6436 11.9365Z" fill="#9A9A9A"/>
</g>
<defs>
<linearGradient id="paint0_linear_542_3924" x1="7.07123" y1="12.3377" x2="7.29171" y2="12.3377" gradientUnits="userSpaceOnUse">
<stop offset="0.31" stop-color="white"/>
<stop offset="0.73" stop-color="#E4E4E4"/>
</linearGradient>
<linearGradient id="paint1_linear_542_3924" x1="6.00003" y1="10.6652" x2="13.1599" y2="10.6652" gradientUnits="userSpaceOnUse">
<stop offset="0.31" stop-color="white"/>
<stop offset="0.73" stop-color="#E4E4E4"/>
</linearGradient>
<clipPath id="clip0_542_3924">
<rect width="10" height="15" fill="white" transform="translate(6 4)"/>
</clipPath>
</defs>
</svg>
