<?xml version="1.0" encoding="UTF-8"?>
<svg id="_레이어_1" data-name="레이어 1" xmlns="http://www.w3.org/2000/svg" xmlns:xlink="http://www.w3.org/1999/xlink" viewBox="0 0 174 174">
  <defs>
    <linearGradient id="_무제_그라디언트_121" data-name="무제 그라디언트 121" x1="94.66" y1="23.87" x2="143.25" y2="23.87" gradientUnits="userSpaceOnUse">
      <stop offset="0" stop-color="#868589"/>
      <stop offset="1" stop-color="#5a5a64"/>
    </linearGradient>
    <linearGradient id="_무제_그라디언트_27" data-name="무제 그라디언트 27" x1="80.57" y1="25.37" x2="141.6" y2="25.37" gradientUnits="userSpaceOnUse">
      <stop offset="0" stop-color="#2e2e2e"/>
      <stop offset=".79" stop-color="#000"/>
      <stop offset="1" stop-color="#171717"/>
    </linearGradient>
    <linearGradient id="_무제_그라디언트_13" data-name="무제 그라디언트 13" x1="69.19" y1="50.43" x2="118.26" y2="50.43" gradientUnits="userSpaceOnUse">
      <stop offset=".07" stop-color="#f0f0f0"/>
      <stop offset=".24" stop-color="#c8c8c8"/>
      <stop offset=".61" stop-color="#868589"/>
      <stop offset="1" stop-color="#999"/>
    </linearGradient>
    <linearGradient id="_무제_그라디언트_125" data-name="무제 그라디언트 125" x1="64.7" y1="119.79" x2="107.05" y2="119.79" gradientUnits="userSpaceOnUse">
      <stop offset=".03" stop-color="#6428da"/>
      <stop offset=".16" stop-color="#722de2"/>
      <stop offset=".41" stop-color="#7e51ed"/>
      <stop offset=".68" stop-color="#9266ef"/>
      <stop offset="1" stop-color="#7841e8"/>
    </linearGradient>
    <linearGradient id="_무제_그라디언트_27-2" data-name="무제 그라디언트 27" x1="63.84" y1="155.45" x2="106.25" y2="155.45" xlink:href="#_무제_그라디언트_27"/>
    <linearGradient id="_무제_그라디언트_27-3" data-name="무제 그라디언트 27" x1="80.78" y1="104.98" x2="105.49" y2="104.98" xlink:href="#_무제_그라디언트_27"/>
    <linearGradient id="_무제_그라디언트_125-2" data-name="무제 그라디언트 125" x1="82.17" y1="31.72" x2="103.41" y2="31.72" xlink:href="#_무제_그라디언트_125"/>
    <linearGradient id="_무제_그라디언트_13-2" data-name="무제 그라디언트 13" x1="64.39" y1="159.35" x2="99.39" y2="159.35" xlink:href="#_무제_그라디언트_13"/>
    <linearGradient id="_무제_그라디언트_153" data-name="무제 그라디언트 153" x1="87.13" y1="30.3" x2="97.88" y2="30.3" gradientUnits="userSpaceOnUse">
      <stop offset="0" stop-color="#7e51ed"/>
      <stop offset=".42" stop-color="#96f"/>
      <stop offset="1" stop-color="#844ef0"/>
    </linearGradient>
    <linearGradient id="_무제_그라디언트_86" data-name="무제 그라디언트 86" x1="91.58" y1="127.73" x2="97.03" y2="127.73" gradientUnits="userSpaceOnUse">
      <stop offset="0" stop-color="#c8c8c8"/>
      <stop offset=".61" stop-color="#868589"/>
      <stop offset="1" stop-color="#999"/>
    </linearGradient>
    <linearGradient id="_무제_그라디언트_10" data-name="무제 그라디언트 10" x1="82.42" y1="71.15" x2="94.66" y2="71.15" gradientUnits="userSpaceOnUse">
      <stop offset="0" stop-color="#1f1f1f"/>
      <stop offset="1" stop-color="#000"/>
    </linearGradient>
    <linearGradient id="_무제_그라디언트_121-2" data-name="무제 그라디언트 121" x1="73.14" y1="39.79" x2="94.22" y2="39.79" xlink:href="#_무제_그라디언트_121"/>
    <linearGradient id="_무제_그라디언트_86-2" data-name="무제 그라디언트 86" x1="80.66" y1="106.12" x2="89.29" y2="106.12" xlink:href="#_무제_그라디언트_86"/>
    <linearGradient id="_무제_그라디언트_27-4" data-name="무제 그라디언트 27" x1="81.46" y1="55.77" x2="86.5" y2="55.77" xlink:href="#_무제_그라디언트_27"/>
    <linearGradient id="_무제_그라디언트_27-5" data-name="무제 그라디언트 27" x1="83.09" y1="109.22" x2="86.23" y2="109.22" xlink:href="#_무제_그라디언트_27"/>
    <linearGradient id="_무제_그라디언트_32" data-name="무제 그라디언트 32" x1="73.13" y1="21.29" x2="84.34" y2="21.29" gradientUnits="userSpaceOnUse">
      <stop offset=".21" stop-color="#6d6d6d"/>
      <stop offset="1" stop-color="#2e2e2e"/>
    </linearGradient>
    <linearGradient id="_무제_그라디언트_10-2" data-name="무제 그라디언트 10" x1="74.92" y1="74.11" x2="77.96" y2="74.11" xlink:href="#_무제_그라디언트_10"/>
    <linearGradient id="_무제_그라디언트_121-3" data-name="무제 그라디언트 121" x1="46.06" y1="35.96" x2="57.02" y2="35.96" xlink:href="#_무제_그라디언트_121"/>
  </defs>
  <g>
    <path d="M144.63,34.88h0c-1.33-2.13-15.13-16.96-20.31-20.43-3.22-2.16-6.19-3.27-8.57-4.15l-.5-.19c-3.48-1.31-10.23-1.9-13.92-1.9h-21.15c-.66,0-3.06,.21-4.73,2.98-.14,.24-.35,.62-.63,1.14l-5.23,1.37c-.57-.16-1.97-.72-3.39-1.39-.32-.13-.64-.21-1.04-.23-8.06-.22-19.75,.45-21.05,.53,0,0-.1,0-.1,0-.31,.02-.61,.12-.86,.29l-2.05,1.37c-.49,.32-.78,.87-.78,1.45v.13c0,8.48,2.05,23.39,2.08,23.54l.02,.12c.07,.51,.37,.96,.8,1.23l2.37,1.49c.32,.2,.69,.29,1.07,.26l10.86-.86c.08,0,.24-.04,.32-.05,.09-.02,.18-.05,.26-.08,3.45-1.38,6.25-4.41,8.11-6.42,.41-.45,.95-1.03,1.25-1.31l1.26-.28c.5,.58,1.33,1.52,2.51,2.85,.62,2.03,3.08,10.05,3.96,13.18,.8,2.85-.08,5.45-1.32,9.06-.78,2.29-1.66,4.88-2.2,7.95-.21,1.17,.02,2.19,.63,2.89l.75,1.1-.12,7.17c-.53,.75-.98,1.39-1.31,1.87-.65,.95-.97,2.06-.93,3.21l.06,1.43c.1,2.22,.22,4.74,.05,6.19-.13,1.21-.66,3.15-1.16,4.9-.26,.9-.54,1.86-.84,2.9-1.48,5.05-2.89,9.82-2.75,12.74,.06,1.36,.51,2.71,.98,4.14,.99,3,2.22,6.73,.68,12.69,0,.03-.02,.08-.02,.11-1.04,5.21-3.21,14.92-4.82,18.23-.04,.08-.1,.24-.12,.33-.03,.09-.05,.2-.06,.29,0,.02-.22,1.61-.6,3.05-.17,.5-.64,2.26,.38,4.08l.06,.33c.05,.31,.55,3.09,2.26,4,3.57,1.93,14.53,6.35,30.42,9.27,.22,.04,.43,.06,.66,.06,1.59,0,3.01-.96,4.16-1.74l.16-.1c1.61-.37,3.03-1.17,4.14-2.31l3.28-3s.06-.06,.09-.08c1.33-1.39,1.71-3.36,1-5.14-.5-1.23-1.27-3.54-1.98-5.65l-.28-.83c.59-.54,1.39-1.49,.96-2.8-.12-.38-.29-.88-.47-1.43-.35-1.05-.75-2.24-.96-2.98-.53-1.82-1.19-3.48-1.84-5.08-1.01-2.51-1.96-4.87-1.85-6.86,.04-.7,0-2.69-.06-5.7-.04-1.91-.09-4.52-.06-5.04,.07-1.26,.15-2.24,.22-3.12,.35-4.2,.42-5.07-1.9-17.86-3.2-17.7-3.79-33.74-3.82-34.41v-.11c-.02-.48-.23-.93-.59-1.24l-1.74-1.55c-.27-.81-.84-2.72-1.33-5.33-.2-1.09-.05-2.92,.08-3.94l2.49-4.73c.25-.06,.47-.13,.64-.19,.97-.35,1.72-1.07,2.02-1.85,.78-1.63,9.42-19.58,9.8-20.31,.25-.48,.36-1.02,.31-1.54,0-.02,0-.04,0-.05,5.79,.11,7.74,1.43,15.2,6.51l2.29,1.55c3.35,2.26,9.32,6.52,10.59,7.6,.58,.5,1.29,.81,2.07,.91l2.82,.33c.58,.09,2.55,.26,3.53-1.21,.36-.55,.82-1.72-.2-3.37Z"/>
    <path d="M95.89,169.54c-.34,0-.69-.03-1.02-.09-16.14-2.97-27.35-7.5-31.02-9.48-2.44-1.31-3.13-4.5-3.28-5.44h0c-1.16-2.34-.62-4.56-.38-5.31,.34-1.29,.53-2.72,.54-2.74,.03-.22,.08-.43,.14-.63,.04-.14,.16-.45,.23-.6,1.32-2.73,3.34-11.11,4.66-17.75l.04-.19c1.4-5.42,.32-8.7-.64-11.59-.5-1.5-1.01-3.05-1.08-4.68-.15-3.26,1.29-8.18,2.83-13.39l.1-.33c.27-.91,.51-1.75,.74-2.55,.45-1.56,.97-3.49,1.09-4.57,.14-1.29,.03-3.82-.06-5.85l-.07-1.46c-.06-1.59,.38-3.12,1.28-4.43,.26-.37,.58-.85,.97-1.39l.1-5.92-.34-.49c-.95-1.16-1.31-2.73-1.01-4.45,.56-3.23,1.47-5.9,2.28-8.25,1.16-3.38,1.92-5.62,1.29-7.88-.81-2.88-2.96-9.92-3.82-12.72-.49-.55-.92-1.03-1.28-1.44-.17,.18-.34,.37-.49,.53-1.98,2.14-4.97,5.37-8.84,6.92-.19,.07-.38,.13-.57,.18-.16,.04-.46,.09-.62,.1l-10.84,.86c-.81,.06-1.6-.13-2.29-.56l-2.37-1.49c-.93-.59-1.56-1.55-1.72-2.64l-.02-.12c-.22-1.59-2.1-15.56-2.1-23.83v-.13c0-1.25,.62-2.42,1.67-3.12l2.05-1.37c.55-.37,1.19-.58,1.85-.63h.11c2.16-.13,13.33-.77,21.23-.54,.67,.03,1.23,.16,1.76,.39,1.08,.51,2.07,.92,2.67,1.14l3.81-1c.1-.18,.19-.33,.26-.45,1.76-2.92,4.44-3.95,6.4-3.95h21.2c3.57,0,10.69,.55,14.62,2.02l.5,.19c2.48,.92,5.56,2.07,8.98,4.36,5.23,3.51,18.65,17.83,20.75,20.81l.03,.03,.12,.2c1.67,2.7,.68,4.76,.17,5.53-1.63,2.45-4.61,2.22-5.49,2.08l-2.75-.32c-1.19-.14-2.27-.62-3.15-1.39-1.11-.94-6.85-5.06-10.4-7.46l-2.3-1.56c-6.51-4.43-8.47-5.77-12.41-6.08-.06,.16-.13,.31-.21,.46-.37,.71-8.5,17.61-9.73,20.16-.52,1.29-1.67,2.37-3.11,2.91l-1.93,3.67c-.14,1.21-.17,2.4-.06,2.97,.39,2.06,.84,3.67,1.11,4.56l1.33,1.19c.76,.68,1.22,1.65,1.25,2.66v.11c.03,.67,.6,16.47,3.79,34.13,2.36,13.05,2.29,13.97,1.92,18.38-.07,.87-.15,1.83-.22,3.07-.03,.46,.03,3.45,.06,4.88,.07,3.42,.09,5.12,.05,5.85-.09,1.54,.79,3.7,1.71,5.99,.67,1.66,1.35,3.36,1.91,5.28,.21,.73,.6,1.88,.94,2.9,.19,.56,.35,1.06,.48,1.45,.27,.82,.49,2.3-.6,3.86,.67,1.98,1.4,4.16,1.86,5.29,1.01,2.52,.47,5.3-1.41,7.27-.06,.06-.12,.12-.17,.17l-3.25,2.98c-1.28,1.3-2.89,2.24-4.7,2.72-1.28,.87-3.01,1.99-5.14,1.99ZM69.45,31.3l.78,.91c.49,.57,1.32,1.5,2.49,2.83l.29,.32,.13,.42c.76,2.46,3.11,10.15,3.97,13.23,.97,3.46-.05,6.45-1.35,10.25-.76,2.22-1.61,4.73-2.12,7.65-.1,.55-.04,1,.17,1.24l.14,.18,1.12,1.62-.14,8.43-.35,.5c-.52,.74-.97,1.38-1.29,1.85-.41,.59-.61,1.28-.58,2l.06,1.42c.11,2.31,.22,4.9,.04,6.5-.15,1.36-.7,3.4-1.22,5.22-.23,.81-.48,1.66-.75,2.58l-.1,.33c-1.37,4.67-2.79,9.49-2.67,12.08,.05,1.09,.44,2.25,.88,3.6,1.02,3.08,2.41,7.29,.72,13.82-.29,1.46-2.9,14.41-4.98,18.71,0,.01-.23,1.72-.66,3.31l-.04,.12c-.07,.21-.4,1.33,.23,2.46l.17,.3,.12,.67c.17,1.03,.7,2.3,1.23,2.58,3.48,1.88,14.19,6.19,29.84,9.07,.09,.02,.19,.03,.3,.03,.98,0,2.07-.74,3.03-1.4l.47-.31,.36-.08c1.23-.29,2.32-.89,3.16-1.75l.08-.08,3.28-3c.78-.82,1-1.95,.58-3-.52-1.28-1.32-3.66-2.02-5.75l-.7-2.07,.97-.88c.49-.45,.44-.61,.41-.7-.12-.39-.29-.88-.47-1.43-.36-1.08-.76-2.3-.99-3.06-.5-1.72-1.14-3.32-1.77-4.88-1.1-2.73-2.13-5.3-2-7.73,.04-.66-.01-3.15-.06-5.55-.06-2.97-.09-4.68-.06-5.19,.07-1.28,.15-2.27,.23-3.17,.33-3.98,.4-4.81-1.87-17.34-3.23-17.9-3.82-33.95-3.85-34.69l-2.07-1.84-.17-.51c-.31-.93-.9-2.9-1.4-5.58-.29-1.57-.02-3.9,.07-4.58l.05-.35,3.07-5.83,.86-.22c.18-.05,.34-.09,.47-.14,.46-.17,.75-.5,.81-.67l.07-.16c.09-.19,9.41-19.57,9.83-20.37,.07-.14,.11-.29,.09-.43l-.21-2.23h2.24c6.39,.1,8.68,1.67,16.29,6.84l2.29,1.55c3.12,2.1,9.32,6.5,10.77,7.74,.29,.25,.63,.4,1.01,.45l2.81,.33c.49,.07,1.36,.08,1.63-.33,.21-.31,.02-.78-.2-1.14l-.04-.07c-1.04-1.68-14.6-16.39-19.72-19.82-3.03-2.03-5.86-3.09-8.14-3.94l-.51-.19c-3.21-1.21-9.79-1.77-13.22-1.77h-21.15c-.35-.02-1.85,.07-3.02,2.01-.13,.21-.32,.56-.57,1.04l-.41,.78-6.61,1.73-.52-.15c-.75-.21-2.31-.85-3.7-1.5-.01,0-.11-.03-.29-.04-7.85-.22-19.53,.45-20.83,.53h-.03s-1.88,1.26-1.88,1.26c0,8.14,1.97,22.64,2.06,23.26l2.2,1.38,10.78-.85c3.03-1.22,5.65-4.05,7.39-5.92,.58-.63,1.04-1.12,1.34-1.41l.4-.37,2.97-.67ZM44.13,14.62h0s.01,0,.02,0h-.02Z" fill="#fff"/>
  </g>
  <g>
    <path d="M143.14,35.81h0c-1.26-2.03-14.92-16.63-19.8-19.9-3.05-2.05-5.91-3.11-8.21-3.96l-.51-.19c-3.24-1.22-9.85-1.78-13.3-1.78h-21.15c-.07,0-1.91-.07-3.23,2.12-.19,.32-.5,.9-.93,1.74l-6.33,1.66s-.02,0-.03,0c-.61,0-2.84-.95-4.13-1.56-.13-.05-.26-.08-.4-.09-8.43-.23-20.81,.52-20.94,.53h-.06s-2.05,1.38-2.05,1.38v.13c0,8.4,2.04,23.15,2.06,23.29l.02,.12,2.37,1.49,10.86-.86,.07-.02c3.09-1.24,5.73-4.1,7.48-5.99,.8-.86,1.48-1.61,1.79-1.75l2.71-.61c.07,.12,.15,.24,.24,.35,.33,.42,1.49,1.73,3.13,3.57,.32,1.02,3.12,10.18,4.08,13.58,.95,3.38-.06,6.34-1.34,10.08-.76,2.23-1.62,4.76-2.14,7.71-.07,.39-.12,1.11,.28,1.5l1.14,1.66-.14,8.23v.04c-.66,.94-1.22,1.73-1.6,2.3-.44,.64-.65,1.38-.62,2.14,.02,.44,.04,.92,.06,1.41,.11,2.29,.23,4.89,.05,6.48-.15,1.34-.7,3.37-1.21,5.18-.26,.93-.55,1.9-.84,2.9-1.38,4.69-2.81,9.55-2.68,12.18,.05,1.12,.44,2.3,.9,3.67,1.01,3.05,2.39,7.22,.71,13.68-.03,.14-2.8,14.21-4.96,18.66l-.02,.08s-.23,1.76-.67,3.35c-.02,.06-.57,1.51,.38,2.93l.12,.68c.12,.72,.61,2.34,1.36,2.75,3.49,1.88,14.23,6.21,29.9,9.09,.12,.02,.23,.03,.35,.03,1.05,0,2.21-.79,3.17-1.43,.16-.11,.31-.21,.45-.3,1.42-.27,2.67-.94,3.61-1.92l3.32-3.04c.85-.89,1.1-2.15,.65-3.28-.52-1.29-1.32-3.66-2.02-5.74l-.63-1.85c-.04-.12,.35-.45,.56-.62,.44-.36,.89-.74,.73-1.2-.12-.38-.29-.88-.47-1.41-.36-1.07-.76-2.27-.98-3.05-.5-1.73-1.15-3.35-1.78-4.91-1.08-2.69-2.11-5.24-1.98-7.61,.04-.69-.01-3.17-.06-5.57-.05-2.26-.09-4.59-.06-5.17,.07-1.3,.16-2.3,.23-3.16,.33-4.01,.4-4.84-1.87-17.41-3.25-18-3.84-34.49-3.85-34.66v-.11s-2.09-1.86-2.09-1.86c-.14-.38-.91-2.61-1.55-6-.33-1.74,.06-4.45,.11-4.81l3.01-5.71c.54-.11,1-.23,1.22-.31,.82-.3,1-.88,1-.88,.09-.2,9.51-19.77,9.87-20.45,.09-.17,.13-.37,.11-.58-.04-.5-.39-1.1-1.13-1.91,8.73-.24,10.42,.92,19.05,6.79,.71,.48,1.47,1,2.29,1.55,3.46,2.33,9.41,6.58,10.76,7.73,.31,.27,.7,.44,1.12,.49l2.88,.33c.14,.02,1.38,.19,1.81-.45,.24-.36,.16-.86-.23-1.48Z"/>
    <path d="M95.88,167.54c-.23,0-.44-.02-.66-.06-15.9-2.92-26.85-7.34-30.42-9.27-1.71-.92-2.21-3.69-2.26-4l-.06-.33c-1.02-1.82-.55-3.58-.38-4.08,.39-1.43,.6-3.03,.6-3.05,.01-.1,.04-.2,.06-.29,.03-.08,.08-.25,.12-.33,1.6-3.31,3.78-13.01,4.82-18.23,0-.03,.02-.08,.02-.11,1.54-5.96,.31-9.69-.68-12.69-.47-1.43-.92-2.78-.98-4.14-.14-2.92,1.26-7.69,2.75-12.74,.31-1.04,.59-2,.84-2.9,.5-1.74,1.02-3.69,1.16-4.9,.16-1.46,.05-3.97-.05-6.19l-.06-1.43c-.04-1.15,.28-2.26,.93-3.21,.33-.48,.78-1.12,1.31-1.87l.12-7.17-.75-1.1c-.61-.7-.83-1.72-.63-2.89,.54-3.08,1.42-5.67,2.2-7.95,1.23-3.61,2.12-6.21,1.32-9.06-.88-3.13-3.33-11.15-3.96-13.18-1.19-1.34-2.02-2.28-2.51-2.85l-1.26,.28c-.29,.28-.83,.86-1.25,1.31-1.86,2.01-4.66,5.04-8.11,6.42-.09,.03-.17,.06-.26,.08-.08,.02-.24,.05-.32,.05l-10.86,.86c-.38,.03-.75-.06-1.07-.26l-2.37-1.49c-.44-.27-.73-.72-.8-1.23l-.02-.12c-.02-.16-2.08-15.07-2.08-23.54v-.13c0-.58,.29-1.13,.78-1.45l2.05-1.37c.26-.17,.56-.27,.86-.29,0,0,.1,0,.1,0,1.31-.08,13-.75,21.05-.53,.4,.02,.72,.09,1.04,.23,1.41,.67,2.81,1.22,3.39,1.39l5.23-1.37c.27-.52,.48-.9,.63-1.14,1.66-2.76,4.02-2.98,4.72-2.98h21.17c3.68,0,10.43,.59,13.92,1.9l.5,.19c2.38,.89,5.34,1.99,8.57,4.15,5.18,3.47,18.98,18.3,20.31,20.43h0c1.02,1.65,.57,2.82,.2,3.37-.98,1.47-2.95,1.3-3.53,1.21l-2.82-.33c-.78-.09-1.5-.41-2.07-.91-1.27-1.08-7.24-5.34-10.59-7.6l-2.29-1.55c-7.46-5.07-9.41-6.4-15.2-6.51,0,.02,0,.04,0,.05,.05,.52-.06,1.06-.31,1.54-.38,.72-9.02,18.68-9.8,20.31-.29,.77-1.04,1.5-2.02,1.85-.17,.06-.39,.13-.64,.19l-2.49,4.73c-.14,1.03-.29,2.85-.08,3.94,.49,2.61,1.07,4.51,1.33,5.33l1.74,1.55c.36,.32,.57,.77,.59,1.24v.11c.03,.68,.63,16.71,3.82,34.41,2.31,12.79,2.24,13.66,1.9,17.86-.07,.88-.15,1.86-.22,3.12-.03,.52,.02,3.13,.06,5.04,.06,3.01,.1,5,.06,5.7-.11,1.98,.84,4.35,1.85,6.86,.64,1.6,1.31,3.26,1.84,5.08,.21,.75,.61,1.93,.96,2.98,.18,.55,.35,1.05,.47,1.43,.43,1.31-.37,2.26-.96,2.8l.28,.83c.71,2.11,1.49,4.42,1.98,5.65,.71,1.78,.33,3.74-1,5.14-.03,.03-.06,.06-.09,.08l-3.28,3c-1.11,1.14-2.53,1.93-4.14,2.31l-.16,.1c-1.15,.78-2.56,1.74-4.16,1.74Zm-29.33-12.36c3.51,1.87,13.98,6.04,29.29,8.86h0c.55,0,1.59-.71,2.22-1.13,.17-.12,.33-.23,.48-.32,.19-.12,.4-.21,.63-.25,1.06-.2,1.98-.69,2.67-1.41,.03-.03,.05-.06,.08-.08l3.27-2.99c.35-.39,.45-.91,.25-1.38-.53-1.32-1.33-3.68-2.03-5.76l-.65-1.91c-.42-1.24,.56-2.09,1.07-2.51-.08-.23-.16-.47-.24-.73-.36-1.09-.77-2.31-1.01-3.13-.48-1.65-1.11-3.22-1.72-4.74-1.16-2.88-2.25-5.6-2.1-8.36,.03-.62-.02-3.26-.06-5.39-.06-2.85-.09-4.74-.06-5.35,.07-1.29,.16-2.3,.23-3.16,.32-3.86,.38-4.66-1.85-17-2.92-16.17-3.7-31-3.85-34.26l-1.53-1.36c-.22-.2-.39-.44-.48-.72-.15-.43-.96-2.76-1.62-6.27-.38-2,.02-4.85,.1-5.4,.03-.19,.09-.38,.18-.55l3.01-5.71c.25-.47,.69-.8,1.21-.9,.49-.1,.86-.2,.98-.24-.04,.04-.21,.44-.16,.95-.03-.32,.02-.64,.16-.94,.09-.18,8.48-17.64,9.75-20.22-.08-.13-.25-.39-.62-.8-.46-.51-.58-1.23-.31-1.86,.27-.63,.88-1.04,1.56-1.06,9.29-.26,11.36,1.15,20.08,7.08l2.29,1.55c3.23,2.18,9.41,6.56,10.92,7.85,.06,.05,.12,.08,.2,.08l2.13,.25c-2.92-3.52-14.3-15.63-18.66-18.55-2.88-1.93-5.63-2.96-7.84-3.78l-.51-.19c-2.91-1.09-9.24-1.67-12.69-1.67h-21.15c-.12,0-.99,.04-1.73,1.28-.18,.29-.47,.85-.88,1.64-.23,.44-.63,.77-1.11,.89l-6.33,1.66c-.08,.02-.17,.04-.25,.05-.06,0-.16,.01-.22,.01-1.04,0-3.35-1.01-4.73-1.66-7.35-.2-17.84,.37-20.22,.51l-.87,.58c.1,7.28,1.56,18.66,1.94,21.56l1.19,.75,10.04-.8c2.64-1.14,5.04-3.73,6.63-5.46,1.2-1.29,1.75-1.88,2.34-2.15,.11-.05,.23-.09,.35-.12l2.71-.61c.75-.17,1.52,.17,1.9,.84,.02,.04,.05,.08,.08,.12,.34,.42,1.77,2.03,3.08,3.51,.17,.19,.29,.41,.36,.65,.34,1.1,3.13,10.21,4.09,13.63,1.1,3.9-.05,7.25-1.37,11.12-.74,2.18-1.58,4.64-2.07,7.44-.01,.07-.02,.14-.02,.18,0,0,0,.01,.01,.02l1.14,1.66c.21,.3,.31,.66,.31,1.02l-.14,8.23c0,.35-.12,.73-.32,1.02-.65,.93-1.21,1.71-1.59,2.28-.23,.33-.33,.7-.32,1.09l.06,1.39c.11,2.37,.23,5.03,.04,6.76-.16,1.46-.71,3.49-1.27,5.47-.26,.91-.54,1.88-.83,2.86-1.3,4.41-2.74,9.32-2.63,11.66,.04,.88,.4,1.96,.81,3.21,1.01,3.07,2.55,7.71,.75,14.67-.27,1.37-2.83,14.11-4.98,18.77-.08,.58-.31,2-.68,3.34-.02,.06-.04,.12-.06,.18-.01,.04-.22,.68,.21,1.31,.14,.21,.23,.44,.27,.68l.12,.68c.1,.58,.38,1.31,.56,1.55Zm-.1-.05s0,0,0,0c0,0,0,0,0,0Zm37.6-8.18v.02s0-.01,0-.02Zm-29.17-79.83h0s0,0,0,0Zm20.05-22.77s0,0,0,0c0,0,0,0,0,0Zm0,0s0,0,0,0c0,0,0,0,0,0Zm0,0s0,0,0,0c0,0,0,0,0,0Zm0,0s0,0,0,0c0,0,0,0,0,0Zm0,0s0,0,0,0t0,0Zm0,0h0s0,0,0,0Zm46.83-7.37h0Zm-74.17-3.28h0Zm37.33-11.16s0,0,0,0c0,0,0,0,0,0Z"/>
  </g>
  <g>
    <g>
      <path d="M142.93,35.94c1.21,1.95-1.33,1.55-1.33,1.55-.12-.02-.28-.09-.44-.19-.34-.22-.63-.5-.87-.82-1.04-1.36-5.81-6.59-14.12-14.42-2.26-2.13-5.07-3.89-7.89-5.24t-.01,0c-7.9-5.24-23.6-6.59-23.6-6.59h6.67c3.42,0,10.04,.57,13.21,1.77,2.34,.87,5.4,1.94,8.66,4.13,4.98,3.34,18.51,17.88,19.73,19.82Z" fill="url(#_무제_그라디언트_121)"/>
      <path d="M141.6,37.49l-2.88-.34c-.37-.05-.71-.19-.99-.43-1.41-1.2-7.45-5.5-10.79-7.75-10.88-7.35-12-8.69-22.04-8.36-.41-.43-.93-.92-1.56-1.48-.16-.14-.39-.24-.62-.3h0c-.54-.15-1.13-.13-1.13-.13,0,0-14.94-.16-16.03-.07-.39,.03-.74,.16-1.04,.32-.06,.03-.12,.07-.18,.1l-3.66-5.41-.11-.03c.31-.3,.67-.24,1.37-.25,0,0,9.48-.05,15.95-.1,6.48-.06,10.11,.46,10.11,.46,2.56,.19,6.42,1.26,10.26,3.1t.01,0c2.82,1.35,5.64,3.11,7.89,5.24,8.31,7.83,13.08,13.06,14.12,14.42,.24,.32,.53,.6,.87,.82,.16,.1,.32,.18,.44,.19Z" fill="url(#_무제_그라디언트_27)"/>
      <path d="M73.01,35.36c-1.61-1.81-2.83-3.19-3.16-3.6-.12-.15-.23-.32-.31-.48-.79-1.56-.03-3.61-.03-3.61,0,0,.41-.86,1.05-2.19,1.46-3.03,4.08-8.44,5.61-11.42,.43-.84,.77-1.48,.98-1.83,1.26-2.09,3.01-2,3.01-2h14.49s15.7,1.36,23.6,6.59c-3.83-1.84-7.7-2.91-10.26-3.1,0,0-3.63-.52-10.11-.46-6.48,.06-15.95,.1-15.95,.1-.71,.01-1.06-.05-1.37,.25-.09,.08-.17,.19-.25,.33-.42,.71-6.93,13.68-6.93,13.68,0,0-.3,.54-.25,1.36,.02,.38,.11,.82,.34,1.3,.72,1.5,15.35,17.72,15.35,17.72,1.36,1.37,2.13,1.73,2.31,2.62,0,0-.48,3.01-.12,4.94,.71,3.78,1.58,6.1,1.58,6.1,0,0-4.69,7-10.19,15.06-3.18,4.67-6.64,9.71-9.62,13.94,.22-1.96,0-5.41-.11-7.93-.03-.71,.17-1.4,.58-1.99s1-1.44,1.7-2.44c.86-1.22,1.9-2.66,2.99-4.17,1.83-2.54,3.82-5.26,5.42-7.35,.6-.78,1.14-1.48,1.6-2.04,.59-.73,1.09-1.36,1.52-1.92h0c.46-.6,.84-1.1,1.15-1.52,.86-1.18,.64-2.62,.21-3.99-1.68-5.33-1.66-6.38-1.91-7.09-.27-.77-.94-1.52-.94-1.52,0,0-.74-.82-1.9-2.09h0c-.49-.54-1.05-1.16-1.65-1.84-2.55-2.83-5.96-6.61-8.45-9.4h0Z" fill="url(#_무제_그라디언트_13)"/>
      <path d="M80.78,120.98c.04,1.47,.08,2.99,.14,4.62,.03,.86,.07,1.75,.11,2.67l23.16,20.04c.11,.33,.22,.65,.33,.98-.26,0-.43,.19-.44,.44-.01,.25,.27,.6,.74,.43,.79,2.34,1.52,4.5,2.02,5.75,.41,1.03,.18,2.19-.6,3.01-7.77-.41-16.33-2.57-23.64-4.95,0-.15,0-.34,0-.34,.01-.3-.24-.55-.56-.56-.32-.01-.57,.22-.6,.52-9.57-3.2-16.75-6.62-16.75-6.62,2.18-4.5,4.97-18.69,4.97-18.69,2.42-9.33-1.44-13.81-1.61-17.41-.15-3.16,2.05-9.84,3.52-15l.05,.02c7.18-7.04,12.8-14.07,13.71-15.22l3.12,4.21s.47,.72,.65,2.27c.18,1.55,.17,4.12,.17,4.12,0,0-6.87,6.13-7.81,7.75-.78,1.37-.82,4.83-.82,6.39,0,5.63-.01,10.22,.12,15.58Zm25.47,37.01c0-.26-.22-.49-.5-.49-.28,0-.52,.21-.52,.47s.21,.49,.5,.49c.28,0,.51-.2,.52-.47Zm-1.34-3.21c0-.26-.22-.48-.5-.49-.28,0-.52,.21-.52,.47,0,.27,.21,.49,.5,.49,.28,0,.52-.2,.52-.47Zm-2.99-7.34c0-.24-.2-.45-.46-.46s-.48,.19-.49,.44c0,.25,.2,.46,.47,.46s.48-.19,.48-.44Zm-.12,5.03c0-.26-.22-.48-.5-.49-.28,0-.52,.21-.52,.47,0,.27,.21,.49,.5,.49,.28,0,.51-.2,.52-.47Zm-.13,5.03c0-.28-.23-.52-.53-.52-.3-.01-.55,.22-.56,.5s.23,.52,.53,.53c.3,0,.55-.22,.56-.51Zm-2.86-12.37c0-.24-.2-.45-.46-.46-.26,0-.48,.19-.49,.44,0,.25,.2,.46,.47,.46s.48-.19,.48-.44Zm-.13,5.03c.01-.26-.21-.48-.49-.49-.28,0-.52,.21-.52,.47-.01,.27,.21,.49,.49,.49,.28,0,.52-.2,.52-.47Zm-.12,5.03c0-.28-.23-.52-.53-.52-.3-.01-.55,.22-.56,.5s.23,.52,.53,.53c.3,0,.55-.22,.56-.51Zm-2.97-12.47c0-.23-.18-.42-.43-.42-.24-.01-.44,.17-.45,.41,0,.23,.18,.42,.43,.42,.24,0,.44-.18,.45-.41Zm-.12,5.03c0-.25-.2-.45-.47-.46-.26,0-.48,.19-.48,.44s.2,.46,.46,.46c.26,0,.48-.19,.49-.44Zm-.13,5.03c0-.26-.21-.49-.5-.49-.28,0-.52,.21-.52,.47s.22,.49,.5,.49c.28,0,.52-.2,.52-.47Zm-2.86-12.37c0-.23-.19-.42-.43-.43-.24,0-.45,.18-.45,.41,0,.23,.19,.42,.43,.42,.24,0,.44-.18,.45-.41Zm-.12,5.03c0-.25-.2-.45-.47-.46s-.48,.19-.48,.44,.2,.46,.46,.46,.48-.19,.49-.44Zm-.13,5.03c0-.26-.21-.49-.5-.49-.28,0-.52,.21-.52,.47s.22,.49,.5,.49,.52-.2,.52-.47Zm-.13,5.03c.01-.28-.23-.52-.53-.52-.3-.01-.55,.22-.55,.5-.01,.28,.23,.52,.53,.52,.3,.01,.55-.22,.55-.5Zm-2.73-17.41c0-.23-.19-.42-.43-.43s-.45,.18-.45,.41c0,.23,.19,.42,.43,.42,.25,0,.45-.18,.45-.41Zm-.12,5.03c0-.25-.2-.45-.47-.46s-.48,.19-.48,.44,.2,.46,.46,.46,.48-.19,.49-.44Zm-.13,5.03c0-.26-.21-.49-.5-.49-.28,0-.52,.21-.52,.47s.21,.49,.5,.49c.28,0,.52-.2,.52-.47Zm-.13,5.03c.01-.28-.23-.52-.53-.53-.3,0-.55,.22-.56,.51,0,.28,.24,.52,.54,.52,.3,.01,.55-.22,.55-.5Zm-2.73-17.41c0-.23-.19-.42-.43-.43s-.45,.18-.45,.41c0,.23,.19,.42,.43,.42s.45-.18,.45-.41Zm-.13,5.03c0-.25-.2-.45-.46-.46s-.48,.19-.48,.44c-.01,.25,.2,.46,.46,.46s.48-.19,.48-.44Zm-.12,5.03c0-.26-.22-.49-.5-.49s-.52,.2-.52,.47c0,.26,.21,.49,.5,.49,.28,0,.52-.2,.52-.47Zm-.13,5.03c0-.28-.23-.52-.53-.53-.3,0-.55,.22-.56,.51,0,.28,.23,.52,.53,.52,.3,.01,.55-.22,.56-.5Zm-1.73-2c.06-.15,.01-.33-.12-.43l-11.32-9.41c-.37-.31-.93-.19-1.14,.23l-1.49,3.13c-.14,.3-.04,.66,.24,.84,1.87,1.23,8.47,5.66,12.38,7.22,.17,.07,.37,.02,.48-.13,.21-.25,.69-.78,.96-1.46Zm-1-15.41c0-.23-.19-.42-.43-.43s-.45,.18-.45,.41c0,.23,.19,.42,.43,.43s.45-.18,.45-.41Zm-.13,5.03c0-.25-.2-.45-.46-.46s-.48,.19-.49,.44c0,.25,.2,.46,.47,.46s.48-.19,.48-.44Zm-.12,5.03c0-.26-.22-.49-.5-.49-.28,0-.52,.2-.52,.47,0,.26,.21,.49,.5,.49,.28,0,.51-.2,.52-.47Zm-2.36-32.51c0-.16-.13-.28-.29-.29-.17,0-.31,.12-.31,.28,0,.15,.13,.28,.3,.29,.17,0,.3-.12,.31-.28Zm-.25,10.07c0-.19-.16-.35-.36-.36s-.38,.15-.38,.34,.16,.36,.37,.36c.2,0,.37-.15,.38-.34Zm-.13,5.03c0-.21-.17-.39-.39-.39-.23,0-.41,.16-.41,.38,0,.21,.17,.39,.39,.39,.23,0,.41-.16,.41-.38Zm.26-10.07c0-.17-.14-.32-.33-.33-.19,0-.34,.14-.34,.31,0,.18,.14,.32,.33,.33,.18,0,.34-.13,.34-.31Zm-.38,15.1c0-.23-.19-.42-.43-.43-.25,0-.45,.18-.45,.41,0,.23,.19,.42,.43,.43s.45-.18,.45-.41Zm-.13,5.03c0-.25-.2-.45-.46-.46s-.48,.19-.49,.44,.2,.45,.47,.46c.26,0,.48-.19,.48-.44Zm-.12,5.03c0-.26-.22-.49-.5-.49-.28,0-.52,.2-.52,.47-.01,.26,.21,.49,.49,.49,.28,0,.52-.2,.53-.47Zm-.26,10.07c.01-.3-.25-.55-.56-.56-.32-.01-.59,.23-.6,.53,0,.31,.25,.55,.57,.56,.32,0,.59-.23,.59-.54Zm-.23-50.85c0-.15-.13-.28-.3-.29-.16,0-.3,.12-.31,.28,0,.16,.13,.28,.3,.29s.3-.12,.31-.28Zm-.43,6.73c0-.15-.13-.28-.3-.29-.17,0-.3,.12-.31,.28s.13,.28,.3,.29,.3-.12,.31-.28Zm-1.05,5.87c0-.16-.13-.28-.3-.29s-.3,.12-.31,.28,.13,.28,.29,.29c.17,0,.31-.12,.31-.28Zm-.72,5.43c0-.17-.14-.32-.33-.33-.19,0-.34,.14-.34,.31,0,.18,.14,.32,.33,.33,.18,0,.34-.13,.34-.31Zm-.37,5.42c0-.19-.16-.36-.36-.36-.21,0-.38,.15-.38,.35s.16,.35,.36,.36,.38-.15,.38-.34Zm-.05,5.06c0-.23-.18-.42-.43-.43-.24,0-.44,.18-.45,.41,0,.23,.18,.42,.43,.43,.24,0,.44-.18,.45-.41Zm-.12,5.03c0-.25-.2-.45-.47-.46-.26,0-.48,.19-.48,.44s.2,.45,.46,.46c.26,.01,.48-.19,.49-.44Zm-.13,5.03c0-.26-.21-.49-.5-.49-.28,0-.51,.2-.52,.47,0,.26,.22,.49,.5,.49,.28,0,.52-.21,.52-.47Zm.08-35.43c0-.16-.13-.28-.3-.29-.17,0-.3,.12-.31,.28s.13,.28,.29,.29c.17,0,.31-.12,.31-.28Zm-.33,45.5c0-.31-.25-.55-.57-.56-.32-.01-.59,.23-.59,.53,0,.31,.25,.55,.57,.56,.32,0,.59-.23,.59-.54Zm-1.08-34.05c0-.15-.13-.28-.3-.29-.16,0-.3,.12-.31,.28,0,.16,.13,.28,.3,.29s.3-.12,.31-.28Zm0-5.37c0-.16-.13-.29-.3-.29-.16,0-.3,.12-.31,.27,0,.16,.13,.29,.3,.29,.17,0,.3-.12,.31-.27Zm-1.31-9.45c0-.16-.13-.29-.3-.29-.16,0-.3,.12-.31,.27,0,.16,.13,.29,.3,.29,.17,0,.3-.12,.31-.27Zm0,20.65c0-.17-.14-.32-.33-.33-.19,0-.34,.14-.34,.31,0,.18,.14,.32,.33,.33,.18,0,.34-.14,.34-.31Zm-.45,5.87c0-.23-.19-.42-.43-.43s-.45,.18-.45,.41c0,.23,.19,.42,.43,.43,.25,0,.45-.18,.45-.41Zm-.5,20.13c0-.31-.25-.55-.57-.56-.32-.01-.59,.23-.59,.53-.01,.31,.25,.55,.56,.56,.32,.01,.59-.23,.6-.53Zm-.16-15.1c0-.25-.2-.45-.47-.46-.26-.01-.48,.19-.48,.44s.2,.45,.46,.46,.48-.19,.49-.44Zm-.13,5.03c0-.26-.21-.49-.5-.49-.28,0-.52,.2-.52,.47,0,.26,.21,.49,.5,.49,.28,0,.52-.21,.52-.47Zm-.18-19.77c0-.15-.12-.28-.29-.29-.17,0-.31,.12-.31,.28,0,.16,.12,.28,.29,.29s.31-.12,.31-.28Zm-.2-4.99c0-.16-.12-.29-.29-.29-.17,0-.31,.12-.31,.28,0,.16,.12,.28,.29,.29s.31-.12,.31-.27Zm-.1-5.48c0-.16-.12-.29-.29-.29-.17,0-.31,.12-.31,.27,0,.16,.13,.29,.29,.29,.17,0,.31-.12,.31-.27Zm-1.3-3.26c0-.15-.13-.28-.3-.29-.17,0-.31,.12-.31,.28,0,.16,.13,.28,.29,.29,.17,0,.31-.12,.31-.28Zm-1.16,36.32c0-.28-.23-.52-.53-.53s-.55,.22-.56,.5,.23,.52,.53,.53,.55-.22,.56-.5Zm-.13,5.03c.01-.31-.24-.55-.56-.56-.32,0-.59,.23-.59,.54-.01,.31,.24,.55,.56,.56,.32,.01,.59-.23,.59-.53Zm-.12-35.28c0-.16-.12-.29-.29-.29-.17,0-.31,.12-.31,.27,0,.16,.13,.29,.29,.29,.17,0,.31-.12,.31-.27Z" fill="url(#_무제_그라디언트_125)"/>
      <path d="M106.34,22.77c.02,.17-.01,.32-.08,.45-.37,.69-9.87,20.46-9.87,20.46,0,0-.14,.5-.86,.76-.23,.08-.74,.21-1.3,.32h0c-.37,.07-.77,.13-1.13,.15,0,0-.64,.04-.96-.07-.31-.12-1.4-1.1-1.4-1.1l-11.92-13.55s-.35-.48-.37-1.22h3.74c.05,.34,.2,.66,.45,.93l10.34,11.43c.6,.67,1.71,.58,2.19-.17l8.24-17.97,2.92-.42h0Z" fill="#41228c"/>
      <path d="M106.34,22.77h0l-2.92,.42c0-.14-.76-1.29-1.11-1.4l.42-2.96c.24,.06,.46,.16,.62,.3,.63,.56,1.14,1.05,1.56,1.48,.97,1,1.4,1.67,1.44,2.17Z" fill="#7229ff"/>
      <path d="M105.75,157.49c.28,0,.5,.23,.5,.49-.01,.27-.24,.48-.52,.47-.28,0-.5-.23-.5-.49s.24-.48,.52-.47Z"/>
      <path d="M81.45,153.59c.38,.13,.77,.25,1.16,.38,7.31,2.38,15.87,4.55,23.64,4.95l-3.31,3.02c-.95,1-2.2,1.63-3.55,1.87-.67,.13-1.37,.16-2.07,.09-7.18-.73-26.86-6.7-31.77-9.7-.53-.32-.9-.68-1.17-1.05,0,0,0,0,0,0-.94-1.33-.39-2.75-.39-2.75,.45-1.64,.68-3.41,.68-3.41l.02-.03s7.18,3.43,16.75,6.62Z" fill="url(#_무제_그라디언트_27-2)"/>
      <path d="M105.49,146.49c.2,.6-1.49,1.25-1.29,1.83l-23.16-20.04c-.04-.92-.08-1.81-.11-2.67h.02l24.55,20.89Z" fill="#131315"/>
      <path d="M105.49,146.49l-24.55-20.89h-.02c-.06-1.62-.1-3.15-.14-4.62l7.34-6.49c.39-.41,.68-.92,.7-1.47,.4-11.41,.46-21.77,.46-21.77,0,0,.01-2.57-.17-4.12-.18-1.55-.65-2.27-.65-2.27l-3.12-4.21,.13-.17c7.08-11.17,9.18-17.02,9.18-17.02,0,0,.56,16.47,3.85,34.69,2.75,15.23,2.06,13.16,1.64,20.51-.07,1.2,.19,9.42,.12,10.74-.21,3.79,2.38,7.81,3.77,12.6,.34,1.18,1.09,3.35,1.45,4.47Zm-8.46-18.76c0-1.42-1.22-2.58-2.72-2.58s-2.72,1.15-2.72,2.58,1.22,2.58,2.72,2.58,2.72-1.15,2.72-2.58Z" fill="url(#_무제_그라디언트_27-3)"/>
      <path d="M104.41,154.29c.28,.01,.5,.23,.5,.49,0,.27-.24,.48-.52,.47-.28,0-.5-.22-.5-.49,0-.26,.24-.48,.52-.47Z"/>
      <path d="M104.82,150.16c-.46,.17-.75-.18-.74-.43,0-.24,.18-.44,.44-.44,.1,.29,.2,.58,.3,.87Z"/>
      <path d="M82.2,28.97c-.07-.43,.02-.88,.27-1.27l3.36-5.25c.19-.3,.4-.5,.66-.63,.22-.11,.48-.15,.81-.15l14.8,.1c.09,0,.1,0,.21,.03,.35,.11,1.11,1.26,1.11,1.4l-8.24,17.97c-.47,.75-1.59,.83-2.19,.17l-10.34-11.43c-.25-.27-.4-.59-.45-.93Zm17.97-4.16c.11-.34,.12-.88-.74-.93h-10.97c-.48,0-.77,.14-1.02,.51l-2.03,3.76c-.31,.45-.26,1.03,.13,1.43l7.19,7.94c.41,.43,1.19,.38,1.52-.11l5.92-12.6Z" fill="url(#_무제_그라디언트_125-2)"/>
      <path d="M102.72,18.82h0s-.42,2.97-.42,2.97c-.11-.03-.12-.03-.21-.03l-14.8-.1c-.32,0-.59,.05-.81,.15l-2.14-2.78c.06-.04,.12-.07,.18-.1,.3-.15,.65-.28,1.04-.32,1.09-.09,16.03,.07,16.03,.07,0,0,.6-.02,1.13,.13Z" fill="#9d7dff"/>
      <path d="M101.45,146.98c.26,0,.47,.21,.46,.46,0,.25-.22,.45-.48,.44s-.47-.21-.47-.46c0-.24,.23-.44,.49-.44Z"/>
      <path d="M101.29,151.98c.28,.01,.5,.23,.5,.49-.01,.27-.24,.48-.52,.47-.28,0-.5-.22-.5-.49,0-.26,.24-.48,.52-.47Z"/>
      <path d="M101.13,156.98c.3,0,.54,.24,.53,.52s-.26,.51-.56,.51c-.3-.01-.54-.24-.53-.53s.26-.51,.56-.5Z"/>
      <path d="M99.43,23.88c.85,.04,.85,.59,.74,.93l-5.92,12.6c-.33,.49-1.11,.54-1.52,.11l-7.19-7.94c-.39-.4-.43-.98-.13-1.43l2.03-3.76c.25-.37,.54-.51,1.02-.51h10.97Zm-1.64,2.09c.12-.29,.22-.68-.39-.71-.06,0-.09,0-.13,0h-7.85c-.34,0-.55,.11-.72,.39l-1.46,2.95c-.22,.35-.08,.76,.2,1.06l5.07,5.43c.3,.33,.85,.28,1.08-.09l4.2-9.04Z" fill="#131315"/>
      <path d="M99.39,163.82h0c-1.04,.68-2.6,1.92-3.82,1.69-16.48-3.03-26.95-7.51-29.83-9.06-.64-.35-1.12-1.85-1.23-2.57l-.12-.72c.27,.37,.64,.73,1.17,1.05,4.91,3,24.59,8.97,31.77,9.7,.7,.07,1.4,.04,2.07-.09Z" fill="url(#_무제_그라디언트_13-2)"/>
      <path d="M98.34,144.67c.26,0,.47,.21,.46,.46,0,.25-.22,.45-.48,.44s-.47-.21-.47-.46c0-.24,.23-.44,.49-.44Z"/>
      <path d="M98.18,149.67c.28,.01,.5,.23,.49,.49,0,.27-.24,.48-.52,.47-.28,0-.5-.22-.49-.49,0-.26,.24-.48,.52-.47Z"/>
      <path d="M98.02,154.67c.3,0,.54,.24,.53,.52s-.26,.51-.56,.51c-.3-.01-.54-.24-.53-.53s.26-.51,.56-.5Z"/>
      <path d="M97.4,25.27c.61,.03,.51,.41,.39,.71l-4.2,9.04c-.24,.37-.79,.42-1.08,.09l-5.07-5.43c-.27-.31-.42-.72-.2-1.06l1.46-2.95c.18-.28,.38-.39,.72-.39h7.85s.08,0,.13,0Z" fill="url(#_무제_그라디언트_153)"/>
      <path d="M94.3,125.15c1.5,0,2.72,1.15,2.72,2.58s-1.22,2.58-2.72,2.58-2.72-1.15-2.72-2.58,1.22-2.58,2.72-2.58Zm1.61,2.58c0-.84-.72-1.52-1.61-1.52s-1.61,.68-1.61,1.52,.72,1.52,1.61,1.52,1.61-.68,1.61-1.52Z" fill="url(#_무제_그라디언트_86)"/>
      <path d="M95.15,142.31c.25,0,.43,.19,.43,.42s-.2,.41-.45,.41c-.25,0-.43-.19-.43-.42,0-.23,.2-.42,.45-.41Z"/>
      <ellipse cx="94.3" cy="127.73" rx="1.61" ry="1.52" fill="#8655ff"/>
      <path d="M94.99,147.31c.26,0,.47,.21,.47,.46s-.23,.45-.49,.44c-.26,0-.47-.21-.46-.46s.23-.44,.48-.44Z"/>
      <path d="M94.82,152.3c.28,0,.5,.23,.5,.49,0,.27-.24,.48-.52,.47-.28,0-.5-.23-.5-.49s.24-.48,.52-.47Z"/>
      <path d="M92.6,61.64l2.06,1.83s-2.1,5.85-9.18,17.02l-.13,.17-2.93-3.95c5.5-8.06,10.19-15.06,10.19-15.06Z" fill="url(#_무제_그라디언트_10)"/>
      <path d="M94.22,44.76l-3.08,5.85c-.18-.88-.95-1.25-2.31-2.62,0,0-14.62-16.22-15.35-17.72-.23-.48-.32-.92-.34-1.3h5.32c.01,.74,.37,1.22,.37,1.22l11.92,13.55s1.08,.99,1.4,1.1c.31,.11,.96,.07,.96,.07,.36-.03,.76-.08,1.13-.15Z" fill="url(#_무제_그라디언트_121-2)"/>
      <path d="M92.03,140c.24,.01,.43,.2,.43,.43s-.2,.41-.45,.41c-.25,0-.44-.19-.43-.42,0-.23,.21-.42,.45-.41Z"/>
      <path d="M91.87,145c.26,0,.47,.21,.47,.46s-.23,.45-.49,.44-.47-.21-.46-.46,.22-.44,.48-.44Z"/>
      <path d="M91.71,150c.28,0,.5,.23,.5,.49,0,.27-.24,.48-.52,.47s-.5-.23-.5-.49,.24-.48,.52-.47Z"/>
      <path d="M91.55,155c.3,0,.54,.24,.53,.52,0,.28-.25,.51-.55,.5-.3,0-.54-.24-.53-.52,0-.28,.25-.51,.55-.5Z"/>
      <path d="M88.92,137.69c.24,0,.43,.2,.43,.43s-.2,.41-.45,.41c-.24,0-.43-.19-.43-.42,0-.23,.21-.42,.45-.41Z"/>
      <path d="M88.76,142.69c.26,0,.47,.21,.47,.46-.01,.25-.23,.45-.49,.44s-.47-.21-.46-.46,.22-.44,.48-.44Z"/>
      <path d="M89.29,91.26s-.06,10.36-.46,21.77c-.02,.55-.31,1.06-.7,1.47l-7.34,6.49c-.13-5.36-.12-9.95-.12-15.58,0-1.56,.03-5.02,.82-6.39,.93-1.63,7.81-7.75,7.81-7.75Zm-3.06,20.78v-8.75c0-.37-.49-.54-.75-.25l-1.48,1.69c-.58,.66-.9,1.48-.92,2.34l.03,8.02c0,.39,.49,.6,.8,.35l1.11-.9c.77-.63,1.21-1.54,1.21-2.5Z" fill="url(#_무제_그라디언트_86-2)"/>
      <path d="M88.6,147.69c.28,0,.5,.23,.5,.49,0,.27-.24,.48-.52,.47-.28,0-.5-.23-.5-.49s.24-.48,.52-.47Z"/>
      <path d="M88.43,152.69c.3,.01,.54,.24,.53,.53,0,.28-.25,.51-.55,.5-.3,0-.54-.24-.54-.52,.01-.28,.26-.51,.56-.51Z"/>
      <path d="M87.86,57.3c.43,1.37,.66,2.81-.21,3.99-.31,.42-.69,.92-1.15,1.52l-3.39-16.2c1.15,1.28,1.9,2.09,1.9,2.09,0,0,.67,.74,.94,1.52,.25,.71,.24,1.75,1.91,7.09Z" fill="#131315"/>
      <path d="M83.11,46.6l3.39,16.2h0c-.43,.56-.93,1.19-1.52,1.92-.46,.56-1,1.26-1.6,2.04l-1.92-22c.61,.68,1.17,1.29,1.65,1.83h0Z" fill="url(#_무제_그라디언트_27-4)"/>
      <path d="M84.34,19.04l2.14,2.78c-.26,.12-.47,.33-.66,.63l-3.36,5.25c-.25,.39-.34,.84-.27,1.27h-3.74c0-.39,.09-.85,.38-1.36,.88-1.54,3.61-6.11,4.52-7.58,.25-.4,.57-.74,.98-.99Z" fill="#7229ff"/>
      <path d="M85.8,135.38c.24,0,.43,.2,.43,.43s-.21,.41-.45,.41-.43-.19-.43-.42c0-.23,.21-.42,.45-.41Z"/>
      <path d="M86.23,103.29v8.75c0,.96-.44,1.87-1.21,2.5l-1.11,.9c-.31,.25-.79,.05-.8-.35l-.03-8.02c.02-.85,.34-1.68,.92-2.34l1.48-1.69c.25-.28,.75-.12,.75,.25Z" fill="url(#_무제_그라디언트_27-5)"/>
      <path d="M85.64,140.38c.26,0,.47,.21,.46,.46s-.22,.45-.48,.44-.47-.21-.46-.46c0-.25,.22-.44,.48-.44Z"/>
      <path d="M85.48,145.38c.28,0,.5,.23,.5,.49,0,.27-.24,.48-.52,.47-.28,0-.5-.23-.5-.49,0-.27,.24-.48,.52-.47Z"/>
      <path d="M85.32,150.38c.3,.01,.54,.24,.53,.53s-.26,.51-.56,.5c-.3,0-.54-.24-.53-.52,.01-.28,.26-.51,.56-.51Z"/>
      <path d="M82.42,76.71l2.93,3.95c-.91,1.15-6.53,8.18-13.71,15.22l-.05-.02c.6-2.11,1.08-3.97,1.22-5.22,2.97-4.23,6.43-9.26,9.62-13.94Z" fill="#7229ff"/>
      <path d="M80.68,13.63l3.66,5.41c-.4,.25-.73,.59-.98,.99-.91,1.46-3.65,6.04-4.52,7.58-.29,.51-.38,.97-.38,1.36h-5.32c-.05-.82,.25-1.36,.25-1.36,0,0,6.51-12.96,6.93-13.68,.09-.14,.17-.24,.25-.33l.11,.03Z" fill="url(#_무제_그라디언트_32)"/>
      <path d="M84,148.48c.13,.11,.18,.28,.12,.43-.27,.68-.75,1.21-.96,1.46-.12,.14-.31,.19-.48,.13-3.91-1.56-10.51-5.99-12.38-7.22-.28-.19-.39-.54-.24-.84l1.49-3.13c.2-.42,.77-.53,1.14-.23l11.32,9.41Z"/>
      <path d="M81.46,44.76l1.92,22c-1.59,2.09-3.59,4.8-5.42,7.35l-.04-.03-2.86-4.15-1.19-1.72c-.32-.32-.31-.88-.24-1.31,1.35-7.73,5.04-12.34,3.47-17.9-.98-3.49-3.91-13.05-4.1-13.64,2.49,2.78,5.9,6.57,8.45,9.4Z" fill="#7229ff"/>
      <path d="M82.69,133.07c.24,0,.43,.2,.43,.43s-.21,.41-.45,.41-.43-.19-.43-.43c0-.23,.21-.41,.45-.41Z"/>
      <path d="M82.53,138.07c.26,0,.47,.21,.46,.46s-.22,.45-.48,.44-.47-.21-.47-.46c.01-.25,.23-.44,.49-.44Z"/>
      <path d="M82.37,143.07c.28,0,.5,.23,.5,.49-.01,.27-.24,.48-.52,.47-.28,0-.5-.23-.5-.49,0-.27,.24-.48,.52-.47Z"/>
      <path d="M82.61,153.63s0,.19,0,.34c-.39-.13-.78-.25-1.16-.38,.02-.29,.28-.53,.6-.52,.32,0,.57,.26,.56,.56Z"/>
      <path d="M80.22,110.77c.16,0,.3,.13,.29,.29s-.14,.28-.31,.28c-.17,0-.3-.14-.3-.29,0-.16,.14-.28,.31-.28Z"/>
      <path d="M79.9,120.77c.2,0,.37,.16,.36,.36s-.17,.35-.38,.34c-.21,0-.37-.16-.37-.36s.18-.35,.38-.34Z"/>
      <path d="M79.74,125.77c.22,0,.4,.18,.39,.39,0,.21-.19,.38-.41,.38-.22,0-.4-.18-.39-.39,0-.21,.19-.38,.41-.38Z"/>
      <path d="M80.06,115.77c.18,0,.33,.15,.33,.33,0,.18-.16,.32-.34,.31-.19,0-.33-.15-.33-.33,0-.17,.16-.31,.34-.31Z"/>
      <path d="M79.58,130.76c.24,0,.43,.2,.43,.43s-.21,.41-.45,.41-.43-.19-.43-.43c0-.23,.2-.41,.45-.41Z"/>
      <path d="M79.41,135.77c.26,0,.47,.21,.46,.46s-.22,.45-.48,.44c-.26-.01-.47-.21-.47-.46s.23-.44,.49-.44Z"/>
      <path d="M79.25,140.76c.28,0,.5,.23,.5,.49-.01,.27-.24,.48-.53,.47-.28,0-.5-.23-.49-.49,0-.27,.24-.48,.52-.47Z"/>
      <path d="M78.93,150.76c.32,0,.57,.26,.56,.56,0,.31-.27,.54-.59,.54-.32-.01-.57-.26-.57-.56,.01-.3,.27-.54,.6-.53Z"/>
      <path d="M78.97,100.18c.17,0,.3,.14,.3,.29,0,.16-.14,.28-.31,.28s-.3-.13-.3-.29c0-.16,.14-.28,.31-.28Z"/>
      <path d="M78.54,106.9c.17,0,.3,.14,.3,.29,0,.16-.14,.28-.31,.28s-.3-.13-.3-.29,.14-.28,.31-.28Z"/>
      <path d="M77.92,74.09l.04,.03c-1.09,1.51-2.12,2.95-2.99,4.17l-.05-.04,.14-8.31,2.86,4.15Z" fill="url(#_무제_그라디언트_10-2)"/>
      <path d="M77.49,112.77c.17,0,.3,.13,.3,.29,0,.16-.14,.28-.31,.28-.16,0-.3-.13-.29-.29s.14-.28,.31-.28Z"/>
      <path d="M76.74,118.17c.18,0,.33,.15,.33,.33,0,.18-.16,.32-.34,.31-.19,0-.33-.15-.33-.33,0-.17,.16-.31,.34-.31Z"/>
      <path d="M76.34,123.55c.2,0,.37,.17,.36,.36s-.18,.35-.38,.34-.37-.16-.36-.36,.17-.35,.38-.35Z"/>
      <path d="M76.22,128.55c.25,0,.43,.2,.43,.43s-.2,.41-.45,.41c-.25,0-.43-.19-.43-.43,0-.23,.2-.41,.45-.41Z"/>
      <path d="M76.06,133.55c.26,0,.47,.21,.47,.46s-.23,.45-.49,.44c-.26,0-.47-.21-.46-.46s.23-.44,.48-.44Z"/>
      <path d="M75.9,138.55c.28,0,.5,.23,.5,.49s-.24,.48-.52,.47c-.28,0-.5-.23-.5-.49,.01-.27,.24-.48,.52-.47Z"/>
      <path d="M76.18,103.33c.17,0,.3,.13,.3,.29,0,.16-.14,.28-.31,.28-.16,0-.3-.13-.29-.29s.14-.28,.31-.28Z"/>
      <path d="M76.18,14.05h0c-1.53,2.98-4.16,8.39-5.61,11.42l-1.9-6.65,1.02-3.08,6.49-1.7Z" fill="#1f1f1f"/>
      <path d="M75.58,148.55c.32,0,.57,.25,.57,.56s-.27,.54-.59,.54c-.32-.01-.57-.26-.57-.56,0-.3,.27-.54,.59-.53Z"/>
      <path d="M74.76,114.77c.17,0,.3,.14,.3,.29,0,.16-.14,.28-.31,.28s-.3-.13-.3-.29c0-.16,.14-.28,.31-.28Z"/>
      <path d="M74.76,109.41c.17,0,.3,.13,.3,.29s-.14,.28-.31,.27c-.17,0-.3-.13-.3-.29,0-.16,.14-.28,.31-.27Z"/>
      <path d="M73.45,99.96c.17,0,.3,.13,.3,.29s-.14,.28-.31,.27c-.17,0-.3-.13-.3-.29,0-.16,.14-.28,.31-.27Z"/>
      <path d="M73.42,120.58c.18,0,.33,.15,.33,.33,0,.17-.16,.32-.34,.31-.19,0-.33-.15-.33-.33,0-.17,.16-.32,.34-.31Z"/>
      <path d="M72.87,126.34c.24,0,.43,.2,.43,.43s-.2,.41-.45,.41c-.24,0-.43-.19-.43-.43,0-.23,.21-.41,.45-.41Z"/>
      <path d="M72.22,146.34c.32,0,.57,.25,.57,.56-.01,.31-.27,.54-.6,.53-.32,0-.57-.25-.56-.56,0-.31,.27-.54,.59-.53Z"/>
      <path d="M72.17,131.34c.26,0,.47,.21,.47,.46-.01,.25-.23,.44-.49,.44s-.47-.21-.46-.46,.22-.45,.48-.44Z"/>
      <path d="M72.01,136.34c.28,0,.5,.23,.5,.49s-.24,.48-.52,.47c-.28,0-.5-.23-.5-.49,0-.27,.24-.48,.52-.47Z"/>
      <path d="M72.04,116.78c.17,0,.3,.14,.29,.29,0,.16-.14,.28-.31,.28s-.3-.13-.29-.29c0-.16,.14-.28,.31-.28Z"/>
      <path d="M71.84,111.78c.17,0,.3,.14,.29,.29,0,.15-.14,.28-.31,.27s-.3-.13-.29-.29c0-.16,.14-.28,.31-.28Z"/>
      <path d="M71.74,106.3c.17,0,.3,.13,.29,.29,0,.15-.14,.28-.31,.27-.16,0-.3-.13-.29-.29,0-.16,.14-.28,.31-.27Z"/>
      <path d="M55.65,24.82c-.34-3.03-.59-5.42-.59-5.83,0-.52,.37-.98,.89-1.13l.32-.09c2.18-.62,4.9-1.53,6.14-2.03,.1-.04,.18-.07,.26-.11,.87-.37,2.43-1.55,2.43-1.55,.11,0,.21,.03,.31,.07,.68,.32,3.53,1.62,4.27,1.58l-1.02,3.08,1.9,6.65c-.64,1.33-1.05,2.19-1.05,2.19,0,0-.76,2.05,.03,3.61l-2.9,.65c-1.19,.53-4.76,5.92-9.3,7.74,0,0-.13-1.09-.32-2.78-.1-.81-.2-1.76-.32-2.79-.16-1.34-.33-2.83-.5-4.32-.19-1.7-.39-3.41-.55-4.96Z" fill="#131315"/>
      <path d="M70.43,103.04c.17,0,.3,.14,.3,.29,0,.16-.14,.28-.31,.28-.16,0-.3-.13-.29-.29,0-.16,.14-.28,.31-.28Z"/>
      <path d="M69.04,139.13c.3,0,.54,.24,.53,.53s-.26,.51-.56,.5-.54-.24-.53-.53,.26-.51,.56-.5Z"/>
      <path d="M68.87,144.12c.32,.01,.57,.26,.56,.56,0,.3-.27,.54-.59,.53-.32,0-.57-.25-.56-.56,0-.31,.27-.54,.59-.54Z"/>
      <path d="M69.03,109.12c.17,0,.3,.13,.29,.29,0,.16-.14,.28-.31,.27-.16,0-.3-.13-.29-.29,0-.15,.14-.28,.31-.27Z"/>
      <path d="M65.11,14.09s-1.56,1.18-2.43,1.55c-.08,.04-.17,.07-.26,.11l-18.07,1.07-.2-2.17,.05-.03s12.39-.76,20.91-.53Z" fill="#c8c8c8"/>
      <path d="M44.35,16.82l18.07-1.07c-1.24,.5-3.96,1.41-6.14,2.03l-11.75,.65h-.03l-.15-1.61Z" fill="#fff"/>
      <path d="M57.35,39.67l-10.78,.85-.25-2.71,10.71-.92c.19,1.69,.32,2.78,.32,2.78Z" fill="#b4b4b4"/>
      <path d="M57.02,36.89l-10.71,.92-.26-2.79,10.65-.92c.12,1.03,.23,1.98,.32,2.79Z" fill="url(#_무제_그라디언트_121-3)"/>
      <path d="M56.7,34.1l-10.65,.92-.9-9.54h0l10.49-.66c.17,1.55,.36,3.26,.55,4.96,.17,1.49,.34,2.98,.5,4.32Z" fill="#515151"/>
      <path d="M56.28,17.77l-.32,.09c-.53,.15-.89,.6-.89,1.13,0,.4,.25,2.8,.59,5.83l-10.49,.66h0l-.66-7.06h.03l11.75-.65Z" fill="#c8c8c8"/>
      <path d="M46.32,37.81l.25,2.71-1.21-.76c-1.46-10.1-2.23-24.43-2.23-24.43l1.01-.69,.2,2.17,.15,1.61,.66,7.06,.9,9.54,.26,2.79Z" fill="#c9c6c1"/>
      <path d="M45.36,39.77l-.99-.63s-2.06-14.78-2.06-23.26l.82-.54s.78,14.33,2.23,24.43Z" fill="#6d6d6d"/>
    </g>
    <g>
      <ellipse cx="94.3" cy="127.73" rx="2.72" ry="2.58" fill="none" stroke="#000" stroke-miterlimit="10" stroke-width=".4"/>
      <path d="M102.72,18.83c.24,.06,.46,.16,.62,.3,.63,.56,1.14,1.05,1.56,1.48,.97,1,1.4,1.67,1.44,2.17,.02,.17-.01,.32-.08,.45-.37,.69-9.87,20.46-9.87,20.46,0,0-.14,.5-.86,.76-.23,.08-.74,.21-1.3,.32" fill="none" stroke="#000" stroke-miterlimit="10" stroke-width=".4"/>
      <path d="M94.22,44.76c-.37,.07-.77,.12-1.13,.15,0,0-.64,.04-.96-.07-.31-.12-1.4-1.1-1.4-1.1l-11.92-13.55s-.35-.48-.37-1.22c0-.39,.09-.85,.38-1.36,.88-1.54,3.61-6.11,4.52-7.58,.25-.4,.57-.74,.98-.99,.06-.04,.12-.07,.18-.1,.3-.15,.65-.28,1.04-.32,1.09-.09,16.03,.07,16.03,.07,0,0,.6-.02,1.13,.13" fill="none" stroke="#000" stroke-miterlimit="10" stroke-width=".4"/>
      <polyline points="91.14 50.61 94.22 44.76 94.22 44.75" fill="none" stroke="#000" stroke-miterlimit="10" stroke-width=".4"/>
      <path d="M92.6,61.64s-.86-2.32-1.58-6.1c-.36-1.92,.12-4.94,.12-4.94" fill="none" stroke="#000" stroke-miterlimit="10" stroke-width=".7"/>
      <path d="M99.39,163.82c1.35-.24,2.6-.87,3.55-1.87l3.31-3.02c.78-.82,1.01-1.98,.6-3.01-.5-1.25-1.23-3.41-2.02-5.75-.1-.29-.2-.58-.3-.87-.11-.33-.22-.65-.33-.98-.19-.57,1.49-1.23,1.29-1.83-.36-1.12-1.11-3.29-1.45-4.47-1.39-4.79-3.98-8.82-3.77-12.6,.08-1.33-.19-9.54-.12-10.74,.42-7.35,1.11-5.28-1.64-20.51-3.29-18.23-3.85-34.69-3.85-34.69l-2.06-1.83" fill="none" stroke="#000" stroke-miterlimit="10" stroke-width=".4"/>
      <path d="M64.39,153.16c.27,.37,.64,.73,1.17,1.05,4.91,3,24.59,8.97,31.77,9.7,.7,.07,1.4,.04,2.07-.09" fill="none" stroke="#000" stroke-miterlimit="10" stroke-width=".43"/>
      <path d="M72.8,90.64c-.14,1.26-.62,3.11-1.22,5.22-1.47,5.16-3.67,11.84-3.52,15,.17,3.6,4.02,8.08,1.61,17.41,0,0-2.79,14.19-4.97,18.69l-.02,.03s-.23,1.76-.68,3.41c0,0-.55,1.42,.39,2.75" fill="none" stroke="#000" stroke-miterlimit="10" stroke-width=".4"/>
      <path d="M86.5,62.81c-.43,.55-.93,1.19-1.52,1.92-.46,.56-1,1.26-1.6,2.04-1.59,2.09-3.59,4.8-5.42,7.35-1.09,1.51-2.12,2.95-2.99,4.17-.7,1-1.29,1.84-1.7,2.44s-.61,1.29-.58,1.99c.1,2.51,.33,5.96,.11,7.93" fill="none" stroke="#000" stroke-miterlimit="10" stroke-width=".7"/>
      <path d="M83.11,46.6c1.15,1.28,1.9,2.09,1.9,2.09,0,0,.67,.74,.94,1.52,.25,.71,.24,1.75,1.91,7.09,.43,1.37,.66,2.81-.21,3.99-.31,.42-.69,.92-1.15,1.52" fill="none" stroke="#000" stroke-miterlimit="10" stroke-width=".7"/>
      <path d="M73.01,35.37c2.49,2.78,5.9,6.57,8.45,9.4,.61,.68,1.17,1.29,1.65,1.83" fill="none" stroke="#000" stroke-miterlimit="10" stroke-width=".7"/>
      <path d="M69.55,31.28c.08,.17,.18,.33,.31,.48,.33,.42,1.55,1.79,3.16,3.6" fill="none" stroke="#000" stroke-miterlimit="10" stroke-width=".7"/>
      <path d="M104.9,20.61c10.04-.33,11.16,1.01,22.04,8.36,3.34,2.25,9.37,6.55,10.79,7.75,.27,.24,.62,.39,.99,.43l2.88,.34s2.54,.4,1.33-1.55c-1.21-1.95-14.74-16.48-19.73-19.82-3.26-2.19-6.32-3.25-8.66-4.13-3.18-1.19-9.79-1.77-13.21-1.77h-21.16s-1.75-.09-3.01,2c-.2,.34-.55,.99-.98,1.83-1.53,2.98-4.16,8.39-5.61,11.42-.64,1.33-1.05,2.19-1.05,2.19,0,0-.76,2.05,.03,3.61" fill="none" stroke="#000" stroke-miterlimit="10" stroke-width=".4"/>
      <path d="M103.41,23.19l-8.24,17.97c-.47,.75-1.59,.83-2.19,.17l-10.34-11.43c-.25-.27-.4-.59-.45-.93-.07-.43,.02-.88,.27-1.27l3.36-5.25c.19-.3,.4-.5,.66-.63,.22-.11,.48-.15,.81-.15l14.8,.1c.09,0,.1,0,.21,.03,.35,.11,1.11,1.26,1.11,1.4Z" fill="none" stroke="#000" stroke-miterlimit="10" stroke-width=".4"/>
      <polyline points="78.43 28.97 78.46 28.97 82.2 28.97 82.21 28.97" fill="none" stroke="#000" stroke-miterlimit="10" stroke-width=".4"/>
      <line x1="86.48" y1="21.82" x2="84.34" y2="19.04" fill="none" stroke="#000" stroke-miterlimit="10" stroke-width=".4"/>
      <line x1="106.33" y1="22.77" x2="103.41" y2="23.19" fill="none" stroke="#000" stroke-miterlimit="10" stroke-width=".4"/>
      <polyline points="102.72 18.82 102.72 18.83 102.3 21.79" fill="none" stroke="#000" stroke-miterlimit="10" stroke-width=".4"/>
      <path d="M80.57,13.6c-.09,.08-.17,.19-.25,.33-.42,.71-6.93,13.68-6.93,13.68,0,0-.3,.54-.25,1.36,.02,.38,.11,.82,.34,1.3,.72,1.5,15.35,17.72,15.35,17.72,1.36,1.37,2.13,1.73,2.31,2.62" fill="none" stroke="#000" stroke-miterlimit="10" stroke-width=".7"/>
      <path d="M118.26,16.81c-3.83-1.84-7.7-2.91-10.26-3.1,0,0-3.63-.52-10.11-.46-6.48,.06-15.95,.1-15.95,.1-.71,.01-1.06-.05-1.37,.25" fill="none" stroke="#000" stroke-miterlimit="10" stroke-width=".4"/>
      <path d="M141.6,37.49c-.12-.02-.28-.09-.44-.19-.34-.22-.63-.5-.87-.82-1.04-1.36-5.81-6.59-14.12-14.42-2.26-2.13-5.07-3.89-7.89-5.24" fill="none" stroke="#000" stroke-miterlimit="10" stroke-width=".7"/>
      <path d="M76.18,14.05l-6.49,1.7c-.74,.04-3.6-1.26-4.27-1.58-.1-.04-.2-.07-.31-.07-8.52-.23-20.91,.53-20.91,.53l-.05,.03-1.01,.69-.82,.54c0,8.48,2.06,23.26,2.06,23.26l.99,.63,1.21,.76,10.78-.85c4.54-1.82,8.11-7.21,9.3-7.74l2.9-.65" fill="none" stroke="#000" stroke-miterlimit="10" stroke-width=".4"/>
      <path d="M65.11,14.09s-1.56,1.18-2.43,1.55c-.08,.04-.17,.07-.26,.11-1.24,.5-3.96,1.41-6.14,2.03l-.32,.09c-.53,.15-.89,.6-.89,1.13,0,.4,.25,2.8,.59,5.83,.17,1.55,.36,3.26,.55,4.96,.17,1.49,.34,2.98,.5,4.32,.12,1.03,.23,1.98,.32,2.79,.19,1.69,.32,2.78,.32,2.78" fill="none" stroke="#000" stroke-miterlimit="10" stroke-width=".4"/>
      <polyline points="44.14 14.63 44.14 14.65 44.35 16.82 44.5 18.42 45.16 25.48 46.06 35.02 46.32 37.81 46.57 40.52" fill="none" stroke="#000" stroke-miterlimit="10" stroke-width=".4"/>
      <polyline points="44.32 16.82 44.35 16.82 62.42 15.74 62.44 15.74" fill="none" stroke="#000" stroke-miterlimit="10" stroke-width=".4"/>
      <polyline points="44.52 18.42 56.28 17.77 56.32 17.77" fill="none" stroke="#000" stroke-miterlimit="10" stroke-width=".4"/>
      <polyline points="45.16 25.48 55.65 24.82 55.7 24.81" fill="none" stroke="#000" stroke-miterlimit="10" stroke-width=".4"/>
      <polyline points="46.03 35.02 46.06 35.02 56.7 34.1 56.91 34.09" fill="none" stroke="#000" stroke-miterlimit="10" stroke-width=".4"/>
      <polyline points="46.26 37.81 46.32 37.81 57.02 36.89 57.14 36.88" fill="none" stroke="#000" stroke-miterlimit="10" stroke-width=".4"/>
      <path d="M73.01,35.37c.18,.59,3.11,10.14,4.1,13.64,1.56,5.56-2.13,10.17-3.47,17.9-.08,.43-.08,1,.24,1.31l1.19,1.72,2.86,4.15" fill="none" stroke="#000" stroke-miterlimit="10" stroke-width=".4"/>
      <path d="M73.01,35.36h0" fill="none" stroke="#000" stroke-miterlimit="10" stroke-width=".7"/>
      <path d="M73,35.34s0,.01,.01,.03" fill="none" stroke="#000" stroke-miterlimit="10" stroke-width=".4"/>
      <path d="M92.6,61.64s-4.69,7-10.19,15.06c-3.18,4.67-6.64,9.71-9.62,13.94" fill="none" stroke="#000" stroke-miterlimit="10" stroke-width=".7"/>
      <path d="M94.66,63.47s-2.1,5.85-9.18,17.02" fill="none" stroke="#000" stroke-miterlimit="10" stroke-width=".4"/>
      <line x1="80.78" y1="120.98" x2="80.67" y2="121.08" fill="none" stroke="#000" stroke-miterlimit="10" stroke-width=".4"/>
      <path d="M82.42,76.71l2.93,3.95,3.12,4.21s.47,.72,.65,2.27c.18,1.55,.17,4.12,.17,4.12,0,0-.06,10.36-.46,21.77-.02,.55-.31,1.06-.7,1.47l-7.34,6.49" fill="none" stroke="#000" stroke-miterlimit="10" stroke-width=".7"/>
      <path d="M80.78,120.98c-.13-5.36-.12-9.95-.12-15.58,0-1.56,.03-5.02,.82-6.39,.93-1.63,7.81-7.75,7.81-7.75" fill="none" stroke="#000" stroke-miterlimit="10" stroke-width=".4"/>
      <path d="M104.19,148.31l-23.16-20.04c-.04-.92-.08-1.81-.11-2.67-.06-1.62-.1-3.15-.14-4.62" fill="none" stroke="#000" stroke-miterlimit="10" stroke-width=".7"/>
      <line x1="105.49" y1="146.49" x2="80.94" y2="125.6" fill="none" stroke="#000" stroke-miterlimit="10" stroke-width=".4"/>
      <path d="M81.45,153.59c-9.57-3.2-16.75-6.62-16.75-6.62" fill="none" stroke="#000" stroke-miterlimit="10" stroke-width=".7"/>
      <path d="M82.61,153.97c-.39-.13-.78-.25-1.16-.38" fill="none" stroke="#000" stroke-miterlimit="10" stroke-width=".4"/>
      <path d="M106.25,158.92c-7.77-.41-16.33-2.57-23.64-4.95" fill="none" stroke="#000" stroke-miterlimit="10" stroke-width=".7"/>
      <polyline points="69.69 15.74 68.67 18.82 70.57 25.47" fill="none" stroke="#000" stroke-miterlimit="10" stroke-width=".4"/>
      <path d="M94.24,37.41c-.33,.49-1.11,.54-1.52,.11l-7.19-7.94c-.39-.4-.43-.98-.13-1.43l2.03-3.76c.25-.37,.54-.51,1.02-.51h10.97c.85,.04,.85,.59,.74,.93l-5.92,12.6Z" fill="none" stroke="#000" stroke-miterlimit="10" stroke-width=".4"/>
      <path d="M93.59,35.02c-.24,.37-.79,.42-1.08,.09l-5.07-5.43c-.27-.31-.42-.72-.2-1.06l1.46-2.95c.18-.28,.38-.39,.72-.39h7.85s.08,0,.13,0c.61,.03,.51,.41,.39,.71l-4.2,9.04Z" fill="none" stroke="#000" stroke-miterlimit="10" stroke-width=".7"/>
      <line x1="75.06" y1="69.94" x2="74.92" y2="78.25" fill="none" stroke="#000" stroke-miterlimit="10" stroke-width=".4"/>
      <path d="M81.45,153.61v-.02" fill="none" stroke="#000" stroke-miterlimit="10" stroke-width=".4"/>
      <polyline points="83.11 46.59 83.11 46.6 86.5 62.8 86.5 62.81" fill="none" stroke="#000" stroke-miterlimit="10" stroke-width=".7"/>
      <path d="M83.91,115.44c-.31,.25-.79,.05-.8-.35l-.03-8.02c.02-.85,.34-1.68,.92-2.34l1.48-1.69c.25-.28,.75-.12,.75,.25v8.75c0,.96-.44,1.87-1.21,2.5l-1.11,.9Z" fill="none" stroke="#000" stroke-miterlimit="10" stroke-width=".4"/>
      <path d="M85.48,80.49l-.13,.17c-.91,1.15-6.53,8.18-13.71,15.22" fill="none" stroke="#000" stroke-miterlimit="10" stroke-width=".4"/>
      <line x1="81.46" y1="44.76" x2="83.38" y2="66.77" fill="none" stroke="#000" stroke-miterlimit="10" stroke-width=".7"/>
      <line x1="81.46" y1="44.75" x2="81.46" y2="44.76" fill="none" stroke="#000" stroke-miterlimit="10" stroke-width=".4"/>
      <ellipse cx="94.3" cy="127.73" rx="1.61" ry="1.52" fill="none" stroke="#000" stroke-miterlimit="10" stroke-width=".4"/>
      <line x1="73.14" y1="28.97" x2="78.43" y2="28.97" fill="none" stroke="#000" stroke-miterlimit="10" stroke-width=".4"/>
      <line x1="80.68" y1="13.63" x2="84.34" y2="19.04" fill="none" stroke="#000" stroke-miterlimit="10" stroke-width=".4"/>
      <path d="M43.13,15.34s.78,14.33,2.23,24.43" fill="none" stroke="#000" stroke-miterlimit="10" stroke-width=".4"/>
      <path d="M64.39,153.14h0s0,.02,0,.02l.12,.72c.12,.72,.59,2.22,1.23,2.57,2.87,1.55,13.35,6.03,29.83,9.06,1.22,.22,2.78-1.01,3.82-1.69" fill="none" stroke="#000" stroke-miterlimit="10" stroke-width=".43"/>
      <path d="M94.66,10.22s15.7,1.36,23.6,6.59t.01,0" fill="none" stroke="#000" stroke-miterlimit="10" stroke-width=".4"/>
    </g>
  </g>
</svg>