<svg width="14" height="13" viewBox="0 0 14 13" fill="none" xmlns="http://www.w3.org/2000/svg">
<path d="M7 0C3.13392 0 0 2.45165 0 5.47603C0 7.44467 1.32798 9.16965 3.32068 10.135C3.17417 10.6761 2.7905 12.0946 2.71362 12.3982C2.61897 12.775 2.85324 12.77 3.00663 12.6684C3.12703 12.5891 4.92499 11.3798 5.70067 10.8577C6.12169 10.9194 6.55577 10.9521 7 10.9521C10.8661 10.9521 14 8.50004 14 5.47603C14 2.45201 10.8661 0 7 0Z" fill="#391B1B"/>
<path d="M4.18197 3.86328H2.13524C1.94268 3.86328 1.78711 4.01759 1.78711 4.20778C1.78711 4.39797 1.94304 4.55227 2.13524 4.55227H2.80068V6.9788C2.80068 7.06708 2.83695 7.15392 2.90077 7.21672C2.96314 7.27916 3.05054 7.31504 3.14011 7.31504H3.21445C3.30366 7.31504 3.39069 7.27916 3.45343 7.21672C3.51725 7.15392 3.55352 7.06744 3.55352 6.9788V4.55227H4.18197C4.37453 4.55227 4.53046 4.39797 4.53046 4.20778C4.53046 4.01759 4.37453 3.86328 4.18197 3.86328Z" fill="#FAE300"/>
<path d="M9.10147 6.66658H8.14954V4.18837C8.14954 3.98168 7.98055 3.81445 7.77204 3.81445C7.56352 3.81445 7.39453 3.98168 7.39453 4.18837V6.85964C7.39453 6.88045 7.39707 6.89983 7.40033 6.91957C7.39671 6.93895 7.39453 6.95904 7.39453 6.97914C7.39453 7.1521 7.5356 7.29205 7.71039 7.29205H9.10147C9.27662 7.29205 9.41733 7.1521 9.41733 6.97914C9.41733 6.80617 9.27626 6.66658 9.10147 6.66658Z" fill="#FAE300"/>
<path d="M12.1434 6.78033L11.0827 5.40164L12.0412 4.45284C12.171 4.32474 12.171 4.11624 12.0412 3.98778C11.9114 3.85931 11.701 3.85931 11.5708 3.98778L10.3843 5.16193V4.18837C10.3843 3.98168 10.2153 3.81445 10.0068 3.81445C9.79826 3.81445 9.62891 3.98168 9.62891 4.18837V6.94182C9.62891 7.14851 9.7979 7.31574 10.0068 7.31574C10.2157 7.31574 10.3843 7.14887 10.3843 6.94182V6.09242L10.6001 5.87927L11.6035 7.18224C11.7152 7.32973 11.9273 7.36023 12.0764 7.24863C12.2254 7.13775 12.2555 6.92818 12.1434 6.78033Z" fill="#FAE300"/>
<path d="M7.11351 6.87005L6.09341 4.10835C6.09341 4.10835 6.09087 4.1062 6.09015 4.10512C6.02487 3.93682 5.83667 3.81445 5.61219 3.81445C5.36306 3.81445 5.15708 3.96517 5.1161 4.16218C5.10921 4.17689 5.10232 4.1916 5.09652 4.20739L4.09346 6.87005C4.03145 7.04481 4.12429 7.23571 4.30017 7.29708C4.47641 7.35844 4.6697 7.26657 4.73171 7.09217L4.90541 6.60199H6.30157L6.47491 7.09217C6.53692 7.26657 6.7302 7.35844 6.90645 7.29708C7.08269 7.23571 7.17552 7.04481 7.11351 6.87005ZM5.12698 5.9758L5.59624 4.65093C5.60168 4.65093 5.60603 4.65236 5.61147 4.65236L6.08036 5.9758H5.12735H5.12698Z" fill="#FAE300"/>
</svg>
