<svg width="12" height="14" viewBox="0 0 12 14" fill="none" xmlns="http://www.w3.org/2000/svg">
<path d="M11.7485 10.9103C11.5331 11.3994 11.278 11.8496 10.9826 12.2635C10.5798 12.8278 10.25 13.2185 9.9959 13.4354C9.60194 13.7914 9.17983 13.9737 8.72783 13.9841C8.40334 13.9841 8.01202 13.8934 7.5565 13.7093C7.09949 13.5261 6.6795 13.4354 6.29547 13.4354C5.89272 13.4354 5.46077 13.5261 4.99874 13.7093C4.53601 13.8934 4.16324 13.9893 3.87824 13.9988C3.44479 14.0169 3.01275 13.8294 2.5815 13.4354C2.30626 13.1994 1.96198 12.795 1.54955 12.2221C1.10705 11.6102 0.743251 10.9007 0.458244 10.0919C0.153012 9.2182 0 8.37218 0 7.55312C0 6.61489 0.206302 5.80568 0.619522 5.12756C0.944277 4.58288 1.37632 4.15321 1.91705 3.83779C2.45778 3.52236 3.04203 3.36163 3.67123 3.35134C4.01551 3.35134 4.46698 3.456 5.02802 3.66167C5.58748 3.86803 5.94671 3.97268 6.10421 3.97268C6.22196 3.97268 6.62102 3.85032 7.29752 3.60636C7.93727 3.38012 8.47721 3.28645 8.91954 3.32335C10.1181 3.4184 11.0186 3.88272 11.6175 4.71924C10.5455 5.35752 10.0152 6.2515 10.0258 7.39834C10.0355 8.29164 10.3652 9.035 11.0133 9.62523C11.3071 9.89917 11.6351 10.1109 12 10.2613C11.9209 10.4868 11.8373 10.7028 11.7485 10.9103ZM8.99956 0.28008C8.99956 0.98024 8.73926 1.63398 8.22043 2.23907C7.59431 2.95841 6.83699 3.37407 6.01574 3.30848C6.00528 3.22448 5.99921 3.13608 5.99921 3.04318C5.99921 2.37103 6.29697 1.65169 6.82574 1.06354C7.08973 0.765744 7.42547 0.518133 7.83263 0.320609C8.2389 0.126032 8.62319 0.0184269 8.98461 0C8.99516 0.0936004 8.99956 0.187207 8.99956 0.280071V0.28008Z" fill="white"/>
</svg>
