<svg width="14" height="15" viewBox="0 0 14 15" fill="none" xmlns="http://www.w3.org/2000/svg">
<path fill-rule="evenodd" clip-rule="evenodd" d="M13.72 7.65936C13.72 7.16299 13.6755 6.68572 13.5927 6.22754H7V8.93527H10.7673C10.605 9.81027 10.1118 10.5516 9.37045 11.048V12.8044H11.6327C12.9564 11.5857 13.72 9.79118 13.72 7.65936Z" fill="#4285F4"/>
<path fill-rule="evenodd" clip-rule="evenodd" d="M6.99569 14.5001C8.88569 14.5001 10.4702 13.8733 11.6284 12.8042L9.36615 11.0478C8.73933 11.4678 7.93751 11.716 6.99569 11.716C5.17251 11.716 3.62933 10.4846 3.07887 8.83008H0.740234V10.6437C1.89205 12.9314 4.25933 14.5001 6.99569 14.5001Z" fill="#34A853"/>
<path fill-rule="evenodd" clip-rule="evenodd" d="M3.08318 8.83008C2.94318 8.41008 2.86364 7.96145 2.86364 7.50008C2.86364 7.03872 2.94318 6.59008 3.08318 6.17008V4.35645H0.744545C0.270454 5.30145 0 6.37054 0 7.50008C0 8.62963 0.270454 9.69872 0.744545 10.6437L3.08318 8.83008Z" fill="#FBBC05"/>
<path fill-rule="evenodd" clip-rule="evenodd" d="M6.99569 3.28409C8.02342 3.28409 8.94614 3.63727 9.6716 4.33091L11.6793 2.32318C10.4671 1.19364 8.88251 0.5 6.99569 0.5C4.25933 0.5 1.89205 2.06864 0.740234 4.35636L3.07887 6.17C3.62932 4.51545 5.17251 3.28409 6.99569 3.28409Z" fill="#EA4335"/>
</svg>
