<svg width="16" height="15" viewBox="0 0 16 15" fill="none" xmlns="http://www.w3.org/2000/svg">
<path d="M8 0.142578C3.58162 0.142578 0 2.94447 0 6.40089C0 8.65077 1.51769 10.6222 3.79506 11.7254C3.62762 12.3438 3.18914 13.965 3.10128 14.312C2.99311 14.7426 3.26084 14.7368 3.43615 14.6208C3.57375 14.5301 5.62856 13.1481 6.51505 12.5513C6.99622 12.6219 7.49231 12.6592 8 12.6592C12.4184 12.6592 16 9.85691 16 6.40089C16 2.94488 12.4184 0.142578 8 0.142578Z" fill="#FBE300"/>
<path d="M4.77934 4.55859H2.44022C2.22015 4.55859 2.04236 4.73494 2.04236 4.9523C2.04236 5.16966 2.22057 5.34601 2.44022 5.34601H3.20073V8.11919C3.20073 8.22008 3.24217 8.31932 3.31511 8.39109C3.3864 8.46245 3.48628 8.50346 3.58865 8.50346H3.67361C3.77556 8.50346 3.87503 8.46245 3.94673 8.39109C4.01967 8.31932 4.06111 8.22049 4.06111 8.11919V5.34601H4.77934C4.99941 5.34601 5.17762 5.16966 5.17762 4.9523C5.17762 4.73494 4.99941 4.55859 4.77934 4.55859V4.55859Z" fill="#402418"/>
<path d="M10.4016 7.76153H9.31368V4.92929C9.31368 4.69307 9.12055 4.50195 8.88224 4.50195C8.64394 4.50195 8.45081 4.69307 8.45081 4.92929V7.98217C8.45081 8.00595 8.45371 8.0281 8.45744 8.05066C8.45329 8.0728 8.45081 8.09577 8.45081 8.11873C8.45081 8.31641 8.61202 8.47635 8.81179 8.47635H10.4016C10.6018 8.47635 10.7626 8.31641 10.7626 8.11873C10.7626 7.92106 10.6014 7.76153 10.4016 7.76153V7.76153Z" fill="#402418"/>
<path d="M13.8781 7.89153L12.6659 6.31588L13.7613 5.23154C13.9096 5.08513 13.9096 4.84686 13.7613 4.70004C13.6129 4.55322 13.3725 4.55322 13.2237 4.70004L11.8677 6.04193V4.92929C11.8677 4.69307 11.6746 4.50195 11.4362 4.50195C11.1979 4.50195 11.0044 4.69307 11.0044 4.92929V8.07608C11.0044 8.31231 11.1975 8.50342 11.4362 8.50342C11.675 8.50342 11.8677 8.31272 11.8677 8.07608V7.10535L12.1143 6.86174L13.261 8.35086C13.3887 8.51941 13.6311 8.55427 13.8015 8.42673C13.9718 8.3 14.0062 8.0605 13.8781 7.89153V7.89153Z" fill="#402418"/>
<path d="M8.12973 7.99406L6.9639 4.83783C6.9639 4.83783 6.961 4.83537 6.96017 4.83414C6.88557 4.6418 6.67047 4.50195 6.41393 4.50195C6.12921 4.50195 5.89381 4.6742 5.84698 4.89935C5.8391 4.91617 5.83123 4.93298 5.8246 4.95103L4.67825 7.99406C4.60738 8.19378 4.71347 8.41196 4.91448 8.48209C5.1159 8.55222 5.3368 8.44723 5.40767 8.24792L5.60618 7.68771H7.20179L7.39989 8.24792C7.47076 8.44723 7.69166 8.55222 7.89308 8.48209C8.0945 8.41196 8.2006 8.19378 8.12973 7.99406ZM5.85941 6.97206L6.3957 5.45792C6.40192 5.45792 6.40689 5.45956 6.41311 5.45956L6.94898 6.97206H5.85982H5.85941Z" fill="#402418"/>
</svg>
