<svg width="24" height="25" viewBox="0 0 24 25" fill="none" xmlns="http://www.w3.org/2000/svg">
<path d="M11.9481 22.0987C10.6818 22.0987 9.51245 21.7865 8.46858 21.1688C4.79937 18.9983 3.99975 13.6995 6.68787 9.35719C8.54636 6.35425 11.6316 4.48926 14.7372 4.48926C16.0035 4.48926 17.1729 4.80142 18.2168 5.41909C21.886 7.58958 22.6856 12.8884 19.9975 17.2307C18.139 20.2337 15.0552 22.1 11.9481 22.1V22.0987Z" fill="#EF6A9D"/>
<path d="M14.7375 4.08887V4.88929C15.9274 4.88929 17.0258 5.18278 18.0042 5.76043C21.481 7.81619 22.2179 12.8682 19.6471 17.0224C18.7561 18.4632 17.5471 19.6612 16.1512 20.487C14.8112 21.2794 13.358 21.6983 11.9484 21.6983C10.7586 21.6983 9.65874 21.4048 8.68174 20.8271C7.02247 19.8453 5.92949 18.151 5.60336 16.0553C5.26905 13.9048 5.77939 11.6009 7.03885 9.56512C7.92988 8.12435 9.13886 6.92638 10.5348 6.10061C11.8747 5.30818 13.328 4.88929 14.7375 4.88929V4.08887ZM14.7375 4.08887C11.6141 4.08887 8.32423 5.94186 6.33748 9.15157C3.52928 13.69 4.38757 19.2249 8.25737 21.5128C9.38993 22.1825 10.6548 22.5 11.9484 22.5C15.0718 22.5 18.3617 20.647 20.3485 17.4373C23.1567 12.8989 22.2984 7.36395 18.4286 5.07606C17.296 4.40637 16.0311 4.08887 14.7375 4.08887Z" fill="#971A4A"/>
<path d="M9.262 20.5111C7.99571 20.5111 6.82631 20.199 5.78245 19.5813C2.11323 17.4108 1.31498 12.112 4.00174 7.76966C5.86023 4.76672 8.94543 2.90039 12.0511 2.90039C13.3174 2.90039 14.4868 3.21256 15.5306 3.83022C19.1999 6.00071 19.9995 11.2995 17.3113 15.6419C15.4529 18.6448 12.369 20.5111 9.262 20.5111Z" fill="#FF8FB4"/>
<path d="M12.0513 2.5V3.30043C13.2412 3.30043 14.3396 3.59392 15.318 4.17156C16.9772 5.15342 18.0702 6.84765 18.3963 8.94344C18.7306 11.0939 18.2203 13.3978 16.9609 15.4336C16.0698 16.8743 14.8608 18.0723 13.4649 18.8981C12.125 19.6905 10.6717 20.1094 9.26219 20.1094C8.07232 20.1094 6.97251 19.8159 5.99551 19.2383C2.51869 17.1825 1.78184 12.1305 4.35261 7.97626C5.24365 6.53549 6.45262 5.33751 7.84853 4.51174C9.1885 3.71932 10.6417 3.30043 12.0513 3.30043V2.5ZM12.0513 2.5C8.92788 2.5 5.638 4.35299 3.65261 7.5627C0.843046 12.1011 1.7027 17.6347 5.57114 19.924C6.7037 20.5937 7.96861 20.9112 9.26219 20.9112C12.3856 20.9112 15.6755 19.0582 17.6622 15.8485C20.4704 11.31 19.6121 5.77508 15.7423 3.48719C14.6098 2.8175 13.3449 2.5 12.0513 2.5Z" fill="#971A4A"/>
<path d="M5.61258 19.3149L5.33008 19.7715L8.68792 21.7573L8.97042 21.3007L5.61258 19.3149Z" fill="#971A4A"/>
<path d="M15.707 3.48749L15.2832 4.17236L18.641 6.15817L19.0648 5.47329L15.707 3.48749Z" fill="#971A4A"/>
<path d="M18.5009 6.59833L18.0771 7.2832L20.6878 8.8271L21.1115 8.14223L18.5009 6.59833Z" fill="#971A4A"/>
<path d="M19.0478 9.2663L18.624 9.95117L21.2346 11.4951L21.6584 10.8102L19.0478 9.2663Z" fill="#971A4A"/>
<path d="M19.0468 12.2009L18.623 12.8857L21.2337 14.4296L21.6574 13.7448L19.0468 12.2009Z" fill="#971A4A"/>
<path d="M17.5459 15.4016L17.1222 16.0864L19.7328 17.6303L20.1566 16.9455L17.5459 15.4016Z" fill="#971A4A"/>
<path d="M15.0899 17.9372L14.6661 18.6221L17.2768 20.166L17.7005 19.4811L15.0899 17.9372Z" fill="#971A4A"/>
<path d="M12.6346 19.404L12.2108 20.0889L14.8214 21.6328L15.2452 20.9479L12.6346 19.404Z" fill="#971A4A"/>
<path d="M10.1777 20.2053L9.75391 20.8901L12.3645 22.434L12.7883 21.7492L10.1777 20.2053Z" fill="#971A4A"/>
<path d="M9.12354 9.25L8.88202 10.4173H7.57753L6.89936 13.7204H5.3861L6.06427 10.4173H4.7666L5.00812 9.25H9.1249H9.12354Z" fill="#971A4A"/>
<path d="M10.9956 9.25L10.0827 13.7204H8.56946L9.48233 9.25H10.9956Z" fill="#971A4A"/>
<path d="M16.293 9.25L14.2707 11.1057L15.4251 13.7204H13.6703L13.044 12.2223L12.4436 12.7772L12.2485 13.7217H10.7352L11.6481 9.25133H13.1614L12.8284 10.8775L14.4918 9.25133H16.293V9.25Z" fill="#971A4A"/>
</svg>
