<svg width="21" height="20" viewBox="0 0 21 20" fill="none" xmlns="http://www.w3.org/2000/svg">
<path d="M17.3335 2.43359H3.61712C2.17173 2.43359 1 3.602 1 5.0433V16.238C1 17.6793 2.17173 18.8477 3.61712 18.8477H17.3335C18.7789 18.8477 19.9506 17.6793 19.9506 16.238V5.0433C19.9506 3.602 18.7789 2.43359 17.3335 2.43359Z" stroke="#BFBFBF" stroke-width="1.5" stroke-miterlimit="10"/>
<path d="M1 7.30664H19.9506" stroke="#BFBFBF" stroke-width="1.5" stroke-miterlimit="10"/>
<path d="M5.84135 9.51367H3.58203V11.7666H5.84135V9.51367Z" fill="#BFBFBF"/>
<path d="M5.78963 0H4.11621V4.3509H5.78963V0Z" fill="#BFBFBF"/>
<path d="M16.8343 0H15.1609V4.3509H16.8343V0Z" fill="#BFBFBF"/>
<path d="M9.62236 9.51367H7.36304V11.7666H9.62236V9.51367Z" fill="#BFBFBF"/>
<path d="M13.5877 9.51367H11.3284V11.7666H13.5877V9.51367Z" fill="#BFBFBF"/>
<path d="M17.4607 9.51367H15.2014V11.7666H17.4607V9.51367Z" fill="#BFBFBF"/>
<path d="M5.84135 13.0078H3.58203V15.2607H5.84135V13.0078Z" fill="#BFBFBF"/>
<path d="M9.62236 13.0078H7.36304V15.2607H9.62236V13.0078Z" fill="#BFBFBF"/>
<path d="M13.5877 13.0078H11.3284V15.2607H13.5877V13.0078Z" fill="#BFBFBF"/>
</svg>
