<svg width="15" height="15" viewBox="0 0 15 15" fill="none" xmlns="http://www.w3.org/2000/svg">
<path d="M7.46092 14.6991C6.5112 14.6991 5.63413 14.4649 4.85123 14.0014C2.09928 12.3728 1.49956 8.397 3.51568 5.13886C4.90956 2.88568 7.22349 1.48633 9.55277 1.48633C10.5025 1.48633 11.3796 1.72055 12.1625 2.184C14.9144 3.81257 15.5141 7.78841 13.498 11.0466C12.1041 13.2997 9.79122 14.7001 7.46092 14.7001V14.6991Z" fill="#EF6A9D"/>
<path d="M9.55274 1.18555V1.78613C10.4452 1.78613 11.269 2.00634 12.0028 2.43976C14.6104 3.98225 15.1631 7.77291 13.235 10.8899C12.5667 11.971 11.6599 12.8698 10.613 13.4894C9.60801 14.084 8.51808 14.3983 7.4609 14.3983C6.56848 14.3983 5.74362 14.1781 5.01085 13.7447C3.76639 13.008 2.94664 11.7367 2.70204 10.1642C2.45131 8.55066 2.83406 6.82199 3.77867 5.29452C4.44696 4.21347 5.3537 3.3146 6.40064 2.695C7.40563 2.10043 8.49556 1.78613 9.55274 1.78613V1.18555ZM9.55274 1.18555C7.21016 1.18555 4.74272 2.57589 3.25264 4.98422C1.14646 8.3895 1.79019 12.5425 4.69257 14.2592C5.542 14.7617 6.4907 14.9999 7.4609 14.9999C9.80348 14.9999 12.2709 13.6095 13.761 11.2012C15.8672 7.79593 15.2235 3.64292 12.3211 1.92626C11.4716 1.42378 10.5229 1.18555 9.55274 1.18555Z" fill="#971A4A"/>
<path d="M5.44681 13.5145C4.49708 13.5145 3.62002 13.2803 2.83711 12.8169C0.0851647 11.1883 -0.51353 7.21246 1.50156 3.95431C2.89545 1.70113 5.20937 0.300781 7.53865 0.300781C8.48838 0.300781 9.36544 0.535007 10.1483 0.998455C12.9003 2.62703 13.5 6.60287 11.4839 9.86101C10.09 12.1142 7.77711 13.5145 5.44681 13.5145Z" fill="#FF8FB4"/>
<path d="M7.53856 0V0.60058C8.43097 0.60058 9.25481 0.820793 9.9886 1.25421C11.2331 1.99092 12.0528 3.26215 12.2974 4.83467C12.5481 6.44823 12.1654 8.1769 11.2208 9.70437C10.5525 10.7854 9.64575 11.6843 8.59881 12.3039C7.59382 12.8985 6.50389 13.2128 5.44671 13.2128C4.5543 13.2128 3.72943 12.9925 2.99667 12.5591C0.38902 11.0166 -0.163621 7.22598 1.76448 4.10897C2.43277 3.02792 3.33951 2.12906 4.38646 1.50946C5.39144 0.914883 6.48137 0.60058 7.53856 0.60058V0ZM7.53856 0C5.19597 0 2.72853 1.39034 1.23947 3.79867C-0.867727 7.20396 -0.222979 11.356 2.67839 13.0736C3.52782 13.5761 4.47652 13.8143 5.44671 13.8143C7.78929 13.8143 10.2567 12.424 11.7468 10.0157C13.853 6.61038 13.2093 2.45737 10.3069 0.740715C9.45745 0.23823 8.50875 0 7.53856 0Z" fill="#971A4A"/>
<path d="M2.70992 12.6125L2.49805 12.9551L5.01646 14.4451L5.22834 14.1025L2.70992 12.6125Z" fill="#971A4A"/>
<path d="M10.2797 0.734169L9.96191 1.24805L12.4803 2.73804L12.7981 2.22417L10.2797 0.734169Z" fill="#971A4A"/>
<path d="M12.3757 3.07206L12.0579 3.58594L14.0158 4.74436L14.3337 4.23049L12.3757 3.07206Z" fill="#971A4A"/>
<path d="M12.7856 5.07206L12.4678 5.58594L14.4258 6.74436L14.7436 6.23049L12.7856 5.07206Z" fill="#971A4A"/>
<path d="M12.7849 7.27519L12.467 7.78906L14.425 8.94749L14.7428 8.43361L12.7849 7.27519Z" fill="#971A4A"/>
<path d="M11.6596 9.67558L11.3418 10.1895L13.2998 11.3479L13.6176 10.834L11.6596 9.67558Z" fill="#971A4A"/>
<path d="M9.81757 11.5818L9.49976 12.0957L11.4577 13.2541L11.7756 12.7403L9.81757 11.5818Z" fill="#971A4A"/>
<path d="M7.97578 12.6814L7.65796 13.1953L9.61595 14.3537L9.93376 13.8399L7.97578 12.6814Z" fill="#971A4A"/>
<path d="M6.13349 13.281L5.81567 13.7949L7.77366 14.9533L8.09148 14.4395L6.13349 13.281Z" fill="#971A4A"/>
<path d="M5.34245 5.06445L5.16131 5.9403H4.18293L3.6743 8.41869H2.53933L3.04797 5.9403H2.07471L2.25585 5.06445H5.34348H5.34245Z" fill="#971A4A"/>
<path d="M6.74662 5.06445L6.06196 8.41869H4.927L5.61166 5.06445H6.74662Z" fill="#971A4A"/>
<path d="M10.7196 5.06445L9.20292 6.4568L10.0687 8.41869H8.75262L8.28288 7.29461L7.83258 7.71101L7.68623 8.41969H6.55127L7.23593 5.06545H8.37089L8.12118 6.28563L9.36871 5.06545H10.7196V5.06445Z" fill="#971A4A"/>
</svg>
