<svg width="21" height="21" viewBox="0 0 21 21" fill="none" xmlns="http://www.w3.org/2000/svg">
<path d="M10.0793 20.4064C8.79629 20.4064 7.6114 20.0812 6.55371 19.4378C2.8359 17.1768 2.02569 11.6569 4.74942 7.13348C6.63252 4.00529 9.75858 2.0625 12.9054 2.0625C14.1884 2.0625 15.3733 2.38769 16.431 3.03111C20.1488 5.29214 20.959 10.812 18.2353 15.3354C16.3522 18.4636 13.2275 20.4078 10.0793 20.4078V20.4064Z" fill="#EF6A9D"/>
<path d="M12.9054 1.64648V2.4803C14.111 2.4803 15.224 2.78603 16.2153 3.38777C19.7382 5.52928 20.4848 10.792 17.88 15.1195C16.9772 16.6204 15.7522 17.8683 14.3378 18.7286C12.98 19.554 11.5076 19.9904 10.0793 19.9904C8.87372 19.9904 7.75934 19.6847 6.7694 19.0829C5.08816 18.0601 3.98069 16.2952 3.65025 14.112C3.31151 11.8718 3.82861 9.47183 5.10475 7.35116C6.00759 5.8503 7.23257 4.60236 8.64697 3.74214C10.0047 2.91666 11.4772 2.4803 12.9054 2.4803V1.64648ZM12.9054 1.64648C9.74061 1.64648 6.40716 3.57676 4.39409 6.92036C1.54869 11.6481 2.41835 17.4139 6.33941 19.7972C7.48697 20.4949 8.76864 20.8256 10.0793 20.8256C13.2441 20.8256 16.5776 18.8953 18.5906 15.5517C21.436 10.824 20.5664 5.05817 16.6453 2.67485C15.4978 1.97723 14.2161 1.64648 12.9054 1.64648Z" fill="#971A4A"/>
<path d="M7.35854 18.7613C6.07548 18.7613 4.89059 18.4361 3.8329 17.7927C0.115084 15.5317 -0.693739 10.0118 2.0286 5.48838C3.91171 2.36019 7.03777 0.416016 10.1846 0.416016C11.4676 0.416016 12.6525 0.741203 13.7102 1.38463C17.428 3.64566 18.2382 9.1655 15.5145 13.6889C13.6314 16.8171 10.5067 18.7613 7.35854 18.7613Z" fill="#FF8FB4"/>
<path d="M10.1844 0V0.833814C11.39 0.833814 12.503 1.13955 13.4944 1.74128C15.1756 2.76409 16.2831 4.529 16.6135 6.7122C16.9522 8.95238 16.4352 11.3524 15.159 13.473C14.2562 14.9739 13.0312 16.2219 11.6168 17.0821C10.2591 17.9075 8.7866 18.3439 7.35838 18.3439C6.15275 18.3439 5.03837 18.0382 4.04843 17.4364C0.525557 15.2949 -0.221048 10.0322 2.38377 5.70468C3.28661 4.20381 4.5116 2.95587 5.926 2.09565C7.28371 1.27018 8.75619 0.833814 10.1844 0.833814V0ZM10.1844 0C7.01964 0 3.68618 1.93028 1.6745 5.27387C-1.17228 10.0016 -0.301239 15.766 3.61844 18.1507C4.766 18.8484 6.04767 19.1791 7.35838 19.1791C10.5232 19.1791 13.8566 17.2488 15.8697 13.9052C18.7151 9.17751 17.8454 3.41169 13.9244 1.02837C12.7768 0.330746 11.4951 0 10.1844 0Z" fill="#971A4A"/>
<path d="M3.66069 17.5127L3.37445 17.9883L6.77677 20.0569L7.06301 19.5813L3.66069 17.5127Z" fill="#971A4A"/>
<path d="M13.8876 1.01898L13.4582 1.73242L16.8605 3.80106L17.2899 3.08761L13.8876 1.01898Z" fill="#971A4A"/>
<path d="M16.7195 4.26507L16.2902 4.97852L18.9354 6.58681L19.3647 5.87337L16.7195 4.26507Z" fill="#971A4A"/>
<path d="M17.2731 7.04437L16.8437 7.75781L19.4889 9.36611L19.9182 8.65267L17.2731 7.04437Z" fill="#971A4A"/>
<path d="M17.2721 10.0991L16.8428 10.8125L19.488 12.4208L19.9173 11.7074L17.2721 10.0991Z" fill="#971A4A"/>
<path d="M15.7516 13.435L15.3222 14.1484L17.9674 15.7567L18.3968 15.0433L15.7516 13.435Z" fill="#971A4A"/>
<path d="M13.2629 16.0776L12.8336 16.791L15.4788 18.3993L15.9081 17.6859L13.2629 16.0776Z" fill="#971A4A"/>
<path d="M10.775 17.603L10.3456 18.3164L12.9908 19.9247L13.4202 19.2113L10.775 17.603Z" fill="#971A4A"/>
<path d="M8.28599 18.4389L7.85663 19.1523L10.5018 20.7606L10.9312 20.0472L8.28599 18.4389Z" fill="#971A4A"/>
<path d="M7.21732 7.03125L6.9726 8.24723H5.65083L4.96368 11.6881H3.43037L4.11753 8.24723H2.80267L3.04739 7.03125H7.2187H7.21732Z" fill="#971A4A"/>
<path d="M9.11427 7.03125L8.18931 11.6881H6.65601L7.58097 7.03125H9.11427Z" fill="#971A4A"/>
<path d="M14.4815 7.03125L12.4325 8.96431L13.6022 11.6881H11.8241L11.1895 10.1275L10.5812 10.7056L10.3835 11.6895H8.85016L9.77512 7.03264H11.3084L10.9711 8.72667L12.6565 7.03264H14.4815V7.03125Z" fill="#971A4A"/>
</svg>
