<svg width="24" height="24" viewBox="0 0 24 24" fill="none" xmlns="http://www.w3.org/2000/svg">
<path d="M12 13.8C11.7481 13.8 11.5372 13.7136 11.3671 13.5408C11.197 13.368 11.1117 13.1544 11.1111 12.9C11.1111 12.645 11.1964 12.4314 11.3671 12.2592C11.5378 12.087 11.7487 12.0006 12 12C12.2519 12 12.4631 12.0864 12.6338 12.2592C12.8044 12.432 12.8895 12.6456 12.8889 12.9C12.8889 13.155 12.8036 13.3689 12.6329 13.5417C12.4622 13.7145 12.2513 13.8006 12 13.8ZM8.44444 13.8C8.19259 13.8 7.98163 13.7136 7.81156 13.5408C7.64148 13.368 7.55615 13.1544 7.55556 12.9C7.55556 12.645 7.64089 12.4314 7.81156 12.2592C7.98222 12.087 8.19318 12.0006 8.44444 12C8.6963 12 8.90756 12.0864 9.07822 12.2592C9.24889 12.432 9.33393 12.6456 9.33333 12.9C9.33333 13.155 9.248 13.3689 9.07733 13.5417C8.90667 13.7145 8.6957 13.8006 8.44444 13.8ZM15.5556 13.8C15.3037 13.8 15.0927 13.7136 14.9227 13.5408C14.7526 13.368 14.6673 13.1544 14.6667 12.9C14.6667 12.645 14.752 12.4314 14.9227 12.2592C15.0933 12.087 15.3043 12.0006 15.5556 12C15.8074 12 16.0187 12.0864 16.1893 12.2592C16.36 12.432 16.445 12.6456 16.4444 12.9C16.4444 13.155 16.3591 13.3689 16.1884 13.5417C16.0178 13.7145 15.8068 13.8006 15.5556 13.8ZM12 17.4C11.7481 17.4 11.5372 17.3136 11.3671 17.1408C11.197 16.968 11.1117 16.7544 11.1111 16.5C11.1111 16.245 11.1964 16.0314 11.3671 15.8592C11.5378 15.687 11.7487 15.6006 12 15.6C12.2519 15.6 12.4631 15.6864 12.6338 15.8592C12.8044 16.032 12.8895 16.2456 12.8889 16.5C12.8889 16.755 12.8036 16.9689 12.6329 17.1417C12.4622 17.3145 12.2513 17.4006 12 17.4ZM8.44444 17.4C8.19259 17.4 7.98163 17.3136 7.81156 17.1408C7.64148 16.968 7.55615 16.7544 7.55556 16.5C7.55556 16.245 7.64089 16.0314 7.81156 15.8592C7.98222 15.687 8.19318 15.6006 8.44444 15.6C8.6963 15.6 8.90756 15.6864 9.07822 15.8592C9.24889 16.032 9.33393 16.2456 9.33333 16.5C9.33333 16.755 9.248 16.9689 9.07733 17.1417C8.90667 17.3145 8.6957 17.4006 8.44444 17.4ZM15.5556 17.4C15.3037 17.4 15.0927 17.3136 14.9227 17.1408C14.7526 16.968 14.6673 16.7544 14.6667 16.5C14.6667 16.245 14.752 16.0314 14.9227 15.8592C15.0933 15.687 15.3043 15.6006 15.5556 15.6C15.8074 15.6 16.0187 15.6864 16.1893 15.8592C16.36 16.032 16.445 16.2456 16.4444 16.5C16.4444 16.755 16.3591 16.9689 16.1884 17.1417C16.0178 17.3145 15.8068 17.4006 15.5556 17.4ZM5.77778 21C5.28889 21 4.87052 20.8239 4.52267 20.4717C4.17481 20.1195 4.00059 19.6956 4 19.2V6.6C4 6.105 4.17422 5.6814 4.52267 5.3292C4.87111 4.977 5.28948 4.8006 5.77778 4.8H6.66667V3H8.44444V4.8H15.5556V3H17.3333V4.8H18.2222C18.7111 4.8 19.1298 4.9764 19.4782 5.3292C19.8267 5.682 20.0006 6.1056 20 6.6V19.2C20 19.695 19.8261 20.1189 19.4782 20.4717C19.1304 20.8245 18.7117 21.0006 18.2222 21H5.77778ZM5.77778 19.2H18.2222V10.2H5.77778V19.2Z" fill="#C9C5C6"/>
</svg>
