<svg width="22" height="22" viewBox="0 0 22 22" fill="none" xmlns="http://www.w3.org/2000/svg">
<path d="M21 7H1V17C1 19.2091 2.79086 21 5 21H17C19.2091 21 21 19.2091 21 17V7Z" fill="#BFBFBF"/>
<path d="M18.238 2H3.76204C2.23661 2 1 3.35248 1 5.02084V17.9792C1 19.6475 2.23661 21 3.76204 21H18.238C19.7634 21 21 19.6475 21 17.9792V5.02084C21 3.35248 19.7634 2 18.238 2Z" stroke="#BFBFBF" stroke-width="1.5" stroke-miterlimit="10"/>
<path d="M1 8H21" stroke="#BFBFBF" stroke-width="1.5" stroke-miterlimit="10"/>
<path d="M7.02129 0H5.5V4.3509H7.02129V0Z" fill="#BFBFBF"/>
<path d="M16.5213 0H15V4.3509H16.5213V0Z" fill="#BFBFBF"/>
<path d="M10.8438 18.1172C12.8242 18.1172 14.2363 17.0684 14.2305 15.5977C14.2363 14.543 13.5508 13.7988 12.25 13.6406V13.582C13.2285 13.4355 13.9199 12.7734 13.9141 11.8242C13.9199 10.4414 12.6777 9.39844 10.8672 9.39844C9.03906 9.39844 7.70312 10.4473 7.67969 11.9531H9.60156C9.61328 11.3613 10.1582 10.9629 10.8555 10.957C11.5352 10.9629 11.9922 11.3672 11.9922 11.9414C11.9922 12.5508 11.4531 12.9668 10.6797 12.9609H9.85938V14.3906H10.6797C11.5703 14.3965 12.1445 14.8301 12.1328 15.4453C12.1445 16.0605 11.6055 16.4824 10.8555 16.4883C10.0996 16.4824 9.54883 16.0957 9.53125 15.5273H7.51562C7.5332 17.0508 8.91016 18.1172 10.8438 18.1172Z" fill="#1D1D26"/>
</svg>
