<svg width="30" height="30" viewBox="0 0 30 30" fill="none" xmlns="http://www.w3.org/2000/svg">
    <defs>
        <clipPath id="clip0_3626_40296">
            <rect width="29.9176" height="30" fill="white"/>
        </clipPath>
    </defs>
<g clip-path="url(#clip0_3626_40296)">
<path d="M14.8813 29.3983C12.9869 29.3983 11.2375 28.93 9.67593 28.0034C4.18682 24.7475 2.9906 16.7987 7.012 10.2848C9.79228 5.7801 14.4077 2.98242 19.0537 2.98242C20.9481 2.98242 22.6975 3.4507 24.2591 4.37726C29.7482 7.63321 30.9444 15.582 26.923 22.0959C24.1428 26.6006 19.5294 29.4003 14.8813 29.4003V29.3983Z" fill="#EF6A9D"/>
<path d="M19.0538 2.38281V3.58353C20.8338 3.58353 22.477 4.0238 23.9407 4.89032C29.142 7.97417 30.2443 15.5527 26.3984 21.7845C25.0654 23.9458 23.2568 25.7428 21.1686 26.9816C19.164 28.1703 16.99 28.7987 14.8813 28.7987C13.1013 28.7987 11.456 28.3584 9.99437 27.4919C7.51213 26.019 5.87703 23.4775 5.38916 20.3336C4.88903 17.1076 5.65249 13.6516 7.53663 10.5977C8.86961 8.43645 10.6782 6.63937 12.7665 5.40062C14.7711 4.21191 16.9451 3.58353 19.0538 3.58353V2.38281ZM19.0538 2.38281C14.3812 2.38281 9.45955 5.16248 6.48739 9.97737C2.28635 16.7855 3.57034 25.0884 9.35952 28.5205C11.0538 29.5251 12.9461 30.0014 14.8813 30.0014C19.5539 30.0014 24.4755 27.2217 27.4477 22.4068C31.6487 15.5987 30.3647 7.29576 24.5755 3.8637C22.8812 2.8591 20.9889 2.38281 19.0538 2.38281Z" fill="#971A4A"/>
<path d="M10.8638 27.0175C8.96946 27.0175 7.22005 26.5492 5.65844 25.6226C0.169333 22.3667 -1.02484 14.4179 2.99452 7.90399C5.7748 3.39929 10.3902 0.599609 15.0363 0.599609C16.9306 0.599609 18.68 1.06789 20.2416 1.99445C25.7307 5.2504 26.927 13.1992 22.9056 19.7131C20.1253 24.2178 15.5119 27.0175 10.8638 27.0175Z" fill="#FF8FB4"/>
<path d="M15.0361 0V1.20072C16.8162 1.20072 18.4594 1.64098 19.923 2.5075C22.4053 3.98039 24.0404 6.52191 24.5283 9.6658C25.0284 12.8917 24.2649 16.3478 22.3808 19.4016C21.0478 21.5629 19.2392 23.36 17.1509 24.5988C15.1464 25.7875 12.9723 26.4159 10.8637 26.4159C9.08363 26.4159 7.43833 25.9756 5.97674 25.1091C0.775461 22.0252 -0.326852 14.4467 3.519 8.21493C4.85198 6.05363 6.66059 4.25655 8.74886 3.01781C10.7534 1.8291 12.9274 1.20072 15.0361 1.20072V0ZM15.0361 0C10.3635 0 5.44192 2.77967 2.4718 7.59456C-1.73128 14.4026 -0.445248 22.7036 5.34189 26.1377C7.03619 27.1423 8.92849 27.6186 10.8637 27.6186C15.5362 27.6186 20.4579 24.8389 23.43 20.024C27.6311 13.2159 26.3471 4.91295 20.5579 1.48089C18.8636 0.476286 16.9713 0 15.0361 0Z" fill="#971A4A"/>
<path d="M5.40431 25.2252L4.98169 25.9102L10.005 28.8891L10.4276 28.2041L5.40431 25.2252Z" fill="#971A4A"/>
<path d="M20.5038 1.48043L19.8699 2.50781L24.8932 5.48671L25.5271 4.45934L20.5038 1.48043Z" fill="#971A4A"/>
<path d="M24.685 6.1484L24.051 7.17578L27.9565 9.49178L28.5904 8.46441L24.685 6.1484Z" fill="#971A4A"/>
<path d="M25.5021 10.1504L24.8682 11.1777L28.7736 13.4937L29.4075 12.4664L25.5021 10.1504Z" fill="#971A4A"/>
<path d="M25.5009 14.5527L24.8669 15.5801L28.7724 17.8961L29.4063 16.8687L25.5009 14.5527Z" fill="#971A4A"/>
<path d="M23.2558 19.3535L22.6218 20.3809L26.5273 22.6969L27.1612 21.6695L23.2558 19.3535Z" fill="#971A4A"/>
<path d="M19.5817 23.1562L18.9478 24.1836L22.8532 26.4996L23.4871 25.4722L19.5817 23.1562Z" fill="#971A4A"/>
<path d="M15.9083 25.3574L15.2744 26.3848L19.1799 28.7008L19.8138 27.6734L15.9083 25.3574Z" fill="#971A4A"/>
<path d="M12.2335 26.5586L11.5996 27.5859L15.5051 29.9019L16.139 28.8746L12.2335 26.5586Z" fill="#971A4A"/>
<path d="M10.6556 10.127L10.2943 11.878H8.34281L7.32828 16.833H5.06445L6.07899 11.878H4.1377L4.49901 10.127H10.6577H10.6556Z" fill="#971A4A"/>
<path d="M13.4564 10.127L12.0907 16.833H9.8269L11.1925 10.127H13.4564Z" fill="#971A4A"/>
<path d="M21.3807 10.127L18.3555 12.9106L20.0824 16.833H17.4573L16.5203 14.5856L15.6221 15.4181L15.3302 16.835H13.0664L14.432 10.129H16.6959L16.1978 12.5684L18.6862 10.129H21.3807V10.127Z" fill="#971A4A"/>
</g>

</svg>
