<svg width="15" height="15" viewBox="0 0 15 15" fill="none" xmlns="http://www.w3.org/2000/svg">
    <defs>
        <linearGradient id="paint0_linear_3723_31870" x1="4.82132" y1="8.41075" x2="4.97165" y2="8.41075" gradientUnits="userSpaceOnUse">
            <stop offset="0.31" stop-color="white"/>
            <stop offset="0.73" stop-color="#E4E4E4"/>
        </linearGradient>
        <linearGradient id="paint1_linear_3723_31870" x1="4.09074" y1="7.2718" x2="8.97245" y2="7.2718" gradientUnits="userSpaceOnUse">
            <stop offset="0.31" stop-color="white"/>
            <stop offset="0.73" stop-color="#E4E4E4"/>
        </linearGradient>
        <clipPath id="clip0_3723_31870">
            <rect width="6.81818" height="10.2273" fill="white" transform="translate(4.09082 2.72656)"/>
        </clipPath>
    </defs>
<circle cx="7.5" cy="7.5" r="7.5" fill="#FF6100"/>
<g clip-path="url(#clip0_3723_31870)">
<path d="M4.93555 8.4082L4.94445 8.4133L4.93555 8.4082Z" fill="#C0C0C0"/>
<path d="M4.93555 8.4082L4.94445 8.4133L4.93555 8.4082Z" fill="url(#paint0_linear_3723_31870)"/>
<path d="M8.36449 2.72656L4.20871 6.18743C4.10684 6.27249 4.06629 6.41358 4.10684 6.54193L4.58848 8.06532C4.60282 8.11116 4.62359 8.15394 4.6498 8.19265C4.66859 8.22016 4.68986 8.24511 4.71359 8.26803C4.74475 8.29808 4.77985 8.32457 4.81843 8.34545L4.93562 8.40861C4.85452 8.3648 4.81595 8.27873 4.82238 8.19571C4.82683 8.13866 4.85205 8.08315 4.90051 8.04291L5.74759 7.33749L5.90781 7.20405L6.01809 7.11237L8.97322 4.65131L8.36449 2.72656Z" fill="white"/>
<path d="M5.74683 7.33852L5.90704 7.20508L5.74683 7.33852Z" fill="#AEAEAE"/>
<path d="M5.74683 7.33852L5.90704 7.20508L5.74683 7.33852Z" fill="url(#paint1_linear_3723_31870)"/>
<path opacity="0.4" d="M6.13216 7.3263L5.90716 7.20508L5.74695 7.33852L4.89987 8.04394C4.8514 8.08418 4.82619 8.13969 4.82173 8.19674C4.81531 8.28027 4.85388 8.36634 4.93498 8.40963L4.94437 8.41473L6.57524 9.29535L7.83473 8.24614L6.13167 7.32681L6.13216 7.3263Z" fill="white"/>
<path d="M10.8926 8.95131L10.6276 7.3398C10.6177 7.27868 10.5964 7.2196 10.5667 7.16612C10.5484 7.13352 10.5272 7.10194 10.501 7.07546C10.4955 7.06985 10.4896 7.06578 10.4842 7.06069C10.4664 7.04439 10.4481 7.02911 10.4278 7.01536C10.4135 7.00517 10.3986 6.99498 10.3828 6.98683L10.3591 6.97461C10.3719 6.98378 10.3818 6.99549 10.3912 7.00772C10.4402 7.07342 10.4362 7.17274 10.3704 7.23131L10.3032 7.29039H10.3027L10.272 7.31637L10.2369 7.34591L9.30231 8.13689L9.23209 8.19648L9.09462 8.31261L5.88135 11.0329L6.50491 12.9531L10.7927 9.30682C10.8941 9.22074 10.9337 9.07966 10.8921 8.95131H10.8926Z" fill="white"/>
<path opacity="0.4" d="M10.3917 7.00944V7.01199C10.3917 7.01199 10.3927 7.01351 10.3927 7.01402C10.3927 7.0125 10.3922 7.01097 10.3917 7.00944C10.3828 6.99722 10.3725 6.98601 10.3596 6.97633L10.3374 6.96462L10.2998 6.94526L10.2731 6.93151C10.2706 6.92998 10.2681 6.92795 10.2652 6.92693L10.2325 6.91012L10.1717 6.87905L9.1278 6.34375L7.87622 7.40315L9.02445 7.9955L9.09566 8.03217L9.22225 8.09736L9.30286 8.13862L10.1875 7.3894L10.2375 7.34712L10.2726 7.31758L10.3032 7.29161H10.3037L10.371 7.23252C10.4372 7.17395 10.4407 7.07463 10.3917 7.00893V7.00944Z" fill="white"/>
<path d="M9.30225 8.13669L10.2369 7.3457L10.1874 7.38798L9.30225 8.13669Z" fill="#9A9A9A"/>
</g>

</svg>
