<svg width="18" height="18" viewBox="0 0 18 18" fill="none" xmlns="http://www.w3.org/2000/svg">
<path fill-rule="evenodd" clip-rule="evenodd" d="M9 18C13.9706 18 18 13.9706 18 9C18 4.02944 13.9706 0 9 0C4.02944 0 0 4.02944 0 9C0 13.9706 4.02944 18 9 18ZM7.94663 7.64232V14.1429H10.0525V7.64232H7.94663ZM8.06855 6.57489C8.305 6.80677 8.61535 6.92271 8.99958 6.92271C9.39121 6.92271 9.70155 6.80677 9.93062 6.57489C10.1671 6.33502 10.2853 6.03518 10.2853 5.67537C10.2853 5.33156 10.1671 5.05171 9.93062 4.83582C9.69416 4.61194 9.38382 4.5 8.99958 4.5C8.61535 4.5 8.305 4.61594 8.06855 4.84781C7.83209 5.07969 7.71387 5.36754 7.71387 5.71135C7.71387 6.05517 7.83209 6.34302 8.06855 6.57489Z" fill="#4C4F59"/>
</svg>
