<svg width="50" height="45" viewBox="0 0 50 45" fill="none" xmlns="http://www.w3.org/2000/svg">
<path fill-rule="evenodd" clip-rule="evenodd" d="M36.1081 3.73326C35.9497 4.09242 35.5438 4.26542 35.1792 4.14026L35.9274 8.4791L39.6584 8.59863C39.6043 8.47486 39.6002 8.32967 39.659 8.19633C39.7704 7.94367 40.0656 7.8292 40.3182 7.94064C40.5709 8.05209 40.6854 8.34725 40.5739 8.59991C40.4625 8.85256 40.1673 8.96703 39.9147 8.85559C39.8085 8.80878 39.7268 8.72956 39.6759 8.63469L38.3578 10.5798L35.7313 13.0216L31.9308 11.3452L28.1302 9.66879L28.1627 6.08275L28.7104 3.79779C28.606 3.82419 28.4924 3.81724 28.3863 3.77043C28.1336 3.65898 28.0192 3.36382 28.1306 3.11117C28.242 2.85851 28.5372 2.74404 28.7899 2.85549C29.0425 2.96693 29.157 3.26209 29.0455 3.51475C28.9867 3.64809 28.8767 3.74295 28.7488 3.78642L31.3527 6.46119L35.0615 4.08833C34.7232 3.90346 34.5773 3.48704 34.7357 3.12789C34.9029 2.74891 35.3456 2.5772 35.7246 2.74437C36.1036 2.91154 36.2753 3.35428 36.1081 3.73326Z" fill="url(#paint0_radial_3670_29929)"/>
<mask id="mask0_3670_29929" style="mask-type:alpha" maskUnits="userSpaceOnUse" x="28" y="2" width="13" height="12">
<path fill-rule="evenodd" clip-rule="evenodd" d="M36.1081 3.73326C35.9497 4.09242 35.5438 4.26542 35.1792 4.14026L35.9274 8.4791L39.6584 8.59863C39.6043 8.47486 39.6002 8.32967 39.659 8.19633C39.7704 7.94367 40.0656 7.8292 40.3182 7.94064C40.5709 8.05209 40.6854 8.34725 40.5739 8.59991C40.4625 8.85256 40.1673 8.96703 39.9147 8.85559C39.8085 8.80878 39.7268 8.72956 39.6759 8.63469L38.3578 10.5798L35.7313 13.0216L31.9308 11.3452L28.1302 9.66879L28.1627 6.08275L28.7104 3.79779C28.606 3.82419 28.4924 3.81724 28.3863 3.77043C28.1336 3.65898 28.0192 3.36382 28.1306 3.11117C28.242 2.85851 28.5372 2.74404 28.7899 2.85549C29.0425 2.96693 29.157 3.26209 29.0455 3.51475C28.9867 3.64809 28.8767 3.74295 28.7488 3.78642L31.3527 6.46119L35.0615 4.08833C34.7232 3.90346 34.5773 3.48704 34.7357 3.12789C34.9029 2.74891 35.3456 2.5772 35.7246 2.74437C36.1036 2.91154 36.2753 3.35428 36.1081 3.73326Z" fill="url(#paint1_linear_3670_29929)"/>
</mask>
<g mask="url(#mask0_3670_29929)">
<g filter="url(#filter0_f_3670_29929)">
<path d="M31.6561 7.50839L28.6017 4.52165L26.0724 7.77784L27.149 11.5316L33.3519 14.8142L38.626 12.7687L39.581 9.36462L35.3159 9.12271L34.4949 6.02819L31.6561 7.50839Z" fill="url(#paint2_linear_3670_29929)"/>
</g>
</g>
<mask id="mask1_3670_29929" style="mask-type:alpha" maskUnits="userSpaceOnUse" x="28" y="2" width="13" height="12">
<path fill-rule="evenodd" clip-rule="evenodd" d="M36.1081 3.73326C35.9497 4.09242 35.5438 4.26542 35.1792 4.14026L35.9274 8.4791L39.6584 8.59863C39.6043 8.47486 39.6002 8.32967 39.659 8.19633C39.7704 7.94367 40.0656 7.8292 40.3182 7.94064C40.5709 8.05209 40.6854 8.34725 40.5739 8.59991C40.4625 8.85256 40.1673 8.96703 39.9147 8.85559C39.8085 8.80878 39.7268 8.72956 39.6759 8.63469L38.3578 10.5798L35.7313 13.0216L31.9308 11.3452L28.1302 9.66879L28.1627 6.08275L28.7104 3.79779C28.606 3.82419 28.4924 3.81724 28.3863 3.77043C28.1336 3.65898 28.0192 3.36382 28.1306 3.11117C28.242 2.85851 28.5372 2.74404 28.7899 2.85549C29.0425 2.96693 29.157 3.26209 29.0455 3.51475C28.9867 3.64809 28.8767 3.74295 28.7488 3.78642L31.3527 6.46119L35.0615 4.08833C34.7232 3.90346 34.5773 3.48704 34.7357 3.12789C34.9029 2.74891 35.3456 2.5772 35.7246 2.74437C36.1036 2.91154 36.2753 3.35428 36.1081 3.73326Z" fill="url(#paint3_radial_3670_29929)"/>
</mask>
<g mask="url(#mask1_3670_29929)">
<g filter="url(#filter1_f_3670_29929)">
<path d="M31.6561 7.50839L28.6017 4.52165L26.0724 7.77784L27.149 11.5316L33.3519 14.8142L38.626 12.7687L39.581 9.36462L35.3159 9.12271L34.4949 6.02819L31.6561 7.50839Z" fill="url(#paint4_linear_3670_29929)" fill-opacity="0.3"/>
</g>
</g>
<path d="M31.546 9.68747L33.8602 10.7082L34.1046 10.1543L32.7241 9.54536L32.732 9.52749L33.4343 9.26624C34.366 8.95674 34.6777 8.73401 34.8402 8.36544C35.0876 7.80477 34.8018 7.20643 34.1093 6.90098C33.428 6.60046 32.7806 6.79786 32.504 7.43099L33.1429 7.71279C33.2776 7.40132 33.5611 7.29691 33.8639 7.43314C34.162 7.56195 34.2999 7.83623 34.1727 8.12438C34.0594 8.38126 33.8175 8.48803 33.3889 8.64317L31.7564 9.19855L31.546 9.68747Z" fill="url(#paint5_linear_3670_29929)"/>
<path fill-rule="evenodd" clip-rule="evenodd" d="M41.7219 33.6757C39.0703 40.3117 32.5829 45 25.0005 45C17.4295 45 10.9503 40.3258 8.2911 33.7059L3.13816 33.2476L0.709229 25L7.05689 25.5645C7.78832 16.2945 15.5425 9 25.0005 9C34.4486 9 42.1966 16.2794 42.9418 25.5357L48.9651 25L46.5362 33.2476L41.7219 33.6757ZM25.0005 43C33.837 43 41.0005 35.8366 41.0005 27C41.0005 18.1634 33.837 11 25.0005 11C16.1639 11 9.00049 18.1634 9.00049 27C9.00049 35.8366 16.1639 43 25.0005 43Z" fill="url(#paint6_linear_3670_29929)"/>
<path d="M42.7091 25.4993C47.2092 26 48.3173 24.8711 47.7092 26.5L46.536 33.2472L48.965 24.9996L42.7091 25.4993Z" fill="#EBF3FF"/>
<path fill-rule="evenodd" clip-rule="evenodd" d="M24.9592 11.5C16.2607 11.5 9.20923 18.5515 9.20923 27.25C9.20923 35.9485 16.2607 43 24.9592 43C33.6577 43 40.7092 35.9485 40.7092 27.25C40.7092 18.5515 33.6577 11.5 24.9592 11.5ZM8.70923 27.25C8.70923 18.2754 15.9846 11 24.9592 11C33.9339 11 41.2092 18.2754 41.2092 27.25C41.2092 36.2246 33.9339 43.5 24.9592 43.5C15.9846 43.5 8.70923 36.2246 8.70923 27.25Z" fill="url(#paint7_linear_3670_29929)"/>
<path d="M7.20855 25.5013C3.7085 26.0012 1.70845 26.0012 1.70845 26.0012L3.13738 33.2488L0.70845 25.0012L7.20855 25.5013Z" fill="#EBF3FF"/>
<mask id="mask2_3670_29929" style="mask-type:alpha" maskUnits="userSpaceOnUse" x="0" y="25" width="9" height="9">
<path d="M8.32843 25.6777C7.37781 28.2388 8.35635 32.1369 8.96444 33.7658L3.13743 33.2476L0.708496 25L8.32843 25.6777Z" fill="#FFE84E"/>
</mask>
<g mask="url(#mask2_3670_29929)">
<path d="M6.7085 28L0.708496 27.5L1.2085 29H6.7085V28Z" fill="#8EADD6"/>
<path d="M6.7085 31H1.7085L2.2085 31.5L7.2085 32L6.7085 31Z" fill="#8EADD6"/>
<mask id="mask3_3670_29929" style="mask-type:alpha" maskUnits="userSpaceOnUse" x="1" y="28" width="6" height="4">
<path d="M7 28.5L1 28V29H7V28.5Z" fill="#FF3A5D"/>
<path d="M7 31.5H2V32H7V31.5Z" fill="#FF3A5D"/>
</mask>
<g mask="url(#mask3_3670_29929)">
<path d="M8.61993 25.6777C7.66932 28.2388 8.64785 32.1369 9.25595 33.7658L3.42893 33.2476L1 25L8.61993 25.6777Z" fill="#517BC5"/>
</g>
</g>
<mask id="mask4_3670_29929" style="mask-type:alpha" maskUnits="userSpaceOnUse" x="40" y="25" width="9" height="9">
<path d="M41.3393 25.6777C42.2899 28.2388 41.3114 32.1369 40.7033 33.7658L46.5303 33.2476L48.9592 25L41.3393 25.6777Z" fill="#FFE84E"/>
</mask>
<g mask="url(#mask4_3670_29929)">
<path d="M42.7095 28L48.7095 27.5L48.2095 29H42.7095V28Z" fill="#8EACD6"/>
<path d="M42.7095 31H47.7095L47.2095 31.5L42.2095 32L42.7095 31Z" fill="#8EACD6"/>
</g>
<mask id="mask5_3670_29929" style="mask-type:alpha" maskUnits="userSpaceOnUse" x="42" y="28" width="7" height="4">
<path d="M42.9592 28.5L48.9592 28V29H42.9592V28.5Z" fill="#FF3A5D"/>
<path d="M42.9592 31.5H47.9592V32H42.9592V31.5Z" fill="#FF3A5D"/>
</mask>
<g mask="url(#mask5_3670_29929)">
<path d="M41.0893 26.1777C42.0399 28.7388 41.0614 32.6369 40.4533 34.2658L46.2803 33.7476L48.7092 25.5L41.0893 26.1777Z" fill="#517BC5"/>
</g>
<defs>
<filter id="filter0_f_3670_29929" x="25.0725" y="3.52148" width="15.5085" height="12.293" filterUnits="userSpaceOnUse" color-interpolation-filters="sRGB">
<feFlood flood-opacity="0" result="BackgroundImageFix"/>
<feBlend mode="normal" in="SourceGraphic" in2="BackgroundImageFix" result="shape"/>
<feGaussianBlur stdDeviation="0.5" result="effect1_foregroundBlur_3670_29929"/>
</filter>
<filter id="filter1_f_3670_29929" x="25.0725" y="3.52148" width="15.5085" height="12.293" filterUnits="userSpaceOnUse" color-interpolation-filters="sRGB">
<feFlood flood-opacity="0" result="BackgroundImageFix"/>
<feBlend mode="normal" in="SourceGraphic" in2="BackgroundImageFix" result="shape"/>
<feGaussianBlur stdDeviation="0.5" result="effect1_foregroundBlur_3670_29929"/>
</filter>
<radialGradient id="paint0_radial_3670_29929" cx="0" cy="0" r="1" gradientUnits="userSpaceOnUse" gradientTransform="translate(35.7057 3.28254) rotate(89.8397) scale(9.84886)">
<stop stop-color="#D5E3F5"/>
<stop offset="0.151042" stop-color="#F2F9FF"/>
<stop offset="0.416667" stop-color="#C2D6F2"/>
<stop offset="1" stop-color="#9EC0ED"/>
</radialGradient>
<linearGradient id="paint1_linear_3670_29929" x1="33.1627" y1="1.61432" x2="35.7333" y2="13.1314" gradientUnits="userSpaceOnUse">
<stop stop-color="#FFEB4E"/>
<stop offset="1" stop-color="#FFCF11"/>
</linearGradient>
<linearGradient id="paint2_linear_3670_29929" x1="34.2662" y1="5.9273" x2="30.8358" y2="13.7043" gradientUnits="userSpaceOnUse">
<stop stop-color="#D9E8FD"/>
<stop offset="1" stop-color="#ABC7EE"/>
</linearGradient>
<radialGradient id="paint3_radial_3670_29929" cx="0" cy="0" r="1" gradientUnits="userSpaceOnUse" gradientTransform="translate(35.7057 3.28254) rotate(89.8397) scale(9.84886)">
<stop offset="0.015625" stop-color="white"/>
<stop offset="0.479167" stop-color="#FFEB4E"/>
<stop offset="1" stop-color="#FFCF11"/>
</radialGradient>
<linearGradient id="paint4_linear_3670_29929" x1="27.4448" y1="8.38322" x2="39.7427" y2="12.7148" gradientUnits="userSpaceOnUse">
<stop stop-color="#9391CC"/>
<stop offset="0.0885417" stop-color="#CDDEF4"/>
<stop offset="0.744792" stop-color="#CDDEF4"/>
<stop offset="1" stop-color="#9391CC"/>
</linearGradient>
<linearGradient id="paint5_linear_3670_29929" x1="35.1392" y1="5.80716" x2="32.7177" y2="11.2968" gradientUnits="userSpaceOnUse">
<stop stop-color="#2C62B6"/>
<stop offset="1" stop-color="#1C549D"/>
</linearGradient>
<linearGradient id="paint6_linear_3670_29929" x1="16.5005" y1="9" x2="37.5005" y2="47.5" gradientUnits="userSpaceOnUse">
<stop stop-color="#D7E4F5"/>
<stop offset="1" stop-color="#A1C1EC"/>
</linearGradient>
<linearGradient id="paint7_linear_3670_29929" x1="17.9592" y1="11.25" x2="24.9592" y2="43.5" gradientUnits="userSpaceOnUse">
<stop stop-color="#4374AF"/>
<stop offset="1" stop-color="#5025AA"/>
</linearGradient>
</defs>
</svg>
