<svg width="50" height="45" viewBox="0 0 50 45" fill="none" xmlns="http://www.w3.org/2000/svg">
<path fill-rule="evenodd" clip-rule="evenodd" d="M36.1079 3.73326C35.9495 4.09242 35.5435 4.26542 35.1789 4.14026L35.9272 8.4791L39.6582 8.59863C39.604 8.47486 39.5999 8.32967 39.6587 8.19633C39.7702 7.94367 40.0653 7.8292 40.318 7.94064C40.5707 8.05209 40.6851 8.34725 40.5737 8.59991C40.4622 8.85256 40.1671 8.96703 39.9144 8.85559C39.8083 8.80878 39.7266 8.72956 39.6757 8.63469L38.3575 10.5798L35.7311 13.0216L31.9305 11.3452L28.13 9.66879L28.1624 6.08275L28.7101 3.79779C28.6058 3.82419 28.4922 3.81724 28.386 3.77043C28.1334 3.65898 28.0189 3.36382 28.1304 3.11117C28.2418 2.85851 28.537 2.74404 28.7896 2.85549C29.0423 2.96693 29.1567 3.26209 29.0453 3.51475C28.9865 3.64809 28.8765 3.74295 28.7486 3.78642L31.3525 6.46119L35.0612 4.08833C34.723 3.90346 34.577 3.48704 34.7355 3.12789C34.9026 2.74891 35.3454 2.5772 35.7243 2.74437C36.1033 2.91154 36.275 3.35428 36.1079 3.73326Z" fill="url(#paint0_radial_3670_29999)"/>
<mask id="mask0_3670_29999" style="mask-type:alpha" maskUnits="userSpaceOnUse" x="28" y="2" width="13" height="12">
<path fill-rule="evenodd" clip-rule="evenodd" d="M36.1079 3.73326C35.9495 4.09242 35.5435 4.26542 35.1789 4.14026L35.9272 8.4791L39.6582 8.59863C39.604 8.47486 39.5999 8.32967 39.6587 8.19633C39.7702 7.94367 40.0653 7.8292 40.318 7.94064C40.5707 8.05209 40.6851 8.34725 40.5737 8.59991C40.4622 8.85256 40.1671 8.96703 39.9144 8.85559C39.8083 8.80878 39.7266 8.72956 39.6757 8.63469L38.3575 10.5798L35.7311 13.0216L31.9305 11.3452L28.13 9.66879L28.1624 6.08275L28.7101 3.79779C28.6058 3.82419 28.4922 3.81724 28.386 3.77043C28.1334 3.65898 28.0189 3.36382 28.1304 3.11117C28.2418 2.85851 28.537 2.74404 28.7896 2.85549C29.0423 2.96693 29.1567 3.26209 29.0453 3.51475C28.9865 3.64809 28.8765 3.74295 28.7486 3.78642L31.3525 6.46119L35.0612 4.08833C34.723 3.90346 34.577 3.48704 34.7355 3.12789C34.9026 2.74891 35.3454 2.5772 35.7243 2.74437C36.1033 2.91154 36.275 3.35428 36.1079 3.73326Z" fill="url(#paint1_linear_3670_29999)"/>
</mask>
<g mask="url(#mask0_3670_29999)">
<g filter="url(#filter0_f_3670_29999)">
<path d="M31.6559 7.50839L28.6015 4.52165L26.0722 7.77784L27.1488 11.5316L33.3516 14.8142L38.6257 12.7687L39.5808 9.36462L35.3156 9.12271L34.4947 6.02819L31.6559 7.50839Z" fill="url(#paint2_linear_3670_29999)"/>
</g>
</g>
<mask id="mask1_3670_29999" style="mask-type:alpha" maskUnits="userSpaceOnUse" x="28" y="2" width="13" height="12">
<path fill-rule="evenodd" clip-rule="evenodd" d="M36.1079 3.73326C35.9495 4.09242 35.5435 4.26542 35.1789 4.14026L35.9272 8.4791L39.6582 8.59863C39.604 8.47486 39.5999 8.32967 39.6587 8.19633C39.7702 7.94367 40.0653 7.8292 40.318 7.94064C40.5707 8.05209 40.6851 8.34725 40.5737 8.59991C40.4622 8.85256 40.1671 8.96703 39.9144 8.85559C39.8083 8.80878 39.7266 8.72956 39.6757 8.63469L38.3575 10.5798L35.7311 13.0216L31.9305 11.3452L28.13 9.66879L28.1624 6.08275L28.7101 3.79779C28.6058 3.82419 28.4922 3.81724 28.386 3.77043C28.1334 3.65898 28.0189 3.36382 28.1304 3.11117C28.2418 2.85851 28.537 2.74404 28.7896 2.85549C29.0423 2.96693 29.1567 3.26209 29.0453 3.51475C28.9865 3.64809 28.8765 3.74295 28.7486 3.78642L31.3525 6.46119L35.0612 4.08833C34.723 3.90346 34.577 3.48704 34.7355 3.12789C34.9026 2.74891 35.3454 2.5772 35.7243 2.74437C36.1033 2.91154 36.275 3.35428 36.1079 3.73326Z" fill="url(#paint3_radial_3670_29999)"/>
</mask>
<g mask="url(#mask1_3670_29999)">
<g filter="url(#filter1_f_3670_29999)">
<path d="M31.6559 7.50839L28.6015 4.52165L26.0722 7.77784L27.1488 11.5316L33.3516 14.8142L38.6257 12.7687L39.5808 9.36462L35.3156 9.12271L34.4947 6.02819L31.6559 7.50839Z" fill="url(#paint4_linear_3670_29999)" fill-opacity="0.3"/>
</g>
</g>
<path d="M32.7232 10.2603C33.4536 10.5825 34.1539 10.4164 34.3938 9.86048C34.5766 9.45814 34.4424 9.05471 33.9922 8.78676L34.0041 8.75995C34.3945 8.8548 34.7602 8.70925 34.9176 8.3464C35.1455 7.83586 34.8729 7.23797 34.1983 6.94041C33.5348 6.64777 32.864 6.8135 32.6075 7.36478L33.2508 7.64855C33.3714 7.40553 33.6769 7.34815 33.9618 7.47651C34.2487 7.60039 34.3637 7.85391 34.2521 8.10087C34.142 8.3565 33.8418 8.4322 33.5223 8.29131L33.223 8.15928L33.0043 8.65517L33.3036 8.7872C33.6823 8.95693 33.8351 9.24579 33.7166 9.50839C33.6036 9.77072 33.2947 9.84794 32.972 9.70829C32.6603 9.56811 32.4957 9.30606 32.5909 9.05989L31.9119 8.76035C31.676 9.3314 32.0129 9.94696 32.7232 10.2603Z" fill="url(#paint5_linear_3670_29999)"/>
<path fill-rule="evenodd" clip-rule="evenodd" d="M41.7217 33.6757C39.0701 40.3117 32.5827 45 25.0002 45C17.4293 45 10.9501 40.3258 8.29086 33.7059L3.13792 33.2476L0.708984 25L7.05665 25.5645C7.78807 16.2945 15.5423 9 25.0002 9C34.4484 9 42.1963 16.2794 42.9415 25.5357L48.9648 25L46.5359 33.2476L41.7217 33.6757ZM25.0002 43C33.8368 43 41.0002 35.8366 41.0002 27C41.0002 18.1634 33.8368 11 25.0002 11C16.1637 11 9.00024 18.1634 9.00024 27C9.00024 35.8366 16.1637 43 25.0002 43Z" fill="url(#paint6_linear_3670_29999)"/>
<path d="M7.2088 25.5013C3.70874 26.0012 1.70869 26.0012 1.70869 26.0012L3.13763 33.2488L0.708694 25.0012L7.2088 25.5013Z" fill="#FFFAE9"/>
<path d="M42.7088 25.4993C47.209 26 48.3171 24.8711 47.709 26.5L46.5358 33.2472L48.9647 24.9996L42.7088 25.4993Z" fill="#FFFAE9"/>
<path fill-rule="evenodd" clip-rule="evenodd" d="M24.959 11.5C16.2605 11.5 9.20898 18.5515 9.20898 27.25C9.20898 35.9485 16.2605 43 24.959 43C33.6575 43 40.709 35.9485 40.709 27.25C40.709 18.5515 33.6575 11.5 24.959 11.5ZM8.70898 27.25C8.70898 18.2754 15.9844 11 24.959 11C33.9336 11 41.209 18.2754 41.209 27.25C41.209 36.2246 33.9336 43.5 24.959 43.5C15.9844 43.5 8.70898 36.2246 8.70898 27.25Z" fill="url(#paint7_linear_3670_29999)"/>
<mask id="mask2_3670_29999" style="mask-type:alpha" maskUnits="userSpaceOnUse" x="0" y="25" width="9" height="9">
<path d="M8.32891 25.6777C7.3783 28.2388 8.35684 32.1369 8.96493 33.7658L3.13792 33.2476L0.708984 25L8.32891 25.6777Z" fill="#FFE84E"/>
</mask>
<g mask="url(#mask2_3670_29999)">
<path d="M6.70898 28L0.708984 27.5L1.20898 29H6.70898V28Z" fill="#FFB896"/>
<path d="M6.70898 31H1.70898L2.20898 31.5L7.20898 32L6.70898 31Z" fill="#FFB896"/>
</g>
<mask id="mask3_3670_29999" style="mask-type:alpha" maskUnits="userSpaceOnUse" x="0" y="28" width="7" height="4">
<path d="M6.70898 28.5L0.708984 28V29H6.70898V28.5Z" fill="#FF3A5D"/>
<path d="M6.70898 31.5H1.70898V32H6.70898V31.5Z" fill="#FF3A5D"/>
</mask>
<g mask="url(#mask3_3670_29999)">
<path d="M8.32891 25.6777C7.3783 28.2388 8.35684 32.1369 8.96493 33.7658L3.13792 33.2476L0.708984 25L8.32891 25.6777Z" fill="#C44244"/>
</g>
<mask id="mask4_3670_29999" style="mask-type:alpha" maskUnits="userSpaceOnUse" x="40" y="25" width="9" height="9">
<path d="M41.3391 25.6777C42.2897 28.2388 41.3111 32.1369 40.703 33.7658L46.5301 33.2476L48.959 25L41.3391 25.6777Z" fill="#FFE84E"/>
</mask>
<g mask="url(#mask4_3670_29999)">
<path d="M42.7092 28L48.7092 27.5L48.2092 29H42.7092V28Z" fill="#FFB896"/>
<path d="M42.7092 31H47.7092L47.2092 31.5L42.2092 32L42.7092 31Z" fill="#FFB896"/>
</g>
<mask id="mask5_3670_29999" style="mask-type:alpha" maskUnits="userSpaceOnUse" x="42" y="28" width="7" height="4">
<path d="M42.959 28.5L48.959 28V29H42.959V28.5Z" fill="#FF3A5D"/>
<path d="M42.959 31.5H47.959V32H42.959V31.5Z" fill="#FF3A5D"/>
</mask>
<g mask="url(#mask5_3670_29999)">
<path d="M41.0891 26.1777C42.0397 28.7388 41.0611 32.6369 40.453 34.2658L46.2801 33.7476L48.709 25.5L41.0891 26.1777Z" fill="#C44244"/>
</g>
<defs>
<filter id="filter0_f_3670_29999" x="25.0723" y="3.52148" width="15.5085" height="12.293" filterUnits="userSpaceOnUse" color-interpolation-filters="sRGB">
<feFlood flood-opacity="0" result="BackgroundImageFix"/>
<feBlend mode="normal" in="SourceGraphic" in2="BackgroundImageFix" result="shape"/>
<feGaussianBlur stdDeviation="0.5" result="effect1_foregroundBlur_3670_29999"/>
</filter>
<filter id="filter1_f_3670_29999" x="25.0723" y="3.52148" width="15.5085" height="12.293" filterUnits="userSpaceOnUse" color-interpolation-filters="sRGB">
<feFlood flood-opacity="0" result="BackgroundImageFix"/>
<feBlend mode="normal" in="SourceGraphic" in2="BackgroundImageFix" result="shape"/>
<feGaussianBlur stdDeviation="0.5" result="effect1_foregroundBlur_3670_29999"/>
</filter>
<radialGradient id="paint0_radial_3670_29999" cx="0" cy="0" r="1" gradientUnits="userSpaceOnUse" gradientTransform="translate(35.7055 3.28254) rotate(89.8397) scale(9.84886)">
<stop stop-color="#FFC2A0"/>
<stop offset="0.151042" stop-color="#FFF8F2"/>
<stop offset="0.416667" stop-color="#FFB896"/>
<stop offset="1" stop-color="#FFBA98"/>
</radialGradient>
<linearGradient id="paint1_linear_3670_29999" x1="33.1625" y1="1.61432" x2="35.7331" y2="13.1314" gradientUnits="userSpaceOnUse">
<stop stop-color="#FFEB4E"/>
<stop offset="1" stop-color="#FFCF11"/>
</linearGradient>
<linearGradient id="paint2_linear_3670_29999" x1="34.266" y1="5.9273" x2="30.8355" y2="13.7043" gradientUnits="userSpaceOnUse">
<stop stop-color="#FFBD9B"/>
<stop offset="1" stop-color="#FFEBCA"/>
</linearGradient>
<radialGradient id="paint3_radial_3670_29999" cx="0" cy="0" r="1" gradientUnits="userSpaceOnUse" gradientTransform="translate(35.7055 3.28254) rotate(89.8397) scale(9.84886)">
<stop offset="0.015625" stop-color="white"/>
<stop offset="0.479167" stop-color="#FFEB4E"/>
<stop offset="1" stop-color="#FFCF11"/>
</radialGradient>
<linearGradient id="paint4_linear_3670_29999" x1="27.4446" y1="8.38322" x2="39.7425" y2="12.7148" gradientUnits="userSpaceOnUse">
<stop stop-color="#FFB896"/>
<stop offset="0.0885417" stop-color="#FFF2D1"/>
<stop offset="0.744792" stop-color="#FFF1D0"/>
<stop offset="1" stop-color="#FFB695"/>
</linearGradient>
<linearGradient id="paint5_linear_3670_29999" x1="35.1387" y1="5.80716" x2="32.7172" y2="11.2968" gradientUnits="userSpaceOnUse">
<stop stop-color="#F82E00"/>
<stop offset="1" stop-color="#B81E1F"/>
</linearGradient>
<linearGradient id="paint6_linear_3670_29999" x1="16.5002" y1="9" x2="37.5002" y2="47.5" gradientUnits="userSpaceOnUse">
<stop stop-color="#FFFAD9"/>
<stop offset="1" stop-color="#FFA987"/>
</linearGradient>
<linearGradient id="paint7_linear_3670_29999" x1="17.959" y1="11.25" x2="24.959" y2="43.5" gradientUnits="userSpaceOnUse">
<stop stop-color="#D64545"/>
<stop offset="1" stop-color="#C34143"/>
</linearGradient>
</defs>
</svg>
