<svg width="16" height="16" viewBox="0 0 16 16" fill="none" xmlns="http://www.w3.org/2000/svg">
<path fill-rule="evenodd" clip-rule="evenodd" d="M8 16C12.4183 16 16 12.4183 16 8C16 3.58172 12.4183 0 8 0C3.58172 0 0 3.58172 0 8C0 12.4183 3.58172 16 8 16ZM8.00019 3.22363C8.59901 3.22363 9.07935 3.71858 9.06141 4.31714L8.93157 8.64957C8.91648 9.15309 8.50394 9.55345 8.00019 9.55345C7.49645 9.55345 7.08391 9.15309 7.06882 8.64957L6.93897 4.31714C6.92103 3.71858 7.40137 3.22363 8.00019 3.22363ZM7.99387 13.0037C7.36783 13.0037 6.84296 12.4941 6.85561 11.8586C6.84296 11.2419 7.36783 10.7386 7.99387 10.7386C8.60094 10.7386 9.13845 11.2419 9.14478 11.8586C9.13845 12.4941 8.60094 13.0037 7.99387 13.0037Z" fill="#EB4C4C"/>
</svg>
