<svg width="20" height="20" viewBox="0 0 20 20" fill="none" xmlns="http://www.w3.org/2000/svg">
<circle cx="10" cy="10" r="10" fill="#FFB6CE"/>
<path d="M9.77944 16.5443C8.93961 16.5443 8.16403 16.3315 7.4717 15.9103C5.03817 14.4303 4.50784 10.8172 6.29068 7.85637C7.52329 5.80878 9.56948 4.53711 11.6293 4.53711C12.4691 4.53711 13.2447 4.74996 13.937 5.17113C16.3705 6.6511 16.9009 10.2642 15.118 13.225C13.8854 15.2726 11.8401 16.5452 9.77944 16.5452V16.5443Z" fill="#EF6A9D"/>
<path d="M11.6293 4.26367V4.80945C12.4185 4.80945 13.147 5.00957 13.7959 5.40345C16.1018 6.8052 16.5905 10.25 14.8855 13.0826C14.2945 14.065 13.4927 14.8819 12.5669 15.4449C11.6782 15.9853 10.7143 16.2709 9.77949 16.2709C8.99033 16.2709 8.2609 16.0708 7.61292 15.6769C6.51245 15.0074 5.78754 13.8522 5.57125 12.4231C5.34952 10.9568 5.68799 9.38584 6.52331 7.99773C7.11427 7.01532 7.9161 6.19847 8.84191 5.6354C9.73062 5.09508 10.6944 4.80945 11.6293 4.80945V4.26367ZM11.6293 4.26367C9.55776 4.26367 7.37581 5.52716 6.05814 7.71574C4.19565 10.8103 4.7649 14.5844 7.33147 16.1444C8.08262 16.6011 8.92155 16.8176 9.77949 16.8176C11.851 16.8176 14.033 15.5541 15.3506 13.3655C17.2131 10.2709 16.6439 6.49683 14.0773 4.9368C13.3262 4.48017 12.4872 4.26367 11.6293 4.26367Z" fill="#971A4A"/>
<path d="M7.99854 15.4612C7.1587 15.4612 6.38312 15.2484 5.69079 14.8272C3.25726 13.3472 2.72783 9.73417 4.50977 6.7733C5.74238 4.72571 7.78858 3.45312 9.84835 3.45312C10.6882 3.45312 11.4638 3.66598 12.1561 4.08714C14.5896 5.56712 15.12 9.1802 13.3371 12.1411C12.1045 14.1887 10.0592 15.4612 7.99854 15.4612Z" fill="#FF8FB4"/>
<path d="M9.84832 3.17969V3.72547C10.6375 3.72547 11.366 3.92559 12.0149 4.31946C13.1154 4.98895 13.8403 6.14419 14.0566 7.57323C14.2783 9.03957 13.9398 10.6105 13.1045 11.9986C12.5135 12.981 11.7117 13.7979 10.7859 14.3609C9.89719 14.9013 8.93337 15.1869 7.99851 15.1869C7.20935 15.1869 6.47993 14.9868 5.83195 14.5929C3.52602 13.1911 3.03732 9.74635 4.74233 6.91375C5.33329 5.93134 6.13512 5.11448 7.06093 4.55142C7.94964 4.0111 8.91346 3.72547 9.84832 3.72547V3.17969ZM9.84832 3.17969C7.77679 3.17969 5.59484 4.44317 4.27807 6.63176C2.41468 9.72634 2.98483 13.4995 5.55049 15.0605C6.30164 15.5171 7.14057 15.7336 7.99851 15.7336C10.07 15.7336 12.252 14.4701 13.5697 12.2815C15.4322 9.18693 14.8629 5.41285 12.2963 3.85282C11.5452 3.39618 10.7063 3.17969 9.84832 3.17969Z" fill="#971A4A"/>
<path d="M5.57811 14.6457L5.39075 14.957L7.61777 16.3111L7.80513 15.9998L5.57811 14.6457Z" fill="#971A4A"/>
<path d="M12.2719 3.85332L11.9908 4.32031L14.2179 5.67436L14.4989 5.20737L12.2719 3.85332Z" fill="#971A4A"/>
<path d="M14.1256 5.97442L13.8446 6.44141L15.576 7.49414L15.8571 7.02714L14.1256 5.97442Z" fill="#971A4A"/>
<path d="M14.4877 7.79473L14.2067 8.26172L15.9381 9.31445L16.2192 8.84746L14.4877 7.79473Z" fill="#971A4A"/>
<path d="M14.487 9.79278L14.2059 10.2598L15.9374 11.3125L16.2184 10.8455L14.487 9.79278Z" fill="#971A4A"/>
<path d="M13.4923 11.9764L13.2113 12.4434L14.9427 13.4961L15.2238 13.0291L13.4923 11.9764Z" fill="#971A4A"/>
<path d="M11.8639 13.7029L11.5829 14.1699L13.3143 15.2227L13.5954 14.7557L11.8639 13.7029Z" fill="#971A4A"/>
<path d="M10.2348 14.7088L9.95374 15.1758L11.6852 16.2285L11.9662 15.7615L10.2348 14.7088Z" fill="#971A4A"/>
<path d="M8.60563 15.2518L8.32458 15.7188L10.056 16.7715L10.3371 16.3045L8.60563 15.2518Z" fill="#971A4A"/>
<path d="M7.90626 7.78125L7.74607 8.57718H6.8809L6.43111 10.8294H5.42747L5.87725 8.57718H5.0166L5.17679 7.78125H7.90716H7.90626Z" fill="#971A4A"/>
<path d="M9.14815 7.78125L8.5427 10.8294H7.53906L8.14451 7.78125H9.14815Z" fill="#971A4A"/>
<path d="M12.6607 7.78125L11.3195 9.04656L12.0851 10.8294H10.9213L10.5059 9.80792L10.1077 10.1863L9.97825 10.8304H8.97461L9.58005 7.78216H10.5837L10.3629 8.89101L11.4661 7.78216H12.6607V7.78125Z" fill="#971A4A"/>
</svg>
