<svg width="17" height="14" viewBox="0 0 17 14" fill="none" xmlns="http://www.w3.org/2000/svg">
<g clip-path="url(#clip0_669_3531)">
<path d="M2.56946 5.9052C3.09225 3.1332 5.50319 1.12 8.30344 1.12C10.7505 1.12 12.9557 2.6964 13.7871 4.9952L12.6248 4.3428L12.0825 5.32L14.6019 6.7368L16.4678 4.4464L15.6086 3.7352L14.8494 4.6648C13.8678 1.8648 11.2678 0 8.30344 0C4.88585 0 2.00218 2.464 1.44602 5.8576L1.41821 6.02H2.54721L2.56946 5.9052Z" fill="#A5A5A5"/>
<path d="M14.0374 8.09492C13.5174 10.8669 11.1037 12.8801 8.30342 12.8801C5.95366 12.8801 3.84026 11.4493 2.93095 9.28492L3.84304 9.79732L4.3853 8.82012L1.86591 7.40332L0 9.69372L0.859262 10.4049L1.74911 9.31292C2.72517 12.1269 5.32798 14.0029 8.30342 14.0029C11.721 14.0029 14.6047 11.5389 15.1608 8.14532L15.1886 7.98292H14.0596L14.0374 8.09772V8.09492Z" fill="#A5A5A5"/>
</g>
<defs>
<clipPath id="clip0_669_3531">
<rect width="16.4706" height="14" fill="white"/>
</clipPath>
</defs>
</svg>
