<svg width="20" height="20" viewBox="0 0 20 20" fill="none" xmlns="http://www.w3.org/2000/svg">
<path fill-rule="evenodd" clip-rule="evenodd" d="M18.1337 9.99935C18.1337 14.4913 14.4922 18.1327 10.0003 18.1327C5.50841 18.1327 1.86699 14.4913 1.86699 9.99935C1.86699 5.50743 5.50841 1.86602 10.0003 1.86602C14.4922 1.86602 18.1337 5.50743 18.1337 9.99935ZM19.3337 9.99935C19.3337 15.154 15.155 19.3327 10.0003 19.3327C4.84567 19.3327 0.666992 15.154 0.666992 9.99935C0.666992 4.84469 4.84567 0.666016 10.0003 0.666016C15.155 0.666016 19.3337 4.84469 19.3337 9.99935ZM8.58789 7.99939L10.9086 7.99939L6.00074 13.1087L7.44311 14.4941L12.2546 9.4852L12.2546 11.8994H14.2546V6.99939V5.99939L13.2546 5.99939H8.58789V7.99939Z" fill="#FF2222"/>
</svg>
