<svg width="38" height="38" viewBox="0 0 38 38" fill="none" xmlns="http://www.w3.org/2000/svg">
<ellipse cx="18.9452" cy="19" rx="18.9452" ry="19" fill="#FFE2EC"/>
<path fill-rule="evenodd" clip-rule="evenodd" d="M7.54614 13C7.54614 11.8954 8.44157 11 9.54614 11H28.5461C29.6507 11 30.5461 11.8954 30.5461 13V16C28.6131 16 27.0461 17.3431 27.0461 19C27.0461 20.6569 28.6131 22 30.5461 22V25C30.5461 26.1046 29.6507 27 28.5461 27H9.54614C8.44157 27 7.54614 26.1046 7.54614 25V21.8758C8.99189 21.507 10.0461 20.359 10.0461 19C10.0461 17.641 8.99189 16.493 7.54614 16.1242V13Z" fill="#F46D9A"/>
<path fill-rule="evenodd" clip-rule="evenodd" d="M13.2961 11H15.0461V13V25V27H13.2961H10.0461H9.79614C8.82964 27 8.04614 26.1046 8.04614 25V21.3235C9.53027 21.1278 10.6711 19.9511 10.6711 18.5286C10.6711 17.1062 9.53027 15.9294 8.04614 15.7337V13C8.04614 11.8954 8.82964 11 9.79614 11H10.0461H13.2961Z" fill="#FF8FB4"/>
<rect x="16.0461" y="16.6465" width="1.5" height="2.35294" rx="0.75" transform="rotate(180 16.0461 16.6465)" fill="#971A4A"/>
<rect x="16.0461" y="20.4121" width="1.5" height="2.35294" rx="0.75" transform="rotate(180 16.0461 20.4121)" fill="#971A4A"/>
<rect x="16.0461" y="24.1758" width="1.5" height="2.35294" rx="0.75" transform="rotate(180 16.0461 24.1758)" fill="#971A4A"/>
<path d="M30.5461 15.5V16.25C30.9604 16.25 31.2961 15.9142 31.2961 15.5H30.5461ZM30.5461 22.5H31.2961C31.2961 22.0858 30.9604 21.75 30.5461 21.75V22.5ZM7.54614 22.3551L7.33221 21.6362C7.01418 21.7309 6.79614 22.0232 6.79614 22.3551H7.54614ZM7.54614 15.6449H6.79614C6.79614 15.9768 7.01418 16.2691 7.33221 16.3638L7.54614 15.6449ZM9.54614 10.25C8.02736 10.25 6.79614 11.4812 6.79614 13H8.29614C8.29614 12.3096 8.85579 11.75 9.54614 11.75V10.25ZM28.5461 10.25H9.54614V11.75H28.5461V10.25ZM31.2961 13C31.2961 11.4812 30.0649 10.25 28.5461 10.25V11.75C29.2365 11.75 29.7961 12.3096 29.7961 13H31.2961ZM31.2961 15.5V13H29.7961V15.5H31.2961ZM27.7961 19C27.7961 17.4812 29.0274 16.25 30.5461 16.25V14.75C28.1989 14.75 26.2961 16.6528 26.2961 19H27.7961ZM30.5461 21.75C29.0274 21.75 27.7961 20.5188 27.7961 19H26.2961C26.2961 21.3472 28.1989 23.25 30.5461 23.25V21.75ZM31.2961 25V22.5H29.7961V25H31.2961ZM28.5461 27.75C30.0649 27.75 31.2961 26.5188 31.2961 25H29.7961C29.7961 25.6904 29.2365 26.25 28.5461 26.25V27.75ZM9.54614 27.75H28.5461V26.25H9.54614V27.75ZM6.79614 25C6.79614 26.5188 8.02736 27.75 9.54614 27.75V26.25C8.85579 26.25 8.29614 25.6904 8.29614 25H6.79614ZM6.79614 22.3551V25H8.29614V22.3551H6.79614ZM9.29614 19C9.29614 20.2446 8.46868 21.298 7.33221 21.6362L7.76008 23.0739C9.5151 22.5516 10.7961 20.9264 10.7961 19H9.29614ZM7.33221 16.3638C8.46868 16.702 9.29614 17.7554 9.29614 19H10.7961C10.7961 17.0736 9.5151 15.4484 7.76008 14.9261L7.33221 16.3638ZM6.79614 13V15.6449H8.29614V13H6.79614Z" fill="#971A4A"/>
</svg>
