<svg width="24" height="24" viewBox="0 0 24 24" fill="none" xmlns="http://www.w3.org/2000/svg">
    <defs>
        <linearGradient id="paint0_linear_4834_48215" x1="8.04206" y1="12.8184" x2="8.26461" y2="12.8184" gradientUnits="userSpaceOnUse">
            <stop offset="0.31" stop-color="white"/>
            <stop offset="0.73" stop-color="#E4E4E4"/>
        </linearGradient>
        <linearGradient id="paint1_linear_4834_48215" x1="6.96337" y1="11.1835" x2="14.1741" y2="11.1835" gradientUnits="userSpaceOnUse">
            <stop offset="0.31" stop-color="white"/>
            <stop offset="0.73" stop-color="#E4E4E4"/>
        </linearGradient>
        <clipPath id="clip0_4834_48215">
            <rect width="24" height="24" fill="white"/>
        </clipPath>
    </defs>
<g clip-path="url(#clip0_4834_48215)">
<path d="M11.9992 23.9983C18.6261 23.9983 23.9983 18.6261 23.9983 11.9992C23.9983 5.37221 18.6261 0 11.9992 0C5.37221 0 0 5.37221 0 11.9992C0 18.6261 5.37221 23.9983 11.9992 23.9983Z" fill="#FF6100"/>
<path d="M8.21094 12.8145L8.22534 12.8223L8.21094 12.8145Z" fill="#C0C0C0"/>
<path d="M8.21094 12.8145L8.22534 12.8223L8.21094 12.8145Z" fill="url(#paint0_linear_4834_48215)"/>
<path d="M13.2748 4.66602L7.1375 9.62898C6.98694 9.75073 6.92672 9.95365 6.98694 10.1369L7.69781 12.3206C7.71876 12.386 7.75017 12.4476 7.78814 12.5039C7.81563 12.5431 7.84705 12.5798 7.8824 12.6125C7.92822 12.6557 7.98058 12.6937 8.03688 12.7238L8.20968 12.8141C8.09055 12.7513 8.03295 12.6282 8.04211 12.5091C8.04866 12.4279 8.08662 12.3481 8.15732 12.2905L9.40886 11.2785L9.64582 11.0874L9.80815 10.9565L14.1728 7.427L13.2748 4.66602Z" fill="white"/>
<path d="M9.41016 11.279L9.64711 11.0879L9.41016 11.279Z" fill="#AEAEAE"/>
<path d="M9.41016 11.279L9.64711 11.0879L9.41016 11.279Z" fill="url(#paint1_linear_4834_48215)"/>
<path opacity="0.4" d="M9.97818 11.262L9.64566 11.0879L9.40871 11.279L8.15716 12.291C8.08516 12.3486 8.04851 12.4285 8.04196 12.5096C8.0328 12.6288 8.0904 12.7531 8.20953 12.8147L8.22262 12.8225L10.6314 14.0845L12.4917 12.5803L9.97688 11.262H9.97818Z" fill="white"/>
<path d="M17.0093 13.5941L16.6179 11.2834C16.6035 11.1957 16.5721 11.1106 16.5276 11.0347C16.5001 10.9876 16.47 10.943 16.4307 10.9038C16.4228 10.8959 16.4137 10.8894 16.4058 10.8828C16.3796 10.8593 16.3521 10.837 16.3233 10.8187C16.3024 10.8043 16.2801 10.7899 16.2566 10.7781L16.2212 10.7598C16.2395 10.7729 16.2553 10.7899 16.2683 10.8069C16.3403 10.9012 16.3351 11.0439 16.2369 11.1276L16.1374 11.2127L16.0916 11.2507L16.0392 11.2939L14.6594 12.4289L14.556 12.514L14.3531 12.6803L9.60742 16.5815L10.5277 19.3347L16.8601 14.1059C17.0093 13.9829 17.0682 13.78 17.0067 13.5967L17.0093 13.5941Z" fill="white"/>
<path opacity="0.4" d="M16.27 10.8066V10.8131C16.27 10.8131 16.27 10.8092 16.27 10.8066C16.2569 10.7896 16.2412 10.7725 16.2229 10.7594L16.1902 10.7424L16.1352 10.7149L16.0959 10.6953C16.0959 10.6953 16.0881 10.6901 16.0841 10.6887L16.0357 10.6652L15.9454 10.6207L14.4032 9.85352L12.5547 11.3734L14.25 12.2231L14.3548 12.2754L14.542 12.3697L14.6611 12.4286L15.9676 11.3551L16.0409 11.2949L16.0933 11.2517L16.1391 11.2137L16.2386 11.1286C16.3368 11.0448 16.342 10.9021 16.27 10.8079V10.8066Z" fill="white"/>
</g>

</svg>
