<svg width="17" height="14" viewBox="0 0 17 14" fill="none" xmlns="http://www.w3.org/2000/svg">
<g clip-path="url(#clip0_4661_60154)">
<path d="M2.56921 5.9052C3.092 3.1332 5.50294 1.12 8.30319 1.12C10.7503 1.12 12.9554 2.6964 13.7869 4.9952L12.6245 4.3428L12.0823 5.32L14.6017 6.7368L16.4676 4.4464L15.6083 3.7352L14.8492 4.6648C13.8675 1.8648 11.2675 0 8.30319 0C4.88561 0 2.00193 2.464 1.44578 5.8576L1.41797 6.02H2.54697L2.56921 5.9052Z" fill="#A5A5A5"/>
<path d="M14.0374 8.09394C13.5174 10.8659 11.1037 12.8791 8.30342 12.8791C5.95366 12.8791 3.84026 11.4483 2.93095 9.28394L3.84304 9.79634L4.3853 8.81914L1.86591 7.40234L0 9.69274L0.859262 10.4039L1.74911 9.31194C2.72517 12.1259 5.32798 14.0019 8.30342 14.0019C11.721 14.0019 14.6047 11.5379 15.1608 8.14434L15.1886 7.98194H14.0596L14.0374 8.09674V8.09394Z" fill="#A5A5A5"/>
</g>
<defs>
<clipPath id="clip0_4661_60154">
<rect width="16.4706" height="14" fill="white"/>
</clipPath>
</defs>
</svg>
