<svg width="104" height="104" viewBox="0 0 104 104" fill="none" xmlns="http://www.w3.org/2000/svg">
<path fill-rule="evenodd" clip-rule="evenodd" d="M56.9441 3.64649C54.6347 -0.353514 48.8612 -0.353518 46.5518 3.64648L1.31475 81.9994C-0.994649 85.9994 1.8921 90.9994 6.5109 90.9994H96.9851C101.604 90.9994 104.491 85.9994 102.181 81.9994L56.9441 3.64649ZM50.7721 30.9268C53.5217 30.9268 55.7293 33.1957 55.654 35.9442L55.0346 58.5713C54.9714 60.88 53.0816 62.7187 50.7721 62.7187C48.4626 62.7187 46.5728 60.88 46.5096 58.5713L45.8901 35.9442C45.8149 33.1957 48.0225 30.9268 50.7721 30.9268ZM50.7431 80.0479C47.8708 80.0479 45.4626 77.4881 45.5207 74.2963C45.4626 71.1992 47.8708 68.6711 50.7431 68.6711C53.5284 68.6711 55.9945 71.1992 56.0235 74.2963C55.9945 77.4881 53.5284 80.0479 50.7431 80.0479Z" fill="#BFBFBF"/>
</svg>
