<svg width="78" height="26" viewBox="0 0 78 26" fill="none" xmlns="http://www.w3.org/2000/svg">
<path fill-rule="evenodd" clip-rule="evenodd" d="M8.29786 1C8.0763 1 7.88116 1.14581 7.81837 1.35829L1.02082 24.3583C0.926137 24.6787 1.16624 25 1.50032 25H2.50752H64.0316H73.4126C73.7558 25 73.997 24.6622 73.8855 24.3377L70.2887 13.8603L76.7728 1.7358C76.9509 1.40272 76.7096 1 76.3319 1H65.5168H8.92288H8.29786Z" fill="white"/>
<path d="M7.81837 1.35829L8.29786 1.5V1.5L7.81837 1.35829ZM1.02082 24.3583L1.50032 24.5L1.50032 24.5L1.02082 24.3583ZM73.8855 24.3377L73.4126 24.5V24.5L73.8855 24.3377ZM70.2887 13.8603L69.8478 13.6245C69.7823 13.747 69.7707 13.8912 69.8158 14.0226L70.2887 13.8603ZM76.7728 1.7358L76.3319 1.49999L76.3319 1.5L76.7728 1.7358ZM8.29786 1.5V1.5V0.5C7.85474 0.5 7.46446 0.791623 7.33887 1.21657L8.29786 1.5ZM1.50032 24.5L8.29786 1.5L7.33887 1.21657L0.541327 24.2166L1.50032 24.5ZM1.50032 24.5L1.50032 24.5L0.541327 24.2166C0.351954 24.8573 0.832162 25.5 1.50032 25.5V24.5ZM2.50752 24.5H1.50032V25.5H2.50752V24.5ZM2.50752 25.5H64.0316V24.5H2.50752V25.5ZM64.0316 25.5H73.4126V24.5H64.0316V25.5ZM73.4126 25.5C74.0989 25.5 74.5813 24.8244 74.3584 24.1753L73.4126 24.5V24.5V25.5ZM74.3584 24.1753L70.7616 13.6979L69.8158 14.0226L73.4126 24.5L74.3584 24.1753ZM76.3319 1.5L69.8478 13.6245L70.7296 14.0961L77.2137 1.97159L76.3319 1.5ZM76.3319 1.5L76.3319 1.49999L77.2137 1.9716C77.57 1.30544 77.0873 0.5 76.3319 0.5V1.5ZM65.5168 1.5H76.3319V0.5H65.5168V1.5ZM65.5168 0.5H8.92288V1.5H65.5168V0.5ZM8.29786 1.5H8.92288V0.5H8.29786V1.5Z" fill="black"/>
</svg>
