<svg width="72" height="26" viewBox="0 0 72 26" fill="none" xmlns="http://www.w3.org/2000/svg">
<path fill-rule="evenodd" clip-rule="evenodd" d="M7.73369 1C7.50792 1 7.31015 1.1513 7.2511 1.36921L1.01769 24.3692C0.931536 24.6871 1.17092 25 1.50028 25H2.49156H58.7651H68.1619C68.5004 25 68.741 24.6708 68.6384 24.3484L65.0009 12.9202L70.4936 1.72016C70.6565 1.38795 70.4146 1 70.0446 1H60.8413H8.43959H7.73369Z" fill="#0EE6F3"/>
<path d="M7.2511 1.36921L6.76851 1.23842V1.23842L7.2511 1.36921ZM1.01769 24.3692L1.50028 24.5H1.50028L1.01769 24.3692ZM68.6384 24.3484L69.1148 24.1967V24.1967L68.6384 24.3484ZM65.0009 12.9202L64.552 12.7C64.4952 12.8158 64.4854 12.949 64.5245 13.0718L65.0009 12.9202ZM70.4936 1.72016L70.9425 1.94031V1.94031L70.4936 1.72016ZM7.73369 1.5V1.5V0.5C7.28214 0.5 6.88662 0.802598 6.76851 1.23842L7.73369 1.5ZM1.50028 24.5L7.73369 1.5L6.76851 1.23842L0.535099 24.2384L1.50028 24.5ZM1.50028 24.5H1.50028L0.535099 24.2384C0.362792 24.8742 0.841564 25.5 1.50028 25.5V24.5ZM2.49156 24.5H1.50028V25.5H2.49156V24.5ZM2.49156 25.5H58.7651V24.5H2.49156V25.5ZM58.7651 25.5H68.1619V24.5H58.7651V25.5ZM68.1619 25.5C68.8388 25.5 69.3201 24.8417 69.1148 24.1967L68.1619 24.5V24.5V25.5ZM69.1148 24.1967L65.4774 12.7685L64.5245 13.0718L68.1619 24.5L69.1148 24.1967ZM70.0446 1.5L64.552 12.7L65.4498 13.1403L70.9425 1.94031L70.0446 1.5ZM70.0446 1.5V1.5L70.9425 1.94031C71.2683 1.27589 70.7847 0.5 70.0446 0.5V1.5ZM60.8413 1.5H70.0446V0.5H60.8413V1.5ZM60.8413 0.5H8.43959V1.5H60.8413V0.5ZM7.73369 1.5H8.43959V0.5H7.73369V1.5Z" fill="black"/>
</svg>
