<svg width="14" height="14" viewBox="0 0 14 14" fill="none" xmlns="http://www.w3.org/2000/svg">
<path d="M7 6.3C7.92826 6.3 8.8185 6.66875 9.47487 7.32513C10.1313 7.9815 10.5 8.87174 10.5 9.8V14H3.5V9.8C3.5 8.87174 3.86875 7.9815 4.52513 7.32513C5.1815 6.66875 6.07174 6.3 7 6.3ZM2.3016 8.4042C2.1902 8.77995 2.12439 9.16774 2.1056 9.5592L2.1 9.8V14H6.39219e-08V10.85C-0.000137765 10.2463 0.22262 9.66381 0.625544 9.21425C1.02847 8.76469 1.58319 8.47972 2.1833 8.414L2.3023 8.4042H2.3016ZM11.6984 8.4042C12.3213 8.44217 12.9063 8.71637 13.334 9.17086C13.7617 9.62536 13.9999 10.2259 14 10.85V14H11.9V9.8C11.9 9.3149 11.83 8.8466 11.6984 8.4042ZM2.45 4.2C2.91413 4.2 3.35925 4.38437 3.68744 4.71256C4.01563 5.04075 4.2 5.48587 4.2 5.95C4.2 6.41413 4.01563 6.85925 3.68744 7.18744C3.35925 7.51563 2.91413 7.7 2.45 7.7C1.98587 7.7 1.54075 7.51563 1.21256 7.18744C0.884375 6.85925 0.7 6.41413 0.7 5.95C0.7 5.48587 0.884375 5.04075 1.21256 4.71256C1.54075 4.38437 1.98587 4.2 2.45 4.2ZM11.55 4.2C12.0141 4.2 12.4592 4.38437 12.7874 4.71256C13.1156 5.04075 13.3 5.48587 13.3 5.95C13.3 6.41413 13.1156 6.85925 12.7874 7.18744C12.4592 7.51563 12.0141 7.7 11.55 7.7C11.0859 7.7 10.6408 7.51563 10.3126 7.18744C9.98437 6.85925 9.8 6.41413 9.8 5.95C9.8 5.48587 9.98437 5.04075 10.3126 4.71256C10.6408 4.38437 11.0859 4.2 11.55 4.2ZM7 0C7.74261 0 8.4548 0.294999 8.9799 0.820101C9.505 1.3452 9.8 2.05739 9.8 2.8C9.8 3.54261 9.505 4.2548 8.9799 4.7799C8.4548 5.305 7.74261 5.6 7 5.6C6.25739 5.6 5.5452 5.305 5.0201 4.7799C4.495 4.2548 4.2 3.54261 4.2 2.8C4.2 2.05739 4.495 1.3452 5.0201 0.820101C5.5452 0.294999 6.25739 0 7 0Z" fill="#C9C5C6"/>
</svg>
