<svg width="93" height="93" viewBox="0 0 93 93" fill="none" xmlns="http://www.w3.org/2000/svg">
<path d="M40.4843 11.5335L44.5823 13.4378C46.0036 14.0983 47.6392 14.121 49.0784 13.5003L53.2277 11.7106C55.1856 10.8662 57.4674 11.5117 58.6927 13.2567L61.2895 16.9549C62.1901 18.2375 63.5952 19.075 65.1519 19.257L69.6402 19.7818C71.758 20.0294 73.4113 21.7294 73.6 23.8532L73.9998 28.3544C74.1384 29.9155 74.9365 31.3434 76.1937 32.2793L79.8182 34.9779C81.5285 36.2513 82.1104 38.5501 81.2118 40.4838L79.3075 44.5818C78.647 46.0031 78.6242 47.6387 79.245 49.0778L81.0346 53.2272C81.8791 55.185 81.2336 57.4668 79.4886 58.6921L75.7904 61.2889C74.5077 62.1896 73.6702 63.5947 73.4882 65.1514L72.9634 69.6397C72.7158 71.7575 71.0159 73.4108 68.892 73.5994L64.3909 73.9992C62.8297 74.1379 61.4019 74.936 60.4659 76.1931L57.7673 79.8177C56.494 81.528 54.1951 82.1098 52.2615 81.2113L48.1635 79.3069C46.7422 78.6464 45.1066 78.6237 43.6674 79.2444L39.5181 81.0341C37.5602 81.8786 35.2784 81.233 34.0531 79.488L31.4563 75.7898C30.5557 74.5072 29.1506 73.6697 27.5939 73.4877L23.1056 72.9629C20.9878 72.7153 19.3345 71.0154 19.1458 68.8915L18.746 64.3904C18.6074 62.8292 17.8093 61.4014 16.5521 60.4654L12.9276 57.7668C11.2173 56.4934 10.6354 54.1946 11.534 52.261L13.4383 48.163C14.0988 46.7416 14.1216 45.106 13.5008 43.6669L11.7112 39.5176C10.8667 37.5597 11.5122 35.2779 13.2572 34.0526L16.9554 31.4558C18.2381 30.5551 19.0756 29.15 19.2576 27.5933L19.7824 23.1051C20.03 20.9872 21.7299 19.3339 23.8538 19.1453L28.3549 18.7455C29.9161 18.6068 31.3439 17.8087 32.2799 16.5516L34.9785 12.927C36.2518 11.2167 38.5506 10.6349 40.4843 11.5335Z" fill="#0EE6F3" stroke="black"/>
<path d="M32.0259 38.5291L32.4452 40.1858L30.7884 40.6051C31.0742 41.3719 31.852 42.0212 33.2864 42.1165L32.1593 37.6632L34.1606 37.1567L34.7074 39.3171L35.2773 39.1728L34.6802 36.8136L36.6948 36.3037L38.3017 42.6523L36.2871 43.1622L35.7 40.8428L35.1301 40.987L35.7004 43.2402L33.6991 43.7468L33.3334 42.3021L32.887 43.8818C31.7546 43.8652 30.9096 43.4797 30.291 42.8747C30.0599 43.7723 29.5152 44.6012 28.5537 45.2042L27.2267 43.8618C28.4727 43.0176 28.8493 41.9703 28.7473 41.1217L27.0906 41.5411L26.6713 39.8843L28.3413 39.4616L28.0964 38.4941L30.111 37.9842L30.3559 38.9517L32.0259 38.5291ZM31.2155 50.5948L30.34 47.1355L36.7814 45.5052L36.6874 45.134L30.246 46.7644L29.8468 45.1872L38.3956 43.0234L39.2645 46.4562L32.8363 48.0832L32.9437 48.5073L39.7297 46.7898L40.1222 48.3405L31.2155 50.5948Z" fill="black"/>
<path d="M48.6309 33.2826L50.9154 42.3085L48.7948 42.8453L46.5103 33.8194L48.6309 33.2826ZM39.5562 38.1603L39.1335 36.4903L44.8592 35.0411L45.9059 39.1764L42.2875 40.0922L42.5358 41.073C44.6332 40.528 45.8706 40.1513 47.1735 39.5042L47.8381 41.1271C46.2868 41.8794 44.7512 42.3315 41.9976 43.0143L40.871 43.2995L39.8043 39.0847L43.4226 38.1689L43.1878 37.2412L39.5562 38.1603ZM43.3204 47.4605L42.3543 43.6433L44.4749 43.1066L45.0116 45.2272L51.5591 43.57L51.9885 45.2665L43.3204 47.4605Z" fill="black"/>
<path d="M56.2623 34.5948C56.7571 36.5215 57.9946 38.4577 60.4427 38.7971L59.7355 40.739C58.1863 40.5247 57.0067 39.6809 56.1428 38.4963C55.9816 40.0884 55.3557 41.5161 54.0903 42.5063L52.4748 41.1382C54.44 39.6254 54.6153 37.1976 54.0887 35.1449L54.035 34.9329L51.6228 35.5434L51.1867 33.8204L58.1185 32.0659L58.5546 33.7889L56.2087 34.3827L56.2623 34.5948ZM61.8211 42.9612L58.718 30.7013L60.8652 30.1579L63.9682 42.4178L61.8211 42.9612Z" fill="black"/>
<path d="M42.167 52.0296L42.5863 53.6864L39.1536 54.5552L39.6618 56.5632C41.61 56.0419 42.7728 55.6489 43.9896 55.0518L44.611 56.6151C43.2205 57.3619 41.7361 57.7658 39.0257 58.4518L37.9521 58.7235L36.6136 53.4352L42.167 52.0296ZM40.6787 64.7041L39.7629 61.0858L45.9657 59.5159L45.8684 59.1315L39.6656 60.7015L39.2429 59.0315L47.5664 56.9248L48.4788 60.5298L42.2627 62.1031L42.3567 62.4743L48.8643 60.8271L49.2937 62.5236L40.6787 64.7041ZM45.3251 57.0407L43.7921 50.9837L45.926 50.4436L46.4694 52.5907L47.9936 52.2049L48.4297 53.928L46.9055 54.3137L47.459 56.5006L45.3251 57.0407Z" fill="black"/>
<path d="M53.6056 50.1076C54.0031 51.6782 54.9654 53.0283 57.2023 53.1179L56.5082 55.0564C55.1368 54.9593 54.1255 54.4184 53.3836 53.5767C53.1321 54.8673 52.4275 56.0117 51.1052 56.833L49.5492 55.4216C51.623 54.1704 51.8746 52.3509 51.4853 50.7571L51.2304 49.7498L53.3775 49.2063L53.6056 50.1076ZM52.7237 59.2157C52.3296 57.6865 53.7383 56.371 56.3775 55.71C59.0465 55.0275 60.8982 55.5178 61.2857 57.0486C61.6765 58.5927 60.276 59.885 57.6053 60.561C54.9678 61.2285 53.1078 60.7615 52.7237 59.2157ZM54.8443 58.679C54.9686 59.2257 55.738 59.2848 57.1893 58.9175C58.6672 58.5434 59.3092 58.1271 59.1783 57.582C59.0274 57.0138 58.2696 56.9729 56.7901 57.3403C55.3405 57.7142 54.6868 58.1124 54.8443 58.679ZM55.5741 51.9786L55.138 50.2556L57.1526 49.7457L56.6427 47.7311L58.7633 47.1944L60.5715 54.3383L58.4509 54.875L57.5887 51.4687L55.5741 51.9786Z" fill="black"/>
<path d="M39.6701 20.7992C52.5201 17.5492 65.5501 24.4592 70.2901 36.4692L72.2401 35.9792C67.2201 22.8892 53.1001 15.3392 39.1801 18.8592C25.2601 22.3892 16.4301 35.7492 18.2301 49.6492L20.1801 49.1592C18.6501 36.3292 26.8201 24.0592 39.6701 20.7992Z" fill="black"/>
<path d="M52.9495 73.2895C66.1095 69.9595 74.7295 57.8295 74.1095 44.7695L72.1195 45.2695C72.4995 57.2395 64.5495 68.2895 52.4595 71.3495C40.3695 74.4095 28.1195 68.4795 22.7595 57.7695L20.7695 58.2695C26.4295 70.0495 39.7795 76.6195 52.9395 73.2895L52.9495 73.2895Z" fill="black"/>
<path d="M20.1497 55.0103C20.8235 55.0103 21.3697 54.4641 21.3697 53.7903C21.3697 53.1165 20.8235 52.5703 20.1497 52.5703C19.4759 52.5703 18.9297 53.1165 18.9297 53.7903C18.9297 54.4641 19.4759 55.0103 20.1497 55.0103Z" fill="black"/>
<path d="M72.5403 41.7505C73.2141 41.7505 73.7603 41.2043 73.7603 40.5305C73.7603 39.8568 73.2141 39.3105 72.5403 39.3105C71.8665 39.3105 71.3203 39.8568 71.3203 40.5305C71.3203 41.2043 71.8665 41.7505 72.5403 41.7505Z" fill="black"/>
</svg>
