<svg xmlns="http://www.w3.org/2000/svg" width="18" height="18" viewBox="0 0 18 18" fill="none">
    <circle cx="9.00391" cy="9.15625" r="9" fill="#8A8A8A"/>
    <path d="M12.3816 8.17644H12.086V6.22133C12.0854 4.60236 10.7391 3.28516 9.08364 3.28516H8.92349C7.26803 3.28516 5.92113 4.60236 5.92113 6.22133V8.17644H5.62558C5.1139 8.17644 4.69922 8.58197 4.69922 9.08237V13.3357C4.69922 13.8361 5.1139 14.2417 5.62558 14.2417H12.3816C12.8932 14.2417 13.3079 13.8361 13.3079 13.3357V9.08237C13.3079 8.58197 12.8932 8.17644 12.3816 8.17644ZM9.46186 11.4526V12.1643C9.46186 12.412 9.2568 12.6125 9.00357 12.6125C8.75033 12.6125 8.54527 12.412 8.54527 12.1643V11.4526C8.32979 11.3093 8.18853 11.0674 8.18853 10.7937C8.18853 10.3537 8.55373 9.99658 9.00357 9.99658C9.4534 9.99658 9.81861 10.3537 9.81861 10.7937C9.81861 11.0674 9.67734 11.3093 9.46186 11.4526ZM10.9136 8.17644H7.09291V6.22133C7.09291 5.23454 7.91381 4.4311 8.92349 4.4311H9.08364C10.0927 4.4311 10.9142 5.2339 10.9142 6.22133V8.17644H10.9136Z" fill="black"/>
</svg>