<svg width="20" height="20" viewBox="0 0 20 20" fill="none" xmlns="http://www.w3.org/2000/svg">
<path d="M10 0L11.4934 1.53065L13.4202 0.603074L14.3 2.55218L16.4279 2.33956L16.588 4.47203L18.6603 5L18.0814 7.05863L19.8481 8.26352L18.6 10L19.8481 11.7365L18.0814 12.9414L18.6603 15L16.588 15.528L16.4279 17.6604L14.3 17.4478L13.4202 19.3969L11.4934 18.4693L10 20L8.50663 18.4693L6.5798 19.3969L5.7 17.4478L3.57212 17.6604L3.41202 15.528L1.33975 15L1.91864 12.9414L0.151922 11.7365L1.4 10L0.151922 8.26352L1.91864 7.05863L1.33975 5L3.41202 4.47203L3.57212 2.33956L5.7 2.55218L6.5798 0.603074L8.50663 1.53065L10 0Z" fill="#1D1D26"/>
<path d="M9.28683 6.04906C9.63919 5.25857 10.7612 5.25857 11.1136 6.04906L11.6229 7.19177C11.7683 7.5178 12.0764 7.74164 12.4313 7.77911L13.6755 7.91043C14.5362 8.00127 14.8829 9.06837 14.24 9.64776L13.3106 10.4853C13.0455 10.7243 12.9278 11.0865 13.0018 11.4356L13.2614 12.6595C13.441 13.5061 12.5333 14.1656 11.7836 13.7332L10.6998 13.1082C10.3906 12.9298 10.0098 12.9298 9.70057 13.1082L8.61682 13.7332C7.86712 14.1656 6.95939 13.5061 7.13896 12.6595L7.39854 11.4356C7.47261 11.0865 7.35493 10.7243 7.08976 10.4853L6.16038 9.64776C5.51747 9.06837 5.86419 8.00127 6.72487 7.91043L7.96906 7.77911C8.32404 7.74164 8.63213 7.5178 8.77746 7.19177L9.28683 6.04906Z" fill="#0EE6F3"/>
</svg>
