<svg width="16" height="12" viewBox="0 0 16 12" fill="none" xmlns="http://www.w3.org/2000/svg">
<path fill-rule="evenodd" clip-rule="evenodd" d="M8.68364 5.07272C9.65573 4.68695 10.3431 3.73803 10.3431 2.62857C10.3431 1.17685 9.16623 0 7.71451 0C6.26279 0 5.08594 1.17685 5.08594 2.62857C5.08594 3.73833 5.77366 4.68746 6.74616 5.07303C5.40461 5.4866 4.42969 6.73617 4.42969 8.21345V11.4992H11.0011V8.21345C11.0011 6.7358 10.0257 5.48597 8.68364 5.07272Z" fill="#D9D9D9"/>
<path fill-rule="evenodd" clip-rule="evenodd" d="M2.99544 6.81769C3.68092 6.54635 4.16575 5.87758 4.16575 5.09557C4.16575 4.07305 3.33684 3.24414 2.31432 3.24414C1.2918 3.24414 0.462891 4.07305 0.462891 5.09557C0.462891 5.87757 0.947709 6.54633 1.63317 6.81768C0.687444 7.10848 0 7.98901 0 9.03011V11.3444H4.62857V9.03011C4.62857 7.98903 3.94115 7.10851 2.99544 6.81769Z" fill="#D9D9D9" fill-opacity="0.5"/>
<path fill-rule="evenodd" clip-rule="evenodd" d="M13.7943 6.81769C14.4797 6.54635 14.9646 5.87758 14.9646 5.09557C14.9646 4.07305 14.1357 3.24414 13.1131 3.24414C12.0906 3.24414 11.2617 4.07305 11.2617 5.09557C11.2617 5.87757 11.7465 6.54633 12.432 6.81768C11.4863 7.10848 10.7988 7.98901 10.7988 9.03011V11.3444H15.4274V9.03011C15.4274 7.98903 14.74 7.10851 13.7943 6.81769Z" fill="#D9D9D9" fill-opacity="0.5"/>
</svg>
