<svg width="93" height="93" viewBox="0 0 93 93" fill="none" xmlns="http://www.w3.org/2000/svg">
<path d="M40.4843 11.5335L44.5823 13.4378C46.0036 14.0983 47.6392 14.121 49.0784 13.5003L53.2277 11.7106C55.1856 10.8662 57.4674 11.5117 58.6927 13.2567L61.2895 16.9549C62.1901 18.2375 63.5952 19.075 65.1519 19.257L69.6402 19.7818C71.758 20.0294 73.4113 21.7294 73.6 23.8532L73.9998 28.3544C74.1384 29.9155 74.9365 31.3434 76.1937 32.2793L79.8182 34.9779C81.5285 36.2513 82.1104 38.5501 81.2118 40.4838L79.3075 44.5818C78.647 46.0031 78.6242 47.6387 79.245 49.0778L81.0346 53.2272C81.8791 55.185 81.2336 57.4668 79.4886 58.6921L75.7904 61.2889C74.5077 62.1896 73.6702 63.5947 73.4882 65.1514L72.9634 69.6397C72.7158 71.7575 71.0159 73.4108 68.892 73.5994L64.3909 73.9992C62.8297 74.1379 61.4019 74.936 60.4659 76.1931L57.7673 79.8177C56.494 81.528 54.1951 82.1098 52.2615 81.2113L48.1635 79.3069C46.7422 78.6464 45.1066 78.6237 43.6674 79.2444L39.5181 81.0341C37.5602 81.8786 35.2784 81.233 34.0531 79.488L31.4563 75.7898C30.5557 74.5072 29.1506 73.6697 27.5939 73.4877L23.1056 72.9629C20.9878 72.7153 19.3345 71.0154 19.1458 68.8915L18.746 64.3904C18.6074 62.8292 17.8093 61.4014 16.5521 60.4654L12.9276 57.7668C11.2173 56.4934 10.6354 54.1946 11.534 52.261L13.4383 48.163C14.0988 46.7416 14.1216 45.106 13.5008 43.6669L11.7112 39.5176C10.8667 37.5597 11.5122 35.2779 13.2572 34.0526L16.9554 31.4558C18.2381 30.5551 19.0756 29.15 19.2576 27.5933L19.7824 23.1051C20.03 20.9872 21.7299 19.3339 23.8538 19.1453L28.3549 18.7455C29.9161 18.6068 31.3439 17.8087 32.2799 16.5516L34.9785 12.927C36.2518 11.2167 38.5506 10.6349 40.4843 11.5335Z" fill="#BFBFBF" stroke="black"/>
<path d="M32.6027 37.8155L32.9921 39.3539L31.4537 39.7433C31.719 40.4553 32.4413 41.0582 33.7732 41.1467L32.7266 37.0115L34.585 36.5411L35.0927 38.5472L35.6219 38.4132L35.0675 36.2226L36.9382 35.7491L38.4302 41.6442L36.5595 42.1177L36.0144 39.964L35.4852 40.0979L36.0148 42.1901L34.1564 42.6605L33.8168 41.319L33.4024 42.7859C32.3508 42.7705 31.5661 42.4125 30.9918 41.8507C30.7772 42.6842 30.2714 43.4539 29.3785 44.0138L28.1463 42.7673C29.3033 41.9834 29.653 41.0109 29.5584 40.223L28.0199 40.6124L27.6306 39.0739L29.1813 38.6815L28.9539 37.783L30.8246 37.3095L31.052 38.208L32.6027 37.8155ZM31.8502 49.0194L31.0372 45.8072L37.0185 44.2933L36.9313 43.9487L30.95 45.4626L30.5793 43.998L38.5175 41.9888L39.3243 45.1764L33.3553 46.6872L33.4549 47.081L39.7562 45.4861L40.1207 46.9261L31.8502 49.0194Z" fill="black"/>
<path d="M48.0563 32.935L50.1776 41.3162L48.2085 41.8146L46.0872 33.4334L48.0563 32.935ZM39.6298 37.4643L39.2373 35.9136L44.554 34.5679L45.5259 38.4078L42.166 39.2582L42.3965 40.1689C44.3441 39.6629 45.4931 39.3131 46.703 38.7123L47.3201 40.2192C45.8796 40.9177 44.4537 41.3376 41.8968 41.9716L40.8507 42.2364L39.8601 38.3227L43.22 37.4723L43.002 36.6108L39.6298 37.4643ZM43.1251 46.1002L42.228 42.5557L44.1971 42.0573L44.6955 44.0264L50.7753 42.4876L51.174 44.063L43.1251 46.1002Z" fill="black"/>
<path d="M55.1772 34.1447C55.6366 35.9338 56.7858 37.7317 59.059 38.0469L58.4023 39.85C56.9638 39.651 55.8684 38.8675 55.0662 37.7675C54.9166 39.2459 54.3354 40.5716 53.1603 41.4911L51.6602 40.2207C53.4851 38.816 53.6478 36.5616 53.1589 34.6556L53.109 34.4586L50.8691 35.0256L50.4642 33.4256L56.9008 31.7965L57.3058 33.3964L55.1274 33.9478L55.1772 34.1447ZM60.3389 41.9135L57.4575 30.5294L59.4513 30.0247L62.3327 41.4089L60.3389 41.9135Z" fill="black"/>
<path d="M37.4148 53.1544L39.3866 60.9449L33.7376 62.3747L31.7658 54.5842L37.4148 53.1544ZM35.3143 60.3256L37.0742 59.8801L35.8812 55.1665L34.1212 55.6119L35.3143 60.3256ZM41.5209 63.2203L38.6302 51.7992L40.624 51.2945L43.5147 62.7156L41.5209 63.2203Z" fill="black"/>
<path d="M48.0055 50.0155L48.3949 51.5539L45.2073 52.3607L45.6792 54.2253C47.4883 53.7412 48.568 53.3762 49.698 52.8218L50.2749 54.2734C48.9837 54.9669 47.6054 55.342 45.0886 55.979L44.0917 56.2313L42.8488 51.3207L48.0055 50.0155ZM46.6235 61.7847L45.7731 58.4249L51.5329 56.967L51.4425 56.6101L45.6828 58.068L45.2903 56.5172L53.0192 54.561L53.8665 57.9086L48.0944 59.3695L48.1816 59.7141L54.2245 58.1847L54.6232 59.76L46.6235 61.7847ZM50.9381 54.6687L49.5145 49.0443L51.496 48.5428L52.0006 50.5366L53.4159 50.1783L53.8209 51.7783L52.4056 52.1365L52.9195 54.1672L50.9381 54.6687Z" fill="black"/>
<path d="M58.6617 48.222C59.0308 49.6804 59.9243 50.9341 62.0014 51.0173L61.357 52.8174C60.0835 52.7272 59.1445 52.2249 58.4556 51.4433C58.222 52.6418 57.5677 53.7044 56.3398 54.467L54.895 53.1565C56.8207 51.9946 57.0543 50.3051 56.6929 48.8251L56.4561 47.8898L58.4499 47.3851L58.6617 48.222ZM57.8427 56.6796C57.4768 55.2596 58.7849 54.038 61.2356 53.4243C63.714 52.7905 65.4334 53.2458 65.7932 54.6673C66.1561 56.101 64.8556 57.3011 62.3757 57.9287C59.9266 58.5486 58.1995 58.1149 57.8427 56.6796ZM59.8119 56.1811C59.9273 56.6889 60.6418 56.7437 61.9894 56.4026C63.3617 56.0553 63.9579 55.6687 63.8363 55.1625C63.6962 54.6349 62.9926 54.5969 61.6188 54.9381C60.2727 55.2853 59.6656 55.6551 59.8119 56.1811ZM60.4896 49.9594L60.0846 48.3595L61.9553 47.886L61.4819 46.0153L63.451 45.5169L65.13 52.1505L63.1608 52.6489L62.3603 49.486L60.4896 49.9594Z" fill="black"/>
<path d="M39.6701 20.7992C52.5201 17.5492 65.5501 24.4592 70.2901 36.4692L72.2401 35.9792C67.2201 22.8892 53.1001 15.3392 39.1801 18.8592C25.2601 22.3892 16.4301 35.7492 18.2301 49.6492L20.1801 49.1592C18.6501 36.3292 26.8201 24.0592 39.6701 20.7992Z" fill="black"/>
<path d="M52.9495 73.2895C66.1095 69.9595 74.7295 57.8295 74.1095 44.7695L72.1195 45.2695C72.4995 57.2395 64.5495 68.2895 52.4595 71.3495C40.3695 74.4095 28.1195 68.4795 22.7595 57.7695L20.7695 58.2695C26.4295 70.0495 39.7795 76.6195 52.9395 73.2895L52.9495 73.2895Z" fill="black"/>
<path d="M20.1497 55.0103C20.8235 55.0103 21.3697 54.4641 21.3697 53.7903C21.3697 53.1165 20.8235 52.5703 20.1497 52.5703C19.4759 52.5703 18.9297 53.1165 18.9297 53.7903C18.9297 54.4641 19.4759 55.0103 20.1497 55.0103Z" fill="black"/>
<path d="M72.5403 41.7505C73.2141 41.7505 73.7603 41.2043 73.7603 40.5305C73.7603 39.8568 73.2141 39.3105 72.5403 39.3105C71.8665 39.3105 71.3203 39.8568 71.3203 40.5305C71.3203 41.2043 71.8665 41.7505 72.5403 41.7505Z" fill="black"/>
</svg>
