<svg width="23" height="23" viewBox="0 0 23 23" fill="none" xmlns="http://www.w3.org/2000/svg">
<circle cx="11.5" cy="11.5" r="11.5" fill="#1D1D26"/>
<path d="M15.8163 10.25H15.4387V7.75177C15.4378 5.68309 13.7176 4 11.6023 4H11.2812C9.16591 4 7.44487 5.68309 7.44487 7.75177V8.16827H8.94215V7.75177C8.94215 6.49088 9.99108 5.46426 11.2812 5.46426H11.6023C12.8916 5.46426 13.9414 6.49006 13.9414 7.75177V10.25H7.18368C6.52987 10.25 6 10.7682 6 11.4076V16.8424C6 17.4818 6.52987 18 7.18368 18H15.8163C16.4701 18 17 17.4818 17 16.8424V11.4076C17 10.7682 16.4701 10.25 15.8163 10.25ZM12.0856 14.4361V15.3456C12.0856 15.6621 11.8236 15.9183 11.5 15.9183C11.1764 15.9183 10.9144 15.6621 10.9144 15.3456V14.4361C10.6391 14.2531 10.4586 13.944 10.4586 13.5942C10.4586 13.0321 10.9252 12.5757 11.5 12.5757C12.0748 12.5757 12.5414 13.0321 12.5414 13.5942C12.5414 13.944 12.3609 14.2531 12.0856 14.4361Z" fill="#BFBFBF"/>
</svg>
