<svg width="113" height="72" viewBox="0 0 113 72" fill="none" xmlns="http://www.w3.org/2000/svg">
<path fill-rule="evenodd" clip-rule="evenodd" d="M59.0099 39.8866C59.1336 39.0336 59.3345 38.209 59.6052 37.4182C54.9906 34.5036 52.2761 29.2374 53.0841 23.6632C54.1218 16.5049 60.6052 11.3442 67.9969 11.4532C69.9129 4.66738 76.8729 0.144391 84.3675 1.13626C90.8132 1.9893 95.7179 6.66527 96.9096 12.4283C97.5169 12.437 98.1303 12.4812 98.7474 12.5629C106.872 13.6382 112.549 20.788 111.426 28.5323C110.808 32.7968 108.257 36.3523 104.733 38.507C105.44 40.3585 105.697 42.3965 105.394 44.4835C104.763 48.8384 101.848 52.3557 97.9611 54.0896L101.335 65.1805L103.492 65.1421C104.613 65.1221 105.532 66.0251 105.532 67.1459C105.532 68.2528 104.635 69.1501 103.528 69.1501H91.6229C90.8966 69.1501 90.2591 68.6668 90.063 67.9675L89.4624 65.8255L85.7148 53.5077C85.0443 53.1274 84.4147 52.6926 83.8318 52.2106C82.7467 53.17 81.5149 53.9728 80.1785 54.5883L80.4163 67.2588H80.2524L80.2867 67.4838C80.422 68.3734 79.7556 69.1839 78.8565 69.2228L67.3943 69.7196C66.2552 69.7689 65.3047 68.8587 65.3047 67.7185C65.3047 66.6321 66.1708 65.7438 67.2568 65.7163L68.3175 65.6894L68.1158 54.9434C61.9727 52.5583 58.0607 46.435 59.0099 39.8866Z" fill="#363841"/>
<path d="M59.6052 37.4182L60.0858 36.6573C60.4382 36.8799 60.5917 37.3153 60.4567 37.7097L59.6052 37.4182ZM59.0099 39.8866L58.1192 39.7575V39.7575L59.0099 39.8866ZM53.0841 23.6632L52.1934 23.5341L53.0841 23.6632ZM67.9969 11.4532L68.8631 11.6978C68.7523 12.0902 68.3914 12.3591 67.9837 12.3531L67.9969 11.4532ZM84.3675 1.13626L84.4856 0.244037L84.3675 1.13626ZM96.9096 12.4283L96.8966 13.3282C96.4747 13.3221 96.1136 13.0237 96.0282 12.6105L96.9096 12.4283ZM98.7474 12.5629L98.6293 13.4551L98.7474 12.5629ZM111.426 28.5323L112.317 28.6614L111.426 28.5323ZM104.733 38.507L103.892 38.8281C103.738 38.423 103.894 37.9653 104.264 37.7392L104.733 38.507ZM105.394 44.4835L106.285 44.6126L105.394 44.4835ZM97.9611 54.0896L97.1001 54.3515C96.968 53.9173 97.1799 53.4526 97.5945 53.2676L97.9611 54.0896ZM101.335 65.1805L101.351 66.0803C100.949 66.0875 100.591 65.8271 100.474 65.4425L101.335 65.1805ZM103.492 65.1421L103.476 64.2422H103.476L103.492 65.1421ZM90.063 67.9675L90.9296 67.7245V67.7245L90.063 67.9675ZM89.4624 65.8255L90.3234 65.5636C90.3253 65.5699 90.3272 65.5762 90.3289 65.5825L89.4624 65.8255ZM85.7148 53.5077L86.1588 52.7249C86.3594 52.8386 86.5087 53.0251 86.5758 53.2457L85.7148 53.5077ZM83.8318 52.2106L83.2356 51.5364C83.5676 51.2429 84.0638 51.2347 84.4053 51.517L83.8318 52.2106ZM80.1785 54.5883L79.2786 54.6052C79.2719 54.2478 79.4773 53.9204 79.802 53.7708L80.1785 54.5883ZM80.4163 67.2588L81.3161 67.2419C81.3207 67.4835 81.2279 67.7167 81.0586 67.8892C80.8894 68.0616 80.6579 68.1588 80.4163 68.1588V67.2588ZM80.2524 67.2588L79.3627 67.3942C79.3232 67.1348 79.3989 66.8711 79.5698 66.6722C79.7408 66.4732 79.9901 66.3588 80.2524 66.3588V67.2588ZM80.2867 67.4838L79.3969 67.6192V67.6192L80.2867 67.4838ZM78.8565 69.2228L78.8955 70.122L78.8565 69.2228ZM67.3943 69.7196L67.3553 68.8204H67.3553L67.3943 69.7196ZM67.2568 65.7163L67.2796 66.616H67.2796L67.2568 65.7163ZM68.3175 65.6894L69.2173 65.6725C69.2266 66.1671 68.8349 66.5765 68.3403 66.5891L68.3175 65.6894ZM68.1158 54.9434L68.4416 54.1045C68.782 54.2366 69.0088 54.5614 69.0156 54.9265L68.1158 54.9434ZM60.4567 37.7097C60.204 38.4481 60.0162 39.2184 59.9006 40.0157L58.1192 39.7575C58.2509 38.8488 58.4651 37.9699 58.7537 37.1268L60.4567 37.7097ZM53.9748 23.7923C53.2218 28.9867 55.7467 33.9166 60.0858 36.6573L59.1246 38.1791C54.2345 35.0905 51.3303 29.4881 52.1934 23.5341L53.9748 23.7923ZM67.9837 12.3531C61.0051 12.2502 54.9422 17.1192 53.9748 23.7923L52.1934 23.5341C53.3014 15.8907 60.2053 10.4382 68.0102 10.5533L67.9837 12.3531ZM84.2494 2.02848C77.1737 1.09204 70.6509 5.36586 68.8631 11.6978L67.1308 11.2086C69.1749 3.9689 76.5721 -0.803261 84.4856 0.244037L84.2494 2.02848ZM96.0282 12.6105C94.9165 7.23399 90.3274 2.83286 84.2494 2.02848L84.4856 0.244037C91.2989 1.14575 96.5193 6.09655 97.7909 12.246L96.0282 12.6105ZM98.6293 13.4551C98.0472 13.3781 97.4689 13.3364 96.8966 13.3282L96.9225 11.5284C97.5648 11.5376 98.2134 11.5844 98.8655 11.6707L98.6293 13.4551ZM110.536 28.4032C111.581 21.1942 106.297 14.47 98.6293 13.4551L98.8655 11.6707C107.447 12.8065 113.517 20.3817 112.317 28.6614L110.536 28.4032ZM104.264 37.7392C107.578 35.7125 109.959 32.3815 110.536 28.4032L112.317 28.6614C111.657 33.212 108.936 36.992 105.202 39.2749L104.264 37.7392ZM104.504 44.3543C104.784 42.4237 104.546 40.5405 103.892 38.8281L105.574 38.1859C106.334 40.1765 106.61 42.3693 106.285 44.6126L104.504 44.3543ZM97.5945 53.2676C101.225 51.6481 103.921 48.377 104.504 44.3543L106.285 44.6126C105.606 49.2998 102.471 53.0633 98.3278 54.9115L97.5945 53.2676ZM100.474 65.4425L97.1001 54.3515L98.8222 53.8276L102.196 64.9185L100.474 65.4425ZM103.508 66.0419L101.351 66.0803L101.319 64.2806L103.476 64.2422L103.508 66.0419ZM104.632 67.1459C104.632 66.5284 104.126 66.0309 103.508 66.0419L103.476 64.2422C105.1 64.2133 106.432 65.5218 106.432 67.1459H104.632ZM103.528 68.2501C104.138 68.2501 104.632 67.7557 104.632 67.1459H106.432C106.432 68.7498 105.132 70.0501 103.528 70.0501V68.2501ZM91.6229 68.2501H103.528V70.0501H91.6229V68.2501ZM90.9296 67.7245C91.0167 68.0353 91.3001 68.2501 91.6229 68.2501V70.0501C90.4931 70.0501 89.5015 69.2983 89.1964 68.2105L90.9296 67.7245ZM90.3289 65.5825L90.9296 67.7245L89.1964 68.2105L88.5958 66.0686L90.3289 65.5825ZM86.5758 53.2457L90.3234 65.5636L88.6013 66.0875L84.8537 53.7697L86.5758 53.2457ZM84.4053 51.517C84.9478 51.9656 85.5341 52.3705 86.1588 52.7249L85.2707 54.2905C84.5545 53.8843 83.8816 53.4197 83.2583 52.9042L84.4053 51.517ZM79.802 53.7708C81.0593 53.1917 82.2171 52.437 83.2356 51.5364L84.428 52.8849C83.2764 53.9031 81.9704 54.7538 80.555 55.4058L79.802 53.7708ZM79.5164 67.2757L79.2786 54.6052L81.0783 54.5714L81.3161 67.2419L79.5164 67.2757ZM80.2524 66.3588H80.4163V68.1588H80.2524V66.3588ZM81.1422 67.1234L81.1764 67.3484L79.3969 67.6192L79.3627 67.3942L81.1422 67.1234ZM81.1764 67.3484C81.3923 68.7673 80.3294 70.0598 78.8955 70.122L78.8175 68.3237C79.1818 68.3079 79.4517 67.9796 79.3969 67.6192L81.1764 67.3484ZM78.8955 70.122L67.4333 70.6187L67.3553 68.8204L78.8175 68.3237L78.8955 70.122ZM67.4333 70.6187C65.7823 70.6903 64.4047 69.3711 64.4047 67.7185H66.2047C66.2047 68.3464 66.7281 68.8476 67.3553 68.8204L67.4333 70.6187ZM64.4047 67.7185C64.4047 66.144 65.6599 64.8565 67.234 64.8166L67.2796 66.616C66.6816 66.6312 66.2047 67.1203 66.2047 67.7185H64.4047ZM67.234 64.8166L68.2947 64.7897L68.3403 66.5891L67.2796 66.616L67.234 64.8166ZM69.0156 54.9265L69.2173 65.6725L67.4176 65.7063L67.216 54.9603L69.0156 54.9265ZM59.9006 40.0157C59.0164 46.115 62.6561 51.8582 68.4416 54.1045L67.7901 55.7824C61.2893 53.2584 57.1049 46.755 58.1192 39.7575L59.9006 40.0157Z" fill="#363841"/>
<path d="M89.2881 53.827C87.6188 53.6112 86.2129 53.2849 84.7977 52.6777C83.1729 54.635 80.0458 56.5907 77.1087 56.802" stroke="#2C2E36" stroke-width="1.8" stroke-linecap="round"/>
<path d="M85.4703 56.3065L87.3496 54.0331L84.5571 53.3887L85.4703 56.3065Z" fill="#2C2E36"/>
<ellipse cx="4.97523" cy="8.04942" rx="4.97523" ry="8.04942" transform="matrix(-1 0 0 1 78.6826 17.5645)" fill="#B9B9B9" stroke="#B9B9B9" stroke-width="1.8"/>
<ellipse cx="4.97523" cy="8.04942" rx="4.97523" ry="8.04942" transform="matrix(-1 0 0 1 87.3496 17.5645)" fill="#B9B9B9" stroke="#B9B9B9" stroke-width="1.8"/>
<path d="M73.1818 30.8301C72.1908 30.8524 71.3049 30.2267 70.6803 29.3149C70.0506 28.3955 69.6438 27.1329 69.611 25.7345C69.5781 24.3364 69.9244 23.0369 70.5076 22.0701C71.0846 21.1137 71.9389 20.419 72.9366 20.3965C73.9366 20.3739 74.7913 21.0218 75.3812 21.9456C75.9756 22.8767 76.3466 24.1475 76.3793 25.5384C76.412 26.9292 76.1011 28.2154 75.551 29.1723C75.0051 30.1218 74.1818 30.8075 73.1818 30.8301Z" fill="#1D1D26" stroke="#1D1D26" stroke-width="0.8"/>
<path d="M81.9669 30.8301C80.976 30.8524 80.09 30.2267 79.4655 29.3149C78.8357 28.3955 78.429 27.1329 78.3961 25.7345C78.3633 24.3364 78.7096 23.0369 79.2928 22.0701C79.8698 21.1137 80.724 20.419 81.7218 20.3965C82.7218 20.3739 83.5765 21.0218 84.1663 21.9456C84.7608 22.8767 85.1318 24.1475 85.1645 25.5384C85.1971 26.9292 84.8862 28.2154 84.3361 29.1723C83.7903 30.1218 82.9669 30.8075 81.9669 30.8301Z" fill="#1D1D26" stroke="#1D1D26" stroke-width="0.8"/>
<path fill-rule="evenodd" clip-rule="evenodd" d="M42.3823 46.792C42.3086 46.2699 42.1999 45.7611 42.0587 45.2674C46.1337 43.0505 48.6092 38.5425 47.9331 33.7514C47.0793 27.7018 41.515 23.427 35.3664 23.9836C33.8855 18.5024 28.424 14.8431 22.5417 15.6427C17.4977 16.3284 13.6594 20.0868 12.7264 24.7189C12.2504 24.7259 11.7696 24.7615 11.2859 24.8272C4.92718 25.6916 0.484661 31.439 1.36323 37.6644C1.76139 40.4857 3.18408 42.921 5.21274 44.6603C4.33078 46.4037 3.95544 48.4156 4.24784 50.4875C4.82834 54.6008 7.87613 57.7845 11.7263 58.8054L9.26226 67.1244L7.60983 67.0942C6.7089 67.0777 5.9697 67.8035 5.9697 68.7046C5.9697 69.5941 6.69083 70.3153 7.58038 70.3153H16.849C17.4202 70.3153 17.9209 69.933 18.0713 69.3819L18.45 67.9949L22.064 55.7937C23.1042 56.9724 24.3827 57.932 25.8145 58.6096L25.6284 68.7945H25.7587L25.7258 69.0168C25.623 69.7107 26.143 70.3413 26.8439 70.3725L35.7758 70.7701C36.692 70.8109 37.457 70.0791 37.457 69.1621C37.457 68.2894 36.7617 67.5757 35.8893 67.553L35.0971 67.5324L35.2549 58.896C40.0631 56.979 43.1252 52.0564 42.3823 46.792Z" fill="#363841"/>
<path d="M42.0587 45.2674L41.6286 44.4769C41.2583 44.6783 41.0775 45.1097 41.1934 45.5149L42.0587 45.2674ZM42.3823 46.792L43.2735 46.6662V46.6662L42.3823 46.792ZM47.9331 33.7514L47.0419 33.8772L47.9331 33.7514ZM35.3664 23.9836L34.4975 24.2183C34.6115 24.6403 35.0122 24.9193 35.4475 24.8799L35.3664 23.9836ZM22.5417 15.6427L22.663 16.5345L22.5417 15.6427ZM12.7264 24.7189L12.7395 25.6188C13.1631 25.6127 13.525 25.3119 13.6087 24.8966L12.7264 24.7189ZM11.2859 24.8272L11.1646 23.9354H11.1646L11.2859 24.8272ZM1.36323 37.6644L0.472065 37.7902L1.36323 37.6644ZM5.21274 44.6603L6.01583 45.0665C6.20294 44.6966 6.11322 44.2468 5.79853 43.977L5.21274 44.6603ZM4.24784 50.4875L3.35667 50.6133L4.24784 50.4875ZM11.7263 58.8054L12.5893 59.061C12.6583 58.8278 12.6301 58.5766 12.511 58.3646C12.3919 58.1526 12.192 57.9978 11.957 57.9355L11.7263 58.8054ZM9.26226 67.1244L9.2458 68.0243C9.65044 68.0317 10.0103 67.7681 10.1252 67.38L9.26226 67.1244ZM7.60983 67.0942L7.62629 66.1943H7.62628L7.60983 67.0942ZM18.0713 69.3819L18.9396 69.6189L18.0713 69.3819ZM18.45 67.9949L17.5871 67.7393C17.5852 67.7454 17.5835 67.7516 17.5818 67.7578L18.45 67.9949ZM22.064 55.7937L22.7388 55.1981C22.5222 54.9527 22.1894 54.8442 21.8697 54.9149C21.5501 54.9855 21.294 55.2242 21.201 55.5381L22.064 55.7937ZM25.8145 58.6096L26.7144 58.626C26.7208 58.2722 26.5194 57.9475 26.1995 57.7961L25.8145 58.6096ZM25.6284 68.7945L24.7286 68.7781C24.7242 69.0196 24.817 69.2527 24.9862 69.4251C25.1555 69.5974 25.3869 69.6945 25.6284 69.6945V68.7945ZM25.7587 68.7945L26.649 68.9264C26.6873 68.6675 26.6111 68.4048 26.4401 68.2066C26.2692 68.0085 26.0204 67.8945 25.7587 67.8945V68.7945ZM25.7258 69.0168L24.8355 68.8849L25.7258 69.0168ZM26.8439 70.3725L26.8839 69.4734L26.8439 70.3725ZM35.7758 70.7701L35.7358 71.6692H35.7358L35.7758 70.7701ZM35.8893 67.553L35.9128 66.6533H35.9128L35.8893 67.553ZM35.0971 67.5324L34.1972 67.5159C34.1882 68.0102 34.5795 68.4192 35.0736 68.4321L35.0971 67.5324ZM35.2549 58.896L34.9215 58.06C34.5849 58.1942 34.3616 58.5172 34.355 58.8796L35.2549 58.896ZM41.1934 45.5149C41.3232 45.9688 41.4233 46.437 41.4911 46.9177L43.2735 46.6662C43.194 46.1029 43.0765 45.5534 42.924 45.02L41.1934 45.5149ZM47.0419 33.8772C47.6627 38.2762 45.3923 42.4293 41.6286 44.4769L42.4888 46.058C46.8752 43.6717 49.5557 38.8088 48.8242 33.6256L47.0419 33.8772ZM35.4475 24.8799C41.137 24.3649 46.2577 28.3207 47.0419 33.8772L48.8242 33.6256C47.9009 27.083 41.893 22.4892 35.2853 23.0872L35.4475 24.8799ZM22.663 16.5345C28.1052 15.7947 33.1368 19.1818 34.4975 24.2183L36.2352 23.7488C34.6343 17.823 28.7429 13.8915 22.4205 14.7509L22.663 16.5345ZM13.6087 24.8966C14.4662 20.639 18.0001 17.1684 22.663 16.5345L22.4205 14.7509C16.9952 15.4884 12.8525 19.5345 11.8441 24.5412L13.6087 24.8966ZM11.4071 25.719C11.8548 25.6582 12.2996 25.6252 12.7395 25.6188L12.7133 23.819C12.2012 23.8265 11.6843 23.8648 11.1646 23.9354L11.4071 25.719ZM2.2544 37.5387C1.44797 31.8245 5.52527 26.5186 11.4071 25.719L11.1646 23.9354C4.32909 24.8646 -0.478652 31.0536 0.472065 37.7902L2.2544 37.5387ZM5.79853 43.977C3.9276 42.373 2.62044 40.1324 2.2544 37.5387L0.472065 37.7902C0.902346 40.8391 2.44055 43.469 4.62695 45.3435L5.79853 43.977ZM5.13901 50.3617C4.87324 48.4785 5.2139 46.6518 6.01583 45.0665L4.40965 44.254C3.44766 46.1557 3.03765 48.3527 3.35667 50.6133L5.13901 50.3617ZM11.957 57.9355C8.43508 57.0016 5.66591 54.0953 5.13901 50.3617L3.35667 50.6133C3.99076 55.1063 7.31719 58.5674 11.4957 59.6753L11.957 57.9355ZM10.1252 67.38L12.5893 59.061L10.8634 58.5498L8.39931 66.8688L10.1252 67.38ZM7.59337 67.994L9.2458 68.0243L9.27871 66.2246L7.62629 66.1943L7.59337 67.994ZM6.8697 68.7046C6.8697 68.307 7.19586 67.9868 7.59337 67.994L7.62628 66.1943C6.22195 66.1687 5.0697 67.3 5.0697 68.7046H6.8697ZM7.58038 69.4153C7.18788 69.4153 6.8697 69.0971 6.8697 68.7046H5.0697C5.0697 70.0912 6.19377 71.2153 7.58038 71.2153V69.4153ZM16.849 69.4153H7.58038V71.2153H16.849V69.4153ZM17.2031 69.1449C17.1595 69.3045 17.0145 69.4153 16.849 69.4153V71.2153C17.826 71.2153 18.6822 70.5615 18.9396 69.6189L17.2031 69.1449ZM17.5818 67.7578L17.2031 69.1449L18.9396 69.6189L19.3182 68.2319L17.5818 67.7578ZM21.201 55.5381L17.5871 67.7393L19.313 68.2505L22.9269 56.0493L21.201 55.5381ZM26.1995 57.7961C24.8771 57.1703 23.6975 56.2845 22.7388 55.1981L21.3892 56.3892C22.5109 57.6603 23.8883 58.6937 25.4295 59.4231L26.1995 57.7961ZM26.5283 68.811L26.7144 58.626L24.9147 58.5932L24.7286 68.7781L26.5283 68.811ZM25.7587 67.8945H25.6284V69.6945H25.7587V67.8945ZM24.8684 68.6626L24.8355 68.8849L26.6161 69.1487L26.649 68.9264L24.8684 68.6626ZM24.8355 68.8849C24.6545 70.1066 25.57 71.2167 26.8038 71.2716L26.8839 69.4734C26.716 69.4659 26.5914 69.3149 26.6161 69.1487L24.8355 68.8849ZM26.8038 71.2716L35.7358 71.6692L35.8158 69.871L26.8839 69.4734L26.8038 71.2716ZM35.7358 71.6692C37.1642 71.7328 38.357 70.5919 38.357 69.1621H36.557C36.557 69.5664 36.2197 69.889 35.8158 69.871L35.7358 71.6692ZM38.357 69.1621C38.357 67.8015 37.2729 66.6887 35.9128 66.6533L35.8659 68.4527C36.2505 68.4627 36.557 68.7774 36.557 69.1621H38.357ZM35.9128 66.6533L35.1205 66.6327L35.0736 68.4321L35.8659 68.4527L35.9128 66.6533ZM34.355 58.8796L34.1972 67.5159L35.9969 67.5488L36.1547 58.9125L34.355 58.8796ZM41.4911 46.9177C42.1732 51.7508 39.3639 56.2889 34.9215 58.06L35.5882 59.732C40.7623 57.6691 44.0773 52.362 43.2735 46.6662L41.4911 46.9177Z" fill="#363841"/>
<rect width="10.4938" height="25.4653" rx="5.2469" transform="matrix(0.463633 0.886027 -0.893867 0.448331 62.9648 42.2676)" fill="#B9B9B9"/>
<path d="M60.2009 45.959C59.808 47.8907 60.5952 50.5951 62.9483 51.7549" stroke="#1D1D26" stroke-width="1.5" stroke-linecap="round"/>
<path d="M18.6865 58.4665C19.9929 58.2993 21.0932 58.0465 22.2007 57.5762C23.4723 59.0924 25.9196 60.6074 28.2182 60.771" stroke="#2C2E36" stroke-width="1.8" stroke-linecap="round"/>
<path d="M21.7351 60.7711L20.332 59.0172L22.4087 58.5312L21.7351 60.7711Z" fill="#2C2E36"/>
<ellipse cx="30.8819" cy="36.6066" rx="3.89366" ry="6.23547" fill="#B9B9B9" stroke="#B9B9B9" stroke-width="1.8"/>
<ellipse cx="24.0978" cy="36.6066" rx="3.89366" ry="6.23547" fill="#B9B9B9" stroke="#B9B9B9" stroke-width="1.8"/>
<path d="M24.9959 40.7898C25.8756 40.7898 26.4603 40.1912 26.8013 39.4307C27.1405 38.6743 27.2886 37.6701 27.2886 36.6074C27.2886 35.5447 27.1405 34.5405 26.8013 33.7841C26.4603 33.0236 25.8756 32.425 24.9959 32.425C24.1491 32.425 23.4548 32.9837 22.9958 33.7332C22.5321 34.4902 22.26 35.5075 22.26 36.6074C22.26 37.7073 22.5321 38.7246 22.9958 39.4816C23.4548 40.2311 24.1491 40.7898 24.9959 40.7898Z" fill="#1D1D26" stroke="#1D1D26" stroke-width="0.9"/>
<path d="M31.8479 40.7898C32.7185 40.7898 33.3309 40.2024 33.7015 39.4442C34.0718 38.6868 34.2497 37.6794 34.2497 36.6074C34.2497 35.5354 34.0718 34.528 33.7015 33.7706C33.3309 33.0124 32.7185 32.425 31.8479 32.425C31.0031 32.425 30.3242 32.9676 29.8795 33.7095C29.4326 34.4551 29.1799 35.4585 29.1799 36.5528C29.1799 37.6469 29.4324 38.6742 29.8754 39.4438C30.3133 40.2045 30.9902 40.7898 31.8479 40.7898Z" fill="#1D1D26" stroke="#1D1D26" stroke-width="0.9"/>
</svg>
