<svg width="82" height="37" viewBox="0 0 82 37" fill="none" xmlns="http://www.w3.org/2000/svg">
<path d="M0 31.3472L0.790634 6.80903L51.0523 0V10.1493L81.5482 5.65278L82 30.0625L37.2727 37L50.1488 24.7951L0 31.3472Z" fill="#8A8A8A"/>
<path d="M6.12924 20.0837L6.22943 18.5853L19.0976 16.7389L18.8699 20.0942L10.1195 21.3498L10.0848 21.7488L18.9639 20.4747L18.8711 22.0246L5.8742 23.8895L6.10373 20.4551L14.8541 19.1995L14.8796 18.8281L6.12924 20.0837ZM9.75413 16.149L9.08953 17.6496L6.00116 18.0927L7.30486 15.4629L6.41695 15.5903L6.58813 12.9391L8.14519 12.7157L8.20169 11.9196L11.9335 11.3841L11.877 12.1802L13.4469 11.955L13.2757 14.6062L12.3621 14.7372L13.3103 17.044L10.2219 17.4871L9.75413 16.149ZM19.4838 10.8261L19.1267 16.2094L16.4244 16.5971L16.5155 15.3101L16.1295 15.3655L16.0384 16.6525L13.336 17.0403L13.6931 11.657L16.3954 11.2692L16.3007 12.7143L16.6867 12.6589L16.7814 11.2138L19.4838 10.8261Z" fill="#31333C"/>
<path d="M20.4534 12.4599L20.5645 10.671L28.9288 9.47086L28.6648 13.58L23.9807 14.2521L23.9388 14.7835L28.6228 14.1114L28.5007 15.915L20.1364 17.1152L20.4115 12.9913L25.0955 12.3192L25.1375 11.7878L20.4534 12.4599ZM23.8391 17.1092L23.7152 18.8999L32.9031 17.5816L32.7428 20.0342L19.8231 21.888L20.1073 17.6447L23.8391 17.1092ZM33.3555 8.83569L32.8035 17.0706L29.0717 17.606L29.6237 9.37115L33.3555 8.83569Z" fill="#31333C"/>
<path d="M42.9292 7.46199L42.7399 10.4441L41.2729 10.6546L42.3037 18.6624L38.7521 19.172L38.2951 14.5228L37.2079 19.3936L33.6691 19.9013L35.791 11.4412L34.3241 11.6517L34.5134 8.66954L42.9292 7.46199ZM47.3044 6.83421L46.5631 18.0512L42.8313 18.5867L43.5726 7.36967L47.3044 6.83421Z" fill="#31333C"/>
<path d="M52.7162 28.103L55.0249 19.548L50.4699 20.2894L50.6031 17.3042L58.9433 15.9468L58.8269 18.4683L56.4757 27.4911L52.7162 28.103ZM62.8516 19.486L63.8011 19.3314L63.6551 22.3187L62.7056 22.4732L62.5192 26.5076L58.7982 27.1132L59.3283 15.8842L63.0493 15.2786L62.8516 19.486Z" fill="#31333C"/>
<path d="M72.9035 13.6748L72.7702 16.66L71.3075 16.8981L72.4888 24.885L68.9474 25.4614L68.403 20.8216L67.4077 25.712L63.8791 26.2862L65.8414 17.7877L64.3787 18.0257L64.5119 15.0406L72.9035 13.6748ZM76.7604 17.2223L77.7099 17.0678L77.5639 20.0551L76.6144 20.2096L76.428 24.2439L72.707 24.8495L73.2371 13.6205L76.9581 13.0149L76.7604 17.2223Z" fill="#31333C"/>
</svg>
