<svg width="93" height="93" viewBox="0 0 93 93" fill="none" xmlns="http://www.w3.org/2000/svg">
<path d="M40.4843 11.5335L44.5823 13.4378C46.0036 14.0983 47.6392 14.121 49.0784 13.5003L53.2277 11.7106C55.1856 10.8662 57.4674 11.5117 58.6927 13.2567L61.2895 16.9549C62.1901 18.2375 63.5952 19.075 65.1519 19.257L69.6402 19.7818C71.758 20.0294 73.4113 21.7294 73.6 23.8532L73.9998 28.3544C74.1384 29.9155 74.9365 31.3434 76.1937 32.2793L79.8182 34.9779C81.5285 36.2513 82.1104 38.5501 81.2118 40.4838L79.3075 44.5818C78.647 46.0031 78.6242 47.6387 79.245 49.0778L81.0346 53.2272C81.8791 55.185 81.2336 57.4668 79.4886 58.6921L75.7904 61.2889C74.5077 62.1896 73.6702 63.5947 73.4882 65.1514L72.9634 69.6397C72.7158 71.7575 71.0159 73.4108 68.892 73.5994L64.3909 73.9992C62.8297 74.1379 61.4019 74.936 60.4659 76.1931L57.7673 79.8177C56.494 81.528 54.1951 82.1098 52.2615 81.2113L48.1635 79.3069C46.7422 78.6464 45.1066 78.6237 43.6674 79.2444L39.5181 81.0341C37.5602 81.8786 35.2784 81.233 34.0531 79.488L31.4563 75.7898C30.5557 74.5072 29.1506 73.6697 27.5939 73.4877L23.1056 72.9629C20.9878 72.7153 19.3345 71.0154 19.1458 68.8915L18.746 64.3904C18.6074 62.8292 17.8093 61.4014 16.5521 60.4654L12.9276 57.7668C11.2173 56.4934 10.6354 54.1946 11.534 52.261L13.4383 48.163C14.0988 46.7416 14.1216 45.106 13.5008 43.6669L11.7112 39.5176C10.8667 37.5597 11.5122 35.2779 13.2572 34.0526L16.9554 31.4558C18.2381 30.5551 19.0756 29.15 19.2576 27.5933L19.7824 23.1051C20.03 20.9872 21.7299 19.3339 23.8538 19.1453L28.3549 18.7455C29.9161 18.6068 31.3439 17.8087 32.2799 16.5516L34.9785 12.927C36.2518 11.2167 38.5506 10.6349 40.4843 11.5335Z" fill="#0EE6F3" stroke="black"/>
<mask id="mask0_5757_54050" style="mask-type:alpha" maskUnits="userSpaceOnUse" x="18" y="18" width="57" height="57">
<circle cx="46.3731" cy="46.3704" r="27.0687" transform="rotate(-14.2035 46.3731 46.3704)" stroke="black" stroke-width="2"/>
</mask>
<g mask="url(#mask0_5757_54050)">
<rect x="12.2754" y="26.0469" width="56.1373" height="24.7004" transform="rotate(-14.2035 12.2754 26.0469)" fill="black"/>
<rect x="19.1641" y="53.2578" width="56.1373" height="2.24549" transform="rotate(-14.2035 19.1641 53.2578)" fill="black"/>
<rect width="56.1373" height="23.5777" transform="matrix(0.96943 -0.245367 -0.245367 -0.96943 26.3242 81.5566)" fill="black"/>
</g>
<path d="M43.3589 31.6437L43.8702 33.5287L41.2764 34.2323C41.7065 35.3703 42.8488 36.3881 45.1997 36.3413L44.6171 38.4906C42.9636 38.5425 41.7125 38.0481 40.8091 37.2246C40.5045 38.4891 39.6992 39.6384 38.2091 40.4717L36.575 38.9236C38.6308 37.7588 39.0927 36.2089 38.8485 34.8909L36.2699 35.5904L35.7585 33.7053L38.3523 33.0018L38.0046 31.72L40.4325 31.0614L40.7802 32.3432L43.3589 31.6437ZM40.6519 45.8963L39.2489 40.7239L48.5533 38.2L49.9563 43.3725L40.6519 45.8963ZM42.511 43.3198L47.0501 42.0886L46.6902 40.7615L42.1511 41.9927L42.511 43.3198ZM45.9823 38.3308L43.7775 30.2026L46.2054 29.5441L47.0521 32.6657L48.7863 32.1952L49.314 34.1406L47.5798 34.611L48.4101 37.6722L45.9823 38.3308ZM34.7495 51.7593L35.0982 53.0449L33.3876 53.5089C33.7644 54.2415 34.5531 54.8512 36.0096 54.8456L35.5883 56.3289C34.4577 56.3462 33.5863 55.9649 32.9592 55.3559C32.7577 56.2954 32.1974 57.143 31.1319 57.7492L29.9717 56.6726C31.3022 55.8944 31.6677 54.8825 31.5992 53.994L29.8419 54.4707L29.4932 53.1851L34.7495 51.7593ZM32.9265 62.0263L32.1841 59.2892L37.0361 57.9731L36.9545 57.6724L32.1025 58.9886L31.7678 57.7548L38.2787 55.9888L39.007 58.6739L34.1446 59.9929L34.2374 60.335L39.3279 58.9542L39.6654 60.1983L32.9265 62.0263ZM36.5223 56.1201L35.1921 51.2163L36.8613 50.7635L37.3422 52.5364L38.5345 52.213L38.8944 53.54L37.7022 53.8634L38.1915 55.6674L36.5223 56.1201ZM47.1468 47.9958L48.7414 53.8742L47.1655 54.3017L46.5665 52.0934L46.1414 52.2087L46.7179 54.334L45.1732 54.753L43.6321 49.0716L45.1768 48.6526L45.7815 50.8816L46.2065 50.7663L45.571 48.4233L47.1468 47.9958ZM39.369 52.3539L39.0175 51.0579L40.4793 50.6614L40.2768 49.915L41.9253 49.4678L42.1278 50.2143L43.5896 49.8178L43.9411 51.1137L39.369 52.3539ZM40.0957 54.1714C39.8192 53.1723 40.5276 52.2344 41.7184 51.9058C42.9432 51.5792 44.0232 52.0319 44.305 53.0296C44.5618 54.0173 43.8628 54.9694 42.6408 55.3064C41.4472 55.6246 40.3577 55.1577 40.0957 54.1714ZM41.573 58.3452C42.7478 57.6704 42.9747 56.7629 42.7577 55.9425L42.7296 55.8388L44.378 55.3917L44.4062 55.4954C44.5697 56.1188 44.9811 56.6917 45.758 56.9707C46.2884 56.3204 46.3718 55.6022 46.2205 55.0032L46.1924 54.8995L47.8512 54.4496L47.8793 54.5533C48.1075 55.4152 48.7345 56.0854 50.1055 56.0308L49.6805 57.4595C48.7148 57.4487 48.0044 57.1071 47.4955 56.544C47.3592 57.2933 46.9654 57.9956 46.194 58.5165C45.2561 58.4648 44.567 58.0785 44.0765 57.5215C43.9016 58.2311 43.4636 58.8731 42.672 59.3605L41.573 58.3452ZM41.5679 53.772C41.6687 54.1231 41.9588 54.2281 42.3202 54.1245C42.6949 54.0284 42.8921 53.7913 42.8017 53.4374C42.6967 53.0707 42.4043 52.9775 42.039 53.0877C41.6733 53.1758 41.4733 53.4026 41.5679 53.772ZM51.3646 47.5196C52.6435 47.1671 53.9017 47.9277 54.5839 49.5402L55.9421 49.1718L55.0366 45.8335L56.685 45.3863L59.2947 55.0074L57.6463 55.4545L56.3021 50.4989L54.9698 50.8602C55.2805 52.7238 54.573 54.0955 53.2459 54.4555C51.7634 54.8576 50.3341 53.815 49.7506 51.6638C49.1755 49.5436 49.8806 47.9165 51.3646 47.5196ZM51.3472 51.2307C51.7076 52.5799 52.2637 53.0913 52.8325 52.9314C53.4197 52.7777 53.6152 52.0624 53.2548 50.7132C52.8897 49.3876 52.3567 48.8588 51.7723 49.0229C51.2007 49.1724 50.9821 49.905 51.3472 51.2307ZM68.8751 49.8042L69.2407 51.152L60.4801 53.5283L60.1145 52.1805L61.9288 51.6884L61.3298 49.4801C60.5167 49.2109 59.9192 48.6495 59.6994 47.8187C59.2639 46.2339 60.5336 44.7598 62.6448 44.1927C64.7325 43.6208 66.599 44.2443 67.0292 45.8305C67.2514 46.6495 67.0233 47.4293 66.4679 48.0697L67.0711 50.2935L68.8751 49.8042ZM61.3478 47.3716C61.5775 48.2387 62.4768 48.5179 63.7275 48.1842C64.9495 47.8471 65.6052 47.1461 65.3808 46.2776C65.13 45.394 64.2183 45.1516 62.9963 45.4886C61.7457 45.8223 61.1022 46.4866 61.3478 47.3716ZM63.5773 51.2412L65.402 50.7463L64.9661 49.1393C64.6884 49.2647 64.3896 49.3736 64.0734 49.4594C63.7572 49.5451 63.4443 49.6022 63.1414 49.6343L63.5773 51.2412Z" fill="black"/>
</svg>
