<svg width="189" height="29" viewBox="0 0 189 29" fill="none" xmlns="http://www.w3.org/2000/svg">
<path d="M1.45 18.08V28.4H24.25V0.019999H19.75V5.36H16V9.41H19.75V18.08H1.45ZM15.1 4.07V0.169999H0.25V4.07H9.19L0.25 10.88V15.65L7.78 9.77L15.28 15.68V10.91L10.72 7.49L15.1 4.07ZM5.83 21.98H19.84V24.47H5.83V21.98ZM30.3088 28.4H53.0488V0.019999H48.8188V5.15H42.4888V9.02H48.8188V17.87H30.3088V28.4ZM28.2988 4.22H36.1588L34.2688 15.11H38.7988L40.6888 4.22V0.169999H28.2988V4.22ZM34.5388 21.53H48.8188V24.74H34.5388V21.53ZM74.327 0.169999C71.147 0.169999 67.337 2.33 67.337 6.02V8.18C67.337 11.36 70.517 13.94 74.477 13.94C78.407 13.94 81.827 11.36 81.827 8.18V5.93C81.827 2.75 78.467 0.199998 74.537 0.169999H74.327ZM77.657 7.58C77.657 9.08 76.307 10.28 74.597 10.28C72.917 10.28 71.567 9.08 71.567 7.58V6.77C71.567 5.3 72.917 4.1 74.597 4.1C76.307 4.1 77.657 5.3 77.657 6.77V7.58ZM91.457 23.42V0.019999H87.377V15.53H68.717V18.95H87.377V20.36H68.717V28.4H91.457V24.95H72.797V23.42H91.457ZM102.796 17.72C99.8559 17.72 97.4559 20.12 97.4559 23.06C97.4559 26 99.8559 28.4 102.796 28.4H115.036C118.006 28.4 120.376 26 120.376 23.06C120.376 20.12 118.006 17.72 115.036 17.72H102.796ZM96.2559 0.169999V4.1H104.926L96.2559 10.85V15.62L103.816 9.71L111.016 15.32V10.55L106.876 7.31L111.016 4.1V0.169999H96.2559ZM112.486 5.57V9.65H116.086V15.86H120.256V0.019999H116.086V5.57H112.486ZM115.036 21.77C115.756 21.77 116.326 22.34 116.326 23.06C116.326 23.78 115.756 24.35 115.036 24.35H102.796C102.076 24.35 101.506 23.78 101.506 23.06C101.506 22.34 102.076 21.77 102.796 21.77H115.036ZM140.184 0.169999C137.124 0.169999 134.664 2.24 134.664 4.79V11.18C134.664 13.73 137.124 15.8 140.184 15.8H144.954C147.984 15.8 150.444 13.73 150.444 11.18V4.79C150.444 2.24 147.984 0.169999 144.954 0.169999H140.184ZM140.214 19.34H135.954V28.37H157.854V11.39H160.914V7.31H157.854V0.019999H153.834V24.77H140.214V19.34ZM146.184 9.71C146.184 11.09 145.254 11.87 143.754 11.87H141.384C139.884 11.87 138.954 11.09 138.954 9.71V6.26C138.954 4.91 139.884 4.1 141.384 4.1H143.754C145.254 4.1 146.184 4.91 146.184 6.26V9.71ZM177.383 28.4H181.553V13.97H183.833V28.4H188.033V0.019999H183.833V9.98H181.553V0.019999H177.383V28.4ZM167.813 0.139999H163.163V28.28H174.983V24.2H167.813V0.139999Z" fill="white"/>
</svg>
