<svg width="190" height="29" viewBox="0 0 190 29" fill="none" xmlns="http://www.w3.org/2000/svg">
<path d="M17.33 28.25L11.03 0.169999H6.98L0.68 28.25H5.06L8.99 10.04L12.95 28.25H17.33ZM25.25 0.019999H21.08V9.29H16.01V13.37H21.08V28.4H25.25V0.019999ZM45.4688 0.019999H41.2388V9.29H35.5988V0.019999H31.3988V28.4H45.4688V0.019999ZM54.0488 0.019999H49.8188V28.61H54.0488V0.019999ZM35.5988 13.88H41.2388V24.32H35.5988V13.88ZM58.0977 24.47V28.4H83.8977V24.47H58.0977ZM82.8777 18.86L73.8477 0.11H68.1477L59.1177 18.86H64.3677L70.9977 5.66L77.6277 18.86H82.8777ZM98.4559 18.08V28.4H121.256V0.019999H116.756V5.36H113.006V9.41H116.756V18.08H98.4559ZM112.106 4.07V0.169999H97.2559V4.07H106.196L97.2559 10.88V15.65L104.786 9.77L112.286 15.68V10.91L107.726 7.49L112.106 4.07ZM102.836 21.98H116.846V24.47H102.836V21.98ZM127.315 28.4H150.055V0.019999H145.825V5.15H139.495V9.02H145.825V17.87H127.315V28.4ZM125.305 4.22H133.165L131.275 15.11H135.805L137.695 4.22V0.169999H125.305V4.22ZM131.545 21.53H145.825V24.74H131.545V21.53ZM164.973 23.33C164.973 26.27 167.373 28.4 170.313 28.4H182.913C185.853 28.4 188.253 26.27 188.253 23.33C188.253 20.39 185.853 18.26 182.913 18.26H178.773V16.55H189.513V12.77H163.713V16.55H174.453V18.26H170.313C167.373 18.26 164.973 20.39 164.973 23.33ZM164.823 7.31V11.3L176.943 7.37L188.403 11.3V7.55L182.613 5.54L188.403 3.65V0.199998H164.823V3.65H176.463L164.823 7.31ZM169.023 23.33C169.023 22.61 169.593 21.95 170.313 21.95H182.913C183.633 21.95 184.203 22.61 184.203 23.33C184.203 24.05 183.633 24.71 182.913 24.71H170.313C169.593 24.71 169.023 24.05 169.023 23.33Z" fill="white"/>
</svg>
