<svg width="122" height="29" viewBox="0 0 122 29" fill="none" xmlns="http://www.w3.org/2000/svg">
<path d="M6.83 19.22H2.51V28.4H25.25V0.019999H20.96V24.35H6.83V19.22ZM0.5 4.22H8.96L7.07 15.41H11.75L13.64 4.22V0.169999H0.5V4.22ZM31.0388 17.09V28.4H53.3588V17.09H49.1588V19.34H35.2388V17.09H31.0388ZM29.2988 11.84V15.56H55.0988V11.84H51.5888L52.8488 4.61V0.169999H31.5488V4.46H48.4688L47.2088 11.84H29.2988ZM49.1588 24.92H35.2388V22.82H49.1588V24.92ZM67.707 12.29V15.59H93.507V12.29H90.147L91.437 4.19V0.169999H69.537V4.19H86.937L85.647 12.29H79.737V6.89H75.357V12.29H67.707ZM74.307 17.66C71.367 17.66 68.967 19.85 68.967 23.03C68.967 26.21 71.367 28.4 74.307 28.4H86.907C89.877 28.4 92.247 26.21 92.247 23.03C92.247 19.85 89.877 17.66 86.907 17.66H74.307ZM86.907 21.44C87.627 21.44 88.197 22.1 88.197 23.03C88.197 23.96 87.627 24.62 86.907 24.62H74.307C73.587 24.62 73.017 23.96 73.017 23.03C73.017 22.1 73.587 21.44 74.307 21.44H86.907ZM112.736 4.25V0.169999H97.2559V4.25H107.756L96.7759 28.28H101.576L106.016 18.74L109.526 28.28H114.296L108.596 13.19L112.736 4.25ZM121.286 0.019999H117.146V28.4H121.286V0.019999Z" fill="white"/>
</svg>
