<svg width="22" height="25" viewBox="0 0 22 25" fill="none" xmlns="http://www.w3.org/2000/svg">
<path d="M1.00008 20.0001H7.41675V21.4584C7.41675 22.3093 7.07873 23.1254 6.47705 23.7271C5.87537 24.3287 5.05932 24.6668 4.20841 24.6668C3.35751 24.6668 2.54146 24.3287 1.93978 23.7271C1.3381 23.1254 1.00008 22.3093 1.00008 21.4584V20.0001ZM5.66675 6.14009C8.00008 6.14009 9.16675 9.50009 9.16675 11.8334C9.16675 13.0001 8.58341 14.1668 8.00008 15.9168L7.41675 17.6668H1.00008C1.00008 16.5001 0.416748 14.7501 0.416748 11.8334C0.416748 8.91676 2.74775 6.14009 5.66675 6.14009ZM19.7297 15.4478L19.4766 16.8839C19.3288 17.722 18.8542 18.467 18.1571 18.9552C17.4601 19.4433 16.5976 19.6345 15.7596 19.4868C14.9215 19.339 14.1765 18.8644 13.6883 18.1673C13.2002 17.4702 13.009 16.6078 13.1567 15.7698L13.4111 14.3348L19.7297 15.4478ZM17.5411 0.989259C20.4157 1.49559 22.2287 4.63392 21.7224 7.50626C21.2161 10.3798 20.3376 12.0014 20.1357 13.1506L13.8159 12.0364L13.5452 10.2118C13.2746 8.38709 12.9036 7.13642 13.1054 5.98842C13.5102 3.69009 15.2427 0.584425 17.5411 0.989259Z" fill="#8A8A8A"/>
</svg>
