<svg width="17" height="18" viewBox="0 0 17 18" fill="none" xmlns="http://www.w3.org/2000/svg">
<path d="M3 6.29788C4.26621 6.29788 5.25 5.24359 5.25 3.99659C5.25 2.7496 4.26621 1.69531 3 1.69531C1.73379 1.69531 0.75 2.7496 0.75 3.99659C0.75 5.24359 1.73379 6.29788 3 6.29788Z" stroke="#B38EFF" stroke-width="1.5"/>
<path d="M14 16.6397C15.2662 16.6397 16.25 15.5854 16.25 14.3384C16.25 13.0914 15.2662 12.0371 14 12.0371C12.7338 12.0371 11.75 13.0914 11.75 14.3384C11.75 15.5854 12.7338 16.6397 14 16.6397Z" stroke="#B38EFF" stroke-width="1.5"/>
<path d="M5 4.51367L13 5.03077L1 15.3726L11.5 14.8556" stroke="#B38EFF" stroke-width="2" stroke-linejoin="round"/>
</svg>
