<svg width="20" height="21" viewBox="0 0 20 21" fill="none" xmlns="http://www.w3.org/2000/svg">
<path d="M16.5841 6.06226C16.61 6.08787 16.6083 6.12803 16.639 6.15132C16.7211 6.27995 16.792 6.41383 16.8605 6.54945C16.913 6.65422 16.9756 6.75434 17.0241 6.86086C17.105 7.03082 17.1735 7.20603 17.2456 7.38007C17.3135 7.5448 17.3708 7.71359 17.4381 7.8789C17.4874 7.98551 17.5296 8.09517 17.5645 8.20719C17.6159 8.40684 17.6655 8.60649 17.7051 8.80963C17.7346 8.96156 17.7641 9.11348 17.7895 9.26657C17.8309 9.54945 17.8722 9.83234 17.8994 10.1176C17.9183 10.3096 17.9378 10.5011 17.9514 10.6932C17.9691 10.9342 17.9785 11.1763 17.9874 11.4185C17.9962 11.6606 17.9974 11.9179 17.9939 12.1676C17.9949 12.3852 17.9839 12.6026 17.9608 12.8189C17.9374 13.1623 17.8862 13.5033 17.8078 13.8387C17.7575 14.0647 17.6725 14.2818 17.5556 14.4825C17.5376 14.5155 17.5105 14.5429 17.4776 14.5616C17.4446 14.5803 17.407 14.5896 17.369 14.5884C16.9473 14.6141 16.525 14.6467 16.1027 14.6798C15.6243 14.7186 15.1455 14.7574 14.6663 14.7963C14.4543 14.8137 14.2416 14.8306 14.0296 14.8545C13.9635 14.862 13.9381 14.8428 13.9203 14.7898C13.8146 14.4796 13.7136 14.1682 13.5973 13.8585C13.4201 13.3929 13.1909 12.9493 12.8371 12.578C12.6497 12.3894 12.4764 12.1876 12.3186 11.9744C12.0852 11.6337 11.9125 11.2564 11.8077 10.8585C11.6954 10.4293 11.6209 9.99131 11.585 9.54945C11.5371 9.09278 11.5229 8.63329 11.5425 8.1746C11.5738 7.49707 11.676 6.82826 11.9666 6.18507C12.1768 5.71942 12.4739 5.31196 12.9281 5.0122C13.1217 4.89462 13.3316 4.80541 13.5512 4.74736C14.4673 4.46389 15.2481 4.63735 15.9048 5.22815C16.0147 5.3271 16.1116 5.43653 16.2131 5.54246C16.3247 5.66517 16.4249 5.79744 16.5126 5.93769C16.5398 5.97436 16.5835 6.00871 16.5841 6.06226Z" fill="#8A8A8A"/>
<path d="M17.8202 17.3882C17.7895 17.9621 17.666 18.5192 17.3477 19.036C17.1593 19.3539 16.886 19.6147 16.5574 19.7898C16.3239 19.9182 16.0634 19.9914 15.7963 20.0036C15.5292 20.0159 15.2628 19.9668 15.0183 19.8602C14.6267 19.6956 14.3003 19.4094 14.0886 19.0453C13.788 18.5523 13.6829 18.0093 13.6811 17.4394C13.6811 16.8533 13.7992 16.2799 13.9764 15.7112C13.9785 15.6975 13.9833 15.6843 13.9907 15.6724C13.998 15.6605 14.0077 15.6502 14.0191 15.642C14.0306 15.6339 14.0436 15.6281 14.0573 15.625C14.0711 15.6219 14.0853 15.6215 14.0993 15.6239C15.0826 15.628 16.0678 15.5698 17.0524 15.5372C17.2077 15.5325 17.363 15.5302 17.5184 15.5267C17.5532 15.5488 17.6034 15.5034 17.6365 15.5407C17.6696 15.5779 17.6501 15.614 17.6607 15.6489C17.7033 15.8105 17.7351 15.9746 17.7558 16.1402C17.7913 16.3717 17.8142 16.6048 17.8243 16.8387C17.8285 17.0209 17.8184 17.2048 17.8202 17.3882Z" fill="#8A8A8A"/>
<path d="M2.60631 7.68929C2.64569 7.22014 2.7079 6.75449 2.79295 6.29232C2.86815 5.88953 2.95596 5.49003 3.05637 5.09384C3.13846 4.77602 3.22588 4.45938 3.32628 4.14739C3.40602 3.90001 3.49756 3.65728 3.58615 3.41339C3.68892 3.12934 3.8478 2.87498 3.99959 2.61538C4.18032 2.30164 4.36283 1.98964 4.57486 1.69453C4.67054 1.55658 4.77095 1.42096 4.87726 1.28708C4.95759 1.1893 5.04204 1.09326 5.12945 1.00013C5.25015 0.870126 5.37875 0.747467 5.51454 0.632835C5.62369 0.539332 5.73955 0.453736 5.86124 0.376722C6.37803 0.0449404 6.94976 -0.0889316 7.60181 0.061243C8.00789 0.151402 8.3892 0.327578 8.71927 0.577541C8.98395 0.787728 9.19561 1.0555 9.33765 1.35984C9.60579 1.89418 9.69734 2.45298 9.71506 3.0205C9.72647 3.62942 9.66542 4.23757 9.53315 4.83249C9.42796 5.35341 9.28102 5.8653 9.09372 6.36333C8.84277 7.04547 8.3925 7.63911 7.79967 8.06939C7.49604 8.29614 7.23329 8.57162 7.02241 8.88429C6.74422 9.28185 6.54164 9.71956 6.31366 10.1439C6.30931 10.158 6.30193 10.171 6.29203 10.1821C6.28213 10.1931 6.26994 10.202 6.25628 10.208C6.24261 10.214 6.2278 10.2171 6.21284 10.217C6.19787 10.2168 6.18311 10.2136 6.16955 10.2073C5.80218 10.1136 5.43363 10.0257 5.06508 9.939C4.69653 9.85228 4.32148 9.76904 3.94939 9.68406C3.86266 9.67395 3.77693 9.65681 3.69306 9.63283C3.44499 9.57055 3.19398 9.52398 2.94533 9.46287C2.91871 9.45335 2.89148 9.44557 2.86382 9.43959C2.79885 9.44716 2.78763 9.39593 2.76932 9.35868C2.68976 9.18546 2.63814 9.00104 2.61635 8.81211C2.58172 8.52241 2.57105 8.23041 2.58446 7.93901C2.58135 7.8552 2.58869 7.77134 2.60631 7.68929Z" fill="#8A8A8A"/>
<path d="M2.01687 12.2992C2.03863 12.0513 2.07931 11.8053 2.13854 11.5635C2.22043 11.2279 2.32259 10.8975 2.44448 10.5739C2.46692 10.5099 2.49704 10.4814 2.5756 10.5035C2.65415 10.5256 2.72739 10.5344 2.80358 10.5489C3.03983 10.5966 3.28021 10.6374 3.51823 10.6828C3.69542 10.7165 3.87615 10.7538 4.05511 10.787C4.27246 10.8266 4.48922 10.8685 4.7048 10.9092L5.22868 11.0041C5.46493 11.0466 5.69527 11.0873 5.92975 11.117C6.03843 11.131 6.04787 11.1368 6.06737 11.2334C6.10457 11.4406 6.11698 11.6484 6.14119 11.8557C6.16127 12.0169 6.15419 12.1775 6.15891 12.3382C6.16332 12.4866 6.15343 12.6351 6.12938 12.7817C6.09056 13.1514 5.99621 13.5133 5.84942 13.8557C5.6179 14.3725 5.27829 14.805 4.72724 15.0553C4.18918 15.3004 3.63281 15.3004 3.07704 14.9889C2.72607 14.7852 2.4479 14.4791 2.28088 14.1129C2.13511 13.8095 2.0455 13.4829 2.01628 13.1484C2.00153 12.9569 1.9968 12.7648 2.0021 12.5728C2.00269 12.4814 2.01333 12.3906 2.01687 12.2992Z" fill="#8A8A8A"/>
</svg>
