<svg width="31" height="32" viewBox="0 0 31 32" fill="none" xmlns="http://www.w3.org/2000/svg">
<path d="M15.0055 30.3787C13.0956 30.3787 11.3319 29.8948 9.75751 28.9374C4.22346 25.5729 3.01745 17.359 7.07178 10.6279C9.87482 5.973 14.528 3.08203 19.2121 3.08203C21.122 3.08203 22.8857 3.56593 24.4601 4.52338C29.9941 7.88791 31.2002 16.1017 27.1458 22.8329C24.3428 27.4878 19.6916 30.3808 15.0055 30.3808V30.3787Z" fill="#13B7AE"/>
<path d="M19.2115 2.46289V3.70365C21.0061 3.70365 22.6629 4.1586 24.1385 5.05401C29.3823 8.24069 30.4937 16.072 26.6163 22.5115C25.2725 24.7449 23.449 26.6019 21.3437 27.8819C19.3227 29.1103 17.1309 29.7596 15.0049 29.7596C13.2103 29.7596 11.5515 29.3047 10.078 28.4092C7.57542 26.8872 5.92694 24.261 5.43507 21.0122C4.93085 17.6787 5.70055 14.1074 7.60012 10.9518C8.94401 8.71839 10.7674 6.86138 12.8728 5.58133C14.8938 4.35298 17.0856 3.70365 19.2115 3.70365V2.46289ZM19.2115 2.46289C14.5007 2.46289 9.53879 5.33525 6.54229 10.3107C2.30686 17.3458 3.60136 25.9257 9.43794 29.4722C11.1461 30.5103 13.0539 31.0024 15.0049 31.0024C19.7158 31.0024 24.6777 28.1301 27.6742 23.1546C31.9096 16.1195 30.6151 7.53967 24.7785 3.99316C23.0704 2.95506 21.1626 2.46289 19.2115 2.46289Z" fill="black"/>
<path d="M10.9538 27.9179C9.04397 27.9179 7.28023 27.434 5.70584 26.4766C0.171787 23.112 -1.03216 14.8982 3.02011 8.16709C5.82315 3.51218 10.4764 0.619141 15.1604 0.619141C17.0703 0.619141 18.834 1.10304 20.4084 2.06049C25.9425 5.42502 27.1485 13.6388 23.0942 20.37C20.2911 25.0249 15.64 27.9179 10.9538 27.9179Z" fill="#76FFFB"/>
<path d="M15.1597 0V1.24076C16.9543 1.24076 18.611 1.6957 20.0867 2.59112C22.5892 4.11312 24.2377 6.73939 24.7296 9.98811C25.2338 13.3216 24.4641 16.8929 22.5645 20.0486C21.2206 22.282 19.3972 24.139 17.2918 25.419C15.2709 26.6474 13.0791 27.2967 10.9531 27.2967C9.1585 27.2967 7.49972 26.8418 6.02617 25.9464C0.782303 22.7597 -0.329035 14.9284 3.5483 8.48886C4.89219 6.2555 6.71561 4.39849 8.82098 3.11844C10.842 1.89009 13.0338 1.24076 15.1597 1.24076V0ZM15.1597 0C10.4489 0 5.48697 2.87236 2.49253 7.8478C-1.74496 14.8829 -0.448401 23.4607 5.38612 27.0093C7.09429 28.0474 9.00209 28.5395 10.9531 28.5395C15.6639 28.5395 20.6259 25.6672 23.6224 20.6917C27.8578 13.6566 26.5633 5.07677 20.7267 1.53027C19.0185 0.492168 17.1107 0 15.1597 0Z" fill="black"/>
<path d="M5.44756 26.0667L5.02148 26.7744L10.0859 29.8527L10.512 29.1449L5.44756 26.0667Z" fill="black"/>
<path d="M20.6723 1.53309L20.0332 2.59473L25.0976 5.67296L25.7367 4.61133L20.6723 1.53309Z" fill="black"/>
<path d="M24.8891 6.3534L24.25 7.41504L28.1874 9.80827L28.8265 8.74663L24.8891 6.3534Z" fill="black"/>
<path d="M25.7114 10.4891L25.0723 11.5508L29.0097 13.944L29.6488 12.8824L25.7114 10.4891Z" fill="black"/>
<path d="M25.7114 15.037L25.0723 16.0986L29.0097 18.4919L29.6488 17.4302L25.7114 15.037Z" fill="black"/>
<path d="M23.4458 19.9979L22.8066 21.0596L26.7441 23.4528L27.3832 22.3912L23.4458 19.9979Z" fill="black"/>
<path d="M19.7426 23.9286L19.1035 24.9902L23.0409 27.3835L23.6801 26.3218L19.7426 23.9286Z" fill="black"/>
<path d="M16.0395 26.203L15.4004 27.2646L19.3378 29.6579L19.9769 28.5962L16.0395 26.203Z" fill="black"/>
<path d="M12.3344 27.4452L11.6953 28.5068L15.6327 30.9001L16.2719 29.8384L12.3344 27.4452Z" fill="black"/>
<path d="M10.0124 13.7435L11.6938 13.758L11.0661 16.9943C10.6072 17.3086 10.07 17.5609 9.45466 17.7532C8.83931 17.9455 8.27335 18.0386 7.75473 18.0345C7.00355 18.0283 6.35938 17.838 5.82429 17.4658C5.28921 17.0936 4.91053 16.5848 4.68826 15.9396C4.46393 15.2945 4.43101 14.5748 4.58536 13.7766C4.73971 12.9784 5.05459 12.2753 5.53617 11.6404C6.01775 11.0056 6.6084 10.5093 7.30608 10.1515C8.00375 9.79375 8.73847 9.61798 9.51229 9.62418C10.0659 9.62832 10.5969 9.74412 11.1073 9.96953C11.6177 10.1949 12.0293 10.4948 12.338 10.8691L10.9447 12.3456C10.7286 12.0643 10.461 11.841 10.142 11.6756C9.82305 11.5101 9.49171 11.4254 9.15213 11.4233C8.75493 11.4191 8.37625 11.5205 8.01816 11.7273C7.658 11.9341 7.35135 12.2174 7.09616 12.5793C6.84096 12.9411 6.67015 13.3465 6.58371 13.7952C6.49727 14.2439 6.50756 14.6637 6.62075 15.0339C6.73394 15.4041 6.93357 15.6936 7.21964 15.9045C7.50571 16.1154 7.84528 16.225 8.24248 16.2271C8.61704 16.2312 9.07187 16.103 9.6049 15.8445L10.0124 13.7456V13.7435Z" fill="black"/>
<path d="M19.2783 10.2561C19.8196 10.6242 20.2065 11.1288 20.4349 11.7657C20.6634 12.4026 20.7004 13.1161 20.5481 13.906C20.3958 14.696 20.0789 15.4218 19.6035 16.0587C19.1281 16.6977 18.5477 17.2002 17.8624 17.5663C17.1771 17.9323 16.4547 18.1122 15.6973 18.1039C14.94 18.0956 14.2897 17.9075 13.7463 17.5352C13.203 17.163 12.8202 16.6522 12.5938 16.0029C12.3674 15.3536 12.3325 14.6319 12.4868 13.8336C12.6391 13.0458 12.9519 12.3344 13.4273 11.7037C13.9007 11.0729 14.479 10.5787 15.1623 10.2189C15.8455 9.85907 16.5658 9.68536 17.3252 9.69157C18.0847 9.69777 18.735 9.88595 19.2783 10.254V10.2561ZM15.9134 11.7947C15.5574 12.0014 15.2508 12.2868 14.9956 12.6528C14.7404 13.0189 14.5695 13.4221 14.4852 13.8626C14.4008 14.3031 14.4131 14.7208 14.5284 15.0889C14.6436 15.457 14.8391 15.7506 15.1108 15.9657C15.3804 16.1807 15.7015 16.2903 16.0698 16.2945C16.4382 16.2986 16.7984 16.1952 17.1483 15.9843C17.4981 15.7734 17.7965 15.4859 18.0456 15.1199C18.2925 14.7539 18.4613 14.3465 18.5477 13.8977C18.6342 13.449 18.6218 13.052 18.5169 12.6839C18.4098 12.3158 18.2226 12.0242 17.955 11.8133C17.6875 11.6023 17.3685 11.4948 17.0001 11.4907C16.6317 11.4865 16.2695 11.5879 15.9134 11.7947Z" fill="black"/>
</svg>
