<svg width="20" height="20" viewBox="0 0 20 20" fill="none" xmlns="http://www.w3.org/2000/svg">
<path fill-rule="evenodd" clip-rule="evenodd" d="M15.7806 17.5304C17.1554 16.0938 18 14.1455 18 12C18 9.85233 17.1537 7.90233 15.7764 6.46527C15.737 6.42419 15.6972 6.38348 15.6569 6.34315C15.618 6.30429 15.5788 6.26587 15.5392 6.22789C14.1017 4.84806 12.1499 4 10 4C7.84898 4 5.89624 4.84893 4.45855 6.23003C4.41974 6.26731 4.38126 6.30502 4.34313 6.34315C4.30427 6.38201 4.26585 6.42123 4.22788 6.4608C2.84805 7.89828 2 9.8501 2 12C2 14.1477 2.84629 16.0977 4.22358 17.5347C4.26296 17.5758 4.3028 17.6165 4.34313 17.6568C4.38199 17.6957 4.42121 17.7341 4.46079 17.7721C5.89827 19.1519 7.8501 20 10 20C12.1477 20 14.0977 19.1537 15.5347 17.7764C15.5758 17.737 15.6165 17.6972 15.6569 17.6568C15.6986 17.6151 15.7398 17.573 15.7806 17.5304Z" fill="#8A8A8A"/>
<path d="M14 1H6V3H14V1Z" fill="#8A8A8A"/>
<path d="M12 3H8V6H12V3Z" fill="#8A8A8A"/>
<path d="M10 8.12305V12.0084H13.6936" fill="#8A8A8A"/>
<path d="M10 8.12305V12.0084H13.6936" stroke="#2C2D31" stroke-width="1.5" stroke-miterlimit="10" stroke-linecap="round"/>
</svg>
