<svg width="45" height="44" viewBox="0 0 45 44" fill="none" xmlns="http://www.w3.org/2000/svg">
<path d="M0.5 22C0.5 9.84974 10.3497 0 22.5 0C34.6503 0 44.5 9.84974 44.5 22C44.5 34.1503 34.6503 44 22.5 44C10.3497 44 0.5 34.1503 0.5 22Z" fill="#FD5D70"/>
<path d="M24.8735 12.6764C24.9125 11.3384 23.8384 10.2326 22.4998 10.2326C21.1612 10.2326 20.0871 11.3384 20.1261 12.6764L20.4201 22.7824C20.4529 23.9074 21.3743 24.8025 22.4998 24.8025C23.6253 24.8025 24.5467 23.9074 24.5794 22.7824L24.8735 12.6764ZM19.9419 30.1083C19.9136 31.5711 21.0866 32.7442 22.4857 32.7442C23.8423 32.7442 25.0436 31.5711 25.0577 30.1083C25.0436 28.689 23.8423 27.5304 22.4857 27.5304C21.0866 27.5304 19.9136 28.689 19.9419 30.1083Z" fill="white"/>
</svg>
