<svg width="159" height="172" viewBox="0 0 159 172" fill="none" xmlns="http://www.w3.org/2000/svg">
    <path d="M31.262 104.213L31.0667 103.612L31.0757 103.481L48.6564 105.471L48.5475 106.324L64.0583 154.099L63.8803 155.691L47.4038 153.931L31.262 104.213Z" fill="#64F6FF"/>
    <path d="M106.606 93.0757L105.982 93.6108L84.9682 97.7735L126.376 60.0344L147.647 55.6346L131.107 70.7227L117.721 82.92L106.606 93.0757Z" fill="#C1FCFF"/>
    <path d="M142.15 40.7466L126.381 60.0341L71.5056 57.8771L86.9661 40.0194L142.15 40.7466Z" fill="#9BFAFF"/>
    <path d="M131.231 70.8624L147.636 121.39L135.162 132.831L133.884 131.43L118.373 83.6555L117.722 82.9204L131.109 70.7231L131.231 70.8624Z" fill="#12C2CD"/>
    <path d="M126.378 60.0349L84.9705 97.7739L84.8616 97.8349L84.4598 97.7863L71.5028 57.8779L126.378 60.0349Z" fill="#068C94"/>
    <path d="M133.88 131.429L135.158 132.829L123.363 143.666L122.843 143.093L106.603 93.075L117.719 82.9193L118.369 83.6544L133.88 131.429Z" fill="#068C94"/>
    <path d="M122.845 143.094L123.366 143.667L105.397 160.139L105.211 160.123L84.9685 97.7732L105.982 93.6105L106.606 93.0754L122.845 143.094Z" fill="#12C2CD"/>
    <path d="M84.8615 97.8345L84.9704 97.7736L105.213 160.123L79.7954 157.379L79.845 157.056L64.3267 109.258L64.5391 107.297L64.7246 107.313L84.8615 97.8345Z" fill="#64F6FF"/>
    <path d="M84.4562 97.786L84.8581 97.8345L64.7212 107.313L64.5357 107.297L48.6555 105.471L31.0749 103.481L8.65669 100.939L28.5367 91.6204L84.4562 97.786Z" fill="#C1FCFF"/>
    <path d="M71.5007 57.8778L84.4577 97.7861L28.5381 91.6206L71.5007 57.8778Z" fill="#068C94"/>
    <path d="M71.4996 57.8786L28.5369 91.6214L7.20469 85.6069L51.1587 51.7468L71.4996 57.8786Z" fill="#9BFAFF"/>
    <path d="M48.6545 105.471L64.5347 107.296L64.3223 109.258L79.8406 157.055L79.791 157.378L63.8785 155.691L64.0564 154.099L48.5456 106.324L48.6545 105.471Z" fill="#068C94"/>
    <path fill-rule="evenodd" clip-rule="evenodd" d="M130.554 68.7901C131.698 68.4186 132.927 69.0451 133.299 70.1895L149.703 120.717C149.967 121.528 149.732 122.419 149.104 122.995L136.631 134.435L124.836 145.271L106.866 161.746C106.414 162.159 105.81 162.364 105.2 162.31L104.974 162.29L47.1695 156.098C46.315 156.006 45.5941 155.421 45.3287 154.604L28.9917 104.285C28.6202 103.14 29.2467 101.911 30.3911 101.54C31.5355 101.168 32.7645 101.795 33.136 102.939L49.0369 151.915L80.0239 155.213L104.644 157.871L121.888 142.063L133.683 131.226L145.127 120.731L129.154 71.5351C128.783 70.3906 129.409 69.1617 130.554 68.7901Z" fill="#0B6C72"/>
    <path fill-rule="evenodd" clip-rule="evenodd" d="M27.6119 89.6479C27.9746 89.4779 28.3772 89.4112 28.7753 89.4551L84.6603 95.6168C85.028 95.5646 85.4074 95.6065 85.7615 95.7452C86.3688 95.9832 86.8376 96.4806 87.039 97.101L107.304 159.52C107.676 160.664 107.049 161.893 105.905 162.265C104.761 162.637 103.532 162.01 103.16 160.866L83.6608 100.806L65.649 109.285C65.2996 109.449 64.9128 109.518 64.5282 109.484L64.3427 109.467L64.2868 109.461L48.4104 107.636L8.41115 103.104C7.44248 102.994 6.66468 102.254 6.50676 101.292C6.34883 100.33 6.84921 99.3803 7.73193 98.9666L27.6119 89.6479ZM76.948 99.1501L28.9066 93.8532L16.5563 99.6424L48.9043 103.307L64.3459 105.082L76.948 99.1501Z" fill="#0B6C72"/>
    <path fill-rule="evenodd" clip-rule="evenodd" d="M49.8291 50.0216C50.3857 49.5929 51.1148 49.4588 51.7875 49.6616L72.1284 55.7934C72.9067 56.028 73.4897 56.6765 73.6404 57.4754C73.7911 58.2742 73.4846 59.0905 72.8452 59.5927L29.8826 93.3355C29.3353 93.7654 28.6155 93.9079 27.9457 93.719L6.61345 87.7045C5.82069 87.481 5.22176 86.8295 5.06556 86.0208C4.90936 85.212 5.2226 84.3844 5.87511 83.8817L49.8291 50.0216ZM11.9692 84.6874L28.0622 89.2247L66.857 58.7553L51.6015 54.1565L11.9692 84.6874Z" fill="#0B6C72"/>
    <path fill-rule="evenodd" clip-rule="evenodd" d="M85.3191 38.5942C85.7395 38.1086 86.3527 37.8333 86.9949 37.8417L142.178 38.5689C143.015 38.5799 143.771 39.0688 144.124 39.827C144.478 40.5852 144.366 41.4787 143.836 42.1263L128.068 61.4137C127.635 61.9431 126.979 62.2386 126.296 62.2117L71.4202 60.0548C70.5835 60.0219 69.8397 59.5124 69.5068 58.7442C69.1738 57.9759 69.3106 57.0848 69.8586 56.4518L85.3191 38.5942ZM87.9503 42.2119L76.1181 55.8788L125.382 57.8152L137.603 42.8662L87.9503 42.2119Z" fill="#0B6C72"/>
    <path fill-rule="evenodd" clip-rule="evenodd" d="M124.908 58.4249C125.197 58.1615 125.552 57.9808 125.935 57.9016L147.206 53.5018C148.167 53.3031 149.142 53.7712 149.588 54.6452C150.034 55.5193 149.84 56.5836 149.115 57.2449L132.575 72.3329L108.075 94.6847C108.067 94.6922 108.059 94.6996 108.051 94.7069C108.042 94.7148 108.033 94.7226 108.024 94.7303L107.4 95.2654C107.115 95.5093 106.773 95.6757 106.405 95.7485L85.3915 99.9112C84.4321 100.101 83.4637 99.6287 83.0231 98.7556C82.5825 97.8825 82.7778 96.8227 83.5006 96.1639L124.908 58.4249ZM127.402 62.0476L92.2143 94.1177L104.998 91.5854L105.162 91.4448L116.254 81.3103L140.312 59.3772L127.402 62.0476Z" fill="#0B6C72"/>
    <path fill-rule="evenodd" clip-rule="evenodd" d="M70.8301 55.8058C71.9745 55.4342 73.2035 56.0607 73.575 57.2051L86.577 97.2523C86.9486 98.3968 86.3221 99.6257 85.1776 99.9973C84.0332 100.369 82.8043 99.7423 82.4327 98.5979L69.4307 58.5507C69.0591 57.4063 69.6857 56.1773 70.8301 55.8058Z" fill="#0B6C72"/>
    <path d="M72.4326 40.2782C74.0368 40.298 75.3533 39.0137 75.3731 37.4095C75.3929 35.8053 74.1085 34.4888 72.5044 34.469C70.9002 34.4492 69.5837 35.7335 69.5639 37.3377C69.544 38.9419 70.8284 40.2584 72.4326 40.2782Z" fill="#9BFAFF"/>
    <path d="M21.5977 73.8077C24.004 73.8374 25.9787 71.9109 26.0084 69.5046C26.0382 67.0983 24.1116 65.1236 21.7053 65.0939C19.2991 65.0641 17.3243 66.9907 17.2946 69.397C17.2649 71.8032 19.1914 73.778 21.5977 73.8077Z" fill="#9BFAFF"/>
    <path d="M30.1708 32.2543C30.9729 32.2643 31.6312 31.6221 31.6411 30.82C31.651 30.0179 31.0088 29.3596 30.2067 29.3497C29.4046 29.3398 28.7464 29.982 28.7365 30.7841C28.7266 31.5862 29.3687 32.2444 30.1708 32.2543Z" fill="#9BFAFF"/>
    <path d="M115.138 33.7265C115.94 33.7364 116.598 33.0942 116.608 32.2921C116.618 31.4901 115.976 30.8318 115.174 30.8219C114.372 30.812 113.713 31.4542 113.703 32.2563C113.693 33.0584 114.336 33.7166 115.138 33.7265Z" fill="#9BFAFF"/>
    <path d="M94.9229 80.6468C85.0685 56.9624 83.3777 33.4256 111.659 17.384" stroke="#0B6C72" stroke-width="3.82589" stroke-miterlimit="10" stroke-dasharray="5.1 5.1"/>
    <path d="M72.0984 92.8746C66.1453 62.6092 52.7192 36.1512 20.4438 40.0815" stroke="#0B6C72" stroke-width="3.82589" stroke-miterlimit="10" stroke-dasharray="5.1 5.1"/>
    <path d="M13.5608 33.2252C15.3247 33.7942 15.8868 35.7808 14.6632 37.6878C13.5946 39.7651 12.7175 41.1972 11.1087 40.7985C9.50722 40.2368 9.43215 38.2719 9.37163 35.9808C9.17059 33.193 11.7897 32.8193 13.5608 33.2252Z" fill="#9BFAFF" stroke="#0B6C72" stroke-width="1.91295" stroke-miterlimit="10" stroke-linejoin="round"/>
    <path d="M14.4784 49.1221C15.9758 48.3716 17.0516 46.1311 15.6633 44.4346C14.12 42.5677 13.0491 41.0488 11.3894 41.7922C9.89205 42.5427 10.3209 43.8695 10.5219 46.6573C10.9071 48.9629 12.8115 50.0286 14.4784 49.1221Z" fill="#9BFAFF" stroke="#0B6C72" stroke-width="1.91295" stroke-miterlimit="10" stroke-linejoin="round"/>
    <path d="M8.79218 41.6763C8.68075 40.5271 9.38099 39.4141 10.3695 39.1312C10.7015 38.9826 11.1957 38.8411 11.5204 38.8556C13.8076 38.6307 15.7192 39.5332 15.8234 40.8455C16.0826 42.3282 14.3938 43.7241 12.2762 43.7931C11.6269 43.7642 11.3022 43.7497 10.8152 43.728C9.68618 43.5142 8.90361 42.8255 8.79218 41.6763C8.79945 41.5132 8.79218 41.6763 8.79218 41.6763Z" fill="#9BFAFF"/>
    <path d="M8.79218 41.6763C8.68075 40.5271 9.38099 39.4141 10.3695 39.1312C10.7015 38.9826 11.1957 38.8411 11.5204 38.8556C13.8076 38.6307 15.7192 39.5332 15.8234 40.8455C16.0826 42.3282 14.3938 43.7241 12.2762 43.7931C11.6269 43.7642 11.3022 43.7497 10.8152 43.728C9.68618 43.5142 8.90361 42.8255 8.79218 41.6763ZM8.79218 41.6763C8.79218 41.6763 8.79945 41.5132 8.79218 41.6763Z" stroke="#0B6C72" stroke-width="1.91295" stroke-miterlimit="10" stroke-linejoin="round"/>
    <path d="M24.8926 46.2737L97.207 33.0056L106.362 75.8753L84.8001 95.7915L55.322 92.8366L24.8926 46.2737Z" fill="url(#paint0_linear_980_8932)"/>
    <path d="M23.463 14L20.885 4.98325L22.9275 4.98325L24.4469 11.285L24.5216 11.285L26.178 4.98325L27.9341 4.98325L29.5904 11.2975L29.6652 11.2975L31.1846 4.98325L33.227 4.98325L30.649 14L28.8183 14L27.0996 8.04695L27.0249 8.04695L25.2938 14L23.463 14ZM35.9918 10.0894L35.9918 14L34.1486 14L34.1486 4.98325L35.942 4.98325L35.942 8.42058L36.0167 8.42058C36.3281 7.62974 37.0068 7.15026 38.0343 7.15026C39.4478 7.15026 40.3757 8.103 40.3757 9.69089L40.3757 14L38.5325 14L38.5325 10.0147C38.5325 9.17405 38.0841 8.68211 37.312 8.68211C36.5336 8.68211 35.9918 9.19895 35.9918 10.0894ZM44.8342 14.137C42.7918 14.1308 41.5152 12.7297 41.5214 10.6374C41.5152 8.55134 42.7918 7.15026 44.8342 7.15026C46.8829 7.15026 48.1532 8.55134 48.1595 10.6374C48.1532 12.7297 46.8829 14.1308 44.8342 14.137ZM43.3896 10.6374C43.3896 11.8205 43.8815 12.6985 44.8467 12.7048C45.787 12.6985 46.2851 11.8205 46.2789 10.6374C46.2851 9.44804 45.787 8.55757 44.8467 8.55757C43.8815 8.55757 43.3896 9.44804 43.3896 10.6374ZM52.3565 14.137C50.314 14.1308 49.0375 12.7297 49.0437 10.6374C49.0375 8.55134 50.314 7.15026 52.3565 7.15026C54.4052 7.15026 55.6755 8.55134 55.6817 10.6374C55.6755 12.7297 54.4052 14.1308 52.3565 14.137ZM50.9118 10.6374C50.9118 11.8205 51.4038 12.6985 52.3689 12.7048C53.3092 12.6985 53.8074 11.8205 53.8012 10.6374C53.8074 9.44804 53.3092 8.55757 52.3689 8.55757C51.4038 8.55757 50.9118 9.44804 50.9118 10.6374ZM56.84 16.5406L56.84 7.23744L58.6583 7.23744L58.6583 8.37076L58.733 8.37076C58.9883 7.82278 59.5238 7.15026 60.6634 7.15026C62.1578 7.15026 63.4095 8.30849 63.4033 10.6249C63.4095 12.8854 62.2077 14.1121 60.6634 14.1121C59.5612 14.1121 58.9945 13.4769 58.733 12.9165L58.6832 12.9165L58.6832 16.5406L56.84 16.5406ZM58.6458 10.6125C58.6396 11.833 59.1626 12.6363 60.078 12.6425C61.0183 12.6363 61.5289 11.8081 61.5227 10.6125C61.5289 9.43558 61.0308 8.61984 60.078 8.61984C59.1564 8.61984 58.6396 9.39822 58.6458 10.6125ZM68.4596 9.24254C68.3787 8.76929 67.9677 8.46416 67.3512 8.45794C66.7534 8.46416 66.2988 8.74438 66.3051 9.15537C66.2988 9.46049 66.5355 9.69712 67.1768 9.82789L68.3849 10.077C69.6988 10.351 70.3339 10.9363 70.3402 11.9077C70.3339 13.2403 69.1384 14.1308 67.3387 14.137C65.5142 14.1308 64.4432 13.315 64.2875 11.9949L66.1432 11.9949C66.2303 12.5242 66.66 12.7982 67.3387 12.8044C68.0113 12.7982 68.4596 12.5304 68.4596 12.0945C68.4596 11.7458 68.1732 11.5279 67.538 11.3971L66.4171 11.1729C65.1281 10.9176 64.4681 10.2576 64.4743 9.255C64.4681 7.95977 65.5827 7.15026 67.3263 7.15026C69.0325 7.15026 70.0911 7.95977 70.1907 9.24254L68.4596 9.24254ZM72.557 14.1121C71.9717 14.1121 71.4984 13.6451 71.5109 13.0659C71.4984 12.4931 71.9717 12.026 72.557 12.0323C73.1112 12.026 73.5907 12.4931 73.5907 13.0659C73.5907 13.6451 73.1112 14.1121 72.557 14.1121ZM76.1562 14.1121C75.5709 14.1121 75.0976 13.6451 75.1101 13.0659C75.0976 12.4931 75.5709 12.026 76.1562 12.0323C76.7104 12.026 77.1899 12.4931 77.1899 13.0659C77.1899 13.6451 76.7104 14.1121 76.1562 14.1121ZM79.7554 14.1121C79.1701 14.1121 78.6969 13.6451 78.7093 13.0659C78.6969 12.4931 79.1701 12.026 79.7554 12.0323C80.3097 12.026 80.7891 12.4931 80.7891 13.0659C80.7891 13.6451 80.3097 14.1121 79.7554 14.1121Z" fill="#0EE6F3"/>
    <path d="M120.749 25.3633C118.411 24.6429 117.634 22.0304 119.216 19.4918C120.591 16.7311 121.724 14.8255 123.854 15.3238C125.978 16.0375 126.111 18.6298 126.231 21.6531C126.545 25.3295 123.094 25.8683 120.749 25.3633Z" fill="#9BFAFF" stroke="#0B6C72" stroke-width="2.29348" stroke-miterlimit="10" stroke-linejoin="round"/>
    <path d="M119.262 4.39523C117.299 5.41202 115.918 8.3882 117.78 10.6035C119.849 13.0409 121.289 15.0272 123.467 14.0172C125.431 13.0004 124.842 11.2564 124.528 7.58C123.979 4.54325 121.447 3.1697 119.262 4.39523Z" fill="#9BFAFF" stroke="#0B6C72" stroke-width="2.29348" stroke-miterlimit="10" stroke-linejoin="round"/>
    <path d="M126.897 14.1256C127.064 15.6406 126.159 17.122 124.859 17.5126C124.423 17.7146 123.773 17.9098 123.345 17.8964C120.329 18.2331 117.79 17.075 117.63 15.3446C117.262 13.3919 119.467 11.5199 122.261 11.392C123.119 11.4189 123.548 11.4323 124.191 11.4525C125.685 11.7151 126.73 12.6106 126.897 14.1256C126.89 14.3411 126.897 14.1256 126.897 14.1256Z" fill="#9BFAFF"/>
    <path d="M126.897 14.1256C127.064 15.6406 126.159 17.122 124.859 17.5126C124.423 17.7146 123.773 17.9099 123.345 17.8964C120.329 18.2331 117.79 17.075 117.63 15.3446C117.262 13.3919 119.467 11.5199 122.261 11.392C123.119 11.4189 123.548 11.4323 124.191 11.4525C125.685 11.7151 126.73 12.6106 126.897 14.1256ZM126.897 14.1256C126.897 14.1256 126.89 14.3411 126.897 14.1256Z" stroke="#0B6C72" stroke-width="2.29348" stroke-miterlimit="10" stroke-linejoin="round"/>
    <defs>
        <linearGradient id="paint0_linear_980_8932" x1="67.1703" y1="39.5176" x2="86.0667" y2="95.3622" gradientUnits="userSpaceOnUse">
            <stop stop-color="#91EFFF" stop-opacity="0"/>
            <stop offset="1" stop-color="#91EFFF"/>
        </linearGradient>
    </defs>
</svg>
