<svg width="24" height="24" viewBox="0 0 24 24" fill="none" xmlns="http://www.w3.org/2000/svg">
<path fill-rule="evenodd" clip-rule="evenodd" d="M12 24C18.6274 24 24 18.6274 24 12C24 5.37258 18.6274 0 12 0C5.37258 0 0 5.37258 0 12C0 18.6274 5.37258 24 12 24ZM10.5955 10.1898V18.8571H13.4034V10.1898H10.5955ZM10.7581 8.76652C11.0733 9.07569 11.4871 9.23028 11.9994 9.23028C12.5216 9.23028 12.9354 9.07569 13.2408 8.76652C13.5561 8.4467 13.7137 8.04691 13.7137 7.56716C13.7137 7.10874 13.5561 6.73561 13.2408 6.44776C12.9256 6.14925 12.5118 6 11.9994 6C11.4871 6 11.0733 6.15458 10.7581 6.46375C10.4428 6.77292 10.2852 7.15672 10.2852 7.61514C10.2852 8.07356 10.4428 8.45736 10.7581 8.76652Z" fill="#939393"/>
</svg>
