<svg width="15" height="14" viewBox="0 0 15 14" fill="none" xmlns="http://www.w3.org/2000/svg">
<path fill-rule="evenodd" clip-rule="evenodd" d="M7.49992 13.6666C11.1818 13.6666 14.1666 10.6818 14.1666 6.99992C14.1666 3.31802 11.1818 0.333252 7.49992 0.333252C3.81802 0.333252 0.833252 3.31802 0.833252 6.99992C0.833252 10.6818 3.81802 13.6666 7.49992 13.6666ZM6.71986 5.99423V10.8094H8.27979V5.99423H6.71986ZM6.81017 5.20354C6.98532 5.3753 7.21521 5.46118 7.49983 5.46118C7.78992 5.46118 8.0198 5.3753 8.18948 5.20354C8.36463 5.02586 8.45221 4.80376 8.45221 4.53723C8.45221 4.28255 8.36463 4.07526 8.18948 3.91534C8.01433 3.7495 7.78444 3.66658 7.49983 3.66658C7.21521 3.66658 6.98532 3.75247 6.81017 3.92423C6.63502 4.09599 6.54744 4.30921 6.54744 4.56388C6.54744 4.81856 6.63502 5.03178 6.81017 5.20354Z" fill="#605E5F"/>
</svg>
