<svg width="80" height="82" viewBox="0 0 80 82" fill="none" xmlns="http://www.w3.org/2000/svg">
<circle cx="39.9577" cy="40.9577" r="39.9577" fill="#2EFF75"/>
<circle cx="39.9577" cy="40.9577" r="37.9577" fill="#0F3D30" stroke="#2EFF75" stroke-width="4"/>
<path d="M40.134 10.5C40.5189 11.1667 41.4811 11.1667 41.866 10.5L45.3301 4.5C45.715 3.83333 45.2339 3 44.4641 3H37.5359C36.7661 3 36.285 3.83333 36.6699 4.5L40.134 10.5Z" fill="#2EFF75"/>
<path d="M69.5 40.134C68.8333 40.5189 68.8333 41.4811 69.5 41.866L75.5 45.3301C76.1667 45.715 77 45.2339 77 44.4641L77 37.5359C77 36.7661 76.1667 36.285 75.5 36.6699L69.5 40.134Z" fill="#2EFF75"/>
<path d="M41.866 71.5C41.4811 70.8333 40.5189 70.8333 40.134 71.5L36.6699 77.5C36.285 78.1667 36.7661 79 37.5359 79H44.4641C45.2339 79 45.715 78.1667 45.3301 77.5L41.866 71.5Z" fill="#2EFF75"/>
<path d="M10.5 41.866C11.1667 41.4811 11.1667 40.5189 10.5 40.134L4.5 36.6699C3.83333 36.285 3 36.7661 3 37.5359L3 44.4641C3 45.2339 3.83333 45.715 4.5 45.3301L10.5 41.866Z" fill="#2EFF75"/>
<path d="M55.5508 25.3637C56.4032 24.9532 57.2962 25.8462 56.8857 26.6986L46.7485 47.7483L34.5011 35.5009L55.5508 25.3637Z" fill="#2EFF75"/>
<path d="M25.6992 57.8863C24.8468 58.2968 23.9538 57.4038 24.3643 56.5514L34.5015 35.5017L46.7489 47.7491L25.6992 57.8863Z" fill="white"/>
</svg>
