<svg width="74" height="74" viewBox="0 0 74 74" fill="none" xmlns="http://www.w3.org/2000/svg">
<path d="M74 37C74 57.4345 57.4345 74 37 74C16.5655 74 0 57.4345 0 37C0 16.5655 16.5655 0 37 0C57.4345 0 74 16.5655 74 37Z" fill="#1D1D26"/>
<g clip-path="url(#clip0_6670_86286)">
<path d="M57.4906 23.3053C56.7982 22.6545 55.8605 22.4138 54.9403 22.6723C54.3531 22.8328 53.8623 23.234 53.4854 23.7244L48.3497 30.5181L31.0758 23.5193C30.0416 23.1003 28.8409 23.3856 28.1048 24.2415L20.9182 32.5063C20.5414 32.9343 20.2697 33.4603 20.2084 34.0309C20.1032 34.9403 20.4362 35.8051 21.0848 36.3935C22.1452 37.3475 23.9068 37.2316 24.8358 36.1617L30.8391 29.2521L35.2036 31.0263L31.6016 35.0205C30.6814 36.0369 29.8225 37.1068 29.025 38.2213L19.8578 51.042C19.2706 51.8711 19.0778 52.9588 19.4634 53.9039C20.3048 55.9456 22.934 55.9278 24.0207 54.4121L33.3018 41.4309C33.3018 41.4309 34.1607 41.7964 34.2659 41.8321L34.3711 41.8678L40.5059 44.4444L37.456 48.5991C36.7373 49.3034 36.3693 50.3376 36.5971 51.3273C37.0879 53.4849 39.6645 53.9396 40.9967 52.6379L47.0176 45.5767C47.5259 45.0863 47.8677 44.4266 47.9115 43.7222C47.9729 42.5453 47.3156 41.5022 46.2902 41.0653L39.5331 38.2213L43.1526 34.2449L48.2533 36.3133C49.3576 36.7591 50.6196 36.4114 51.347 35.4485L57.7009 27.041C58.516 25.9711 58.4722 24.2415 57.4906 23.3143V23.3053Z" fill="#2EFF75"/>
<path d="M44.2131 26.6489C46.3778 26.6489 48.1306 24.8212 48.1306 22.5745C48.1306 20.3277 46.369 18.5 44.2131 18.5C42.0571 18.5 40.2955 20.3277 40.2955 22.5745C40.2955 24.8212 42.0571 26.6489 44.2131 26.6489Z" fill="#2EFF75"/>
</g>
<defs>
<clipPath id="clip0_6670_86286">
<rect width="39" height="37" fill="white" transform="translate(19.2618 18.5)"/>
</clipPath>
</defs>
</svg>
