<svg width="80" height="80" viewBox="0 0 80 80" fill="none" xmlns="http://www.w3.org/2000/svg">
<g filter="url(#filter0_d_3302_28568)">
<path d="M80 40C80 62.0914 62.0914 80 40 80C17.9086 80 0 62.0914 0 40C0 17.9086 17.9086 0 40 0C62.0914 0 80 17.9086 80 40Z" fill="#0E2627"/>
<path d="M78 40C78 60.9868 60.9868 78 40 78C19.0132 78 2 60.9868 2 40C2 19.0132 19.0132 2 40 2C60.9868 2 78 19.0132 78 40Z" stroke="#0EE6F3" stroke-width="4"/>
</g>
<g clip-path="url(#clip0_3302_28568)">
<mask id="mask0_3302_28568" style="mask-type:alpha" maskUnits="userSpaceOnUse" x="4" y="4" width="72" height="72">
<path d="M76 40C76 59.8823 59.8823 76 40 76C20.1177 76 4 59.8823 4 40C4 20.1177 20.1177 4 40 4C59.8823 4 76 20.1177 76 40Z" fill="#0EE6F3"/>
</mask>
<g mask="url(#mask0_3302_28568)">
<path d="M47.6211 52.483L66.9954 36.1122L43.7655 35.1797H41.752L47.6211 52.483Z" fill="#0EE6F3"/>
<path d="M47.7171 50.9152L44.8984 44.4559L50.0659 42.3027L49.5962 46.1784L47.7171 50.9152Z" fill="#0D9199"/>
<path fill-rule="evenodd" clip-rule="evenodd" d="M40.9305 34.588C41.1201 34.3207 41.426 34.1621 41.7519 34.1621H43.7655C43.7789 34.1621 43.7923 34.1624 43.8057 34.1629L67.0356 35.0954C67.4525 35.1122 67.8163 35.3856 67.951 35.7837C68.0858 36.1817 67.9638 36.6223 67.6441 36.8925L48.2698 53.2632C48.0147 53.4788 47.6706 53.5538 47.35 53.4637C47.0293 53.3736 46.7734 53.13 46.6657 52.8125L40.7965 35.5092C40.691 35.1984 40.741 34.8553 40.9305 34.588ZM43.1643 36.1978L48.1004 50.7501L64.344 37.0247L43.7454 36.1978H43.1643Z" fill="#0EE6F3"/>
<path d="M19.5352 30.3984L26.7162 52.4814L50.8371 41.9316L47.1545 26.0176L19.5352 30.3984Z" fill="#0EE6F3"/>
<path fill-rule="evenodd" clip-rule="evenodd" d="M46.9995 25.0125C47.5221 24.9296 48.0196 25.2674 48.1398 25.7867L51.8224 41.7008C51.9332 42.1797 51.6885 42.67 51.2409 42.8657L27.12 53.4155C26.8595 53.5295 26.5633 53.5275 26.3042 53.4102C26.0452 53.2928 25.8471 53.0709 25.7586 52.7988L18.5776 30.7158C18.4854 30.4323 18.5212 30.1222 18.6757 29.8677C18.8302 29.6131 19.0877 29.4397 19.3801 29.3933L46.9995 25.0125ZM20.8662 31.2183L27.3325 51.1035L49.6643 41.3363L46.3863 27.1705L20.8662 31.2183Z" fill="#0EE6F3"/>
<path d="M20.0522 29.4093L17.2839 29.949L30.9706 76.3495L33.5821 75.3356L20.0522 29.4093Z" fill="white"/>
<path fill-rule="evenodd" clip-rule="evenodd" d="M19.7918 28.234C20.19 28.1564 20.6262 28.5485 20.8007 29.1409L34.3306 75.0672C34.5158 75.6958 34.3414 76.3249 33.9385 76.4813L31.3271 77.4953C31.129 77.5722 30.9012 77.5222 30.6949 77.3566C30.4886 77.191 30.321 76.9237 30.2298 76.6146L16.5431 30.2141C16.4471 29.8885 16.4445 29.5462 16.5361 29.2718C16.6276 28.9974 16.8047 28.8165 17.0236 28.7738L19.7918 28.234ZM18.4079 30.9535L31.3732 74.9081L32.5075 74.4677L19.6187 30.7174L18.4079 30.9535Z" fill="white"/>
<path d="M51.4979 42.8203L44.1875 46.0186L46.4176 51.7533C46.7527 52.6149 47.9774 52.5994 48.2905 51.7295L51.4979 42.8203Z" fill="#0D9199"/>
</g>
</g>
<defs>
<filter id="filter0_d_3302_28568" x="0" y="0" width="80" height="80" filterUnits="userSpaceOnUse" color-interpolation-filters="sRGB">
<feFlood flood-opacity="0" result="BackgroundImageFix"/>
<feColorMatrix in="SourceAlpha" type="matrix" values="0 0 0 0 0 0 0 0 0 0 0 0 0 0 0 0 0 0 127 0" result="hardAlpha"/>
<feOffset/>
<feComposite in2="hardAlpha" operator="out"/>
<feColorMatrix type="matrix" values="0 0 0 0 0 0 0 0 0 0 0 0 0 0 0 0 0 0 1 0"/>
<feBlend mode="normal" in2="BackgroundImageFix" result="effect1_dropShadow_3302_28568"/>
<feBlend mode="normal" in="SourceGraphic" in2="effect1_dropShadow_3302_28568" result="shape"/>
</filter>
<clipPath id="clip0_3302_28568">
<rect width="68" height="57" fill="white" transform="translate(8 22)"/>
</clipPath>
</defs>
</svg>
