<svg width="58" height="55" viewBox="0 0 58 55" fill="none" xmlns="http://www.w3.org/2000/svg">
<g clip-path="url(#clip0_1815_9998)">
<path d="M36.8126 32L56 15.9162L32.9942 15H31L36.8126 32Z" fill="#12C2CD"/>
<path fill-rule="evenodd" clip-rule="evenodd" d="M30.1865 14.4184C30.3743 14.1558 30.6772 14 31 14H32.9942C33.0074 14 33.0207 14.0003 33.034 14.0008L56.0398 14.917C56.4527 14.9334 56.8129 15.2021 56.9464 15.5932C57.0799 15.9842 56.9591 16.4171 56.6424 16.6825L37.455 32.7664C37.2023 32.9781 36.8616 33.0518 36.544 32.9633C36.2265 32.8748 35.973 32.6354 35.8663 32.3235L30.0538 15.3235C29.9494 15.0181 29.9988 14.681 30.1865 14.4184ZM32.3988 16L37.2872 30.2973L53.3742 16.8124L32.9743 16H32.3988Z" fill="#0B6C72"/>
<path d="M9 10.3041L16.1118 32L40 21.6351L36.3529 6L9 10.3041Z" fill="#64F6FF"/>
<path fill-rule="evenodd" clip-rule="evenodd" d="M36.1975 5.01227C36.7151 4.93083 37.2078 5.2627 37.3268 5.77295L40.9739 21.4081C41.0836 21.8786 40.8413 22.3603 40.398 22.5526L16.5098 32.9175C16.2517 33.0295 15.9585 33.0276 15.7019 32.9123C15.4453 32.7969 15.2491 32.5789 15.1615 32.3116L8.04975 10.6157C7.95843 10.3371 7.99396 10.0324 8.14695 9.78235C8.29993 9.53226 8.55495 9.3619 8.84456 9.31632L36.1975 5.01227ZM10.3163 11.1094L16.7203 30.646L38.8366 21.05L35.5902 7.13244L10.3163 11.1094Z" fill="#0B6C72"/>
<path d="M37 31.5L34 24L39.5 21.5L39 26L37 31.5Z" fill="#068C94"/>
<path fill-rule="evenodd" clip-rule="evenodd" d="M40.0941 20.6807L39.4903 26.1146L37.0222 32.9019L33.3584 23.7423L40.0941 20.6807ZM34.6415 24.2576L36.9777 30.098L38.5096 25.8853L38.9059 22.3192L34.6415 24.2576Z" fill="#0B6C72"/>
<path fill-rule="evenodd" clip-rule="evenodd" d="M40.2425 21.0301C40.7783 21.164 41.1041 21.707 40.9701 22.2428L38.9701 30.2428C38.8362 30.7786 38.2933 31.1043 37.7575 30.9704C37.2217 30.8364 36.8959 30.2935 37.0298 29.7577L39.0299 21.7577C39.1638 21.2219 39.7067 20.8961 40.2425 21.0301Z" fill="#0B6C72"/>
<path d="M8.7843 8.90225L5.24282 9.51803L22.7526 62.4532L26.0935 61.2965L8.7843 8.90225Z" fill="#F3FFFE"/>
<path fill-rule="evenodd" clip-rule="evenodd" d="M8.44617 7.56334C8.95556 7.47477 9.51366 7.9221 9.73692 8.5979L27.0462 60.9921C27.2831 61.7092 27.0599 62.427 26.5445 62.6054L23.2036 63.7621C22.9502 63.8499 22.6588 63.7929 22.3948 63.604C22.1309 63.4151 21.9165 63.1101 21.7999 62.7575L4.29007 9.82232C4.1672 9.45086 4.16391 9.06033 4.28101 8.74726C4.39811 8.4342 4.62467 8.22781 4.90469 8.17912L8.44617 7.56334ZM6.67576 10.6658L23.2626 60.8106L24.7138 60.3082L8.22467 10.3965L6.67576 10.6658Z" fill="#0B6C72"/>
</g>
<defs>
<clipPath id="clip0_1815_9998">
<rect width="58" height="55" fill="white"/>
</clipPath>
</defs>
</svg>
