<svg width="70" height="70" viewBox="0 0 70 70" fill="none" xmlns="http://www.w3.org/2000/svg">
<g id="img" clip-path="url(#clip0_8226_63085)">
<path id="Vector" d="M68.5 35C68.5 53.5015 53.5015 68.5 35 68.5C16.4985 68.5 1.5 53.5015 1.5 35C1.5 16.4985 16.4985 1.5 35 1.5C53.5015 1.5 68.5 16.4985 68.5 35Z" fill="#0E2627" stroke="#0EE6F3" stroke-width="3"/>
<g id="Mask group">
<mask id="mask0_8226_63085" style="mask-type:luminance" maskUnits="userSpaceOnUse" x="1" y="0" width="67" height="67">
<g id="Group">
<path id="Vector_2" d="M34.5 67C53.0015 67 68 52.0015 68 33.5C68 14.9985 53.0015 0 34.5 0C15.9985 0 1 14.9985 1 33.5C1 52.0015 15.9985 67 34.5 67Z" fill="white"/>
</g>
</mask>
<g mask="url(#mask0_8226_63085)">
<g id="Group_2">
<g id="Clip path group">
<mask id="mask1_8226_63085" style="mask-type:luminance" maskUnits="userSpaceOnUse" x="4" y="14" width="61" height="54">
<g id="clip0_8226_63048">
<path id="Vector_3" d="M64.8104 14.3574H4.19141V67.001H64.8104V14.3574Z" fill="white"/>
</g>
</mask>
<g mask="url(#mask1_8226_63085)">
<g id="Group_3">
<path id="Vector_4" fill-rule="evenodd" clip-rule="evenodd" d="M46.7813 21.5458C46.6793 21.5254 46.5727 21.5598 46.4953 21.6383C46.4178 21.7168 46.3789 21.8296 46.3908 21.9413L47.0561 28.1577C47.0683 28.2718 47.132 28.3702 47.2263 28.4207C47.3206 28.4713 47.4334 28.4675 47.5279 28.4106L54.7047 24.0912C54.8232 24.0199 54.8912 23.8786 54.876 23.7357C54.8608 23.5927 54.7654 23.4774 54.636 23.4457L47.4245 21.6748L47.4119 21.672L46.7813 21.5458Z" fill="#0EE6F3"/>
<path id="Vector_5" fill-rule="evenodd" clip-rule="evenodd" d="M49.3322 19.1228C49.3298 18.9396 49.1969 18.7942 49.0277 18.7895L40.0848 18.5392C39.9901 18.5365 39.8977 18.579 39.8321 18.6554C39.7665 18.7318 39.7343 18.8344 39.7439 18.936L40.4956 26.8537C40.5048 26.9513 40.5518 27.0387 40.6249 27.0947C40.6981 27.1506 40.7907 27.1698 40.88 27.1476L49.1457 25.0925C49.2991 25.0544 49.4089 24.904 49.4067 24.7351L49.3322 19.1228Z" fill="#0EE6F3"/>
<path id="Vector_6" d="M49.5285 24.9824L46.7646 25.6888L47.0645 28.2165C47.0753 28.3078 47.1933 28.3373 47.2459 28.2618L49.5285 24.9824Z" fill="#0D9199"/>
<path id="Vector_7" d="M42.5566 38.151C42.1679 38.0744 41.3585 37.6851 41.0024 37.5001L39.095 19.1902C39.0492 18.751 39.3866 18.3656 39.8279 18.3529C40.2255 18.3414 40.5645 18.6388 40.6049 19.0345L42.5566 38.151Z" fill="white"/>
<path id="Vector_8" d="M45.3712 33.747L39.8152 39.0163L29.9294 23.3359L-1.34668 74.5032H66.0678L45.3712 33.747Z" fill="#0EE6F3"/>
<path id="Vector_9" d="M39.8155 39.0163L29.9297 23.3359L31.4684 45.9257L39.8155 39.0163Z" fill="#1C757A"/>
<path id="Vector_10" d="M45.3707 33.7461L43.2998 46.1598H48.44L37.3398 74.6663L61.9195 57.6716L45.3707 33.7461Z" fill="#1C757A"/>
</g>
</g>
</g>
</g>
</g>
</g>
</g>
<defs>
<clipPath id="clip0_8226_63085">
<rect width="70" height="70" fill="white"/>
</clipPath>
</defs>
</svg>
