<svg width="18" height="18" viewBox="0 0 18 18" fill="none" xmlns="http://www.w3.org/2000/svg">
    <path d="M9.5537 1.08324L16.1811 3.71803L16.1888 3.72884L16.2759 3.8518L16.2842 3.86349V5.46661L16.1522 5.51943V12.3993L16.2759 12.5741L16.2842 12.5858V14.1889L15.5508 14.4823L15.4237 14.3101L10.8562 16.1285L10.7234 16.414L9.37379 16.9541L9.3657 16.9573H8.71839L8.71039 16.9541L7.5889 16.5053L7.41374 16.1285L2.84624 14.3101L2.67661 14.5396L1.79999 14.1889V12.6632L1.89095 12.4588L1.93218 12.4675V5.51943L1.82829 5.47795L1.79999 5.46661V3.94092L1.89095 3.73657L1.89843 3.71987L8.53048 1.08324L8.53847 1.08008H9.5457L9.5537 1.08324Z" fill="white"/>
    <path d="M16.2759 3.85169L16.1888 3.72873L16.1811 3.71792L9.55371 1.08313L9.54572 1.07997H8.53849L8.53049 1.08313L1.89844 3.71977L1.89097 3.73646L1.8 3.94081V5.4665L1.8283 5.47784L1.93219 5.51933V12.4674L1.89097 12.4587L1.8 12.6631V14.1888L2.67662 14.5395L2.84625 14.31L7.41375 16.1284L7.58892 16.5052L8.7104 16.954L8.7184 16.9571H9.36572L9.3738 16.954L10.7234 16.4139L10.8563 16.1284L15.4238 14.31L15.5508 14.4821L16.2842 14.1888V12.5856L16.1522 12.3992V5.51933L16.2842 5.4665V3.86338L16.2759 3.85169ZM16.6442 5.4665L16.5122 5.66153V12.2846L16.5698 12.3659L16.5699 12.3662L16.5782 12.3779L16.6442 12.5856V14.1888L16.4179 14.523L15.6845 14.8164L15.3582 14.7235L11.1223 16.4099L11.0499 16.5658L10.8572 16.7481L9.50757 17.2882L9.50502 17.2892L9.49694 17.2924L9.36572 17.3171H8.7184L8.58595 17.2919L8.57795 17.2888L7.45515 16.8395L7.26249 16.657L7.14762 16.4099L2.97088 14.747L2.96614 14.7535L2.54285 14.8738L1.66623 14.523L1.44 14.1888V12.6631L1.47112 12.5167L1.56208 12.3123L1.57219 12.3071V5.6618L1.44 5.4665V3.94081L1.47112 3.79438L1.56208 3.59004L1.56235 3.58942L1.56982 3.57272L1.76546 3.38525L8.39751 0.748623L8.39804 0.748359L8.40604 0.745195L8.53849 0.719971H9.54572L9.67817 0.745195L9.68616 0.748359L9.68669 0.748623L16.3141 3.38341L16.4739 3.50848L16.4816 3.51929L16.4826 3.52061L16.5697 3.64356L16.5699 3.64392L16.5782 3.65561L16.6442 3.86338V5.4665Z" fill="white"/>
    <path d="M9.5537 1.08324L16.1811 3.71803L16.1888 3.72884L16.2759 3.8518L16.2842 3.86349V5.46661L16.1522 5.51943V12.3993L16.2759 12.5741L16.2842 12.5858V14.1889L15.5508 14.4823L15.4237 14.3101L10.8562 16.1285L10.7234 16.414L9.37379 16.9541L9.3657 16.9573H8.71839L8.71039 16.9541L7.5889 16.5053L7.41374 16.1285L2.84624 14.3101L2.67661 14.5396L1.79999 14.1889V12.6632L1.89095 12.4588L1.93218 12.4675V5.51943L1.82829 5.47795L1.79999 5.46661V3.94092L1.89095 3.73657L1.89843 3.71987L8.53048 1.08324L8.53847 1.08008H9.5457L9.5537 1.08324Z" fill="black"/>
    <path d="M16.2759 3.85162L16.1888 3.72866L16.1811 3.71785L9.55371 1.08307L9.54571 1.0799H8.53848L8.53048 1.08307L1.89843 3.7197L1.89096 3.7364L1.8 3.94074V5.46644L1.8283 5.47777L1.93218 5.51926V12.4674L1.89096 12.4587L1.8 12.663V14.1887L2.67662 14.5395L2.84625 14.3099L7.41374 16.1284L7.58891 16.5051L8.7104 16.9539L8.71839 16.9571H9.36571L9.37379 16.9539L10.7234 16.4138L10.8562 16.1284L15.4237 14.3099L15.5508 14.4821L16.2842 14.1887V12.5856L16.1522 12.3992V5.51926L16.2842 5.46644V3.86331L16.2759 3.85162ZM16.4642 5.46644L16.3511 5.63352L16.3322 5.64107V12.3419L16.4228 12.4698L16.4229 12.47L16.4311 12.4817L16.4642 12.5856V14.1887L16.3511 14.3558L15.6177 14.6492L15.406 14.589L15.3613 14.5285L10.9892 16.2692L10.8867 16.4898L10.7903 16.5809L9.43936 17.1215L9.43127 17.1247L9.36571 17.1371H8.71839L8.65221 17.1244L8.64421 17.1213L8.64351 17.121L7.52203 16.6722L7.4257 16.581L7.28068 16.2692L2.90847 14.5284L2.82137 14.6464L2.60973 14.7066L1.73311 14.3558L1.62 14.1887V12.663L1.63555 12.5898L1.72652 12.3854L1.75218 12.3723V5.64116L1.73302 5.63352L1.62 5.46644V3.94074L1.63555 3.86753L1.72652 3.66318L1.72669 3.66292L1.73417 3.64622L1.8319 3.55244L8.46395 0.915811L8.4643 0.915723L8.4723 0.912559L8.53848 0.899902H9.54571L9.61189 0.912559L9.61989 0.915723L9.62024 0.915811L16.2476 3.5506L16.3275 3.61309L16.3353 3.6239L16.3357 3.6246L16.4228 3.74756L16.4229 3.74773L16.4311 3.75942L16.4642 3.86331V5.46644Z" fill="black"/>
    <path d="M9.04219 2.4751L16.1522 5.29843V13.5118L9.04219 16.3351L1.93219 13.5118V5.29843L9.04219 2.4751Z" fill="#4A4D57"/>
    <path d="M9.04219 2.4751L16.1522 5.29843V13.5118L9.04219 16.3351L1.93219 13.5118V5.29843L9.04219 2.4751Z" fill="#4A4D57"/>
    <path d="M2.02219 13.4505L8.95219 16.2024V8.18273L2.02219 5.43088V13.4505ZM9.13219 8.18273V16.2024L16.0622 13.4505V5.43088L9.13219 8.18273ZM2.176 5.29834L9.04219 8.0248L15.9083 5.29834L9.04219 2.57188L2.176 5.29834ZM16.2422 13.5728L9.04219 16.4319L1.84219 13.5728V5.23726L9.04219 2.37817L16.2422 5.23726V13.5728Z" fill="black"/>
    <path d="M16.1522 13.5117V5.29834L9.04218 8.12167L9.04218 16.335L16.1522 13.5117Z" fill="#363841"/>
    <path d="M16.2422 13.5728L8.95218 16.4675V8.06054L16.2422 5.16577V13.5728ZM9.13218 8.18271V16.2024L16.0622 13.4505V5.43085L9.13218 8.18271Z" fill="black"/>
    <path d="M8.77219 6.70508H9.31219V16.8751H8.77219V6.70508Z" fill="#57585F"/>
    <path d="M9.31219 6.70508V16.8751H8.77219V6.70508H9.31219ZM8.81719 16.8301H9.26719V6.75008H8.81719V16.8301Z" fill="black"/>
    <path d="M1.845 4.10274V5.43608L8.72709 8.18998H9.35709L16.2392 5.43608V4.10274V3.87776L16.1521 3.7548L9.53709 1.125H8.54709L1.93209 3.7548L1.845 3.95044V4.10274Z" fill="#FF8133"/>
    <path d="M16.1942 3.89205L16.123 3.79168L9.52847 1.17008H8.5557L1.96575 3.78983L1.88999 3.96008V5.40561L8.73588 8.14508H9.3483L16.1942 5.40561V3.89205ZM16.2842 5.46661L9.37379 8.23183L9.3657 8.23508H8.71839L8.71039 8.23183L1.79999 5.46661V3.94092L1.89095 3.73657L1.89843 3.71987L8.53048 1.08324L8.53847 1.08008H9.5457L9.5537 1.08324L16.1811 3.71803L16.1888 3.72884L16.2759 3.8518L16.2842 3.86349V5.46661Z" fill="black"/>
    <path d="M1.93219 3.92274L8.77219 6.64226H9.31219L16.1522 3.92274V3.7548L9.53719 1.125H8.54719L1.93219 3.7548V3.92274Z" fill="#FF8133"/>
    <path d="M1.845 4.10282V3.95052L1.93209 3.75488V3.92283L1.845 4.10282Z" fill="#FF8133"/>
    <path d="M16.1521 3.92285L9.31207 6.64237L9.35707 6.85675L16.2392 4.10285L16.1521 3.92285Z" fill="#FF8133"/>
    <path d="M16.2392 4.10282V3.87784L16.1521 3.75488V3.92283L16.2392 4.10282Z" fill="#FF8133"/>
    <path d="M9.31217 6.64233H8.77217L8.72717 6.85672H9.35717L9.31217 6.64233Z" fill="#FFB68A"/>
    <path d="M1.845 4.10278V5.43612L8.72708 8.19002L8.72709 6.85669L1.845 4.10278Z" fill="#FF8133"/>
    <path d="M1.93209 3.92285L1.845 4.10285L8.72709 6.85675L8.77209 6.64237L1.93209 3.92285Z" fill="#FFB68A"/>
    <path d="M9.35709 6.85669V8.19002L16.2392 5.43612V4.10278L9.35709 6.85669Z" fill="#E85800"/>
    <path d="M9.35708 6.85669H8.72708L8.72708 8.19002H9.35708V6.85669Z" fill="#FF9554"/>
    <path d="M9.54142 1.10254L9.54537 1.10412L16.1604 3.7339L16.1666 3.73636L16.2576 3.86477L16.2617 3.87065V5.45137L16.2476 5.45699L9.36546 8.21087L9.36142 8.21254H8.7228L8.71876 8.21087L1.83666 5.45699L1.82251 5.45137V3.94571L1.82444 3.94132L1.91154 3.74567L1.91523 3.73732L1.92376 3.7339L8.53876 1.10412L8.5428 1.10254H9.54142ZM8.74961 8.16754H9.33461V6.87915H8.74961V8.16754ZM1.86751 5.42087L8.70461 8.15673V6.87186L1.86751 4.136V5.42087ZM9.37961 6.87186V8.15673L16.2167 5.42087V4.136L9.37961 6.87186ZM8.7548 6.83415H9.32934L9.29383 6.66478H8.7903L8.7548 6.83415ZM1.87568 4.09082L8.7105 6.8258L8.74609 6.65617L1.94318 3.95143L1.87568 4.09082ZM9.33795 6.65617L9.37355 6.8258L16.2084 4.09082L16.1409 3.95143L9.33795 6.65617ZM1.95461 3.77002V3.90748L8.77642 6.61978H9.30771L16.1296 3.90748V3.77002L9.53272 1.14754H8.55142L1.95461 3.77002ZM1.86751 3.9552V4.0046L1.90961 3.9175V3.86063L1.86751 3.9552ZM16.1746 3.91768L16.2167 4.0046V3.88489L16.1746 3.82548V3.91768Z" fill="black"/>
    <path d="M16.2392 12.6V14.1583L15.5232 14.4447L15.4238 14.31L10.8563 16.1285L10.7511 16.3543L9.3571 16.9122H8.7271L7.56123 16.4457L7.41375 16.1285L2.84625 14.31L2.70431 14.5021L1.845 14.1583V12.6727L1.9321 12.4771V12.645L8.7721 15.3645H9.3121L16.1521 12.645V12.4771L16.2392 12.6Z" fill="#FF8133"/>
    <path d="M16.2759 12.5741L16.2842 12.5857V14.1889L16.2559 14.2001L15.5077 14.4995L15.4081 14.3646L10.8894 16.1637L10.7919 16.3733L10.7844 16.3895L10.7678 16.3961L9.37379 16.954L9.36579 16.9572H8.71839L8.71039 16.954L7.54452 16.4875L7.52791 16.4809L7.52044 16.4647L7.38043 16.1637L2.86179 14.3646L2.71985 14.5569L1.82829 14.2001L1.79999 14.1889V12.6632L1.89095 12.4588L1.97709 12.4771V12.6145L8.7807 15.3196H9.30347L16.1071 12.6145V12.3357L16.2759 12.5741ZM16.1687 12.6869L9.3287 15.4064L9.3207 15.4096H8.76347L8.75548 15.4064L1.91548 12.6869L1.8921 12.6775L1.88999 12.6823V14.1279L2.68865 14.4475L2.83068 14.2554L7.43035 16.0867L7.44696 16.0934L7.45452 16.1095L7.59444 16.4106L8.7357 16.8672H9.34847L10.7178 16.3192L10.8155 16.1095L10.823 16.0934L10.8396 16.0867L15.4393 14.2554L15.5388 14.3901L16.1942 14.1279V12.6767L16.1687 12.6869Z" fill="black"/>
    <path d="M9.31501 15.363H8.77501L8.73001 15.5774H9.36001L9.31501 15.363Z" fill="#FFB68A"/>
    <path d="M1.845 12.825V14.1583L2.70434 14.5022L2.84625 14.31L7.41375 16.1284L7.5613 16.4457L8.72708 16.9122L8.72709 15.5789L1.845 12.825Z" fill="#FF8133"/>
    <path d="M1.93209 12.645L1.845 12.825L8.72709 15.5789L8.77209 15.3645L1.93209 12.645Z" fill="#FFB68A"/>
    <path d="M1.93209 12.645L1.845 12.825V12.6727L1.93209 12.4771V12.645Z" fill="#FF8133"/>
    <path d="M9.35708 15.5789H8.72708L8.72708 16.9122H9.35708V15.5789Z" fill="#FF9554"/>
    <path d="M9.35709 15.5789V16.9122L10.7512 16.3543L10.8563 16.1284L15.4238 14.31L15.5233 14.4448L16.2392 14.1583V12.825L9.35709 15.5789Z" fill="#E85800"/>
    <path d="M16.1521 12.645L9.31207 15.3645L9.35707 15.5789L16.2392 12.825L16.1521 12.645Z" fill="#FF8133"/>
    <path d="M16.1521 12.645L16.2392 12.825V12.6L16.1521 12.4771V12.645Z" fill="#FF8133"/>
    <path d="M16.2576 12.5871L16.2617 12.5929V14.1736L16.2476 14.1793L15.5317 14.4658L15.5155 14.4723L15.5052 14.4583L15.4159 14.3375L10.8729 16.1461L10.7716 16.3639L10.7678 16.372L10.7596 16.3754L9.36546 16.9332L9.36142 16.9348H8.7228L8.71876 16.9332L7.55298 16.4667L7.54463 16.4634L7.54094 16.4554L7.39706 16.1461L2.85399 14.3375L2.72242 14.5157L2.71214 14.5297L2.69597 14.5232L1.83666 14.1793L1.82251 14.1736V12.6681L1.82444 12.6637L1.91154 12.468L1.95461 12.4772V12.6298L8.77642 15.3421H9.30771L16.1296 12.6298V12.4065L16.2576 12.5871ZM8.74961 16.8898H9.33461V15.6015H8.74961V16.8898ZM1.86751 14.1432L2.69649 14.4749L2.82815 14.2968L2.83844 14.2828L2.85461 14.2892L7.42211 16.1077L7.43037 16.1109L7.43415 16.1191L7.57794 16.4282L8.70461 16.8791V15.5942L1.86751 12.8583V14.1432ZM9.37961 15.5942V16.8791L10.7344 16.3369L10.8359 16.1191L10.8396 16.1109L10.8479 16.1077L15.4154 14.2892L15.4316 14.2828L15.4419 14.2968L15.531 14.4175L16.2167 14.1432V12.8583L9.37961 15.5942ZM8.7548 15.5565H9.32934L9.29383 15.3871H8.7903L8.7548 15.5565ZM9.33795 15.3785L9.37355 15.5481L16.2084 12.8131L16.1409 12.6737L9.33795 15.3785ZM1.87568 12.8131L8.7105 15.5481L8.74609 15.3785L1.94318 12.6737L1.87568 12.8131ZM1.86751 12.6775V12.7269L1.90961 12.6398V12.583L1.86751 12.6775ZM16.1746 12.6399L16.2167 12.7269V12.6072L16.1746 12.5478V12.6399Z" fill="black"/>
    <path d="M13.748 3.70242L9.40567 1.98834C9.1721 1.89614 8.91224 1.89614 8.67868 1.98834L4.33632 3.70242C4.18444 3.76238 4.18444 3.97733 4.33632 4.03728L8.67868 5.75137C8.91224 5.84356 9.1721 5.84356 9.40567 5.75137L13.748 4.03728C13.8999 3.97733 13.8999 3.76238 13.748 3.70242Z" fill="#4A4D57"/>
    <path d="M8.67864 1.98834C8.9122 1.89614 9.17211 1.89614 9.40567 1.98834L13.748 3.70238C13.8999 3.76233 13.8999 3.97729 13.748 4.03724L9.40567 5.75137L9.36155 5.76754C9.15449 5.83812 8.92982 5.83813 8.72276 5.76754L8.67864 5.75137L4.33632 4.03724C4.18445 3.97729 4.18444 3.76233 4.33632 3.70238L8.67864 1.98834ZM9.38915 2.03017C9.16621 1.94217 8.91811 1.94217 8.69517 2.03017L4.35284 3.74421C4.23893 3.78918 4.23893 3.95044 4.35284 3.99541L8.69517 5.70945C8.91811 5.79745 9.16621 5.79745 9.38915 5.70945L13.7315 3.99541C13.8454 3.95044 13.8454 3.78918 13.7315 3.74421L9.38915 2.03017Z" fill="black"/>
    <path d="M13.1443 3.78599L9.30112 2.30476C9.13447 2.24053 8.9499 2.24053 8.78325 2.30476L4.94008 3.78599C4.86324 3.8156 4.86323 3.92433 4.94008 3.95394L8.78326 5.43517C8.9499 5.4994 9.13447 5.4994 9.30112 5.43517L13.1443 3.95394C13.2211 3.92433 13.2211 3.8156 13.1443 3.78599Z" fill="#2A2B33"/>
    <path d="M8.78329 2.30476C8.94993 2.24054 9.13451 2.24053 9.30115 2.30476L13.1443 3.78598C13.2211 3.81561 13.2211 3.9243 13.1443 3.95394L9.30115 5.43516L9.26968 5.44649C9.12202 5.49567 8.96233 5.49567 8.81467 5.44649L8.78329 5.43516L4.9401 3.95394C4.86806 3.92617 4.86352 3.82884 4.92657 3.79239L4.9401 3.78598L8.78329 2.30476ZM9.28497 2.34677C9.12875 2.28656 8.95569 2.28656 8.79947 2.34677L4.95627 3.82799C4.91785 3.8428 4.91785 3.89712 4.95627 3.91192L8.79947 5.39314C8.9557 5.45335 9.12875 5.45336 9.28497 5.39314L13.1281 3.91192C13.1665 3.89712 13.1665 3.8428 13.1281 3.82799L9.28497 2.34677Z" fill="black"/>
    <path d="M8.7882 2.93069C8.95209 2.86881 9.13301 2.86881 9.29691 2.93069L12.5813 4.17074L9.30148 5.43487C9.13483 5.49909 8.95027 5.49909 8.78363 5.43487L5.50372 4.17074L8.7882 2.93069Z" fill="#1D1D26"/>
    <path d="M8.7882 2.93069C8.95209 2.86881 9.13301 2.86881 9.29691 2.93069L12.5813 4.17074L9.30148 5.43487C9.13483 5.49909 8.95027 5.49909 8.78363 5.43487L5.50372 4.17074L8.7882 2.93069ZM9.281 2.97279C9.12735 2.91478 8.95775 2.91478 8.8041 2.97279L5.62993 4.17109L8.7998 5.39285C8.95603 5.45307 9.12908 5.45307 9.28531 5.39285L12.455 4.17109L9.281 2.97279Z" fill="black"/>
    <path d="M9.85217 8.87409L10.2065 8.32206L15.13 6.36011L15.3529 6.52972V12.0111L14.9985 12.5631L10.0751 14.525L9.85217 14.3554L9.85217 8.87409Z" fill="#1D1D26"/>
    <path d="M10.2065 14.6249L15.1678 12.6479L14.9985 12.563L10.0751 14.5249L10.2065 14.6249Z" fill="#2A2B33"/>
    <path d="M15.1678 12.6479L15.5221 12.0959L15.3529 12.011L14.9985 12.563L15.1678 12.6479Z" fill="#2A2B33"/>
    <path d="M15.5222 12.096V6.61471L15.3529 6.52979V12.0111L15.5222 12.096Z" fill="#2A2B33"/>
    <path d="M15.1678 6.34497L15.5221 6.61458L15.3529 6.52965L15.1299 6.36004L15.1678 6.34497Z" fill="#4A4D57"/>
    <path d="M10.1203 14.531L10.21 14.5992L15.1129 12.6455L14.9974 12.5875L10.1203 14.531ZM10.2214 8.34021L9.87468 8.88047V14.3441L10.0785 14.4992L14.9834 12.5447L15.3304 12.0043V6.54073L15.1264 6.38552L10.2214 8.34021ZM15.031 12.554L15.1598 12.6186L15.4897 12.1047L15.3609 12.0401L15.031 12.554ZM15.3754 11.997L15.4997 12.0593V6.62836L15.3754 6.56604V11.997ZM15.5447 12.1025L15.5411 12.108L15.1867 12.66L15.1828 12.6661L15.1762 12.6688L10.2149 14.6458L10.203 14.6505L10.1929 14.6428L9.83856 14.3732L9.82968 14.3665V8.86737L9.83328 8.86184L10.1877 8.3098L10.1915 8.30373L10.1982 8.30101L15.1217 6.33911L15.1595 6.32399L15.1713 6.31934L15.1814 6.32698L15.5447 6.6034V12.1025Z" fill="black"/>
    <path d="M8.23219 14.4482V13.2287L7.52344 12.4485V10.1981L8.23219 9.80715V8.75739L7.87782 8.21117L7.05469 7.88662L6.54494 8.38038L6.37569 8.46523L4.08019 7.5837L3.8025 6.60428L2.9721 6.27686L2.73145 6.43685V7.65632L3.4402 8.43652V10.7718L2.73145 11.1628V12.1277L3.08582 12.6739L3.7273 12.9081L4.08019 12.4489L4.24944 12.3641L6.79882 13.3431L7.16113 14.2808L8.01005 14.6154L8.23219 14.4482Z" fill="#1D1D26"/>
    <path d="M2.56219 6.52186V7.74133L2.73145 7.65649V6.43701L2.56219 6.52186Z" fill="#4A4D57"/>
    <path d="M3.27094 8.5213L2.56219 7.7411L2.73145 7.65625L3.4402 8.43645L3.27094 8.5213Z" fill="#4A4D57"/>
    <path d="M3.27094 10.8566V8.52137L3.44019 8.43652V10.7718L3.27094 10.8566Z" fill="#4A4D57"/>
    <path d="M2.56219 11.2476L3.27094 10.8566L3.4402 10.7717L2.73145 11.1627L2.56219 11.2476Z" fill="#4A4D57"/>
    <path d="M2.56219 11.2477V12.2126L2.73145 12.1278V11.1628L2.56219 11.2477Z" fill="#4A4D57"/>
    <path d="M2.56219 12.2125L2.91657 12.7588L3.08582 12.6739L2.73145 12.1277L2.56219 12.2125Z" fill="#4A4D57"/>
    <path d="M2.91656 12.7587L3.63325 13.0232L3.7273 12.908L3.08582 12.6738L2.91656 12.7587Z" fill="#4A4D57"/>
    <path d="M6.79881 13.343L4.24942 12.364L4.08017 12.4489L6.62955 13.4278L6.79881 13.343Z" fill="#4A4D57"/>
    <path d="M6.62958 13.4279L6.99189 14.3656L7.16114 14.2807L6.79883 13.343L6.62958 13.4279Z" fill="#4A4D57"/>
    <path d="M6.99188 14.3656L7.87782 14.7149L8.01005 14.6154L7.16114 14.2808L6.99188 14.3656Z" fill="#4A4D57"/>
    <path d="M2.92481 6.23415L3.81075 6.58343L3.82112 6.58756L3.82411 6.59828L4.09876 7.56684L6.37021 8.43915L6.97613 7.84589L6.9865 7.83569L7.06296 7.86575L7.89274 8.19297L7.89669 8.19903L8.25107 8.74527L8.25467 8.75081V9.82053L8.24307 9.82694L7.54592 10.2116V12.4399L8.24878 13.2137L8.25467 13.2201V14.4596L8.24571 14.4662L7.89133 14.7331L7.88123 14.7406L7.86954 14.736L6.9836 14.3867L6.97446 14.383L6.97085 14.3739L6.61209 13.4454L4.08769 12.4761L3.74509 12.9219L3.74474 12.9225L3.6507 13.0376L3.6405 13.05L2.90873 12.78L2.90178 12.7773L2.89765 12.7711L2.54328 12.2249L2.53967 12.2193V11.2344L2.55127 11.228L3.24842 10.8434V8.53012L2.54556 7.75642L2.53967 7.75V6.51057L2.54864 6.5038L2.90301 6.23705L2.91312 6.22949L2.92481 6.23415ZM7.04697 14.3632L7.87428 14.6895L7.96437 14.6217L7.16219 14.3054L7.04697 14.3632ZM6.65788 13.4389L7.0039 14.3345L7.13275 14.2699L6.78672 13.3743L6.65788 13.4389ZM4.13577 12.4463L6.62835 13.4034L6.74313 13.3458L4.25055 12.3887L4.13577 12.4463ZM2.97297 12.7556L3.62591 12.9966L3.68981 12.9184L3.08714 12.6984L2.97297 12.7556ZM2.59469 12.2214L2.92446 12.7296L3.05313 12.6651L2.72345 12.1568L2.59469 12.2214ZM2.58467 11.2616V12.1762L2.70895 12.1139V11.1993L2.58467 11.2616ZM3.29342 8.53539V10.8203L3.4177 10.758V8.47299L3.29342 8.53539ZM2.59874 7.74807L3.27602 8.49373L3.40355 8.42983L2.72618 7.68417L2.59874 7.74807ZM6.49414 8.3807L6.53175 8.36189L7.01392 7.89484L6.99713 7.88816L6.49414 8.3807ZM2.58467 6.5357V7.70482L2.70895 7.64251V6.4733L2.58467 6.5357ZM2.87559 6.31396L2.92367 6.28205L2.91998 6.28056L2.87559 6.31396ZM3.4627 10.7852L3.45101 10.7916L2.75395 11.1761V12.1212L3.1005 12.6554L3.71943 12.8813L4.06229 12.4354L4.06545 12.4312L4.07011 12.4289L4.2393 12.3441L4.24818 12.3396L4.2575 12.3432L6.80685 13.3222L6.81617 13.3258L7.17854 14.2636L8.00656 14.5899L8.20967 14.437V13.2375L7.50681 12.4637L7.50092 12.4573V10.1849L7.51252 10.1785L8.20967 9.7939V8.76408L7.86277 8.22953L7.05989 7.91295L6.56058 8.39661L6.55812 8.39907L6.55504 8.40057L6.38577 8.48547L6.37689 8.48986L6.36757 8.48635L4.06159 7.60076L3.78385 6.62122L2.97473 6.30218L2.75395 6.44896V7.6477L3.45681 8.42148L3.4627 8.4279V10.7852Z" fill="black"/>
    <path d="M7.92001 10.5373C7.92001 10.5028 7.93972 10.4714 7.97075 10.4563L8.06075 10.4127C8.12052 10.3837 8.19001 10.4273 8.19001 10.4937V12.3874C8.19001 12.4669 8.09444 12.5073 8.03736 12.452L7.94736 12.3647C7.92988 12.3478 7.92001 12.3245 7.92001 12.3001V10.5373Z" fill="#FF8133"/>
    <path d="M8.14501 10.4936C8.145 10.4604 8.11029 10.4387 8.08041 10.4532L7.99041 10.4968C7.9749 10.5043 7.96501 10.5201 7.96501 10.5373V12.3001C7.96501 12.3122 7.96998 12.3239 7.97872 12.3324L8.06872 12.4197C8.09727 12.4473 8.14501 12.4271 8.14501 12.3873V10.4936ZM8.19001 12.3873C8.19001 12.4619 8.10604 12.5021 8.04851 12.4612L8.03735 12.452L7.94735 12.3647C7.92987 12.3478 7.92001 12.3244 7.92001 12.3001V10.5373C7.92001 10.5028 7.9397 10.4713 7.97073 10.4563L8.06073 10.4127C8.12049 10.3837 8.19 10.4272 8.19001 10.4936V12.3873Z" fill="black"/>
    <path d="M2.87999 10.5289C2.87999 10.5641 2.85942 10.5961 2.82737 10.6108L2.73737 10.6519C2.67777 10.6791 2.60999 10.6355 2.60999 10.57V8.66757C2.60999 8.58881 2.704 8.54804 2.7615 8.60187L2.8515 8.68614C2.86967 8.70315 2.87999 8.72694 2.87999 8.75183V10.5289Z" fill="#FF8133"/>
    <path d="M2.60999 8.66754C2.60999 8.58878 2.70401 8.54805 2.76151 8.60188L2.85151 8.68608C2.86968 8.7031 2.87999 8.72693 2.87999 8.75182V10.5289L2.87902 10.5419C2.87464 10.5718 2.85538 10.5979 2.82734 10.6107L2.73734 10.6518L2.72609 10.6561C2.66953 10.6735 2.60999 10.6314 2.60999 10.5699V8.66754ZM2.65499 10.5699C2.65499 10.6027 2.6889 10.6245 2.71871 10.6109L2.80871 10.5698C2.8247 10.5624 2.83497 10.5465 2.83499 10.5289V8.75182C2.83499 8.73938 2.82983 8.72746 2.82075 8.71895L2.73075 8.63466C2.702 8.60776 2.65499 8.62816 2.65499 8.66754V10.5699Z" fill="black"/>
    <path d="M3.0122 3.78002C3.0122 3.85458 2.89132 3.91502 2.7422 3.91502C2.59308 3.91502 2.4722 3.85458 2.4722 3.78002C2.4722 3.70546 2.59308 3.64502 2.7422 3.64502C2.89132 3.64502 3.0122 3.70546 3.0122 3.78002Z" fill="#8A8A8A"/>
    <path d="M3.0122 3.77993C3.0122 3.70537 2.89132 3.64493 2.7422 3.64493C2.59309 3.64493 2.4722 3.70537 2.4722 3.77993C2.4722 3.85449 2.59309 3.91493 2.7422 3.91493C2.89132 3.91493 3.0122 3.85449 3.0122 3.77993ZM3.1022 3.77993C3.1022 3.86967 3.03178 3.92667 2.97335 3.95589C2.90955 3.98779 2.8277 4.00493 2.7422 4.00493C2.65671 4.00493 2.57486 3.98779 2.51105 3.95589C2.45262 3.92667 2.3822 3.86967 2.3822 3.77993C2.3822 3.6902 2.45262 3.63319 2.51105 3.60397C2.57486 3.57207 2.65671 3.55493 2.7422 3.55493C2.8277 3.55493 2.90955 3.57207 2.97335 3.60397C3.03178 3.63319 3.1022 3.6902 3.1022 3.77993Z" fill="black"/>
    <path d="M2.92219 3.6901C2.92219 3.7398 2.84161 3.7801 2.74219 3.7801C2.64278 3.7801 2.56219 3.7398 2.56219 3.6901C2.56219 3.64039 2.64278 3.6001 2.74219 3.6001C2.84161 3.6001 2.92219 3.64039 2.92219 3.6901Z" fill="#8A8A8A"/>
    <path d="M2.89967 3.68989C2.89967 3.67816 2.88958 3.66147 2.85942 3.64639C2.83058 3.63197 2.78914 3.62239 2.74217 3.62239C2.6952 3.62239 2.65376 3.63197 2.62493 3.64639C2.59477 3.66147 2.58467 3.67816 2.58467 3.68989C2.58467 3.70163 2.59477 3.71831 2.62493 3.7334C2.65376 3.74782 2.6952 3.75739 2.74217 3.75739C2.78914 3.75739 2.83058 3.74782 2.85942 3.7334C2.88958 3.71831 2.89967 3.70163 2.89967 3.68989ZM2.94467 3.68989C2.94467 3.72785 2.9145 3.75617 2.87955 3.77365C2.84323 3.79181 2.79461 3.80239 2.74217 3.80239C2.68973 3.80239 2.64111 3.79181 2.6048 3.77365C2.56985 3.75617 2.53967 3.72785 2.53967 3.68989C2.53967 3.65194 2.56985 3.62362 2.6048 3.60613C2.64111 3.58798 2.68973 3.57739 2.74217 3.57739C2.79461 3.57739 2.84323 3.58798 2.87955 3.60613C2.9145 3.62362 2.94467 3.65194 2.94467 3.68989Z" fill="black"/>
    <path d="M15.6122 3.78002C15.6122 3.85458 15.4913 3.91502 15.3422 3.91502C15.1931 3.91502 15.0722 3.85458 15.0722 3.78002C15.0722 3.70546 15.1931 3.64502 15.3422 3.64502C15.4913 3.64502 15.6122 3.70546 15.6122 3.78002Z" fill="#8A8A8A"/>
    <path d="M15.6122 3.77993C15.6122 3.70537 15.4913 3.64493 15.3422 3.64493C15.1931 3.64493 15.0722 3.70537 15.0722 3.77993C15.0722 3.85449 15.1931 3.91493 15.3422 3.91493C15.4913 3.91493 15.6122 3.85449 15.6122 3.77993ZM15.7022 3.77993C15.7022 3.86967 15.6318 3.92667 15.5733 3.95589C15.5095 3.98779 15.4277 4.00493 15.3422 4.00493C15.2567 4.00493 15.1748 3.98779 15.111 3.95589C15.0526 3.92667 14.9822 3.86967 14.9822 3.77993C14.9822 3.6902 15.0526 3.63319 15.111 3.60397C15.1748 3.57207 15.2567 3.55493 15.3422 3.55493C15.4277 3.55493 15.5095 3.57207 15.5733 3.60397C15.6318 3.63319 15.7022 3.6902 15.7022 3.77993Z" fill="black"/>
    <path d="M15.5222 3.6901C15.5222 3.7398 15.4416 3.7801 15.3422 3.7801C15.2428 3.7801 15.1622 3.7398 15.1622 3.6901C15.1622 3.64039 15.2428 3.6001 15.3422 3.6001C15.4416 3.6001 15.5222 3.64039 15.5222 3.6901Z" fill="#8A8A8A"/>
    <path d="M15.4997 3.68989C15.4997 3.67816 15.4896 3.66147 15.4594 3.64639C15.4306 3.63197 15.3891 3.62239 15.3422 3.62239C15.2952 3.62239 15.2538 3.63197 15.2249 3.64639C15.1948 3.66147 15.1847 3.67816 15.1847 3.68989C15.1847 3.70163 15.1948 3.71831 15.2249 3.7334C15.2538 3.74782 15.2952 3.75739 15.3422 3.75739C15.3891 3.75739 15.4306 3.74782 15.4594 3.7334C15.4896 3.71831 15.4997 3.70163 15.4997 3.68989ZM15.5447 3.68989C15.5447 3.72785 15.5145 3.75617 15.4796 3.77365C15.4432 3.79181 15.3946 3.80239 15.3422 3.80239C15.2897 3.80239 15.2411 3.79181 15.2048 3.77365C15.1699 3.75617 15.1397 3.72785 15.1397 3.68989C15.1397 3.65194 15.1699 3.62362 15.2048 3.60613C15.2411 3.58798 15.2897 3.57739 15.3422 3.57739C15.3946 3.57739 15.4432 3.58798 15.4796 3.60613C15.5145 3.62362 15.5447 3.65194 15.5447 3.68989Z" fill="black"/>
    <path d="M9.31219 6.20995C9.31219 6.28451 9.1913 6.34495 9.04219 6.34495C8.89307 6.34495 8.77219 6.28451 8.77219 6.20995C8.77219 6.13539 8.89307 6.07495 9.04219 6.07495C9.1913 6.07495 9.31219 6.13539 9.31219 6.20995Z" fill="#8A8A8A"/>
    <path d="M9.31219 6.21011C9.31219 6.13555 9.19131 6.07511 9.04219 6.07511C8.89307 6.07511 8.77219 6.13555 8.77219 6.21011C8.77219 6.28467 8.89307 6.34511 9.04219 6.34511C9.19131 6.34511 9.31219 6.28467 9.31219 6.21011ZM9.40219 6.21011C9.40219 6.29984 9.33177 6.35685 9.27334 6.38606C9.20953 6.41797 9.12769 6.43511 9.04219 6.43511C8.95669 6.43511 8.87485 6.41797 8.81104 6.38606C8.75261 6.35685 8.68219 6.29984 8.68219 6.21011C8.68219 6.12037 8.75261 6.06336 8.81104 6.03415C8.87485 6.00225 8.95669 5.98511 9.04219 5.98511C9.12769 5.98511 9.20953 6.00225 9.27334 6.03415C9.33177 6.06336 9.40219 6.12037 9.40219 6.21011Z" fill="black"/>
    <path d="M9.22218 6.12003C9.22218 6.16973 9.14159 6.21003 9.04218 6.21003C8.94277 6.21003 8.86218 6.16973 8.86218 6.12003C8.86218 6.07032 8.94277 6.03003 9.04218 6.03003C9.14159 6.03003 9.22218 6.07032 9.22218 6.12003Z" fill="#8A8A8A"/>
    <path d="M9.19969 6.12007C9.19969 6.10833 9.1896 6.09165 9.15944 6.07656C9.1306 6.06214 9.08916 6.05257 9.04219 6.05257C8.99522 6.05257 8.95378 6.06214 8.92495 6.07656C8.89478 6.09165 8.88469 6.10833 8.88469 6.12007C8.88469 6.1318 8.89478 6.14849 8.92495 6.16357C8.95378 6.17799 8.99522 6.18757 9.04219 6.18757C9.08916 6.18757 9.1306 6.17799 9.15944 6.16357C9.1896 6.14849 9.19969 6.1318 9.19969 6.12007ZM9.24469 6.12007C9.24469 6.15802 9.21452 6.18634 9.17956 6.20383C9.14325 6.22198 9.09463 6.23257 9.04219 6.23257C8.98975 6.23257 8.94113 6.22198 8.90482 6.20383C8.86986 6.18634 8.83969 6.15802 8.83969 6.12007C8.83969 6.08211 8.86986 6.05379 8.90482 6.03631C8.94113 6.01815 8.98975 6.00757 9.04219 6.00757C9.09463 6.00757 9.14325 6.01815 9.17956 6.03631C9.21452 6.05379 9.24469 6.08211 9.24469 6.12007Z" fill="black"/>
    <path d="M9.31219 1.43993C9.31219 1.51449 9.1913 1.57493 9.04219 1.57493C8.89307 1.57493 8.77219 1.51449 8.77219 1.43993C8.77219 1.36537 8.89307 1.30493 9.04219 1.30493C9.1913 1.30493 9.31219 1.36537 9.31219 1.43993Z" fill="#8A8A8A"/>
    <path d="M9.31219 1.44009C9.31219 1.36553 9.19131 1.30509 9.04219 1.30509C8.89307 1.30509 8.77219 1.36553 8.77219 1.44009C8.77219 1.51465 8.89307 1.57509 9.04219 1.57509C9.19131 1.57509 9.31219 1.51465 9.31219 1.44009ZM9.40219 1.44009C9.40219 1.52982 9.33177 1.58683 9.27334 1.61604C9.20953 1.64795 9.12769 1.66509 9.04219 1.66509C8.95669 1.66509 8.87485 1.64795 8.81104 1.61604C8.75261 1.58683 8.68219 1.52982 8.68219 1.44009C8.68219 1.35035 8.75261 1.29334 8.81104 1.26413C8.87485 1.23223 8.95669 1.21509 9.04219 1.21509C9.12769 1.21509 9.20953 1.23223 9.27334 1.26413C9.33177 1.29334 9.40219 1.35035 9.40219 1.44009Z" fill="black"/>
    <path d="M9.22218 1.35001C9.22218 1.39972 9.14159 1.44001 9.04218 1.44001C8.94277 1.44001 8.86218 1.39972 8.86218 1.35001C8.86218 1.3003 8.94277 1.26001 9.04218 1.26001C9.14159 1.26001 9.22218 1.3003 9.22218 1.35001Z" fill="#8A8A8A"/>
    <path d="M9.19969 1.35005C9.19969 1.33831 9.1896 1.32163 9.15944 1.30654C9.1306 1.29213 9.08916 1.28255 9.04219 1.28255C8.99522 1.28255 8.95378 1.29213 8.92495 1.30654C8.89478 1.32163 8.88469 1.33831 8.88469 1.35005C8.88469 1.36178 8.89478 1.37847 8.92495 1.39355C8.95378 1.40797 8.99522 1.41755 9.04219 1.41755C9.08916 1.41755 9.1306 1.40797 9.15944 1.39355C9.1896 1.37847 9.19969 1.36178 9.19969 1.35005ZM9.24469 1.35005C9.24469 1.38801 9.21452 1.41632 9.17956 1.43381C9.14325 1.45196 9.09463 1.46255 9.04219 1.46255C8.98975 1.46255 8.94113 1.45196 8.90482 1.43381C8.86986 1.41632 8.83969 1.38801 8.83969 1.35005C8.83969 1.31209 8.86986 1.28377 8.90482 1.26629C8.94113 1.24813 8.98975 1.23755 9.04219 1.23755C9.09463 1.23755 9.14325 1.24813 9.17956 1.26629C9.21452 1.28377 9.24469 1.31209 9.24469 1.35005Z" fill="black"/>
    <path d="M5.95203 12.1606V11.6677L6.41562 11.8371V12.33L5.95203 12.1606Z" fill="#FDFF7D"/>
    <path d="M5.95203 10.6374V10.1445L6.41562 10.3139V10.8068L5.95203 10.6374Z" fill="#FDFF7D"/>
    <path d="M5.55467 11.4982V11.0054L5.95203 11.1748V11.6676L5.55467 11.4982Z" fill="#FDFF7D"/>
    <path d="M5.55467 9.97503V9.48218L5.95203 9.65159V10.1444L5.55467 9.97503Z" fill="#FDFF7D"/>
    <path d="M5.0911 10.8361V10.3433L5.55469 10.5127V11.0055L5.0911 10.8361Z" fill="#FDFF7D"/>
    <path d="M5.0911 9.31292V8.82007L5.55469 8.98948V9.48233L5.0911 9.31292Z" fill="#FDFF7D"/>
    <path d="M4.69374 11.1672V10.6743L5.09109 10.8437V11.3366L4.69374 11.1672Z" fill="#FDFF7D"/>
    <path d="M4.69374 9.64397V9.15112L5.09109 9.32054V9.81339L4.69374 9.64397Z" fill="#FDFF7D"/>
    <path d="M4.23014 11.4982V11.0054L4.69373 11.1748V11.6676L4.23014 11.4982Z" fill="#FDFF7D"/>
    <path d="M4.23014 9.97503V9.48218L4.69373 9.65159V10.1444L4.23014 9.97503Z" fill="#FDFF7D"/>
    <path d="M12.51 9.62409V8.85864L11.79 9.12177V9.88721L12.51 9.62409Z" fill="#FDFF7D"/>
    <path d="M13.23 10.9612V10.1958L12.51 10.4589V11.2244L13.23 10.9612Z" fill="#FDFF7D"/>
    <path d="M13.23 12.504V11.7385L12.51 12.0016V12.7671L13.23 12.504Z" fill="#FDFF7D"/>
    <path d="M13.23 8.59553V7.83008L12.51 8.0932V8.85865L13.23 8.59553Z" fill="#FDFF7D"/>
    <path d="M13.95 9.10969V8.34424L13.23 8.60736V9.37281L13.95 9.10969Z" fill="#FDFF7D"/>
    <path d="M13.95 9.93269V9.16724L13.23 9.43036V10.1958L13.95 9.93269Z" fill="#FDFF7D"/>
</svg>
