<svg width="40" height="40" viewBox="0 0 40 40" fill="none" xmlns="http://www.w3.org/2000/svg">
<g clip-path="url(#clip0_1657_34229)">
<circle cx="20" cy="20" r="20" fill="#1D1D26"/>
<path fill-rule="evenodd" clip-rule="evenodd" d="M20.2477 13.1872C19.403 11.8716 17.9272 11 16.2477 11C14.7289 11 13.4977 12.2312 13.4977 13.75C13.4977 15.2688 14.7289 16.5 16.2477 16.5H20.2477H24.2477C25.7665 16.5 26.9977 15.2688 26.9977 13.75C26.9977 12.2312 25.7665 11 24.2477 11C22.5682 11 21.0923 11.8716 20.2477 13.1872ZM16.2477 15H19.4107C19.0721 13.5666 17.7845 12.5 16.2477 12.5C15.5573 12.5 14.9977 13.0596 14.9977 13.75C14.9977 14.4404 15.5573 15 16.2477 15ZM24.2477 15H21.0846C21.4232 13.5666 22.7109 12.5 24.2477 12.5C24.938 12.5 25.4977 13.0596 25.4977 13.75C25.4977 14.4404 24.938 15 24.2477 15Z" fill="#DE6150"/>
<path d="M10.2477 17C10.2477 15.8954 11.1431 15 12.2477 15H28.2477C29.3522 15 30.2477 15.8954 30.2477 17V19C30.2477 20.1046 29.3522 21 28.2477 21H12.2477C11.1431 21 10.2477 20.1046 10.2477 19V17Z" fill="#F5BE45"/>
<path d="M12.2477 21H28.2477V29C28.2477 30.1046 27.3522 31 26.2477 31H14.2477C13.1431 31 12.2477 30.1046 12.2477 29V21Z" fill="#F5BF47"/>
<rect x="12.0657" y="21" width="16.3636" height="1.81818" fill="#D07815"/>
<rect x="19.3384" y="14.6367" width="1.81818" height="16.3636" fill="#DE6150"/>
<rect x="11.1152" y="7" width="1.07107" height="1.37368" transform="rotate(39.1702 11.1152 7)" fill="#0EE6F3"/>
<rect x="34.2776" y="22" width="1.27158" height="1.63085" transform="rotate(39.1702 34.2776 22)" fill="#0EE6F3"/>
<rect x="7.95679" y="28" width="0.950928" height="1.12298" transform="rotate(39.1702 7.95679 28)" fill="#9737F1"/>
<rect x="30.6704" y="9.70508" width="1.31073" height="1.29462" transform="rotate(30.4155 30.6704 9.70508)" fill="#EF6A9D"/>
<rect x="6.76221" y="23.832" width="1.20613" height="1.47864" transform="rotate(31.0335 6.76221 23.832)" fill="#0EF393"/>
<rect x="31.9167" y="29" width="1.3381" height="1.32166" transform="rotate(30.4155 31.9167 29)" fill="#EF6A9D"/>
</g>
<defs>
<clipPath id="clip0_1657_34229">
<rect width="40" height="40" fill="white"/>
</clipPath>
</defs>
</svg>
