<svg width="80" height="82" viewBox="0 0 80 82" fill="none" xmlns="http://www.w3.org/2000/svg">
<g filter="url(#filter0_d_795_3846)">
<path d="M0 39.0005C0 17.4611 17.4611 0 39.0005 0C60.5399 0 78.001 17.4611 78.001 39.0005C78.001 60.5399 60.5399 78.001 39.0005 78.001C17.4611 78.001 0 60.5399 0 39.0005Z" fill="white"/>
<path d="M1 39.0005C1 18.0134 18.0134 1 39.0005 1C59.9876 1 77.001 18.0134 77.001 39.0005C77.001 59.9876 59.9876 77.001 39.0005 77.001C18.0134 77.001 1 59.9876 1 39.0005Z" stroke="black" stroke-width="2"/>
</g>
<path fill-rule="evenodd" clip-rule="evenodd" d="M39.5417 7.60757C39.8515 7.59835 40.1625 7.5937 40.4745 7.5937C57.466 7.5937 71.2403 21.368 71.2403 38.3595C71.2403 50.4541 64.2614 60.9186 54.1109 65.9458L56.8388 70.8371C68.7 64.8489 76.834 52.5541 76.834 38.3595C76.834 18.2787 60.5553 2 40.4745 2C40.1627 2 39.8517 2.00393 39.5417 2.01173V7.60757Z" fill="#0EE6F3"/>
<rect x="27" y="27" width="24" height="24" fill="black"/>
<defs>
<filter id="filter0_d_795_3846" x="0" y="0" width="80.001" height="82.001" filterUnits="userSpaceOnUse" color-interpolation-filters="sRGB">
<feFlood flood-opacity="0" result="BackgroundImageFix"/>
<feColorMatrix in="SourceAlpha" type="matrix" values="0 0 0 0 0 0 0 0 0 0 0 0 0 0 0 0 0 0 127 0" result="hardAlpha"/>
<feOffset dx="2" dy="4"/>
<feComposite in2="hardAlpha" operator="out"/>
<feColorMatrix type="matrix" values="0 0 0 0 0 0 0 0 0 0 0 0 0 0 0 0 0 0 1 0"/>
<feBlend mode="normal" in2="BackgroundImageFix" result="effect1_dropShadow_795_3846"/>
<feBlend mode="normal" in="SourceGraphic" in2="effect1_dropShadow_795_3846" result="shape"/>
</filter>
</defs>
</svg>
