<svg width="80" height="80" viewBox="0 0 80 80" fill="none" xmlns="http://www.w3.org/2000/svg">
<circle cx="39.9577" cy="39.9577" r="39.9577" fill="#1D1D26"/>
<path d="M44.3329 21.3125C46.7571 21.3125 48.7224 19.3903 48.7224 17.019C48.7224 14.6478 46.7571 12.7256 44.3329 12.7256C41.9086 12.7256 39.9434 14.6478 39.9434 17.019C39.9434 19.3903 41.9086 21.3125 44.3329 21.3125Z" fill="#54F5FF"/>
<path d="M33.8898 36.1807L33.2764 43.9064C33.2008 44.8187 32.8395 45.6899 32.2345 46.3967L27.3945 52.0184" stroke="#1C6C71" stroke-width="4" stroke-linecap="round" stroke-linejoin="round"/>
<path d="M39.183 24.5635L33.9146 33.2179C33.2255 34.3439 33.5616 35.7987 34.6624 36.5301L42.897 42.0203L41.8287 51.5148" stroke="#54F5FF" stroke-width="4" stroke-linecap="round" stroke-linejoin="round"/>
<path d="M26.4822 66.9542L32.1905 59.3432L49.4553 57.6982L52.3313 45.6623L67.4915 39.3645" stroke="#27A7AF" stroke-width="4" stroke-linecap="round" stroke-linejoin="round"/>
</svg>
