<svg width="30" height="30" viewBox="0 0 30 30" fill="none" xmlns="http://www.w3.org/2000/svg">
    <path d="M28.75 9.6199C28.75 8.3515 28.2461 7.13506 27.3492 6.23816C26.4523 5.34127 25.2359 4.8374 23.9675 4.8374H6.0325C4.7641 4.8374 3.54765 5.34127 2.65076 6.23816C1.75387 7.13506 1.25 8.3515 1.25 9.6199V12.0112H28.75V9.6199Z" fill="#C77F67"/>
    <path d="M23.9675 4.8374H6.0325C4.7641 4.8374 3.54765 5.34127 2.65076 6.23816C1.75387 7.13506 1.25 8.3515 1.25 9.6199V12.0112H1.4C1.66503 10.9841 2.26394 10.0744 3.10254 9.42493C3.94114 8.7755 4.97184 8.42327 6.0325 8.42365H23.9675C25.0282 8.42327 26.0589 8.7755 26.8975 9.42493C27.7361 10.0744 28.335 10.9841 28.6 12.0112H28.75V9.6199C28.75 8.3515 28.2461 7.13506 27.3492 6.23816C26.4523 5.34127 25.2359 4.8374 23.9675 4.8374Z" fill="#E3BFB3"/>
    <path d="M28.75 9.6199C28.75 8.3515 28.2461 7.13506 27.3492 6.23816C26.4523 5.34127 25.2359 4.8374 23.9675 4.8374H6.0325C4.7641 4.8374 3.54765 5.34127 2.65076 6.23816C1.75387 7.13506 1.25 8.3515 1.25 9.6199V12.0112H28.75V9.6199Z" stroke="#191919" stroke-linecap="round" stroke-linejoin="round"/>
    <path d="M12.0113 4.8374C8.42383 4.8374 8.42383 9.6199 8.42383 9.6199V12.0112M17.9913 4.8374C21.5788 4.8374 21.5788 9.6199 21.5788 9.6199V12.0112" stroke="#191919" stroke-linecap="round" stroke-linejoin="round"/>
    <path d="M28.75 12.0112V14.4025H17.9888C17.8305 14.4031 17.6789 14.4663 17.567 14.5782C17.4551 14.6901 17.3919 14.8417 17.3913 15V15.5975C17.3867 16.2303 17.1333 16.8358 16.6858 17.2833C16.2383 17.7307 15.6328 17.9841 15 17.9887C14.3665 17.9864 13.7596 17.7338 13.3117 17.2858C12.8637 16.8379 12.6111 16.231 12.6087 15.5975V15C12.6081 14.8417 12.5449 14.6901 12.433 14.5782C12.3211 14.4663 12.1695 14.4031 12.0113 14.4025H1.25V12.0112H28.75Z" fill="#E3E3E3" stroke="#191919" stroke-linecap="round" stroke-linejoin="round"/>
    <path d="M28.75 14.4023V22.7711C28.7477 23.4046 28.495 24.0115 28.0471 24.4594C27.5991 24.9074 26.9922 25.16 26.3587 25.1623H3.64125C3.00776 25.16 2.40088 24.9074 1.95293 24.4594C1.50498 24.0115 1.25231 23.4046 1.25 22.7711V14.4023H12.0113C12.1695 14.403 12.3211 14.4662 12.433 14.5781C12.5449 14.69 12.6081 14.8416 12.6087 14.9998V15.5973C12.6111 16.2308 12.8637 16.8377 13.3117 17.2857C13.7596 17.7336 14.3665 17.9863 15 17.9886C15.6328 17.984 16.2383 17.7306 16.6858 17.2831C17.1333 16.8357 17.3867 16.2301 17.3913 15.5973V14.9998C17.3919 14.8416 17.4551 14.69 17.567 14.5781C17.6789 14.4662 17.8305 14.403 17.9888 14.4023H28.75Z" fill="#C77F67" stroke="#191919" stroke-linecap="round" stroke-linejoin="round"/>
    <path d="M15.0013 14.4023V15.5973M8.42505 14.4023V25.1623M21.5775 14.4023V25.1623" stroke="#191919" stroke-linecap="round" stroke-linejoin="round"/>
</svg>
