<svg width="34" height="34" viewBox="0 0 34 34" fill="none" xmlns="http://www.w3.org/2000/svg">
<path d="M16.9125 32.9976C14.802 32.9976 12.8529 32.4773 11.1131 31.4479C4.99763 27.8303 3.66491 18.9989 8.14522 11.7617C11.2428 6.75678 16.3849 3.64844 21.5611 3.64844C23.6716 3.64844 25.6207 4.16872 27.3605 5.19816C33.476 8.81566 34.8087 17.6471 30.3284 24.8843C27.2309 29.8892 22.091 32.9998 16.9125 32.9998V32.9976Z" fill="#13B7AE"/>
<path d="M21.5616 2.98242V4.31647C23.5448 4.31647 25.3756 4.80563 27.0062 5.76837C32.8011 9.19466 34.0292 17.6147 29.7445 24.5385C28.2594 26.9398 26.2444 28.9364 23.9178 30.3127C21.6845 31.6334 19.2624 32.3316 16.913 32.3316C14.9299 32.3316 13.0968 31.8424 11.4685 30.8797C8.70295 29.2432 6.88126 26.4195 6.33771 22.9265C5.78052 19.3423 6.63109 15.5025 8.73024 12.1096C10.2153 9.70827 12.2303 7.71164 14.5569 6.33534C16.7902 5.01463 19.2123 4.31647 21.5616 4.31647V2.98242ZM21.5616 2.98242C16.3559 2.98242 10.8726 6.07075 7.56127 11.4203C2.88083 18.9844 4.31134 28.2093 10.7612 32.0225C12.6488 33.1387 14.757 33.6678 16.913 33.6678C22.1188 33.6678 27.6021 30.5795 30.9134 25.23C35.5939 17.6659 34.1633 8.44092 27.7135 4.62775C25.8259 3.5116 23.7176 2.98242 21.5616 2.98242Z" fill="black"/>
<path d="M12.4372 30.3514C10.3266 30.3514 8.3776 29.8311 6.63778 28.8016C0.522285 25.1841 -0.808161 16.3527 3.66987 9.11548C6.76742 4.11056 11.9095 1 17.0858 1C19.1963 1 21.1453 1.52028 22.8851 2.54972C29.0006 6.16723 30.3334 14.9987 25.8531 22.2359C22.7555 27.2408 17.6157 30.3514 12.4372 30.3514Z" fill="#76FFFB"/>
<path d="M17.0859 0.333984V1.66804C19.069 1.66804 20.8998 2.15719 22.5305 3.11993C25.296 4.75637 27.1177 7.58011 27.6612 11.0731C28.2184 14.6573 27.3678 18.4971 25.2687 21.89C23.7836 24.2913 21.7686 26.288 19.442 27.6643C17.2087 28.985 14.7866 29.6831 12.4373 29.6831C10.4541 29.6831 8.62107 29.194 6.9927 28.2312C1.19787 24.8049 -0.0302322 16.3848 4.25448 9.46112C5.73958 7.05983 7.75458 5.0632 10.0812 3.6869C12.3145 2.36619 14.7366 1.66804 17.0859 1.66804V0.333984ZM17.0859 0.333984C11.8801 0.333984 6.39684 3.42231 3.08779 8.77186C-1.59493 16.3359 -0.16214 25.5587 6.2854 29.3741C8.17304 30.4902 10.2813 31.0194 12.4373 31.0194C17.6431 31.0194 23.1263 27.9311 26.4377 22.5815C31.1181 15.0174 29.6876 5.79248 23.2378 1.97931C21.3501 0.863158 19.2419 0.333984 17.0859 0.333984Z" fill="black"/>
<path d="M6.35451 28.3601L5.88367 29.1211L11.4802 32.4308L11.951 31.6698L6.35451 28.3601Z" fill="black"/>
<path d="M23.1767 1.97963L22.4705 3.12109L28.067 6.43078L28.7733 5.28932L23.1767 1.97963Z" fill="black"/>
<path d="M27.8365 7.16323L27.1302 8.30469L31.4814 10.8779L32.1876 9.7364L27.8365 7.16323Z" fill="black"/>
<path d="M28.7463 11.6105L28.04 12.752L32.3912 15.3251L33.0974 14.1837L28.7463 11.6105Z" fill="black"/>
<path d="M28.7448 16.5011L28.0386 17.6426L32.3897 20.2158L33.096 19.0743L28.7448 16.5011Z" fill="black"/>
<path d="M26.2433 21.8371L25.537 22.9785L29.8881 25.5517L30.5944 24.4102L26.2433 21.8371Z" fill="black"/>
<path d="M22.1501 26.0617L21.4438 27.2031L25.795 29.7763L26.5012 28.6348L22.1501 26.0617Z" fill="black"/>
<path d="M18.0575 28.505L17.3512 29.6465L21.7023 32.2197L22.4086 31.0782L18.0575 28.505Z" fill="black"/>
<path d="M13.963 29.841L13.2567 30.9824L17.6078 33.5556L18.3141 32.4141L13.963 29.841Z" fill="black"/>
<path d="M11.3981 15.1109L13.2562 15.1264L12.5626 18.6061C12.0554 18.944 11.4618 19.2153 10.7818 19.4221C10.1018 19.6289 9.47638 19.7289 8.90326 19.7245C8.07316 19.7178 7.36131 19.5132 6.77 19.113C6.17869 18.7128 5.76023 18.1658 5.51461 17.4721C5.26671 16.7784 5.23032 16.0047 5.40089 15.1464C5.57146 14.2882 5.91943 13.5322 6.45161 12.8496C6.98378 12.1671 7.6365 11.6334 8.40747 11.2488C9.17845 10.8641 9.99036 10.6751 10.8455 10.6818C11.4573 10.6863 12.044 10.8108 12.608 11.0531C13.1721 11.2955 13.6269 11.6179 13.9681 12.0203L12.4284 13.6078C12.1896 13.3054 11.8939 13.0653 11.5414 12.8874C11.1889 12.7096 10.8227 12.6184 10.4475 12.6162C10.0086 12.6117 9.59009 12.7207 9.19437 12.943C8.79637 13.1654 8.45751 13.47 8.1755 13.8591C7.89349 14.2482 7.70473 14.684 7.60921 15.1664C7.51369 15.6489 7.52506 16.1003 7.65014 16.4983C7.77523 16.8963 7.99583 17.2075 8.31196 17.4343C8.62808 17.6611 9.00333 17.779 9.44226 17.7812C9.85618 17.7856 10.3588 17.6478 10.9478 17.3699L11.3981 15.1131V15.1109Z" fill="black"/>
<path d="M21.637 11.363C22.2352 11.7588 22.6627 12.3013 22.9152 12.9861C23.1676 13.6709 23.2086 14.438 23.0403 15.2874C22.872 16.1367 22.5217 16.9171 21.9964 17.6019C21.471 18.289 20.8297 18.8293 20.0723 19.2228C19.315 19.6164 18.5168 19.8098 17.6798 19.8009C16.8429 19.792 16.1242 19.5897 15.5238 19.1895C14.9234 18.7892 14.5004 18.2401 14.2502 17.5419C14.0001 16.8438 13.9614 16.0678 14.132 15.2095C14.3003 14.3624 14.646 13.5976 15.1713 12.9194C15.6944 12.2413 16.3335 11.7099 17.0885 11.323C17.8436 10.9361 18.6396 10.7494 19.4788 10.756C20.318 10.7627 21.0366 10.965 21.637 11.3608V11.363ZM17.9186 13.0172C17.5252 13.2396 17.1863 13.5464 16.9043 13.94C16.6223 14.3335 16.4335 14.7671 16.3403 15.2407C16.247 15.7143 16.2607 16.1634 16.388 16.5592C16.5154 16.9549 16.7315 17.2707 17.0317 17.5019C17.3296 17.7331 17.6844 17.851 18.0915 17.8554C18.4986 17.8599 18.8966 17.7487 19.2832 17.5219C19.6698 17.2951 19.9996 16.9861 20.2748 16.5925C20.5477 16.199 20.7342 15.7609 20.8297 15.2785C20.9252 14.796 20.9116 14.3691 20.7956 13.9733C20.6773 13.5776 20.4703 13.264 20.1747 13.0373C19.879 12.8105 19.5265 12.6949 19.1194 12.6904C18.7123 12.686 18.3121 12.7949 17.9186 13.0172Z" fill="black"/>
</svg>
