<svg width="22" height="24" viewBox="0 0 22 24" fill="none" xmlns="http://www.w3.org/2000/svg">
<path d="M9.14289 17.1426H4.57146C4.38098 18.2854 4.57146 20.5711 6.85718 20.5711C9.14289 20.5711 9.33337 18.2854 9.14289 17.1426Z" stroke="#CDFF41" stroke-width="1.5" stroke-linejoin="round"/>
<path d="M9.07976 14.3012H4.50833C1.76547 6.98687 4.88928 5.53925 6.79404 5.72973C10.4512 6.64401 9.84166 11.825 9.07976 14.3012Z" stroke="#CDFF41" stroke-width="1.5" stroke-linejoin="round"/>
<path d="M12.5327 19.3433L17.0343 20.1397C17.0227 21.2983 16.437 23.5158 14.1862 23.1176C11.9354 22.7194 12.1461 20.4355 12.5327 19.3433Z" stroke="#CDFF41" stroke-width="1.5" stroke-linejoin="round"/>
<path d="M13.0899 16.5565L17.5914 17.3528C21.5666 10.6282 18.7427 8.65855 16.8339 8.51429C13.0734 8.77749 12.771 13.9854 13.0899 16.5565Z" stroke="#CDFF41" stroke-width="1.5" stroke-linejoin="round"/>
</svg>
