<svg width="13" height="13" viewBox="0 0 13 13" fill="none" xmlns="http://www.w3.org/2000/svg">
<path d="M3.35343 1.4309L2.85606 3.18927L2.84134 3.19181C2.78629 3.42047 1.54647 5.72223 1.54647 5.72223L0.932048 6.50575C0.830226 6.63483 0.820393 6.82031 0.908159 6.96511C1.16149 7.38354 1.87081 8.24923 3.73318 9.19042C3.73318 9.19042 7.71291 11.1749 8.93356 11.9431C9.06791 12.0276 9.2173 12.0779 9.37145 12.089C9.87005 12.1267 11.0297 12.178 12.0926 11.9569C12.3524 11.9028 12.5669 11.712 12.6641 11.4514C12.8052 11.0733 12.7266 10.6386 12.462 10.3351C12.0609 9.87534 11.4161 9.15769 10.6818 8.42779C10.6818 8.42779 8.46807 4.97427 8.25877 4.32601C8.11031 3.86719 8.27709 2.25431 8.38652 1.35418C8.42163 1.06437 8.1633 0.825979 7.8991 0.90465L5.47006 1.27856L5.23012 2.39653L4.2935 2.40441L3.79256 1.39586C3.69207 1.19405 3.41469 1.21732 3.35369 1.43239L3.35343 1.4309Z" fill="black"/>
</svg>
