<svg width="27" height="28" viewBox="0 0 27 28" fill="none" xmlns="http://www.w3.org/2000/svg">
<g clip-path="url(#clip0_690_2686)">
<path d="M13.43 27.4399C11.7203 27.4399 10.1415 27.0029 8.73222 26.1381C3.77841 23.0992 2.69885 15.6804 6.32808 9.60071C8.83722 5.39632 13.0025 2.78516 17.1955 2.78516C18.9051 2.78516 20.4839 3.22222 21.8932 4.087C26.847 7.12589 27.9266 14.5447 24.2974 20.6244C21.7882 24.8288 17.6248 27.4418 13.43 27.4418V27.4399Z" fill="#EF6A9D"/>
<path d="M17.1955 2.22461V3.34528C18.802 3.34528 20.285 3.7562 21.6059 4.56495C26.2999 7.44321 27.2948 14.5165 23.824 20.3328C22.621 22.35 20.9887 24.0273 19.1041 25.1835C17.295 26.2929 15.333 26.8794 13.43 26.8794C11.8236 26.8794 10.3387 26.4685 9.01965 25.6597C6.77947 24.285 5.30383 21.913 4.86353 18.9787C4.41218 15.9678 5.10118 12.7421 6.80158 9.89188C8.00457 7.87467 9.6368 6.19739 11.5214 5.04123C13.3305 3.93177 15.2925 3.34528 17.1955 3.34528V2.22461ZM17.1955 2.22461C12.9786 2.22461 8.53698 4.81897 5.85466 9.31286C2.06332 15.6671 3.22209 23.4165 8.44671 26.6198C9.97577 27.5574 11.6835 28.0019 13.43 28.0019C17.6469 28.0019 22.0886 25.4076 24.7709 20.9137C28.5622 14.5595 27.4034 6.81003 22.1788 3.60677C20.6498 2.66914 18.942 2.22461 17.1955 2.22461Z" fill="#971A4A"/>
<path d="M9.8044 25.2172C8.09479 25.2172 6.51599 24.7801 5.10666 23.9154C0.152857 20.8765 -0.924859 13.4576 2.70253 7.37797C5.21167 3.17358 9.377 0.560547 13.57 0.560547C15.2796 0.560547 16.8584 0.997609 18.2677 1.86239C23.2215 4.90128 24.3011 12.3201 20.6718 18.3998C18.1627 22.6042 13.9992 25.2172 9.8044 25.2172Z" fill="#FF8FB4"/>
<path d="M13.5697 0V1.12067C15.1762 1.12067 16.6592 1.53159 17.9801 2.34034C20.2203 3.71503 21.6959 6.08712 22.1362 9.02141C22.5875 12.0323 21.8985 15.258 20.1982 18.1082C18.9952 20.1254 17.3629 21.8027 15.4783 22.9588C13.6692 24.0683 11.7072 24.6548 9.80418 24.6548C8.19774 24.6548 6.71289 24.2439 5.39384 23.4351C0.69979 20.5569 -0.295024 13.4836 3.17577 7.66727C4.37876 5.65006 6.01099 3.97278 7.89561 2.81662C9.7047 1.70716 11.6667 1.12067 13.5697 1.12067V0ZM13.5697 0C9.35283 0 4.91117 2.59436 2.2307 7.08825C-1.56249 13.4425 -0.401875 21.19 4.8209 24.3952C6.34997 25.3328 8.05773 25.7773 9.80418 25.7773C14.0211 25.7773 18.4628 23.183 21.1451 18.6891C24.9364 12.3349 23.7776 4.58542 18.553 1.38216C17.024 0.444533 15.3162 0 13.5697 0Z" fill="#971A4A"/>
<path d="M4.87738 23.5434L4.49597 24.1826L9.02939 26.9629L9.41079 26.3237L4.87738 23.5434Z" fill="#971A4A"/>
<path d="M18.5042 1.38291L17.9321 2.3418L22.4655 5.12211L23.0377 4.16322L18.5042 1.38291Z" fill="#971A4A"/>
<path d="M22.2777 5.7374L21.7056 6.69629L25.2302 8.85789L25.8023 7.89901L22.2777 5.7374Z" fill="#971A4A"/>
<path d="M23.0152 9.47275L22.4431 10.4316L25.9677 12.5932L26.5398 11.6344L23.0152 9.47275Z" fill="#971A4A"/>
<path d="M23.0141 13.5821L22.442 14.541L25.9666 16.7026L26.5387 15.7437L23.0141 13.5821Z" fill="#971A4A"/>
<path d="M20.988 18.0636L20.4159 19.0225L23.9405 21.1841L24.5126 20.2252L20.988 18.0636Z" fill="#971A4A"/>
<path d="M17.672 21.6134L17.0999 22.5723L20.6244 24.7339L21.1966 23.775L17.672 21.6134Z" fill="#971A4A"/>
<path d="M14.357 23.6671L13.7849 24.626L17.3095 26.7876L17.8816 25.8287L14.357 23.6671Z" fill="#971A4A"/>
<path d="M11.0405 24.7882L10.4684 25.7471L13.993 27.9087L14.5651 26.9498L11.0405 24.7882Z" fill="#971A4A"/>
<path d="M9.61655 9.45117L9.29048 11.0855H7.52929L6.61369 15.7101H4.57063L5.48623 11.0855H3.73425L4.06033 9.45117H9.6184H9.61655Z" fill="#971A4A"/>
<path d="M12.1442 9.45117L10.9117 15.7101H8.86865L10.1011 9.45117H12.1442Z" fill="#971A4A"/>
<path d="M19.2957 9.45117L16.5655 12.0493L18.124 15.7101H15.7549L14.9093 13.6126L14.0987 14.3896L13.8353 15.712H11.7922L13.0247 9.45304H15.0678L14.6182 11.7299L16.8639 9.45304H19.2957V9.45117Z" fill="#971A4A"/>
</g>
<defs>
<clipPath id="clip0_690_2686">
<rect width="27" height="28" fill="white"/>
</clipPath>
</defs>
</svg>
