<svg width="22" height="25" viewBox="0 0 22 25" fill="none" xmlns="http://www.w3.org/2000/svg">
<path d="M17.2205 5.96275L18.9156 4.26758L20.5653 5.91725L18.8701 7.61242C20.5452 9.70911 21.3539 12.3676 21.1301 15.0419C20.9062 17.7162 19.667 20.2033 17.6667 21.9924C15.6664 23.7815 13.0571 24.7369 10.3744 24.6622C7.69183 24.5875 5.13963 23.4885 3.24201 21.5909C1.34438 19.6932 0.245375 17.141 0.170696 14.4584C0.0960172 11.7758 1.05133 9.16644 2.84045 7.16618C4.62957 5.16592 7.11667 3.92663 9.79097 3.70282C12.4653 3.47901 15.1238 4.28768 17.2205 5.96275ZM9.49946 8.33342V15.3334H16.4995V13.0001H11.8328V8.33342H9.49946ZM5.99946 0.166748H15.3328V2.50008H5.99946V0.166748Z" fill="#8A8A8A"/>
</svg>
