<svg width="128" height="128" viewBox="0 0 128 128" fill="none" xmlns="http://www.w3.org/2000/svg">
    <path d="M63.7234 115.191C56.9699 115.191 50.7331 113.527 45.1658 110.232C25.5966 98.6564 21.332 70.396 35.6687 47.237C45.5806 31.2213 62.035 21.2747 78.5985 21.2747C85.352 21.2747 91.5888 22.9395 97.1561 26.2337C116.725 37.8097 120.99 66.0701 106.653 89.2291C96.7413 105.245 80.2942 115.199 63.7234 115.199V115.191Z" fill="#EF6A9D"/>
    <path d="M78.6001 19.1406V23.4096C84.9461 23.4096 90.8044 24.9749 96.0224 28.0556C114.565 39.0197 118.495 65.9638 104.784 88.1197C100.032 95.8038 93.5844 102.193 86.1396 106.597C78.9931 110.823 71.2426 113.057 63.7249 113.057C57.3789 113.057 51.5133 111.492 46.3026 108.411C37.4532 103.175 31.6239 94.1389 29.8846 82.9614C28.1016 71.4921 30.8234 59.2047 37.5405 48.3473C42.2927 40.6632 48.7406 34.274 56.1854 29.8699C63.3319 25.6437 71.0824 23.4096 78.6001 23.4096V19.1406ZM78.6001 19.1406C61.9419 19.1406 44.3959 29.0232 33.7999 46.1417C18.8228 70.3466 23.4004 99.8664 44.0393 112.068C50.0796 115.64 56.8259 117.333 63.7249 117.333C80.3831 117.333 97.9291 107.451 108.525 90.3324C123.502 66.1275 118.925 36.6077 98.2857 24.4057C92.2454 20.834 85.4991 19.1406 78.6001 19.1406Z" fill="#971A4A"/>
    <path d="M49.3973 106.725C42.6438 106.725 36.407 105.06 30.8397 101.766C11.2706 90.1896 7.01324 61.9292 21.3426 38.7702C31.2545 22.7545 47.7089 12.8008 64.2725 12.8008C71.026 12.8008 77.2628 14.4657 82.8301 17.7599C102.399 29.3358 106.664 57.5962 92.3272 80.7553C82.4153 96.7709 65.9681 106.725 49.3973 106.725Z" fill="#FF8FB4"/>
    <path d="M64.2735 10.6667V14.9357C70.6195 14.9357 76.4778 16.501 81.6958 19.5817C90.5452 24.8183 96.3745 33.8542 98.1138 45.0318C99.8968 56.501 97.175 68.7884 90.4579 79.6458C85.7057 87.3299 79.2578 93.7191 71.813 98.1232C64.6665 102.349 56.916 104.584 49.3983 104.584C43.0524 104.584 37.1867 103.018 31.976 99.9375C13.433 88.9734 9.50315 62.0293 23.2139 39.8734C27.9661 32.1893 34.414 25.8002 41.8589 21.396C49.0053 17.1698 56.7559 14.9357 64.2735 14.9357V10.6667ZM64.2735 10.6667C47.6153 10.6667 30.0693 20.5494 19.4806 37.6678C4.49624 61.8727 9.08106 91.3854 29.7127 103.595C35.753 107.166 42.4993 108.86 49.3983 108.86C66.0565 108.86 83.6025 98.977 94.1985 81.8585C109.176 57.6536 104.598 28.1339 83.9591 15.9318C77.9188 12.3601 71.1726 10.6667 64.2735 10.6667Z" fill="#971A4A"/>
    <path d="M29.9338 100.347L28.4271 102.782L46.3356 113.373L47.8422 110.938L29.9338 100.347Z" fill="#971A4A"/>
    <path d="M83.7704 15.9323L81.5104 19.585L99.4189 30.1759L101.679 26.5232L83.7704 15.9323Z" fill="#971A4A"/>
    <path d="M98.6715 32.5234L96.4115 36.176L110.335 44.4102L112.595 40.7575L98.6715 32.5234Z" fill="#971A4A"/>
    <path d="M101.588 46.7526L99.3281 50.4053L113.251 58.6394L115.511 54.9867L101.588 46.7526Z" fill="#971A4A"/>
    <path d="M101.583 62.403L99.3229 66.0557L113.246 74.2898L115.506 70.6371L101.583 62.403Z" fill="#971A4A"/>
    <path d="M93.5784 79.4743L91.3184 83.127L105.242 91.3611L107.502 87.7084L93.5784 79.4743Z" fill="#971A4A"/>
    <path d="M80.4794 92.9965L78.2194 96.6492L92.1427 104.883L94.4027 101.231L80.4794 92.9965Z" fill="#971A4A"/>
    <path d="M67.3844 100.819L65.1244 104.472L79.0476 112.706L81.3076 109.053L67.3844 100.819Z" fill="#971A4A"/>
    <path d="M54.2808 105.093L52.0208 108.746L65.9441 116.98L68.2041 113.327L54.2808 105.093Z" fill="#971A4A"/>
    <path d="M48.6589 46.668L47.3708 52.8935H40.4135L36.7966 70.51H28.7259L32.3428 52.8935H25.4219L26.71 46.668H48.6662H48.6589Z" fill="#971A4A"/>
    <path d="M58.6433 46.668L53.7746 70.51H45.7039L50.5725 46.668H58.6433Z" fill="#971A4A"/>
    <path d="M86.896 46.668L76.1108 56.5648L82.2676 70.51H72.9087L69.5683 62.52L66.3663 65.4798L65.3256 70.5172H57.2548L62.1235 46.6751H70.1942L68.4185 55.3482L77.2898 46.6751H86.896V46.668Z" fill="#971A4A"/>
</svg>
