<svg width="18" height="18" viewBox="0 0 18 18" fill="none" xmlns="http://www.w3.org/2000/svg">
    <path d="M9.55371 1.08317L16.1811 3.71795L16.1888 3.72876L16.2759 3.85172L16.2842 3.86341V5.46654L16.1522 5.51936V12.3993L16.2759 12.574L16.2842 12.5857V14.1888L15.5508 14.4822L15.4238 14.31L10.8563 16.1285L10.7234 16.4139L9.3738 16.954L9.36572 16.9572H8.7184L8.7104 16.954L7.58892 16.5052L7.41375 16.1285L2.84625 14.31L2.67662 14.5396L1.8 14.1888V12.6631L1.89097 12.4588L1.93219 12.4675V5.51936L1.8283 5.47787L1.8 5.46654V3.94084L1.89097 3.7365L1.89844 3.7198L8.53049 1.08317L8.53849 1.08H9.54572L9.55371 1.08317Z" fill="white"/>
    <path d="M16.2759 3.85172L16.1888 3.72876L16.1811 3.71795L9.55371 1.08317L9.54571 1.08H8.53849L8.53049 1.08317L1.89844 3.7198L1.89097 3.7365L1.8 3.94084V5.46653L1.8283 5.47787L1.93219 5.51936V12.4675L1.89097 12.4588L1.8 12.6631V14.1888L2.67662 14.5396L2.84625 14.31L7.41375 16.1285L7.58892 16.5052L8.7104 16.954L8.7184 16.9572H9.36571L9.3738 16.954L10.7234 16.4139L10.8563 16.1285L15.4238 14.31L15.5508 14.4822L16.2842 14.1888V12.5857L16.1522 12.3993V5.51936L16.2842 5.46653V3.86341L16.2759 3.85172ZM16.6442 5.46653L16.5122 5.66156V12.2846L16.5698 12.3659L16.5699 12.3662L16.5782 12.3779L16.6442 12.5857V14.1888L16.4179 14.523L15.6845 14.8164L15.3582 14.7235L11.1223 16.4099L11.0499 16.5658L10.8572 16.7482L9.50757 17.2883L9.50502 17.2892L9.49694 17.2924L9.36571 17.3172H8.7184L8.58595 17.292L8.57795 17.2888L7.45515 16.8395L7.26249 16.657L7.14762 16.4099L2.97088 14.747L2.96614 14.7535L2.54285 14.8738L1.66623 14.523L1.44 14.1888V12.6631L1.47112 12.5167L1.56208 12.3123L1.57219 12.3071V5.66183L1.44 5.46653V3.94084L1.47112 3.79442L1.56208 3.59007L1.56235 3.58945L1.56982 3.57276L1.76546 3.38528L8.39751 0.748654L8.39804 0.74839L8.40604 0.745226L8.53849 0.720001H9.54571L9.67817 0.745226L9.68616 0.74839L9.68669 0.748654L16.3141 3.38344L16.4739 3.50851L16.4816 3.51932L16.4826 3.52064L16.5697 3.64359L16.5699 3.64395L16.5782 3.65564L16.6442 3.86341V5.46653Z" fill="white"/>
    <path d="M9.55371 1.08317L16.1811 3.71795L16.1888 3.72876L16.2759 3.85172L16.2842 3.86341V5.46654L16.1522 5.51936V12.3993L16.2759 12.574L16.2842 12.5857V14.1888L15.5508 14.4822L15.4238 14.31L10.8563 16.1285L10.7234 16.4139L9.3738 16.954L9.36572 16.9572H8.7184L8.7104 16.954L7.58892 16.5052L7.41375 16.1285L2.84625 14.31L2.67662 14.5396L1.8 14.1888V12.6631L1.89097 12.4588L1.93219 12.4675V5.51936L1.8283 5.47787L1.8 5.46654V3.94084L1.89097 3.7365L1.89844 3.7198L8.53049 1.08317L8.53849 1.08H9.54572L9.55371 1.08317Z" fill="black"/>
    <path d="M16.2759 3.85172L16.1888 3.72876L16.1811 3.71795L9.55371 1.08317L9.54572 1.08H8.53849L8.53049 1.08317L1.89844 3.7198L1.89097 3.7365L1.8 3.94084V5.46653L1.8283 5.47787L1.93219 5.51936V12.4675L1.89097 12.4588L1.8 12.6631V14.1888L2.67662 14.5396L2.84625 14.31L7.41375 16.1285L7.58892 16.5052L8.7104 16.954L8.7184 16.9572H9.36572L9.3738 16.954L10.7234 16.4139L10.8563 16.1285L15.4238 14.31L15.5508 14.4822L16.2842 14.1888V12.5857L16.1522 12.3993V5.51936L16.2842 5.46653V3.86341L16.2759 3.85172ZM16.4642 5.46653L16.3511 5.63361L16.3322 5.64117V12.342L16.4228 12.4699L16.4229 12.4701L16.4312 12.4818L16.4642 12.5857V14.1888L16.3511 14.3559L15.6177 14.6493L15.406 14.5891L15.3613 14.5286L10.9892 16.2693L10.8867 16.4899L10.7903 16.581L9.43937 17.1216L9.43128 17.1248L9.36572 17.1372H8.7184L8.65222 17.1245L8.64422 17.1214L8.64352 17.1211L7.52203 16.6723L7.42571 16.5811L7.28069 16.2693L2.90848 14.5285L2.82138 14.6465L2.60974 14.7067L1.73312 14.3559L1.62 14.1888V12.6631L1.63556 12.5899L1.72653 12.3855L1.75219 12.3724V5.64126L1.73303 5.63361L1.62 5.46653V3.94084L1.63556 3.86763L1.72653 3.66328L1.7267 3.66302L1.73417 3.64632L1.83191 3.55254L8.46396 0.91591L8.46431 0.915822L8.47231 0.912658L8.53849 0.900002H9.54572L9.6119 0.912658L9.61989 0.915822L9.62025 0.91591L16.2476 3.55069L16.3275 3.61319L16.3353 3.624L16.3357 3.6247L16.4228 3.74766L16.4229 3.74783L16.4312 3.75952L16.4642 3.86341V5.46653Z" fill="black"/>
    <path d="M9.04219 2.475L16.1522 5.29833V13.5117L9.04219 16.335L1.93219 13.5117V5.29833L9.04219 2.475Z" fill="#4A4D57"/>
    <path d="M2.02219 13.4505L8.95219 16.2024V8.1827L2.02219 5.43085V13.4505ZM9.13219 8.1827V16.2024L16.0622 13.4505V5.43085L9.13219 8.1827ZM2.17599 5.29831L9.04219 8.02476L15.9083 5.29831L9.04219 2.57185L2.17599 5.29831ZM16.2422 13.5728L9.04219 16.4319L1.84219 13.5728V5.23723L9.04219 2.37814L16.2422 5.23723V13.5728Z" fill="black"/>
    <path d="M16.1522 13.5117V5.29833L9.04219 8.12167L9.04218 16.335L16.1522 13.5117Z" fill="#363841"/>
    <path d="M16.2422 13.5728L8.95218 16.4676V8.06056L16.2422 5.16579V13.5728ZM9.13218 8.18273V16.2024L16.0622 13.4505V5.43087L9.13218 8.18273Z" fill="black"/>
    <path d="M8.77219 6.705H9.31219V16.875H8.77219V6.705Z" fill="#57585F"/>
    <path d="M9.31219 6.705V16.875H8.77219V6.705H9.31219ZM8.81719 16.83H9.26719V6.75H8.81719V16.83Z" fill="black"/>
    <path d="M1.845 4.10274V5.43608L8.72709 8.18998H9.35709L16.2392 5.43608V4.10274V3.87776L16.1521 3.7548L9.53709 1.125H8.54709L1.93209 3.7548L1.845 3.95044V4.10274Z" fill="#3EEBF5"/>
    <path d="M16.1942 3.89197L16.123 3.7916L9.52849 1.17H8.55572L1.96576 3.78976L1.89 3.96V5.40554L8.73589 8.145H9.34831L16.1942 5.40554V3.89197ZM16.2842 5.46653L9.3738 8.23175L9.36572 8.235H8.7184L8.7104 8.23175L1.8 5.46653V3.94084L1.89097 3.7365L1.89844 3.7198L8.53049 1.08317L8.53849 1.08H9.54572L9.55371 1.08317L16.1811 3.71795L16.1888 3.72876L16.2759 3.85172L16.2842 3.86341V5.46653Z" fill="black"/>
    <path d="M1.93219 3.92274L8.77219 6.64226H9.31219L16.1522 3.92274V3.7548L9.53719 1.125H8.54719L1.93219 3.7548V3.92274Z" fill="#3EEBF5"/>
    <path d="M1.845 4.10276V3.95046L1.93209 3.75482V3.92276L1.845 4.10276Z" fill="#3EEBF5"/>
    <path d="M16.1521 3.92276L9.31209 6.64228L9.35709 6.85666L16.2392 4.10276L16.1521 3.92276Z" fill="#3EEBF5"/>
    <path d="M16.2392 4.10276V3.87778L16.1521 3.75482V3.92276L16.2392 4.10276Z" fill="#0AA3AD"/>
    <path d="M9.31219 6.64225H8.77219L8.72719 6.85663H9.35719L9.31219 6.64225Z" fill="#90F4F9"/>
    <path d="M1.845 4.10274V5.43608L8.72709 8.18998L8.72709 6.85665L1.845 4.10274Z" fill="#3EEBF5"/>
    <path d="M1.93209 3.92273L1.845 4.10273L8.72709 6.85664L8.77209 6.64225L1.93209 3.92273Z" fill="#90F4F9"/>
    <path d="M9.35709 6.85665V8.18998L16.2392 5.43608V4.10274L9.35709 6.85665Z" fill="#0DD1DD"/>
    <path d="M9.35709 6.85664H8.72709V8.18998H9.35709V6.85664Z" fill="#5EEEF7"/>
    <path d="M9.54141 1.1025L9.54537 1.10408L16.1604 3.73386L16.1666 3.73632L16.2576 3.86473L16.2617 3.87062V5.45133L16.2476 5.45695L9.36545 8.21083L9.36141 8.2125H8.7228L8.71875 8.21083L1.83665 5.45695L1.8225 5.45133V3.94567L1.82444 3.94128L1.91154 3.74564L1.91523 3.73729L1.92375 3.73386L8.53875 1.10408L8.5428 1.1025H9.54141ZM8.7496 8.1675H9.3346V6.87911H8.7496V8.1675ZM1.8675 5.42083L8.7046 8.15669V6.87182L1.8675 4.13596V5.42083ZM9.3796 6.87182V8.15669L16.2167 5.42083V4.13596L9.3796 6.87182ZM8.75479 6.83411H9.32933L9.29382 6.66475H8.7903L8.75479 6.83411ZM1.87568 4.09078L8.71049 6.82576L8.74609 6.65613L1.94318 3.95139L1.87568 4.09078ZM9.33794 6.65613L9.37354 6.82576L16.2084 4.09078L16.1409 3.95139L9.33794 6.65613ZM1.9546 3.76998V3.90744L8.77641 6.61975H9.30771L16.1296 3.90744V3.76998L9.53271 1.1475H8.55141L1.9546 3.76998ZM1.8675 3.95517V4.00456L1.9096 3.91746V3.8606L1.8675 3.95517ZM16.1746 3.91764L16.2167 4.00456V3.88485L16.1746 3.82544V3.91764Z" fill="black"/>
    <path d="M16.2392 12.6V14.1583L15.5232 14.4447L15.4238 14.31L10.8563 16.1285L10.7511 16.3543L9.3571 16.9122H8.7271L7.56123 16.4457L7.41375 16.1285L2.84625 14.31L2.70431 14.5021L1.845 14.1583V12.6727L1.9321 12.477V12.645L8.7721 15.3645H9.3121L16.1521 12.645V12.477L16.2392 12.6Z" fill="#3EEBF5"/>
    <path d="M16.2759 12.574L16.2842 12.5857V14.1888L16.2559 14.2L15.5077 14.4994L15.4081 14.3646L10.8894 16.1636L10.7919 16.3732L10.7844 16.3894L10.7678 16.396L9.3738 16.9539L9.3658 16.9572H8.7184L8.7104 16.9539L7.54453 16.4874L7.52792 16.4808L7.52045 16.4646L7.38044 16.1636L2.86181 14.3646L2.71987 14.5568L1.8283 14.2L1.8 14.1888V12.6631L1.89097 12.4588L1.9771 12.477V12.6144L8.78072 15.3195H9.30349L16.1071 12.6144V12.3356L16.2759 12.574ZM16.1687 12.6868L9.32871 15.4063L9.32072 15.4095H8.76349L8.75549 15.4063L1.91549 12.6868L1.89211 12.6774L1.89 12.6823V14.1278L2.68867 14.4475L2.8307 14.2553L7.43036 16.0866L7.44698 16.0933L7.45453 16.1095L7.59446 16.4105L8.73572 16.8672H9.34849L10.7178 16.3191L10.8155 16.1095L10.823 16.0933L10.8396 16.0866L15.4393 14.2553L15.5388 14.3901L16.1942 14.1278V12.6766L16.1687 12.6868Z" fill="black"/>
    <path d="M9.315 15.363H8.775L8.73 15.5774H9.36L9.315 15.363Z" fill="#90F4F9"/>
    <path d="M1.845 12.825V14.1583L2.70434 14.5022L2.84625 14.31L7.41375 16.1284L7.56131 16.4457L8.72709 16.9122L8.72709 15.5789L1.845 12.825Z" fill="#3EEBF5"/>
    <path d="M1.93209 12.645L1.845 12.825L8.72709 15.5789L8.77209 15.3645L1.93209 12.645Z" fill="#90F4F9"/>
    <path d="M1.93209 12.645L1.845 12.825V12.6727L1.93209 12.477V12.645Z" fill="#3EEBF5"/>
    <path d="M9.35709 15.5789H8.72709L8.72709 16.9122H9.35709V15.5789Z" fill="#5EEEF7"/>
    <path d="M9.35709 15.5789V16.9122L10.7512 16.3544L10.8563 16.1284L15.4238 14.31L15.5233 14.4448L16.2392 14.1583V12.825L9.35709 15.5789Z" fill="#0DD1DD"/>
    <path d="M16.1521 12.645L9.31209 15.3645L9.35709 15.5789L16.2392 12.825L16.1521 12.645Z" fill="#3EEBF5"/>
    <path d="M16.1521 12.645L16.2392 12.825V12.6L16.1521 12.477V12.645Z" fill="#0AA3AD"/>
    <path d="M16.2576 12.587L16.2617 12.5928V14.1735L16.2476 14.1792L15.5317 14.4657L15.5155 14.4722L15.5052 14.4582L15.4159 14.3373L10.8729 16.1459L10.7716 16.3638L10.7678 16.3719L10.7596 16.3753L9.36545 16.9331L9.36141 16.9347H8.7228L8.71875 16.9331L7.55297 16.4666L7.54462 16.4633L7.54093 16.4552L7.39706 16.1459L2.85399 14.3373L2.72242 14.5156L2.71213 14.5296L2.69596 14.523L1.83665 14.1792L1.8225 14.1735V12.6679L1.82444 12.6635L1.91154 12.4679L1.9546 12.477V12.6297L8.77641 15.342H9.30771L16.1296 12.6297V12.4064L16.2576 12.587ZM8.7496 16.8897H9.3346V15.6014H8.7496V16.8897ZM1.8675 14.1431L2.69649 14.4748L2.82815 14.2966L2.83843 14.2827L2.8546 14.2891L7.4221 16.1075L7.43037 16.1108L7.43414 16.119L7.57793 16.4281L8.7046 16.879V15.5941L1.8675 12.8581V14.1431ZM9.3796 15.5941V16.879L10.7344 16.3368L10.8359 16.119L10.8396 16.1108L10.8479 16.1075L15.4154 14.2891L15.4316 14.2827L15.4419 14.2966L15.531 14.4174L16.2167 14.1431V12.8581L9.3796 15.5941ZM8.75479 15.5564H9.32933L9.29382 15.387H8.7903L8.75479 15.5564ZM9.33794 15.3784L9.37354 15.548L16.2084 12.813L16.1409 12.6736L9.33794 15.3784ZM1.87568 12.813L8.71049 15.5479L8.74609 15.3784L1.94318 12.6736L1.87568 12.813ZM1.8675 12.6774V12.7267L1.9096 12.6396V12.5829L1.8675 12.6774ZM16.1746 12.6398L16.2167 12.7267V12.6071L16.1746 12.5477V12.6398Z" fill="black"/>
    <path d="M13.748 3.70258L9.40568 1.98849C9.17212 1.89629 8.91225 1.89629 8.67869 1.98849L4.33634 3.70258C4.18446 3.76253 4.18446 3.97748 4.33634 4.03743L8.67869 5.75152C8.91225 5.84371 9.17212 5.84371 9.40568 5.75152L13.748 4.03743C13.8999 3.97748 13.8999 3.76253 13.748 3.70258Z" fill="#4A4D57"/>
    <path d="M8.67866 1.98851C8.91222 1.89632 9.17213 1.89632 9.40569 1.98851L13.748 3.70255C13.8999 3.76251 13.8999 3.97746 13.748 4.03742L9.40569 5.75155L9.36157 5.76772C9.15451 5.8383 8.92984 5.83831 8.72278 5.76772L8.67866 5.75155L4.33633 4.03742C4.18446 3.97746 4.18446 3.76251 4.33633 3.70255L8.67866 1.98851ZM9.38917 2.03035C9.16622 1.94234 8.91813 1.94234 8.69518 2.03035L4.35286 3.74439C4.23895 3.78935 4.23895 3.95062 4.35286 3.99558L8.69518 5.70962C8.91813 5.79763 9.16622 5.79763 9.38917 5.70962L13.7315 3.99558C13.8454 3.95062 13.8454 3.78935 13.7315 3.74439L9.38917 2.03035Z" fill="black"/>
    <path d="M13.1443 3.78603L9.30112 2.3048C9.13447 2.24057 8.9499 2.24057 8.78325 2.3048L4.94008 3.78603C4.86324 3.81564 4.86323 3.92437 4.94008 3.95398L8.78326 5.43521C8.9499 5.49944 9.13447 5.49944 9.30112 5.43521L13.1443 3.95398C13.2211 3.92437 13.2211 3.81564 13.1443 3.78603Z" fill="#2A2B33"/>
    <path d="M8.7833 2.30479C8.94993 2.24058 9.13451 2.24057 9.30115 2.30479L13.1443 3.78601C13.2211 3.81564 13.2211 3.92434 13.1443 3.95397L9.30115 5.43519L9.26968 5.44653C9.12202 5.49571 8.96233 5.49571 8.81467 5.44653L8.7833 5.43519L4.9401 3.95397C4.86806 3.92621 4.86352 3.82888 4.92657 3.79243L4.9401 3.78601L8.7833 2.30479ZM9.28497 2.34681C9.12875 2.28659 8.95569 2.2866 8.79947 2.34681L4.95627 3.82803C4.91785 3.84284 4.91785 3.89715 4.95627 3.91196L8.79947 5.39318C8.9557 5.45339 9.12875 5.4534 9.28497 5.39318L13.1281 3.91196C13.1665 3.89715 13.1665 3.84283 13.1281 3.82803L9.28497 2.34681Z" fill="black"/>
    <path d="M8.78818 2.93085C8.95208 2.86897 9.133 2.86897 9.2969 2.93085L12.5813 4.1709L9.30147 5.43503C9.13482 5.49925 8.95026 5.49925 8.78361 5.43503L5.50371 4.1709L8.78818 2.93085Z" fill="#1D1D26"/>
    <path d="M8.78818 2.93085C8.95208 2.86897 9.133 2.86897 9.2969 2.93085L12.5813 4.1709L9.30147 5.43503C9.13482 5.49925 8.95026 5.49925 8.78361 5.43503L5.50371 4.1709L8.78818 2.93085ZM9.28099 2.97295C9.12734 2.91494 8.95774 2.91494 8.80409 2.97295L5.62992 4.17125L8.79979 5.39302C8.95602 5.45323 9.12906 5.45323 9.28529 5.39302L12.455 4.17125L9.28099 2.97295Z" fill="black"/>
    <path d="M9.85219 8.87406L10.2066 8.32203L15.13 6.36007L15.3529 6.52969V12.011L14.9986 12.563L10.0751 14.525L9.85219 14.3554L9.85219 8.87406Z" fill="#1D1D26"/>
    <path d="M10.2065 14.625L15.1678 12.648L14.9985 12.563L10.0751 14.525L10.2065 14.625Z" fill="#2A2B33"/>
    <path d="M15.1678 12.648L15.5221 12.0959L15.3529 12.011L14.9985 12.563L15.1678 12.648Z" fill="#2A2B33"/>
    <path d="M15.5221 12.0959V6.61461L15.3529 6.52969V12.011L15.5221 12.0959Z" fill="#2A2B33"/>
    <path d="M15.1678 6.34501L15.5221 6.61462L15.3529 6.52969L15.13 6.36008L15.1678 6.34501Z" fill="#4A4D57"/>
    <path d="M10.1203 14.5311L10.21 14.5993L15.1129 12.6456L14.9974 12.5876L10.1203 14.5311ZM10.2214 8.3403L9.87469 8.88056V14.3442L10.0785 14.4993L14.9834 12.5448L15.3304 12.0044V6.54082L15.1264 6.38561L10.2214 8.3403ZM15.031 12.5541L15.1598 12.6187L15.4898 12.1048L15.3609 12.0402L15.031 12.5541ZM15.3754 11.9971L15.4997 12.0594V6.62845L15.3754 6.56614V11.9971ZM15.5447 12.1025L15.5411 12.1081L15.1867 12.6601L15.1828 12.6662L15.1762 12.6689L10.2149 14.6459L10.203 14.6506L10.1929 14.6429L9.83857 14.3733L9.82969 14.3666V8.86746L9.83329 8.86193L10.1877 8.30989L10.1915 8.30382L10.1982 8.3011L15.1217 6.3392L15.1595 6.32409L15.1713 6.31943L15.1814 6.32707L15.5447 6.60349V12.1025Z" fill="black"/>
    <path d="M8.23219 14.4482V13.2288L7.52344 12.4486V10.1982L8.23219 9.80719V8.75743L7.87781 8.21122L7.05468 7.88666L6.54494 8.38042L6.37569 8.46527L4.08018 7.58374L3.8025 6.60432L2.9721 6.2769L2.73144 6.43689V7.65637L3.44019 8.43657V10.7718L2.73144 11.1628V12.1277L3.08582 12.6739L3.72729 12.9081L4.08018 12.449L4.24944 12.3641L6.79882 13.3431L7.16113 14.2808L8.01004 14.6155L8.23219 14.4482Z" fill="#1D1D26"/>
    <path d="M2.56219 6.52174V7.74121L2.73144 7.65636V6.43689L2.56219 6.52174Z" fill="#4A4D57"/>
    <path d="M3.27094 8.52141L2.56219 7.74121L2.73144 7.65636L3.44019 8.43656L3.27094 8.52141Z" fill="#4A4D57"/>
    <path d="M3.27094 10.8567V8.52141L3.44019 8.43656V10.7718L3.27094 10.8567Z" fill="#4A4D57"/>
    <path d="M2.56219 11.2477L3.27094 10.8567L3.44019 10.7718L2.73144 11.1628L2.56219 11.2477Z" fill="#4A4D57"/>
    <path d="M2.56219 11.2476V12.2126L2.73144 12.1277V11.1628L2.56219 11.2476Z" fill="#4A4D57"/>
    <path d="M2.56219 12.2126L2.91656 12.7588L3.08582 12.6739L2.73144 12.1277L2.56219 12.2126Z" fill="#4A4D57"/>
    <path d="M2.91656 12.7588L3.63325 13.0233L3.72729 12.9081L3.08582 12.6739L2.91656 12.7588Z" fill="#4A4D57"/>
    <path d="M6.79882 13.3431L4.24943 12.3641L4.08018 12.449L6.62957 13.428L6.79882 13.3431Z" fill="#4A4D57"/>
    <path d="M6.62957 13.428L6.99187 14.3657L7.16113 14.2808L6.79882 13.3431L6.62957 13.428Z" fill="#4A4D57"/>
    <path d="M6.99187 14.3657L7.87781 14.715L8.01004 14.6155L7.16113 14.2808L6.99187 14.3657Z" fill="#4A4D57"/>
    <path d="M2.92482 6.23408L3.81076 6.58336L3.82113 6.58749L3.82412 6.59821L4.09878 7.56677L6.37023 8.43908L6.97614 7.84582L6.98651 7.83562L7.06298 7.86568L7.89275 8.1929L7.89671 8.19896L8.25108 8.7452L8.25469 8.75074V9.82046L8.24309 9.82687L7.54594 10.2115V12.4399L8.2488 13.2137L8.25469 13.2201V14.4595L8.24572 14.4662L7.89135 14.733L7.88124 14.7406L7.86955 14.7359L6.98361 14.3866L6.97447 14.3829L6.97087 14.3738L6.6121 13.4453L4.08771 12.476L3.74511 12.9219L3.74476 12.9224L3.65071 13.0375L3.64052 13.0499L2.90874 12.7799L2.9018 12.7773L2.89767 12.771L2.54329 12.2248L2.53969 12.2193V11.2344L2.55129 11.2279L3.24844 10.8433V8.53005L2.54558 7.75635L2.53969 7.74993V6.5105L2.54865 6.50373L2.90303 6.23698L2.91314 6.22942L2.92482 6.23408ZM7.04698 14.3632L7.8743 14.6894L7.96439 14.6217L7.16221 14.3053L7.04698 14.3632ZM6.65789 13.4388L7.00392 14.3344L7.13276 14.2698L6.78674 13.3742L6.65789 13.4388ZM4.13578 12.4462L6.62836 13.4033L6.74315 13.3458L4.25057 12.3886L4.13578 12.4462ZM2.97299 12.7556L3.62593 12.9966L3.68982 12.9183L3.08716 12.6983L2.97299 12.7556ZM2.59471 12.2214L2.92447 12.7296L3.05315 12.665L2.72347 12.1568L2.59471 12.2214ZM2.58469 11.2615V12.1761L2.70897 12.1138V11.1992L2.58469 11.2615ZM3.29344 8.53532V10.8202L3.41772 10.7579V8.47292L3.29344 8.53532ZM2.59875 7.748L3.27604 8.49366L3.40357 8.42977L2.72619 7.6841L2.59875 7.748ZM6.49415 8.38063L6.53177 8.36183L7.01394 7.89478L6.99715 7.8881L6.49415 8.38063ZM2.58469 6.53563V7.70476L2.70897 7.64244V6.47323L2.58469 6.53563ZM2.87561 6.31389L2.92368 6.28198L2.91999 6.28049L2.87561 6.31389ZM3.46272 10.7851L3.45103 10.7916L2.75397 11.176V12.1211L3.10052 12.6553L3.71944 12.8812L4.06231 12.4353L4.06547 12.4312L4.07013 12.4289L4.23932 12.3441L4.24819 12.3396L4.25751 12.3431L6.80687 13.3221L6.81618 13.3257L7.17856 14.2635L8.00657 14.5898L8.20969 14.4369V13.2374L7.50683 12.4637L7.50094 12.4573V10.1849L7.51254 10.1784L8.20969 9.79383V8.76401L7.86278 8.22946L7.0599 7.91288L6.5606 8.39654L6.55814 8.399L6.55506 8.4005L6.38578 8.4854L6.37691 8.48979L6.36759 8.48628L4.0616 7.60069L3.78387 6.62115L2.97475 6.30211L2.75397 6.44889V7.64763L3.45683 8.42142L3.46272 8.42783V10.7851Z" fill="black"/>
    <path d="M7.92 10.5373C7.92 10.5028 7.93971 10.4714 7.97074 10.4563L8.06074 10.4127C8.12051 10.3837 8.19 10.4272 8.19 10.4937V12.3874C8.19 12.4669 8.09443 12.5073 8.03735 12.452L7.94735 12.3647C7.92987 12.3477 7.92 12.3244 7.92 12.3001V10.5373Z" fill="#3EEBF5"/>
    <path d="M8.145 10.4936C8.14498 10.4604 8.11028 10.4387 8.0804 10.4532L7.9904 10.4968C7.97489 10.5043 7.965 10.5201 7.965 10.5373V12.3C7.965 12.3122 7.96997 12.3239 7.97871 12.3324L8.06871 12.4197C8.09726 12.4473 8.145 12.4271 8.145 12.3873V10.4936ZM8.19 12.3873C8.19 12.4619 8.10603 12.5021 8.0485 12.4612L8.03733 12.452L7.94733 12.3647C7.92985 12.3478 7.92 12.3244 7.92 12.3V10.5373C7.92 10.5028 7.93969 10.4713 7.97071 10.4563L8.06071 10.4127C8.12048 10.3837 8.18998 10.4272 8.19 10.4936V12.3873Z" fill="black"/>
    <path d="M2.88 10.5289C2.88 10.5641 2.85944 10.5961 2.82738 10.6107L2.73738 10.6518C2.67778 10.679 2.61 10.6355 2.61 10.57V8.66755C2.61 8.58879 2.70402 8.54802 2.76151 8.60185L2.85151 8.68612C2.86969 8.70313 2.88 8.72692 2.88 8.75182V10.5289Z" fill="#3EEBF5"/>
    <path d="M2.61 8.66755C2.61 8.58879 2.70403 8.54807 2.76152 8.6019L2.85152 8.6861C2.8697 8.70311 2.88 8.72694 2.88 8.75184V10.5289L2.87903 10.5419C2.87466 10.5718 2.8554 10.5979 2.82735 10.6107L2.73735 10.6519L2.7261 10.6561C2.66955 10.6735 2.61 10.6314 2.61 10.5699V8.66755ZM2.655 10.5699C2.655 10.6027 2.68892 10.6245 2.71872 10.6109L2.80872 10.5698C2.82472 10.5624 2.83499 10.5465 2.835 10.5289V8.75184C2.835 8.73939 2.82985 8.72748 2.82076 8.71897L2.73076 8.63468C2.70201 8.60778 2.655 8.62818 2.655 8.66755V10.5699Z" fill="black"/>
    <path d="M3.01219 3.78C3.01219 3.85456 2.8913 3.915 2.74219 3.915C2.59307 3.915 2.47219 3.85456 2.47219 3.78C2.47219 3.70544 2.59307 3.645 2.74219 3.645C2.8913 3.645 3.01219 3.70544 3.01219 3.78Z" fill="#8A8A8A"/>
    <path d="M3.01219 3.78C3.01219 3.70544 2.8913 3.645 2.74219 3.645C2.59307 3.645 2.47219 3.70544 2.47219 3.78C2.47219 3.85455 2.59307 3.915 2.74219 3.915C2.8913 3.915 3.01219 3.85455 3.01219 3.78ZM3.10219 3.78C3.10219 3.86973 3.03177 3.92674 2.97334 3.95595C2.90953 3.98786 2.82768 4.005 2.74219 4.005C2.65669 4.005 2.57484 3.98786 2.51103 3.95595C2.45261 3.92674 2.38219 3.86973 2.38219 3.78C2.38219 3.69026 2.45261 3.63325 2.51103 3.60404C2.57484 3.57214 2.65669 3.555 2.74219 3.555C2.82768 3.555 2.90953 3.57214 2.97334 3.60404C3.03177 3.63325 3.10219 3.69026 3.10219 3.78Z" fill="black"/>
    <path d="M2.92219 3.69C2.92219 3.7397 2.8416 3.78 2.74219 3.78C2.64278 3.78 2.56219 3.7397 2.56219 3.69C2.56219 3.64029 2.64278 3.6 2.74219 3.6C2.8416 3.6 2.92219 3.64029 2.92219 3.69Z" fill="#8A8A8A"/>
    <path d="M2.89969 3.69C2.89969 3.67826 2.8896 3.66158 2.85943 3.64649C2.8306 3.63207 2.78916 3.6225 2.74219 3.6225C2.69522 3.6225 2.65378 3.63207 2.62494 3.64649C2.59478 3.66158 2.58469 3.67826 2.58469 3.69C2.58469 3.70173 2.59478 3.71841 2.62494 3.7335C2.65378 3.74792 2.69522 3.7575 2.74219 3.7575C2.78916 3.7575 2.8306 3.74792 2.85943 3.7335C2.8896 3.71841 2.89969 3.70173 2.89969 3.69ZM2.94469 3.69C2.94469 3.72795 2.91452 3.75627 2.87956 3.77376C2.84325 3.79191 2.79463 3.8025 2.74219 3.8025C2.68975 3.8025 2.64113 3.79191 2.60482 3.77376C2.56986 3.75627 2.53969 3.72795 2.53969 3.69C2.53969 3.65204 2.56986 3.62372 2.60482 3.60624C2.64113 3.58808 2.68975 3.5775 2.74219 3.5775C2.79463 3.5775 2.84325 3.58808 2.87956 3.60624C2.91452 3.62372 2.94469 3.65204 2.94469 3.69Z" fill="black"/>
    <path d="M15.6122 3.78C15.6122 3.85456 15.4913 3.915 15.3422 3.915C15.1931 3.915 15.0722 3.85456 15.0722 3.78C15.0722 3.70544 15.1931 3.645 15.3422 3.645C15.4913 3.645 15.6122 3.70544 15.6122 3.78Z" fill="#8A8A8A"/>
    <path d="M15.6122 3.78C15.6122 3.70544 15.4913 3.645 15.3422 3.645C15.1931 3.645 15.0722 3.70544 15.0722 3.78C15.0722 3.85455 15.1931 3.915 15.3422 3.915C15.4913 3.915 15.6122 3.85455 15.6122 3.78ZM15.7022 3.78C15.7022 3.86973 15.6318 3.92674 15.5733 3.95595C15.5095 3.98786 15.4277 4.005 15.3422 4.005C15.2567 4.005 15.1748 3.98786 15.111 3.95595C15.0526 3.92674 14.9822 3.86973 14.9822 3.78C14.9822 3.69026 15.0526 3.63325 15.111 3.60404C15.1748 3.57214 15.2567 3.555 15.3422 3.555C15.4277 3.555 15.5095 3.57214 15.5733 3.60404C15.6318 3.63325 15.7022 3.69026 15.7022 3.78Z" fill="black"/>
    <path d="M15.5222 3.69C15.5222 3.7397 15.4416 3.78 15.3422 3.78C15.2428 3.78 15.1622 3.7397 15.1622 3.69C15.1622 3.64029 15.2428 3.6 15.3422 3.6C15.4416 3.6 15.5222 3.64029 15.5222 3.69Z" fill="#8A8A8A"/>
    <path d="M15.4997 3.69C15.4997 3.67826 15.4896 3.66158 15.4594 3.64649C15.4306 3.63207 15.3892 3.6225 15.3422 3.6225C15.2952 3.6225 15.2538 3.63207 15.2249 3.64649C15.1948 3.66158 15.1847 3.67826 15.1847 3.69C15.1847 3.70173 15.1948 3.71841 15.2249 3.7335C15.2538 3.74792 15.2952 3.7575 15.3422 3.7575C15.3892 3.7575 15.4306 3.74792 15.4594 3.7335C15.4896 3.71841 15.4997 3.70173 15.4997 3.69ZM15.5447 3.69C15.5447 3.72795 15.5145 3.75627 15.4796 3.77376C15.4432 3.79191 15.3946 3.8025 15.3422 3.8025C15.2897 3.8025 15.2411 3.79191 15.2048 3.77376C15.1699 3.75627 15.1397 3.72795 15.1397 3.69C15.1397 3.65204 15.1699 3.62372 15.2048 3.60624C15.2411 3.58808 15.2897 3.5775 15.3422 3.5775C15.3946 3.5775 15.4432 3.58808 15.4796 3.60624C15.5145 3.62372 15.5447 3.65204 15.5447 3.69Z" fill="black"/>
    <path d="M9.31219 6.21C9.31219 6.28456 9.1913 6.345 9.04219 6.345C8.89307 6.345 8.77219 6.28456 8.77219 6.21C8.77219 6.13544 8.89307 6.075 9.04219 6.075C9.1913 6.075 9.31219 6.13544 9.31219 6.21Z" fill="#8A8A8A"/>
    <path d="M9.31219 6.21C9.31219 6.13544 9.1913 6.075 9.04219 6.075C8.89307 6.075 8.77219 6.13544 8.77219 6.21C8.77219 6.28456 8.89307 6.345 9.04219 6.345C9.1913 6.345 9.31219 6.28456 9.31219 6.21ZM9.40219 6.21C9.40219 6.29973 9.33177 6.35674 9.27334 6.38595C9.20953 6.41786 9.12768 6.435 9.04219 6.435C8.95669 6.435 8.87484 6.41786 8.81103 6.38595C8.75261 6.35674 8.68219 6.29973 8.68219 6.21C8.68219 6.12026 8.75261 6.06325 8.81103 6.03404C8.87484 6.00214 8.95669 5.985 9.04219 5.985C9.12768 5.985 9.20953 6.00214 9.27334 6.03404C9.33177 6.06325 9.40219 6.12026 9.40219 6.21Z" fill="black"/>
    <path d="M9.22219 6.12C9.22219 6.1697 9.1416 6.21 9.04219 6.21C8.94278 6.21 8.86219 6.1697 8.86219 6.12C8.86219 6.07029 8.94278 6.03 9.04219 6.03C9.1416 6.03 9.22219 6.07029 9.22219 6.12Z" fill="#8A8A8A"/>
    <path d="M9.19969 6.12C9.19969 6.10826 9.18959 6.09158 9.15943 6.07649C9.1306 6.06207 9.08916 6.0525 9.04219 6.0525C8.99522 6.0525 8.95378 6.06207 8.92494 6.07649C8.89478 6.09158 8.88469 6.10826 8.88469 6.12C8.88469 6.13173 8.89478 6.14841 8.92494 6.1635C8.95378 6.17792 8.99522 6.1875 9.04219 6.1875C9.08916 6.1875 9.1306 6.17792 9.15943 6.1635C9.18959 6.14841 9.19969 6.13173 9.19969 6.12ZM9.24469 6.12C9.24469 6.15795 9.21451 6.18627 9.17956 6.20376C9.14325 6.22191 9.09463 6.2325 9.04219 6.2325C8.98975 6.2325 8.94113 6.22191 8.90481 6.20376C8.86986 6.18627 8.83969 6.15795 8.83969 6.12C8.83969 6.08204 8.86986 6.05372 8.90481 6.03624C8.94113 6.01808 8.98975 6.0075 9.04219 6.0075C9.09463 6.0075 9.14325 6.01808 9.17956 6.03624C9.21451 6.05372 9.24469 6.08204 9.24469 6.12Z" fill="black"/>
    <path d="M9.31219 1.44C9.31219 1.51456 9.1913 1.575 9.04219 1.575C8.89307 1.575 8.77219 1.51456 8.77219 1.44C8.77219 1.36544 8.89307 1.305 9.04219 1.305C9.1913 1.305 9.31219 1.36544 9.31219 1.44Z" fill="#8A8A8A"/>
    <path d="M9.31219 1.44C9.31219 1.36544 9.1913 1.305 9.04219 1.305C8.89307 1.305 8.77219 1.36544 8.77219 1.44C8.77219 1.51455 8.89307 1.575 9.04219 1.575C9.1913 1.575 9.31219 1.51455 9.31219 1.44ZM9.40219 1.44C9.40219 1.52973 9.33177 1.58674 9.27334 1.61595C9.20953 1.64785 9.12768 1.665 9.04219 1.665C8.95669 1.665 8.87484 1.64785 8.81103 1.61595C8.75261 1.58674 8.68219 1.52973 8.68219 1.44C8.68219 1.35026 8.75261 1.29325 8.81103 1.26404C8.87484 1.23214 8.95669 1.215 9.04219 1.215C9.12768 1.215 9.20953 1.23214 9.27334 1.26404C9.33177 1.29325 9.40219 1.35026 9.40219 1.44Z" fill="black"/>
    <path d="M9.22219 1.34999C9.22219 1.3997 9.1416 1.43999 9.04219 1.43999C8.94278 1.43999 8.86219 1.3997 8.86219 1.34999C8.86219 1.30029 8.94278 1.25999 9.04219 1.25999C9.1416 1.25999 9.22219 1.30029 9.22219 1.34999Z" fill="#8A8A8A"/>
    <path d="M9.19969 1.35C9.19969 1.33826 9.18959 1.32158 9.15943 1.30649C9.1306 1.29207 9.08916 1.2825 9.04219 1.2825C8.99522 1.2825 8.95378 1.29207 8.92494 1.30649C8.89478 1.32158 8.88469 1.33826 8.88469 1.35C8.88469 1.36173 8.89478 1.37841 8.92494 1.3935C8.95378 1.40792 8.99522 1.4175 9.04219 1.4175C9.08916 1.4175 9.1306 1.40792 9.15943 1.3935C9.18959 1.37841 9.19969 1.36173 9.19969 1.35ZM9.24469 1.35C9.24469 1.38795 9.21451 1.41627 9.17956 1.43376C9.14325 1.45191 9.09463 1.4625 9.04219 1.4625C8.98975 1.4625 8.94113 1.45191 8.90481 1.43376C8.86986 1.41627 8.83969 1.38795 8.83969 1.35C8.83969 1.31204 8.86986 1.28372 8.90481 1.26624C8.94113 1.24808 8.98975 1.2375 9.04219 1.2375C9.09463 1.2375 9.14325 1.24808 9.17956 1.26624C9.21451 1.28372 9.24469 1.31204 9.24469 1.35Z" fill="black"/>
    <path d="M5.95203 12.1606V11.6677L6.41562 11.8372V12.33L5.95203 12.1606Z" fill="#FDFF7D"/>
    <path d="M5.95203 10.6374V10.1445L6.41562 10.3139V10.8068L5.95203 10.6374Z" fill="#FDFF7D"/>
    <path d="M5.55468 11.4983V11.0055L5.95203 11.1749V11.6677L5.55468 11.4983Z" fill="#FDFF7D"/>
    <path d="M5.55468 9.97511V9.48226L5.95203 9.65168V10.1445L5.55468 9.97511Z" fill="#FDFF7D"/>
    <path d="M5.09109 10.8361V10.3432L5.55467 10.5126V11.0055L5.09109 10.8361Z" fill="#FDFF7D"/>
    <path d="M5.09109 9.31285V8.82L5.55467 8.98942V9.48226L5.09109 9.31285Z" fill="#FDFF7D"/>
    <path d="M4.69373 11.1672V10.6743L5.09109 10.8438V11.3366L4.69373 11.1672Z" fill="#FDFF7D"/>
    <path d="M4.69373 9.64398V9.15113L5.09109 9.32055V9.8134L4.69373 9.64398Z" fill="#FDFF7D"/>
    <path d="M4.23015 11.4983V11.0055L4.69373 11.1749V11.6677L4.23015 11.4983Z" fill="#FDFF7D"/>
    <path d="M4.23015 9.97511V9.48226L4.69373 9.65168V10.1445L4.23015 9.97511Z" fill="#FDFF7D"/>
    <path d="M12.51 9.624V8.85855L11.79 9.12167V9.88712L12.51 9.624Z" fill="#FDFF7D"/>
    <path d="M13.23 10.9611V10.1957L12.51 10.4588V11.2243L13.23 10.9611Z" fill="#FDFF7D"/>
    <path d="M13.23 12.504V11.7386L12.51 12.0017V12.7671L13.23 12.504Z" fill="#FDFF7D"/>
    <path d="M13.23 8.59543V7.82998L12.51 8.0931V8.85855L13.23 8.59543Z" fill="#FDFF7D"/>
    <path d="M13.95 9.10972V8.34427L13.23 8.60739V9.37284L13.95 9.10972Z" fill="#FDFF7D"/>
    <path d="M13.95 9.93257V9.16712L13.23 9.43024V10.1957L13.95 9.93257Z" fill="#FDFF7D"/>
</svg>
