<svg width="64" height="64" viewBox="0 0 64 64" fill="none" xmlns="http://www.w3.org/2000/svg">
    <path fill-rule="evenodd" clip-rule="evenodd" d="M32 54.3085C44.3207 54.3085 54.3086 44.3206 54.3086 31.9999C54.3086 19.6792 44.3207 9.69133 32 9.69133C19.6793 9.69133 9.69145 19.6792 9.69145 31.9999C9.69145 44.3206 19.6793 54.3085 32 54.3085ZM32 57.5999C46.1385 57.5999 57.6 46.1384 57.6 31.9999C57.6 17.8614 46.1385 6.3999 32 6.3999C17.8615 6.3999 6.40002 17.8614 6.40002 31.9999C6.40002 46.1384 17.8615 57.5999 32 57.5999Z" fill="#0EE6F3"/>
    <g clip-path="url(#clip0_1048_11240)">
        <path d="M32.7383 21.4666L41.5748 24.9797L41.5851 24.9941L41.7013 25.158L41.7123 25.1736V27.3111L41.5363 27.3815V36.5547L41.7013 36.7877L41.7123 36.8033V38.9408L40.7345 39.332L40.565 39.1024L34.475 41.527L34.298 41.9076L32.4984 42.6278L32.4876 42.632H31.6246L31.6139 42.6278L30.1186 42.0294L29.885 41.527L23.795 39.1024L23.5689 39.4085L22.4 38.9408V36.9065L22.5213 36.6341L22.5763 36.6457V27.3815L22.4378 27.3262L22.4 27.3111V25.2769L22.5213 25.0044L22.5313 24.9821L31.374 21.4666L31.3847 21.4624H32.7276L32.7383 21.4666Z" fill="white"/>
        <path d="M41.7013 25.158L41.5852 24.9941L41.5749 24.9797L32.7383 21.4666L32.7277 21.4624H31.3847L31.374 21.4666L22.5313 24.9821L22.5213 25.0044L22.4 25.2769V27.3111L22.4378 27.3263L22.5763 27.3816V36.6457L22.5213 36.6341L22.4 36.9066V38.9408L23.5689 39.4085L23.795 39.1024L29.885 41.527L30.1186 42.0294L31.6139 42.6278L31.6246 42.632H32.4877L32.4984 42.6278L34.298 41.9077L34.475 41.527L40.565 39.1024L40.7345 39.332L41.7123 38.9408V36.8033L41.5363 36.5548V27.3816L41.7123 27.3111V25.1736L41.7013 25.158ZM42.1923 27.3111L42.0163 27.5712V36.402L42.0931 36.5104L42.0933 36.5107L42.1043 36.5263L42.1923 36.8033V38.9408L41.8906 39.3865L40.9127 39.7777L40.4776 39.6538L34.8298 41.9023L34.7332 42.1102L34.4763 42.3533L32.6768 43.0734L32.6734 43.0747L32.6626 43.0789L32.4877 43.112H31.6246L31.448 43.0784L31.4373 43.0741L29.9402 42.4751L29.6834 42.2318L29.5302 41.9023L23.9612 39.6851L23.9549 39.6938L23.3905 39.8542L22.2217 39.3865L21.92 38.9408V36.9066L21.9615 36.7113L22.0828 36.4389L22.0963 36.432V27.5715L21.92 27.3111V25.2769L21.9615 25.0816L22.0828 24.8092L22.0832 24.8084L22.0931 24.7861L22.354 24.5361L31.1967 21.0206L31.1974 21.0203L31.2081 21.0161L31.3847 20.9824H32.7277L32.9043 21.0161L32.9149 21.0203L32.9156 21.0206L41.7522 24.5337L41.9652 24.7004L41.9755 24.7148L41.9768 24.7166L42.0929 24.8805L42.0933 24.881L42.1043 24.8966L42.1923 25.1736V27.3111Z" fill="white"/>
        <path d="M32.7383 21.4666L41.5748 24.9797L41.5851 24.9941L41.7013 25.158L41.7123 25.1736V27.3111L41.5363 27.3815V36.5547L41.7013 36.7877L41.7123 36.8033V38.9408L40.7345 39.332L40.565 39.1024L34.475 41.527L34.298 41.9076L32.4984 42.6278L32.4876 42.632H31.6246L31.6139 42.6278L30.1186 42.0294L29.885 41.527L23.795 39.1024L23.5689 39.4085L22.4 38.9408V36.9065L22.5213 36.6341L22.5763 36.6457V27.3815L22.4378 27.3262L22.4 27.3111V25.2769L22.5213 25.0044L22.5313 24.9821L31.374 21.4666L31.3847 21.4624H32.7276L32.7383 21.4666Z" fill="black"/>
        <path d="M41.7013 25.1583L41.5852 24.9943L41.5748 24.9799L32.7383 21.4669L32.7277 21.4627H31.3847L31.374 21.4669L22.5313 24.9824L22.5213 25.0046L22.4 25.2771V27.3114L22.4378 27.3265L22.5763 27.3818V36.6459L22.5213 36.6343L22.4 36.9068V38.9411L23.5689 39.4088L23.795 39.1027L29.885 41.5273L30.1186 42.0296L31.6139 42.628L31.6246 42.6322H32.4877L32.4984 42.628L34.298 41.9079L34.475 41.5273L40.565 39.1027L40.7345 39.3322L41.7123 38.9411V36.8036L41.5363 36.555V27.3818L41.7123 27.3114V25.1739L41.7013 25.1583ZM41.9523 27.3114L41.8015 27.5341L41.7763 27.5442V36.4786L41.8971 36.6492L41.8972 36.6495L41.9082 36.665L41.9523 36.8036V38.9411L41.8015 39.1638L40.8237 39.555L40.5414 39.4747L40.4818 39.3941L34.6523 41.715L34.5156 42.0091L34.3871 42.1307L32.5859 42.8515L32.5751 42.8557L32.4877 42.8722H31.6246L31.5363 42.8554L31.5257 42.8511L31.5247 42.8508L30.0294 42.2524L29.901 42.1308L29.7076 41.715L23.878 39.394L23.7619 39.5514L23.4797 39.6315L22.3109 39.1638L22.16 38.9411V36.9068L22.1808 36.8092L22.3021 36.5367L22.3363 36.5191V27.5443L22.3107 27.5341L22.16 27.3114V25.2771L22.1808 25.1795L22.3021 24.907L22.3023 24.9067L22.3123 24.8844L22.4426 24.7594L31.2853 21.2439L31.2858 21.2438L31.2964 21.2395L31.3847 21.2227H32.7277L32.8159 21.2395L32.8266 21.2438L32.827 21.2439L41.6635 24.7569L41.7701 24.8402L41.7804 24.8546L41.781 24.8556L41.8971 25.0195L41.8972 25.0198L41.9082 25.0354L41.9523 25.1739V27.3114Z" fill="black"/>
        <path d="M32.0563 23.3223L41.5363 27.0867V38.0378L32.0563 41.8023L22.5763 38.0378V27.0867L32.0563 23.3223Z" fill="#4A4D57"/>
        <path d="M22.6963 37.9565L31.9363 41.6257V30.9328L22.6963 27.2636V37.9565ZM32.1763 30.9328V41.6257L41.4163 37.9565V27.2636L32.1763 30.9328ZM22.9014 27.0869L32.0563 30.7222L41.2111 27.0869L32.0563 23.4516L22.9014 27.0869ZM41.6563 38.1195L32.0563 41.9316L22.4563 38.1195V27.0055L32.0563 23.1934L41.6563 27.0055V38.1195Z" fill="black"/>
        <path d="M41.5363 38.038V27.0869L32.0563 30.8514L32.0563 41.8025L41.5363 38.038Z" fill="#363841"/>
        <path d="M41.6563 38.1195L31.9363 41.9792V30.7698L41.6563 26.9102V38.1195ZM32.1763 30.9327V41.6256L41.4163 37.9565V27.2636L32.1763 30.9327Z" fill="black"/>
        <path d="M31.6963 28.9624H32.4163V42.5224H31.6963V28.9624Z" fill="#57585F"/>
        <path d="M32.4163 28.9624V42.5224H31.6963V28.9624H32.4163ZM31.7563 42.4624H32.3563V29.0224H31.7563V42.4624Z" fill="black"/>
        <path d="M22.46 25.4928V27.2706L31.6361 30.9424H32.4761L41.6523 27.2706V25.4928V25.1928L41.5361 25.0289L32.7161 21.5225H31.3961L22.5761 25.0289L22.46 25.2897V25.4928Z" fill="#3EEBF5"/>
        <path d="M41.5923 25.2117L41.4974 25.0779L32.7047 21.5824H31.4076L22.621 25.0754L22.52 25.3024V27.2298L31.6479 30.8824H32.4644L41.5923 27.2298V25.2117ZM41.7123 27.3111L32.4984 30.9981L32.4876 31.0024H31.6246L31.6139 30.9981L22.4 27.3111V25.2769L22.5213 25.0044L22.5313 24.9821L31.374 21.4666L31.3847 21.4624H32.7276L32.7383 21.4666L41.5748 24.9797L41.5851 24.9941L41.7013 25.158L41.7123 25.1736V27.3111Z" fill="black"/>
        <path d="M22.5763 25.2528L31.6963 28.8788H32.4163L41.5363 25.2528V25.0289L32.7163 21.5225H31.3963L22.5763 25.0289V25.2528Z" fill="#3EEBF5"/>
        <path d="M22.46 25.4927V25.2897L22.5761 25.0288V25.2527L22.46 25.4927Z" fill="#3EEBF5"/>
        <path d="M41.5361 25.2529L32.4161 28.8789L32.4761 29.1648L41.6523 25.4929L41.5361 25.2529Z" fill="#3EEBF5"/>
        <path d="M41.6523 25.4927V25.1928L41.5361 25.0288V25.2527L41.6523 25.4927Z" fill="#0AA3AD"/>
        <path d="M32.4162 28.8789H31.6962L31.6362 29.1648H32.4762L32.4162 28.8789Z" fill="#90F4F9"/>
        <path d="M22.46 25.4927V27.2705L31.6361 30.9423L31.6361 29.1645L22.46 25.4927Z" fill="#3EEBF5"/>
        <path d="M22.5761 25.2529L22.46 25.4929L31.6361 29.1648L31.6961 28.879L22.5761 25.2529Z" fill="#90F4F9"/>
        <path d="M32.4761 29.1645V30.9423L41.6523 27.2705V25.4927L32.4761 29.1645Z" fill="#0DD1DD"/>
        <path d="M32.4761 29.1646H31.6361V30.9423H32.4761V29.1646Z" fill="#5EEEF7"/>
        <path d="M32.7219 21.4927L32.7272 21.4948L41.5472 25.0012L41.5555 25.0044L41.6768 25.1756L41.6823 25.1835V27.2911L41.6635 27.2986L32.4873 30.9704L32.4819 30.9727H31.6304L31.6251 30.9704L22.4489 27.2986L22.4301 27.2911V25.2836L22.4326 25.2777L22.5488 25.0169L22.5537 25.0057L22.5651 25.0012L31.3851 21.4948L31.3904 21.4927H32.7219ZM31.6662 30.9127H32.4462V29.1948H31.6662V30.9127ZM22.4901 27.2504L31.6062 30.8983V29.1851L22.4901 25.5373V27.2504ZM32.5062 29.1851V30.8983L41.6223 27.2504V25.5373L32.5062 29.1851ZM31.6731 29.1348H32.4392L32.3918 28.909H31.7204L31.6731 29.1348ZM22.501 25.4771L31.614 29.1237L31.6615 28.8975L22.591 25.2912L22.501 25.4771ZM32.4506 28.8975L32.4981 29.1237L41.6112 25.4771L41.5212 25.2912L32.4506 28.8975ZM22.6062 25.0493V25.2326L31.7019 28.849H32.4103L41.5062 25.2326V25.0493L32.7103 21.5527H31.4019L22.6062 25.0493ZM22.4901 25.2962V25.3621L22.5462 25.246V25.1701L22.4901 25.2962ZM41.5662 25.2462L41.6223 25.3621V25.2025L41.5662 25.1233V25.2462Z" fill="black"/>
        <path d="M41.6522 36.8226V38.9004L40.6976 39.2823L40.565 39.1026L34.475 41.5272L34.3348 41.8283L32.4761 42.5722H31.6361L30.0816 41.9502L29.885 41.5272L23.795 39.1026L23.6057 39.3588L22.46 38.9004V36.9196L22.5761 36.6587V36.8826L31.6961 40.5087H32.4161L41.5361 36.8826V36.6587L41.6522 36.8226Z" fill="#3EEBF5"/>
        <path d="M41.7013 36.7875L41.7123 36.8031V38.9406L41.6746 38.9556L40.6769 39.3548L40.5442 39.175L34.5192 41.5737L34.3892 41.8532L34.3793 41.8748L34.3571 41.8836L32.4984 42.6275L32.4878 42.6318H31.6246L31.6139 42.6275L30.0594 42.0054L30.0373 41.9966L30.0273 41.9751L29.8406 41.5737L23.8158 39.175L23.6265 39.4313L22.4378 38.9556L22.4 38.9406V36.9064L22.5213 36.6339L22.6362 36.6583V36.8414L31.7076 40.4482H32.4047L41.4762 36.8414V36.4697L41.7013 36.7875ZM41.5583 36.938L32.4383 40.564L32.4276 40.5682H31.6847L31.674 40.564L22.554 36.938L22.5228 36.9255L22.52 36.9319V38.8593L23.5849 39.2855L23.7743 39.0293L29.9072 41.4711L29.9293 41.48L29.9394 41.5015L30.126 41.9029L31.6476 42.5118H32.4647L34.2905 41.781L34.4206 41.5015L34.4307 41.48L34.4529 41.4711L40.5858 39.0293L40.7184 39.209L41.5923 38.8593V36.9244L41.5583 36.938Z" fill="black"/>
        <path d="M32.42 40.5063H31.7L31.64 40.7922H32.48L32.42 40.5063Z" fill="#90F4F9"/>
        <path d="M22.46 37.1226V38.9003L23.6057 39.3588L23.795 39.1026L29.885 41.5271L30.0817 41.9502L31.6361 42.5722L31.6361 40.7944L22.46 37.1226Z" fill="#3EEBF5"/>
        <path d="M22.5761 36.8823L22.46 37.1223L31.6361 40.7942L31.6961 40.5083L22.5761 36.8823Z" fill="#90F4F9"/>
        <path d="M22.5761 36.8826L22.46 37.1226V36.9195L22.5761 36.6587V36.8826Z" fill="#3EEBF5"/>
        <path d="M32.4761 40.7944H31.6361L31.6361 42.5722H32.4761V40.7944Z" fill="#5EEEF7"/>
        <path d="M32.4761 40.7944V42.5722L34.3349 41.8284L34.475 41.5271L40.565 39.1026L40.6977 39.2823L41.6523 38.9003V37.1226L32.4761 40.7944Z" fill="#0DD1DD"/>
        <path d="M41.5361 36.8823L32.4161 40.5083L32.4761 40.7942L41.6523 37.1223L41.5361 36.8823Z" fill="#3EEBF5"/>
        <path d="M41.5361 36.8826L41.6523 37.1226V36.8226L41.5361 36.6587V36.8826Z" fill="#0AA3AD"/>
        <path d="M41.6768 36.8053L41.6823 36.813V38.9206L41.6635 38.9282L40.709 39.3102L40.6874 39.3188L40.6737 39.3002L40.5546 39.1391L34.4972 41.5505L34.3622 41.8411L34.3572 41.8518L34.3461 41.8563L32.4873 42.6001L32.4819 42.6022H31.6304L31.6251 42.6001L30.0707 41.978L30.0595 41.9737L30.0546 41.9629L29.8628 41.5505L23.8054 39.1391L23.6299 39.3767L23.6162 39.3954L23.5947 39.3867L22.4489 38.9282L22.4301 38.9206V36.9132L22.4326 36.9073L22.5488 36.6465L22.6062 36.6587V36.8622L31.7019 40.4786H32.4103L41.5062 36.8622V36.5645L41.6768 36.8053ZM31.6662 42.5422H32.4462V40.8245H31.6662V42.5422ZM22.4901 38.8801L23.5954 39.3223L23.7709 39.0848L23.7846 39.0662L23.8062 39.0747L29.8962 41.4993L29.9072 41.5037L29.9122 41.5146L30.104 41.9267L31.6062 42.5279V40.8147L22.4901 37.1668V38.8801ZM32.5062 40.8147V42.5279L34.3126 41.805L34.4479 41.5146L34.4529 41.5037L34.4639 41.4993L40.5539 39.0747L40.5755 39.0662L40.5892 39.0848L40.708 39.2458L41.6223 38.8801V37.1668L32.5062 40.8147ZM31.6731 40.7645H32.4392L32.3918 40.5386H31.7204L31.6731 40.7645ZM32.4506 40.5271L32.4981 40.7533L41.6113 37.1066L41.5213 36.9207L32.4506 40.5271ZM22.501 37.1066L31.614 40.7532L31.6615 40.5271L22.591 36.9207L22.501 37.1066ZM22.4901 36.9259V36.9916L22.5462 36.8755V36.7998L22.4901 36.9259ZM41.5662 36.8757L41.6223 36.9916V36.8321L41.5662 36.7529V36.8757Z" fill="black"/>
        <path d="M38.3307 24.9592L32.5409 22.6737C32.2295 22.5508 31.883 22.5508 31.5716 22.6737L25.7818 24.9592C25.5793 25.0391 25.5793 25.3257 25.7818 25.4057L31.5716 27.6911C31.883 27.814 32.2295 27.814 32.5409 27.6911L38.3307 25.4057C38.5332 25.3257 38.5332 25.0391 38.3307 24.9592Z" fill="#4A4D57"/>
        <path d="M31.5715 22.6742C31.8829 22.5513 32.2295 22.5513 32.5409 22.6742L38.3307 24.9596C38.5332 25.0396 38.5332 25.3262 38.3307 25.4061L32.5409 27.6916L32.4821 27.7132C32.206 27.8073 31.9064 27.8073 31.6304 27.7132L31.5715 27.6916L25.7818 25.4061C25.5793 25.3262 25.5793 25.0396 25.7818 24.9596L31.5715 22.6742ZM32.5189 22.73C32.2216 22.6127 31.8908 22.6127 31.5936 22.73L25.8038 25.0154C25.6519 25.0754 25.6519 25.2904 25.8038 25.3503L31.5936 27.6357C31.8908 27.7531 32.2216 27.753 32.5189 27.6357L38.3086 25.3503C38.4605 25.2904 38.4605 25.0754 38.3086 25.0154L32.5189 22.73Z" fill="black"/>
        <path d="M37.5258 25.0704L32.4016 23.0955C32.1794 23.0098 31.9333 23.0098 31.7111 23.0955L26.5869 25.0704C26.4844 25.1099 26.4844 25.2549 26.5869 25.2944L31.7111 27.2694C31.9333 27.355 32.1794 27.355 32.4016 27.2694L37.5258 25.2944C37.6283 25.2549 37.6283 25.1099 37.5258 25.0704Z" fill="#2A2B33"/>
        <path d="M31.7111 23.0955C31.9333 23.0099 32.1794 23.0098 32.4016 23.0955L37.5259 25.0704C37.6283 25.1099 37.6283 25.2549 37.5259 25.2944L32.4016 27.2693L32.3597 27.2845C32.1628 27.35 31.9499 27.35 31.753 27.2845L31.7111 27.2693L26.5869 25.2944C26.4908 25.2574 26.4848 25.1276 26.5688 25.079L26.5869 25.0704L31.7111 23.0955ZM32.38 23.1515C32.1717 23.0712 31.941 23.0712 31.7327 23.1515L26.6084 25.1264C26.5572 25.1462 26.5572 25.2186 26.6084 25.2384L31.7327 27.2133C31.941 27.2936 32.1717 27.2936 32.38 27.2133L37.5042 25.2384C37.5554 25.2186 37.5554 25.1462 37.5042 25.1264L32.38 23.1515Z" fill="black"/>
        <path d="M31.7176 23.9305C31.9361 23.848 32.1773 23.848 32.3958 23.9305L36.775 25.5839L32.4019 27.2694C32.1797 27.3551 31.9337 27.3551 31.7115 27.2694L27.3383 25.5839L31.7176 23.9305Z" fill="#1D1D26"/>
        <path d="M31.7176 23.9305C31.9361 23.848 32.1773 23.848 32.3958 23.9305L36.775 25.5839L32.4019 27.2694C32.1797 27.3551 31.9337 27.3551 31.7115 27.2694L27.3383 25.5839L31.7176 23.9305ZM32.3746 23.9867C32.1698 23.9093 31.9436 23.9093 31.7388 23.9867L27.5065 25.5844L31.733 27.2134C31.9413 27.2937 32.1721 27.2937 32.3804 27.2134L36.6066 25.5844L32.3746 23.9867Z" fill="black"/>
        <path d="M33.1362 31.8544L33.6087 31.1184L40.1733 28.5024L40.4706 28.7286V36.037L39.9981 36.7731L33.4335 39.389L33.1362 39.1629L33.1362 31.8544Z" fill="#1D1D26"/>
        <path d="M33.6087 39.5222L40.2237 36.8862L39.9981 36.7729L33.4335 39.3889L33.6087 39.5222Z" fill="#2A2B33"/>
        <path d="M40.2237 36.8864L40.6962 36.1503L40.4705 36.0371L39.998 36.7731L40.2237 36.8864Z" fill="#2A2B33"/>
        <path d="M40.6961 36.1502V28.8418L40.4705 28.7285V36.037L40.6961 36.1502Z" fill="#2A2B33"/>
        <path d="M40.2236 28.4824L40.6961 28.8419L40.4705 28.7287L40.1732 28.5025L40.2236 28.4824Z" fill="#4A4D57"/>
        <path d="M33.4937 39.3972L33.6133 39.4881L40.1505 36.8832L39.9965 36.8058L33.4937 39.3972ZM33.6285 31.1427L33.1662 31.8631V39.1479L33.438 39.3548L39.9778 36.7487L40.4405 36.0282V28.7434L40.1685 28.5365L33.6285 31.1427ZM40.0412 36.7612L40.213 36.8473L40.653 36.1621L40.4812 36.076L40.0412 36.7612ZM40.5005 36.0184L40.6662 36.1015V28.8603L40.5005 28.7772V36.0184ZM40.7262 36.1591L40.7214 36.1664L40.2489 36.9025L40.2437 36.9106L40.2348 36.9142L33.6198 39.5502L33.604 39.5564L33.5905 39.5462L33.118 39.1867L33.1062 39.1778V31.8456L33.111 31.8382L33.5835 31.1022L33.5887 31.0941L33.5976 31.0905L40.1622 28.4746L40.2126 28.4545L40.2284 28.4482L40.2419 28.4584L40.7262 28.827V36.1591Z" fill="black"/>
        <path d="M30.9763 39.2867V37.6608L30.0313 36.6205V33.62L30.9763 33.0987V31.699L30.5038 30.9707L29.4063 30.5379L28.7266 31.1963L28.501 31.3094L25.4403 30.1341L25.07 28.8282L23.9628 28.3916L23.642 28.6049V30.2309L24.587 31.2712V34.3848L23.642 34.9061V36.1927L24.1145 36.921L24.9698 37.2333L25.4403 36.6211L25.666 36.5079L29.0651 37.8132L29.5482 39.0635L30.6801 39.5097L30.9763 39.2867Z" fill="#1D1D26"/>
        <path d="M23.4163 28.7181V30.3441L23.6419 30.2309V28.605L23.4163 28.7181Z" fill="#4A4D57"/>
        <path d="M24.3613 31.3844L23.4163 30.3441L23.6419 30.231L24.5869 31.2712L24.3613 31.3844Z" fill="#4A4D57"/>
        <path d="M24.3612 34.4978V31.3841L24.5869 31.271V34.3847L24.3612 34.4978Z" fill="#4A4D57"/>
        <path d="M23.4163 35.0192L24.3613 34.4979L24.5869 34.3848L23.6419 34.9061L23.4163 35.0192Z" fill="#4A4D57"/>
        <path d="M23.4163 35.0194V36.3059L23.6419 36.1928V34.9062L23.4163 35.0194Z" fill="#4A4D57"/>
        <path d="M23.4163 36.306L23.8888 37.0343L24.1144 36.9212L23.6419 36.1929L23.4163 36.306Z" fill="#4A4D57"/>
        <path d="M23.8888 37.034L24.8444 37.3867L24.9698 37.2332L24.1145 36.9209L23.8888 37.034Z" fill="#4A4D57"/>
        <path d="M29.065 37.8131L25.6659 36.5078L25.4402 36.6209L28.8394 37.9262L29.065 37.8131Z" fill="#4A4D57"/>
        <path d="M28.8395 37.9266L29.3226 39.1769L29.5482 39.0638L29.0651 37.8135L28.8395 37.9266Z" fill="#4A4D57"/>
        <path d="M29.3225 39.1766L30.5038 39.6424L30.6801 39.5097L29.5482 39.0635L29.3225 39.1766Z" fill="#4A4D57"/>
        <path d="M23.8997 28.3343L25.081 28.8L25.0948 28.8055L25.0988 28.8198L25.465 30.1113L28.4936 31.2743L29.3015 30.4833L29.3153 30.4697L29.4173 30.5098L30.5237 30.9461L30.5289 30.9542L31.0014 31.6825L31.0062 31.6899V33.1162L30.9908 33.1247L30.0612 33.6375V36.6087L30.9984 37.6404L31.0062 37.649V39.3016L30.9943 39.3105L30.5218 39.6663L30.5083 39.6763L30.4927 39.6701L29.3115 39.2044L29.2993 39.1995L29.2945 39.1873L28.8161 37.9493L25.4503 36.6569L24.9935 37.2514L24.993 37.2521L24.8676 37.4056L24.854 37.4221L23.8783 37.0621L23.869 37.0586L23.8635 37.0503L23.391 36.322L23.3862 36.3146V35.0014L23.4017 34.9928L24.3312 34.48V31.3956L23.3941 30.364L23.3862 30.3555V28.7029L23.3982 28.6939L23.8707 28.3382L23.8842 28.3281L23.8997 28.3343ZM29.396 39.1731L30.499 39.6081L30.6192 39.5178L29.5496 39.096L29.396 39.1731ZM28.8772 37.9407L29.3385 39.1348L29.5103 39.0487L29.049 37.8545L28.8772 37.9407ZM25.5144 36.6171L28.8378 37.8933L28.9908 37.8166L25.6674 36.5404L25.5144 36.6171ZM23.964 37.0296L24.8346 37.351L24.9197 37.2467L24.1162 36.9534L23.964 37.0296ZM23.4596 36.3174L23.8993 36.995L24.0708 36.9089L23.6313 36.2313L23.4596 36.3174ZM23.4462 35.0376V36.257L23.6119 36.1739V34.9545L23.4462 35.0376ZM24.3912 31.4027V34.4492L24.5569 34.3661V31.3195L24.3912 31.4027ZM23.465 30.3529L24.368 31.3471L24.5381 31.2619L23.6349 30.2677L23.465 30.3529ZM28.6588 31.1964L28.709 31.1713L29.3519 30.5486L29.3295 30.5397L28.6588 31.1964ZM23.4462 28.7364V30.2952L23.6119 30.2121V28.6532L23.4462 28.7364ZM23.8341 28.4407L23.8982 28.3982L23.8933 28.3962L23.8341 28.4407ZM24.6169 34.4024L24.6013 34.411L23.6719 34.9236V36.1837L24.134 36.8959L24.9592 37.1972L25.4164 36.6026L25.4206 36.5971L25.4268 36.5941L25.6524 36.481L25.6642 36.475L25.6767 36.4797L29.0758 37.785L29.0882 37.7898L29.5714 39.0402L30.6754 39.4754L30.9462 39.2714V37.6721L30.0091 36.6405L30.0012 36.6319V33.602L30.0167 33.5935L30.9462 33.0807V31.7076L30.4837 30.9948L29.4132 30.5727L28.7474 31.2176L28.7442 31.2209L28.7401 31.2229L28.5144 31.3361L28.5025 31.342L28.4901 31.3373L25.4154 30.1565L25.0451 28.8504L23.9663 28.425L23.6719 28.6207V30.2191L24.6091 31.2508L24.6169 31.2593V34.4024Z" fill="black"/>
        <path d="M30.5601 34.0724C30.5601 34.0264 30.5863 33.9845 30.6277 33.9644L30.7477 33.9062C30.8274 33.8676 30.9201 33.9256 30.9201 34.0142V36.5391C30.9201 36.6452 30.7926 36.6991 30.7165 36.6253L30.5965 36.5089C30.5732 36.4863 30.5601 36.4552 30.5601 36.4228V34.0724Z" fill="#3EEBF5"/>
        <path d="M30.8601 34.0141C30.86 33.9699 30.8138 33.9409 30.7739 33.9602L30.6539 34.0184C30.6332 34.0284 30.6201 34.0494 30.6201 34.0724V36.4227C30.6201 36.4389 30.6267 36.4545 30.6383 36.4658L30.7583 36.5822C30.7964 36.6191 30.8601 36.5921 30.8601 36.5391V34.0141ZM30.9201 36.5391C30.9201 36.6385 30.8081 36.6921 30.7314 36.6376L30.7165 36.6253L30.5965 36.509C30.5732 36.4863 30.5601 36.4552 30.5601 36.4227V34.0724C30.5601 34.0264 30.5863 33.9844 30.6277 33.9643L30.7477 33.9062C30.8274 33.8676 30.92 33.9256 30.9201 34.0141V36.5391Z" fill="black"/>
        <path d="M23.84 34.061C23.84 34.108 23.8126 34.1506 23.7698 34.1701L23.6498 34.2249C23.5704 34.2612 23.48 34.2031 23.48 34.1158V31.5792C23.48 31.4742 23.6053 31.4199 23.682 31.4916L23.802 31.604C23.8262 31.6267 23.84 31.6584 23.84 31.6916V34.061Z" fill="#3EEBF5"/>
        <path d="M23.48 31.5792C23.48 31.4742 23.6054 31.4199 23.682 31.4916L23.802 31.6039C23.8262 31.6266 23.84 31.6584 23.84 31.6916V34.061L23.8387 34.0783C23.8329 34.1182 23.8072 34.153 23.7698 34.1701L23.6498 34.2249L23.6348 34.2305C23.5594 34.2537 23.48 34.1976 23.48 34.1157V31.5792ZM23.54 34.1157C23.54 34.1594 23.5852 34.1885 23.6249 34.1703L23.7449 34.1155C23.7663 34.1057 23.78 34.0844 23.78 34.061V31.6916C23.78 31.675 23.7731 31.6591 23.761 31.6477L23.641 31.5353C23.6027 31.4995 23.54 31.5267 23.54 31.5792V34.1157Z" fill="black"/>
        <path d="M24.0163 25.0623C24.0163 25.1617 23.8551 25.2423 23.6563 25.2423C23.4574 25.2423 23.2963 25.1617 23.2963 25.0623C23.2963 24.9629 23.4574 24.8823 23.6563 24.8823C23.8551 24.8823 24.0163 24.9629 24.0163 25.0623Z" fill="#8A8A8A"/>
        <path d="M24.0163 25.0627C24.0163 24.9633 23.8551 24.8827 23.6563 24.8827C23.4574 24.8827 23.2963 24.9633 23.2963 25.0627C23.2963 25.1621 23.4574 25.2427 23.6563 25.2427C23.8551 25.2427 24.0163 25.1621 24.0163 25.0627ZM24.1363 25.0627C24.1363 25.1823 24.0424 25.2584 23.9645 25.2973C23.8794 25.3398 23.7703 25.3627 23.6563 25.3627C23.5423 25.3627 23.4331 25.3398 23.3481 25.2973C23.2702 25.2584 23.1763 25.1823 23.1763 25.0627C23.1763 24.9431 23.2702 24.867 23.3481 24.8281C23.4331 24.7856 23.5423 24.7627 23.6563 24.7627C23.7703 24.7627 23.8794 24.7856 23.9645 24.8281C24.0424 24.867 24.1363 24.9431 24.1363 25.0627Z" fill="black"/>
        <path d="M23.8963 24.9423C23.8963 25.0085 23.7888 25.0623 23.6563 25.0623C23.5237 25.0623 23.4163 25.0085 23.4163 24.9423C23.4163 24.876 23.5237 24.8223 23.6563 24.8223C23.7888 24.8223 23.8963 24.876 23.8963 24.9423Z" fill="#8A8A8A"/>
        <path d="M23.8662 24.9425C23.8662 24.9268 23.8528 24.9046 23.8126 24.8845C23.7741 24.8652 23.7189 24.8525 23.6562 24.8525C23.5936 24.8525 23.5384 24.8652 23.4999 24.8845C23.4597 24.9046 23.4462 24.9268 23.4462 24.9425C23.4462 24.9581 23.4597 24.9804 23.4999 25.0005C23.5384 25.0197 23.5936 25.0325 23.6562 25.0325C23.7189 25.0325 23.7741 25.0197 23.8126 25.0005C23.8528 24.9804 23.8662 24.9581 23.8662 24.9425ZM23.9262 24.9425C23.9262 24.9931 23.886 25.0308 23.8394 25.0542C23.791 25.0784 23.7262 25.0925 23.6562 25.0925C23.5863 25.0925 23.5215 25.0784 23.4731 25.0542C23.4265 25.0308 23.3862 24.9931 23.3862 24.9425C23.3862 24.8919 23.4265 24.8541 23.4731 24.8308C23.5215 24.8066 23.5863 24.7925 23.6562 24.7925C23.7262 24.7925 23.791 24.8066 23.8394 24.8308C23.886 24.8541 23.9262 24.8919 23.9262 24.9425Z" fill="black"/>
        <path d="M40.8162 25.0623C40.8162 25.1617 40.655 25.2423 40.4562 25.2423C40.2574 25.2423 40.0962 25.1617 40.0962 25.0623C40.0962 24.9629 40.2574 24.8823 40.4562 24.8823C40.655 24.8823 40.8162 24.9629 40.8162 25.0623Z" fill="#8A8A8A"/>
        <path d="M40.8162 25.0627C40.8162 24.9633 40.655 24.8827 40.4562 24.8827C40.2574 24.8827 40.0962 24.9633 40.0962 25.0627C40.0962 25.1621 40.2574 25.2427 40.4562 25.2427C40.655 25.2427 40.8162 25.1621 40.8162 25.0627ZM40.9362 25.0627C40.9362 25.1823 40.8423 25.2584 40.7644 25.2973C40.6793 25.3398 40.5702 25.3627 40.4562 25.3627C40.3422 25.3627 40.2331 25.3398 40.148 25.2973C40.0701 25.2584 39.9762 25.1823 39.9762 25.0627C39.9762 24.9431 40.0701 24.867 40.148 24.8281C40.2331 24.7856 40.3422 24.7627 40.4562 24.7627C40.5702 24.7627 40.6793 24.7856 40.7644 24.8281C40.8423 24.867 40.9362 24.9431 40.9362 25.0627Z" fill="black"/>
        <path d="M40.6963 24.9423C40.6963 25.0085 40.5889 25.0623 40.4563 25.0623C40.3238 25.0623 40.2163 25.0085 40.2163 24.9423C40.2163 24.876 40.3238 24.8223 40.4563 24.8223C40.5889 24.8223 40.6963 24.876 40.6963 24.9423Z" fill="#8A8A8A"/>
        <path d="M40.6663 24.9425C40.6663 24.9268 40.6528 24.9046 40.6126 24.8845C40.5742 24.8652 40.5189 24.8525 40.4563 24.8525C40.3937 24.8525 40.3384 24.8652 40.3 24.8845C40.2597 24.9046 40.2463 24.9268 40.2463 24.9425C40.2463 24.9581 40.2597 24.9804 40.3 25.0005C40.3384 25.0197 40.3937 25.0325 40.4563 25.0325C40.5189 25.0325 40.5742 25.0197 40.6126 25.0005C40.6528 24.9804 40.6663 24.9581 40.6663 24.9425ZM40.7263 24.9425C40.7263 24.9931 40.686 25.0308 40.6394 25.0542C40.591 25.0784 40.5262 25.0925 40.4563 25.0925C40.3864 25.0925 40.3215 25.0784 40.2731 25.0542C40.2265 25.0308 40.1863 24.9931 40.1863 24.9425C40.1863 24.8919 40.2265 24.8541 40.2731 24.8308C40.3215 24.8066 40.3864 24.7925 40.4563 24.7925C40.5262 24.7925 40.591 24.8066 40.6394 24.8308C40.686 24.8541 40.7263 24.8919 40.7263 24.9425Z" fill="black"/>
        <path d="M32.4163 28.3026C32.4163 28.402 32.2551 28.4826 32.0563 28.4826C31.8575 28.4826 31.6963 28.402 31.6963 28.3026C31.6963 28.2031 31.8575 28.1226 32.0563 28.1226C32.2551 28.1226 32.4163 28.2031 32.4163 28.3026Z" fill="#8A8A8A"/>
        <path d="M32.4163 28.3024C32.4163 28.203 32.2551 28.1224 32.0563 28.1224C31.8575 28.1224 31.6963 28.203 31.6963 28.3024C31.6963 28.4019 31.8575 28.4824 32.0563 28.4824C32.2551 28.4824 32.4163 28.4019 32.4163 28.3024ZM32.5363 28.3024C32.5363 28.4221 32.4424 28.4981 32.3645 28.5371C32.2794 28.5796 32.1703 28.6024 32.0563 28.6024C31.9423 28.6024 31.8332 28.5796 31.7481 28.5371C31.6702 28.4981 31.5763 28.4221 31.5763 28.3024C31.5763 28.1828 31.6702 28.1068 31.7481 28.0678C31.8332 28.0253 31.9423 28.0024 32.0563 28.0024C32.1703 28.0024 32.2794 28.0253 32.3645 28.0678C32.4424 28.1068 32.5363 28.1828 32.5363 28.3024Z" fill="black"/>
        <path d="M32.2963 28.1825C32.2963 28.2488 32.1888 28.3025 32.0563 28.3025C31.9237 28.3025 31.8163 28.2488 31.8163 28.1825C31.8163 28.1162 31.9237 28.0625 32.0563 28.0625C32.1888 28.0625 32.2963 28.1162 32.2963 28.1825Z" fill="#8A8A8A"/>
        <path d="M32.2663 28.1822C32.2663 28.1666 32.2528 28.1443 32.2126 28.1242C32.1741 28.105 32.1189 28.0922 32.0563 28.0922C31.9936 28.0922 31.9384 28.105 31.8999 28.1242C31.8597 28.1443 31.8463 28.1666 31.8463 28.1822C31.8463 28.1979 31.8597 28.2201 31.8999 28.2402C31.9384 28.2595 31.9936 28.2722 32.0563 28.2722C32.1189 28.2722 32.1741 28.2595 32.2126 28.2402C32.2528 28.2201 32.2663 28.1979 32.2663 28.1822ZM32.3263 28.1822C32.3263 28.2328 32.286 28.2706 32.2394 28.2939C32.191 28.3181 32.1262 28.3322 32.0563 28.3322C31.9863 28.3322 31.9215 28.3181 31.8731 28.2939C31.8265 28.2706 31.7863 28.2328 31.7863 28.1822C31.7863 28.1316 31.8265 28.0939 31.8731 28.0705C31.9215 28.0463 31.9863 28.0322 32.0563 28.0322C32.1262 28.0322 32.191 28.0463 32.2394 28.0705C32.286 28.0939 32.3263 28.1316 32.3263 28.1822Z" fill="black"/>
        <path d="M32.4163 21.9427C32.4163 22.0421 32.2551 22.1227 32.0563 22.1227C31.8575 22.1227 31.6963 22.0421 31.6963 21.9427C31.6963 21.8433 31.8575 21.7627 32.0563 21.7627C32.2551 21.7627 32.4163 21.8433 32.4163 21.9427Z" fill="#8A8A8A"/>
        <path d="M32.4163 21.9426C32.4163 21.8432 32.2551 21.7626 32.0563 21.7626C31.8575 21.7626 31.6963 21.8432 31.6963 21.9426C31.6963 22.042 31.8575 22.1226 32.0563 22.1226C32.2551 22.1226 32.4163 22.042 32.4163 21.9426ZM32.5363 21.9426C32.5363 22.0622 32.4424 22.1382 32.3645 22.1772C32.2794 22.2197 32.1703 22.2426 32.0563 22.2426C31.9423 22.2426 31.8332 22.2197 31.7481 22.1772C31.6702 22.1382 31.5763 22.0622 31.5763 21.9426C31.5763 21.8229 31.6702 21.7469 31.7481 21.708C31.8332 21.6654 31.9423 21.6426 32.0563 21.6426C32.1703 21.6426 32.2794 21.6654 32.3645 21.708C32.4424 21.7469 32.5363 21.8229 32.5363 21.9426Z" fill="black"/>
        <path d="M32.2963 21.8226C32.2963 21.8889 32.1888 21.9426 32.0563 21.9426C31.9237 21.9426 31.8163 21.8889 31.8163 21.8226C31.8163 21.7564 31.9237 21.7026 32.0563 21.7026C32.1888 21.7026 32.2963 21.7564 32.2963 21.8226Z" fill="#8A8A8A"/>
        <path d="M32.2663 21.8224C32.2663 21.8067 32.2528 21.7845 32.2126 21.7644C32.1741 21.7451 32.1189 21.7324 32.0563 21.7324C31.9936 21.7324 31.9384 21.7451 31.8999 21.7644C31.8597 21.7845 31.8463 21.8067 31.8463 21.8224C31.8463 21.838 31.8597 21.8603 31.8999 21.8804C31.9384 21.8996 31.9936 21.9124 32.0563 21.9124C32.1189 21.9124 32.1741 21.8996 32.2126 21.8804C32.2528 21.8603 32.2663 21.838 32.2663 21.8224ZM32.3263 21.8224C32.3263 21.873 32.286 21.9107 32.2394 21.934C32.191 21.9583 32.1262 21.9724 32.0563 21.9724C31.9863 21.9724 31.9215 21.9583 31.8731 21.934C31.8265 21.9107 31.7863 21.873 31.7863 21.8224C31.7863 21.7718 31.8265 21.734 31.8731 21.7107C31.9215 21.6865 31.9863 21.6724 32.0563 21.6724C32.1262 21.6724 32.191 21.6865 32.2394 21.7107C32.286 21.734 32.3263 21.7718 32.3263 21.8224Z" fill="black"/>
        <path d="M27.9361 36.2367V35.5796L28.5542 35.8055V36.4626L27.9361 36.2367Z" fill="#FDFF7D"/>
        <path d="M27.9361 34.2055V33.5483L28.5542 33.7742V34.4314L27.9361 34.2055Z" fill="#FDFF7D"/>
        <path d="M27.4062 35.3534V34.6963L27.936 34.9222V35.5793L27.4062 35.3534Z" fill="#FDFF7D"/>
        <path d="M27.4062 33.3227V32.6655L27.936 32.8914V33.5485L27.4062 33.3227Z" fill="#FDFF7D"/>
        <path d="M26.7881 34.4706V33.8135L27.4062 34.0394V34.6965L26.7881 34.4706Z" fill="#FDFF7D"/>
        <path d="M26.7881 32.4394V31.7822L27.4062 32.0081V32.6652L26.7881 32.4394Z" fill="#FDFF7D"/>
        <path d="M26.2583 34.912V34.2549L26.7881 34.4808V35.1379L26.2583 34.912Z" fill="#FDFF7D"/>
        <path d="M26.2583 32.8813V32.2241L26.7881 32.45V33.1071L26.2583 32.8813Z" fill="#FDFF7D"/>
        <path d="M25.6402 35.3534V34.6963L26.2583 34.9222V35.5793L25.6402 35.3534Z" fill="#FDFF7D"/>
        <path d="M25.6402 33.3227V32.6655L26.2583 32.8914V33.5485L25.6402 33.3227Z" fill="#FDFF7D"/>
        <path d="M36.68 32.8546V31.834L35.72 32.1848V33.2054L36.68 32.8546Z" fill="#FDFF7D"/>
        <path d="M37.6401 34.6373V33.6167L36.6801 33.9675V34.9881L37.6401 34.6373Z" fill="#FDFF7D"/>
        <path d="M37.6401 36.6944V35.6738L36.6801 36.0247V37.0453L37.6401 36.6944Z" fill="#FDFF7D"/>
        <path d="M37.6401 31.483V30.4624L36.6801 30.8132V31.8338L37.6401 31.483Z" fill="#FDFF7D"/>
        <path d="M38.6 32.1685V31.1479L37.64 31.4988V32.5194L38.6 32.1685Z" fill="#FDFF7D"/>
        <path d="M38.6 33.2657V32.2451L37.64 32.5959V33.6165L38.6 33.2657Z" fill="#FDFF7D"/>
    </g>
    <defs>
        <clipPath id="clip0_1048_11240">
            <rect width="24" height="24" fill="white" transform="translate(20 20.0225)"/>
        </clipPath>
    </defs>
</svg>
