<svg width="40" height="40" viewBox="0 0 40 40" fill="none" xmlns="http://www.w3.org/2000/svg">
<g clip-path="url(#clip0_1657_34235)">
<circle cx="20" cy="20" r="20" fill="#1D1D26"/>
<path d="M19.5136 31.4892L9.55102 27.6736C8.9797 27.4542 9.07177 27.2587 8.83569 26.3048L8.59961 24.6355L19.4098 11.2714C19.6482 10.9232 20.085 10.7778 20.4816 10.9137L30.0381 14.1879C31.5349 14.7007 32.1227 16.5226 31.2115 17.8271L22.2852 30.6307C21.6643 31.5226 20.5217 31.8755 19.5113 31.4892H19.5136Z" fill="white"/>
<path d="M20.3517 32.001C20.0283 32.001 19.7025 31.9438 19.3885 31.8222L9.42585 28.0066C8.7908 27.7633 8.71761 27.4271 8.59957 26.8691C8.57124 26.7355 8.53819 26.5758 8.49097 26.3874L8.48389 26.3516L8.22656 24.5273L19.1264 11.0535C19.4546 10.5861 20.0566 10.3905 20.5948 10.5742L30.1514 13.8484C30.9706 14.1298 31.5962 14.7665 31.863 15.5988C32.1321 16.4311 31.9999 17.3182 31.5018 18.0312L22.5756 30.8349C22.0538 31.5813 21.2181 32.001 20.3517 32.001ZM19.6387 31.1544C20.4957 31.4835 21.4683 31.1831 21.9972 30.4247L30.9234 17.6211C31.2917 17.0916 31.3908 16.4358 31.1902 15.8206C30.9919 15.2053 30.5315 14.7331 29.9248 14.5257L20.3682 11.2514C20.1227 11.168 19.8488 11.2586 19.7001 11.4732L19.6836 11.4947L8.97022 24.7395L9.18269 26.2347C9.22991 26.4255 9.26296 26.5853 9.29129 26.7212C9.36369 27.063 9.49117 27.2689 9.67374 27.3389L19.6364 31.1544H19.6387Z" fill="#983614"/>
<path d="M30.9543 13.5425C30.9543 13.5425 30.9519 13.5353 30.9495 13.5329C30.9495 13.5305 30.9472 13.5258 30.9448 13.5234C30.9448 13.521 30.9424 13.5162 30.9401 13.5138C30.9401 13.5115 30.9377 13.5067 30.9354 13.5043C30.9354 13.5019 30.933 13.4972 30.9306 13.4948C30.9306 13.4924 30.9283 13.4876 30.9259 13.4852C30.9259 13.4828 30.9236 13.4781 30.9212 13.4757C30.9212 13.4733 30.9188 13.4685 30.9165 13.4662C30.9165 13.4638 30.9141 13.459 30.9118 13.4566C30.9118 13.4542 30.9094 13.4495 30.907 13.4471C30.907 13.4447 30.9047 13.4399 30.9023 13.4375C30.9023 13.4352 30.9 13.4304 30.8976 13.428C30.8976 13.4256 30.8952 13.4208 30.8929 13.4185C30.8905 13.4161 30.8905 13.4113 30.8882 13.4089C30.8882 13.4065 30.8858 13.4018 30.8834 13.3994C30.8834 13.397 30.8811 13.3922 30.8787 13.3898C30.8787 13.3875 30.8763 13.3827 30.874 13.3803C30.874 13.3779 30.8716 13.3731 30.8693 13.3708C30.8693 13.3684 30.8669 13.3636 30.8645 13.3612C30.8645 13.3588 30.8622 13.3541 30.8598 13.3517C30.8598 13.3493 30.8575 13.3445 30.8551 13.3421C30.8551 13.3398 30.8527 13.335 30.8504 13.3326C30.8504 13.3302 30.848 13.3255 30.8457 13.3231C30.8457 13.3207 30.8433 13.3159 30.8409 13.3135C30.8409 13.3111 30.8386 13.3064 30.8362 13.304C30.8362 13.3016 30.8339 13.2968 30.8315 13.2945C30.8315 13.2921 30.8291 13.2873 30.8268 13.2849C30.8268 13.2825 30.8244 13.2778 30.822 13.2754C30.822 13.273 30.8197 13.2682 30.8173 13.2658C30.8173 13.2635 30.815 13.2587 30.8126 13.2563C30.8126 13.2539 30.8102 13.2491 30.8079 13.2468C30.8079 13.2444 30.8055 13.2396 30.8032 13.2372C30.8032 13.2348 30.8008 13.2301 30.7984 13.2277C30.7984 13.2253 30.7961 13.2205 30.7937 13.2181C30.7937 13.2158 30.7914 13.211 30.789 13.2086C30.789 13.2062 30.7866 13.2014 30.7843 13.1991C30.7843 13.1967 30.7819 13.1919 30.7796 13.1895C30.7796 13.1871 30.7772 13.1824 30.7748 13.18C30.7748 13.1776 30.7725 13.1728 30.7701 13.1704C30.7701 13.1681 30.7677 13.1633 30.7654 13.1609C30.7654 13.1585 30.763 13.1538 30.7607 13.1514C30.7607 13.149 30.7583 13.1442 30.7559 13.1418C30.7559 13.1394 30.7536 13.1347 30.7512 13.1323C30.7512 13.1299 30.7489 13.1251 30.7465 13.1228C30.7465 13.1204 30.7441 13.1156 30.7418 13.1132C30.7418 13.1108 30.7394 13.1061 30.7371 13.1037C30.7371 13.1013 30.7347 13.0965 30.7323 13.0941C30.7323 13.0918 30.73 13.087 30.7276 13.0846C30.7276 13.0822 30.7253 13.0774 30.7229 13.0751C30.7229 13.0727 30.7205 13.0679 30.7182 13.0655C30.7182 13.0631 30.7158 13.0584 30.7135 13.056C30.7135 13.0536 30.7111 13.0488 30.7087 13.0464C30.7087 13.0441 30.7064 13.0393 30.704 13.0369C30.704 13.0345 30.7016 13.0297 30.6993 13.0274C30.6993 13.025 30.6969 13.0202 30.6946 13.0178C30.6946 13.0154 30.6922 13.0107 30.6898 13.0083C30.6898 13.0059 30.6875 13.0011 30.6851 12.9987C30.6851 12.9964 30.6828 12.9916 30.6804 12.9892C30.6804 12.9868 30.678 12.9821 30.6757 12.9797C30.6757 12.9773 30.6733 12.9725 30.671 12.9701C30.671 12.9677 30.6686 12.963 30.6662 12.9606C30.6662 12.9582 30.6639 12.9534 30.6615 12.9511C30.6615 12.9487 30.6592 12.9439 30.6568 12.9415C30.6568 12.9391 30.6544 12.9344 30.6521 12.932C30.6521 12.9296 30.6497 12.9248 30.6473 12.9224C30.6473 12.92 30.645 12.9153 30.6426 12.9129C30.6426 12.9105 30.6403 12.9057 30.6379 12.9034C30.6379 12.901 30.6355 12.8962 30.6332 12.8938C30.6332 12.8914 30.6308 12.8867 30.6285 12.8843C30.6285 12.8819 30.6261 12.8771 30.6237 12.8747C30.6237 12.8724 30.6214 12.8676 30.619 12.8652C30.619 12.8628 30.6167 12.858 30.6143 12.8557C30.6143 12.8533 30.6119 12.8485 30.6096 12.8461C30.6096 12.8437 30.6072 12.839 30.6049 12.8366C30.6049 12.8342 30.6025 12.8294 30.6001 12.827C30.6001 12.8247 30.5978 12.8199 30.5954 12.8175C30.5954 12.8151 30.5931 12.8104 30.5907 12.808C30.5907 12.8056 30.5883 12.8008 30.586 12.7984C30.586 12.796 30.5836 12.7913 30.5812 12.7889C30.5812 12.7865 30.5789 12.7817 30.5765 12.7793C30.5765 12.777 30.5742 12.7722 30.5718 12.7698C30.5718 12.7674 30.5694 12.7627 30.5671 12.7603C30.5671 12.7579 30.5647 12.7531 30.5624 12.7507C30.5624 12.7483 30.56 12.7436 30.5576 12.7412C30.5576 12.7388 30.5553 12.734 30.5529 12.7317C30.5529 12.7293 30.5506 12.7245 30.5482 12.7221C30.5482 12.7197 30.5458 12.715 30.5435 12.7126C30.5435 12.7102 30.5411 12.7054 30.5388 12.703C30.5388 12.7007 30.5364 12.6959 30.534 12.6935C30.534 12.6911 30.5317 12.6863 30.5293 12.684C30.5293 12.6816 30.5269 12.6768 30.5246 12.6744C30.5246 12.672 30.5222 12.6673 30.5199 12.6649C30.5199 12.6625 30.5175 12.6577 30.5151 12.6553C30.5151 12.653 30.5128 12.6482 30.5104 12.6458C30.5104 12.6434 30.5081 12.6387 30.5057 12.6363C30.5057 12.6339 30.5033 12.6291 30.501 12.6267C30.501 12.6243 30.4986 12.6196 30.4963 12.6172C30.4963 12.6148 30.4939 12.61 30.4915 12.6076C30.4915 12.6053 30.4892 12.6005 30.4868 12.5981C30.4868 12.5957 30.4845 12.591 30.4821 12.5886C30.2248 12.0162 29.7432 11.5393 29.0892 11.3151L19.5374 8.05041C19.1408 7.91448 18.704 8.05995 18.4656 8.40813L8.16771 23.3843C7.95052 23.7014 7.95288 24.0949 8.12522 24.4002C8.12522 24.4026 8.12758 24.4073 8.12994 24.4097C8.12994 24.4121 8.1323 24.4169 8.13466 24.4193C8.13466 24.4216 8.13702 24.4264 8.13938 24.4288C8.13938 24.4312 8.14174 24.4359 8.1441 24.4383C8.1441 24.4407 8.14646 24.4455 8.14882 24.4479C8.14882 24.4503 8.15119 24.455 8.15355 24.4574C8.15355 24.4598 8.15591 24.4646 8.15827 24.4669C8.15827 24.4693 8.16063 24.4741 8.16299 24.4765C8.16299 24.4789 8.16535 24.4836 8.16771 24.486C8.16771 24.4884 8.17007 24.4932 8.17243 24.4956C8.17243 24.4956 8.17243 24.5003 8.17479 24.5027L8.16063 24.4836L8.71542 27.3787L8.9515 26.4248L8.94442 25.7022C8.98691 25.7261 9.02941 25.7499 9.07662 25.7666L19.0392 29.5822C20.0497 29.9685 21.1899 29.6156 21.8132 28.7237L30.7394 15.92C31.2541 15.1832 31.2895 14.2817 30.9543 13.5449V13.5425Z" fill="#983614"/>
<path d="M18.5694 28.6259L8.60674 24.8104C8.03543 24.591 7.82059 23.8898 8.16763 23.3819L18.4655 8.40813C18.7039 8.05995 19.1407 7.91448 19.5373 8.05041L29.0939 11.3247C30.5906 11.8374 31.1784 13.6593 30.2672 14.9638L21.341 27.7674C20.7201 28.6593 19.5774 29.0123 18.567 28.6259H18.5694Z" fill="#D07815"/>
<path d="M20.9326 19.2854L19.7073 18.0858C19.6412 18.0215 19.5515 17.9833 19.4595 17.9785L17.7526 17.9165C17.4811 17.907 17.3088 17.616 17.4292 17.3704L18.1799 15.8203C18.22 15.7369 18.2295 15.6391 18.2035 15.5485L17.7337 13.8887C17.6582 13.624 17.8777 13.3688 18.1468 13.4094L19.8372 13.6526C19.9293 13.6669 20.0237 13.6431 20.0992 13.5906L21.5157 12.6272C21.7424 12.4745 22.0493 12.6057 22.0965 12.8776L22.3892 14.5779C22.4057 14.6709 22.4553 14.7544 22.5285 14.8116L23.8742 15.8752C24.089 16.0445 24.0583 16.3808 23.8175 16.5095L22.309 17.3156C22.2263 17.3585 22.1626 17.4324 22.1319 17.5207L21.5464 19.1399C21.452 19.3974 21.1285 19.4738 20.9326 19.283V19.2854Z" fill="#FBC814"/>
<path d="M14 28.3333L10.875 27L9 31.6667L10.875 31L11.5 33L14 28.3333Z" fill="#DE6150"/>
<path d="M6 14C7.5 13.6667 7.2 13 7.5 12C7.8 13 7.5 13.6667 9 14C7.8 14.3333 7.8 15 7.5 16C7.2 15 7.5 14.3333 6 14Z" fill="#0EE6F3"/>
<path d="M9 9.5C11 9.08333 10.6 8.25 11 7C11.4 8.25 11 9.08333 13 9.5C11.4 9.91667 11.4 10.75 11 12C10.6 10.75 11 9.91667 9 9.5Z" fill="#E8F78F"/>
<path d="M29 25.5C31 25.0833 30.6 24.25 31 23C31.4 24.25 31 25.0833 33 25.5C31.4 25.9167 31.4 26.75 31 28C30.6 26.75 31 25.9167 29 25.5Z" fill="#FF8FB4"/>
</g>
<defs>
<clipPath id="clip0_1657_34235">
<rect width="40" height="40" fill="white"/>
</clipPath>
</defs>
</svg>
