<svg width="20" height="20" viewBox="0 0 20 20" fill="none" xmlns="http://www.w3.org/2000/svg">
    <path d="M17.4953 12.2371L18.2473 11.8215L17.416 10.3172L16.6641 10.7328C16.0875 11.0518 15.5766 11.4773 15.1586 11.9867L11.7188 10L15.159 8.01328C15.577 8.52268 16.0879 8.94817 16.6645 9.26719L17.4164 9.68281L18.2477 8.17852L17.4957 7.76289C17.1938 7.59612 16.9183 7.3855 16.6781 7.13789L18.75 5.93945L17.8906 4.45312L15.8203 5.64766C15.7253 5.31569 15.6803 4.97141 15.6867 4.62617L15.7027 3.7668L13.984 3.73477L13.968 4.59414C13.9558 5.2524 14.0684 5.90701 14.2996 6.52344L10.8594 8.51133V4.53828C11.5094 4.43078 12.1332 4.20108 12.6977 3.86133L13.4336 3.41797L12.5465 1.9457L11.8105 2.38906C11.5147 2.56694 11.1942 2.70002 10.8594 2.78398V0.625H9.14062V2.78398C8.80581 2.70002 8.48528 2.56694 8.18945 2.38906L7.45352 1.9457L6.56641 3.41797L7.30234 3.86133C7.86684 4.20108 8.4906 4.43078 9.14062 4.53828V8.51133L5.70039 6.52344C5.93237 5.90663 6.04543 5.25146 6.03359 4.59258L6.01758 3.7332L4.29883 3.76523L4.31484 4.62461C4.32129 4.96985 4.27626 5.31412 4.18125 5.64609L2.10938 4.45312L1.25 5.94141L3.32227 7.13828C3.08214 7.38589 2.80661 7.59652 2.50469 7.76328L1.75273 8.17852L2.58398 9.68281L3.33594 9.26719C3.91253 8.94817 4.42338 8.52268 4.84141 8.01328L8.28125 10L4.84102 11.9867C4.42299 11.4773 3.91214 11.0518 3.33555 10.7328L2.58398 10.3172L1.75273 11.8215L2.50469 12.2371C2.80661 12.4039 3.08214 12.6145 3.32227 12.8621L1.25 14.0625L2.10938 15.5508L4.18164 14.3543C4.27665 14.6863 4.32168 15.0305 4.31523 15.3758L4.29922 16.2352L6.01797 16.2672L6.03398 15.4078C6.04575 14.7488 5.93255 14.0935 5.70039 13.4766L9.14062 11.4887V15.4617C8.4906 15.5692 7.86684 15.7989 7.30234 16.1387L6.56641 16.582L7.45352 18.0543L8.18945 17.6109C8.48528 17.4331 8.80581 17.3 9.14062 17.216V19.375H10.8594V17.216C11.1942 17.3 11.5147 17.4331 11.8105 17.6109L12.5465 18.0543L13.4336 16.582L12.6977 16.1387C12.1332 15.7989 11.5094 15.5692 10.8594 15.4617V11.4887L14.2996 13.4766C14.0676 14.0934 13.9546 14.7485 13.9664 15.4074L13.9824 16.2668L15.7012 16.2348L15.6852 15.3754C15.6791 15.0295 15.7246 14.6847 15.8203 14.3523L17.8906 15.5488L18.75 14.0625L16.6797 12.8637C16.9191 12.6157 17.194 12.4045 17.4953 12.2371Z" fill="#0EF393"/>
</svg>
