<svg width="28" height="28" viewBox="0 0 28 28" fill="none" xmlns="http://www.w3.org/2000/svg">
    <rect x="0.5" y="0.5" width="27" height="27" rx="13.5" fill="#1D1D26"/>
    <rect x="0.5" y="0.5" width="27" height="27" rx="13.5" stroke="black"/>
    <path d="M17.745 9.97875L18.7137 9.01008L19.6564 9.95275L18.6877 10.9214C19.6449 12.1195 20.107 13.6387 19.9791 15.1668C19.8512 16.695 19.143 18.1162 18 19.1386C16.857 20.1609 15.366 20.7068 13.833 20.6641C12.3001 20.6215 10.8417 19.9935 9.75736 18.9091C8.673 17.8247 8.045 16.3663 8.00233 14.8334C7.95965 13.3005 8.50555 11.8094 9.5279 10.6664C10.5503 9.52342 11.9715 8.81525 13.4996 8.68736C15.0278 8.55947 16.5469 9.02157 17.745 9.97875ZM13.333 11.3334V15.3334H17.333V14.0001H14.6664V11.3334H13.333ZM11.333 6.66675H16.6664V8.00008H11.333V6.66675Z" fill="white"/>
</svg>
