<svg width="24" height="21" viewBox="0 0 24 21" fill="none" xmlns="http://www.w3.org/2000/svg">
<path fill-rule="evenodd" clip-rule="evenodd" d="M6.81274 4.2748C6.34699 5.14516 5.44753 5.74329 4.39694 5.74329C2.85666 5.74329 1.64119 4.45761 1.64119 2.91327C1.64119 1.36893 2.85666 0.083252 4.39694 0.083252C5.59992 0.083252 6.60477 0.867493 6.98718 1.9467L19.0052 3.25119C19.4671 3.30134 19.8553 3.62081 19.9933 4.06449C20.1313 4.50817 19.9929 4.99146 19.6409 5.2948L4.95458 17.9518L17.7238 16.9651C18.0952 15.865 19.1101 15.0611 20.3281 15.0611C21.8684 15.0611 23.0838 16.3468 23.0838 17.8911C23.0838 19.4354 21.8684 20.7211 20.3281 20.7211C19.2923 20.7211 18.4034 20.1397 17.9322 19.2892L1.58987 20.5521C1.0872 20.591 0.616443 20.3025 0.422798 19.837C0.229152 19.3716 0.35643 18.8343 0.738338 18.5052L16.0828 5.28102L6.81274 4.2748Z" fill="#8A8A8A"/>
</svg>
