<svg width="42" height="44" viewBox="0 0 42 44" fill="none" xmlns="http://www.w3.org/2000/svg">
<path d="M20.811 42.1387C18.1619 42.1387 15.7154 41.4675 13.5317 40.1395C5.85556 35.4727 4.18274 24.0795 9.80636 14.743C13.6944 8.28634 20.1487 4.27637 26.6458 4.27637C29.2949 4.27637 31.7413 4.94756 33.9251 6.27562C41.6012 10.9424 43.2741 22.3356 37.6504 31.6721C33.7624 38.1288 27.311 42.1416 20.811 42.1416V42.1387Z" fill="#13B7AE"/>
<path d="M26.6457 3.41602V5.13703C29.1349 5.13703 31.4329 5.76807 33.4797 7.01007C40.7533 11.4302 42.2948 22.2927 36.9167 31.2248C35.0526 34.3226 32.5234 36.8984 29.6031 38.6739C26.7998 40.3777 23.7597 41.2784 20.8108 41.2784C18.3216 41.2784 16.0208 40.6474 13.9768 39.4054C10.5056 37.2942 8.21905 33.6514 7.5368 29.1452C6.83741 24.5214 7.90504 19.5678 10.5399 15.1906C12.4039 12.0928 14.9331 9.51702 17.8534 7.74151C20.6567 6.0377 23.6969 5.13703 26.6457 5.13703V3.41602ZM26.6457 3.41602C20.1114 3.41602 13.2289 7.40017 9.07259 14.3014C3.19776 24.0596 4.99332 35.9605 13.0891 40.8797C15.4584 42.3196 18.1046 43.0023 20.8108 43.0023C27.3451 43.0023 34.2276 39.0181 38.3839 32.1168C44.2588 22.3587 42.4632 10.4578 34.3675 5.5386C31.9981 4.09869 29.3519 3.41602 26.6457 3.41602Z" fill="black"/>
<path d="M15.1928 38.7256C12.5437 38.7256 10.0973 38.0544 7.91348 36.7263C0.237377 32.0595 -1.43258 20.6664 4.18819 11.3299C8.07619 4.87319 14.5305 0.860352 21.0277 0.860352C23.6768 0.860352 26.1232 1.53155 28.307 2.8596C35.9831 7.52643 37.6559 18.9196 32.0323 28.2561C28.1442 34.7128 21.6928 38.7256 15.1928 38.7256Z" fill="#76FFFB"/>
<path d="M21.0276 0V1.72102C23.5168 1.72102 25.8148 2.35206 27.8615 3.59406C31.3328 5.70517 33.6193 9.34799 34.3016 13.8542C35.001 18.478 33.9333 23.4316 31.2985 27.8088C29.4344 30.9066 26.9052 33.4824 23.985 35.2579C21.1817 36.9617 18.1415 37.8624 15.1927 37.8624C12.7035 37.8624 10.4026 37.2313 8.35871 35.9893C1.08511 31.5692 -0.456394 20.7067 4.92173 11.7746C6.7858 8.6768 9.31501 6.10101 12.2353 4.32549C15.0385 2.62168 18.0787 1.72102 21.0276 1.72102V0ZM21.0276 0C14.4933 0 7.61079 3.98416 3.4573 10.8854C-2.42038 20.6436 -0.621963 32.5416 7.47092 37.4637C9.84026 38.9036 12.4865 39.5863 15.1927 39.5863C21.7269 39.5863 28.6095 35.6021 32.7658 28.7008C38.6406 18.9427 36.8451 7.04183 28.7493 2.12259C26.38 0.68267 23.7337 0 21.0276 0Z" fill="black"/>
<path d="M7.55816 36.154L6.96716 37.1357L13.9919 41.4055L14.5829 40.4238L7.55816 36.154Z" fill="black"/>
<path d="M28.6735 2.12412L27.787 3.59668L34.8117 7.8664L35.6982 6.39384L28.6735 2.12412Z" fill="black"/>
<path d="M34.5208 8.81162L33.6343 10.2842L39.0958 13.6038L39.9823 12.1312L34.5208 8.81162Z" fill="black"/>
<path d="M35.6634 14.5479L34.7769 16.0205L40.2383 19.3401L41.1248 17.8675L35.6634 14.5479Z" fill="black"/>
<path d="M35.6618 20.8585L34.7753 22.3311L40.2368 25.6506L41.1232 24.1781L35.6618 20.8585Z" fill="black"/>
<path d="M32.5222 27.7403L31.6357 29.2129L37.0972 32.5325L37.9837 31.0599L32.5222 27.7403Z" fill="black"/>
<path d="M27.3839 33.1915L26.4974 34.6641L31.9589 37.9836L32.8454 36.5111L27.3839 33.1915Z" fill="black"/>
<path d="M22.2472 36.3448L21.3607 37.8174L26.8222 41.137L27.7087 39.6644L22.2472 36.3448Z" fill="black"/>
<path d="M17.1081 38.0675L16.2216 39.54L21.683 42.8596L22.5695 41.3871L17.1081 38.0675Z" fill="black"/>
<path d="M13.8882 19.0626L16.2205 19.0827L15.3498 23.5717C14.7132 24.0077 13.9682 24.3576 13.1146 24.6244C12.2611 24.8911 11.4761 25.0202 10.7567 25.0145C9.71477 25.0059 8.82127 24.742 8.07907 24.2257C7.33686 23.7094 6.81161 23.0038 6.50331 22.1088C6.19216 21.2139 6.14648 20.2157 6.36058 19.1085C6.57468 18.0013 7.01144 17.0261 7.67942 16.1455C8.3474 15.2649 9.16668 14.5765 10.1344 14.0803C11.1021 13.5841 12.1212 13.3402 13.1946 13.3489C13.9625 13.3546 14.699 13.5152 15.4069 13.8279C16.1149 14.1405 16.6858 14.5564 17.114 15.0756L15.1814 17.1236C14.8817 16.7335 14.5106 16.4237 14.0681 16.1943C13.6256 15.9648 13.166 15.8472 12.695 15.8443C12.1441 15.8386 11.6188 15.9791 11.1221 16.266C10.6225 16.5528 10.1972 16.9458 9.84323 17.4477C9.48926 17.9497 9.25232 18.5119 9.13243 19.1343C9.01253 19.7568 9.02681 20.339 9.18381 20.8525C9.34081 21.3659 9.61771 21.7675 10.0145 22.0601C10.4113 22.3526 10.8823 22.5047 11.4333 22.5075C11.9528 22.5133 12.5837 22.3354 13.323 21.9769L13.8882 19.0655V19.0626Z" fill="black"/>
<path d="M26.7397 14.2266C27.4905 14.7372 28.0272 15.4371 28.344 16.3205C28.6609 17.204 28.7123 18.1936 28.501 19.2893C28.2898 20.385 27.8502 21.3918 27.1907 22.2753C26.5313 23.1616 25.7263 23.8586 24.7757 24.3663C23.8251 24.874 22.8232 25.1236 21.7727 25.1121C20.7221 25.1006 19.8201 24.8396 19.0665 24.3233C18.3128 23.807 17.7819 23.0985 17.4679 22.1978C17.1539 21.2972 17.1053 20.2961 17.3194 19.1889C17.5307 18.0961 17.9646 17.1093 18.624 16.2345C19.2806 15.3596 20.0827 14.6741 21.0304 14.175C21.9782 13.6759 22.9773 13.435 24.0307 13.4436C25.084 13.4522 25.9861 13.7132 26.7397 14.2238V14.2266ZM22.0724 16.3607C21.5785 16.6475 21.1532 17.0434 20.7992 17.5511C20.4453 18.0588 20.2083 18.6181 20.0913 19.2291C19.9742 19.84 19.9914 20.4194 20.1512 20.93C20.3111 21.4406 20.5823 21.8479 20.9591 22.1462C21.333 22.4445 21.7784 22.5965 22.2893 22.6023C22.8003 22.608 23.2999 22.4646 23.7852 22.172C24.2705 21.8794 24.6844 21.4807 25.0298 20.973C25.3723 20.4653 25.6064 19.9003 25.7263 19.2778C25.8462 18.6554 25.8291 18.1047 25.6835 17.5941C25.5351 17.0835 25.2753 16.6791 24.9042 16.3865C24.5331 16.0939 24.0906 15.9448 23.5796 15.9391C23.0687 15.9333 22.5662 16.0739 22.0724 16.3607Z" fill="black"/>
</svg>
