<svg width="20" height="20" viewBox="0 0 20 20" fill="none" xmlns="http://www.w3.org/2000/svg">
<path d="M3.9828 5.10146C5.15712 5.10146 6.09487 4.11936 6.09487 2.92573C6.09487 1.7321 5.15712 0.75 3.9828 0.75C2.80848 0.75 1.87073 1.7321 1.87073 2.92573C1.87073 4.11936 2.80848 5.10146 3.9828 5.10146Z" fill="#8A8A8A" stroke="#8A8A8A" stroke-width="0.5"/>
<path d="M17.6379 17.9393C18.8123 17.9393 19.75 16.9573 19.75 15.7636C19.75 14.57 18.8123 13.5879 17.6379 13.5879C16.4636 13.5879 15.5259 14.57 15.5259 15.7636C15.5259 16.9573 16.4636 17.9393 17.6379 17.9393Z" fill="#8A8A8A" stroke="#8A8A8A" stroke-width="0.5"/>
<path d="M3.98276 2.8623L16.3966 4.20976L1.5 17.048L16.3966 15.8968" stroke="#8A8A8A" stroke-width="2" stroke-linejoin="round"/>
</svg>
