<svg width="36" height="39" viewBox="0 0 36 39" fill="none" xmlns="http://www.w3.org/2000/svg">
<g clip-path="url(#clip0_6500_59794)">
<path d="M27.7674 25.3605C27.3655 25.9146 26.5557 25.9269 26.137 25.3849C25.8491 25.0119 25.5635 24.64 25.2828 24.2657C23.3668 21.7042 21.4785 19.1243 19.9824 16.2741C18.7839 13.9915 17.9765 11.6037 17.9957 8.96879C18.0317 4.27024 22.034 0.17232 26.6409 0.00595636C32.09 -0.192212 36.5962 4.57973 35.9351 10.537C35.658 13.0361 34.7258 15.3102 33.3881 17.3604C31.9328 19.5904 29.1387 23.4705 27.7674 25.3617V25.3605ZM31.2742 9.17674C31.2574 6.75346 29.3546 4.81092 27.0056 4.81826C24.6242 4.8256 22.6998 6.82808 22.7418 9.25503C22.7826 11.6135 24.7501 13.5634 27.05 13.523C29.3906 13.4814 31.2898 11.5278 31.273 9.17797L31.2742 9.17674Z" fill="#0EE6F3"/>
<path d="M26.8508 28.9457H26.8352C25.8586 28.9457 24.954 28.4943 24.3554 27.7077C23.2072 26.2007 22.0843 24.7218 20.9698 23.2012C19.0358 20.5639 17.6753 18.2825 16.7036 16.0439L9.28809 23.5719C10.2287 24.5322 11.1704 25.4912 12.1122 26.4502L15.9597 30.372C18.6183 33.084 21.3681 35.8877 24.0986 38.6523C24.2906 38.8467 24.5137 38.9654 24.6181 38.9678C26.3805 39.0119 28.1753 38.9997 29.6977 38.9825C30.5975 38.9727 31.3209 38.7574 31.9124 38.3244C32.961 37.5574 33.4708 36.4614 33.4708 34.9727C33.4708 32.7096 33.4708 30.4478 33.472 28.1848C33.472 26.1701 33.4732 24.1566 33.4732 22.1419L29.3354 27.682C28.7403 28.4796 27.8346 28.9396 26.8508 28.9445V28.9457Z" fill="#BFBFBF"/>
<path d="M33.472 22.1439C33.472 24.1586 33.472 26.1721 33.4708 28.1868C33.4708 30.4498 33.4696 32.7116 33.4696 34.9746C33.4696 36.4633 32.9597 37.5606 31.9112 38.3264C31.3197 38.7582 30.5963 38.9735 29.6965 38.9845C28.1729 39.0016 26.3781 39.0138 24.6169 38.9698C24.5125 38.9674 24.2906 38.8487 24.0974 38.6542C21.3668 35.8896 18.6171 33.0859 15.9585 30.374L12.111 26.4522C11.1692 25.4931 10.2274 24.5341 9.28687 23.5738L16.7023 16.0459C17.6741 18.2832 19.0346 20.5658 20.9685 23.2032C22.0831 24.7237 23.206 26.2026 24.3541 27.7097C24.954 28.4962 25.8574 28.9476 26.834 28.9476H26.8496C27.8321 28.9427 28.7379 28.4828 29.3342 27.6852L33.472 22.1451V22.1439Z" fill="#5FB1B5"/>
<path d="M15.3899 13.003C15.5711 12.8196 15.6022 12.7205 15.5591 12.4721C15.06 9.59015 15.2771 7.10693 16.2225 4.89405C15.2231 4.89405 14.2238 4.89405 13.2256 4.89282H13.0181C11.8183 4.89282 10.603 4.8916 9.3805 4.8916C7.58932 4.8916 5.78614 4.89282 3.99976 4.89894C1.51394 4.90506 0.0286827 6.44392 0.027483 9.01399C0.0250835 15.5719 0.0226841 22.1298 0.0214844 28.6877C0.373002 28.3146 0.734118 27.9317 1.10363 27.555C5.31705 23.2576 10.3103 18.1664 15.3899 13.0018V13.003Z" fill="#BFBFBF"/>
<path d="M0.027483 9.01424C0.027483 6.44417 1.51274 4.9053 3.99976 4.89796C5.78614 4.89307 7.58932 4.89062 9.3805 4.89062C10.6018 4.89062 11.8171 4.89063 13.0181 4.89185H13.2256C14.225 4.89185 15.2243 4.89307 16.2225 4.89307C15.2771 7.10595 15.0612 9.58795 15.5591 12.4712C15.6022 12.7195 15.5699 12.8186 15.3899 13.0021C10.3103 18.1667 5.31705 23.2567 1.10363 27.5552C0.735318 27.932 0.373002 28.3148 0.0214844 28.6879C0.0214844 22.13 0.0250835 15.5721 0.027483 9.01424Z" fill="#5FB1B5"/>
<path d="M4.97035 27.8223C3.82822 28.9905 2.68728 30.1575 1.54275 31.3233C0.718542 32.1624 0.304639 32.5832 0.135478 33.015C-0.0324825 33.4456 -0.0120872 34.023 0.0287033 35.1741C0.0646949 36.1723 0.307038 36.9332 0.794125 37.5705C1.54635 38.5589 2.6057 38.9992 4.22532 38.9992H4.24212C7.91686 38.9931 11.618 38.9943 15.1968 38.9956C16.8356 38.9956 18.4816 38.9992 20.1144 38.9968L7.04467 25.7012C6.35243 26.4082 5.66139 27.1153 4.97035 27.8223Z" fill="#BFBFBF"/>
<path d="M15.1968 38.9956C11.618 38.9943 7.91686 38.9919 4.24212 38.9992H4.22532C2.6045 38.9992 1.54635 38.5589 0.794125 37.5705C0.308238 36.9332 0.0646949 36.1711 0.0287033 35.1741C-0.0120872 34.023 -0.0324825 33.4456 0.135478 33.015C0.304639 32.582 0.718542 32.1612 1.54275 31.3233C2.68728 30.1587 3.82942 28.9905 4.97035 27.8223C5.66139 27.1153 6.35243 26.4082 7.04467 25.7012L20.1156 38.9968C18.4816 38.9992 16.8368 38.9968 15.198 38.9956H15.1968Z" fill="#79D4D9"/>
</g>
<defs>
<clipPath id="clip0_6500_59794">
<rect width="36" height="39" fill="white"/>
</clipPath>
</defs>
</svg>
