<svg width="28" height="28" viewBox="0 0 28 28" fill="none" xmlns="http://www.w3.org/2000/svg">
<path d="M13.9998 26.0455C13.7276 26.0455 13.4554 25.9969 13.1832 25.8997C12.9109 25.8025 12.6679 25.6566 12.454 25.4622C11.1901 24.2955 6.665 17.6607 6.665 17.6607C6.01323 16.62 5.51739 15.6186 5.1775 14.6565C4.83762 13.6944 4.66728 12.7755 4.6665 11.8997C4.6665 8.98301 5.60489 6.6594 7.48167 4.92884C9.35845 3.19829 11.5312 2.33301 13.9998 2.33301C16.4693 2.33301 18.6424 3.19829 20.5192 4.92884C22.3959 6.6594 23.3339 8.98301 23.3332 11.8997C23.3332 12.7747 23.1632 13.6936 22.8233 14.6565C22.4834 15.6194 21.9876 16.6208 21.3358 17.6607C21.3358 17.6607 16.8096 24.2955 15.5457 25.4622C15.3318 25.6566 15.0887 25.8025 14.8165 25.8997C14.5443 25.9969 14.2721 26.0455 13.9998 26.0455ZM13.9998 13.9997C14.6415 13.9997 15.191 13.7714 15.6483 13.3148C16.1057 12.8583 16.3339 12.3088 16.3332 11.6663C16.3332 11.0247 16.1049 10.4756 15.6483 10.019C15.1918 9.56245 14.6423 9.33379 13.9998 9.33301C13.3582 9.33301 12.8091 9.56168 12.3525 10.019C11.8959 10.4763 11.6673 11.0255 11.6665 11.6663C11.6665 12.308 11.8952 12.8575 12.3525 13.3148C12.8098 13.7722 13.3589 14.0005 13.9998 13.9997Z" fill="black"/>
</svg>
