<svg width="141" height="34" viewBox="0 0 141 34" fill="none" xmlns="http://www.w3.org/2000/svg">
<path d="M116.716 4.27108L115.688 1.91602L113.099 3.71874H101.853C100.652 3.71874 99.628 3.81 98.7837 3.99411C97.9377 4.17663 97.1895 4.50803 96.5391 4.98673C95.887 5.46543 95.3022 6.11063 94.7831 6.92554C94.264 7.73885 93.7401 8.77789 93.2098 10.0395L88.8424 20.2939C88.4755 21.1456 88.2288 21.9157 88.0974 22.6073L87.3396 22.8074L88.1615 24.7334C88.1919 24.8151 88.2256 24.8967 88.264 24.972L88.2784 25.004H88.2816C88.8071 26.011 90.0408 26.5186 91.989 26.5186H102.374C103.534 26.5186 104.532 26.4273 105.367 26.2432C106.202 26.0607 106.94 25.7341 107.581 25.2666C108.222 24.7991 108.797 24.1635 109.306 23.3582C109.816 22.5545 110.324 21.5314 110.833 20.2907L112.666 16.1025C112.91 15.5117 113.099 15.0234 113.232 14.6375C113.304 14.4278 113.355 14.2389 113.387 14.0708L113.608 14.1172L113.429 13.6673C113.424 13.408 113.344 13.2063 113.187 13.0622L112.347 10.9665C112.347 10.9665 111.04 10.88 110.016 10.7775H113.57C114.017 10.7775 114.323 10.5646 114.486 10.1371L115.516 7.8333L116.737 5.13562C116.763 5.07959 116.782 5.02355 116.796 4.96592C116.859 4.72417 116.824 4.47921 116.718 4.27268L116.716 4.27108ZM108.1 12.6827H105.992C105.958 12.6827 105.926 12.6907 105.896 12.7035L105.416 13.4944L105.748 16.0208L106.126 18.8258L104.333 19.3733L97.7919 21.3681L96.5278 21.754L98.7484 17.577L98.9294 17.276L98.9246 17.244L98.7212 15.723L98.5497 14.4454L98.2277 11.9751L98.2181 11.9671L98.2149 11.9319L98.2213 11.9271L100.129 11.3491L101.057 11.0689L101.155 11.0385L106.661 9.37186L107.37 10.6094C107.328 10.6815 107.378 10.7743 107.464 10.7743L110.12 12.6811H108.097L108.1 12.6827ZM105.931 7.85092L104.909 10.1243L108.654 10.7327L107.533 8.33122" fill="black"/>
<path d="M136.741 3.48047H126.183C125.027 3.48047 124.022 3.57333 123.2 3.75584C122.37 3.93996 121.628 4.27777 120.994 4.75807C120.361 5.23836 119.776 5.89477 119.256 6.70968C118.738 7.52139 118.209 8.56844 117.682 9.82202L113.331 20.038C112.761 21.3588 112.472 22.4955 112.472 23.4145C112.472 25.3645 113.84 26.3523 116.538 26.3523H127.096C128.253 26.3523 129.258 26.2595 130.08 26.077C130.908 25.8928 131.65 25.5614 132.286 25.0907C132.92 24.62 133.5 23.9748 134.01 23.1695C134.516 22.369 135.04 21.338 135.567 20.102L139.918 9.88606C140.487 8.54443 140.777 7.3773 140.777 6.4183C140.777 4.46828 139.42 3.48047 136.741 3.48047ZM126.146 10.2847H131.139C131.534 10.2847 131.581 10.4544 131.581 10.5825C131.581 10.6882 131.534 10.8627 131.441 11.1028L128.191 18.6723C127.95 19.2631 127.604 19.5497 127.133 19.5497H122.141C121.745 19.5497 121.699 19.38 121.699 19.2535C121.699 19.1478 121.745 18.9717 121.838 18.7348L125.089 11.1637C125.329 10.5729 125.675 10.2847 126.146 10.2847Z" fill="black"/>
<path d="M63.4515 20.448H56.8042C57.1727 20.3023 57.554 20.1278 57.945 19.9244L59.805 18.9366H59.8259L65.5423 15.9668C65.9492 15.7634 66.2472 15.4545 66.4315 15.0478L68.2515 10.7923C68.3348 10.5666 68.3348 10.4017 68.2531 10.2848C68.1794 10.1808 68.0448 10.1279 67.8526 10.1279H52.0395C51.6133 10.1279 51.3217 10.3329 51.1743 10.7331L49.1781 15.3696C49.0947 15.5937 49.0948 15.7602 49.1749 15.8771C49.2486 15.9812 49.3831 16.0356 49.5754 16.0356H55.8974C55.5097 16.1893 55.1188 16.3654 54.7311 16.5591L50.2851 18.8758L47.0152 20.576C46.5874 20.8002 46.299 21.1108 46.158 21.495L44.3668 25.6912C44.2835 25.9154 44.2835 26.0819 44.3636 26.1987C44.4373 26.3028 44.5719 26.3556 44.7642 26.3556H61.0178C61.444 26.3556 61.7356 26.1507 61.883 25.7505L63.8472 21.1204C63.9514 20.901 63.9642 20.7377 63.8905 20.6193C63.8184 20.5056 63.6758 20.4496 63.4531 20.4496L63.4515 20.448Z" fill="black"/>
<path d="M25.1189 15.4288L27.1152 10.7923C27.1985 10.5666 27.1985 10.4017 27.1168 10.2848C27.0431 10.1808 26.9085 10.1279 26.7162 10.1279H19.3929C19.2022 10.1279 19.0244 10.232 18.9314 10.3985L18.4364 11.2887L17.2572 10.2576C17.1611 10.1728 17.0377 10.1279 16.9095 10.1279H12.1031C11.2412 10.1279 10.469 10.2128 9.81048 10.3793C9.14879 10.5474 8.54799 10.818 8.0241 11.183C7.5002 11.5496 7.01956 12.0443 6.59659 12.6543C6.17363 13.2627 5.77149 14.0168 5.3998 14.8973L2.58324 21.5511C2.20834 22.4172 2.01929 23.2065 2.01929 23.8997C2.01929 25.5279 3.11194 26.354 5.26842 26.354H12.1945L11.3934 27.6637C11.0137 28.1808 10.6468 28.4225 10.235 28.4225H5.12102C4.69486 28.4225 4.40166 28.6275 4.25587 29.0277L2.49672 33.1583C2.39259 33.3776 2.37977 33.5409 2.45347 33.6594C2.52556 33.7731 2.66815 33.8291 2.89085 33.8291H9.78645C10.9592 33.8291 11.9621 33.7298 12.768 33.5329C13.5771 33.3344 14.2933 32.995 14.8957 32.5211C15.4965 32.0488 16.0412 31.41 16.5138 30.6223C16.9816 29.8426 17.4767 28.8436 17.9846 27.6525L23.1867 16.0308H24.2505C24.6767 16.0308 24.9683 15.8259 25.1157 15.4256L25.1189 15.4288ZM10.3023 19.7387L11.5648 16.8041C11.7683 16.2854 12.0615 16.034 12.4588 16.034H16.2991L14.431 20.448H10.5234C10.2302 20.448 10.1934 20.3183 10.1934 20.2062C10.1934 20.0621 10.2302 19.9052 10.3039 19.7387H10.3023Z" fill="black"/>
<path d="M43.7613 20.4562H42.7663L46.8982 10.8054C46.9816 10.5813 46.9816 10.4148 46.9014 10.2979C46.8277 10.1938 46.6948 10.1394 46.5009 10.1394L40.8966 10.133C40.549 10.133 40.2366 10.3395 40.102 10.6613L39.7046 11.6075L37.6155 10.2659C37.4761 10.1762 37.3159 10.1298 37.1508 10.1298L33.5621 10.125C32.7241 10.125 31.9567 10.2034 31.2982 10.3587C30.635 10.5156 30.0342 10.7814 29.5103 11.1464C28.9864 11.5115 28.5041 12.0062 28.0795 12.6162C27.6582 13.2213 27.2448 13.985 26.8507 14.8864L24.2312 21.0694C23.7201 22.2654 23.459 23.2516 23.459 24.0024C23.459 24.7693 23.7249 25.3569 24.252 25.7539C24.7727 26.1446 25.5978 26.3431 26.7049 26.3447L41.3164 26.3623C41.741 26.3623 42.0326 26.1574 42.1816 25.7571L44.1522 21.1303C44.2563 20.9109 44.2707 20.7476 44.1954 20.6291C44.1249 20.5171 43.9775 20.4594 43.7581 20.4594L43.7613 20.4562ZM31.7468 19.7326L33.0141 16.7996C33.2176 16.2824 33.5108 16.0311 33.9081 16.0311L37.7484 16.0359L35.8739 20.4466L31.9663 20.4418C31.8478 20.4418 31.7613 20.421 31.7084 20.3778C31.6603 20.3394 31.6363 20.2817 31.6363 20.1985C31.6363 20.0528 31.6731 19.8975 31.7468 19.7326Z" fill="black"/>
<path d="M85.2823 20.4562H84.2873L88.4192 10.8054C88.5026 10.5813 88.5025 10.4148 88.4224 10.2979C88.3487 10.1938 88.2158 10.1394 88.0219 10.1394L82.4176 10.133C82.07 10.133 81.7576 10.3395 81.623 10.6613L81.2256 11.6075L79.1365 10.2659C78.9971 10.1762 78.8369 10.1298 78.6718 10.1298L75.0831 10.125C74.2371 10.125 73.4777 10.2034 72.8192 10.3587C72.1559 10.5156 71.5551 10.7814 71.0312 11.1464C70.5073 11.5115 70.0251 12.0062 69.6005 12.6162C69.1792 13.2213 68.7658 13.985 68.3717 14.8864L65.7522 21.0694C65.2395 22.2654 64.98 23.2516 64.98 24.0024C64.98 24.7693 65.2459 25.3569 65.773 25.7539C66.2937 26.1446 67.1188 26.3431 68.2259 26.3447L82.8374 26.3623H82.839C83.2636 26.3623 83.5552 26.1574 83.7042 25.7571L85.6748 21.1303C85.7789 20.9109 85.7933 20.7476 85.718 20.6291C85.6475 20.5171 85.5001 20.4594 85.2807 20.4594L85.2823 20.4562ZM73.2678 19.7326L74.5351 16.7996C74.7386 16.2824 75.0318 16.0311 75.4291 16.0311L79.2694 16.0359L77.3949 20.4466L73.4873 20.4418C73.3688 20.4418 73.2823 20.421 73.2294 20.3778C73.1813 20.3394 73.1573 20.2817 73.1573 20.1985C73.1573 20.0544 73.1941 19.8975 73.2678 19.7326Z" fill="black"/>
<path d="M115.577 24.4319C112.773 24.4319 111.351 23.3897 111.351 21.334C111.351 20.3926 111.644 19.2351 112.222 17.8935L116.574 7.6791C117.102 6.41751 117.637 5.36245 118.16 4.54274C118.69 3.71182 119.288 3.04101 119.936 2.5495C120.59 2.05479 121.353 1.70737 122.205 1.51846C123.04 1.33274 124.056 1.23828 125.223 1.23828H135.782C138.566 1.23828 139.978 2.28053 139.978 4.33621C139.978 5.31602 139.684 6.50396 139.106 7.86641L134.755 18.0824C134.224 19.3248 133.696 20.3654 133.184 21.1723C132.664 21.9936 132.071 22.6548 131.421 23.1367C130.767 23.6202 130.004 23.9629 129.154 24.1502C128.319 24.3359 127.303 24.4303 126.135 24.4303H115.577V24.4319ZM125.185 8.36272C124.786 8.36272 124.488 8.61728 124.277 9.14081L121.024 16.7135C120.911 17.0065 120.899 17.1298 120.899 17.1698C120.899 17.2242 120.899 17.3059 121.181 17.3059H126.174C126.572 17.3059 126.87 17.0513 127.082 16.5278L130.334 8.95509C130.448 8.66051 130.459 8.53723 130.459 8.49881C130.459 8.44437 130.459 8.36112 130.177 8.36112H125.185V8.36272Z" fill="#8E8F91"/>
<path d="M135.78 1.4803C138.417 1.4803 139.735 2.43289 139.735 4.33808C139.735 5.29067 139.452 6.43539 138.883 7.77382L134.532 17.9898C134.005 19.2258 133.487 20.2456 132.981 21.0461C132.473 21.8466 131.906 22.4806 131.276 22.9465C130.646 23.4124 129.922 23.7374 129.1 23.9199C128.278 24.1024 127.29 24.1937 126.133 24.1937H115.575C112.917 24.1937 111.589 23.2411 111.589 21.3359C111.589 20.4233 111.873 19.309 112.441 17.9914L116.793 7.77542C117.32 6.51864 117.842 5.4844 118.36 4.67429C118.877 3.86419 119.449 3.22058 120.079 2.74349C120.707 2.26799 121.433 1.93818 122.254 1.75567C123.076 1.57316 124.065 1.4819 125.222 1.4819H135.78M121.179 17.5511H126.172C126.675 17.5511 127.051 17.2421 127.303 16.6225L130.554 9.05302C130.65 8.80166 130.699 8.61755 130.699 8.50228C130.699 8.25092 130.525 8.12604 130.177 8.12604H125.185C124.682 8.12604 124.304 8.43503 124.054 9.05462L120.803 16.6241C120.705 16.8755 120.657 17.0596 120.657 17.1749C120.657 17.4262 120.832 17.5511 121.179 17.5511ZM135.78 1H125.222C124.036 1 123.003 1.09606 122.15 1.28498C121.264 1.4819 120.47 1.84373 119.789 2.35925C119.117 2.86836 118.501 3.56 117.954 4.41493C117.424 5.24585 116.884 6.31211 116.349 7.58811L111.999 17.8009C111.408 19.1713 111.108 20.3593 111.108 21.3343C111.108 24.0928 113.537 24.6724 115.575 24.6724H126.133C127.319 24.6724 128.352 24.5763 129.205 24.3874C130.089 24.1921 130.882 23.8366 131.561 23.3323C132.234 22.8328 132.848 22.1508 133.385 21.3039C133.904 20.4857 134.437 19.4339 134.972 18.1803L139.324 7.96434C139.915 6.57147 140.214 5.35311 140.214 4.33968C140.214 2.81713 139.445 1.0016 135.778 1.0016L135.78 1ZM121.248 16.8019L124.494 9.24194L124.497 9.23233C124.752 8.60314 125.055 8.60314 125.183 8.60314H130.175C130.175 8.60314 130.19 8.60314 130.196 8.60314C130.18 8.66078 130.155 8.74723 130.107 8.87051L126.861 16.4304L126.857 16.4384C126.603 17.0676 126.3 17.0676 126.172 17.0676H121.179C121.179 17.0676 121.165 17.0676 121.159 17.0676C121.175 17.01 121.2 16.9235 121.248 16.8003V16.8019Z" fill="#050505"/>
<path d="M43.8007 24.4311C43.5524 24.4311 43.3729 24.3542 43.2688 24.2053C43.1566 24.0452 43.1518 23.8243 43.2528 23.5521L45.0471 19.3479C45.1993 18.9333 45.515 18.5938 45.978 18.3505L49.2015 16.6822C49.2159 16.6694 49.2303 16.6582 49.2479 16.6502L53.6939 14.3336C53.8477 14.2567 54.0015 14.1831 54.1553 14.1126H48.6119C48.3636 14.1126 48.1841 14.0358 48.08 13.8869C47.9678 13.7268 47.963 13.5059 48.064 13.2321L50.0634 8.5876C50.2301 8.13292 50.5825 7.88477 51.076 7.88477H66.8891C67.1374 7.88477 67.3152 7.96161 67.421 8.11051C67.5331 8.27061 67.5379 8.49154 67.437 8.76531L65.6138 13.0272C65.4135 13.4722 65.0899 13.8069 64.6493 14.0278L61.3104 15.7537C61.2976 15.7665 61.2816 15.7761 61.264 15.7857L58.9521 16.988C58.9329 16.9976 58.9104 17.0057 58.888 17.0105L57.0536 17.9839C56.903 18.0623 56.7556 18.136 56.6082 18.2064H62.4864C62.7636 18.2064 62.9574 18.288 63.06 18.4514C63.1657 18.6179 63.1545 18.8388 63.0263 19.1078L61.0653 23.7314C60.8971 24.1877 60.5446 24.4343 60.0528 24.4343H43.7991L43.8007 24.4311Z" fill="#8E8F91"/>
<path d="M66.8896 8.12483C67.2421 8.12483 67.3494 8.31055 67.2116 8.68198L65.3932 12.9326C65.217 13.3233 64.9334 13.6163 64.5425 13.8116L61.1395 15.5711H61.154L58.8421 16.7734H58.8213L56.9436 17.7708C56.4933 18.0046 56.0576 18.2015 55.6378 18.3568C55.5529 18.3888 55.4664 18.4144 55.3815 18.4449H62.4885C62.8795 18.4449 62.9868 18.6306 62.8106 19.002L60.8448 23.6337C60.707 24.0051 60.4442 24.1908 60.0533 24.1908H43.7996C43.4471 24.1908 43.3398 24.0051 43.4776 23.6337L45.2672 19.4407C45.4034 19.0693 45.6773 18.7763 46.0891 18.5617L49.3751 16.8615H49.359L53.2154 14.8522L53.805 14.5448C54.2343 14.3303 54.6653 14.1398 55.0963 13.9733C55.1924 13.9365 55.2901 13.906 55.3863 13.8708H48.6124C48.26 13.8708 48.1526 13.6851 48.2904 13.3137L50.2851 8.68198C50.4213 8.31055 50.6856 8.12483 51.0765 8.12483H66.8896ZM66.8896 7.64453H51.0765C50.4869 7.64453 50.048 7.94872 49.8381 8.50267L47.8482 13.1231C47.8482 13.1231 47.8418 13.1392 47.8386 13.1472C47.7088 13.4994 47.7233 13.7924 47.8835 14.0213C47.9876 14.1718 48.1991 14.3511 48.6124 14.3511H53.1369L52.9927 14.4264L49.1363 16.4356C49.1123 16.4484 49.0883 16.4628 49.0674 16.4804L45.868 18.1359C45.3521 18.4064 45.0012 18.7859 44.8218 19.263L43.037 23.4448C43.037 23.4448 43.0306 23.4592 43.0274 23.4672C42.8976 23.8194 42.912 24.1124 43.0723 24.3413C43.1764 24.4918 43.3879 24.6711 43.8012 24.6711H60.0549C60.6445 24.6711 61.0851 24.3654 61.2934 23.8114L63.2512 19.1973C63.4114 18.8531 63.4162 18.5585 63.2656 18.32C63.163 18.1583 62.9452 17.9646 62.4901 17.9646H57.6036L58.9783 17.2345C59.0087 17.2265 59.0375 17.2137 59.0648 17.1993L61.3767 15.9969C61.4007 15.9841 61.4231 15.9697 61.4456 15.9537L64.7636 14.2374C65.249 13.9957 65.6095 13.6211 65.8322 13.128L65.8354 13.1199L67.6538 8.8693C67.6538 8.8693 67.6602 8.85329 67.6634 8.84688C67.7932 8.49466 67.7772 8.20008 67.6186 7.97274C67.5144 7.82224 67.303 7.64453 66.8896 7.64453Z" fill="#050505"/>
<path d="M1.92983 31.7091C1.65266 31.7091 1.4588 31.6275 1.35627 31.4642C1.25053 31.2977 1.26174 31.0768 1.38991 30.8078L3.14585 26.6836C3.31408 26.2273 3.66495 25.9808 4.16001 25.9808H9.27563C9.6281 25.9808 9.95333 25.763 10.2978 25.2956L10.9483 24.2325H4.309C2.75333 24.2325 0.899658 23.7794 0.899658 21.6181C0.899658 20.904 1.09352 20.0923 1.47643 19.207L4.29298 12.5532C4.66788 11.6631 5.07643 10.8994 5.5058 10.2814C5.93998 9.6554 6.43344 9.14628 6.97336 8.77005C7.51328 8.39381 8.1317 8.11524 8.81261 7.94233C9.48551 7.77263 10.2706 7.68617 11.1453 7.68617H15.9517C16.1184 7.68617 16.2786 7.74701 16.4051 7.85588L17.4337 8.75564L17.8326 8.03839C17.9544 7.82066 18.1835 7.68457 18.4334 7.68457H25.7568C26.0051 7.68457 26.183 7.76142 26.2887 7.91031C26.4009 8.07041 26.4057 8.29135 26.3047 8.56512L24.3053 13.2096C24.137 13.6643 23.7862 13.9125 23.2927 13.9125H22.333L17.1742 25.4396C16.6647 26.634 16.1648 27.641 15.6938 28.4255C15.2115 29.2292 14.654 29.8824 14.0372 30.3675C13.4172 30.8558 12.6802 31.2064 11.8487 31.4098C11.03 31.6083 10.0126 31.7091 8.82863 31.7091H1.92983ZM11.4962 13.9125C11.3776 13.9125 11.0139 13.9125 10.7512 14.5817L9.48711 17.5211C9.42142 17.6684 9.38938 17.8029 9.38938 17.9246C9.38938 17.971 9.38938 18.0062 9.55921 18.0062H13.3611L15.0946 13.9125H11.4962Z" fill="#8E8F91"/>
<path d="M25.755 7.92624C26.1075 7.92624 26.2149 8.11195 26.0771 8.48338L24.0824 13.1151C23.9446 13.4865 23.6819 13.6722 23.291 13.6722H22.1759L16.9529 25.3419C16.4434 26.533 15.9548 27.5209 15.4854 28.3021C15.0159 29.0834 14.4824 29.7094 13.8864 30.1785C13.2888 30.6476 12.5903 30.979 11.7892 31.1759C10.9866 31.3713 9.99964 31.4689 8.82527 31.4689H1.92967C1.53875 31.4689 1.43141 31.2832 1.60764 30.9118L3.36839 26.778C3.50457 26.4066 3.76893 26.2208 4.15985 26.2208H9.27547C9.70484 26.2208 10.0974 25.9759 10.4979 25.4299L11.3759 23.9923H4.30885C2.19563 23.9923 1.13982 23.2014 1.13982 21.618C1.13982 20.9343 1.32567 20.1627 1.69736 19.3013L4.51392 12.646C4.88562 11.767 5.28134 11.0242 5.70271 10.4174C6.12247 9.81221 6.59189 9.32871 7.11098 8.96688C7.62847 8.60506 8.21646 8.34089 8.87173 8.17599C9.52701 8.00949 10.2848 7.92624 11.1452 7.92624H15.9516C16.0605 7.92624 16.1647 7.96626 16.2464 8.03671L17.4992 9.13179L18.0424 8.15518C18.1209 8.01269 18.2715 7.92464 18.4333 7.92464H25.7566M9.56065 18.2463H13.5211L15.4581 13.6722H11.4976C11.0667 13.6722 10.7446 13.946 10.5299 14.4935L9.26906 17.425C9.19056 17.6011 9.15211 17.7676 9.15211 17.9229C9.15211 18.1374 9.28829 18.2447 9.56225 18.2447M25.755 7.44594H18.4317C18.0952 7.44594 17.7844 7.62845 17.621 7.92303L17.3663 8.37932L16.5604 7.67488C16.3906 7.52759 16.1743 7.44594 15.95 7.44594H11.1436C10.248 7.44594 9.4437 7.53399 8.75157 7.7101C8.04183 7.88941 7.39777 8.18079 6.83381 8.57304C6.26986 8.96689 5.75718 9.49521 5.30538 10.1452C4.86799 10.776 4.45144 11.5557 4.06853 12.4603L1.25517 19.114C0.861049 20.0266 0.65918 20.8703 0.65918 21.618C0.65918 22.9196 1.29202 24.4726 4.30885 24.4726H10.5203L10.099 25.161C9.71446 25.6797 9.4453 25.7405 9.27547 25.7405H4.15985C3.56866 25.7405 3.12967 26.0463 2.9214 26.6003L1.16866 30.7148C1.00845 31.0591 1.00364 31.3536 1.15424 31.5922C1.25678 31.7539 1.47467 31.9476 1.92967 31.9476H8.82527C10.0285 31.9476 11.0651 31.8435 11.9014 31.6402C12.7681 31.4289 13.5339 31.0639 14.1828 30.5547C14.8221 30.052 15.3988 29.3764 15.8971 28.5487C16.3745 27.7546 16.8776 26.7396 17.3919 25.5324L22.4867 14.1509H23.291C23.8805 14.1509 24.3195 13.8467 24.5294 13.2928L26.5193 8.6707C26.5193 8.6707 26.5257 8.65469 26.5289 8.64669C26.6587 8.29447 26.6426 8.00148 26.484 7.77254C26.3799 7.62205 26.1684 7.44434 25.755 7.44434V7.44594ZM9.65357 17.766C9.66639 17.7195 9.68402 17.6715 9.70645 17.6203L10.9705 14.6824C10.9705 14.6824 10.9737 14.6728 10.9769 14.668C11.1804 14.1525 11.4031 14.1525 11.4976 14.1525H14.7323L13.2023 17.766H9.65357Z" fill="#050505"/>
<path d="M25.7455 24.2219C24.5856 24.2219 23.7524 24.017 23.1965 23.5991C22.6277 23.1716 22.3394 22.5393 22.3394 21.7195C22.3394 20.9479 22.6053 19.9392 23.1244 18.7241L25.7423 12.5426C26.1412 11.6301 26.5594 10.8584 26.9872 10.2436C27.4229 9.6176 27.9164 9.11008 28.4579 8.73385C28.9994 8.35761 29.6195 8.08384 30.3004 7.92214C30.9669 7.76364 31.7359 7.68359 32.585 7.68359L36.1898 7.6884C36.3853 7.6884 36.5759 7.74443 36.741 7.8501L38.6699 9.08927L38.9936 8.31919C39.1538 7.93815 39.5239 7.6932 39.9356 7.6932L45.5399 7.6996C45.7882 7.6996 45.9661 7.77645 46.0718 7.92695C46.184 8.08705 46.1888 8.30798 46.0878 8.58175L42.0488 18.0164H42.8002C43.0774 18.0164 43.2697 18.0997 43.3722 18.263C43.4779 18.4295 43.4667 18.6504 43.3386 18.9194L41.3711 23.5399C41.2029 23.9962 40.8504 24.2427 40.3586 24.2427L25.7455 24.2251V24.2219ZM32.9455 13.9115C32.8269 13.9115 32.4649 13.9115 32.2005 14.5791L30.9316 17.5169C30.8659 17.6626 30.8339 17.7987 30.8339 17.9204C30.8339 17.9412 30.8371 17.9668 30.8451 17.9732C30.8483 17.9764 30.8852 18.002 31.0053 18.002L34.8072 18.0068L36.5455 13.9147L32.9471 13.9099L32.9455 13.9115Z" fill="#8E8F91"/>
<path d="M32.5849 7.92428H32.6025L35.3437 7.92749H36.1913C36.3403 7.92749 36.4877 7.97231 36.6126 8.05236L38.7819 9.44683L39.2161 8.41259C39.3379 8.12281 39.6214 7.93389 39.9371 7.93389H41.1483L45.5413 7.94029C45.8938 7.94029 46.0011 8.12761 45.8634 8.49744L41.685 18.2555H42.8001C43.191 18.2571 43.2983 18.4428 43.1221 18.8143L41.1499 23.4444C41.0121 23.8158 40.7493 23.9999 40.3584 23.9999L37.074 23.9951H36.6607L33.3427 23.9903H33.0623L29.2989 23.9855H28.5154L25.7453 23.9807C24.6495 23.9807 23.8484 23.787 23.3405 23.4059C22.8327 23.0249 22.5795 22.4629 22.5795 21.7185C22.5795 20.9756 22.8359 20.0086 23.3453 18.8175L25.9648 12.6344C26.3574 11.7363 26.7643 10.9838 27.1857 10.3786C27.607 9.77344 28.0764 9.28993 28.5955 8.92971C29.1146 8.56949 29.701 8.31012 30.3563 8.15483C31.0068 8.00113 31.7485 7.92268 32.5833 7.92268M34.964 18.2459L36.9058 13.6751L32.9453 13.6703C32.516 13.6703 32.1923 13.944 31.9776 14.49L30.712 17.4198C30.6335 17.5959 30.595 17.7624 30.5934 17.9177C30.5934 18.1322 30.7296 18.2411 31.0035 18.2411L34.964 18.2459ZM32.5833 7.44238C31.7165 7.44238 30.9299 7.52403 30.2457 7.68734C29.5344 7.85704 28.8871 8.14202 28.32 8.53586C27.756 8.92811 27.2417 9.45644 26.7899 10.1048C26.3525 10.7324 25.9264 11.5185 25.5242 12.4423L22.9031 18.6302C22.3632 19.8917 22.1005 20.902 22.0989 21.7185C22.0989 22.6166 22.4177 23.3147 23.0521 23.7902C23.6513 24.2401 24.5325 24.4594 25.7453 24.461L28.5154 24.4642H29.2989L33.0623 24.4706H33.3411L36.6591 24.4754H37.0724L40.3568 24.4802C40.948 24.4802 41.387 24.176 41.5969 23.6221L43.5611 19.0096C43.7213 18.6654 43.7277 18.3708 43.5771 18.1322C43.4746 17.9705 43.2567 17.7752 42.8017 17.7752H42.414L46.3056 8.68476C46.3056 8.68476 46.312 8.67035 46.3152 8.66234C46.4449 8.31012 46.4305 8.01714 46.2703 7.7882C46.1662 7.6377 45.9547 7.45839 45.5413 7.45839L41.1483 7.45359H39.9387C39.4276 7.45199 38.971 7.75618 38.7739 8.22527L38.5608 8.73119L36.8738 7.64731C36.6703 7.51603 36.4348 7.44719 36.1929 7.44719H35.3453L32.6041 7.44238H32.5865H32.5833ZM31.0965 17.7608C31.1093 17.7144 31.1269 17.6664 31.1493 17.6151L32.4166 14.6789C32.4166 14.6789 32.4198 14.6693 32.423 14.6645C32.6265 14.149 32.8492 14.149 32.9437 14.149L36.1801 14.1522L34.6452 17.764L31.0965 17.7592V17.7608Z" fill="#050505"/>
<path d="M67.268 24.4201C66.108 24.4201 65.2749 24.2152 64.719 23.7974C64.1502 23.3699 63.8618 22.7375 63.8618 21.9178C63.8618 21.1461 64.1278 20.1375 64.6469 18.9223L67.2648 12.7409C67.6637 11.8283 68.0818 11.0566 68.5096 10.4418C68.9454 9.81584 69.4389 9.30833 69.9804 8.93209C70.5219 8.55586 71.1419 8.28209 71.8228 8.12038C72.4893 7.96189 73.2583 7.88184 74.1075 7.88184L77.7123 7.88664C77.9078 7.88664 78.0984 7.94267 78.2634 8.04834L80.1924 9.28751L80.516 8.51743C80.6762 8.13639 81.0447 7.89144 81.4581 7.89144L87.0624 7.89785C87.3107 7.89785 87.4885 7.97469 87.5943 8.12519C87.7064 8.28529 87.7112 8.50623 87.6103 8.78L83.5713 18.2147H84.3227C84.5999 18.2147 84.7921 18.2979 84.8947 18.4612C85.0004 18.6277 84.9892 18.8487 84.861 19.1176L82.8936 23.7381C82.7254 24.1944 82.3729 24.441 81.881 24.441L67.268 24.4233V24.4201ZM74.468 14.1097C74.3494 14.1097 73.9873 14.1097 73.723 14.7773L72.4541 17.7152C72.3884 17.8625 72.3563 17.9969 72.3563 18.1186C72.3563 18.1394 72.3595 18.165 72.3676 18.1715C72.3708 18.1747 72.4076 18.2003 72.5278 18.2003L76.3296 18.2051L78.068 14.1129L74.4696 14.1081L74.468 14.1097Z" fill="#8E8F91"/>
<path d="M74.1056 8.12253H74.1232L76.8645 8.12573H77.712C77.861 8.12573 78.0084 8.17056 78.1334 8.25061L80.3027 9.64507L80.7369 8.61083C80.8586 8.32105 81.1422 8.13213 81.4578 8.13213H82.669L87.0621 8.13854C87.4146 8.13854 87.5219 8.32585 87.3841 8.69568L83.2057 18.4538H84.3208C84.7118 18.4554 84.8191 18.6411 84.6429 19.0125L82.6706 23.6426C82.5329 24.014 82.2701 24.1981 81.8792 24.1981L78.5948 24.1933H78.1814L74.8634 24.1885H74.583L70.8196 24.1837H70.0362L67.2661 24.1789C66.1702 24.1789 65.3692 23.9852 64.8613 23.6042C64.3534 23.2231 64.1003 22.6612 64.1003 21.9167C64.1003 21.1739 64.3566 20.2069 64.8661 19.0157L67.4856 12.8327C67.8781 11.9345 68.2851 11.182 68.7064 10.5769C69.1278 9.97168 69.5972 9.48818 70.1163 9.12795C70.6354 8.76773 71.2218 8.50837 71.877 8.35307C72.5275 8.19937 73.2693 8.12092 74.104 8.12092M76.4848 18.4442L78.4266 13.8733L74.4661 13.8685C74.0367 13.8685 73.7131 14.1423 73.4984 14.6882L72.2327 17.618C72.1542 17.7942 72.1158 17.9607 72.1142 18.116C72.1142 18.3305 72.2503 18.4394 72.5243 18.4394L76.4848 18.4442ZM74.104 7.64062C73.2373 7.64062 72.4506 7.72228 71.7665 7.88558C71.0551 8.05528 70.4079 8.34026 69.8407 8.73411C69.2768 9.12635 68.7625 9.65468 68.3107 10.3031C67.8733 10.9307 67.4471 11.7168 67.045 12.6405L64.4239 18.8284C63.884 20.09 63.6212 21.1002 63.6196 21.9167C63.6196 22.8165 63.9385 23.5129 64.5729 23.9884C65.1721 24.4383 66.0533 24.6576 67.2661 24.6592L70.0362 24.6624H70.8196L74.583 24.6688H74.8618L78.1798 24.6736H78.5932L81.8776 24.6784C82.4688 24.6784 82.9077 24.3743 83.1176 23.8203L85.0819 19.2078C85.2421 18.8636 85.2485 18.569 85.0979 18.3305C84.9953 18.1688 84.7774 17.9735 84.3224 17.9735H83.9347L87.8263 8.883C87.8263 8.883 87.8327 8.86859 87.8359 8.86059C87.9657 8.50837 87.9513 8.21538 87.7911 7.98644C87.6869 7.83595 87.4754 7.65663 87.0621 7.65663L82.669 7.65183H81.4594C80.9483 7.65023 80.4917 7.95442 80.2947 8.42351L80.0816 8.92943L78.3945 7.84555C78.1911 7.71427 77.9555 7.64543 77.7136 7.64543H76.8661L74.1248 7.64062H74.1072H74.104ZM72.6172 17.9591C72.63 17.9126 72.6477 17.8646 72.6701 17.8134L73.9374 14.8771C73.9374 14.8771 73.9406 14.8675 73.9438 14.8627C74.1473 14.3472 74.37 14.3472 74.4645 14.3472L77.7008 14.3504L76.166 17.9623L72.6172 17.9575V17.9591Z" fill="#050505"/>
<path d="M26.5531 8.60352L27.1443 10.355L26.1366 10.5455C26.1366 10.5455 25.9843 10.3198 25.9042 10.2862C25.8241 10.2525 26.3064 9.29195 26.3064 9.29195" fill="black"/>
<path d="M22.5796 23.9961L24.0263 25.5507L23.9014 24.6605L22.9401 24.1802" fill="black"/>
<path d="M46.9209 10.3294L46.3458 8.60352L46.1711 9.13185L45.6905 9.93234L45.5303 10.5727H46.1711" fill="black"/>
<path d="M44.1988 20.6292L43.6077 19.0586H43.6285L42.9668 20.4995L43.2872 20.8197" fill="black"/>
<path d="M99.3063 8.94158L100.244 8.6582L97.3757 9.52594L99.3063 8.94158Z" fill="#8E8F91"/>
<path d="M116.094 2.65471C116.119 2.59867 116.138 2.54103 116.154 2.4834L114.86 5.38121L116.095 2.65471H116.094Z" fill="#8E8F91"/>
<path d="M97.8804 15.2768L94.8026 19.6476L94.7978 19.7788L105.532 15.6163L103.61 12.8946L105.135 10.3089C105.165 10.2961 105.199 10.2881 105.233 10.2881H109.85C110.899 10.2881 111.646 10.3458 112.09 10.4578C112.532 10.5715 112.753 10.8549 112.753 11.3064C112.753 11.5529 112.686 11.8715 112.553 12.2622C112.418 12.6528 112.229 13.1475 111.981 13.7431L110.127 17.9777C109.613 19.2329 109.097 20.2672 108.583 21.0789C108.068 21.8922 107.487 22.5342 106.838 23.0081C106.189 23.482 105.442 23.8102 104.598 23.9959C103.754 24.1816 102.744 24.2744 101.572 24.2744H91.0713C88.3733 24.2744 87.0259 23.3171 87.0259 21.4039C87.0259 20.4577 87.3143 19.3162 87.891 17.9777L92.3081 7.60806C92.8432 6.33207 93.3735 5.28341 93.899 4.4605C94.4245 3.63759 95.0157 2.98438 95.6742 2.50088C96.3327 2.01738 97.0889 1.68277 97.9444 1.49865C98.7984 1.31294 99.8334 1.22168 101.048 1.22168H115.171C115.845 1.22168 116.315 1.85888 116.156 2.48327L114.861 5.38107L113.82 7.71052C113.655 8.14279 113.346 8.35893 112.894 8.35893H106.726C106.634 8.35893 106.582 8.25646 106.636 8.18282L107.796 6.59463C107.85 6.5434 108.251 6.04869 107.764 5.88699H107.759C107.655 5.88699 107.552 5.9062 107.455 5.94302L100.346 8.6263L100.247 8.65671L97.3965 9.61091V9.77261L97.882 15.2768" fill="#8E8F91"/>
<path d="M97.8804 15.2768L94.8026 19.6476L94.7978 19.7788L105.532 15.6163L103.61 12.8946L105.135 10.3089C105.165 10.2961 105.199 10.2881 105.233 10.2881H109.85C110.899 10.2881 111.646 10.3458 112.09 10.4578C112.532 10.5715 112.753 10.8549 112.753 11.3064C112.753 11.5529 112.686 11.8715 112.553 12.2622C112.418 12.6528 112.229 13.1475 111.981 13.7431L110.127 17.9777C109.613 19.2329 109.097 20.2672 108.583 21.0789C108.068 21.8922 107.487 22.5342 106.838 23.0081C106.189 23.482 105.442 23.8102 104.598 23.9959C103.754 24.1816 102.744 24.2744 101.572 24.2744H91.0713C88.3733 24.2744 87.0259 23.3171 87.0259 21.4039C87.0259 20.4577 87.3143 19.3162 87.891 17.9777L92.3081 7.60806C92.8432 6.33206 93.3735 5.28341 93.899 4.4605C94.4245 3.63759 95.0157 2.98438 95.6742 2.50088C96.3327 2.01738 97.0889 1.68277 97.9444 1.49865C98.7984 1.31294 99.8334 1.22168 101.048 1.22168H115.171C115.845 1.22168 116.315 1.85888 116.156 2.48327L114.861 5.38107L113.82 7.71052C113.655 8.14279 113.346 8.35893 112.894 8.35893H106.726C106.634 8.35893 106.582 8.25646 106.636 8.18282L107.796 6.59463C107.85 6.5434 108.251 6.04869 107.764 5.88699H107.759C107.655 5.88699 107.552 5.9062 107.455 5.94302L100.346 8.62629L100.247 8.65671L97.3965 9.61091V9.77261L97.882 15.2768" stroke="#050505" stroke-linecap="round" stroke-linejoin="round"/>
</svg>
