<svg width="19" height="21" viewBox="0 0 19 21" fill="none" xmlns="http://www.w3.org/2000/svg">
<g clip-path="url(#clip0_126_680)">
<path d="M17.3821 5.9556C17.5111 5.9556 17.6417 5.91192 17.7472 5.8212L18.8024 4.91904C19.0386 4.71744 19.0671 4.3596 18.8661 4.12272L17.9666 3.06432C17.8561 2.93328 17.697 2.86608 17.5379 2.86608C17.4089 2.86608 17.2783 2.90976 17.1727 3.00048L16.1176 3.90264C15.9149 4.07736 15.8663 4.36464 15.9836 4.59312L14.9033 5.51712C13.7241 4.54272 12.2871 3.87408 10.7093 3.63048V2.52H10.8165C11.1281 2.52 11.3793 2.268 11.3793 1.95552V0.56448C11.3793 0.252 11.1281 0 10.8165 0H8.08979C7.77826 0 7.52703 0.252 7.52703 0.56448V1.95552C7.52703 2.268 7.77826 2.52 8.08979 2.52H8.19699V3.60864C6.46347 3.84216 4.8941 4.58808 3.6396 5.6868L2.96797 4.8972C3.12038 4.69056 3.11871 4.39824 2.94452 4.19496L2.0451 3.13656C1.93456 3.00552 1.77544 2.93832 1.61633 2.93832C1.48736 2.93832 1.35672 2.982 1.2512 3.07272L0.197692 3.97656C-0.038468 4.17816 -0.0669412 4.536 0.134046 4.77288L1.03346 5.83128C1.14401 5.96232 1.30312 6.02952 1.46224 6.02952C1.55101 6.02952 1.63978 6.00768 1.72185 5.964L2.50737 6.888C1.35169 8.36976 0.659963 10.2362 0.659963 12.264C0.659963 17.089 4.55912 21 9.36941 21C14.1797 21 18.0789 17.089 18.0789 12.264C18.0789 10.1405 17.3235 8.19504 16.0673 6.68136L17.0455 5.84472C17.1443 5.91864 17.2632 5.9556 17.3821 5.9556ZM9.36941 19.32C5.49036 19.32 2.33486 16.1549 2.33486 12.264C2.33486 8.37312 5.49036 5.208 9.36941 5.208C13.2485 5.208 16.404 8.37312 16.404 12.264C16.404 16.1549 13.2485 19.32 9.36941 19.32Z" fill="#21D8CF"/>
<path d="M9.95728 11.7906V8.73633H8.98584V11.7906C8.69608 11.9586 8.50012 12.2727 8.50012 12.6339C8.50012 13.1715 8.93559 13.6083 9.47156 13.6083C9.87019 13.6083 10.2119 13.3681 10.3609 13.0237H13.2116V12.0493H10.247C10.1683 11.9451 10.0695 11.8561 9.95728 11.7906Z" fill="#21D8CF"/>
</g>
<defs>
<clipPath id="clip0_126_680">
<rect width="19" height="21" fill="white"/>
</clipPath>
</defs>
</svg>
