<svg width="28" height="28" viewBox="0 0 28 28" fill="none" xmlns="http://www.w3.org/2000/svg">
<path fill-rule="evenodd" clip-rule="evenodd" d="M21.2136 17.8906L24.3521 19.5804L24.3653 19.5934C25.332 20.1134 25.9544 21.0363 26.1398 22.0763H17.1614C16.6979 22.0763 16.2609 21.8943 15.9563 21.5563L4.58105 9.19423L10.1561 3.56565C10.1561 3.56565 10.5137 3.11068 11.2155 2.8637C11.7188 2.72071 12.553 2.79871 13.0827 3.29267C13.3343 3.52665 13.3343 4.38459 13.3343 4.38459V6.11346C13.3343 6.8284 13.917 7.41336 14.6453 7.41336H18.4989C19.2272 7.41336 19.8231 7.99832 19.8231 8.71326V11.2481H17.2409C16.8701 11.2481 16.5787 11.534 16.5787 11.898C16.5787 12.262 16.8701 12.548 17.2409 12.548H19.8231V13.8479H17.2409C16.8701 13.8479 16.5787 14.1339 16.5787 14.4978C16.5787 14.8618 16.8701 15.1478 17.2409 15.1478H19.8231V15.5767C19.8231 16.5387 20.3528 17.4226 21.2136 17.8906ZM14.9637 22.4272C15.5198 23.0252 16.3144 23.3762 17.1487 23.3762H26.1138C25.7695 24.949 24.3526 26.1319 22.6443 26.1319H15.8377C15.0828 26.1319 14.3545 25.807 13.8513 25.261L3.49567 14.0429C2.58194 13.0549 2.5687 11.56 3.45594 10.5461C3.45594 10.5461 3.56188 10.4161 3.73403 10.2081L14.9637 22.4272Z" fill="black"/>
</svg>
