<svg width="74" height="74" viewBox="0 0 74 74" fill="none" xmlns="http://www.w3.org/2000/svg">
<path d="M74 37C74 57.4345 57.4345 74 37 74C16.5655 74 0 57.4345 0 37C0 16.5655 16.5655 0 37 0C57.4345 0 74 16.5655 74 37Z" fill="#1D1D26"/>
<g clip-path="url(#clip0_3963_39382)">
<path d="M27.499 36.7999L26.0628 34.2936L24.6266 36.7999C24.3331 37.3075 23.5992 37.3075 23.3162 36.7999L21.6599 33.9023L13.137 48.7813C12.6024 49.7119 13.2733 50.8858 14.3426 50.8858H38.8838C39.4708 50.8858 39.8377 50.2513 39.5442 49.7331L30.4867 33.9023L28.8304 36.7999C28.5368 37.3075 27.803 37.3075 27.52 36.7999H27.499Z" fill="#0098A1"/>
<path d="M28.3799 30.2434L27.2687 28.2976C26.734 27.367 25.4027 27.367 24.868 28.2976L23.7568 30.2434L21.6602 33.9023L23.3165 36.7998C23.61 37.3074 24.3439 37.3074 24.6269 36.7998L26.0631 34.2936L27.4993 36.7998C27.7928 37.3074 28.5267 37.3074 28.8097 36.7998L30.466 33.9023L28.3694 30.2434H28.3799Z" fill="#CBFCFF"/>
<path d="M46.6959 31.998L44.767 28.6352L42.838 31.998C42.4502 32.6854 41.4647 32.6854 41.0769 31.998L38.8544 28.1064L26.7149 49.341C26.327 50.0284 26.8092 50.885 27.5955 50.885H60.9006C62.1586 50.885 62.9344 49.5102 62.3158 48.421L50.7005 28.117L48.478 32.0086C48.0901 32.696 47.1047 32.696 46.7168 32.0086L46.6959 31.998Z" fill="#0EE6F3"/>
<path d="M47.8815 23.2106L46.1832 20.2497C45.5542 19.1499 43.9922 19.1499 43.3632 20.2497L41.665 23.2106L38.8555 28.1174L41.0779 32.009C41.4658 32.6964 42.4512 32.6964 42.8391 32.009L44.768 28.6462L46.6969 32.009C47.0848 32.6964 48.0702 32.6964 48.4581 32.009L50.6805 28.1174L47.871 23.2106H47.8815Z" fill="#CBFCFF"/>
<circle cx="33.2996" cy="24.0496" r="3.7" fill="#CBFCFF"/>
</g>
<defs>
<clipPath id="clip0_3963_39382">
<rect width="50.875" height="31.45" fill="white" transform="translate(12.9492 19.4248)"/>
</clipPath>
</defs>
</svg>
