<svg width="293" height="84" viewBox="0 0 293 84" fill="none" xmlns="http://www.w3.org/2000/svg">
<path d="M0 84H293L281.691 55.5692L275.523 53.6308L263.7 26.4923L254.961 21.3231L252.905 10.3385L246.223 12.9231L235.428 36.1846H229.26L214.867 52.3385L213.325 36.1846L205.614 24.5538L201.502 28.4308L184.025 0L165.519 37.4769L158.323 31.6615L137.761 57.5077H134.677L129.537 53.6308L124.396 55.5692L95.0965 68.4923L79.1614 57.5077L68.3667 59.4462L58.6 53.6308L53.4597 55.5692L45.7491 47.1692L31.3561 63.9692L21.0754 60.7385L0 84Z" fill="#0EE6F3"/>
<path d="M244.681 71.0769L241.082 84H0L21.0754 59.4462L31.3561 63.9692L45.7491 47.1692L53.4597 55.5692L58.6 53.6308L68.3667 59.4462L79.1614 57.5077L95.0965 68.4923L129.537 53.6308L135.191 57.5077H137.761L158.323 31.6615L165.519 37.4769L184.025 0L201.502 28.4308L205.614 24.5538L213.325 36.1846L214.867 52.3385L229.26 36.1846H235.428L246.223 12.9231L252.905 10.3385L248.279 16.1538L250.335 47.1692L242.625 49.7538L244.681 71.0769Z" fill="#0ECBD7"/>
<path opacity="0.5" d="M214.865 52.3384L233.37 73.6615L228.23 56.2153L235.427 36.1846H229.258L214.865 52.3384Z" fill="#1C757A"/>
<path opacity="0.5" d="M217.951 74.9538L220.007 84H0L21.0754 59.4462L31.3561 63.9692L45.7491 47.1692L53.4596 55.5692L58.6 53.6308L68.3667 59.4462L79.1614 57.5077L95.0965 68.4923L129.537 53.6308L127.481 58.1538L131.079 69.1385L149.07 52.9846L155.753 58.1538L157.295 41.3538L165.519 37.4769L184.025 0L179.912 33.6L201.502 28.4308L184.539 56.8615L207.156 51.0462V67.2L217.951 74.9538Z" fill="#1C757A"/>
<path d="M171.689 72.3694L170.661 84.0001L161.922 77.5386L147.015 80.1232L141.875 84.0001L144.959 76.2463L155.754 74.3078L160.894 66.554L180.428 61.3848L171.689 72.3694Z" fill="#0ECBD7"/>
<path d="M79.1621 57.5078L95.0972 68.4924L79.1621 75.6001L76.0779 80.1232L70.9375 75.6001L79.1621 71.7232L82.2463 64.6155L79.1621 57.5078Z" fill="#0EE6F3"/>
<path d="M0 83.9997H56.5439H67.3386L65.2825 74.9536L62.1982 68.492L52.4316 65.9074L58.6 53.6305L53.4597 55.5689L45.7491 59.4459V47.1689L39.5807 60.7382L40.6088 66.5536L37.5246 64.6151L23.1316 73.0151L20.0474 64.6151L21.0754 59.4459L0 83.9997Z" fill="#108D95"/>
<path d="M119.052 83.9999H76.8242L99.719 76.523L119.561 65.3076L120.579 72.1615L113.965 75.2768L119.052 83.9999Z" fill="#0ECBD7"/>
</svg>
