<svg width="24" height="24" viewBox="0 0 24 24" fill="none" xmlns="http://www.w3.org/2000/svg">
<g clip-path="url(#clip0_5604_2014)">
<path fill-rule="evenodd" clip-rule="evenodd" d="M23.6667 4.31269C23.6667 6.5104 21.8851 8.292 19.6874 8.292C17.4897 8.292 15.7081 6.5104 15.7081 4.31269C15.7081 2.11497 17.4897 0.333374 19.6874 0.333374C21.8851 0.333374 23.6667 2.11497 23.6667 4.31269ZM17.9073 5.38168C17.7105 5.57847 17.7105 5.89752 17.9073 6.09431C18.1041 6.29109 18.4231 6.29109 18.6199 6.09431L19.6885 5.02573L20.7572 6.0945C20.954 6.29129 21.2731 6.29129 21.4699 6.0945C21.6667 5.89772 21.6667 5.57866 21.4699 5.38188L20.4011 4.31311L21.4704 3.24381C21.6672 3.04702 21.6672 2.72797 21.4704 2.53118C21.2736 2.3344 20.9546 2.3344 20.7578 2.53118L19.6885 3.60048L18.6194 2.53138C18.4226 2.33459 18.1035 2.33459 17.9067 2.53138C17.71 2.72816 17.71 3.04722 17.9067 3.244L18.9759 4.31311L17.9073 5.38168ZM15.2612 8.2982C14.7393 7.72768 14.1024 7.7029 13.2767 8.24865C13.1418 8.10495 13.0082 7.96179 12.8752 7.81925L12.8751 7.81921C12.5539 7.47505 12.2361 7.13459 11.9127 6.79929C11.543 6.41527 11.1576 6.43454 10.8114 6.84265C10.3522 7.3822 10.1 8.0181 10.0523 8.73934C9.92363 10.6856 11.0949 12.6133 12.9076 13.3985C14.1194 13.9236 15.3089 13.9195 16.4083 13.0716C17.0171 12.6016 17.0354 12.1934 16.5004 11.6353C16.2008 11.3225 15.8975 11.0139 15.5981 10.7092L15.598 10.7092L15.598 10.7092C15.4751 10.5841 15.3529 10.4597 15.2318 10.336C15.7453 9.53422 15.7407 8.82193 15.2612 8.2982ZM0.648509 8.50598C0.648509 8.50598 1.71581 7.48286 2.34601 6.82179C2.5722 6.58421 2.94555 6.60288 3.18741 6.85625C4.13229 7.84793 5.06796 8.84891 5.99731 9.84311L5.99843 9.84432C6.30773 10.1752 6.61632 10.5053 6.92432 10.8341L6.6763 11.0967C5.94768 11.8682 5.20783 12.6516 4.44985 13.4547C3.76175 12.7261 0.58777 9.62158 0.58777 9.62158C0.233209 9.30145 0.245454 8.82126 0.648509 8.50598ZM2.89685 18.1815C2.92494 17.4203 3.2151 16.7925 3.69981 16.2701C4.3873 15.5293 5.52662 14.3651 6.58012 13.2885L6.58032 13.2883L6.58058 13.288L6.58059 13.288L6.58061 13.288C7.2857 12.5675 7.95231 11.8863 8.41926 11.3976C8.70146 11.1024 9.09798 11.1038 9.38475 11.4024C10.3515 12.4079 11.3131 13.4196 12.2668 14.4395C12.5458 14.7375 12.5549 15.1305 12.2766 15.4264C11.091 16.6886 8.68531 19.175 7.44155 20.3718C6.61716 21.1653 5.58962 21.25 4.57318 20.7552C3.54826 20.2562 2.97001 19.3095 2.89685 18.1815ZM10.5192 19.5206C11.3504 18.6513 12.1693 17.7943 13.01 16.9143C13.5428 17.475 14.1112 18.0672 14.6818 18.6617L14.6819 18.6618C15.3327 19.3399 15.9863 20.0209 16.5929 20.6611C17.0617 21.1563 17.061 21.5152 16.5929 22.0105L16.5294 22.0777C16.1262 22.5046 15.7232 22.9312 15.3142 23.352C14.9047 23.7733 14.5361 23.7712 14.1314 23.3463C13.4945 22.6784 12.8241 21.9647 12.1573 21.2548L12.157 21.2545C11.6028 20.6644 11.051 20.077 10.5229 19.5206H10.5192Z" fill="#FF2222"/>
</g>
<defs>
<clipPath id="clip0_5604_2014">
<rect width="23.3333" height="23.3333" fill="white" transform="translate(0.333374 0.333374)"/>
</clipPath>
</defs>
</svg>
