<svg width="88" height="88" viewBox="0 0 88 88" fill="none" xmlns="http://www.w3.org/2000/svg">
<circle cx="43.9576" cy="43.9576" r="43.9576" fill="#1D1D26"/>
<path d="M48.7688 23.4465C51.4358 23.4465 53.5978 21.3318 53.5978 18.7233C53.5978 16.1147 51.4358 14 48.7688 14C46.1019 14 43.9399 16.1147 43.9399 18.7233C43.9399 21.3318 46.1019 23.4465 48.7688 23.4465Z" fill="#2EFF75"/>
<path d="M37.2822 39.8027L36.6074 48.3018C36.5242 49.3055 36.1267 50.2639 35.4612 51.0414L30.1367 57.2259" stroke="#1CAB4D" stroke-width="4" stroke-linecap="round" stroke-linejoin="round"/>
<path d="M43.1049 27.0225L37.309 36.5433C36.551 37.782 36.9208 39.3823 38.1317 40.187L47.1907 46.2268L46.0154 56.6718" stroke="#2EFF75" stroke-width="4" stroke-linecap="round" stroke-linejoin="round"/>
<path d="M29.1319 73.6568L35.4115 65.2839L54.4046 63.4743L57.5686 50.2335L74.2463 43.3053" stroke="#8AD4A3" stroke-width="4" stroke-linecap="round" stroke-linejoin="round"/>
</svg>
