<svg width="12" height="14" viewBox="0 0 12 14" fill="none" xmlns="http://www.w3.org/2000/svg">
<path d="M3.52273 1.03099L2.76807 2.76126L2.75266 2.7618C2.66438 2.98815 1.07391 5.17091 1.07391 5.17091L0.335608 5.88705C0.213363 6.00494 0.177395 6.19342 0.247002 6.35388C0.447849 6.81753 1.05296 7.80265 2.82768 9.02609C2.82768 9.02609 6.62388 11.6131 7.76596 12.5698C7.89168 12.6751 8.03755 12.7474 8.19378 12.7803C8.69883 12.8886 9.87863 13.103 10.9974 13.0251C11.2708 13.0061 11.5171 12.8407 11.6529 12.5876C11.8502 12.2204 11.8304 11.7644 11.602 11.4169C11.2556 10.8902 10.6959 10.0656 10.0463 9.216C10.0463 9.216 8.26281 5.37205 8.13913 4.67931C8.05125 4.18896 8.44722 2.56143 8.68494 1.65541C8.76135 1.36368 8.53025 1.0836 8.24884 1.12723L5.71043 1.17068L5.3087 2.28145L4.34895 2.15869L3.97709 1.05645C3.90242 0.835859 3.61527 0.820938 3.52279 1.03255L3.52273 1.03099Z" fill="black"/>
</svg>
