<svg width="40" height="40" viewBox="0 0 40 40" fill="none" xmlns="http://www.w3.org/2000/svg">
<path d="M20.0003 3.3335C29.2049 3.33367 36.6663 10.7958 36.6663 20.0005C36.6661 29.205 29.2048 36.6663 20.0003 36.6665C10.7957 36.6665 3.33349 29.2051 3.33331 20.0005C3.33331 10.7957 10.7956 3.3335 20.0003 3.3335ZM20.0003 23.8472C19.2751 23.8472 18.6999 24.0613 18.2757 24.4907C17.8379 24.9349 17.6195 25.4905 17.6194 26.1567C17.6194 26.7933 17.838 27.3117 18.2757 27.7114C18.7136 28.126 19.2888 28.3335 20.0003 28.3335C20.7118 28.3335 21.2861 28.1183 21.7239 27.689C22.1618 27.2596 22.3811 26.727 22.3812 26.0903C22.3812 25.4536 22.1618 24.9201 21.7239 24.4907C21.2861 24.0616 20.7116 23.8472 20.0003 23.8472ZM18.0501 10.4761V22.5142H21.9505V10.4761H18.0501Z" fill="#FF2222"/>
</svg>
