<svg width="14" height="14" viewBox="0 0 14 14" fill="none" xmlns="http://www.w3.org/2000/svg">
<path fill-rule="evenodd" clip-rule="evenodd" d="M7 14C10.866 14 14 10.866 14 7C14 3.13401 10.866 0 7 0C3.13401 0 0 3.13401 0 7C0 10.866 3.13401 14 7 14ZM10.9765 6.72548L10.6577 7.00002L10.9765 7.27457C11.5079 7.7351 11.5079 8.47017 10.9765 8.9307C10.4451 9.39123 9.58607 9.39123 9.05469 8.9307L8.14249 8.14249L8.9307 9.05469C9.39123 9.58607 9.39123 10.4451 8.9307 10.9765C8.47017 11.5079 7.7351 11.5079 7.27457 10.9765L7.00002 10.6577L6.72548 10.9765C6.26495 11.5079 5.52987 11.5079 5.06935 10.9765C4.60882 10.4451 4.60882 9.58607 5.06935 9.05469L5.85756 8.14249L4.94536 8.9307C4.41398 9.39123 3.55491 9.39123 3.02353 8.9307C2.49216 8.47017 2.49216 7.7351 3.02353 7.27457L3.34236 7.00002L3.02353 6.72548C2.49216 6.26495 2.49216 5.52987 3.02353 5.06935C3.55491 4.60882 4.41398 4.60882 4.94536 5.06935L5.85756 5.85756L5.06935 4.94536C4.60882 4.41398 4.61767 3.55491 5.06935 3.02353C5.52102 2.49216 6.26495 2.49216 6.72548 3.02353L7.00002 3.34236L7.27457 3.02353C7.7351 2.49216 8.47017 2.49216 8.9307 3.02353C9.39123 3.55491 9.39123 4.41398 8.9307 4.94536L8.14249 5.85756L9.05469 5.06935C9.58607 4.60882 10.4451 4.60882 10.9765 5.06935C11.5079 5.52987 11.5079 6.26495 10.9765 6.72548Z" fill="#FF74B7"/>
</svg>
