<svg width="42" height="42" viewBox="0 0 42 42" fill="none" xmlns="http://www.w3.org/2000/svg">
<circle cx="21" cy="21" r="21" fill="#1D1D26"/>
<path d="M23.2985 10.5129C24.5726 10.5129 25.6054 9.50266 25.6054 8.25646C25.6054 7.01025 24.5726 6 23.2985 6C22.0244 6 20.9916 7.01025 20.9916 8.25646C20.9916 9.50266 22.0244 10.5129 23.2985 10.5129Z" fill="#2EFF75"/>
<path d="M17.811 18.3271L17.4886 22.3875C17.4489 22.8669 17.259 23.3248 16.941 23.6963L14.3973 26.6508" stroke="#1CAB4D" stroke-width="2" stroke-linecap="round" stroke-linejoin="round"/>
<path d="M20.5926 12.2217L17.8237 16.7701C17.4616 17.3618 17.6382 18.1264 18.2168 18.5108L22.5445 21.3962L21.983 26.3861" stroke="#2EFF75" stroke-width="2" stroke-linecap="round" stroke-linejoin="round"/>
<path d="M13.9172 34.5L16.9172 30.5L25.9909 29.6355L27.5024 23.3099L35.4699 20.0001" stroke="#8AD4A3" stroke-width="2" stroke-linecap="round" stroke-linejoin="round"/>
</svg>
