<svg width="42" height="42" viewBox="0 0 42 42" fill="none" xmlns="http://www.w3.org/2000/svg">
<path d="M42 21C42 32.598 32.598 42 21 42C9.40202 42 0 32.598 0 21C0 9.40202 9.40202 0 21 0C32.598 0 42 9.40202 42 21Z" fill="#1D1D26"/>
<mask id="mask0_6670_86318" style="mask-type:luminance" maskUnits="userSpaceOnUse" x="0" y="0" width="42" height="42">
<path d="M21 42C32.598 42 42 32.598 42 21C42 9.40202 32.598 0 21 0C9.40202 0 0 9.40202 0 21C0 32.598 9.40202 42 21 42Z" fill="white"/>
</mask>
<g mask="url(#mask0_6670_86318)">
<g clip-path="url(#clip0_6670_86318)">
<path d="M27.8139 21.1542L24.331 24.4574L18.134 14.6279L-1.47192 46.703H40.7879L27.8139 21.1542Z" fill="#0EE6F3"/>
<path d="M24.3313 24.4574L18.1343 14.6279L19.0989 28.7887L24.3313 24.4574Z" fill="#1C757A"/>
<path d="M27.8141 21.1543L26.5159 28.936H29.7381L22.7798 46.8058L38.1879 36.1524L27.8141 21.1543Z" fill="#1C757A"/>
<path d="M24.6831 10.1455V22.5444L26.0427 21.3028V14.7291L31.2211 12.0543L24.6831 10.1455Z" fill="#0EE6F3"/>
</g>
</g>
<defs>
<clipPath id="clip0_6670_86318">
<rect width="38" height="33.0005" fill="white" transform="translate(2 9)"/>
</clipPath>
</defs>
</svg>
