<svg width="74" height="74" viewBox="0 0 74 74" fill="none" xmlns="http://www.w3.org/2000/svg">
    <g id="Group 1171276873">
        <g id="mk">
            <path id="Ellipse 1652" d="M74 37C74 57.4345 57.4345 74 37 74C16.5655 74 0 57.4345 0 37C0 16.5655 16.5655 0 37 0C57.4345 0 74 16.5655 74 37Z" fill="#0E2627"/>
        </g>
        <g id="Group 1171276761">
            <path id="Vector" d="M54.8453 34.8913C54.2742 34.3901 46.9717 32.4474 46.9717 32.4474L41.6592 26.3913C41.6592 26.3913 40.1448 24.764 39.118 24.5042C38.5983 24.3742 38.0657 24.3495 37.5459 24.4299C37.4689 24.4361 37.3855 24.4547 37.2764 24.4794L26.9835 26.9357C26.2263 27.1461 25.5846 27.6534 25.2189 28.334L21.728 36.3155C21.3751 36.9775 21.3045 37.7261 21.5355 38.4377C21.7665 39.1492 22.2735 39.7246 22.9537 40.0711C23.6403 40.4114 24.4167 40.4794 25.1547 40.2567C25.8926 40.0339 26.4894 39.5452 26.8552 38.8769L29.7877 31.9597L33.5353 30.7408L30.5322 38.8769L27.1056 47.0626L21.5356 54.7223C20.6116 55.9721 20.9132 57.7169 22.2094 58.6078C22.7035 58.9481 23.281 59.1275 23.8842 59.1275C24.8147 59.1275 25.6938 58.6882 26.2329 57.9643L32.0338 49.9953C32.1878 49.7911 32.3097 49.5622 32.3996 49.3271L34.915 44.3217L41.8396 48.1268L43.3476 56.3022C43.508 57.7128 44.7401 58.777 46.216 58.777C46.3251 58.777 46.4278 58.777 46.5369 58.7585C48.1218 58.5914 49.2641 57.2117 49.0908 55.6834L47.4352 46.2582C47.3454 45.4601 46.9026 44.7424 46.216 44.2845L39.6379 39.4709L41.0624 34.4655L43.5001 36.6546C44.0455 37.2424 44.6487 37.4961 45.6177 37.9106L53.0165 39.7297C53.7865 39.6987 54.4988 39.377 55.0186 38.8325C55.5383 38.2881 55.8079 37.5765 55.7758 36.8341C55.7437 36.0916 55.41 35.3986 54.8389 34.8975L54.8453 34.8913Z" fill="#0EF393"/>
            <path id="Vector_2" d="M42.0645 23.1661C44.3541 22.6318 45.7721 20.3633 45.2317 18.0993C44.6913 15.8353 42.3972 14.4332 40.1076 14.9675C37.818 15.5019 36.4 17.7704 36.9404 20.0344C37.4808 22.2983 39.7749 23.7005 42.0645 23.1661Z" fill="#0EF393"/>
        </g>
    </g>
</svg>
