<svg width="14" height="15" viewBox="0 0 14 15" fill="none" xmlns="http://www.w3.org/2000/svg">
<path d="M11.6088 4.24407C11.627 4.262 11.6257 4.29011 11.6472 4.30641C11.7047 4.39646 11.7543 4.49017 11.8023 4.5851C11.8391 4.65845 11.8829 4.72853 11.9168 4.80309C11.9734 4.92206 12.0214 5.04471 12.0718 5.16654C12.1194 5.28185 12.1595 5.4 12.2066 5.51572C12.2411 5.59034 12.2707 5.66711 12.2951 5.74552C12.331 5.88528 12.3658 6.02503 12.3935 6.16723C12.4142 6.27358 12.4348 6.37993 12.4526 6.48709C12.4815 6.68511 12.5105 6.88313 12.5295 7.08278C12.5427 7.21724 12.5564 7.35128 12.5659 7.48574C12.5783 7.65443 12.5849 7.82393 12.5911 7.99343C12.5973 8.16293 12.5981 8.34302 12.5956 8.51782C12.5964 8.6701 12.5887 8.8223 12.5725 8.97375C12.5561 9.21413 12.5203 9.45283 12.4654 9.68761C12.4302 9.84581 12.3707 9.99778 12.2889 10.1382C12.2762 10.1613 12.2573 10.1805 12.2342 10.1936C12.2112 10.2067 12.1848 10.2132 12.1582 10.2124C11.863 10.2303 11.5674 10.2531 11.2718 10.2764C10.9369 10.3035 10.6018 10.3307 10.2663 10.3579C10.1179 10.3701 9.96909 10.3819 9.82066 10.3986C9.77436 10.4039 9.75658 10.3905 9.74418 10.3534C9.67017 10.1362 9.59947 9.91822 9.51803 9.70146C9.394 9.3755 9.23358 9.06502 8.98593 8.80507C8.85474 8.67305 8.73342 8.53184 8.62294 8.38254C8.4596 8.14408 8.33866 7.87994 8.26531 7.60146C8.18671 7.301 8.13456 6.99441 8.10945 6.68511C8.07594 6.36544 8.06599 6.04379 8.07968 5.72271C8.10159 5.24844 8.17312 4.78027 8.37653 4.33004C8.52371 4.00408 8.73167 3.71886 9.0496 3.50903C9.18511 3.42672 9.33204 3.36428 9.48578 3.32364C10.127 3.12521 10.6736 3.24663 11.1333 3.66019C11.2102 3.72946 11.278 3.80606 11.3491 3.88021C11.4272 3.9661 11.4974 4.05869 11.5587 4.15687C11.5778 4.18254 11.6084 4.20658 11.6088 4.24407Z" fill="#8A8A8A"/>
<path d="M12.4741 12.1711C12.4526 12.5729 12.3662 12.9628 12.1434 13.3246C12.0115 13.5471 11.8202 13.7297 11.5902 13.8523C11.4268 13.9422 11.2444 13.9934 11.0574 14.002C10.8704 14.0105 10.684 13.9762 10.5128 13.9016C10.2387 13.7863 10.0102 13.586 9.86205 13.3312C9.65162 12.986 9.57802 12.6059 9.57678 12.207C9.57678 11.7967 9.65947 11.3954 9.7835 10.9973C9.78495 10.9876 9.78835 10.9784 9.79349 10.9701C9.79862 10.9618 9.8054 10.9545 9.81342 10.9488C9.82143 10.9431 9.83052 10.9391 9.84015 10.9369C9.84979 10.9347 9.85976 10.9345 9.8695 10.9362C10.5579 10.939 11.2475 10.8983 11.9367 10.8755C12.0454 10.8722 12.1541 10.8706 12.2629 10.8681C12.2873 10.8836 12.3224 10.8518 12.3456 10.8779C12.3687 10.904 12.3551 10.9292 12.3625 10.9537C12.3923 11.0667 12.4146 11.1816 12.4291 11.2976C12.454 11.4596 12.47 11.6228 12.477 11.7865C12.4799 11.914 12.4729 12.0428 12.4741 12.1711Z" fill="#8A8A8A"/>
<path d="M1.82439 5.38251C1.85196 5.0541 1.8955 4.72814 1.95504 4.40462C2.00768 4.12267 2.06915 3.84302 2.13943 3.56569C2.1969 3.34322 2.25809 3.12156 2.32837 2.90317C2.38419 2.73 2.44827 2.5601 2.51028 2.38938C2.58222 2.19054 2.69344 2.01249 2.79969 1.83076C2.9262 1.61115 3.05395 1.39275 3.20238 1.18617C3.26936 1.08961 3.33964 0.994672 3.41406 0.900958C3.47029 0.832507 3.52941 0.76528 3.59059 0.700088C3.67508 0.609088 3.7651 0.523227 3.86016 0.442984C3.93656 0.377532 4.01766 0.317615 4.10284 0.263705C4.4646 0.0314583 4.86481 -0.0622521 5.32124 0.0428701C5.6055 0.105982 5.87242 0.229305 6.10346 0.404279C6.28874 0.55141 6.4369 0.738847 6.53633 0.95189C6.72403 1.32593 6.78811 1.71708 6.80052 2.11435C6.80851 2.5406 6.76577 2.9663 6.67318 3.38274C6.59955 3.74739 6.49669 4.10571 6.36558 4.45433C6.18992 4.93183 5.87472 5.34738 5.45974 5.64857C5.24721 5.8073 5.06328 6.00014 4.91566 6.219C4.72093 6.49729 4.57912 6.8037 4.41954 7.10073C4.41649 7.1106 4.41133 7.11972 4.4044 7.12746C4.39747 7.1352 4.38893 7.14139 4.37937 7.1456C4.36981 7.14981 4.35944 7.15195 4.34896 7.15187C4.33849 7.15179 4.32815 7.14949 4.31866 7.14514C4.0615 7.07954 3.80352 7.01801 3.54553 6.9573C3.28755 6.89659 3.02501 6.83833 2.76455 6.77884C2.70384 6.77176 2.64383 6.75977 2.58512 6.74298C2.41147 6.69939 2.23576 6.66679 2.06171 6.62401C2.04307 6.61734 2.02401 6.6119 2.00465 6.60771C1.95917 6.61301 1.95132 6.57715 1.9385 6.55108C1.88281 6.42982 1.84668 6.30073 1.83142 6.16848C1.80718 5.96569 1.79971 5.76129 1.8091 5.5573C1.80692 5.49864 1.81206 5.43994 1.82439 5.38251Z" fill="#8A8A8A"/>
<path d="M1.41183 8.60983C1.42707 8.43629 1.45554 8.26413 1.497 8.09481C1.55432 7.85992 1.62584 7.62862 1.71116 7.40214C1.72687 7.35733 1.74796 7.33736 1.80294 7.35284C1.85793 7.36833 1.9092 7.37444 1.96253 7.38462C2.1279 7.41803 2.29617 7.44656 2.46279 7.47834C2.58682 7.50197 2.71333 7.52805 2.8386 7.55127C2.99075 7.57898 3.14248 7.60831 3.29338 7.63684L3.6601 7.70325C3.82547 7.73299 3.98672 7.76151 4.15085 7.78229C4.22692 7.79207 4.23354 7.79615 4.24718 7.86378C4.27323 8.00884 4.28191 8.1543 4.29886 8.29935C4.31292 8.41222 4.30795 8.52467 4.31126 8.63712C4.31435 8.74103 4.30743 8.84499 4.29059 8.9476C4.26342 9.20637 4.19737 9.45972 4.09462 9.69935C3.93255 10.0612 3.69483 10.3639 3.30909 10.5391C2.93245 10.7106 2.54299 10.7106 2.15395 10.4927C1.90828 10.35 1.71356 10.1357 1.59664 9.87944C1.4946 9.66706 1.43188 9.43842 1.41142 9.2043C1.40109 9.07023 1.39778 8.93573 1.4015 8.80133C1.40191 8.73736 1.40935 8.6738 1.41183 8.60983Z" fill="#8A8A8A"/>
</svg>
