<svg width="14" height="14" viewBox="0 0 14 14" fill="none" xmlns="http://www.w3.org/2000/svg">
<path fill-rule="evenodd" clip-rule="evenodd" d="M4.23742 2.86451C3.95798 3.38674 3.41829 3.74563 2.78793 3.74563C1.86376 3.74563 1.13448 2.97422 1.13448 2.04762C1.13448 1.12102 1.86376 0.349609 2.78793 0.349609C3.50971 0.349609 4.11261 0.82014 4.34206 1.46765L11.5531 2.25038C11.8303 2.28046 12.0632 2.47215 12.146 2.73835C12.2288 3.00456 12.1458 3.29453 11.9346 3.47654L3.12277 11.0708L10.784 10.4787C11.0068 9.8187 11.6157 9.33635 12.3465 9.33635C13.2707 9.33635 14 10.1078 14 11.0344C14 11.961 13.2707 12.7324 12.3465 12.7324C11.7251 12.7324 11.1917 12.3835 10.909 11.8732L1.10394 12.6309C0.802342 12.6543 0.51989 12.4812 0.403703 12.2019C0.287516 11.9226 0.363882 11.6003 0.593027 11.4028L9.79968 3.46827L4.23742 2.86451Z" fill="#8A8A8A"/>
</svg>
