<svg width="42" height="42" viewBox="0 0 42 42" fill="none" xmlns="http://www.w3.org/2000/svg">
<path d="M42 21C42 32.598 32.598 42 21 42C9.40202 42 0 32.598 0 21C0 9.40202 9.40202 0 21 0C32.598 0 42 9.40202 42 21Z" fill="#1D1D26"/>
<g clip-path="url(#clip0_4434_40391)">
<path d="M15.6076 20.8887L14.7925 19.4662L13.9773 20.8887C13.8107 21.1768 13.3942 21.1768 13.2336 20.8887L12.2935 19.2441L7.45619 27.689C7.15274 28.2172 7.53354 28.8834 8.14043 28.8834H22.0692C22.4024 28.8834 22.6107 28.5233 22.4441 28.2292L17.3033 19.2441L16.3632 20.8887C16.1966 21.1768 15.7801 21.1768 15.6195 20.8887H15.6076Z" fill="#0098A1"/>
<path d="M16.1071 17.1665L15.4764 16.0621C15.173 15.534 14.4173 15.534 14.1139 16.0621L13.4832 17.1665L12.2932 19.2432L13.2333 20.8878C13.3999 21.1759 13.8164 21.1759 13.977 20.8878L14.7922 19.4653L15.6073 20.8878C15.7739 21.1759 16.1904 21.1759 16.3511 20.8878L17.2912 19.2432L16.1012 17.1665H16.1071Z" fill="#CBFCFF"/>
<path d="M26.5027 18.1619L25.4079 16.2532L24.3131 18.1619C24.0929 18.552 23.5336 18.552 23.3135 18.1619L22.0521 15.9531L15.1621 28.0052C14.9419 28.3953 15.2156 28.8815 15.6619 28.8815H34.5648C35.2788 28.8815 35.7191 28.1012 35.368 27.483L28.7755 15.9591L27.5141 18.1679C27.294 18.558 26.7347 18.558 26.5146 18.1679L26.5027 18.1619Z" fill="#0EE6F3"/>
<path d="M27.1753 13.1741L26.2114 11.4935C25.8544 10.8693 24.9678 10.8693 24.6108 11.4935L23.6469 13.1741L22.0524 15.959L23.3138 18.1678C23.5339 18.5579 24.0932 18.5579 24.3133 18.1678L25.4081 16.2592L26.5029 18.1678C26.7231 18.5579 27.2824 18.5579 27.5025 18.1678L28.7639 15.959L27.1693 13.1741H27.1753Z" fill="#CBFCFF"/>
<ellipse cx="18.8996" cy="13.6508" rx="2.1" ry="2.1" fill="#CBFCFF"/>
</g>
<defs>
<clipPath id="clip0_4434_40391">
<rect width="28.875" height="17.85" fill="white" transform="translate(7.34961 11.0254)"/>
</clipPath>
</defs>
</svg>
