<svg width="40" height="40" viewBox="0 0 40 40" fill="none" xmlns="http://www.w3.org/2000/svg">
<path fill-rule="evenodd" clip-rule="evenodd" d="M33.9429 20C33.9429 27.7004 27.7004 33.9429 20 33.9429C12.2996 33.9429 6.05714 27.7004 6.05714 20C6.05714 12.2996 12.2996 6.05714 20 6.05714C27.7004 6.05714 33.9429 12.2996 33.9429 20ZM36 20C36 28.8366 28.8366 36 20 36C11.1634 36 4 28.8366 4 20C4 11.1634 11.1634 4 20 4C28.8366 4 36 11.1634 36 20ZM20.0299 14.7616C19.5391 14.9283 19.0135 14.8845 18.5444 14.6432H18.5488C18.0797 14.4019 17.7322 13.9895 17.5628 13.4806C17.2154 12.4321 17.7583 11.3002 18.7746 10.958C18.9701 10.8922 19.1742 10.8571 19.3784 10.8571C19.6824 10.8571 19.9777 10.9273 20.2557 11.0721C20.7205 11.3177 21.0723 11.7301 21.2417 12.239C21.5891 13.2876 21.0462 14.4194 20.0299 14.7616ZM25.7157 16.8061C26.0414 16.6789 26.4019 16.692 26.7233 16.8368L26.732 16.8412C27.0534 16.9904 27.2967 17.2536 27.4226 17.5826C27.5486 17.916 27.5399 18.2758 27.3922 18.6004C27.2446 18.9251 26.9883 19.1708 26.6582 19.298L26.1996 19.4757C26.2032 19.4844 26.2066 19.4933 26.2098 19.5023L28.5915 26.961C28.677 27.2052 28.5468 27.4719 28.3051 27.5583C28.253 27.5771 28.2047 27.5846 28.1526 27.5846C27.9592 27.5846 27.7807 27.4644 27.7137 27.269L25.3325 19.8118L23.67 20.4562C23.3442 20.5834 22.9924 20.5703 22.671 20.4299L19.6611 19.1006L19.0009 21.123L21.7937 22.4128C22.2584 22.6278 22.5494 23.0797 22.5581 23.593L22.6536 28.4934C22.6667 29.2392 22.0847 29.8358 21.3333 29.849C20.621 29.849 20.0303 29.2655 20.0172 28.546L19.939 24.4748L17.1593 23.1718L15.4297 28.546C15.2255 29.226 14.4698 29.6428 13.7879 29.4366C13.093 29.226 12.6977 28.4846 12.9062 27.7827L16.5512 16.4025C16.7641 15.8322 17.1159 15.6655 17.155 15.6479L17.1599 15.6453C17.2014 15.6227 17.462 15.4812 17.8238 15.4812C17.9628 15.4812 18.1148 15.5031 18.2755 15.5602L23.2356 17.7713L24.5225 17.2705C24.504 17.2386 24.4889 17.204 24.4781 17.1671L24.0876 15.8747C24.0132 15.6267 24.1508 15.3638 24.3963 15.2886C24.6417 15.2135 24.9021 15.3525 24.9765 15.6005V15.6042L25.367 16.8966C25.3711 16.9103 25.3746 16.924 25.3774 16.9378L25.7157 16.8061ZM15.2601 15.0476C15.0603 14.6659 14.7258 14.3895 14.3176 14.2623L14.2698 14.2491C14.1134 14.2008 13.9571 14.1745 13.7964 14.1745C13.5358 14.1745 13.2838 14.2359 13.0537 14.3632C12.6758 14.565 12.4022 14.9028 12.2762 15.3152L10.9298 19.7067C10.8038 20.1191 10.8429 20.5534 11.0427 20.9351C11.2425 21.3167 11.5769 21.5931 11.9852 21.7247L12.0286 21.7379C12.8669 21.9967 13.7746 21.4966 14.0266 20.6718L15.3687 16.2759C15.4946 15.8636 15.4555 15.4292 15.2557 15.0476H15.2601Z" fill="#B85DFF"/>
</svg>
