<svg width="21" height="21" viewBox="0 0 21 21" fill="none" xmlns="http://www.w3.org/2000/svg">
<path d="M15.0148 5.4735L16.2256 4.26266L17.404 5.441L16.1931 6.65183C17.3896 8.14947 17.9672 10.0484 17.8074 11.9586C17.6475 13.8688 16.7623 15.6453 15.3335 16.9233C13.9048 18.2012 12.0409 18.8836 10.1248 18.8302C8.20864 18.7769 6.38565 17.9919 5.0302 16.6364C3.67475 15.281 2.88975 13.458 2.8364 11.5418C2.78306 9.62569 3.46543 7.76184 4.74337 6.33309C6.02131 4.90433 7.79781 4.01912 9.70803 3.85926C11.6182 3.6994 13.5172 4.27702 15.0148 5.4735ZM9.4998 7.16683V12.1668H14.4998V10.5002H11.1665V7.16683H9.4998ZM6.9998 1.3335H13.6665V3.00016H6.9998V1.3335Z" fill="#8A8A8A"/>
</svg>
