<svg width="13" height="16" viewBox="0 0 13 16" fill="none" xmlns="http://www.w3.org/2000/svg">
<circle cx="6.5" cy="9.26953" r="5.5" fill="#7A787E"/>
<path d="M6.38291 3.91919C7.76797 3.91919 9.0963 4.45639 10.0757 5.4126C11.0551 6.3688 11.6053 7.66569 11.6053 9.01797C11.6053 10.3702 11.0551 11.6671 10.0757 12.6233C9.0963 13.5795 7.76797 14.1167 6.38291 14.1167C4.99785 14.1167 3.66952 13.5795 2.69013 12.6233C1.71075 11.6671 1.16053 10.3702 1.16053 9.01797C1.16053 7.66569 1.71075 6.3688 2.69013 5.4126C3.66952 4.45639 4.99785 3.91919 6.38291 3.91919ZM6.38291 2.78613C4.69006 2.78613 3.06653 3.4427 1.8695 4.6114C0.67247 5.7801 0 7.36518 0 9.01797C0 10.6708 0.67247 12.2558 1.8695 13.4245C3.06653 14.5932 4.69006 15.2498 6.38291 15.2498C8.07576 15.2498 9.6993 14.5932 10.8963 13.4245C12.0934 12.2558 12.7658 10.6708 12.7658 9.01797C12.7658 7.36518 12.0934 5.7801 10.8963 4.6114C9.6993 3.4427 8.07576 2.78613 6.38291 2.78613Z" fill="#7A787E"/>
<path d="M8.70401 0H4.06189V1.69959H8.70401V0Z" fill="#7A787E"/>
<path d="M7.54359 1.65332H5.22253V3.35291H7.54359V1.65332Z" fill="#7A787E"/>
<path d="M6.38293 6.09961V9.01724H9.1566" stroke="#2C2D31" stroke-width="1.5" stroke-miterlimit="10" stroke-linecap="round"/>
</svg>
