<svg width="42" height="42" viewBox="0 0 42 42" fill="none" xmlns="http://www.w3.org/2000/svg">
<path d="M42 21C42 32.598 32.598 42 21 42C9.40202 42 0 32.598 0 21C0 9.40202 9.40202 0 21 0C32.598 0 42 9.40202 42 21Z" fill="#1D1D26"/>
<path opacity="0.4" d="M8.40039 17.2754C8.40039 16.7231 8.84811 16.2754 9.40039 16.2754H14.7004V27.3004H9.40039C8.84811 27.3004 8.40039 26.8527 8.40039 26.3004V17.2754Z" fill="#2EFF75"/>
<path d="M14.7002 13.0762C14.7002 12.5239 15.1479 12.0762 15.7002 12.0762H20.0002C20.5525 12.0762 21.0002 12.5239 21.0002 13.0762V27.3012H14.7002V13.0762Z" fill="#2EFF75"/>
<rect x="10" y="29.9258" width="3.98276" height="1.05" rx="0.525" fill="#B5E3C5"/>
<rect x="15.9497" y="29.9258" width="3.98276" height="1.05" rx="0.525" fill="#B5E3C5"/>
<rect x="21.8765" y="29.9258" width="3.98276" height="1.05" rx="0.525" fill="#B5E3C5"/>
<rect x="28.0172" y="29.9258" width="3.98276" height="1.05" rx="0.525" fill="#B5E3C5"/>
<rect opacity="0.6" x="21" y="21" width="6.3" height="6.3" fill="#2EFF75"/>
<path d="M27.2998 17.2754C27.2998 16.7231 27.7475 16.2754 28.2998 16.2754H32.5998C33.1521 16.2754 33.5998 16.7231 33.5998 17.2754V26.3004C33.5998 26.8527 33.1521 27.3004 32.5998 27.3004H27.2998V17.2754Z" fill="#2EFF75"/>
<rect x="15.75" y="13.125" width="4.2" height="1.575" rx="0.7875" fill="#E7FFEF"/>
<rect x="15.75" y="15.75" width="4.2" height="1.575" rx="0.7875" fill="#E7FFEF"/>
<rect x="9.4502" y="17.3262" width="4.2" height="1.575" rx="0.7875" fill="#76CE94"/>
<rect x="9.4502" y="19.9512" width="4.2" height="1.575" rx="0.7875" fill="#76CE94"/>
<rect x="22.0498" y="22.0488" width="4.2" height="1.575" rx="0.7875" fill="#76CE94"/>
<rect x="28.3496" y="17.8496" width="4.2" height="1.575" rx="0.7875" fill="#E6FFEF"/>
<rect x="15.75" y="18.375" width="4.2" height="1.575" rx="0.7875" fill="#E7FFEF"/>
</svg>
