<svg width="21" height="21" viewBox="0 0 21 21" fill="none" xmlns="http://www.w3.org/2000/svg">
<path d="M3.50016 15.4998H8.0835V16.5415C8.0835 17.1493 7.84205 17.7322 7.41228 18.1619C6.98251 18.5917 6.39962 18.8332 5.79183 18.8332C5.18404 18.8332 4.60115 18.5917 4.17138 18.1619C3.74161 17.7322 3.50016 17.1493 3.50016 16.5415V15.4998ZM6.8335 5.59982C8.50016 5.59982 9.3335 7.99982 9.3335 9.66649C9.3335 10.4998 8.91683 11.3332 8.50016 12.5832L8.0835 13.8332H3.50016C3.50016 12.9998 3.0835 11.7498 3.0835 9.66649C3.0835 7.58315 4.7485 5.59982 6.8335 5.59982ZM16.8785 12.2482L16.6977 13.274C16.5921 13.8726 16.2531 14.4048 15.7552 14.7534C15.2573 15.1021 14.6413 15.2387 14.0427 15.1332C13.444 15.0276 12.9119 14.6886 12.5632 14.1907C12.2145 13.6928 12.078 13.0768 12.1835 12.4782L12.3652 11.4532L16.8785 12.2482ZM15.3152 1.92065C17.3685 2.28232 18.6635 4.52399 18.3018 6.57565C17.9402 8.62815 17.3127 9.78649 17.1685 10.6073L12.6543 9.81149L12.461 8.50815C12.2677 7.20482 12.0027 6.31149 12.1468 5.49149C12.436 3.84982 13.6735 1.63149 15.3152 1.92065Z" fill="#8A8A8A"/>
</svg>
