<svg width="38" height="39" viewBox="0 0 38 39" fill="none" xmlns="http://www.w3.org/2000/svg">
<path d="M1.4673 6.43767C0.667969 7.347 0.667969 8.909 0.667969 12.0293V30.2517C0.667969 32.4627 0.667969 33.5682 1.24547 34.4005C1.82114 35.2328 2.82947 35.583 4.84614 36.2815L7.21847 37.1047C8.50364 37.5502 9.4918 37.893 10.3223 38.113C10.865 38.2578 11.3618 37.8325 11.3618 37.2715V8.4965C11.3555 8.27385 11.2756 8.05957 11.1346 7.88711C10.9937 7.71464 10.7996 7.5937 10.5826 7.54317C9.86947 7.36167 9.01147 7.06467 7.8363 6.65767C4.98913 5.6695 3.56464 5.17634 2.48297 5.67684C2.09499 5.85673 1.74901 6.11591 1.4673 6.43767ZM20.138 3.38334L17.322 5.33584C16.3045 6.04167 15.5565 6.5605 14.9203 6.929C14.7704 7.01275 14.6451 7.13437 14.557 7.28172C14.4688 7.42908 14.4209 7.59699 14.418 7.76867V36.3548C14.418 37.0332 15.122 37.4585 15.694 37.0918C16.3081 36.6995 17.0121 36.2118 17.8646 35.6215L20.6806 33.669C21.6981 32.9632 22.4461 32.4443 23.0823 32.0758C23.2322 31.9921 23.3575 31.8705 23.4456 31.7231C23.5338 31.5758 23.5817 31.4079 23.5846 31.2362V2.64817C23.5846 1.968 22.8806 1.5445 22.3086 1.90934C21.6945 2.3035 20.9905 2.79117 20.138 3.38334ZM33.1546 2.7215L30.7841 1.90017C29.499 1.45467 28.5108 1.11184 27.6803 0.891836C27.1376 0.747003 26.6408 1.17234 26.6408 1.73334V30.5083C26.6471 30.731 26.727 30.9453 26.868 31.1177C27.0089 31.2902 27.203 31.4111 27.42 31.4617C28.1331 31.6432 28.9911 31.9383 30.1663 32.3472C33.0135 33.3353 34.438 33.8285 35.5196 33.328C35.9076 33.1481 36.2536 32.8889 36.5353 32.5672C37.3346 31.6578 37.3346 30.0958 37.3346 26.9755V8.75317C37.3346 6.54217 37.3346 5.43484 36.7571 4.60434C36.1815 3.772 35.1731 3.42184 33.1565 2.72334L33.1546 2.7215Z" fill="#919191"/>
</svg>
