<svg width="80" height="80" viewBox="0 0 80 80" fill="none" xmlns="http://www.w3.org/2000/svg">
<path d="M78 40C78 60.9868 60.9868 78 40 78C19.0132 78 2 60.9868 2 40C2 19.0132 19.0132 2 40 2C60.9868 2 78 19.0132 78 40Z" fill="#0E2627" stroke="#0EE6F3" stroke-width="4"/>
<path d="M50.2483 51.9152L47.4297 45.4559L52.5972 43.3027L52.1274 47.1784L50.2483 51.9152Z" fill="#0D9199"/>
<path fill-rule="evenodd" clip-rule="evenodd" d="M44.2832 35.1621C43.9572 35.1621 43.6513 35.3207 43.4618 35.588C43.2722 35.8553 43.2223 36.1984 43.3277 36.5092L49.1969 53.8125C49.3046 54.13 49.5606 54.3736 49.8812 54.4637C50.2018 54.5538 50.5459 54.4788 50.801 54.2632L70.1753 37.8925C70.4951 37.6223 70.6171 37.1817 70.4823 36.7837C70.3475 36.3856 69.9838 36.1122 69.5669 36.0954L46.3369 35.1629C46.3236 35.1624 46.3102 35.1621 46.2968 35.1621H44.2832Z" fill="#0EE6F3"/>
<path fill-rule="evenodd" clip-rule="evenodd" d="M50.671 26.7867C50.5508 26.2674 50.0534 25.9296 49.5307 26.0125L21.9114 30.3933C21.619 30.4397 21.3614 30.6131 21.207 30.8677C21.0525 31.1222 21.0166 31.4323 21.1088 31.7158L28.2899 53.7988C28.3783 54.0709 28.5764 54.2928 28.8355 54.4102C29.0946 54.5275 29.3907 54.5295 29.6513 54.4155L53.7722 43.8657C54.2197 43.67 54.4644 43.1797 54.3536 42.7008L50.671 26.7867Z" fill="#0EE6F3"/>
<path d="M54.0291 43.8203L46.7188 47.0186L48.9489 52.7533C49.284 53.6149 50.5086 53.5994 50.8218 52.7295L54.0291 43.8203Z" fill="#0D9199"/>
<path d="M37 76C35.8 76 33.1667 75.3333 32 75L18.8091 31.0302C18.6421 30.4738 18.9829 29.8927 19.55 29.7667L22.0906 29.2021C22.6029 29.0882 23.1161 29.3898 23.2659 29.8928L37 76Z" fill="white"/>
</svg>
