<svg width="14" height="14" viewBox="0 0 14 14" fill="none" xmlns="http://www.w3.org/2000/svg">
<path fill-rule="evenodd" clip-rule="evenodd" d="M9.80002 0.699219H4.20002V2.09922H5.60002V2.97564C4.65376 3.2192 3.80429 3.70386 3.12101 4.36024C3.09384 4.38634 3.06691 4.41273 3.04021 4.43942C3.01301 4.46663 2.98612 4.49408 2.95954 4.52178C1.99366 5.52801 1.40002 6.89429 1.40002 8.39922C1.40002 9.90259 1.99243 11.2676 2.95653 12.2735C2.98409 12.3023 3.01199 12.3308 3.04021 12.359C3.06742 12.3862 3.09487 12.4131 3.12257 12.4397C4.12881 13.4056 5.49509 13.9992 7.00002 13.9992C8.5034 13.9992 9.8684 13.4068 10.8743 12.4427C10.9031 12.4151 10.9316 12.3872 10.9598 12.359C10.9891 12.3298 11.0179 12.3003 11.0464 12.2705C12.0088 11.2648 12.6 9.90108 12.6 8.39922C12.6 6.89585 12.0076 5.53085 11.0435 4.52491C11.016 4.49615 10.9881 4.46765 10.9598 4.43942C10.9326 4.41222 10.9052 4.38533 10.8775 4.35874C10.1945 3.70312 9.34557 3.21901 8.40002 2.97564V2.09922H9.80002V0.699219ZM7 5.16064C7.28995 5.16064 7.525 5.39569 7.525 5.68564V7.88039H9.58555C9.87549 7.88039 10.1105 8.11544 10.1105 8.40539C10.1105 8.69534 9.87549 8.93039 9.58555 8.93039H6.475V5.68564C6.475 5.39569 6.71005 5.16064 7 5.16064Z" fill="#8A8A8A"/>
</svg>
