<svg width="21" height="21" viewBox="0 0 21 21" fill="none" xmlns="http://www.w3.org/2000/svg">
<path fill-rule="evenodd" clip-rule="evenodd" d="M6.79471 6.41047C6.46203 7.03215 5.81956 7.45939 5.06914 7.45939C3.96894 7.45939 3.10075 6.54104 3.10075 5.43794C3.10075 4.33485 3.96894 3.4165 5.06914 3.4165C5.92841 3.4165 6.64616 3.97668 6.91931 4.74754L15.5036 5.67932C15.8336 5.71514 16.1108 5.94333 16.2094 6.26025C16.308 6.57716 16.2091 6.92237 15.9577 7.13904L5.46745 16.1798L14.5883 15.4749C14.8536 14.6892 15.5785 14.1149 16.4485 14.1149C17.5487 14.1149 18.4169 15.0333 18.4169 16.1364C18.4169 17.2395 17.5487 18.1578 16.4485 18.1578C15.7087 18.1578 15.0738 17.7426 14.7372 17.1351L3.06409 18.0371C2.70504 18.0649 2.36878 17.8589 2.23047 17.5264C2.09215 17.1939 2.18306 16.8101 2.45585 16.575L13.4161 7.12919L6.79471 6.41047Z" fill="#8A8A8A"/>
</svg>
