<svg width="13" height="12" viewBox="0 0 13 12" fill="none" xmlns="http://www.w3.org/2000/svg">
<path d="M2.5014 3.57981C3.26941 3.57981 3.87779 2.93835 3.87779 2.16491C3.87779 1.39146 3.26941 0.75 2.5014 0.75C1.73338 0.75 1.125 1.39146 1.125 2.16491C1.125 2.93835 1.73338 3.57981 2.5014 3.57981Z" fill="#7A787E" stroke="#7A787E" stroke-width="0.5"/>
<path d="M10.7621 11.3454C11.5302 11.3454 12.1385 10.704 12.1385 9.93053C12.1385 9.15709 11.5302 8.51562 10.7621 8.51562C9.99412 8.51562 9.38574 9.15709 9.38574 9.93053C9.38574 10.704 9.99412 11.3454 10.7621 11.3454Z" fill="#7A787E" stroke="#7A787E" stroke-width="0.5"/>
<path d="M2.50186 2.12598L10.0112 2.94108L1 10.7071L10.0112 10.0107" stroke="#7A787E" stroke-width="1.5" stroke-linejoin="round"/>
</svg>
