<svg width="75" height="74" viewBox="0 0 75 74" fill="none" xmlns="http://www.w3.org/2000/svg">
<path d="M74.7285 37C74.7285 57.4345 58.1631 74 37.7285 74C17.294 74 0.728516 57.4345 0.728516 37C0.728516 16.5655 17.294 0 37.7285 0C58.1631 0 74.7285 16.5655 74.7285 37Z" fill="#1D1D26"/>
<g clip-path="url(#clip0_6670_86285)">
<path d="M54.1175 27.2806C53.4691 26.9885 52.7419 26.962 52.0847 27.2187L47.0817 29.1657L37.0756 24.7052C36.7514 24.5901 36.4448 24.5459 36.1644 24.5459C35.3933 24.5459 34.8501 24.8645 34.8151 24.8822C34.7362 24.9176 34.0265 25.2539 33.5972 26.4044L25.3347 53.2736C24.9141 54.6896 25.7115 56.1853 27.1134 56.6101C28.489 57.0261 30.0136 56.1853 30.4254 54.8135L34.8238 40.0603L40.4314 42.6888L40.5891 50.9017C40.6154 52.3532 41.807 53.5302 43.244 53.5302C44.7598 53.5037 45.9339 52.3001 45.9076 50.7955L45.7148 40.9099C45.6973 39.8744 45.1103 38.9628 44.1727 38.5292L38.5389 35.9272L39.8707 31.8473L45.9426 34.5289C46.591 34.8121 47.3007 34.8387 47.9579 34.582L53.986 32.2456C54.6519 31.9889 55.1689 31.4933 55.4668 30.8384C55.7647 30.1835 55.7822 29.4577 55.5281 28.7851C55.274 28.1214 54.7834 27.5904 54.135 27.2895L54.1175 27.2806Z" fill="#0EE6F3"/>
<path d="M37.6191 22.8555C38.5653 23.3422 39.6255 23.4307 40.6156 23.0944C42.6659 22.4041 43.7611 20.1208 43.0602 18.0056C42.7185 16.979 42.0088 16.147 41.0712 15.6514C40.5105 15.3594 39.9147 15.2178 39.3013 15.2178C38.8895 15.2178 38.4777 15.2886 38.0834 15.4213C36.0332 16.1116 34.9379 18.395 35.6389 20.5102C35.9806 21.5368 36.6815 22.3687 37.6278 22.8555H37.6191Z" fill="#0EE6F3"/>
<path d="M30.9943 23.6713C30.5913 22.9014 29.9166 22.3438 29.093 22.0872L28.9966 22.0606C28.6812 21.9633 28.3657 21.9102 28.0416 21.9102C27.5158 21.9102 27.0077 22.0341 26.5433 22.2907C25.781 22.6978 25.229 23.3793 24.9749 24.2112L22.2587 33.0702C22.0046 33.9021 22.0835 34.7783 22.4865 35.5483C22.8896 36.3182 23.5642 36.8758 24.3879 37.1413L24.4755 37.1679C26.1665 37.69 27.9977 36.6811 28.5059 35.0173L31.2134 26.1494C31.4674 25.3175 31.3886 24.4413 30.9855 23.6713H30.9943Z" fill="#0EE6F3"/>
<path d="M50.5954 24.7864C50.4454 24.2862 49.9201 24.0058 49.4249 24.1573C48.9297 24.3089 48.6521 24.8394 48.8022 25.3396L49.59 27.9467C49.7101 28.3559 50.0852 28.6212 50.4904 28.6212C50.5804 28.6212 50.6705 28.606 50.7605 28.5833C51.2557 28.4317 51.5333 27.9012 51.3832 27.401L50.5954 24.7939V24.7864Z" fill="#0EE6F3"/>
<path d="M57.8883 47.7042L53.0836 32.6577C52.911 32.1651 52.3783 31.8998 51.8906 32.0741C51.4029 32.2484 51.1403 32.7865 51.3129 33.2792L56.1175 48.3257C56.2526 48.7198 56.6127 48.9623 57.0029 48.9623C57.1079 48.9623 57.2055 48.9471 57.3105 48.9092C57.7982 48.7349 58.0608 48.1968 57.8883 47.7042Z" fill="#0EE6F3"/>
</g>
<defs>
<clipPath id="clip0_6670_86285">
<rect width="38.5522" height="41.5958" fill="white" transform="translate(21.0327 15.2178)"/>
</clipPath>
</defs>
</svg>
