<svg width="40" height="40" viewBox="0 0 40 40" fill="none" xmlns="http://www.w3.org/2000/svg">
<path d="M25.1915 20.1172L22.5379 22.6339L17.8163 15.1448L8.76855 30.5559L13.456 33.6086L19.2894 35.0259L26.0483 33.9356L31.7176 29.5747L25.1915 20.1172Z" fill="#0EE6F3"/>
<path d="M22.538 22.6339L17.8164 15.1448L18.5513 25.9339L22.538 22.6339Z" fill="#1C757A"/>
<path d="M25.1928 20.1172L24.2037 26.0461H26.6587L21.3604 35.1349L27.6292 33.6086L31.4995 29.3021L25.1928 20.1172Z" fill="#1C757A"/>
<path d="M22.8057 11.7297V21.1765L23.8416 20.2305V15.222L27.787 13.1841L22.8057 11.7297Z" fill="#0EE6F3"/>
<path fill-rule="evenodd" clip-rule="evenodd" d="M20 33.9429C27.7004 33.9429 33.9429 27.7004 33.9429 20C33.9429 12.2996 27.7004 6.05714 20 6.05714C12.2996 6.05714 6.05714 12.2996 6.05714 20C6.05714 27.7004 12.2996 33.9429 20 33.9429ZM20 36C28.8366 36 36 28.8366 36 20C36 11.1634 28.8366 4 20 4C11.1634 4 4 11.1634 4 20C4 28.8366 11.1634 36 20 36Z" fill="#0EE6F3"/>
</svg>
