<svg width="40" height="40" viewBox="0 0 40 40" fill="none" xmlns="http://www.w3.org/2000/svg">
<path fill-rule="evenodd" clip-rule="evenodd" d="M33.9429 20C33.9429 27.7004 27.7004 33.9429 20 33.9429C12.2996 33.9429 6.05714 27.7004 6.05714 20C6.05714 12.2996 12.2996 6.05714 20 6.05714C27.7004 6.05714 33.9429 12.2996 33.9429 20ZM36 20C36 28.8366 28.8366 36 20 36C11.1634 36 4 28.8366 4 20C4 11.1634 11.1634 4 20 4C28.8366 4 36 11.1634 36 20ZM22.1907 14.0177C23.1808 13.7866 23.794 12.8056 23.5603 11.8266C23.3267 10.8476 22.3346 10.2413 21.3445 10.4723C20.3544 10.7034 19.7412 11.6844 19.9749 12.6634C20.2086 13.6424 21.2006 14.2487 22.1907 14.0177ZM27.7178 19.088C27.4709 18.8713 24.313 18.0312 24.313 18.0312L22.0157 15.4123C22.0157 15.4123 21.3608 14.7086 20.9168 14.5963C20.6921 14.5401 20.4618 14.5294 20.237 14.5642C20.2037 14.5668 20.1676 14.5749 20.1204 14.5856L15.6695 15.6477C15.342 15.7387 15.0646 15.9581 14.9064 16.2524L13.3968 19.7039C13.2442 19.9901 13.2137 20.3139 13.3136 20.6216C13.4135 20.9292 13.6327 21.1781 13.9268 21.3279C14.2238 21.4751 14.5595 21.5045 14.8786 21.4082C15.1977 21.3118 15.4558 21.1005 15.614 20.8115L16.8821 17.8203L18.5027 17.2932L17.2041 20.8115L15.7223 24.3512L13.3136 27.6636C12.914 28.204 13.0445 28.9585 13.605 29.3438C13.8187 29.4909 14.0684 29.5685 14.3293 29.5685C14.7316 29.5685 15.1118 29.3786 15.3449 29.0655L17.8534 25.6194C17.92 25.5312 17.9727 25.4322 18.0116 25.3305L19.0993 23.166L22.0937 24.8114L22.7458 28.3468C22.8152 28.9568 23.348 29.417 23.9862 29.417H23.9863C24.0334 29.417 24.0778 29.417 24.125 29.4089C24.8104 29.3367 25.3043 28.7401 25.2294 28.0792L24.5135 24.0034C24.4746 23.6583 24.2831 23.3479 23.9862 23.1499L21.1417 21.0684L21.7576 18.9039L22.8118 19.8505C23.0448 20.1016 23.3022 20.2117 23.7123 20.3872L23.7275 20.3937L26.927 21.1803C27.26 21.1669 27.568 21.0278 27.7927 20.7923C28.0175 20.5569 28.1341 20.2492 28.1202 19.9281C28.1063 19.6071 27.962 19.3074 27.715 19.0907L27.7178 19.088Z" fill="#0EF393"/>
</svg>
